<?xml version="1.0" encoding="UTF-8" standalone="no"?>
<svg
   xmlns:dc="http://purl.org/dc/elements/1.1/"
   xmlns:cc="http://creativecommons.org/ns#"
   xmlns:rdf="http://www.w3.org/1999/02/22-rdf-syntax-ns#"
   xmlns:svg="http://www.w3.org/2000/svg"
   xmlns="http://www.w3.org/2000/svg"
   xmlns:sodipodi="http://sodipodi.sourceforge.net/DTD/sodipodi-0.dtd"
   xmlns:inkscape="http://www.inkscape.org/namespaces/inkscape"
   version="1.0"
   width="278.14728"
   height="720.01111"
   viewBox="0 0 222.51783 576.00889"
   preserveAspectRatio="xMidYMid meet"
   id="svg2"
   sodipodi:docname="gray.svg">
  <defs
     id="defs50" />
  <sodipodi:namedview
     pagecolor="#ffffff"
     bordercolor="#666666"
     borderopacity="1"
     objecttolerance="10"
     gridtolerance="10"
     guidetolerance="10"
     inkscape:pageopacity="0"
     inkscape:pageshadow="2"
     inkscape:window-width="1280"
     inkscape:window-height="996"
     id="namedview48"
     showgrid="false"
     fit-margin-top="0"
     fit-margin-left="0"
     fit-margin-right="0"
     fit-margin-bottom="0"
     inkscape:zoom="1.8541324"
     inkscape:cx="518.79487"
     inkscape:cy="314.52664"
     inkscape:window-x="0"
     inkscape:window-y="0"
     inkscape:window-maximized="1"
     inkscape:current-layer="svg2" />
  <metadata
     id="metadata4">
Created by potrace 1.10, written by Peter Selinger 2001-2011
<rdf:RDF>
  <cc:Work
     rdf:about="">
    <dc:format>image/svg+xml</dc:format>
    <dc:type
       rdf:resource="http://purl.org/dc/dcmitype/StillImage" />
    <dc:title></dc:title>
  </cc:Work>
</rdf:RDF>
</metadata>
  <rect
     style="fill:#b9b9b9;fill-opacity:1;stroke:none"
     id="rect4000"
     width="37.90556"
     height="576"
     x="440.77933"
     y="-1.2468382" />
  <g
     transform="matrix(0.024,0,0,-0.024,256.16707,574.74427)"
     id="g6"
     style="fill:#b9b9b9;stroke:none">
    <path
       d="m 0,19970 0,-4031 32,1 c 18,1 132,1 253,0 437,-2 4928,15 6528,25 l 957,6 0,-184 0,-184 -212,-7 c -117,-3 -319,-6 -448,-6 -550,2 -2073,-6 -2920,-15 -300,-3 -583,-4 -630,-3 -100,2 -55,2 -765,-4 -308,-3 -900,-9 -1315,-12 -415,-4 -918,-7 -1117,-7 l -363,0 0,-2675 0,-2675 648,6 c 614,5 1179,8 3237,19 490,3 1084,7 1320,10 370,5 1951,9 2413,7 l 152,-1 0,-190 0,-190 -92,0 c -51,0 -334,-3 -628,-5 -294,-3 -976,-7 -1515,-9 -936,-4 -1979,-10 -3515,-22 -747,-6 -820,-6 -1025,-5 -71,1 -161,-1 -200,-4 -38,-3 -86,-6 -105,-6 -19,0 -182,2 -362,3 L 0,9815 0,4908 0,0 l 3890,0 3890,0 -2,9443 c -2,5193 -4,8807 -5,8031 l -3,-1412 -35,16 c -19,9 -35,20 -35,24 0,4 -8,16 -18,26 -9,9 -32,49 -51,87 -40,80 -40,80 -104,146 -26,27 -59,52 -72,55 -14,3 -25,12 -25,20 0,8 -4,14 -8,14 -5,0 -17,9 -29,19 -11,10 -34,26 -51,35 -18,9 -32,23 -32,30 0,8 -12,21 -26,31 -37,24 -184,173 -184,187 0,6 -16,28 -35,49 -19,22 -35,45 -35,53 0,8 -10,27 -23,43 -13,15 -34,49 -46,76 -13,26 -27,47 -32,47 -5,0 -9,11 -9,25 0,14 -4,25 -9,25 -5,0 -18,20 -30,45 -13,27 -36,55 -58,69 -21,14 -49,34 -63,45 -14,11 -31,21 -37,21 -7,0 -13,4 -13,9 0,5 -21,17 -47,27 -27,10 -70,33 -98,51 -27,18 -56,33 -63,33 -7,0 -24,11 -38,25 -14,14 -37,31 -52,39 -34,18 -116,111 -161,185 -20,31 -45,65 -57,76 -12,11 -29,38 -38,59 -9,21 -29,54 -46,72 -16,19 -30,40 -30,48 0,7 -15,30 -33,52 -19,21 -46,58 -60,81 -25,39 -75,93 -87,93 -3,0 -30,23 -59,50 -29,28 -57,50 -62,50 -4,0 -20,11 -35,25 -15,14 -32,25 -37,25 -6,0 -20,9 -31,19 -12,11 -35,27 -52,38 -53,31 -118,76 -132,90 -7,7 -18,13 -23,13 -8,0 -22,10 -63,45 -11,9 -26,18 -80,49 -11,6 -30,21 -43,33 -13,13 -36,29 -51,37 -26,14 -112,98 -112,109 0,3 -21,29 -47,57 -26,28 -59,72 -74,98 -15,27 -34,54 -43,61 -9,7 -16,19 -16,26 0,7 -11,29 -25,49 -14,20 -28,48 -31,61 -3,14 -14,31 -23,38 -9,6 -30,35 -46,62 -28,48 -100,127 -159,172 -15,13 -51,43 -78,68 -27,25 -54,45 -59,45 -6,0 -22,14 -36,30 -13,17 -31,30 -38,30 -8,0 -29,14 -47,30 -18,17 -41,33 -51,36 -11,3 -34,21 -52,40 -18,19 -38,34 -44,34 -19,0 -121,111 -154,168 -11,21 -36,55 -54,78 -18,23 -33,45 -33,51 0,5 -13,27 -30,49 -16,21 -30,44 -30,51 0,6 -17,33 -38,60 -21,26 -44,62 -51,79 -7,17 -24,37 -39,45 -15,7 -38,24 -52,37 -13,13 -37,30 -52,38 -16,8 -44,30 -64,49 -20,19 -40,35 -45,35 -5,0 -36,27 -69,60 -58,59 -59,61 -41,79 10,10 45,28 77,40 97,35 104,40 66,40 -30,1 -31,2 -20,24 7,12 20,30 28,41 12,14 5,13 -32,-8 l -47,-26 14,35 c 19,44 19,55 -1,55 -11,0 -15,-6 -11,-19 6,-23 -45,-117 -62,-113 -7,1 -10,-2 -7,-6 3,-5 -6,-22 -19,-36 l -25,-27 -59,70 c -32,38 -80,93 -107,121 -27,28 -63,76 -81,105 -18,30 -46,69 -64,87 -17,18 -51,62 -74,98 -23,36 -54,79 -69,95 -83,92 -127,135 -139,135 -7,0 -28,16 -47,35 -19,19 -38,35 -43,35 -5,0 -22,10 -37,23 -15,12 -40,30 -56,39 -16,10 -49,33 -74,53 -25,19 -55,39 -66,44 -12,5 -41,28 -65,50 -24,23 -51,43 -59,46 -8,3 -27,25 -43,49 -15,24 -45,63 -66,88 -21,24 -46,59 -55,78 -24,52 -64,122 -84,145 -9,11 -26,35 -36,54 -11,19 -36,53 -57,75 -21,23 -57,61 -79,86 -23,25 -54,52 -70,60 -61,32 -222,110 -229,110 -3,0 -14,9 -24,20 -9,11 -23,20 -30,20 -17,0 -92,73 -143,141 -40,51 -102,158 -143,244 -30,62 -187,235 -214,235 -7,0 -28,16 -47,35 -19,19 -39,35 -45,35 -6,0 -22,11 -35,25 -13,14 -28,25 -33,25 -5,0 -32,16 -58,35 -27,19 -52,35 -55,35 -14,0 -171,177 -193,218 -7,14 -27,44 -42,65 -16,22 -29,43 -29,47 0,5 -21,45 -47,91 -55,100 -127,189 -153,189 -10,0 -27,10 -37,23 -10,12 -44,35 -76,51 -31,16 -60,33 -63,37 -3,5 -14,9 -25,9 -10,0 -19,4 -19,9 0,5 -15,16 -33,24 -18,9 -50,37 -71,62 -26,30 -46,45 -62,45 l -24,0 0,-4030 z"
       id="path8"
       inkscape:connector-curvature="0" />
    <path
       d="m 2546,23986 c 3,-8 19,-19 35,-25 16,-5 29,-14 29,-20 0,-5 16,-15 35,-21 19,-6 35,-16 35,-21 0,-5 9,-9 20,-9 10,0 23,-6 27,-13 4,-8 20,-20 34,-28 81,-43 107,-59 118,-73 8,-9 19,-16 25,-16 15,0 66,-45 66,-59 0,-6 3,-11 8,-11 8,0 72,-56 72,-64 0,-4 14,-21 110,-127 20,-22 44,-56 55,-76 11,-21 37,-55 57,-78 21,-22 44,-54 52,-70 14,-29 25,-43 82,-107 13,-15 29,-41 36,-57 13,-29 127,-158 243,-275 72,-72 107,-101 148,-122 17,-9 35,-20 41,-26 6,-5 23,-17 37,-26 99,-64 139,-94 149,-111 6,-12 16,-21 23,-21 17,0 167,-157 252,-264 84,-105 233,-236 269,-236 7,0 21,-9 31,-20 10,-11 29,-20 42,-20 12,0 23,-4 23,-10 0,-10 55,-50 111,-81 29,-17 69,-56 69,-68 -1,-13 -111,-72 -122,-65 -6,4 -8,3 -4,-4 3,-6 -3,-13 -14,-17 -11,-3 -20,-11 -20,-17 0,-5 7,-8 15,-5 30,12 23,-12 -15,-53 -49,-53 -52,-66 -5,-20 19,19 35,30 35,25 0,-4 9,0 21,11 11,10 20,14 19,9 -10,-49 5,-41 40,20 21,39 49,78 61,87 21,18 22,17 83,-59 33,-43 70,-94 81,-115 32,-59 210,-258 231,-258 7,0 26,-11 42,-25 17,-14 37,-25 45,-25 8,0 22,-11 31,-25 10,-14 29,-31 44,-38 37,-15 62,-42 102,-107 19,-30 37,-57 40,-60 4,-3 10,-12 13,-20 22,-47 80,-127 136,-187 35,-37 83,-89 108,-115 24,-27 48,-48 53,-48 5,0 28,-18 52,-40 24,-22 48,-40 54,-40 6,0 28,-16 49,-35 20,-20 49,-42 65,-50 35,-18 196,-199 218,-245 9,-19 24,-42 34,-52 10,-10 18,-25 18,-33 0,-15 5,-24 40,-64 8,-9 23,-33 33,-52 23,-45 125,-159 141,-159 7,0 28,-16 47,-35 19,-19 46,-40 62,-46 15,-6 27,-14 27,-18 0,-3 30,-24 67,-46 37,-22 80,-53 98,-70 17,-16 50,-43 73,-59 23,-16 42,-31 42,-35 1,-3 23,-31 51,-61 27,-30 57,-69 65,-86 8,-17 36,-55 62,-85 26,-30 54,-67 62,-82 16,-31 91,-110 169,-175 57,-49 147,-112 158,-112 5,0 24,-14 43,-30 19,-16 38,-30 42,-30 3,0 27,-20 51,-45 25,-25 48,-45 51,-45 3,0 6,1150 6,2555 l 0,2555 -2620,0 c -2267,0 -2619,-2 -2614,-14 z"
       id="path10"
       inkscape:connector-curvature="0" />
    <path
       d="m 4629,21583 -34,-38 38,34 c 20,19 37,36 37,38 0,8 -8,0 -41,-34 z"
       id="path12"
       inkscape:connector-curvature="0" />
    <path
       d="m 3882,21490 c -68,-42 -81,-140 -25,-196 31,-31 96,-55 110,-40 4,3 -4,6 -16,6 -53,0 -91,52 -91,126 0,48 27,103 54,109 11,2 30,6 41,8 13,3 9,5 -10,6 -16,0 -45,-8 -63,-19 z"
       id="path14"
       inkscape:connector-curvature="0" />
    <path
       d="m 3996,21502 c -3,-3 3,-12 13,-21 10,-9 20,-23 24,-31 3,-8 6,-1 6,16 1,23 -4,33 -18,37 -11,3 -22,2 -25,-1 z"
       id="path16"
       inkscape:connector-curvature="0" />
    <path
       d="m 4594,21443 c -3,-10 -10,-26 -15,-35 -5,-11 -5,-19 1,-23 6,-3 10,-30 10,-60 0,-44 4,-57 21,-69 12,-8 28,-12 37,-9 12,5 11,8 -6,14 -19,7 -22,16 -22,69 0,55 2,60 23,61 l 22,0 -22,9 c -16,6 -23,18 -23,35 0,29 -18,34 -26,8 z"
       id="path18"
       inkscape:connector-curvature="0" />
    <path
       d="m 4108,21343 c 3,-41 0,-68 -8,-78 -11,-13 -7,-15 26,-15 30,0 35,3 26,12 -13,13 -16,75 -6,102 3,9 17,16 31,16 44,0 19,22 -28,24 l -45,2 4,-63 z"
       id="path20"
       inkscape:connector-curvature="0" />
    <path
       d="m 4420,21395 c -15,-18 -61,-20 -78,-3 -9,9 -12,6 -12,-16 0,-24 -3,-27 -27,-24 -22,2 -28,8 -26,26 3,25 -4,27 -29,8 -12,-9 -18,-27 -18,-55 0,-52 27,-82 73,-80 l 32,2 -30,4 c -35,6 -45,18 -45,56 0,25 3,27 39,27 21,0 59,3 85,6 40,6 46,10 46,30 0,19 5,24 25,24 21,0 25,-5 25,-30 0,-25 -4,-30 -24,-30 -13,0 -34,-8 -47,-19 -20,-16 -22,-22 -12,-44 11,-23 16,-24 75,-22 78,4 77,3 56,16 -14,7 -18,23 -18,62 0,29 -5,58 -12,65 -17,17 -63,15 -78,-3 z m 60,-100 c 0,-20 -5,-25 -25,-25 -20,0 -25,5 -25,25 0,20 5,25 25,25 20,0 25,-5 25,-25 z"
       id="path22"
       inkscape:connector-curvature="0" />
    <path
       d="m 3990,21340 c 0,-5 5,-10 10,-10 17,0 11,-48 -7,-60 -15,-9 -14,-10 7,-4 35,9 47,21 52,49 3,15 0,26 -9,29 -23,9 -53,7 -53,-4 z"
       id="path24"
       inkscape:connector-curvature="0" />
    <path
       d="m 3772,21151 c -11,-7 -10,-9 3,-15 12,-4 15,-16 13,-48 -3,-41 -4,-43 -42,-49 -85,-14 -106,-119 -31,-155 29,-15 322,-9 340,6 24,20 18,44 -22,86 -29,32 -33,40 -19,42 9,2 23,-2 31,-8 12,-10 15,-9 15,9 0,28 -42,29 -70,1 -17,-17 -19,-24 -9,-43 6,-12 23,-32 38,-44 21,-17 24,-24 13,-35 -9,-9 -17,-10 -30,-2 -9,6 -32,9 -50,6 l -32,-4 0,65 c 0,71 -4,79 -35,66 -11,-4 -14,-8 -7,-8 8,-1 12,-21 12,-63 l 0,-63 -32,1 -33,1 0,124 c 0,135 -9,158 -53,130 z m 7,-135 c 7,-8 11,-37 9,-68 -3,-50 -5,-53 -31,-56 -16,-2 -35,2 -43,9 -17,14 -19,100 -2,117 16,16 53,15 67,-2 z"
       id="path26"
       inkscape:connector-curvature="0" />
    <path
       d="m 3900,21089 c 0,-18 2,-19 15,-9 15,12 12,30 -6,30 -5,0 -9,-10 -9,-21 z"
       id="path28"
       inkscape:connector-curvature="0" />
    <path
       d="m 4124,21068 c -9,-30 -6,-132 6,-163 7,-18 17,-25 37,-25 l 27,0 -22,16 c -20,14 -23,23 -20,67 3,45 6,52 28,58 17,5 19,7 7,8 -11,1 -22,13 -28,31 -13,36 -25,38 -35,8 z"
       id="path30"
       inkscape:connector-curvature="0" />
    <path
       d="m 4660,21035 c 0,-9 9,-15 25,-15 18,0 25,-5 25,-20 0,-11 7,-20 15,-20 21,0 18,10 -10,43 -26,29 -55,36 -55,12 z"
       id="path32"
       inkscape:connector-curvature="0" />
    <path
       d="m 4820,21043 c 0,-5 -14,-17 -30,-28 -25,-17 -30,-27 -30,-60 1,-53 37,-82 95,-75 12,2 6,5 -15,9 -29,5 -36,11 -38,35 -4,35 10,46 61,46 40,0 49,17 22,42 -43,39 -65,49 -65,31 z m 43,-37 c 7,-18 -1,-26 -28,-26 -29,0 -37,10 -24,27 15,17 45,17 52,-1 z"
       id="path34"
       inkscape:connector-curvature="0" />
    <path
       d="m 4283,21033 c 22,-4 27,-9 27,-34 0,-24 -4,-29 -24,-29 -41,0 -84,-63 -56,-80 15,-9 128,-5 137,4 4,3 -1,6 -10,6 -14,0 -17,10 -17,54 0,62 -17,87 -58,85 l -27,-2 28,-4 z m 27,-108 c 0,-21 -5,-25 -30,-25 -25,0 -30,4 -30,25 0,21 5,25 30,25 25,0 30,-4 30,-25 z"
       id="path36"
       inkscape:connector-curvature="0" />
    <path
       d="m 4440,21030 c -25,-4 -39,-8 -32,-8 8,-2 12,-22 12,-66 0,-42 -4,-66 -12,-69 -7,-3 1,-6 17,-6 l 30,-1 0,67 0,68 33,3 34,3 -4,-70 -3,-71 28,0 c 23,0 27,3 23,23 -3,12 -8,39 -11,60 -6,40 -36,78 -57,75 -7,0 -33,-4 -58,-8 z"
       id="path38"
       inkscape:connector-curvature="0" />
    <path
       d="m 4230,21011 c 0,-11 5,-23 10,-26 6,-4 10,5 10,19 0,14 -4,26 -10,26 -5,0 -10,-9 -10,-19 z"
       id="path40"
       inkscape:connector-curvature="0" />
    <path
       d="m 4632,21023 c -16,-6 -42,-56 -42,-81 0,-11 11,-27 24,-38 14,-10 23,-21 21,-25 -5,-7 66,-1 74,6 2,3 -9,5 -25,5 -17,0 -35,5 -42,12 -16,16 -16,100 0,116 13,13 11,14 -10,5 z"
       id="path42"
       inkscape:connector-curvature="0" />
    <path
       d="m 4880,20915 c 0,-8 7,-15 15,-15 8,0 15,7 15,15 0,8 -7,15 -15,15 -8,0 -15,-7 -15,-15 z"
       id="path44"
       inkscape:connector-curvature="0" />
    <path
       d="m 3695,20700 c -16,-17 -25,-30 -21,-30 10,0 59,50 54,56 -3,2 -17,-10 -33,-26 z"
       id="path46"
       inkscape:connector-curvature="0" />
  </g>
  <g
     style="fill:#000000;stroke:none"
     transform="matrix(0.024,0,0,-0.024,256.26721,574.72796)"
     id="g3031">
    <path
       inkscape:connector-curvature="0"
       d="m 6326,23279 c -24,-19 -27,-28 -25,-68 3,-57 27,-81 81,-81 56,0 88,24 88,67 0,45 -14,69 -50,88 -39,20 -62,19 -94,-6 z"
       id="path3033" />
    <path
       inkscape:connector-curvature="0"
       d="m 6342,23011 c -29,-8 -82,-58 -84,-79 0,-10 -2,-24 -2,-32 -3,-32 25,-60 60,-60 32,0 33,-1 24,-26 -16,-41 -13,-56 12,-52 23,3 27,10 67,143 27,89 27,108 1,100 -10,-3 -27,-2 -37,3 -10,5 -28,6 -41,3 z m 32,-27 c 21,-8 20,-22 -4,-71 -41,-85 -93,-59 -56,28 21,50 28,55 60,43 z"
       id="path3035" />
    <path
       inkscape:connector-curvature="0"
       d="m 6512,22877 c -28,-29 -28,-59 -1,-83 l 21,-19 -7,43 c -6,38 -5,42 14,42 34,0 26,-44 -19,-101 -22,-28 -38,-54 -35,-59 6,-10 96,-7 113,4 14,9 16,56 2,56 -5,0 -10,-4 -10,-9 0,-5 -11,-11 -25,-13 -32,-7 -31,-4 5,35 35,37 40,85 12,110 -25,23 -45,21 -70,-6 z"
       id="path3037" />
    <path
       inkscape:connector-curvature="0"
       d="m 4826,21803 c -49,-29 -94,-54 -99,-56 -6,-2 -7,-9 -3,-15 5,-9 13,-9 27,-1 45,24 25,-2 -63,-83 -51,-47 -94,-90 -96,-97 -5,-24 43,11 125,92 78,77 115,97 79,43 -19,-30 -20,-36 -3,-36 6,0 27,29 46,64 19,36 45,76 58,91 49,53 20,52 -71,-2 z"
       id="path3039" />
    <path
       inkscape:connector-curvature="0"
       d="m 3904,21510 c -41,-13 -71,-47 -82,-95 -17,-77 22,-145 96,-164 34,-9 47,-8 86,9 32,13 46,25 46,39 0,11 5,23 10,26 23,14 7,25 -35,25 -25,0 -45,-4 -45,-10 0,-5 5,-10 11,-10 6,0 9,-12 7,-27 -3,-24 -8,-28 -39,-31 -58,-5 -82,22 -87,99 -3,54 -1,68 18,92 17,21 30,27 60,27 36,0 70,-20 70,-41 0,-5 7,-9 15,-9 10,0 15,10 15,29 0,25 -4,29 -37,35 -21,3 -47,8 -58,10 -11,3 -34,1 -51,-4 z"
       id="path3041" />
    <path
       inkscape:connector-curvature="0"
       d="m 4597,21464 c -4,-4 -7,-17 -7,-29 0,-11 -5,-26 -12,-33 -9,-9 -9,-15 0,-24 7,-7 12,-35 12,-63 0,-28 5,-56 12,-63 17,-17 58,-15 58,3 0,8 -6,15 -14,15 -18,0 -26,22 -26,71 0,32 4,39 19,39 10,0 21,7 25,15 3,10 -1,15 -14,15 -13,0 -20,8 -22,27 -3,26 -18,39 -31,27 z"
       id="path3043" />
    <path
       inkscape:connector-curvature="0"
       d="m 4273,21405 c -79,-33 -59,-165 25,-165 31,0 62,17 62,35 0,12 -6,11 -31,-3 -29,-17 -31,-16 -50,7 -10,13 -19,29 -19,37 0,15 3,16 65,18 45,1 58,25 30,56 -23,25 -47,30 -82,15 z m 41,-11 c 9,-3 16,-15 16,-25 0,-14 -7,-19 -30,-19 -31,0 -39,17 -18,38 14,14 12,14 32,6 z"
       id="path3045" />
    <path
       inkscape:connector-curvature="0"
       d="m 4428,21413 c -19,-5 -33,-37 -23,-53 9,-15 25,-2 25,21 0,15 6,20 23,17 27,-4 39,-58 12,-58 -34,0 -75,-30 -75,-55 0,-33 38,-52 69,-36 15,9 25,8 41,-1 16,-11 22,-10 37,4 15,16 15,18 0,24 -13,5 -17,18 -17,55 0,71 -31,98 -92,82 z m 50,-119 c -5,-27 -48,-32 -48,-5 0,22 30,44 43,31 5,-4 7,-16 5,-26 z"
       id="path3047" />
    <path
       inkscape:connector-curvature="0"
       d="m 4090,21400 c 0,-6 5,-10 10,-10 6,0 10,-27 10,-60 0,-36 -4,-60 -11,-60 -5,0 -7,-4 -4,-10 3,-5 19,-10 34,-10 l 27,0 -4,66 -4,65 28,-3 c 21,-2 29,1 29,12 0,11 -14,16 -57,17 -32,1 -58,-2 -58,-7 z"
       id="path3049" />
    <path
       inkscape:connector-curvature="0"
       d="m 3756,21151 c -3,-5 0,-11 8,-14 14,-5 27,-71 19,-94 -3,-8 -12,-9 -27,-3 -44,16 -95,-31 -96,-87 0,-12 12,-35 26,-52 24,-29 29,-30 85,-27 33,2 63,6 65,9 3,3 1,14 -5,25 -6,12 -11,73 -11,136 l 0,116 -29,0 c -17,0 -32,-4 -35,-9 z m 32,-184 c 6,-68 -28,-97 -68,-57 -26,26 -26,74 1,101 18,18 23,19 42,6 14,-9 23,-27 25,-50 z"
       id="path3051" />
    <path
       inkscape:connector-curvature="0"
       d="m 3893,21104 c -9,-23 13,-40 32,-24 12,10 13,16 4,26 -15,18 -28,18 -36,-2 z"
       id="path3053" />
    <path
       inkscape:connector-curvature="0"
       d="m 4127,21088 c -2,-7 -9,-28 -15,-45 -6,-19 -6,-33 -1,-33 5,0 9,-24 9,-54 0,-60 18,-89 53,-84 28,4 34,28 8,28 -23,0 -23,0 -27,45 -3,43 4,63 27,70 25,8 25,25 0,25 -14,0 -21,8 -23,27 -3,28 -26,44 -31,21 z"
       id="path3055" />
    <path
       inkscape:connector-curvature="0"
       d="m 4241,21031 c -16,-12 -22,-24 -18,-36 9,-22 31,-14 35,14 5,32 47,25 47,-8 0,-18 -8,-27 -30,-34 -42,-14 -55,-26 -55,-53 0,-31 31,-48 63,-33 18,8 30,8 46,0 18,-10 22,-9 28,5 4,10 2,19 -5,22 -7,2 -12,25 -12,57 0,81 -43,109 -99,66 z m 64,-110 c -6,-21 -39,-29 -49,-12 -9,14 4,39 22,44 24,5 35,-8 27,-32 z"
       id="path3057" />
    <path
       inkscape:connector-curvature="0"
       d="m 3870,21025 c 0,-8 5,-15 11,-15 8,0 10,-21 7,-69 l -5,-68 29,-1 c 26,-1 28,2 21,21 -4,12 -8,45 -9,72 -1,28 -2,56 -3,63 -2,18 -51,15 -51,-3 z"
       id="path3059" />
    <path
       inkscape:connector-curvature="0"
       d="m 3982,21028 c -24,-24 -14,-58 23,-79 42,-25 48,-59 10,-59 -14,0 -25,5 -25,10 0,6 -7,10 -15,10 -13,0 -14,-4 -5,-20 12,-22 49,-26 81,-10 31,17 25,67 -11,88 -34,19 -45,41 -31,55 7,7 17,5 29,-6 24,-22 32,-21 32,3 0,16 -7,20 -38,20 -21,0 -43,-5 -50,-12 z"
       id="path3061" />
    <path
       inkscape:connector-curvature="0"
       d="m 4406,21016 c 4,-11 8,-49 7,-83 0,-63 0,-63 29,-63 26,0 28,2 18,20 -6,12 -10,41 -8,67 3,49 22,71 53,59 15,-5 17,-16 13,-76 -5,-68 -5,-70 18,-70 22,0 24,4 24,58 0,31 -6,68 -13,82 -11,23 -19,25 -81,26 -65,1 -67,1 -60,-20 z"
       id="path3063" />
    <path
       inkscape:connector-curvature="0"
       d="m 4623,21025 c -44,-31 -35,-131 12,-149 28,-10 72,-7 84,7 16,20 3,27 -25,15 -50,-23 -87,58 -49,108 27,35 15,45 -22,19 z"
       id="path3065" />
    <path
       inkscape:connector-curvature="0"
       d="m 4700,21022 c 0,-33 10,-51 26,-45 20,7 17,27 -6,48 -19,18 -20,17 -20,-3 z"
       id="path3067" />
    <path
       inkscape:connector-curvature="0"
       d="m 4781,21016 c -50,-53 -15,-146 55,-146 17,0 38,7 45,16 12,15 10,16 -19,9 -39,-8 -62,7 -62,41 0,21 5,23 52,26 28,2 53,8 55,14 5,15 -43,71 -53,62 -4,-4 -1,-14 5,-22 18,-21 5,-36 -30,-36 -29,0 -39,13 -19,25 12,7 13,35 2,35 -5,0 -19,-11 -31,-24 z"
       id="path3069" />
    <path
       inkscape:connector-curvature="0"
       d="m 3675,20689 c -44,-44 -88,-85 -98,-90 -17,-10 -17,-8 -2,27 18,43 18,44 4,44 -5,0 -16,-15 -24,-32 -7,-18 -36,-61 -64,-96 -28,-35 -49,-68 -45,-73 6,-10 8,-9 69,32 22,15 66,35 98,45 34,11 57,23 57,32 0,14 -14,13 -67,-4 -10,-3 26,36 80,88 85,80 105,108 78,108 -4,0 -42,-36 -86,-81 z"
       id="path3071" />
    <path
       inkscape:connector-curvature="0"
       d="m 1875,19265 c -52,-51 -18,-145 51,-145 41,0 94,45 94,80 0,78 -91,120 -145,65 z"
       id="path3073" />
    <path
       inkscape:connector-curvature="0"
       d="m 1855,18968 c -26,-20 -55,-73 -55,-100 0,-27 44,-63 73,-60 26,3 27,2 17,-24 -13,-34 -6,-54 18,-54 14,0 22,12 30,48 7,26 21,81 32,122 10,41 17,76 15,78 -2,2 -26,6 -53,8 -39,3 -55,-1 -77,-18 z m 73,-33 c 3,-38 -31,-95 -58,-95 -14,0 -20,7 -20,24 0,24 22,85 36,99 17,16 39,1 42,-28 z"
       id="path3075" />
    <path
       inkscape:connector-curvature="0"
       d="m 2058,18843 c -22,-5 -23,-17 -3,-33 16,-14 22,-146 6,-136 -5,3 -11,-1 -15,-9 -4,-11 3,-15 27,-16 18,0 40,-2 50,-4 20,-4 23,21 3,32 -9,5 -17,37 -23,87 -8,79 -13,87 -45,79 z"
       id="path3077" />
    <path
       inkscape:connector-curvature="0"
       d="m 4303,17233 c -7,-3 -13,-13 -13,-23 0,-9 -6,-23 -14,-29 -8,-6 -17,-26 -21,-44 -11,-46 -9,-145 3,-160 6,-6 12,-21 14,-32 3,-19 48,-68 56,-60 6,6 -22,79 -33,87 -5,4 -10,45 -9,90 0,63 5,93 21,125 21,43 20,55 -4,46 z"
       id="path3079" />
    <path
       inkscape:connector-curvature="0"
       d="m 4620,17229 c 0,-8 6,-23 14,-34 18,-26 38,-123 29,-138 -4,-7 -9,-27 -10,-45 -1,-19 -11,-53 -22,-76 -24,-48 -25,-56 -11,-56 18,0 48,33 43,47 -3,7 1,20 8,29 7,9 14,21 16,28 1,6 7,29 12,52 12,48 9,72 -19,129 -23,48 -60,87 -60,64 z"
       id="path3081" />
    <path
       inkscape:connector-curvature="0"
       d="m 4447,17123 c -53,-27 -74,-110 -39,-153 15,-19 22,-21 38,-12 12,7 25,7 37,0 15,-8 25,-4 47,17 18,17 26,33 22,43 -4,11 -7,12 -10,4 -9,-28 -20,1 -11,31 24,77 23,82 -19,83 -21,1 -51,-5 -65,-13 z m 41,-80 c -14,-50 -44,-75 -55,-47 -7,20 13,81 35,107 26,29 37,-4 20,-60 z"
       id="path3083" />
    <path
       inkscape:connector-curvature="0"
       d="m 5592,14753 c -39,-19 -56,-54 -47,-99 5,-30 2,-34 -49,-63 -60,-33 -72,-46 -55,-56 12,-8 48,8 95,43 26,18 39,21 72,16 37,-6 44,-3 72,24 41,41 40,78 -3,120 -38,37 -40,37 -85,15 z"
       id="path3085" />
    <path
       inkscape:connector-curvature="0"
       d="m 5867,14750 c -40,-32 -60,-76 -52,-116 6,-34 10,-36 70,-47 12,-2 18,-9 16,-18 -10,-37 -6,-54 14,-54 15,0 24,11 34,45 8,25 17,54 22,65 4,11 10,33 14,48 3,15 9,26 13,23 4,-2 6,11 4,30 -3,27 -8,33 -26,33 -11,-1 -35,2 -51,6 -23,5 -37,1 -58,-15 z m 71,-36 c 5,-32 -31,-88 -58,-92 -21,-4 -22,-1 -16,35 10,50 33,85 54,81 9,-2 18,-13 20,-24 z"
       id="path3087" />
    <path
       inkscape:connector-curvature="0"
       d="m 6047,14572 c -10,-10 -17,-30 -17,-44 0,-26 22,-53 33,-41 11,11 8,43 -4,43 -8,0 -8,4 1,14 6,8 18,12 26,9 25,-9 15,-43 -26,-92 -55,-65 -53,-73 23,-69 59,3 62,4 65,31 3,26 -7,35 -22,20 -9,-9 -46,-12 -46,-3 0,3 14,19 30,35 35,33 39,73 12,98 -24,22 -55,21 -75,-1 z"
       id="path3089" />
    <path
       inkscape:connector-curvature="0"
       d="m 5314,14489 c -16,-10 -41,-21 -56,-25 -16,-3 -28,-10 -28,-14 0,-5 -12,-16 -27,-24 -25,-13 -26,-15 -9,-22 11,-4 28,-2 40,6 11,8 47,27 79,43 31,16 57,32 57,37 0,17 -29,17 -56,-1 z"
       id="path3091" />
    <path
       inkscape:connector-curvature="0"
       d="m 5060,14344 c -25,-13 -59,-31 -77,-39 -17,-8 -34,-19 -38,-25 -10,-15 25,-25 44,-12 9,7 37,23 62,36 49,26 75,51 62,59 -5,3 -29,-5 -53,-19 z"
       id="path3093" />
    <path
       inkscape:connector-curvature="0"
       d="m 4830,14220 c -19,-11 -51,-27 -70,-37 -51,-25 -68,-57 -30,-59 11,-1 20,4 21,10 0,6 28,25 62,42 34,17 63,38 65,47 4,22 -6,21 -48,-3 z"
       id="path3095" />
    <path
       inkscape:connector-curvature="0"
       d="m 3726,14182 c -28,-30 -35,-58 -12,-49 11,4 12,-2 5,-34 -5,-22 -10,-45 -12,-52 -3,-17 34,-15 43,3 5,8 14,34 21,58 8,28 18,42 29,42 10,0 23,7 30,15 17,21 -5,49 -28,36 -10,-5 -23,-6 -33,-1 -12,7 -23,2 -43,-18 z"
       id="path3097" />
    <path
       inkscape:connector-curvature="0"
       d="m 4565,14069 c -39,-22 -85,-46 -103,-55 -32,-14 -36,-34 -6,-34 16,0 111,49 132,68 9,8 26,18 39,23 23,8 30,23 15,33 -4,2 -39,-13 -77,-35 z"
       id="path3099" />
    <path
       inkscape:connector-curvature="0"
       d="m 3863,14032 c -22,-14 -32,-56 -18,-75 7,-9 17,-17 24,-17 15,0 14,27 -1,32 -18,6 0,40 19,36 34,-6 26,-50 -17,-98 -22,-25 -40,-50 -40,-57 0,-9 30,-12 113,-12 61,1 116,3 120,6 4,3 3,11 -4,19 -6,8 -12,49 -13,92 l -1,77 -29,-2 c -33,-2 -45,-11 -29,-21 14,-9 27,-93 19,-120 -9,-28 -46,-37 -46,-11 0,20 -15,26 -24,10 -3,-5 -17,-8 -31,-8 l -25,0 35,38 c 36,40 43,66 25,100 -11,19 -54,26 -77,11 z"
       id="path3101" />
    <path
       inkscape:connector-curvature="0"
       d="m 4310,13927 c -25,-12 -50,-26 -56,-32 -6,-5 -34,-21 -62,-34 -29,-14 -52,-30 -52,-38 0,-18 27,-16 58,5 15,10 43,26 62,36 68,34 88,46 99,60 20,24 -2,25 -49,3 z"
       id="path3103" />
    <path
       inkscape:connector-curvature="0"
       d="m 3995,13753 c -78,-41 -125,-72 -125,-83 0,-20 7,-17 154,64 41,22 58,46 34,46 -7,0 -36,-12 -63,-27 z"
       id="path3105" />
    <path
       inkscape:connector-curvature="0"
       d="m 3735,13605 c -22,-13 -61,-35 -87,-49 -26,-14 -49,-30 -52,-35 -10,-15 13,-24 29,-11 8,6 44,27 81,46 78,40 96,53 88,65 -8,13 -15,11 -59,-16 z"
       id="path3107" />
    <path
       inkscape:connector-curvature="0"
       d="m 3455,13454 c -22,-13 -57,-33 -78,-44 -21,-12 -35,-25 -32,-30 10,-16 41,-11 60,10 10,11 25,20 34,20 9,0 34,16 56,35 32,27 36,34 20,34 -11,0 -38,-11 -60,-25 z"
       id="path3109" />
    <path
       inkscape:connector-curvature="0"
       d="m 3194,13307 c -78,-41 -121,-73 -111,-83 4,-4 21,0 37,10 17,9 30,14 30,10 0,-4 10,2 23,14 13,12 36,26 53,32 32,11 65,50 42,50 -7,0 -40,-15 -74,-33 z"
       id="path3111" />
    <path
       inkscape:connector-curvature="0"
       d="m 2965,13186 c -11,-6 -22,-14 -25,-17 -3,-4 -29,-19 -59,-33 -34,-18 -50,-31 -44,-37 11,-11 57,3 68,20 3,6 14,11 23,11 26,0 89,55 71,62 -8,3 -23,0 -34,-6 z"
       id="path3113" />
    <path
       inkscape:connector-curvature="0"
       d="m 2700,13035 c -40,-28 -65,-30 -100,-10 -39,22 -65,18 -99,-17 -26,-27 -31,-38 -26,-63 8,-39 48,-75 84,-75 32,0 81,43 81,71 0,17 56,69 76,69 11,1 54,36 54,44 0,13 -37,3 -70,-19 z"
       id="path3115" />
    <path
       inkscape:connector-curvature="0"
       d="m 2202,12950 c -58,-36 -76,-114 -35,-155 16,-16 26,-16 68,1 16,6 18,5 9,-7 -26,-34 -3,-111 23,-77 11,15 65,239 59,245 -2,2 -23,6 -47,8 -32,4 -53,-1 -77,-15 z m 68,-40 c 0,-48 -26,-90 -55,-90 -28,0 -30,8 -15,62 17,60 70,80 70,28 z"
       id="path3117" />
    <path
       inkscape:connector-curvature="0"
       d="m 2374,12748 c -4,-6 -2,-14 4,-16 19,-6 16,-141 -3,-148 -31,-12 -13,-24 35,-24 48,0 67,14 35,27 -13,4 -16,21 -14,78 1,40 -1,77 -5,84 -9,15 -43,14 -52,-1 z"
       id="path3119" />
    <path
       inkscape:connector-curvature="0"
       d="m 4475,11574 c -16,-12 -17,-16 -6,-23 17,-11 13,-30 -34,-190 -9,-34 -12,-58 -6,-64 5,-5 31,-11 58,-12 42,-3 52,0 81,28 17,17 32,39 32,48 0,10 4,20 9,23 11,7 2,47 -15,64 -15,15 -40,16 -49,2 -9,-15 -45,-12 -45,4 0,8 6,21 14,29 8,7 16,31 17,52 3,31 0,39 -17,45 -12,5 -27,2 -39,-6 z m 78,-150 c 23,-9 3,-64 -35,-96 -36,-31 -52,-22 -41,22 4,20 49,80 59,80 1,0 9,-3 17,-6 z"
       id="path3121" />
    <path
       inkscape:connector-curvature="0"
       d="m 4334,11572 c -7,-4 -17,-26 -24,-49 -7,-24 -17,-43 -21,-43 -4,0 -10,-22 -14,-48 -8,-61 15,-155 46,-188 34,-36 42,-18 14,34 -35,65 -35,160 0,236 14,30 25,57 25,60 0,8 -13,7 -26,-2 z"
       id="path3123" />
    <path
       inkscape:connector-curvature="0"
       d="m 4687,11564 c -3,-3 3,-26 14,-51 10,-25 17,-49 13,-54 -3,-5 0,-9 5,-9 23,0 5,-131 -23,-170 -25,-34 -36,-61 -30,-71 7,-12 34,8 34,26 0,8 4,15 8,17 4,2 18,24 30,50 32,68 30,146 -5,215 -27,52 -34,59 -46,47 z"
       id="path3125" />
    <path
       inkscape:connector-curvature="0"
       d="m 5696,9221 c -38,-40 -46,-101 -17,-130 11,-11 32,-21 46,-21 24,0 25,-3 20,-34 -8,-38 9,-57 31,-34 15,15 48,126 59,198 l 7,45 -59,2 c -54,3 -62,0 -87,-26 z m 87,-36 c -3,-39 -35,-85 -60,-85 -26,0 -8,100 22,122 24,18 40,2 38,-37 z"
       id="path3127" />
    <path
       inkscape:connector-curvature="0"
       d="m 5374,9108 c -25,-6 -36,-17 -48,-48 -9,-22 -16,-45 -16,-51 0,-16 -32,-45 -75,-68 -101,-55 -120,-70 -102,-77 11,-4 32,3 57,20 22,14 43,26 48,26 4,0 28,14 51,32 l 44,32 -6,-30 c -3,-16 -9,-41 -13,-56 -10,-44 10,-33 32,17 11,26 23,41 30,37 5,-4 17,-43 25,-87 8,-46 18,-78 24,-75 11,6 12,21 1,107 -7,59 -7,61 15,65 16,2 28,14 37,39 27,71 -31,136 -104,117 z"
       id="path3129" />
    <path
       inkscape:connector-curvature="0"
       d="m 5890,9088 c -24,-26 -26,-61 -5,-78 21,-18 46,3 27,22 -18,18 -14,38 8,38 26,0 27,-42 3,-68 -28,-28 -63,-80 -63,-92 0,-6 26,-10 64,-10 56,0 66,3 71,20 4,11 0,29 -9,42 -9,12 -16,17 -16,10 0,-12 -41,-34 -49,-26 -2,2 13,22 33,44 42,46 44,58 15,94 -25,32 -51,33 -79,4 z"
       id="path3131" />
    <path
       inkscape:connector-curvature="0"
       d="m 4972,8787 c -34,-23 -82,-54 -107,-69 -44,-27 -63,-57 -28,-43 28,10 173,97 179,107 3,4 14,8 25,8 12,0 19,7 19,20 0,28 -16,24 -88,-23 z"
       id="path3133" />
    <path
       inkscape:connector-curvature="0"
       d="m 5268,8778 c -8,-18 -25,-57 -36,-85 -29,-73 -8,-79 23,-6 14,32 30,66 35,75 12,21 13,48 2,48 -4,0 -15,-15 -24,-32 z"
       id="path3135" />
    <path
       inkscape:connector-curvature="0"
       d="m 5435,8698 c -6,-16 20,-186 30,-196 3,-3 10,-1 15,4 6,6 2,44 -10,103 -21,101 -26,113 -35,89 z"
       id="path3137" />
    <path
       inkscape:connector-curvature="0"
       d="m 4733,8639 c -6,-6 -58,-38 -116,-73 -80,-47 -104,-65 -95,-74 8,-8 19,-6 42,11 37,27 81,52 121,72 51,25 81,53 70,64 -8,8 -14,8 -22,0 z"
       id="path3139" />
    <path
       inkscape:connector-curvature="0"
       d="m 5153,8493 c -3,-10 -18,-47 -33,-83 -39,-92 -45,-113 -29,-108 7,2 16,11 20,19 14,29 28,65 39,101 6,21 16,40 21,43 12,8 12,45 -1,45 -6,0 -13,-8 -17,-17 z"
       id="path3141" />
    <path
       inkscape:connector-curvature="0"
       d="m 3458,8442 c -24,-28 -30,-52 -12,-52 13,0 15,-7 9,-37 -4,-21 -8,-45 -9,-53 -1,-18 33,-26 38,-8 2,7 10,34 16,61 9,34 18,47 31,47 20,0 36,37 21,52 -7,7 -16,7 -28,0 -11,-6 -25,-7 -35,-1 -11,6 -21,3 -31,-9 z"
       id="path3143" />
    <path
       inkscape:connector-curvature="0"
       d="m 4375,8423 c -22,-14 -51,-34 -65,-43 -14,-10 -44,-27 -67,-39 -43,-21 -59,-38 -49,-48 7,-8 72,24 109,55 16,12 33,22 37,22 14,0 100,62 100,72 0,15 -25,8 -65,-19 z"
       id="path3145" />
    <path
       inkscape:connector-curvature="0"
       d="m 5484,8380 c 24,-176 27,-187 44,-176 13,8 -17,188 -35,206 -14,13 -15,10 -9,-30 z"
       id="path3147" />
    <path
       inkscape:connector-curvature="0"
       d="m 3597,8362 c -29,-32 -16,-91 17,-79 14,6 14,10 4,27 -15,24 0,44 25,34 30,-11 15,-53 -40,-114 -37,-40 -30,-50 37,-50 35,0 60,4 60,10 0,7 6,7 18,1 17,-9 91,-5 102,6 3,2 -3,9 -13,14 -13,8 -17,24 -17,74 0,79 -6,95 -35,95 -30,0 -39,-14 -20,-30 10,-9 15,-32 15,-75 0,-54 -3,-63 -19,-68 -24,-6 -31,0 -31,25 0,10 -4,18 -10,18 -5,0 -10,-7 -10,-15 0,-16 -35,-21 -44,-7 -3,5 8,21 25,36 28,27 37,64 23,100 -9,22 -67,21 -87,-2 z"
       id="path3149" />
    <path
       inkscape:connector-curvature="0"
       d="m 4090,8251 c -23,-17 -65,-43 -132,-85 -16,-9 -28,-21 -28,-27 0,-16 40,0 90,36 25,18 54,35 66,39 11,3 31,18 44,31 22,23 22,25 4,24 -10,0 -30,-8 -44,-18 z"
       id="path3151" />
    <path
       inkscape:connector-curvature="0"
       d="m 5041,8208 c -35,-92 -45,-114 -53,-122 -4,-6 -8,-21 -8,-35 l 0,-26 20,25 c 11,14 20,32 20,41 0,9 3,19 6,22 14,14 41,108 33,113 -5,3 -13,-5 -18,-18 z"
       id="path3153" />
    <path
       inkscape:connector-curvature="0"
       d="m 5534,8116 c -7,-17 20,-193 31,-204 14,-15 16,15 4,100 -14,106 -23,134 -35,104 z"
       id="path3155" />
    <path
       inkscape:connector-curvature="0"
       d="m 3810,8079 c -19,-10 -40,-22 -46,-27 -6,-6 -26,-18 -45,-27 -42,-21 -80,-55 -74,-66 6,-8 89,33 112,56 8,9 30,22 49,30 30,12 53,39 43,49 -2,2 -20,-5 -39,-15 z"
       id="path3157" />
    <path
       inkscape:connector-curvature="0"
       d="m 4922,7901 c -37,-81 -72,-174 -68,-179 11,-10 26,14 56,90 18,46 37,87 42,93 10,12 11,45 0,45 -5,0 -18,-22 -30,-49 z"
       id="path3159" />
    <path
       inkscape:connector-curvature="0"
       d="m 3530,7909 c -25,-15 -61,-36 -80,-47 -19,-10 -36,-26 -38,-35 -3,-15 0,-15 28,-3 17,7 40,20 50,28 10,9 26,19 36,22 34,11 70,44 59,54 -6,6 -27,-1 -55,-19 z"
       id="path3161" />
    <path
       inkscape:connector-curvature="0"
       d="m 5577,7828 c -2,-7 0,-29 4,-48 5,-19 9,-48 9,-65 1,-29 25,-74 35,-63 3,2 1,29 -5,59 -5,30 -12,71 -15,92 -6,37 -19,49 -28,25 z"
       id="path3163" />
    <path
       inkscape:connector-curvature="0"
       d="m 3317,7780 c -9,-9 -38,-28 -63,-41 -45,-23 -63,-43 -50,-56 3,-3 14,1 24,10 10,10 24,17 30,17 7,0 12,5 12,10 0,6 7,10 15,10 23,0 81,56 64,62 -8,3 -22,-3 -32,-12 z"
       id="path3165" />
    <path
       inkscape:connector-curvature="0"
       d="m 4825,7660 c -11,-18 -75,-195 -75,-209 0,-11 3,-11 15,-1 8,7 15,18 15,24 0,7 9,31 20,54 11,22 20,47 20,55 0,7 4,17 9,23 13,14 23,64 12,64 -5,0 -13,-4 -16,-10 z"
       id="path3167" />
    <path
       inkscape:connector-curvature="0"
       d="m 3110,7649 c -109,-60 -151,-89 -137,-94 14,-6 151,67 163,86 7,12 -10,17 -26,8 z"
       id="path3169" />
    <path
       inkscape:connector-curvature="0"
       d="m 5775,7636 c -14,-14 -25,-32 -25,-41 0,-18 11,-20 27,-4 10,10 7,-21 -9,-91 -2,-9 6,-16 19,-18 23,-3 27,4 38,76 5,31 11,42 25,42 23,0 42,23 34,44 -7,19 -9,19 -35,5 -15,-7 -24,-7 -34,1 -11,9 -20,6 -40,-14 z"
       id="path3171" />
    <path
       inkscape:connector-curvature="0"
       d="m 5626,7551 c -4,-6 0,-50 9,-98 22,-117 25,-127 37,-115 7,7 5,42 -7,109 -19,99 -27,123 -39,104 z"
       id="path3173" />
    <path
       inkscape:connector-curvature="0"
       d="m 5924,7552 c -19,-13 -23,-40 -8,-53 12,-10 16,-9 20,8 7,25 37,24 42,-1 2,-10 -4,-23 -14,-30 -16,-12 -16,-14 4,-34 26,-26 19,-52 -15,-52 -13,0 -22,4 -19,8 2,4 0,14 -5,22 -8,13 -12,12 -24,-4 -13,-17 -13,-22 2,-38 21,-24 99,-23 109,1 22,54 22,70 3,76 -14,5 -17,11 -10,22 9,17 4,51 -12,71 -10,13 -56,16 -73,4 z"
       id="path3175" />
    <path
       inkscape:connector-curvature="0"
       d="m 6051,7534 c -12,-15 -19,-34 -16,-42 3,-7 5,-18 5,-23 0,-5 9,-9 20,-9 21,0 28,24 10,35 -20,12 -11,36 13,33 41,-6 34,-49 -17,-104 -51,-56 -47,-64 31,-64 47,0 53,2 59,24 3,14 4,32 2,41 -3,15 -6,14 -27,-4 -13,-12 -31,-21 -40,-21 -11,1 -5,10 17,29 29,25 34,36 35,77 l 2,49 -36,3 c -30,3 -41,-2 -58,-24 z"
       id="path3177" />
    <path
       inkscape:connector-curvature="0"
       d="m 2869,7504 c -19,-14 -47,-31 -64,-38 -32,-14 -61,-43 -52,-52 3,-3 17,2 32,12 32,21 81,50 113,66 21,11 31,38 14,38 -4,0 -24,-12 -43,-26 z"
       id="path3179" />
    <path
       inkscape:connector-curvature="0"
       d="m 2648,7377 c -14,-7 -34,-20 -45,-29 -10,-9 -31,-22 -47,-28 -20,-7 -26,-14 -19,-21 11,-11 30,-4 107,40 71,40 74,69 4,38 z"
       id="path3181" />
    <path
       inkscape:connector-curvature="0"
       d="m 4707,7364 c -7,-16 -24,-57 -37,-92 -12,-34 -27,-65 -31,-68 -14,-9 -10,-44 5,-44 8,0 20,20 27,45 7,25 17,45 21,45 4,0 8,9 8,19 0,11 5,23 10,26 6,3 10,16 10,29 0,12 5,27 12,34 9,9 9,15 1,23 -8,8 -15,4 -26,-17 z"
       id="path3183" />
    <path
       inkscape:connector-curvature="0"
       d="m 1922,7255 c -30,-34 -37,-55 -32,-100 3,-32 20,-45 57,-45 33,0 34,-1 28,-34 -8,-39 6,-53 27,-28 12,13 49,150 62,226 0,4 -24,10 -55,13 -54,4 -57,3 -87,-32 z m 84,-37 c -8,-49 -30,-78 -59,-78 -17,0 -19,5 -15,45 7,54 22,75 56,75 23,0 24,-2 18,-42 z"
       id="path3185" />
    <path
       inkscape:connector-curvature="0"
       d="m 2466,7263 c -22,-12 -34,-13 -53,-4 -57,26 -115,3 -129,-53 -7,-30 21,-92 45,-99 19,-5 31,-45 31,-106 0,-47 10,-81 23,-81 6,0 8,32 5,91 l -6,90 32,16 c 29,13 36,13 69,0 23,-10 39,-12 43,-6 7,12 8,11 -36,32 -30,13 -36,22 -38,52 -2,29 1,37 22,45 13,5 27,13 30,19 11,17 -8,20 -38,4 z"
       id="path3187" />
    <path
       inkscape:connector-curvature="0"
       d="m 5676,7252 c -3,-6 -1,-43 5,-84 14,-92 16,-98 29,-98 13,0 13,42 -1,116 -12,62 -23,83 -33,66 z"
       id="path3189" />
    <path
       inkscape:connector-curvature="0"
       d="m 2143,7134 c -18,-8 -16,-31 2,-38 11,-4 15,-21 15,-60 0,-43 -4,-58 -20,-69 -27,-19 -15,-27 36,-27 47,0 64,13 38,28 -14,8 -17,26 -18,88 -1,71 -3,79 -21,81 -11,1 -26,-1 -32,-3 z"
       id="path3191" />
    <path
       inkscape:connector-curvature="0"
       d="m 2600,7087 c 0,-10 130,-68 152,-67 17,0 -5,28 -25,33 -12,2 -46,14 -74,25 -38,16 -53,18 -53,9 z"
       id="path3193" />
    <path
       inkscape:connector-curvature="0"
       d="m 4592,7068 c -7,-7 -12,-17 -12,-22 0,-6 -10,-31 -21,-56 -47,-97 -51,-109 -44,-120 10,-17 32,5 40,41 4,16 17,48 29,72 39,72 43,120 8,85 z"
       id="path3195" />
    <path
       inkscape:connector-curvature="0"
       d="m 2802,6999 c 2,-6 28,-19 58,-29 30,-9 74,-26 98,-38 55,-27 102,-37 102,-22 0,6 -8,13 -17,16 -10,3 -63,24 -118,45 -105,41 -129,46 -123,28 z"
       id="path3197" />
    <path
       inkscape:connector-curvature="0"
       d="m 5720,6967 c 0,-14 16,-114 25,-154 6,-27 25,-31 25,-5 0,31 -34,172 -42,172 -4,0 -8,-6 -8,-13 z"
       id="path3199" />
    <path
       inkscape:connector-curvature="0"
       d="m 3130,6873 c 0,-13 168,-78 178,-69 9,9 -18,25 -83,49 -70,26 -95,31 -95,20 z"
       id="path3201" />
    <path
       inkscape:connector-curvature="0"
       d="m 2387,6743 c 6,-98 18,-143 33,-127 14,14 -12,224 -27,224 -10,0 -11,-23 -6,-97 z"
       id="path3203" />
    <path
       inkscape:connector-curvature="0"
       d="m 3372,6779 c 2,-7 44,-28 93,-47 50,-19 100,-39 113,-45 15,-7 26,-7 33,0 7,7 0,14 -23,23 -77,29 -100,38 -160,64 -43,19 -61,20 -56,5 z"
       id="path3205" />
    <path
       inkscape:connector-curvature="0"
       d="m 4466,6758 c -31,-71 -64,-163 -60,-167 14,-15 56,69 91,182 10,31 -17,18 -31,-15 z"
       id="path3207" />
    <path
       inkscape:connector-curvature="0"
       d="m 5765,6729 c -5,-14 21,-168 31,-178 14,-14 15,19 4,86 -15,90 -25,117 -35,92 z"
       id="path3209" />
    <path
       inkscape:connector-curvature="0"
       d="m 3706,6652 c -5,-8 55,-39 119,-62 11,-4 37,-15 58,-24 21,-9 45,-16 54,-16 27,0 -4,28 -45,40 -20,7 -55,21 -78,31 -22,10 -46,19 -52,19 -7,0 -12,5 -12,10 0,12 -37,13 -44,2 z"
       id="path3211" />
    <path
       inkscape:connector-curvature="0"
       d="m 3391,6581 c -7,-5 -22,-6 -32,-4 -11,3 -28,-2 -39,-12 -24,-22 -27,-50 -4,-41 11,4 14,1 10,-12 -2,-9 -8,-36 -11,-59 -6,-38 -5,-43 12,-43 16,0 23,13 34,63 13,53 18,62 36,60 23,-3 36,18 27,42 -7,17 -13,18 -33,6 z"
       id="path3213" />
    <path
       inkscape:connector-curvature="0"
       d="m 2414,6483 c 10,-127 17,-164 30,-160 6,3 10,9 9,14 -1,5 -4,49 -8,98 -8,111 -12,135 -27,135 -7,0 -9,-26 -4,-87 z"
       id="path3215" />
    <path
       inkscape:connector-curvature="0"
       d="m 4000,6540 c -8,-5 -12,-11 -9,-14 9,-9 151,-66 165,-66 7,0 14,-6 17,-12 3,-10 8,-10 16,-2 17,15 -2,28 -85,60 -38,14 -74,30 -79,34 -6,5 -17,5 -25,0 z"
       id="path3217" />
    <path
       inkscape:connector-curvature="0"
       d="m 4355,6482 c -24,-52 -30,-58 -51,-54 -26,5 -33,-12 -10,-25 8,-4 16,-24 18,-43 l 4,-35 13,26 c 11,23 17,26 45,19 17,-4 45,-14 61,-22 17,-8 42,-18 58,-22 37,-9 35,12 -3,25 -16,6 -30,16 -30,22 0,6 -3,8 -6,5 -10,-11 -94,23 -94,38 0,8 5,24 12,37 24,47 28,57 28,72 0,31 -19,13 -45,-43 z"
       id="path3219" />
    <path
       inkscape:connector-curvature="0"
       d="m 3472,6468 c -16,-20 -18,-50 -4,-55 7,-3 12,4 12,17 0,16 5,21 23,18 26,-4 38,-48 13,-48 -22,0 -20,-16 5,-34 28,-19 21,-50 -13,-54 -19,-2 -28,2 -33,17 -9,31 -25,25 -25,-8 0,-21 6,-30 23,-35 39,-10 63,-7 80,12 19,21 23,67 6,77 -6,4 -7,19 -4,37 11,50 -52,93 -83,56 z"
       id="path3221" />
    <path
       inkscape:connector-curvature="0"
       d="m 3607,6474 c -4,-4 -3,-12 2,-18 4,-6 11,-39 14,-74 4,-55 3,-65 -14,-75 -30,-19 -22,-27 25,-27 47,0 67,13 42,27 -11,6 -16,31 -18,88 -3,72 -5,80 -23,83 -12,2 -24,0 -28,-4 z"
       id="path3223" />
    <path
       inkscape:connector-curvature="0"
       d="m 5807,6463 c -3,-4 -1,-29 4,-53 5,-25 14,-71 20,-102 6,-32 15,-58 20,-58 13,0 11,25 -7,121 -15,82 -26,110 -37,92 z"
       id="path3225" />
    <path
       inkscape:connector-curvature="0"
       d="m 4604,6299 c -9,-15 4,-27 44,-39 20,-6 46,-15 57,-20 34,-14 105,-40 110,-40 3,0 5,6 5,13 0,6 -30,23 -67,36 -38,12 -85,31 -105,41 -21,10 -40,14 -44,9 z"
       id="path3227" />
    <path
       inkscape:connector-curvature="0"
       d="m 7498,6293 c -21,-5 -24,-19 -6,-25 9,-3 14,-40 16,-116 4,-100 2,-112 -14,-119 -10,-4 -19,-2 -22,5 -2,7 -10,12 -18,12 -10,0 -14,13 -14,48 0,75 -8,92 -41,92 -44,0 -79,-20 -79,-46 0,-13 5,-26 11,-30 13,-8 31,16 24,34 -3,7 5,12 21,12 21,0 25,-4 22,-22 -2,-13 -9,-24 -15,-24 -7,-1 -17,-2 -23,-3 -20,-2 -50,-42 -50,-65 0,-31 15,-36 105,-35 39,1 86,-2 106,-5 26,-5 39,-3 49,9 10,12 9,16 -4,21 -14,6 -17,23 -15,124 0,65 -2,123 -6,129 -6,11 -17,12 -47,4 z m -98,-222 c 0,-17 -18,-31 -41,-31 -16,0 -10,29 9,39 25,15 32,13 32,-8 z"
       id="path3229" />
    <path
       inkscape:connector-curvature="0"
       d="m 6823,6272 c -21,-2 -33,-9 -33,-18 0,-8 4,-13 9,-10 14,9 21,-21 21,-97 0,-45 -6,-83 -15,-101 -9,-16 -13,-31 -11,-33 9,-9 106,-12 111,-3 3,5 -4,14 -15,20 -15,8 -20,21 -20,55 0,49 20,62 40,25 6,-11 18,-20 26,-20 12,0 14,11 12,52 -3,52 -21,75 -31,38 -3,-12 -13,-20 -26,-20 -18,0 -21,6 -21,40 0,40 0,40 39,40 30,0 44,-6 59,-25 11,-14 23,-25 26,-25 12,0 6,69 -6,76 -13,8 -109,11 -165,6 z"
       id="path3231" />
    <path
       inkscape:connector-curvature="0"
       d="m 4264,6253 c -3,-10 -10,-27 -15,-38 -19,-45 -40,-117 -36,-128 5,-13 67,115 67,138 0,7 5,17 10,20 12,7 4,25 -11,25 -5,0 -12,-8 -15,-17 z"
       id="path3233" />
    <path
       inkscape:connector-curvature="0"
       d="m 7057,6256 c -21,-22 -22,-35 -1,-43 24,-9 39,12 28,38 -9,20 -11,21 -27,5 z"
       id="path3235" />
    <path
       inkscape:connector-curvature="0"
       d="m 2440,6238 c 1,-47 19,-198 26,-209 16,-26 19,15 9,117 -6,69 -14,109 -22,112 -8,2 -13,-5 -13,-20 z"
       id="path3237" />
    <path
       inkscape:connector-curvature="0"
       d="m 5844,6183 c 3,-16 9,-44 12,-63 11,-70 15,-80 30,-80 13,0 15,7 9,38 -20,109 -27,132 -42,132 -12,0 -14,-7 -9,-27 z"
       id="path3239" />
    <path
       inkscape:connector-curvature="0"
       d="m 4894,6172 c 9,-11 35,-25 59,-32 23,-8 47,-17 52,-20 27,-18 95,-39 100,-30 7,11 -48,39 -125,66 -30,10 -59,22 -64,26 -6,4 -17,8 -25,8 -12,0 -11,-3 3,-18 z"
       id="path3241" />
    <path
       inkscape:connector-curvature="0"
       d="m 7166,6182 c -44,-3 -47,-5 -41,-25 12,-35 13,-107 1,-116 -12,-9 -48,0 -47,12 1,4 1,34 1,67 0,60 0,60 -30,60 -25,0 -29,-4 -28,-24 1,-14 6,-22 10,-20 13,8 9,-91 -4,-104 -20,-20 -1,-26 75,-25 39,1 100,2 135,2 48,1 62,4 62,16 0,8 -4,15 -10,15 -5,0 -10,24 -10,53 0,81 -18,95 -114,89 z m 74,-78 c 0,-56 -19,-88 -45,-78 -11,5 -15,22 -15,63 0,65 3,71 36,69 22,-2 24,-7 24,-54 z"
       id="path3243" />
    <path
       inkscape:connector-curvature="0"
       d="m 6540,6101 c -42,-7 -253,-111 -266,-132 -3,-5 -12,-9 -20,-9 -8,0 -25,-9 -37,-21 -14,-13 -33,-19 -53,-17 -24,2 -43,-7 -80,-37 -27,-22 -50,-43 -52,-47 -7,-15 -45,-8 -71,15 -15,12 -27,24 -27,27 -3,36 -27,101 -37,97 -13,-4 -13,-16 -3,-71 9,-49 -24,-90 -68,-80 -17,3 -35,10 -41,14 -5,4 -29,14 -52,23 -33,13 -42,14 -46,3 -5,-13 36,-35 112,-62 26,-9 37,-20 47,-50 15,-44 18,-104 5,-104 -14,0 -40,-93 -30,-112 7,-12 4,-18 -9,-22 -17,-6 -50,-111 -38,-124 3,-3 0,-12 -8,-21 -16,-19 -41,-91 -37,-109 1,-8 -4,-21 -13,-30 -16,-19 -46,-98 -46,-125 0,-10 -5,-28 -12,-40 -34,-60 -42,-117 -16,-117 14,0 58,107 52,125 -4,9 1,24 10,33 18,21 46,96 46,125 0,11 6,28 13,36 13,15 23,44 67,196 9,33 23,76 31,95 7,19 20,55 29,80 12,35 20,46 40,48 33,5 76,47 83,81 6,31 28,43 108,61 49,11 55,15 52,34 -3,13 3,25 15,31 10,6 40,21 66,34 25,13 49,27 52,32 3,5 13,9 23,9 10,0 26,8 35,19 9,10 38,27 64,36 26,10 50,23 54,29 4,6 41,13 82,17 71,5 96,12 84,24 -9,10 -64,13 -108,6 z m -570,-291 c 19,-35 8,-73 -23,-84 -19,-7 -34,-7 -45,0 -21,13 -28,70 -11,90 18,21 66,18 79,-6 z"
       id="path3245" />
    <path
       inkscape:connector-curvature="0"
       d="m 5195,6060 c -7,-12 31,-36 70,-46 17,-4 46,-15 66,-25 34,-17 49,-16 49,2 0,6 -16,14 -132,60 -27,10 -50,14 -53,9 z"
       id="path3247" />
    <path
       inkscape:connector-curvature="0"
       d="m 4170,6016 c 0,-2 -15,-45 -34,-95 -19,-51 -29,-90 -23,-88 12,4 16,11 46,78 12,25 21,53 21,62 0,9 5,19 10,22 15,9 12,25 -5,25 -8,0 -15,-2 -15,-4 z"
       id="path3249" />
    <path
       inkscape:connector-curvature="0"
       d="m 2474,5934 c 3,-22 8,-74 12,-116 6,-74 17,-99 26,-60 8,35 -17,205 -31,210 -10,3 -12,-4 -7,-34 z"
       id="path3251" />
    <path
       inkscape:connector-curvature="0"
       d="m 5460,5946 c 0,-8 13,-17 30,-21 16,-4 32,-11 35,-16 4,-5 17,-9 30,-9 13,0 27,-4 30,-10 8,-12 45,-13 45,-1 0,5 -26,19 -57,31 -32,13 -62,27 -67,32 -16,13 -46,9 -46,-6 z"
       id="path3253" />
    <path
       inkscape:connector-curvature="0"
       d="m 7130,5885 c -10,-12 -10,-19 -2,-27 20,-20 13,-35 -20,-42 l -31,-6 22,-24 c 16,-17 21,-32 18,-60 -2,-20 -7,-39 -10,-43 -23,-23 30,-51 68,-36 14,5 14,7 0,23 -10,11 -14,31 -11,65 2,26 0,60 -4,74 -4,14 -2,34 4,43 8,13 7,22 -5,33 -14,15 -17,15 -29,0 z"
       id="path3255" />
    <path
       inkscape:connector-curvature="0"
       d="m 7351,5887 c -14,-17 -4,-47 15,-47 22,0 29,29 12,46 -13,13 -16,13 -27,1 z"
       id="path3257" />
    <path
       inkscape:connector-curvature="0"
       d="m 7220,5863 c 0,-10 -7,-30 -14,-45 -8,-16 -11,-28 -7,-28 5,0 11,-28 14,-61 7,-78 23,-97 67,-79 23,10 34,10 43,1 12,-12 69,-15 80,-4 4,3 2,12 -4,19 -6,7 -11,42 -11,78 -1,81 -6,90 -43,76 -43,-16 -85,-4 -85,25 0,12 -7,26 -16,29 -22,9 -24,8 -24,-11 z m 120,-128 c 0,-45 -3,-55 -20,-60 -10,-3 -28,-1 -40,5 -16,8 -20,21 -20,60 0,46 2,49 28,52 46,6 52,0 52,-57 z"
       id="path3259" />
    <path
       inkscape:connector-curvature="0"
       d="m 7441,5803 c -32,-40 -36,-70 -14,-111 25,-48 66,-61 115,-38 30,15 36,23 41,58 3,23 1,51 -5,62 -30,59 -102,75 -137,29 z m 89,-29 c 6,-14 7,-43 4,-65 -6,-32 -10,-39 -30,-39 -32,0 -47,33 -39,86 5,38 9,44 31,44 17,0 27,-8 34,-26 z"
       id="path3261" />
    <path
       inkscape:connector-curvature="0"
       d="m 7696,5823 c -3,-4 -22,-6 -43,-5 -47,2 -69,-14 -48,-35 19,-19 19,-87 0,-106 -18,-19 -9,-27 29,-27 39,0 65,14 42,23 -12,5 -16,20 -16,57 0,43 3,52 23,59 12,5 25,7 30,4 11,-6 8,-111 -3,-118 -19,-12 1,-25 36,-25 36,0 42,8 22,29 -11,11 -10,14 1,18 11,5 11,7 0,14 -9,6 -10,12 -4,17 10,7 14,33 5,42 -3,3 -10,14 -15,24 -12,20 -49,39 -59,29 z"
       id="path3263" />
    <path
       inkscape:connector-curvature="0"
       d="m 6583,5804 c -3,-8 -1,-20 6,-27 14,-14 15,-173 1,-182 -20,-12 -9,-23 32,-29 52,-8 67,5 39,33 -30,30 -26,41 17,41 48,0 79,30 83,80 6,69 -47,119 -98,91 -12,-6 -25,-6 -34,0 -21,13 -39,11 -46,-7 z m 127,-33 c 24,-47 0,-116 -38,-109 -25,5 -35,32 -28,79 6,38 10,45 31,47 15,1 28,-5 35,-17 z"
       id="path3265" />
    <path
       inkscape:connector-curvature="0"
       d="m 6808,5793 c -14,-16 -28,-43 -30,-61 -4,-27 1,-39 29,-67 37,-38 40,-39 77,-25 43,16 66,47 66,89 0,82 -88,122 -142,64 z m 80,-5 c 13,-13 16,-75 6,-102 -7,-19 -49,-21 -60,-4 -13,21 -8,99 7,109 19,12 33,11 47,-3 z"
       id="path3267" />
    <path
       inkscape:connector-curvature="0"
       d="m 6974,5799 c -17,-17 -19,-25 -11,-43 6,-13 24,-30 39,-39 30,-17 38,-47 13,-47 -8,0 -24,5 -35,12 -25,16 -35,5 -18,-21 9,-15 23,-21 51,-21 33,0 40,4 51,32 12,27 12,35 -1,55 -9,13 -21,23 -28,23 -21,0 -35,24 -24,40 8,13 12,12 28,-7 20,-24 31,-21 31,8 0,34 -65,40 -96,8 z"
       id="path3269" />
    <path
       inkscape:connector-curvature="0"
       d="m 4064,5743 c -3,-10 -10,-27 -14,-38 -25,-57 -52,-146 -47,-151 9,-10 27,6 27,24 0,9 14,48 30,87 17,38 30,75 30,82 0,19 -20,16 -26,-4 z"
       id="path3271" />
    <path
       inkscape:connector-curvature="0"
       d="m 2501,5623 c 3,-73 26,-187 37,-191 14,-4 12,57 -4,171 -6,37 -35,55 -33,20 z"
       id="path3273" />
    <path
       inkscape:connector-curvature="0"
       d="m 7108,5508 c -20,-15 -50,-125 -37,-134 13,-8 11,-98 -2,-111 -18,-18 -1,-33 36,-33 39,0 51,12 30,30 -23,19 -20,97 5,110 11,6 20,15 20,20 0,6 -9,10 -20,10 -14,0 -20,7 -20,23 0,43 11,65 30,60 22,-6 37,16 19,28 -20,12 -43,11 -61,-3 z"
       id="path3275" />
    <path
       inkscape:connector-curvature="0"
       d="m 3972,5488 c -19,-23 -100,-238 -92,-243 10,-6 26,14 35,45 3,14 22,65 42,113 33,85 38,113 15,85 z"
       id="path3277" />
    <path
       inkscape:connector-curvature="0"
       d="m 6934,5398 c -48,-12 -58,-31 -55,-101 1,-37 42,-77 79,-77 44,0 87,50 86,101 -2,65 -44,94 -110,77 z m 52,-35 c 30,-40 8,-119 -31,-112 -42,9 -45,129 -3,129 11,0 27,-8 34,-17 z"
       id="path3279" />
    <path
       inkscape:connector-curvature="0"
       d="m 7311,5365 c -21,-25 -31,-46 -31,-68 0,-44 34,-81 67,-74 24,4 25,3 19,-34 -6,-36 -4,-39 17,-39 22,0 26,9 50,118 15,64 27,120 27,125 0,4 -27,7 -59,7 -55,0 -61,-2 -90,-35 z m 89,-22 c 0,-39 -22,-76 -52,-86 -23,-8 -29,14 -16,60 13,47 25,63 49,63 15,0 19,-7 19,-37 z"
       id="path3281" />
    <path
       inkscape:connector-curvature="0"
       d="m 2536,5352 c -5,-9 10,-177 20,-218 3,-13 11,-24 16,-24 9,0 7,38 -8,187 -5,50 -17,73 -28,55 z"
       id="path3283" />
    <path
       inkscape:connector-curvature="0"
       d="m 7502,5277 c -17,-18 -19,-26 -10,-35 18,-18 28,-15 28,8 0,13 7,20 20,20 24,0 28,-38 5,-46 -21,-9 -19,-32 5,-39 21,-7 24,-14 14,-39 -9,-23 -41,-20 -47,4 -8,30 -37,26 -37,-5 0,-18 7,-28 26,-35 63,-24 113,5 99,57 -4,15 -8,45 -9,65 -5,67 -52,90 -94,45 z"
       id="path3285" />
    <path
       inkscape:connector-curvature="0"
       d="m 3846,5182 c -2,-4 -18,-42 -35,-85 -30,-76 -40,-121 -22,-101 17,18 79,184 71,189 -5,3 -11,2 -14,-3 z"
       id="path3287" />
    <path
       inkscape:connector-curvature="0"
       d="m 2574,4935 c 8,-115 15,-155 29,-155 6,0 7,31 3,88 -10,121 -17,162 -29,162 -6,0 -8,-33 -3,-95 z"
       id="path3289" />
    <path
       inkscape:connector-curvature="0"
       d="m 3735,4908 c -48,-117 -65,-163 -65,-177 1,-24 37,27 44,61 3,16 17,52 31,82 28,59 29,66 14,66 -5,0 -16,-15 -24,-32 z"
       id="path3291" />
    <path
       inkscape:connector-curvature="0"
       d="m 5593,4903 c -3,-10 -12,-33 -19,-52 -8,-18 -14,-42 -14,-52 0,-21 25,-26 37,-6 9,14 43,108 43,119 0,16 -41,8 -47,-9 z"
       id="path3293" />
    <path
       inkscape:connector-curvature="0"
       d="m 5553,4763 c -20,-7 -55,-95 -48,-121 8,-34 30,-13 50,49 18,53 17,78 -2,72 z"
       id="path3295" />
    <path
       inkscape:connector-curvature="0"
       d="m 2602,4625 c 2,-47 6,-85 11,-85 4,0 7,-11 7,-25 0,-14 5,-25 11,-25 8,0 9,27 4,93 -7,104 -12,127 -26,127 -6,0 -9,-35 -7,-85 z"
       id="path3297" />
    <path
       inkscape:connector-curvature="0"
       d="m 3642,4668 c -7,-7 -12,-17 -12,-23 0,-6 -11,-39 -25,-73 -29,-72 -32,-90 -10,-72 8,7 15,20 15,29 0,9 4,21 9,27 11,12 44,114 39,119 -2,3 -10,-1 -16,-7 z"
       id="path3299" />
    <path
       inkscape:connector-curvature="0"
       d="m 5470,4596 c 0,-7 -7,-27 -15,-42 -19,-37 -19,-74 -1,-74 13,0 46,58 61,108 5,19 3,22 -19,22 -16,0 -26,-6 -26,-14 z"
       id="path3301" />
    <path
       inkscape:connector-curvature="0"
       d="m 5387,4399 c -27,-60 -28,-79 -4,-79 19,1 67,112 55,128 -17,20 -23,15 -51,-49 z"
       id="path3303" />
    <path
       inkscape:connector-curvature="0"
       d="m 3542,4418 c -7,-7 -12,-17 -12,-23 0,-7 -18,-55 -39,-108 -22,-53 -36,-99 -31,-102 11,-7 11,-7 60,115 23,58 44,111 47,118 7,15 -9,16 -25,0 z"
       id="path3305" />
    <path
       inkscape:connector-curvature="0"
       d="m 2630,4393 c 0,-16 3,-65 7,-110 4,-62 10,-83 20,-83 12,0 14,16 9,91 -5,80 -17,129 -31,129 -3,0 -5,-12 -5,-27 z"
       id="path3307" />
    <path
       inkscape:connector-curvature="0"
       d="m 5292,4213 c -21,-43 -55,-104 -77,-136 -30,-45 -36,-61 -29,-78 9,-19 13,-16 48,35 24,35 36,63 33,75 -3,13 2,22 17,29 25,11 80,117 72,138 -11,29 -28,12 -64,-63 z"
       id="path3309" />
    <path
       inkscape:connector-curvature="0"
       d="m 2666,4035 c 6,-114 9,-125 25,-125 17,0 4,161 -15,197 -15,26 -15,22 -10,-72 z"
       id="path3311" />
    <path
       inkscape:connector-curvature="0"
       d="m 3411,4088 c -5,-13 -21,-54 -36,-91 -19,-47 -24,-72 -17,-79 7,-7 12,-3 17,13 4,13 13,38 20,54 34,79 44,114 35,120 -6,3 -14,-4 -19,-17 z"
       id="path3313" />
    <path
       inkscape:connector-curvature="0"
       d="m 5106,3918 c -40,-46 -44,-54 -31,-67 11,-12 17,-12 29,-2 18,15 76,101 76,113 0,22 -33,3 -74,-44 z"
       id="path3315" />
    <path
       inkscape:connector-curvature="0"
       d="m 3297,3797 c -15,-32 -27,-64 -27,-72 0,-7 -4,-17 -10,-20 -13,-8 -13,-25 0,-25 5,0 19,21 31,48 12,26 25,57 31,68 5,12 8,30 6,40 -4,14 -12,3 -31,-39 z"
       id="path3317" />
    <path
       inkscape:connector-curvature="0"
       d="m 2695,3740 c 7,-107 12,-130 27,-130 16,0 -1,192 -19,210 -13,13 -14,4 -8,-80 z"
       id="path3319" />
    <path
       inkscape:connector-curvature="0"
       d="m 2251,3811 c -15,-10 -8,-41 9,-41 15,0 25,29 14,40 -5,5 -15,5 -23,1 z"
       id="path3321" />
    <path
       inkscape:connector-curvature="0"
       d="m 4987,3779 c -49,-40 -64,-67 -42,-75 18,-7 95,60 95,82 0,25 -17,23 -53,-7 z"
       id="path3323" />
    <path
       inkscape:connector-curvature="0"
       d="m 1828,3751 c -31,-11 -61,-61 -61,-102 0,-53 18,-72 61,-64 l 34,6 -7,-40 c -5,-33 -4,-41 8,-41 27,0 36,20 53,115 3,17 10,50 15,74 5,24 8,46 5,48 -8,8 -90,11 -108,4 z m 62,-42 c 0,-49 -28,-99 -56,-99 -21,0 -24,5 -24,35 0,52 25,95 55,95 21,0 25,-5 25,-31 z"
       id="path3325" />
    <path
       inkscape:connector-curvature="0"
       d="m 2358,3743 c -27,-2 -48,-8 -48,-14 0,-5 5,-9 10,-9 7,0 10,-24 8,-62 -3,-56 -5,-63 -25,-66 -21,-3 -22,1 -25,70 -3,61 -6,73 -21,76 -10,2 -25,1 -34,-2 -12,-5 -13,-9 -3,-21 15,-18 19,-101 6,-127 -7,-16 -1,-17 61,-17 93,2 105,6 93,29 -15,28 -12,96 5,110 8,6 22,10 32,8 19,-4 22,-32 12,-108 -3,-29 -1,-35 16,-38 36,-4 42,9 35,77 -5,50 -11,68 -29,82 -13,11 -28,18 -35,17 -6,-1 -32,-3 -58,-5 z"
       id="path3327" />
    <path
       inkscape:connector-curvature="0"
       d="m 4840,3646 c -57,-33 -63,-44 -36,-61 11,-7 21,-3 39,13 13,12 30,22 39,22 22,0 40,24 32,44 -8,21 -10,21 -74,-18 z"
       id="path3329" />
    <path
       inkscape:connector-curvature="0"
       d="m 1989,3611 c -23,-19 -23,-20 -6,-38 17,-17 18,-17 23,5 4,12 13,22 20,22 21,0 29,-29 15,-52 -10,-16 -9,-23 5,-39 22,-24 11,-49 -21,-49 -15,0 -24,4 -21,9 7,11 -18,33 -27,24 -16,-15 -5,-43 21,-56 31,-16 48,-13 80,16 22,21 31,67 12,67 -5,0 -10,18 -10,39 0,30 -6,44 -22,55 -29,21 -41,20 -69,-3 z"
       id="path3331" />
    <path
       inkscape:connector-curvature="0"
       d="m 3205,3568 c -10,-24 -26,-62 -36,-85 -11,-24 -19,-50 -19,-59 0,-30 25,-8 36,33 7,22 18,53 26,69 20,39 30,84 20,84 -5,0 -17,-19 -27,-42 z"
       id="path3333" />
    <path
       inkscape:connector-curvature="0"
       d="m 4683,3563 c -32,-16 -46,-53 -20,-53 17,0 87,48 87,60 0,15 -30,11 -67,-7 z"
       id="path3335" />
    <path
       inkscape:connector-curvature="0"
       d="m 4562,3484 c -58,-33 -82,-57 -70,-70 15,-14 148,69 148,91 0,21 -7,19 -78,-21 z"
       id="path3337" />
    <path
       inkscape:connector-curvature="0"
       d="m 2724,3429 c 7,-76 12,-93 26,-84 5,3 7,29 4,58 -8,76 -13,97 -26,97 -8,0 -9,-21 -4,-71 z"
       id="path3339" />
    <path
       inkscape:connector-curvature="0"
       d="m 4376,3385 c -66,-32 -82,-48 -62,-64 12,-10 22,-8 53,13 21,14 43,26 49,26 15,0 46,35 37,43 -10,11 -24,7 -77,-18 z"
       id="path3341" />
    <path
       inkscape:connector-curvature="0"
       d="m 3110,3336 c 0,-9 -4,-24 -9,-34 -19,-36 -61,-140 -61,-151 0,-33 21,-1 54,84 41,104 42,108 27,113 -6,2 -11,-4 -11,-12 z"
       id="path3343" />
    <path
       inkscape:connector-curvature="0"
       d="m 2372,3328 c -18,-18 -14,-38 8,-38 13,0 20,7 20,19 0,25 -13,34 -28,19 z"
       id="path3345" />
    <path
       inkscape:connector-curvature="0"
       d="m 4191,3290 c -52,-25 -61,-32 -52,-44 14,-16 44,-11 81,14 14,9 33,20 43,23 19,7 19,28 1,33 -5,2 -38,-10 -73,-26 z"
       id="path3347" />
    <path
       inkscape:connector-curvature="0"
       d="m 1597,3304 c -4,-4 -7,-17 -7,-30 0,-12 -7,-25 -16,-28 -16,-6 -16,-8 0,-24 9,-11 16,-36 16,-61 0,-71 8,-78 95,-78 77,-1 96,7 75,32 -6,7 -10,31 -8,51 3,34 7,39 37,48 27,8 35,7 43,-7 11,-21 28,-13 28,14 0,15 6,20 23,17 32,-4 31,-52 -2,-56 -36,-5 -64,-36 -56,-61 9,-29 40,-44 64,-31 11,5 33,7 49,4 21,-4 31,-2 35,10 4,10 1,19 -8,22 -10,4 -15,20 -15,48 0,75 -41,104 -101,72 -20,-10 -29,-10 -42,-1 -10,7 -35,9 -69,6 -84,-9 -106,-4 -110,26 -3,27 -18,39 -31,27 z m 111,-137 3,-58 -38,3 -38,3 -3,52 c -3,54 5,63 53,60 17,-2 20,-10 23,-60 z m 202,-22 c 0,-8 -9,-19 -20,-25 -28,-15 -41,17 -15,36 20,15 35,10 35,-11 z"
       id="path3349" />
    <path
       inkscape:connector-curvature="0"
       d="m 2450,3282 c 0,-17 -6,-33 -12,-36 -10,-5 -10,-7 0,-12 7,-4 12,-27 12,-64 0,-63 14,-84 51,-78 29,4 35,24 9,31 -17,4 -20,13 -20,55 0,45 3,51 23,54 28,4 29,22 0,26 -13,2 -23,11 -25,25 -2,12 -11,23 -20,25 -14,3 -18,-3 -18,-26 z"
       id="path3351" />
    <path
       inkscape:connector-curvature="0"
       d="m 2757,3263 c -16,-15 -1,-173 16,-173 6,0 8,31 4,86 -6,88 -9,99 -20,87 z"
       id="path3353" />
    <path
       inkscape:connector-curvature="0"
       d="m 2016,3252 c -18,-4 -21,-18 -6,-27 13,-8 13,-108 -1,-122 -16,-16 6,-26 37,-19 21,6 24,11 18,29 -8,23 -6,95 2,109 3,4 16,8 30,8 23,0 24,-3 24,-58 0,-32 -5,-63 -12,-70 -13,-13 -19,-12 97,-18 53,-2 73,0 87,13 34,30 18,86 -28,95 -22,4 -33,48 -12,48 8,0 19,-5 26,-12 15,-15 26,-4 19,17 -9,22 -60,19 -82,-5 -24,-27 -13,-64 25,-80 18,-8 30,-20 30,-31 0,-23 -26,-25 -48,-3 -14,15 -16,15 -24,-6 -14,-37 -40,-6 -37,44 4,65 -12,84 -75,88 -29,1 -61,2 -70,0 z"
       id="path3355" />
    <path
       inkscape:connector-curvature="0"
       d="m 2335,3251 c -3,-5 -1,-12 5,-16 14,-9 13,-125 -1,-125 -8,0 -7,-5 1,-15 9,-11 22,-14 44,-9 38,8 44,13 27,23 -7,5 -13,32 -15,67 -1,33 -5,65 -10,72 -9,14 -42,16 -51,3 z"
       id="path3357" />
    <path
       inkscape:connector-curvature="0"
       d="m 4017,3209 c -46,-23 -56,-33 -48,-43 13,-16 56,-10 72,10 6,8 19,14 29,14 22,0 44,25 35,40 -9,15 -25,12 -88,-21 z"
       id="path3359" />
    <path
       inkscape:connector-curvature="0"
       d="m 3828,3133 c -24,-15 -40,-53 -22,-53 20,0 104,45 101,54 -6,18 -50,17 -79,-1 z"
       id="path3361" />
    <path
       inkscape:connector-curvature="0"
       d="m 3695,3076 c -55,-21 -71,-34 -59,-46 9,-9 23,-8 55,1 51,15 69,26 69,45 0,16 -23,16 -65,0 z"
       id="path3363" />
    <path
       inkscape:connector-curvature="0"
       d="m 2982,3008 c -18,-40 -32,-80 -32,-88 1,-24 36,29 51,75 7,22 16,44 21,50 10,12 10,35 0,35 -5,0 -23,-33 -40,-72 z"
       id="path3365" />
    <path
       inkscape:connector-curvature="0"
       d="m 2764,3018 c 4,-18 10,-55 13,-81 9,-74 29,-53 25,28 -3,75 -6,85 -29,85 -12,0 -14,-7 -9,-32 z"
       id="path3367" />
    <path
       inkscape:connector-curvature="0"
       d="m 3532,2992 c -34,-16 -52,-32 -52,-43 0,-20 8,-19 78,12 38,17 54,41 34,53 -4,2 -31,-7 -60,-22 z"
       id="path3369" />
    <path
       inkscape:connector-curvature="0"
       d="m 2280,2941 c 0,-9 20,-23 125,-89 11,-7 31,-18 45,-25 14,-6 51,-29 83,-49 44,-30 57,-43 57,-63 0,-19 5,-25 23,-25 12,0 35,-7 51,-15 15,-8 37,-15 47,-15 11,0 19,-5 19,-11 0,-5 5,-7 10,-4 11,7 14,-8 4,-18 -4,-4 -7,-35 -8,-70 -1,-41 -8,-71 -19,-87 -9,-14 -17,-34 -17,-45 0,-11 -6,-29 -13,-40 -13,-19 -55,-122 -96,-237 -11,-31 -30,-78 -42,-105 -25,-56 -25,-58 -74,-188 -81,-215 -87,-227 -109,-222 -12,2 -28,8 -37,11 -13,6 -18,0 -22,-26 -10,-52 -12,-287 -3,-295 4,-5 18,4 29,18 12,14 59,70 105,125 l 83,99 -31,13 c -32,13 -34,23 -10,77 5,11 20,46 34,78 14,32 26,63 26,71 0,7 18,56 40,109 22,52 40,100 40,106 0,6 10,34 23,63 24,54 30,69 88,218 19,47 39,96 46,110 13,24 13,24 14,-15 1,-22 3,-49 4,-60 23,-170 30,-231 45,-385 6,-63 16,-155 21,-204 21,-192 31,-293 34,-346 2,-30 8,-82 13,-115 6,-33 13,-100 17,-150 3,-49 10,-115 15,-145 5,-30 11,-84 14,-120 4,-36 9,-83 11,-105 3,-22 7,-68 9,-102 3,-59 2,-63 -18,-63 -11,0 -28,-5 -36,-10 -13,-8 -13,-12 -1,-32 8,-13 19,-32 24,-43 6,-11 14,-27 19,-35 4,-8 11,-22 14,-30 3,-8 9,-22 14,-30 5,-8 21,-41 36,-73 15,-32 32,-56 37,-54 12,4 28,60 51,182 9,50 19,102 22,117 5,26 3,28 -30,28 -20,0 -36,3 -37,8 0,4 -2,16 -4,27 -2,11 -6,49 -8,85 -3,36 -15,146 -26,245 -24,207 -48,423 -56,510 -3,33 -8,78 -11,100 -3,22 -7,63 -9,90 -2,28 -4,50 -5,50 -2,0 -7,45 -20,195 -12,136 -19,197 -25,220 -2,8 -9,65 -15,125 -17,173 -21,209 -25,221 -2,6 5,24 16,40 10,16 19,37 19,46 0,15 21,28 57,34 7,1 20,9 29,18 9,9 30,23 47,31 18,8 40,19 50,25 18,11 35,20 79,45 25,14 29,14 48,-7 l 20,-22 105,104 c 139,139 138,157 -5,126 -36,-8 -94,-19 -129,-25 -35,-6 -66,-13 -69,-16 -3,-3 1,-16 8,-30 16,-30 16,-31 -68,-77 -128,-70 -172,-91 -179,-85 -3,4 6,37 21,74 18,45 24,69 17,76 -7,7 -12,6 -15,-4 -17,-57 -39,-109 -47,-109 -5,0 -8,-3 -7,-7 4,-17 -14,-53 -27,-53 -11,0 -15,20 -17,82 -2,59 -7,83 -17,86 -12,4 -13,-10 -7,-80 6,-75 5,-86 -12,-101 -18,-16 -20,-15 -48,20 -16,20 -28,41 -26,46 1,5 -1,6 -6,3 -5,-3 -21,8 -36,24 -29,33 -44,37 -52,16 -5,-12 -21,-7 -82,25 -41,22 -82,45 -90,51 -17,15 -43,30 -99,59 -24,11 -43,25 -43,30 0,5 -4,9 -10,9 -5,0 -10,-4 -10,-9 z m 130,-1396 c 0,-16 -27,-32 -37,-22 -3,4 -3,13 0,22 8,20 37,20 37,0 z m 639,-983 c 12,-23 3,-62 -14,-62 -15,0 -25,22 -25,56 0,29 25,32 39,6 z"
       id="path3371" />
    <path
       inkscape:connector-curvature="0"
       d="m 3360,2680 c 0,-6 6,-13 14,-16 8,-3 13,-11 11,-17 -2,-7 -6,-24 -9,-39 -5,-23 -12,-28 -37,-28 -47,0 -99,-56 -99,-107 0,-55 29,-82 66,-63 20,11 29,12 44,2 30,-18 48,-15 66,13 19,29 12,44 -11,25 -22,-18 -20,5 10,125 14,55 25,103 25,108 0,4 -18,7 -40,7 -22,0 -40,-5 -40,-10 z m 0,-139 c -1,-27 -23,-97 -33,-103 -22,-14 -47,-9 -47,11 0,24 29,94 43,103 11,7 37,0 37,-11 z"
       id="path3373" />
    <path
       inkscape:connector-curvature="0"
       d="m 2638,2574 c -39,-17 -56,-41 -34,-50 20,-8 108,35 103,49 -6,18 -28,18 -69,1 z"
       id="path3375" />
    <path
       inkscape:connector-curvature="0"
       d="m 3487,2572 c -27,-29 -21,-60 21,-97 l 37,-35 -27,0 c -16,0 -28,5 -28,10 0,6 -4,10 -10,10 -14,0 -13,-33 2,-48 20,-20 65,-14 82,10 27,38 20,70 -19,96 -36,23 -45,42 -21,42 8,0 18,-10 21,-21 7,-20 8,-20 23,-5 13,13 14,20 6,34 -16,25 -66,27 -87,4 z"
       id="path3377" />
    <path
       inkscape:connector-curvature="0"
       d="m 2500,2505 c -14,-8 -44,-24 -67,-37 -24,-12 -43,-28 -43,-34 0,-25 22,-25 59,0 20,14 40,26 44,26 4,0 21,10 37,22 45,33 21,53 -30,23 z"
       id="path3379" />
    <path
       inkscape:connector-curvature="0"
       d="m 2305,2378 c -11,-6 -38,-28 -61,-48 -39,-36 -47,-60 -17,-60 19,0 123,90 123,107 0,16 -18,16 -45,1 z"
       id="path3381" />
    <path
       inkscape:connector-curvature="0"
       d="m 2106,2201 c -40,-40 -57,-65 -53,-75 10,-25 19,-20 81,43 40,40 57,65 53,75 -10,25 -19,20 -81,-43 z"
       id="path3383" />
    <path
       inkscape:connector-curvature="0"
       d="m 2010,2103 c 0,-5 -23,-32 -50,-62 -39,-42 -48,-57 -39,-67 9,-11 23,-2 70,48 62,67 71,88 39,88 -11,0 -20,-3 -20,-7 z"
       id="path3385" />
    <path
       inkscape:connector-curvature="0"
       d="m 1874,1942 c -13,-9 -104,-131 -111,-148 -3,-8 1,-14 10,-14 18,0 127,124 127,145 0,17 -13,26 -26,17 z"
       id="path3387" />
    <path
       inkscape:connector-curvature="0"
       d="m 1719,1748 c -12,-18 -27,-37 -33,-43 -7,-5 -27,-32 -45,-59 -23,-34 -29,-52 -22,-59 13,-13 12,-14 85,78 31,39 56,78 56,87 0,31 -18,29 -41,-4 z"
       id="path3389" />
    <path
       inkscape:connector-curvature="0"
       d="m 1552,1518 c -50,-66 -81,-116 -74,-122 12,-13 43,-5 49,12 3,9 20,35 37,57 38,48 56,82 48,89 -13,13 -29,4 -60,-36 z"
       id="path3391" />
    <path
       inkscape:connector-curvature="0"
       d="m 3136,1511 c -3,-4 3,-16 13,-25 16,-15 19,-32 19,-107 -1,-78 -3,-89 -20,-95 -40,-12 -11,-29 52,-29 64,0 92,17 51,30 -17,5 -21,15 -21,52 0,37 3,44 16,39 9,-3 20,-6 25,-6 5,0 9,-7 9,-16 0,-9 6,-14 13,-11 15,5 16,89 1,94 -6,2 -14,-5 -17,-17 -3,-12 -13,-20 -26,-20 -18,0 -21,6 -21,45 0,45 0,45 35,45 25,0 43,-7 59,-25 13,-14 26,-25 30,-25 11,0 6,56 -6,68 -14,14 -204,17 -212,3 z"
       id="path3393" />
    <path
       inkscape:connector-curvature="0"
       d="m 1940,1353 c -84,-4 -101,-10 -79,-26 11,-9 18,-38 23,-105 6,-89 6,-94 -14,-99 -11,-3 -20,-12 -20,-19 0,-11 17,-14 70,-14 56,0 70,3 70,15 0,8 -9,15 -20,15 -17,0 -20,7 -20,45 0,25 4,45 9,45 21,0 41,-13 41,-27 0,-8 5,-11 10,-8 12,8 13,95 1,95 -5,0 -11,-7 -15,-15 -3,-8 -15,-15 -26,-15 -17,0 -20,6 -20,40 0,40 0,40 40,40 32,0 43,-5 57,-26 15,-24 18,-24 23,-8 15,42 -14,79 -55,72 -5,-1 -39,-3 -75,-5 z"
       id="path3395" />
    <path
       inkscape:connector-curvature="0"
       d="m 3421,1321 c -25,-7 -47,-46 -31,-56 14,-9 30,3 30,21 0,22 34,13 38,-9 2,-10 -3,-26 -12,-36 -14,-15 -14,-19 5,-34 27,-24 21,-51 -12,-55 -20,-2 -28,2 -32,17 -7,29 -27,26 -27,-3 0,-19 8,-27 36,-36 32,-11 38,-10 59,10 20,19 23,30 21,79 -4,86 -25,114 -75,102 z"
       id="path3397" />
    <path
       inkscape:connector-curvature="0"
       d="m 3551,1319 c -19,-7 -22,-12 -13,-21 7,-7 12,-43 12,-85 0,-58 -3,-73 -15,-73 -8,0 -15,-4 -15,-10 0,-5 23,-10 50,-10 38,0 50,4 50,15 0,8 -7,15 -15,15 -12,0 -15,16 -15,84 0,47 -3,87 -7,89 -5,3 -19,1 -32,-4 z"
       id="path3399" />
    <path
       inkscape:connector-curvature="0"
       d="m 4993,1133 c -37,-78 -39,-182 -5,-230 12,-17 22,-35 22,-41 0,-5 7,-15 15,-22 24,-20 19,8 -11,64 -23,44 -26,58 -22,120 3,45 13,86 26,113 25,48 26,53 12,53 -6,0 -22,-26 -37,-57 z"
       id="path3401" />
    <path
       inkscape:connector-curvature="0"
       d="m 5320,1183 c 0,-3 7,-14 16,-24 23,-26 45,-126 37,-174 -3,-22 -17,-64 -30,-93 -24,-52 -25,-71 -3,-57 41,25 91,231 60,250 -5,3 -10,15 -10,25 0,20 -46,80 -61,80 -5,0 -9,-3 -9,-7 z"
       id="path3403" />
    <path
       inkscape:connector-curvature="0"
       d="m 2090,1155 c -20,-21 -21,-27 -9,-41 12,-15 14,-15 19,7 4,15 13,24 25,24 26,0 32,-35 9,-52 -16,-12 -16,-14 -1,-31 27,-29 22,-62 -8,-62 -15,0 -25,6 -25,14 0,7 -6,19 -14,25 -11,10 -16,8 -21,-9 -16,-50 71,-83 110,-40 13,14 16,28 11,55 -4,19 -11,35 -17,35 -6,0 -6,7 1,19 14,27 13,35 -9,59 -24,28 -42,28 -71,-3 z"
       id="path3405" />
    <path
       inkscape:connector-curvature="0"
       d="m 2222,1158 c -9,-12 -16,-47 -13,-75 1,-7 8,-13 17,-13 13,0 15,7 10,35 -6,33 -5,35 19,35 19,0 25,-5 25,-21 0,-21 -49,-92 -80,-116 -13,-10 -11,-13 10,-21 14,-5 44,-10 68,-10 l 42,-2 0,38 c 0,20 -4,32 -8,26 -6,-10 -62,-26 -62,-18 0,2 13,18 29,36 28,33 34,51 32,96 -1,19 -7,22 -40,22 -21,0 -43,-6 -49,-12 z"
       id="path3407" />
    <path
       inkscape:connector-curvature="0"
       d="m 5189,1082 c -32,-4 -79,-73 -79,-117 0,-38 26,-65 63,-65 34,0 96,55 80,71 -8,8 -15,5 -25,-9 -19,-29 -66,-39 -74,-18 -8,21 24,106 42,113 8,3 23,-5 33,-18 18,-22 20,-22 26,-6 15,37 -11,56 -66,49 z"
       id="path3409" />
  </g>
  <rect
     style="fill:#ffffff;fill-opacity:1;stroke:none"
     id="rect4002"
     width="38.123928"
     height="9.0084305"
     x="440.62122"
     y="329.07669" />
  <rect
     style="fill:#ffffff;fill-opacity:1;stroke:none"
     id="rect4002-3"
     width="38.704239"
     height="9.0084305"
     x="440.41882"
     y="191.45003" />
  <path
     style="color:#000000;fill:#ffffff;fill-opacity:1;stroke:none;stroke-width:1.25;marker:none;visibility:visible;display:inline;overflow:visible;enable-background:accumulate"
     d="m 440.75804,119.86828 c 0,0 4.39503,5.33681 7.22039,6.59253 2.82538,1.25572 15.38259,6.59254 18.52189,8.16219 3.13931,1.56964 13.499,9.10397 13.499,9.10397 l 0,55.56565 -39.86914,0 0,-75.97111 z"
     id="path4790"
     inkscape:connector-curvature="0" />
</svg>
