<?xml version="1.0" encoding="UTF-8" standalone="no"?>
<svg
   xmlns:dc="http://purl.org/dc/elements/1.1/"
   xmlns:cc="http://creativecommons.org/ns#"
   xmlns:rdf="http://www.w3.org/1999/02/22-rdf-syntax-ns#"
   xmlns:svg="http://www.w3.org/2000/svg"
   xmlns="http://www.w3.org/2000/svg"
   xmlns:xlink="http://www.w3.org/1999/xlink"
   xmlns:sodipodi="http://sodipodi.sourceforge.net/DTD/sodipodi-0.dtd"
   xmlns:inkscape="http://www.inkscape.org/namespaces/inkscape"
   version="1.0"
   width="200.640000pt"
   height="383.520000pt"
   viewBox="0 0 200.640000 383.520000"
   preserveAspectRatio="xMidYMid meet"
   id="svg3143"
   sodipodi:docname="black.svg">
  <defs
     id="defs3497" />
  <sodipodi:namedview
     pagecolor="#ffffff"
     bordercolor="#666666"
     borderopacity="1"
     objecttolerance="10"
     gridtolerance="10"
     guidetolerance="10"
     inkscape:pageopacity="0"
     inkscape:pageshadow="2"
     inkscape:window-width="1280"
     inkscape:window-height="996"
     id="namedview3495"
     showgrid="false"
     inkscape:zoom="1.3935631"
     inkscape:cx="37.58938"
     inkscape:cy="228.68088"
     inkscape:window-x="0"
     inkscape:window-y="0"
     inkscape:window-maximized="1"
     inkscape:current-layer="svg3143" />
  <metadata
     id="metadata3145">
Created by potrace 1.10, written by Peter Selinger 2001-2011
<rdf:RDF>
  <cc:Work
     rdf:about="">
    <dc:format>image/svg+xml</dc:format>
    <dc:type
       rdf:resource="http://purl.org/dc/dcmitype/StillImage" />
    <dc:title></dc:title>
  </cc:Work>
</rdf:RDF>
</metadata>
  <rect
     style="fill:#b9b9b9;fill-opacity:1;stroke:none"
     id="rect3779"
     width="222.51968"
     height="383.52756"
     x="0.011469455"
     y="0.017902901" />
  <image
     width="200.69292"
     height="383.62115"
     xlink:href="crystal-pe-shaded.jpg"
     id="image3507"
     x="-0.013322406"
     y="-0.063585304" />
  <g
     transform="translate(0.000000,383.520000) scale(0.024000,-0.024000)"
     fill="#000000"
     stroke="none"
     id="g3147">
    <path
       d="M4405 14821 c-49 -21 -83 -97 -62 -140 9 -20 21 -27 50 -29 31 -3 43 2 70 29 39 39 21 53 -20 15 -34 -32 -49 -33 -56 -4 -4 12 -5 22 -4 23 1 0 25 11 52 25 43 22 50 30 50 55 0 26 -4 30 -30 32 -16 1 -39 -2 -50 -6z m39 -38 c-3 -12 -15 -24 -27 -27 -34 -8 -35 4 -2 29 33 27 36 27 29 -2z"
       id="path3149" />
    <path
       d="M3982 14773 c3 -16 16 -18 123 -18 100 0 120 3 120 15 0 12 -22 15 -123 18 -114 2 -123 1 -120 -15z"
       id="path3151" />
    <path
       d="M4110 14583 c-63 -24 -100 -79 -109 -162 -6 -51 -9 -56 -46 -77 -22 -13 -50 -28 -62 -33 -22 -10 -32 -31 -14 -31 19 0 71 23 71 31 0 5 7 9 15 9 8 0 24 5 34 12 16 10 24 7 50 -19 17 -17 50 -38 73 -45 l43 -15 5 -94 c3 -53 9 -94 15 -94 6 0 11 43 13 103 2 93 4 102 22 102 26 0 85 53 100 90 10 23 17 29 34 25 41 -10 131 -10 134 0 3 11 -26 19 -100 30 -45 6 -48 8 -60 48 -13 45 -57 94 -102 115 -27 12 -89 15 -116 5z m120 -38 c38 -20 68 -60 76 -101 8 -43 -25 -113 -65 -137 -67 -39 -169 -9 -197 58 -19 46 -18 79 5 124 33 63 117 89 181 56z"
       id="path3153" />
    <path
       d="M7628 14412 c-34 -20 -58 -68 -58 -115 0 -29 5 -37 31 -47 27 -12 35 -11 62 5 41 24 59 47 46 60 -6 6 -19 -1 -35 -18 -28 -30 -57 -32 -62 -5 -3 14 30 35 49 30 3 0 21 14 39 33 33 34 33 35 15 55 -22 24 -51 25 -87 2z m56 -17 c6 -17 -19 -45 -40 -45 -19 0 -18 19 3 42 20 22 29 23 37 3z"
       id="path3155" />
    <path
       d="M4558 14379 c-7 -4 -9 -11 -5 -15 8 -8 88 -23 130 -23 27 -1 38 16 15 23 -7 2 -22 7 -33 11 -29 10 -93 12 -107 4z"
       id="path3157" />
    <path
       d="M7253 14372 c-31 -3 -49 -31 -20 -32 27 -1 184 -2 210 -1 20 1 27 6 27 20 0 17 -8 19 -92 18 -51 0 -108 -2 -125 -5z"
       id="path3159" />
    <path
       d="M4765 14350 c-4 -6 -5 -13 -2 -16 9 -9 248 -40 258 -34 17 11 -13 27 -61 33 -25 3 -54 8 -65 10 -63 14 -123 18 -130 7z"
       id="path3161" />
    <path
       d="M5080 14302 c0 -13 15 -18 112 -33 77 -12 120 -7 102 11 -9 9 -26 12 -147 25 -45 5 -67 4 -67 -3z"
       id="path3163" />
    <path
       d="M5371 14272 c-6 -2 -11 -9 -11 -17 0 -8 22 -15 63 -19 34 -4 81 -9 105 -12 46 -7 59 10 19 25 -28 11 -160 28 -176 23z"
       id="path3165" />
    <path
       d="M3760 14253 c-69 -32 -102 -55 -92 -65 11 -11 152 56 152 72 0 14 -20 12 -60 -7z"
       id="path3167" />
    <path
       d="M5650 14230 c-8 -5 -11 -12 -7 -16 13 -13 200 -35 211 -24 13 13 -25 26 -102 34 -35 4 -69 9 -75 11 -7 3 -19 1 -27 -5z"
       id="path3169" />
    <path
       d="M5939 14189 c-6 -4 -9 -11 -6 -16 8 -12 215 -39 224 -29 13 12 -32 35 -72 36 -22 1 -61 5 -87 9 -26 4 -52 4 -59 0z"
       id="path3171" />
    <path
       d="M3565 14155 c-16 -6 -40 -16 -52 -23 -12 -6 -28 -12 -35 -12 -22 -1 -72 -47 -59 -55 10 -6 160 63 184 85 15 14 -7 17 -38 5z"
       id="path3173" />
    <path
       d="M7273 14155 c-45 -19 -68 -44 -84 -87 -15 -43 -22 -45 -113 -27 -31 7 -60 9 -64 5 -14 -15 31 -35 93 -41 54 -6 64 -11 74 -32 15 -32 14 -43 -3 -43 -8 0 -16 -3 -18 -7 -1 -5 -27 -19 -55 -32 -29 -14 -53 -31 -53 -39 0 -9 6 -12 18 -7 9 4 31 12 47 18 17 6 36 17 43 24 20 19 53 16 78 -8 12 -11 39 -27 61 -34 l38 -13 3 -97 c2 -85 5 -96 20 -93 15 3 17 15 14 101 -2 89 -1 97 16 97 27 0 89 50 107 87 17 36 20 99 5 139 -32 83 -142 126 -227 89z m138 -37 c114 -64 78 -233 -54 -255 -100 -16 -189 109 -139 198 41 75 120 98 193 57z"
       id="path3175" />
    <path
       d="M6225 14149 c-11 -17 6 -23 101 -38 58 -9 89 -10 96 -3 15 15 -16 28 -82 36 -30 4 -67 9 -82 12 -14 3 -29 0 -33 -7z"
       id="path3177" />
    <path
       d="M6490 14110 c0 -17 49 -31 132 -37 55 -4 78 -3 78 5 0 13 -15 17 -110 32 -82 13 -100 12 -100 0z"
       id="path3179" />
    <path
       d="M6775 14079 c-4 -6 -3 -14 1 -18 11 -10 165 -33 172 -26 13 13 -20 27 -83 36 -37 5 -71 12 -75 14 -5 3 -12 0 -15 -6z"
       id="path3181" />
    <path
       d="M3228 13993 c-84 -44 -106 -63 -73 -63 19 0 191 86 200 100 15 23 -46 6 -127 -37z"
       id="path3183" />
    <path
       d="M4170 13874 c0 -88 3 -115 13 -112 8 3 13 38 15 116 2 95 0 112 -13 112 -13 0 -15 -18 -15 -116z"
       id="path3185" />
    <path
       d="M2264 13930 c-61 -24 -85 -122 -39 -159 31 -23 69 -15 105 25 32 34 16 44 -18 11 -31 -30 -60 -35 -69 -12 -6 16 11 33 57 57 84 44 52 114 -36 78z m46 -24 c0 -19 -27 -46 -45 -46 -15 0 -11 23 8 48 13 16 37 15 37 -2z"
       id="path3187" />
    <path
       d="M2973 13871 c-81 -41 -100 -56 -85 -65 12 -7 192 81 192 95 0 17 -35 7 -107 -30z"
       id="path3189" />
    <path
       d="M1855 13880 c-14 -23 11 -30 115 -30 122 0 147 5 129 26 -14 17 -234 20 -244 4z"
       id="path3191" />
    <path
       d="M6902 13795 c-55 -27 -92 -51 -92 -60 0 -18 26 -10 110 36 8 5 30 16 48 25 17 9 32 23 32 30 0 8 -1 14 -3 14 -1 0 -44 -20 -95 -45z"
       id="path3193" />
    <path
       d="M2784 13780 c-12 -5 -25 -13 -29 -19 -3 -6 -12 -11 -19 -11 -8 0 -35 -12 -60 -26 -32 -18 -44 -30 -37 -37 7 -7 41 5 105 37 52 25 98 51 101 56 7 12 -32 12 -61 0z"
       id="path3195" />
    <path
       d="M6643 13667 c-46 -23 -83 -47 -83 -54 0 -7 4 -13 9 -13 15 0 189 89 196 100 14 22 -44 7 -122 -33z"
       id="path3197" />
    <path
       d="M4177 13694 c-4 -4 -7 -54 -7 -111 0 -79 3 -104 13 -101 8 3 13 35 15 103 3 91 -4 125 -21 109z"
       id="path3199" />
    <path
       d="M2540 13657 c-14 -6 -52 -24 -84 -39 -74 -35 -86 -35 -120 1 -35 37 -91 48 -154 30 -71 -20 -112 -76 -112 -153 0 -71 71 -166 124 -166 16 0 21 -35 17 -137 -2 -43 15 -66 30 -42 5 8 8 43 6 79 -5 83 -1 97 30 105 39 9 73 35 98 75 l23 37 58 -9 c39 -6 61 -5 68 2 16 16 -6 26 -66 33 -28 4 -52 8 -53 9 -2 2 -5 18 -7 36 -3 32 0 35 77 77 44 25 84 46 89 48 5 2 7 8 5 14 -3 7 -11 7 -29 0z m-233 -47 c106 -64 70 -233 -55 -256 -45 -9 -110 23 -135 65 -34 59 -16 147 39 190 35 28 107 28 151 1z"
       id="path3201" />
    <path
       d="M6396 13544 c-62 -32 -85 -49 -78 -56 14 -14 182 68 182 88 0 20 -5 18 -104 -32z"
       id="path3203" />
    <path
       d="M7347 13563 c-4 -3 -7 -55 -7 -115 0 -101 1 -108 20 -108 19 0 20 7 20 104 0 74 -4 107 -13 115 -8 6 -17 8 -20 4z"
       id="path3205" />
    <path
       d="M5425 13455 c-29 -30 -35 -43 -35 -78 0 -24 5 -48 12 -55 29 -29 117 2 118 41 0 4 -13 -2 -29 -14 -32 -23 -64 -22 -69 2 -2 10 9 21 29 29 35 15 89 57 89 70 0 17 -32 40 -55 40 -14 0 -39 -15 -60 -35z m75 3 c0 -16 -41 -58 -57 -58 -18 0 -16 13 8 44 21 27 49 35 49 14z"
       id="path3207" />
    <path
       d="M6210 13450 c-8 -4 -36 -19 -62 -31 -27 -13 -48 -30 -48 -36 0 -7 2 -13 5 -13 17 0 145 66 149 77 6 15 -20 17 -44 3z"
       id="path3209" />
    <path
       d="M2617 13444 c-15 -16 -5 -23 46 -33 92 -18 177 -24 177 -13 0 17 -15 22 -97 32 -43 5 -87 12 -98 15 -11 4 -24 3 -28 -1z"
       id="path3211" />
    <path
       d="M5138 13431 c-88 -5 -106 -8 -99 -20 7 -11 32 -13 120 -9 62 3 115 9 119 12 6 7 -18 28 -28 24 -3 -1 -53 -4 -112 -7z"
       id="path3213" />
    <path
       d="M2909 13399 c-12 -8 -12 -10 0 -18 16 -10 190 -35 198 -28 13 14 -12 26 -65 32 -31 4 -71 10 -88 15 -17 4 -38 4 -45 -1z"
       id="path3215" />
    <path
       d="M4170 13315 c0 -60 3 -75 15 -75 12 0 15 15 15 75 0 60 -3 75 -15 75 -12 0 -15 -15 -15 -75z"
       id="path3217" />
    <path
       d="M3188 13358 c-16 -10 7 -27 37 -29 11 0 29 -2 40 -4 46 -10 110 -9 115 0 6 13 -176 44 -192 33z"
       id="path3219" />
    <path
       d="M5930 13315 c-69 -34 -90 -49 -82 -57 15 -15 182 66 182 87 0 8 -1 15 -3 15 -2 0 -45 -20 -97 -45z"
       id="path3221" />
    <path
       d="M3455 13320 c-12 -19 -11 -19 95 -35 19 -3 47 -8 61 -11 18 -3 28 0 32 9 4 12 -12 17 -75 27 -44 6 -86 14 -93 16 -7 3 -16 0 -20 -6z"
       id="path3223" />
    <path
       d="M3720 13281 c0 -10 18 -24 35 -27 102 -15 115 -16 115 -1 0 11 -14 18 -47 22 -27 3 -60 9 -75 11 -16 3 -28 1 -28 -5z"
       id="path3225" />
    <path
       d="M7347 13263 c-2 -4 -3 -39 -1 -78 2 -38 3 -94 4 -124 0 -47 2 -52 15 -41 13 11 15 35 13 128 -2 76 -7 117 -15 119 -6 2 -13 0 -16 -4z"
       id="path3227" />
    <path
       d="M3935 13250 c-11 -18 -3 -20 106 -36 57 -8 113 -17 124 -19 70 -11 242 -35 258 -35 10 0 17 5 15 13 -4 11 -134 40 -243 52 -126 14 -221 27 -237 31 -9 3 -19 0 -23 -6z"
       id="path3229" />
    <path
       d="M5705 13209 c-60 -29 -74 -42 -57 -53 15 -9 132 52 132 69 0 20 -4 19 -75 -16z"
       id="path3231" />
    <path
       d="M5314 13201 c-44 -20 -81 -60 -91 -99 -6 -24 -7 -24 -80 -18 -59 6 -74 4 -71 -6 5 -14 44 -25 99 -27 33 -1 37 -4 48 -41 16 -53 71 -105 126 -119 l45 -11 0 -70 c0 -56 3 -70 15 -70 12 0 15 15 15 75 l0 75 38 19 c53 28 83 77 84 140 1 46 4 52 30 63 15 7 28 19 28 25 0 16 -12 16 -44 1 -23 -10 -28 -8 -48 17 -24 31 -90 65 -128 65 -14 0 -43 -9 -66 -19z m135 -26 c42 -21 75 -94 66 -146 -9 -50 -59 -104 -107 -113 -39 -7 -93 7 -120 31 -23 20 -48 76 -48 106 0 34 38 101 67 119 34 21 104 23 142 3z"
       id="path3233" />
    <path
       d="M4532 13158 c5 -14 92 -36 151 -37 70 -2 36 23 -49 36 -103 15 -106 15 -102 1z"
       id="path3235" />
    <path
       d="M4806 13115 c4 -8 11 -15 18 -16 6 0 20 -2 31 -5 11 -2 50 -7 88 -10 97 -10 84 9 -20 29 -109 21 -124 21 -117 2z"
       id="path3237" />
    <path
       d="M2217 13074 c-12 -12 -8 -192 4 -199 19 -12 22 3 23 101 1 90 -7 118 -27 98z"
       id="path3239" />
    <path
       d="M4170 12946 c0 -101 3 -125 15 -130 13 -5 15 13 15 124 0 109 -2 130 -15 130 -13 0 -15 -20 -15 -124z"
       id="path3241" />
    <path
       d="M7352 12822 c3 -105 6 -127 18 -127 12 0 15 19 15 110 1 122 0 131 -21 139 -12 5 -14 -14 -12 -122z"
       id="path3243" />
    <path
       d="M2210 12727 c0 -98 3 -109 26 -100 25 10 14 193 -12 193 -11 0 -14 -21 -14 -93z"
       id="path3245" />
    <path
       d="M4170 12625 c0 -96 3 -115 15 -115 12 0 15 19 15 115 0 96 -3 115 -15 115 -12 0 -15 -19 -15 -115z"
       id="path3247" />
    <path
       d="M4424 12675 c-2 -69 -7 -75 -63 -75 -44 0 -49 -2 -44 -20 4 -15 11 -18 34 -13 15 3 40 2 55 -1 22 -6 25 -11 19 -33 -8 -35 3 -83 21 -83 10 0 14 15 14 60 l0 59 55 3 c72 4 75 22 5 28 l-55 5 -5 55 c-3 38 -10 56 -20 57 -11 2 -15 -8 -16 -42z"
       id="path3249" />
    <path
       d="M4767 12686 c-38 -36 -36 -106 4 -106 23 0 25 26 3 38 -21 12 -10 48 16 55 24 6 60 -19 60 -42 0 -10 -13 -38 -30 -62 -37 -56 -38 -66 -1 -40 45 32 74 85 66 120 -8 35 -22 49 -61 57 -23 4 -36 0 -57 -20z"
       id="path3251" />
    <path
       d="M5396 12661 c-4 -5 -5 -52 -4 -104 2 -68 6 -93 14 -90 14 5 20 65 16 146 -4 53 -13 70 -26 48z"
       id="path3253" />
    <path
       d="M4981 12606 c-18 -19 -26 -41 -29 -81 -4 -50 -3 -55 19 -63 30 -12 70 2 100 34 27 29 17 32 -18 4 -30 -23 -73 -27 -73 -6 0 8 25 31 56 51 42 28 54 42 52 58 -2 18 -11 23 -43 25 -33 2 -45 -2 -64 -22z m74 3 c8 -12 -33 -59 -52 -59 -16 0 -16 5 -2 33 19 35 42 46 54 26z"
       id="path3255" />
    <path
       d="M7357 12603 c-10 -10 -8 -186 2 -202 20 -31 31 3 31 93 0 66 -4 97 -13 105 -8 6 -17 8 -20 4z"
       id="path3257" />
    <path
       d="M2212 12428 c3 -110 6 -133 18 -133 12 0 16 20 18 110 3 123 -2 155 -23 155 -13 0 -15 -20 -13 -132z"
       id="path3259" />
    <path
       d="M4880 12506 c0 -18 -54 -28 -86 -16 -29 11 -54 -1 -54 -27 0 -11 16 -13 78 -11 l77 3 3 33 c2 18 -1 32 -7 32 -6 0 -11 -6 -11 -14z"
       id="path3261" />
    <path
       d="M4176 12398 c-3 -13 -6 -60 -6 -105 0 -67 3 -83 15 -83 17 0 17 -3 17 109 -1 83 -13 124 -26 79z"
       id="path3263" />
    <path
       d="M5399 12343 c0 -26 -2 -78 -4 -115 -4 -67 7 -96 26 -67 14 22 7 222 -8 227 -9 2 -13 -11 -14 -45z"
       id="path3265" />
    <path
       d="M4665 12358 c-93 -51 -118 -161 -57 -251 76 -112 255 -74 292 63 20 76 -30 169 -104 192 -34 10 -109 8 -131 -4z"
       id="path3267" />
    <path
       d="M7350 12189 c0 -109 2 -120 18 -117 15 3 17 17 20 107 3 99 -5 131 -29 131 -5 0 -9 -54 -9 -121z"
       id="path3269" />
    <path
       d="M2223 12202 c-13 -8 -17 -161 -4 -181 19 -30 31 2 31 82 0 85 -7 111 -27 99z"
       id="path3271" />
    <path
       d="M4176 12133 c-3 -3 -6 -62 -6 -130 0 -103 2 -123 15 -123 13 0 15 20 15 124 0 114 -6 147 -24 129z"
       id="path3273" />
    <path
       d="M5403 12078 c-12 -14 -18 -232 -7 -249 4 -6 11 -6 20 2 11 9 14 38 13 118 0 116 -8 152 -26 129z"
       id="path3275" />
    <path
       d="M7356 11993 c-8 -8 -8 -161 0 -190 4 -13 11 -20 20 -16 20 8 20 198 0 206 -8 3 -17 3 -20 0z"
       id="path3277" />
    <path
       d="M2216 11925 c-3 -9 -6 -58 -6 -108 0 -95 10 -131 30 -111 15 15 9 226 -6 231 -6 2 -14 -3 -18 -12z"
       id="path3279" />
    <path
       d="M5520 11890 c0 -5 7 -10 15 -10 19 0 19 1 -5 -122 -26 -136 -27 -134 15 -141 73 -12 135 42 135 117 0 51 -29 65 -75 36 -33 -20 -35 -20 -35 -3 0 10 7 43 15 73 8 30 15 56 15 58 0 1 -18 2 -40 2 -22 0 -40 -4 -40 -10z m120 -159 c0 -45 -38 -103 -64 -99 -18 3 -21 9 -19 42 5 70 83 123 83 57z"
       id="path3281" />
    <path
       d="M4177 11784 c-4 -4 -7 -71 -7 -148 l-1 -141 -47 -23 c-63 -30 -85 -63 -90 -135 l-5 -59 -48 -20 c-27 -12 -49 -27 -49 -34 0 -19 19 -17 58 6 43 27 49 26 86 -14 45 -50 108 -65 170 -42 26 10 59 33 76 54 l29 36 116 -18 c64 -9 120 -14 125 -11 24 15 5 23 -72 34 -170 23 -158 20 -158 52 0 16 -11 52 -25 79 -20 40 -35 54 -73 72 -26 12 -49 23 -52 26 -3 2 -5 64 -6 138 0 123 -8 167 -27 148z m94 -345 c36 -25 62 -92 54 -138 -16 -90 -121 -140 -204 -96 -31 16 -71 86 -71 125 0 18 44 109 53 110 1 0 20 7 42 15 46 16 88 11 126 -16z"
       id="path3283" />
    <path
       d="M5390 11640 c0 -82 3 -100 15 -100 17 0 17 1 20 95 3 83 -2 105 -21 105 -11 0 -14 -20 -14 -100z"
       id="path3285" />
    <path
       d="M7359 11690 c-2 -71 3 -205 8 -212 2 -5 11 -4 18 2 20 17 12 197 -10 219 -13 14 -15 13 -16 -9z"
       id="path3287" />
    <path
       d="M2217 11623 c-12 -11 -8 -211 4 -219 20 -12 29 19 28 91 -1 112 -11 150 -32 128z"
       id="path3289" />
    <path
       d="M4788 11551 c-54 -43 -63 -121 -17 -148 22 -14 32 -14 56 -4 28 11 59 48 49 58 -3 3 -16 -7 -29 -21 -28 -30 -52 -33 -62 -8 -7 18 -2 22 65 65 24 16 35 30 35 47 0 21 -5 25 -36 28 -24 2 -43 -4 -61 -17z m67 -8 c0 -16 -39 -63 -52 -63 -16 0 -16 15 -2 43 19 35 54 48 54 20z"
       id="path3291" />
    <path
       d="M4390 11485 c0 -13 21 -15 125 -15 104 0 125 2 125 15 0 13 -21 15 -125 15 -104 0 -125 -2 -125 -15z"
       id="path3293" />
    <path
       d="M5397 11453 c-2 -10 -4 -38 -3 -63 1 -33 5 -45 16 -45 12 0 15 13 15 59 0 36 -5 61 -12 63 -6 2 -13 -4 -16 -14z"
       id="path3295" />
    <path
       d="M7360 11311 c0 -90 8 -113 30 -87 14 17 12 145 -3 164 -21 26 -27 9 -27 -77z"
       id="path3297" />
    <path
       d="M2217 11323 c-12 -11 -8 -181 4 -189 20 -12 29 20 28 96 -2 94 -10 116 -32 93z"
       id="path3299" />
    <path
       d="M4666 11242 c-11 -18 26 -31 94 -34 77 -4 95 16 23 25 -26 3 -62 9 -79 12 -19 4 -34 3 -38 -3z"
       id="path3301" />
    <path
       d="M5387 11223 c-10 -9 -8 -246 2 -261 14 -23 29 9 31 68 4 137 0 200 -13 200 -8 0 -17 -3 -20 -7z"
       id="path3303" />
    <path
       d="M4904 11208 c-10 -16 3 -20 96 -31 62 -7 94 -7 101 0 7 7 -8 14 -48 21 -91 17 -142 21 -149 10z"
       id="path3305" />
    <path
       d="M3803 11166 c-35 -17 -63 -37 -63 -43 0 -18 6 -17 76 18 44 21 61 34 57 45 -3 8 -6 13 -7 13 0 -1 -29 -15 -63 -33z"
       id="path3307" />
    <path
       d="M5160 11171 c0 -15 10 -18 88 -26 60 -6 72 -5 72 8 0 9 -15 16 -46 21 -67 9 -114 7 -114 -3z"
       id="path3309" />
    <path
       d="M7367 11153 c-4 -3 -7 -28 -7 -55 0 -46 -1 -48 -28 -48 -35 0 -101 -46 -122 -85 l-15 -28 -87 7 c-52 4 -88 3 -88 -3 0 -13 25 -21 91 -28 31 -3 61 -8 67 -12 5 -3 12 -25 16 -48 l6 -43 -60 -30 c-33 -17 -60 -35 -60 -41 0 -16 51 -5 90 19 43 27 47 27 62 2 7 -11 17 -20 23 -20 5 0 22 -6 37 -14 16 -9 47 -13 79 -11 43 3 58 10 87 37 19 18 43 52 54 75 18 40 18 46 3 97 -16 55 -53 102 -91 116 -16 7 -21 18 -22 55 -3 60 -14 79 -35 58z m56 -152 c40 -26 56 -53 63 -103 13 -110 -103 -186 -204 -134 -81 42 -84 189 -4 238 36 23 110 23 145 -1z"
       id="path3311" />
    <path
       d="M5480 11130 c0 -14 56 -26 130 -29 84 -3 70 16 -21 29 -83 12 -109 12 -109 0z"
       id="path3313" />
    <path
       d="M5730 11101 c0 -12 19 -18 103 -31 65 -10 87 -8 87 9 0 7 -124 31 -165 31 -14 0 -25 -4 -25 -9z"
       id="path3315" />
    <path
       d="M3586 11057 c-58 -31 -82 -57 -54 -57 17 0 128 57 148 76 28 27 -31 15 -94 -19z"
       id="path3317" />
    <path
       d="M6000 11066 c0 -18 17 -22 113 -31 44 -4 67 -2 67 5 0 14 -17 20 -66 24 -21 2 -56 7 -76 11 -31 6 -38 5 -38 -9z"
       id="path3319" />
    <path
       d="M2216 11018 c-9 -35 -7 -186 3 -192 22 -14 32 25 29 115 -3 90 -18 127 -32 77z"
       id="path3321" />
    <path
       d="M6260 11032 c0 -15 23 -21 110 -28 55 -5 80 -3 80 4 0 14 -21 20 -112 28 -51 4 -78 3 -78 -4z"
       id="path3323" />
    <path
       d="M6510 11000 c0 -5 1 -10 3 -11 40 -10 185 -24 191 -18 15 13 6 17 -77 28 -97 14 -117 14 -117 1z"
       id="path3325" />
    <path
       d="M3363 10947 c-65 -33 -87 -65 -36 -52 15 3 30 10 33 13 3 4 22 16 43 26 20 11 42 25 48 33 20 23 -21 14 -88 -20z"
       id="path3327" />
    <path
       d="M6772 10968 c3 -7 27 -16 54 -19 27 -4 63 -9 80 -12 36 -6 64 7 49 21 -6 5 -50 13 -99 16 -70 6 -87 5 -84 -6z"
       id="path3329" />
    <path
       d="M5380 10779 c0 -76 3 -100 13 -97 8 3 13 35 15 101 2 82 0 97 -13 97 -12 0 -15 -17 -15 -101z"
       id="path3331" />
    <path
       d="M3155 10841 c-33 -16 -69 -36 -80 -44 -17 -14 -18 -16 -4 -22 18 -7 162 65 161 80 -1 18 -17 15 -77 -14z"
       id="path3333" />
    <path
       d="M2215 10750 c-3 -5 -5 -53 -4 -105 l2 -95 -54 -28 c-64 -33 -87 -69 -88 -137 0 -64 24 -112 74 -147 68 -46 145 -36 214 29 41 40 50 44 81 39 19 -4 64 -9 99 -13 52 -5 63 -4 59 8 -3 9 -33 18 -87 26 -111 16 -111 16 -111 60 0 36 3 39 48 60 27 12 57 32 68 44 l19 22 -30 -7 c-16 -4 -46 -18 -66 -32 -45 -31 -50 -30 -73 5 -19 28 -77 61 -108 61 -12 0 -14 14 -10 84 2 47 2 96 -2 110 -7 27 -20 34 -31 16z m82 -249 c51 -24 73 -63 73 -129 0 -106 -116 -168 -207 -112 -89 54 -79 194 17 242 44 23 65 22 117 -1z"
       id="path3335" />
    <path
       d="M2878 10699 c-83 -43 -108 -76 -43 -56 19 6 35 14 35 19 0 4 8 8 17 8 9 0 24 6 32 14 9 8 25 16 36 18 20 3 35 16 35 31 0 16 -38 4 -112 -34z"
       id="path3337" />
    <path
       d="M6948 10686 c-76 -40 -95 -64 -47 -58 13 1 36 11 51 22 15 11 33 20 41 20 20 0 53 39 41 49 -5 5 -43 -10 -86 -33z"
       id="path3339" />
    <path
       d="M2647 10583 c-42 -21 -77 -44 -77 -50 0 -20 26 -15 72 13 24 14 55 30 71 37 25 10 38 37 19 37 -5 0 -43 -17 -85 -37z"
       id="path3341" />
    <path
       d="M5379 10593 c-3 -43 2 -198 7 -202 2 -3 9 0 15 6 15 15 7 205 -8 211 -7 2 -14 -5 -14 -15z"
       id="path3343" />
    <path
       d="M6718 10571 c-38 -20 -68 -42 -68 -48 0 -19 44 -16 71 6 13 10 41 26 62 36 30 14 35 20 26 31 -14 17 -11 18 -91 -25z"
       id="path3345" />
    <path
       d="M7658 10594 c-35 -18 -58 -62 -58 -110 0 -69 68 -87 123 -32 36 36 21 54 -16 20 -21 -20 -49 -25 -55 -9 -6 14 3 24 48 49 34 19 46 31 48 53 6 45 -37 59 -90 29z m42 -39 c-7 -9 -22 -21 -32 -26 -17 -9 -18 -8 -9 10 11 20 42 43 50 35 2 -2 -2 -11 -9 -19z"
       id="path3347" />
    <path
       d="M7285 10540 c-35 -4 -51 -10 -53 -21 -3 -15 11 -16 124 -12 71 2 129 5 131 7 2 2 1 10 -3 19 -5 13 -20 16 -77 14 -40 -1 -94 -4 -122 -7z"
       id="path3349" />
    <path
       d="M6490 10454 c-58 -31 -89 -64 -61 -64 19 0 66 22 86 40 11 10 29 20 40 22 20 3 28 29 10 34 -5 1 -39 -13 -75 -32z"
       id="path3351" />
    <path
       d="M6300 10356 c-14 -7 -44 -23 -68 -36 -52 -27 -44 -51 10 -29 60 25 118 61 112 70 -7 13 -25 11 -54 -5z"
       id="path3353" />
    <path
       d="M5380 10219 l0 -110 -34 -14 c-42 -18 -96 -79 -96 -109 0 -32 -18 -37 -87 -26 -78 13 -93 12 -93 -4 0 -15 21 -21 112 -32 51 -5 58 -9 67 -34 12 -37 87 -110 115 -112 48 -3 92 2 116 14 28 14 85 58 75 58 -3 0 0 10 7 23 14 25 15 29 17 60 1 16 11 28 32 38 41 18 34 35 -13 31 -21 -2 -38 1 -38 6 0 19 -71 81 -100 87 -16 4 -33 12 -37 18 -6 10 -10 78 -13 200 0 9 -7 17 -15 17 -12 0 -15 -19 -15 -111z m95 -160 c65 -38 86 -109 54 -176 -51 -106 -200 -104 -245 3 -19 45 -18 78 5 123 35 67 118 90 186 50z"
       id="path3355" />
    <path
       d="M6467 10324 c-3 -3 -1 -14 5 -24 9 -13 4 -42 -19 -126 -18 -62 -27 -114 -22 -120 11 -14 84 -17 109 -4 27 14 69 71 74 101 8 50 -56 79 -96 42 -17 -15 -18 -15 -12 18 4 19 13 49 20 68 8 18 11 37 8 42 -6 10 -57 12 -67 3z m93 -178 c0 -39 -33 -86 -61 -86 -29 0 -25 51 7 89 34 41 54 40 54 -3z"
       id="path3357" />
    <path
       d="M2700 10294 c1 -24 21 -33 90 -39 41 -3 85 -8 98 -11 15 -3 22 0 22 11 0 16 -15 20 -99 30 -30 3 -67 9 -82 12 -16 3 -29 2 -29 -3z"
       id="path3359" />
    <path
       d="M2990 10252 c0 -19 27 -32 70 -32 25 -1 64 -5 87 -9 41 -8 75 1 60 15 -8 8 -146 33 -189 33 -16 1 -28 -3 -28 -7z"
       id="path3361" />
    <path
       d="M6028 10217 c-48 -23 -87 -48 -87 -54 -1 -19 43 -16 70 5 13 9 45 28 72 41 46 23 56 34 39 45 -4 2 -47 -14 -94 -37z"
       id="path3363" />
    <path
       d="M3280 10207 c0 -11 19 -18 73 -27 137 -21 145 -22 152 -10 10 17 5 19 -71 30 -38 5 -88 12 -111 16 -35 5 -43 4 -43 -9z"
       id="path3365" />
    <path
       d="M3595 10170 c-12 -20 7 -27 101 -39 115 -14 124 -14 124 3 0 9 -27 17 -92 25 -51 7 -100 15 -110 17 -9 3 -19 0 -23 -6z"
       id="path3367" />
    <path
       d="M3914 10128 c-14 -22 18 -33 149 -47 65 -7 85 -2 73 18 -3 5 -40 12 -82 16 -41 4 -89 11 -105 15 -18 5 -31 5 -35 -2z"
       id="path3369" />
    <path
       d="M5835 10123 c-11 -3 -31 -13 -45 -22 -14 -9 -42 -25 -62 -35 -29 -15 -35 -22 -27 -32 8 -10 22 -7 67 17 31 16 62 29 68 29 15 0 46 35 37 43 -7 7 -7 7 -38 0z"
       id="path3371" />
    <path
       d="M2311 10104 c-13 -9 -29 -32 -37 -50 -29 -68 -10 -113 47 -114 31 0 98 63 79 75 -8 5 -22 -4 -37 -24 -27 -34 -48 -40 -57 -15 -7 19 10 44 29 44 25 0 76 52 73 74 -4 28 -63 34 -97 10z m57 -25 c-4 -27 -33 -48 -48 -33 -7 7 -5 17 6 32 20 29 46 29 42 1z"
       id="path3373" />
    <path
       d="M4220 10076 c0 -14 14 -17 115 -31 22 -3 56 -7 76 -11 41 -6 60 9 30 25 -16 9 -164 31 -208 31 -7 0 -13 -6 -13 -14z"
       id="path3375" />
    <path
       d="M1962 10072 c-44 -2 -62 -7 -59 -15 2 -8 42 -13 125 -15 104 -2 122 0 122 13 0 8 -6 16 -12 16 -27 4 -116 4 -176 1z"
       id="path3377" />
    <path
       d="M4520 10043 c0 -23 31 -33 106 -35 85 -3 114 13 42 23 -24 3 -67 10 -95 14 -34 5 -53 4 -53 -2z"
       id="path3379" />
    <path
       d="M3745 10021 c-3 -6 2 -14 11 -19 19 -10 19 -10 -15 -165 -10 -48 -15 -90 -10 -93 4 -2 29 -5 54 -6 40 0 51 4 81 33 45 43 54 92 25 123 -19 20 -28 22 -57 16 -33 -8 -34 -7 -28 19 10 43 14 60 20 81 5 18 1 20 -35 20 -22 0 -42 -4 -46 -9z m115 -169 c0 -59 -69 -122 -86 -79 -7 20 23 84 47 101 28 19 39 12 39 -22z"
       id="path3381" />
    <path
       d="M4806 10001 c-10 -15 25 -27 118 -41 52 -8 82 -8 88 -2 18 18 0 29 -59 35 -32 4 -77 9 -99 13 -26 4 -44 2 -48 -5z"
       id="path3383" />
    <path
       d="M5665 9623 c-61 -15 -99 -128 -57 -166 10 -10 29 -17 43 -17 36 0 89 36 89 60 0 17 -3 19 -18 11 -10 -5 -24 -17 -32 -25 -19 -24 -50 -20 -50 6 0 12 3 19 6 15 3 -3 11 -2 18 3 6 6 26 21 44 36 33 27 45 74 18 74 -8 0 -20 2 -28 4 -7 2 -22 1 -33 -1z m25 -43 c0 -11 -6 -20 -14 -20 -8 0 -17 -7 -20 -16 -4 -9 -9 -15 -11 -12 -7 7 25 68 36 68 5 0 9 -9 9 -20z"
       id="path3385" />
    <path
       d="M5250 9571 c0 -18 8 -20 88 -21 127 -2 134 -1 148 11 27 22 0 29 -117 29 -111 0 -119 -1 -119 -19z"
       id="path3387" />
    <path
       d="M4759 8906 c-26 -34 -49 -112 -49 -163 0 -62 56 -181 75 -161 3 2 -6 24 -18 49 -29 58 -31 185 -3 241 21 44 18 66 -5 34z"
       id="path3389" />
    <path
       d="M5080 8925 c0 -3 11 -27 25 -53 41 -77 36 -132 -28 -282 -1 -3 2 -7 8 -9 10 -4 34 31 60 88 35 79 29 148 -22 224 -23 32 -43 48 -43 32z"
       id="path3391" />
    <path
       d="M4891 8791 c-41 -41 -49 -67 -35 -118 7 -27 27 -35 56 -24 14 5 30 4 40 -3 14 -8 22 -5 43 14 24 23 34 50 17 50 -4 0 -14 -6 -21 -12 -11 -11 -12 -9 -3 7 5 11 12 43 13 70 l4 50 -37 3 c-32 3 -43 -3 -77 -37z m65 -33 c-7 -45 -30 -78 -54 -78 -10 0 -12 7 -7 27 13 55 34 93 51 93 14 0 15 -7 10 -42z"
       id="path3393" />
    <path
       d="M2845 7360 c-4 -6 -2 -17 5 -25 16 -19 15 -226 -2 -236 -13 -8 -7 -12 39 -22 25 -5 41 9 27 23 -5 5 -7 34 -6 64 3 44 8 56 23 61 10 4 23 3 29 0 13 -8 13 -112 0 -120 -20 -13 -9 -25 23 -25 38 0 51 8 38 24 -6 7 -11 36 -13 65 -2 45 -8 57 -29 74 -21 15 -31 17 -47 8 -20 -11 -21 -9 -24 51 -3 60 -4 63 -30 66 -14 2 -29 -2 -33 -8z"
       id="path3395" />
    <path
       d="M2124 7343 c-47 -9 -79 -86 -49 -117 9 -9 21 -16 26 -16 15 0 10 32 -7 44 -22 16 -7 46 23 46 27 0 53 -21 53 -43 0 -21 -47 -87 -92 -128 -47 -44 -40 -49 68 -49 l74 0 0 45 c0 50 -6 57 -19 22 -7 -19 -16 -22 -47 -21 -22 1 -40 3 -41 3 -1 1 19 21 44 45 42 39 47 48 47 91 1 44 -2 50 -29 65 -16 9 -40 15 -51 13z"
       id="path3397" />
    <path
       d="M1905 7331 c-20 -9 -20 -9 0 -17 31 -12 35 -23 35 -106 0 -89 -5 -108 -31 -108 -10 0 -19 -4 -19 -10 0 -6 31 -10 73 -10 65 1 70 2 53 15 -11 8 -23 15 -28 15 -4 0 -9 51 -10 113 -3 111 -3 112 -28 114 -14 1 -34 -2 -45 -6z"
       id="path3399" />
    <path
       d="M3555 7314 c-12 -12 -13 -19 -4 -30 18 -22 39 -17 39 10 0 32 -14 40 -35 20z"
       id="path3401" />
    <path
       d="M2355 7236 c-19 -29 -6 -71 24 -81 30 -9 44 -40 26 -55 -11 -9 -18 -7 -32 9 -23 27 -35 27 -31 -1 3 -20 9 -23 48 -23 40 0 46 3 54 28 12 33 1 56 -36 75 -19 9 -25 18 -21 33 l6 20 21 -20 c12 -12 25 -21 29 -21 14 0 7 27 -10 42 -27 22 -61 20 -78 -6z"
       id="path3403" />
    <path
       d="M3230 7250 c-8 -5 -25 -7 -37 -4 -34 9 -58 -3 -43 -20 13 -17 12 -194 -2 -202 -18 -12 -5 -20 34 -21 54 -3 63 4 37 26 -31 25 -19 47 27 49 45 2 67 23 81 80 6 24 9 41 6 38 -3 -3 -15 9 -27 27 -23 34 -51 44 -76 27z m41 -48 c23 -60 3 -107 -43 -100 -24 3 -25 9 -19 105 2 32 50 28 62 -5z"
       id="path3405" />
    <path
       d="M3378 7248 c-20 -7 -28 -17 -28 -34 0 -15 6 -24 15 -24 8 0 15 9 15 19 0 21 17 31 38 23 29 -10 5 -56 -33 -61 -13 -2 -55 -39 -55 -48 0 -5 6 -16 13 -25 23 -30 157 -18 157 13 0 5 -6 9 -12 9 -8 0 -14 18 -16 48 -2 36 -8 52 -28 70 -28 24 -28 24 -66 10z m48 -99 c10 -16 -18 -40 -35 -29 -12 7 -12 11 -2 24 16 19 27 20 37 5z"
       id="path3407" />
    <path
       d="M2487 7243 c-3 -5 0 -39 5 -77 12 -87 24 -98 98 -90 65 8 76 12 61 27 -6 6 -11 42 -11 79 0 58 -3 68 -17 68 -26 0 -52 -20 -35 -27 17 -7 16 -97 -2 -112 -27 -23 -46 -2 -46 51 0 27 -5 58 -10 69 -11 19 -35 26 -43 12z"
       id="path3409" />
    <path
       d="M2707 7225 c-43 -41 -32 -120 20 -144 35 -16 44 -14 78 15 l30 26 -30 -7 c-16 -4 -35 -8 -42 -10 -41 -13 -61 94 -22 115 27 15 49 6 49 -20 0 -13 7 -20 20 -20 28 0 26 35 -2 54 -33 23 -69 20 -101 -9z"
       id="path3411" />
    <path
       d="M3514 7238 c-3 -5 2 -15 11 -22 13 -10 16 -23 13 -62 -2 -27 -6 -56 -9 -64 -3 -12 10 -15 78 -15 75 1 116 11 86 22 -14 5 -17 52 -7 91 5 16 13 22 28 20 15 -2 22 3 24 17 3 19 -2 21 -58 20 -60 0 -61 0 -55 -25 23 -87 14 -133 -24 -123 -15 4 -18 16 -20 71 -1 36 -4 69 -6 73 -7 10 -55 8 -61 -3z"
       id="path3413" />
    <path
       d="M3773 7235 c-19 -13 -20 -19 -11 -45 5 -17 23 -37 39 -46 32 -16 38 -41 13 -51 -11 -4 -23 2 -35 18 -16 21 -18 22 -24 6 -17 -43 57 -65 95 -27 11 11 20 24 20 30 0 22 -25 60 -40 60 -22 0 -40 19 -33 36 7 20 19 17 43 -8 l22 -23 -4 30 c-2 25 -8 30 -33 33 -16 1 -40 -4 -52 -13z"
       id="path3415" />
    <path
       d="M2878 6975 c-10 -10 21 -64 68 -121 22 -27 51 -67 64 -89 13 -22 39 -57 57 -78 18 -20 33 -41 33 -46 0 -5 21 -35 47 -66 41 -51 45 -60 34 -78 -12 -18 -7 -26 54 -85 55 -53 64 -67 53 -78 -7 -7 -78 -43 -158 -80 -353 -163 -428 -197 -470 -212 -25 -10 -47 -20 -50 -24 -8 -11 -120 -59 -120 -51 0 3 -8 -1 -17 -10 -10 -8 -35 -18 -55 -22 -31 -6 -43 -3 -71 19 -45 34 -96 43 -150 25 -53 -17 -71 -34 -96 -89 -26 -57 -25 -104 2 -155 47 -86 169 -109 246 -47 43 35 59 64 68 128 8 60 22 74 121 114 43 18 145 65 228 106 83 41 156 74 163 74 6 0 11 5 11 10 0 6 6 10 14 10 8 0 57 20 108 44 51 24 129 60 173 81 44 21 107 50 140 65 137 63 291 136 632 301 56 27 104 49 107 49 3 0 22 -11 42 -25 47 -32 131 -35 178 -6 120 75 110 242 -19 295 -79 33 -153 13 -205 -56 -20 -27 -25 -46 -27 -102 -1 -37 -3 -70 -5 -71 -5 -5 -275 -135 -281 -135 -5 0 -392 -185 -419 -200 -10 -6 -24 -10 -32 -10 -18 0 -60 72 -75 127 -9 34 -17 44 -39 49 -30 7 -75 53 -97 99 -8 17 -31 48 -50 70 -20 22 -43 53 -52 70 -14 27 -81 121 -130 183 -10 13 -21 20 -25 17z m1456 -85 c66 -59 68 -146 5 -209 -54 -54 -125 -53 -186 2 -30 28 -36 42 -40 83 -9 92 47 154 139 154 38 0 54 -6 82 -30z m-2018 -946 c24 -11 41 -31 60 -69 23 -49 25 -57 13 -89 -19 -53 -69 -97 -117 -103 -86 -11 -150 37 -159 121 -13 113 98 189 203 140z"
       id="path3417" />
    <path
       d="M7313 6461 c-35 -9 -74 -37 -105 -76 -20 -26 -21 -69 -3 -170 5 -28 -1 -34 -91 -100 -52 -38 -101 -72 -107 -74 -6 -2 -20 -13 -32 -23 -11 -11 -40 -34 -65 -51 -40 -28 -71 -50 -174 -130 -16 -12 -36 -25 -45 -29 -9 -3 -32 -20 -51 -37 -19 -17 -38 -31 -42 -31 -4 0 -13 -6 -21 -14 -12 -13 -77 -59 -150 -109 -11 -6 -31 -22 -45 -34 -15 -13 -30 -23 -34 -23 -5 0 -17 -9 -27 -19 -11 -11 -50 -40 -88 -65 -37 -24 -76 -52 -85 -60 -10 -9 -20 -16 -23 -16 -3 0 -18 -11 -33 -25 -15 -14 -32 -25 -39 -25 -7 0 -13 -4 -13 -9 0 -9 -73 -59 -131 -91 -15 -8 -40 -26 -56 -40 -15 -14 -51 -40 -79 -57 -65 -42 -98 -78 -90 -98 7 -20 32 -9 98 46 26 22 50 39 53 39 4 0 25 14 47 32 51 40 92 70 143 104 22 15 45 33 52 40 7 7 22 16 33 19 11 3 20 11 20 16 0 5 6 9 13 9 6 0 25 14 41 30 16 17 35 30 41 30 7 0 18 7 25 15 15 18 97 75 108 75 4 0 13 9 20 20 7 11 19 20 27 20 8 0 15 5 15 10 0 6 5 10 11 10 6 0 29 15 49 33 21 17 58 46 82 63 23 17 71 52 106 77 34 26 66 47 70 47 4 0 25 16 45 35 20 19 43 35 50 35 7 0 23 10 37 23 42 37 179 137 189 137 5 0 11 4 13 8 2 4 41 36 86 71 74 56 86 62 105 52 12 -6 45 -15 72 -19 71 -12 117 10 166 78 33 45 36 96 9 157 -17 39 -30 54 -63 70 -54 26 -94 33 -134 24z m114 -51 c95 -58 79 -206 -28 -250 -41 -18 -95 -4 -137 34 -32 30 -36 39 -40 95 -4 60 -4 61 36 101 35 36 45 40 88 40 31 0 61 -7 81 -20z"
       id="path3419" />
    <path
       d="M5305 5516 c-70 -31 -110 -113 -94 -187 20 -88 76 -129 176 -129 l59 0 91 -97 c137 -148 191 -205 273 -294 41 -45 90 -98 108 -118 18 -19 52 -56 74 -81 22 -25 80 -88 128 -140 48 -52 113 -124 145 -160 32 -36 101 -111 154 -166 53 -56 125 -134 161 -174 36 -40 91 -101 123 -134 58 -61 58 -61 46 -96 -6 -19 -22 -52 -35 -72 -32 -51 -41 -88 -20 -88 21 0 20 -24 -4 -121 -12 -44 -29 -119 -39 -167 -40 -188 -119 -530 -149 -644 -17 -64 -3 -72 126 -75 102 -2 139 5 112 22 -6 4 -56 6 -112 6 -99 -1 -100 -1 -95 21 3 13 15 73 27 133 12 61 25 124 31 140 8 26 51 221 65 295 2 14 7 39 10 55 6 32 48 212 66 282 6 24 17 43 26 45 12 2 16 19 18 76 2 39 6 77 9 82 4 6 23 -8 45 -32 20 -24 73 -79 116 -124 44 -44 97 -102 119 -129 22 -27 64 -73 93 -103 l54 -54 -11 -45 c-34 -134 98 -252 222 -199 72 30 123 121 107 190 -13 57 -71 122 -117 130 -63 10 -92 7 -134 -15 l-40 -20 -57 59 c-31 32 -91 96 -132 141 -41 46 -86 95 -99 110 -13 14 -83 89 -155 166 -73 77 -190 203 -260 280 -71 77 -143 154 -160 171 -17 16 -41 43 -53 59 -12 15 -73 82 -135 148 -136 144 -117 124 -208 227 -41 47 -95 106 -120 132 -97 100 -130 137 -130 143 0 3 -28 34 -63 68 -34 34 -80 84 -102 112 -22 27 -46 56 -52 63 -18 19 -16 35 8 77 17 28 20 47 17 91 -5 58 -24 93 -71 128 -33 25 -121 32 -162 12z m146 -37 c44 -31 62 -73 56 -133 -4 -41 -11 -55 -40 -82 -49 -45 -94 -52 -152 -24 -47 23 -67 50 -80 108 -9 41 23 110 62 134 40 25 117 23 154 -3z m1981 -2155 c31 -16 68 -80 68 -118 0 -128 -163 -192 -244 -96 -47 56 -47 124 1 181 49 58 105 68 175 33z"
       id="path3421" />
    <path
       d="M5544 4992 c-17 -15 -41 -34 -54 -42 -13 -8 -38 -27 -55 -42 -18 -16 -37 -28 -43 -28 -5 0 -37 -21 -70 -47 -33 -27 -99 -75 -146 -108 -48 -32 -94 -70 -104 -83 -9 -13 -24 -32 -33 -43 -10 -11 -27 -61 -39 -112 -26 -110 -74 -212 -112 -240 -16 -12 -28 -29 -28 -39 0 -59 107 40 145 135 14 34 31 91 37 127 19 109 45 136 298 320 52 38 116 85 142 105 26 19 51 35 56 35 16 0 74 68 68 79 -11 17 -29 13 -62 -17z"
       id="path3423" />
    <path
       d="M4715 4626 c-90 -44 -125 -134 -86 -217 28 -59 40 -73 81 -94 55 -28 57 -32 76 -122 3 -16 10 -37 15 -48 5 -11 14 -42 20 -70 12 -59 22 -100 43 -175 8 -30 23 -86 34 -125 10 -38 21 -77 24 -85 4 -8 15 -51 27 -95 25 -99 59 -226 100 -369 35 -125 36 -126 18 -126 -8 0 -44 -36 -82 -81 -49 -59 -64 -84 -56 -92 18 -18 13 -42 -28 -119 -21 -40 -47 -89 -57 -108 -11 -19 -21 -37 -24 -40 -3 -3 -18 -32 -35 -65 -27 -57 -47 -94 -137 -254 -21 -36 -51 -92 -68 -123 -16 -31 -34 -59 -40 -63 -5 -3 -10 -15 -10 -25 0 -10 -8 -25 -17 -32 -10 -7 -20 -22 -21 -33 -2 -11 -7 -24 -12 -30 -24 -30 -200 -372 -200 -389 0 -14 13 -16 84 -16 47 0 87 4 90 9 9 14 -20 21 -80 21 -65 0 -67 7 -24 80 17 28 30 55 30 61 0 5 7 21 17 35 19 29 40 67 77 139 14 28 30 58 36 67 5 10 15 26 20 35 6 10 23 43 39 73 16 30 56 106 90 169 33 62 61 117 61 121 0 5 6 15 13 22 7 7 46 78 86 158 40 80 76 147 80 150 3 3 18 30 33 61 20 44 31 56 48 55 28 -1 32 7 66 116 14 48 30 85 35 82 10 -6 23 -48 100 -324 60 -218 97 -359 110 -418 8 -41 7 -45 -26 -77 -70 -71 -68 -154 6 -226 67 -65 126 -72 213 -26 56 30 89 123 67 190 -22 65 -76 105 -160 116 -48 7 -50 10 -86 146 -9 33 -25 92 -35 130 -19 71 -91 330 -117 420 -8 28 -19 66 -23 85 -5 19 -20 76 -34 125 -68 245 -98 356 -145 530 -28 105 -67 249 -87 320 -20 72 -38 153 -41 180 l-5 50 47 23 c37 18 50 32 67 69 11 26 20 56 20 67 0 92 -68 167 -156 173 -31 2 -63 -2 -81 -11z m763 -2373 c52 -50 61 -97 32 -158 -26 -53 -61 -78 -115 -79 -55 -1 -96 18 -122 57 -26 38 -31 106 -10 147 21 41 74 70 128 70 42 0 53 -5 87 -37z"
       id="path3425" />
    <path
       d="M4506 4208 c-31 -6 -76 -27 -123 -58 -40 -28 -77 -50 -82 -50 -5 0 -11 -4 -13 -9 -1 -5 -28 -26 -59 -47 -62 -43 -309 -223 -349 -254 -14 -11 -45 -33 -70 -49 -25 -16 -54 -38 -66 -48 -11 -10 -27 -22 -36 -28 -8 -5 -42 -29 -74 -52 -108 -78 -149 -107 -200 -142 -28 -20 -102 -72 -164 -116 -61 -44 -122 -87 -134 -95 -11 -8 -55 -39 -96 -70 -41 -30 -138 -100 -215 -155 -77 -55 -144 -103 -150 -108 -89 -68 -264 -187 -275 -187 -6 0 -10 4 -10 8 0 16 -51 32 -104 32 -61 0 -107 -25 -143 -79 -37 -55 -30 -140 15 -189 6 -7 12 -18 12 -23 0 -5 6 -9 14 -9 8 0 21 -6 28 -13 18 -18 77 -29 116 -21 17 4 55 27 83 53 56 50 57 55 45 155 -7 52 -6 55 21 73 15 9 37 25 48 35 11 10 61 46 112 80 51 35 212 151 359 258 352 257 350 256 264 131 -53 -78 -59 -91 -35 -91 17 0 19 -18 6 -52 -5 -13 -26 -66 -46 -118 -21 -52 -43 -108 -50 -125 -8 -16 -23 -51 -34 -77 -12 -26 -21 -54 -21 -61 0 -7 -4 -17 -8 -22 -5 -6 -21 -41 -37 -80 -15 -38 -34 -83 -41 -100 -8 -16 -37 -86 -65 -155 -45 -112 -58 -142 -90 -215 -4 -11 -17 -42 -28 -70 -10 -27 -40 -101 -65 -162 -51 -124 -50 -123 -36 -123 9 0 27 33 51 98 5 12 14 34 20 50 7 15 15 36 19 47 8 19 58 143 85 210 26 62 47 111 68 155 11 25 21 47 22 50 3 16 60 157 67 164 4 6 8 16 8 23 0 7 11 36 23 65 13 29 39 91 57 138 30 80 48 123 72 180 6 14 16 39 23 55 38 91 46 106 54 100 19 -11 38 26 45 85 4 34 12 73 17 87 7 18 6 30 -3 41 -9 11 -10 16 -2 19 6 2 34 21 62 41 75 54 125 90 213 152 125 88 378 270 459 330 41 30 79 58 85 62 5 4 24 18 40 31 17 13 45 32 63 42 17 11 32 23 32 26 0 7 123 84 170 106 14 6 51 19 83 28 56 15 60 15 101 -4 24 -12 62 -21 89 -21 40 0 47 3 47 20 0 16 -7 20 -38 20 -20 0 -54 9 -75 20 -39 21 -82 24 -161 8z m-2161 -1464 c18 -8 46 -33 60 -55 23 -33 27 -46 22 -85 -16 -147 -199 -180 -262 -48 -55 116 66 242 180 188z"
       id="path3427" />
    <path
       d="M4135 3768 c-31 -32 -44 -54 -49 -86 -21 -137 102 -240 225 -188 111 47 140 157 69 257 -31 42 -70 59 -141 59 -59 0 -63 -2 -104 -42z m195 -8 c32 -23 60 -76 60 -115 0 -41 -39 -102 -76 -120 -72 -34 -162 -6 -190 60 -31 75 -4 152 66 188 42 21 99 16 140 -13z"
       id="path3429" />
    <path
       d="M7761 2771 c-12 -8 -12 -12 -2 -25 19 -22 21 -210 3 -228 -10 -10 -14 -10 -21 1 -6 9 -11 10 -15 2 -12 -19 -64 -13 -76 8 -14 27 -13 84 2 99 20 20 37 14 53 -18 14 -27 18 -29 38 -18 14 7 17 13 9 16 -6 2 -12 9 -12 16 0 15 -42 36 -74 36 -12 0 -34 -13 -49 -28 -60 -62 -16 -159 68 -148 22 2 41 9 43 14 2 6 16 4 32 -5 36 -18 77 -14 71 7 -3 8 -6 34 -9 58 -4 47 9 72 40 72 18 0 19 -7 17 -72 -2 -71 -2 -73 22 -73 23 0 24 4 27 67 3 58 0 69 -20 88 -16 15 -33 20 -54 18 l-31 -4 0 54 c1 64 -23 88 -62 63z"
       id="path3431" />
    <path
       d="M7025 2741 c-30 -13 -46 -35 -48 -68 -3 -39 20 -65 46 -52 18 10 18 11 -3 34 -31 33 -20 57 22 53 32 -3 33 -5 32 -46 0 -28 -7 -49 -20 -61 -10 -10 -38 -39 -62 -65 -40 -43 -42 -46 -20 -47 152 -10 168 -5 168 46 0 38 -18 48 -27 15 -4 -16 -14 -20 -44 -20 -22 0 -39 2 -39 5 0 2 23 27 50 54 40 40 50 56 50 83 0 18 -7 41 -14 50 -16 21 -63 31 -91 19z"
       id="path3433" />
    <path
       d="M6810 2733 c0 -5 9 -16 20 -26 17 -14 20 -29 19 -103 -1 -76 -3 -87 -20 -91 -40 -11 -16 -23 46 -23 63 0 86 12 45 23 -18 5 -20 14 -21 99 -1 51 -2 100 -3 108 -1 10 -15 16 -43 18 -24 2 -43 -1 -43 -5z"
       id="path3435" />
    <path
       d="M7272 2648 c-20 -20 -13 -56 15 -83 15 -14 31 -25 35 -25 5 0 8 -6 8 -14 0 -23 -29 -27 -50 -6 -25 25 -30 25 -30 1 0 -24 17 -36 56 -40 24 -2 36 4 48 21 23 32 20 42 -19 84 -19 20 -35 41 -35 45 0 17 19 9 31 -12 10 -19 12 -20 26 -6 25 25 9 47 -35 47 -21 0 -43 -5 -50 -12z"
       id="path3437" />
    <path
       d="M7393 2643 c-10 -3 -9 -8 2 -20 10 -9 15 -34 15 -67 0 -32 5 -58 13 -64 19 -16 133 -13 148 4 8 9 8 14 1 14 -7 0 -12 28 -14 68 l-3 67 -30 0 c-22 0 -29 -4 -26 -15 3 -8 7 -39 9 -68 l4 -54 -29 4 c-26 3 -28 6 -29 48 -1 85 -2 90 -26 89 -13 0 -29 -3 -35 -6z"
       id="path3439" />
    <path
       d="M7447 2313 c-11 -10 -8 -41 5 -49 12 -8 38 21 38 43 0 13 -32 18 -43 6z"
       id="path3441" />
    <path
       d="M7136 2248 c-9 -5 -29 -7 -44 -4 -30 7 -64 -9 -47 -21 6 -5 12 -52 14 -105 2 -90 1 -98 -16 -98 -15 0 -16 -2 -3 -10 18 -11 100 -13 100 -2 0 4 -9 13 -20 20 -11 7 -20 20 -20 30 0 15 7 18 40 16 34 -2 44 3 66 29 22 26 25 37 19 71 -9 62 -50 96 -89 74z m42 -92 c3 -42 1 -47 -25 -57 -36 -13 -53 8 -53 67 0 86 72 77 78 -10z"
       id="path3443" />
    <path
       d="M7262 2238 c-5 -7 -13 -23 -16 -35 -6 -19 -3 -23 13 -23 16 0 21 6 21 26 0 21 4 25 23 22 27 -4 38 -48 12 -48 -30 0 -75 -40 -75 -65 0 -26 33 -51 52 -39 6 4 33 6 60 5 37 -1 48 2 48 14 0 8 -7 15 -15 15 -11 0 -15 12 -15 51 0 71 -12 89 -59 89 -21 0 -43 -6 -49 -12z m58 -123 c-14 -16 -40 -9 -40 11 0 21 44 36 48 17 2 -8 -2 -20 -8 -28z"
       id="path3445" />
    <path
       d="M7425 2240 c-3 -5 -2 -18 3 -27 5 -10 10 -39 11 -65 2 -38 -1 -48 -13 -48 -9 0 -16 -7 -16 -15 0 -13 15 -15 90 -14 50 1 93 5 96 10 3 5 0 9 -5 9 -7 0 -11 23 -11 54 0 52 1 55 28 58 16 2 27 9 27 18 0 11 -14 16 -57 18 -45 2 -58 -1 -58 -12 0 -8 5 -18 10 -21 6 -3 10 -27 10 -53 0 -36 -5 -50 -19 -59 -29 -18 -40 2 -43 81 -3 62 -5 69 -25 72 -12 2 -25 -1 -28 -6z"
       id="path3447" />
    <path
       d="M7677 2230 c-15 -12 -27 -28 -27 -36 0 -16 29 -48 53 -57 21 -8 23 -37 3 -37 -8 0 -22 7 -30 16 -15 14 -17 14 -22 0 -12 -30 4 -46 45 -46 75 0 92 47 35 95 -26 22 -33 35 -28 48 6 17 8 17 25 1 23 -20 38 -10 23 14 -16 25 -47 26 -77 2z"
       id="path3449" />
    <path
       d="M5347 1783 c-4 -3 -3 -11 2 -17 15 -18 18 -229 3 -234 -7 -2 -12 -10 -12 -18 0 -16 75 -20 85 -4 3 6 1 10 -4 10 -7 0 -11 24 -11 59 0 51 3 61 20 66 11 3 24 3 30 0 13 -8 13 -125 0 -125 -5 0 -10 -4 -10 -10 0 -5 18 -10 41 -10 35 0 40 2 34 18 -4 9 -7 31 -6 48 2 36 -15 85 -32 96 -7 4 -27 8 -44 8 l-33 0 0 60 c0 59 0 60 -28 60 -16 0 -32 -3 -35 -7z"
       id="path3451" />
    <path
       d="M4599 1762 c-39 -19 -47 -48 -29 -93 11 -25 10 -32 -5 -49 -13 -14 -16 -29 -12 -55 8 -46 23 -60 73 -63 75 -6 119 70 75 128 -18 23 -18 26 -3 52 15 26 15 29 -4 54 -28 38 -55 46 -95 26z m69 -50 c4 -43 -23 -55 -50 -22 -18 22 -18 24 -1 42 25 27 47 19 51 -20z m0 -136 c6 -50 -33 -72 -70 -39 -20 18 -24 63 -7 80 20 20 73 -8 77 -41z"
       id="path3453" />
    <path
       d="M6040 1720 c0 -23 22 -27 39 -7 13 16 5 27 -21 27 -11 0 -18 -7 -18 -20z"
       id="path3455" />
    <path
       d="M2608 1683 c-20 -5 -24 -18 -8 -28 15 -9 13 -232 -2 -237 -23 -8 4 -28 37 -28 32 0 56 14 36 22 -11 4 -14 20 -12 81 1 47 2 48 29 45 26 -3 27 -6 30 -61 2 -46 0 -59 -13 -64 -22 -8 0 -23 35 -23 25 0 26 1 23 67 -3 81 -27 116 -74 106 l-29 -5 0 55 c0 59 -14 78 -52 70z"
       id="path3457" />
    <path
       d="M5881 1671 c-36 -10 -50 -37 -29 -58 14 -14 18 -14 22 -2 2 8 7 22 10 31 8 25 36 11 36 -18 0 -17 -6 -24 -19 -24 -23 0 -71 -37 -71 -55 0 -31 28 -43 95 -40 67 2 90 10 61 21 -12 5 -16 19 -16 58 0 28 -4 56 -8 62 -7 10 -47 35 -54 33 -2 -1 -14 -4 -27 -8z m39 -116 c0 -18 -5 -25 -20 -25 -20 0 -28 28 -13 43 15 16 33 6 33 -18z"
       id="path3459" />
    <path
       d="M4862 1658 c-22 -22 -13 -55 24 -87 24 -19 35 -35 31 -45 -8 -20 -36 -21 -43 -1 -8 19 -34 20 -34 1 0 -18 6 -22 45 -30 59 -13 90 41 51 87 -13 15 -28 27 -35 27 -6 0 -11 9 -11 20 0 25 25 26 39 3 9 -16 12 -16 21 -3 5 8 8 20 7 25 -5 15 -80 18 -95 3z"
       id="path3461" />
    <path
       d="M4970 1656 c0 -8 4 -17 9 -20 4 -3 11 -28 14 -55 10 -86 18 -93 94 -87 63 5 91 14 66 23 -9 3 -13 26 -13 68 0 67 -12 87 -44 75 -14 -4 -16 -9 -8 -14 13 -7 16 -83 6 -110 -3 -9 -17 -16 -30 -16 -22 0 -23 4 -26 73 l-3 72 -32 3 c-24 2 -33 -1 -33 -12z"
       id="path3463" />
    <path
       d="M5205 1645 c-36 -35 -35 -99 3 -131 32 -29 69 -30 100 -5 20 18 32 47 15 39 -5 -2 -21 -10 -37 -18 -26 -13 -30 -13 -47 9 -23 28 -24 59 -3 89 20 29 42 28 54 -3 11 -30 40 -34 40 -6 0 49 -85 67 -125 26z"
       id="path3465" />
    <path
       d="M5630 1661 c0 -4 5 -12 12 -19 16 -16 17 -194 1 -199 -31 -11 -8 -23 42 -23 54 0 74 13 35 23 -13 3 -20 14 -20 29 0 21 5 24 42 27 23 1 48 7 55 13 16 13 27 71 19 102 -11 45 -30 55 -111 54 -41 -1 -75 -4 -75 -7z m129 -24 c18 -22 24 -73 12 -96 -8 -14 -21 -21 -41 -21 -30 0 -30 0 -30 58 0 32 3 62 7 65 11 12 40 8 52 -6z"
       id="path3467" />
    <path
       d="M6042 1662 c-18 -3 -22 -8 -16 -20 13 -31 10 -113 -5 -121 -8 -5 -10 -11 -4 -14 11 -7 162 -12 168 -5 2 2 1 19 -3 38 -4 19 -6 48 -4 63 3 23 8 28 22 24 22 -6 48 19 34 32 -5 5 -33 7 -62 4 -48 -5 -52 -7 -46 -27 8 -23 9 -31 6 -89 -2 -34 -5 -38 -24 -35 -21 3 -23 9 -26 73 -2 39 -6 72 -10 76 -4 3 -17 3 -30 1z"
       id="path3469" />
    <path
       d="M6272 1654 c-31 -21 -28 -39 13 -77 19 -17 35 -40 35 -49 0 -23 -36 -24 -44 -1 -5 12 -9 14 -18 5 -17 -17 2 -33 40 -34 65 -2 84 55 32 94 -16 12 -30 30 -30 40 0 23 19 23 36 1 12 -17 13 -17 20 1 13 34 -43 49 -84 20z"
       id="path3471" />
    <path
       d="M1913 1638 c-6 -7 -18 -26 -26 -43 -9 -16 -26 -41 -39 -55 -22 -25 -48 -65 -48 -74 0 -3 21 -6 48 -8 41 -3 47 -6 44 -23 -2 -11 -8 -21 -13 -23 -26 -10 -3 -22 41 -22 47 0 63 11 40 25 -16 10 -12 42 7 49 14 6 14 9 -6 27 -20 18 -22 29 -19 87 3 65 -8 87 -29 60z m-17 -134 c-6 -24 -21 -30 -43 -16 -9 6 -7 16 10 39 18 26 24 29 30 17 5 -9 6 -26 3 -40z"
       id="path3473" />
    <path
       d="M3287 1626 c-9 -22 19 -42 37 -26 19 15 10 40 -14 40 -10 0 -20 -6 -23 -14z"
       id="path3475" />
    <path
       d="M2114 1548 c-13 -11 -24 -24 -24 -30 0 -5 18 -28 40 -50 22 -22 37 -45 34 -49 -9 -15 -43 -10 -53 9 -7 12 -13 14 -21 6 -18 -17 16 -44 54 -44 34 0 48 10 59 43 7 18 -18 50 -59 73 -15 10 -17 14 -6 25 10 11 16 11 32 1 26 -16 30 -15 30 7 0 28 -54 33 -86 9z"
       id="path3477" />
    <path
       d="M2468 1555 c-52 -29 -55 -105 -6 -147 38 -33 64 -35 96 -8 31 25 20 45 -13 24 -35 -23 -63 -10 -71 32 -13 70 43 119 66 58 11 -29 33 -28 38 2 2 13 -7 25 -27 37 -35 20 -48 21 -83 2z"
       id="path3479" />
    <path
       d="M2885 1562 c-3 -3 0 -11 6 -18 17 -20 19 -182 3 -195 -26 -21 -14 -29 41 -29 30 0 55 5 55 10 0 6 -9 10 -20 10 -16 0 -20 7 -20 30 0 22 4 28 15 24 23 -9 62 4 85 28 26 29 26 87 0 121 -19 24 -27 26 -90 25 -39 -1 -72 -4 -75 -6z m121 -30 c15 -10 26 -59 19 -83 -8 -24 -38 -41 -59 -33 -12 5 -16 20 -16 58 0 29 3 56 7 59 8 9 35 9 49 -1z"
       id="path3481" />
    <path
       d="M3104 1549 c-13 -14 -15 -25 -9 -35 16 -25 30 -21 33 9 4 34 35 34 40 1 2 -16 -4 -23 -25 -29 -15 -3 -30 -6 -32 -5 -2 1 -9 -10 -16 -24 -26 -50 6 -87 58 -67 14 5 28 7 31 3 8 -8 236 -14 255 -7 10 4 11 8 2 19 -7 8 -11 36 -9 63 3 43 5 48 28 48 15 0 26 7 28 16 3 14 -6 17 -58 16 -59 0 -85 -12 -61 -27 8 -4 11 -27 9 -61 -3 -46 -6 -54 -23 -54 -18 0 -20 8 -23 73 l-3 72 -29 0 c-30 0 -48 -14 -30 -25 15 -9 13 -112 -3 -118 -27 -10 -47 19 -47 67 0 33 -6 52 -20 66 -26 26 -72 26 -96 -1z m66 -104 c0 -18 -5 -25 -20 -25 -20 0 -28 28 -13 43 15 16 33 6 33 -18z"
       id="path3483" />
    <path
       d="M3523 1558 c-34 -17 -29 -52 12 -85 38 -31 47 -63 16 -63 -10 0 -24 7 -31 15 -10 13 -15 13 -21 3 -24 -39 55 -51 97 -15 26 23 26 24 10 50 -10 14 -26 29 -36 32 -26 8 -34 45 -9 45 10 0 19 -4 19 -10 0 -5 7 -10 15 -10 24 0 18 37 -7 44 -30 8 -39 7 -65 -6z"
       id="path3485" />
    <path
       d="M2222 1551 c-11 -7 -11 -9 2 -14 11 -4 16 -19 16 -45 0 -58 17 -99 43 -103 37 -6 133 5 120 14 -9 5 -13 33 -13 77 0 61 -2 69 -21 75 -24 8 -51 -11 -33 -23 14 -9 10 -100 -4 -114 -6 -6 -18 -8 -26 -5 -12 5 -16 21 -16 65 0 73 -25 100 -68 73z"
       id="path3487" />
    <path
       d="M4783 557 c-16 -21 -50 -110 -57 -150 -9 -47 15 -131 49 -173 30 -38 41 -26 17 17 -11 19 -25 58 -32 87 -13 58 -5 113 30 184 17 36 13 61 -7 35z"
       id="path3489" />
    <path
       d="M4931 561 c-25 -7 -42 -31 -21 -31 8 0 10 -12 7 -37 -16 -111 -20 -134 -28 -139 -5 -3 -9 -20 -9 -39 0 -31 3 -34 39 -40 49 -8 94 13 121 58 25 40 25 79 2 100 -23 21 -36 21 -67 1 -30 -20 -32 -11 -10 61 18 57 7 77 -34 66z m79 -177 c0 -42 -48 -98 -74 -88 -20 8 -20 18 0 60 15 32 48 64 66 64 5 0 8 -16 8 -36z"
       id="path3491" />
    <path
       d="M5127 564 c-4 -4 2 -19 12 -33 41 -59 52 -181 22 -240 -6 -12 -15 -30 -21 -41 -16 -32 -12 -46 8 -25 30 32 62 120 63 172 1 30 -7 65 -20 95 -23 49 -53 82 -64 72z"
       id="path3493" />
  </g>
  <g
     id="g4616"
     transform="translate(184.29104,58.859471)">
    <rect
       transform="matrix(0.80000001,0,0,0.80000001,-2.4979345e-6,0)"
       y="183.58041"
       x="-176.95897"
       height="12.812083"
       width="65.709496"
       id="rect3814"
       style="fill:#b9b9b9;fill-opacity:1;stroke:none" />
    <text
       transform="matrix(0.80000001,0,0,0.80000001,-2.4979345e-6,0)"
       sodipodi:linespacing="125%"
       id="text3781"
       y="192.42184"
       x="-175.97717"
       style="font-size:10.80000019px;font-style:normal;font-variant:normal;font-weight:bold;font-stretch:normal;text-indent:0;text-align:start;text-decoration:none;line-height:125%;letter-spacing:0px;word-spacing:0px;text-transform:none;direction:ltr;block-progression:tb;writing-mode:lr-tb;text-anchor:start;baseline-shift:baseline;color:#000000;fill:#000000;fill-opacity:1;fill-rule:nonzero;stroke:none;stroke-width:0.99999994px;marker:none;visibility:visible;display:inline;overflow:visible;enable-background:accumulate;font-family:Linux Libertine O;-inkscape-font-specification:Linux Libertine O Bold"
       xml:space="preserve"><tspan
         y="192.42184"
         x="-175.97717"
         id="tspan3783"
         sodipodi:role="line">12 such pairs</tspan></text>
  </g>
  <g
     id="g4626"
     transform="translate(168.05394,159.52947)">
    <rect
       y="183.44855"
       x="-129.79529"
       height="10.249667"
       width="49.015732"
       id="rect3814-6"
       style="fill:#b9b9b9;fill-opacity:1;stroke:none" />
    <text
       transform="matrix(0.80000001,0,0,0.80000001,-2.4979345e-6,0)"
       sodipodi:linespacing="125%"
       id="text3785"
       y="238.44664"
       x="-160.40996"
       style="font-size:10.80000019px;font-style:normal;font-variant:normal;font-weight:bold;font-stretch:normal;text-indent:0;text-align:start;text-decoration:none;line-height:125%;letter-spacing:0px;word-spacing:0px;text-transform:none;direction:ltr;block-progression:tb;writing-mode:lr-tb;text-anchor:start;baseline-shift:baseline;color:#000000;fill:#000000;fill-opacity:1;fill-rule:nonzero;stroke:none;stroke-width:0.99999994px;marker:none;visibility:visible;display:inline;overflow:visible;enable-background:accumulate;font-family:Linux Libertine O;-inkscape-font-specification:Linux Libertine O Bold"
       xml:space="preserve"><tspan
         y="238.44664"
         x="-160.40996"
         id="tspan3787"
         sodipodi:role="line">4 such pairs</tspan></text>
  </g>
  <g
     id="g4631"
     transform="translate(237.46752,141.26273)">
    <rect
       y="198.67081"
       x="-129.89677"
       height="8.8289213"
       width="49.726105"
       id="rect3814-4"
       style="fill:#b9b9b9;fill-opacity:1;stroke:none" />
    <text
       transform="matrix(0.80000001,0,0,0.80000001,-2.4979345e-6,0)"
       sodipodi:linespacing="125%"
       id="text3789"
       y="256.72119"
       x="-160.40996"
       style="font-size:10.80000019px;font-style:normal;font-variant:normal;font-weight:bold;font-stretch:normal;text-indent:0;text-align:start;text-decoration:none;line-height:125%;letter-spacing:0px;word-spacing:0px;text-transform:none;direction:ltr;block-progression:tb;writing-mode:lr-tb;text-anchor:start;baseline-shift:baseline;color:#000000;fill:#000000;fill-opacity:1;fill-rule:nonzero;stroke:none;stroke-width:0.99999994px;marker:none;visibility:visible;display:inline;overflow:visible;enable-background:accumulate;font-family:Linux Libertine O;-inkscape-font-specification:Linux Libertine O Bold"
       xml:space="preserve"><tspan
         y="256.72119"
         x="-160.40996"
         id="tspan3791"
         sodipodi:role="line">8 such pairs</tspan></text>
  </g>
  <g
     id="g4641"
     transform="translate(247.61571,183.88511)">
    <rect
       y="132.8091"
       x="-85.346237"
       height="19.687479"
       width="33.184563"
       id="rect3814-2"
       style="fill:#b9b9b9;fill-opacity:1;stroke:none" />
    <text
       sodipodi:linespacing="125%"
       id="text3781-1"
       y="139.64328"
       x="-69.941666"
       style="font-size:8.64000034px;font-style:normal;font-variant:normal;font-weight:bold;font-stretch:normal;text-indent:0;text-align:center;text-decoration:none;line-height:125%;letter-spacing:0px;word-spacing:0px;text-transform:none;direction:ltr;block-progression:tb;writing-mode:lr-tb;text-anchor:middle;baseline-shift:baseline;color:#000000;fill:#000000;fill-opacity:1;fill-rule:nonzero;stroke:none;stroke-width:0.99999994px;marker:none;visibility:visible;display:inline;overflow:visible;enable-background:accumulate;font-family:Linux Libertine O;-inkscape-font-specification:Linux Libertine O Bold"
       xml:space="preserve"><tspan
         y="139.64328"
         x="-69.941666"
         id="tspan3783-4"
         sodipodi:role="line">12 such</tspan><tspan
         id="tspan4639"
         y="150.44328"
         x="-69.941666"
         sodipodi:role="line">pairs</tspan></text>
  </g>
</svg>
