<?xml version="1.0" encoding="UTF-8" standalone="no"?>
<svg
   xmlns:dc="http://purl.org/dc/elements/1.1/"
   xmlns:cc="http://creativecommons.org/ns#"
   xmlns:rdf="http://www.w3.org/1999/02/22-rdf-syntax-ns#"
   xmlns:svg="http://www.w3.org/2000/svg"
   xmlns="http://www.w3.org/2000/svg"
   xmlns:sodipodi="http://sodipodi.sourceforge.net/DTD/sodipodi-0.dtd"
   xmlns:inkscape="http://www.inkscape.org/namespaces/inkscape"
   version="1.0"
   width="394.560000pt"
   height="372.480000pt"
   viewBox="0 0 394.560000 372.480000"
   preserveAspectRatio="xMidYMid meet"
   id="svg2"
   sodipodi:docname="field-lines.svg">
  <defs
     id="defs12" />
  <sodipodi:namedview
     pagecolor="#ffffff"
     bordercolor="#666666"
     borderopacity="1"
     objecttolerance="10"
     gridtolerance="10"
     guidetolerance="10"
     inkscape:pageopacity="0"
     inkscape:pageshadow="2"
     inkscape:window-width="1255"
     inkscape:window-height="827"
     id="namedview10"
     showgrid="false"
     inkscape:zoom="7.1371663"
     inkscape:cx="440.28445"
     inkscape:cy="60.637978"
     inkscape:window-x="0"
     inkscape:window-y="0"
     inkscape:window-maximized="0"
     inkscape:current-layer="svg2" />
  <metadata
     id="metadata4">
Created by potrace 1.10, written by Peter Selinger 2001-2011
<rdf:RDF>
  <cc:Work
     rdf:about="">
    <dc:format>image/svg+xml</dc:format>
    <dc:type
       rdf:resource="http://purl.org/dc/dcmitype/StillImage" />
    <dc:title />
  </cc:Work>
</rdf:RDF>
</metadata>
  <g
     transform="translate(0.000000,372.480000) scale(0.024000,-0.024000)"
     fill="#b9b9b9"
     stroke="none"
     id="g6">
    <path
       d="M0 13587 c0 -1068 4 -1946 9 -1963 5 -16 23 -44 40 -61 17 -17 31 -41 31 -52 0 -12 9 -26 21 -33 11 -7 28 -29 37 -48 9 -19 29 -47 44 -62 15 -14 28 -35 28 -45 0 -11 12 -29 26 -42 14 -12 32 -37 39 -55 7 -17 30 -49 49 -71 20 -21 36 -47 36 -56 0 -9 11 -24 25 -33 14 -9 25 -26 25 -37 0 -12 14 -34 30 -49 17 -16 36 -41 43 -58 6 -16 27 -41 45 -56 18 -16 32 -37 32 -50 0 -12 16 -37 35 -56 19 -19 35 -42 35 -52 0 -10 16 -32 35 -49 19 -18 35 -39 35 -48 0 -9 13 -28 29 -42 17 -15 33 -38 37 -53 3 -14 10 -26 15 -26 5 0 9 -6 9 -13 0 -7 14 -23 30 -35 19 -14 30 -32 30 -46 0 -15 13 -33 35 -51 22 -16 38 -39 42 -56 3 -17 23 -46 44 -66 22 -21 39 -44 39 -53 0 -9 14 -30 30 -46 17 -16 46 -52 66 -81 19 -28 41 -54 49 -57 8 -3 19 -23 25 -45 6 -24 22 -48 38 -60 15 -10 36 -36 47 -58 11 -21 32 -48 47 -61 14 -12 36 -41 48 -64 12 -23 37 -58 56 -77 19 -20 37 -44 40 -55 4 -11 24 -38 46 -60 22 -23 48 -57 57 -77 9 -19 32 -50 52 -67 21 -18 39 -45 43 -63 4 -19 13 -33 26 -36 11 -3 20 -9 20 -13 0 -4 16 -24 35 -43 19 -19 35 -43 35 -53 1 -20 22 -54 34 -54 15 0 75 -64 87 -93 7 -16 41 -59 77 -94 35 -36 70 -79 78 -97 16 -37 48 -76 62 -76 6 0 14 -9 17 -20 3 -11 12 -20 19 -20 8 0 19 -13 25 -28 6 -15 43 -60 81 -100 38 -39 77 -88 87 -109 9 -21 29 -47 43 -58 59 -46 180 -191 180 -215 0 -6 4 -10 9 -10 14 0 141 -130 167 -172 22 -35 117 -139 244 -269 30 -31 84 -93 120 -138 99 -125 626 -648 753 -747 48 -37 60 -69 31 -81 -11 -4 -66 45 -190 171 -95 97 -177 176 -182 176 -12 0 -92 84 -92 97 0 7 -9 14 -19 18 -11 3 -26 16 -34 29 -8 12 -56 64 -106 115 -50 51 -91 97 -91 102 0 5 -6 9 -12 9 -16 0 -266 256 -328 335 -25 32 -88 104 -140 160 -90 98 -140 157 -140 168 0 3 -32 36 -71 74 -39 37 -79 84 -89 103 -10 19 -50 67 -89 105 -39 38 -71 74 -71 81 0 6 -7 17 -15 24 -8 7 -15 21 -15 31 0 11 -4 19 -10 19 -22 0 -99 86 -126 140 -16 33 -34 60 -39 60 -16 0 -95 84 -95 100 0 9 -9 21 -20 28 -11 7 -20 17 -20 22 0 6 -17 26 -39 45 -21 19 -45 50 -52 68 -7 17 -34 54 -61 80 -26 26 -48 52 -48 57 0 16 -54 89 -66 90 -14 0 -54 55 -54 74 0 8 -18 32 -41 53 -22 20 -48 53 -57 73 -9 19 -34 51 -54 71 -21 20 -38 44 -38 53 0 9 -23 39 -50 66 -30 29 -53 62 -56 80 -4 16 -10 30 -15 30 -17 0 -57 47 -68 81 -6 19 -25 45 -41 58 -16 12 -39 40 -51 63 -12 23 -32 50 -45 61 -13 10 -24 27 -24 38 0 11 -20 41 -45 67 -25 25 -45 53 -45 61 -1 20 -19 42 -45 57 -11 6 -25 26 -31 45 -6 18 -25 47 -43 64 -17 17 -31 39 -31 48 0 10 -7 20 -15 23 -8 4 -15 11 -15 16 0 6 -11 19 -24 29 -14 11 -27 32 -31 48 -3 15 -19 38 -35 50 -17 12 -30 30 -30 41 0 11 -15 35 -34 53 -18 19 -37 45 -41 58 -4 13 -23 39 -41 57 -19 18 -34 41 -34 50 0 9 -14 30 -30 46 -17 16 -30 37 -30 46 0 10 -16 32 -35 51 -19 19 -35 42 -35 51 0 10 -16 32 -35 49 -21 19 -37 45 -41 65 -3 19 -12 34 -19 34 -18 0 -45 34 -45 56 0 21 -34 64 -50 64 -5 0 -13 12 -17 27 -3 16 -19 41 -35 57 -16 16 -32 41 -35 56 -3 17 -22 42 -44 60 l-39 31 0 -1105 0 -1105 27 -15 c16 -8 52 -40 82 -71 29 -31 69 -64 88 -72 20 -8 61 -41 92 -74 34 -35 65 -59 77 -59 13 0 43 -24 77 -60 32 -35 63 -60 75 -60 12 0 39 -21 64 -50 24 -27 60 -58 79 -67 43 -21 99 -68 99 -82 0 -5 17 -15 38 -22 20 -7 57 -32 82 -57 25 -24 59 -50 76 -58 17 -7 47 -31 67 -53 20 -23 45 -41 55 -41 10 0 38 -20 62 -45 24 -25 50 -45 58 -45 8 0 29 -15 47 -32 37 -37 60 -54 91 -67 12 -5 30 -21 41 -35 11 -14 31 -28 44 -31 25 -6 89 -59 89 -73 0 -4 17 -14 38 -21 20 -8 54 -29 75 -47 20 -19 44 -34 52 -34 8 0 19 -9 25 -20 6 -11 23 -27 38 -35 72 -41 88 -53 97 -73 6 -14 19 -22 34 -22 14 0 37 -11 51 -25 15 -14 42 -34 61 -44 19 -10 38 -27 44 -39 5 -12 22 -23 42 -27 17 -3 45 -19 60 -35 15 -17 34 -30 41 -30 8 0 33 -16 56 -35 24 -19 48 -35 53 -35 5 0 18 -9 28 -20 10 -11 27 -22 39 -26 11 -4 37 -20 56 -35 19 -16 39 -29 45 -29 6 0 26 -13 45 -30 18 -16 42 -33 53 -36 11 -4 30 -15 41 -26 12 -11 35 -27 53 -34 18 -8 36 -19 40 -26 4 -7 24 -21 43 -31 67 -35 101 -55 118 -70 9 -8 31 -21 47 -29 72 -37 108 -58 124 -71 9 -7 28 -18 44 -25 15 -6 27 -16 27 -21 0 -5 12 -12 27 -16 16 -4 33 -11 39 -16 6 -5 37 -23 70 -40 32 -17 68 -40 80 -50 11 -10 27 -19 35 -19 8 0 25 -9 39 -20 14 -11 31 -20 37 -20 7 0 18 -9 25 -20 7 -11 23 -20 35 -20 12 0 24 -4 28 -9 3 -5 49 -32 103 -59 209 -107 242 -127 242 -144 0 -10 -6 -18 -12 -18 -16 0 -287 137 -308 155 -8 7 -25 16 -36 19 -12 4 -29 15 -39 26 -10 11 -24 20 -31 20 -14 0 -98 43 -120 61 -8 6 -40 24 -71 40 -32 16 -78 43 -103 59 -25 16 -58 37 -75 46 -16 8 -52 29 -80 44 -27 16 -64 36 -81 44 -17 8 -36 22 -44 30 -7 9 -19 16 -27 16 -8 0 -28 11 -45 25 -16 14 -36 25 -43 25 -7 0 -25 14 -38 30 -14 17 -33 30 -42 30 -9 0 -31 11 -49 25 -18 14 -39 25 -48 25 -8 0 -27 14 -43 30 -16 17 -36 30 -45 30 -9 0 -25 9 -35 20 -10 11 -27 22 -39 26 -11 4 -38 22 -59 40 -20 19 -43 34 -51 34 -7 0 -19 7 -27 16 -7 8 -29 24 -49 34 -20 10 -48 30 -61 44 -13 14 -30 26 -36 26 -7 0 -30 16 -52 35 -21 19 -45 35 -53 35 -8 0 -25 11 -37 24 -12 13 -39 31 -60 41 -21 9 -44 28 -51 41 -7 13 -26 26 -44 30 -17 3 -46 22 -64 40 -18 19 -38 34 -44 34 -5 0 -31 17 -57 39 -25 21 -60 46 -78 54 -17 9 -40 27 -50 40 -10 14 -30 28 -43 32 -14 4 -41 25 -61 45 -20 20 -47 40 -61 43 -14 4 -42 25 -62 47 -20 22 -44 40 -53 40 -10 0 -38 20 -63 45 -25 24 -52 44 -61 45 -10 0 -30 15 -46 33 -16 17 -46 41 -68 52 -21 11 -50 33 -63 48 -14 15 -41 36 -61 47 -21 10 -54 37 -75 60 -20 23 -59 53 -87 66 -27 14 -49 29 -49 34 0 17 -73 80 -92 80 -17 0 -33 14 -96 83 -10 10 -33 25 -52 33 -39 17 -80 52 -80 69 0 16 -33 41 -83 64 -45 20 -63 37 -82 74 -5 11 -32 32 -59 46 -28 14 -64 38 -80 54 l-31 27 -3 -737 c-1 -406 0 -743 2 -749 3 -7 29 -19 58 -29 29 -9 62 -20 73 -25 11 -5 54 -21 95 -35 90 -33 104 -38 150 -58 19 -9 67 -25 105 -37 39 -12 78 -26 87 -31 10 -5 27 -9 37 -9 11 0 23 -4 26 -10 3 -5 13 -10 22 -10 8 0 29 -7 46 -14 18 -8 77 -29 132 -46 55 -17 109 -35 120 -40 11 -5 65 -23 120 -40 55 -18 111 -37 125 -42 55 -23 68 -27 140 -48 41 -12 89 -28 107 -36 17 -8 40 -14 50 -14 10 0 23 -4 28 -8 6 -5 37 -17 70 -26 33 -10 83 -26 110 -36 80 -29 228 -70 250 -70 12 0 25 -4 30 -8 6 -5 37 -17 70 -26 33 -10 69 -21 80 -26 11 -4 52 -16 90 -25 39 -9 87 -23 108 -31 20 -8 54 -18 75 -23 88 -22 236 -62 352 -96 135 -40 250 -71 317 -85 23 -5 136 -32 250 -60 114 -28 231 -55 258 -61 28 -6 64 -14 80 -19 17 -4 47 -11 68 -15 40 -6 59 -31 36 -45 -7 -5 -20 -5 -28 -1 -9 4 -43 13 -76 20 -92 19 -194 42 -255 58 -30 9 -84 22 -120 30 -36 8 -81 18 -100 23 -19 5 -60 16 -90 23 -30 7 -62 16 -70 19 -8 4 -33 9 -55 13 -22 3 -58 12 -80 20 -22 7 -74 21 -115 30 -41 9 -90 23 -108 31 -19 8 -46 14 -61 14 -14 0 -57 11 -95 25 -38 14 -80 25 -93 25 -13 0 -31 4 -41 9 -9 6 -51 20 -92 31 -41 12 -111 32 -155 45 -44 13 -123 36 -175 50 -52 14 -102 30 -110 34 -9 5 -31 12 -50 16 -19 4 -41 11 -50 15 -8 4 -49 18 -90 30 -41 12 -89 28 -105 35 -17 7 -46 15 -65 19 -19 4 -44 11 -55 16 -11 5 -135 47 -275 94 -290 97 -367 123 -395 136 -44 19 -161 60 -173 60 -7 0 -22 5 -35 12 -41 21 -53 25 -87 33 -34 8 -46 12 -87 33 -13 7 -30 12 -38 12 -8 0 -23 4 -33 9 -26 13 -65 29 -87 35 -43 11 -138 46 -149 55 -6 5 -26 12 -43 16 l-33 7 0 -604 0 -605 403 3 c1251 9 3261 13 3315 8 42 -5 62 -11 62 -20 0 -11 -20 -14 -87 -14 -2019 -7 -3349 -11 -3500 -11 l-193 1 0 -630 0 -630 37 17 c87 37 220 83 243 83 10 0 20 7 24 15 3 8 14 15 25 15 11 0 22 4 26 9 3 6 26 13 50 17 25 3 48 10 51 15 3 5 16 9 29 9 12 0 25 7 29 15 3 8 12 15 21 15 15 0 119 38 218 79 35 16 117 41 129 41 6 0 19 7 28 15 9 9 44 21 76 27 32 7 62 18 66 24 4 6 25 15 45 19 21 4 55 15 77 26 22 10 45 19 51 19 6 0 30 9 53 20 22 11 45 20 50 20 11 0 131 38 157 50 11 5 65 23 120 41 55 17 111 36 125 41 14 6 34 14 45 19 11 5 47 16 80 25 103 28 172 49 240 74 34 13 77 27 170 55 50 14 117 35 150 46 61 21 208 63 345 100 74 19 115 33 155 49 11 5 40 13 65 19 25 5 99 24 165 41 66 18 139 36 163 41 24 5 48 12 54 15 6 4 38 13 72 20 104 22 199 45 246 60 64 20 90 18 90 -6 0 -11 -6 -22 -12 -24 -18 -5 -275 -66 -323 -76 -56 -13 -111 -26 -175 -44 -30 -8 -95 -26 -145 -39 -49 -14 -124 -34 -165 -47 -41 -12 -122 -34 -180 -50 -58 -16 -143 -41 -190 -55 -81 -26 -121 -38 -227 -69 -63 -18 -144 -46 -165 -57 -10 -5 -26 -9 -35 -9 -10 0 -35 -6 -58 -14 -22 -8 -87 -29 -145 -47 -58 -18 -109 -35 -115 -39 -5 -4 -26 -11 -45 -14 -19 -4 -44 -11 -55 -16 -17 -8 -127 -44 -340 -113 -84 -26 -203 -71 -236 -87 -9 -5 -34 -12 -55 -16 -22 -3 -46 -12 -54 -20 -8 -7 -17 -13 -20 -13 -27 -3 -71 -15 -75 -21 -3 -5 -14 -6 -25 -3 -11 3 -20 0 -20 -6 0 -6 -8 -11 -18 -11 -10 0 -23 -5 -30 -12 -7 -7 -75 -33 -153 -59 -78 -26 -146 -52 -152 -58 -6 -6 -19 -11 -28 -11 -10 0 -20 -4 -23 -9 -3 -5 -21 -12 -39 -15 -18 -3 -51 -15 -72 -26 -22 -11 -49 -20 -61 -20 -12 0 -24 -4 -26 -9 -3 -9 -132 -58 -178 -68 -14 -3 -32 -12 -41 -20 -9 -8 -33 -17 -53 -20 l-36 -6 0 -748 c0 -870 -12 -802 115 -674 41 41 79 75 85 75 5 0 20 11 34 25 14 14 28 25 32 25 4 0 22 18 41 39 18 22 48 45 67 51 20 6 54 34 84 68 27 31 67 66 88 77 22 10 58 41 82 67 24 26 50 48 57 48 8 0 40 23 72 51 32 28 77 60 100 71 24 11 43 24 43 29 0 16 46 58 71 64 29 7 73 44 82 68 4 10 26 27 49 37 24 10 58 37 77 59 19 22 48 46 65 53 17 7 47 29 68 50 21 21 44 38 51 38 7 0 30 18 51 39 21 22 50 42 64 46 14 3 43 26 65 51 21 24 45 44 53 44 8 0 37 20 63 45 26 25 54 45 61 45 7 0 32 18 56 40 24 22 50 40 57 40 7 0 28 16 47 35 19 19 40 35 47 35 7 0 30 15 50 32 21 18 54 42 73 52 19 11 44 28 54 38 11 10 26 18 33 18 8 0 26 12 41 26 15 14 41 32 57 41 17 9 45 29 63 44 18 16 38 29 45 29 8 0 26 14 42 30 16 17 36 30 45 30 9 0 27 11 40 25 13 14 29 25 36 25 7 0 25 11 41 24 15 13 42 31 58 40 44 24 66 38 105 67 19 15 46 30 60 34 14 4 31 16 38 26 6 9 27 23 46 29 19 6 37 17 40 25 3 8 14 15 24 15 11 0 32 10 47 22 30 23 68 46 120 71 17 7 36 21 44 30 7 10 19 17 26 17 7 0 24 9 39 21 14 11 52 34 84 51 31 17 64 37 73 44 8 8 22 14 29 14 7 0 21 6 29 14 9 7 61 37 116 66 55 29 105 56 111 61 33 27 168 90 180 85 31 -12 7 -41 -61 -77 -174 -93 -214 -114 -270 -142 -33 -17 -68 -36 -77 -44 -9 -8 -30 -22 -46 -31 -16 -9 -64 -37 -106 -62 -43 -25 -92 -53 -110 -62 -18 -9 -38 -23 -45 -32 -8 -9 -21 -16 -31 -16 -9 0 -25 -9 -35 -20 -10 -11 -26 -20 -36 -20 -10 0 -31 -11 -47 -25 -17 -14 -34 -25 -39 -25 -6 0 -18 -9 -28 -20 -10 -11 -27 -23 -39 -26 -11 -4 -35 -17 -52 -30 -17 -13 -35 -24 -40 -24 -6 0 -25 -13 -44 -30 -19 -16 -39 -29 -43 -30 -5 0 -23 -11 -41 -25 -18 -14 -38 -25 -44 -25 -6 0 -27 -14 -45 -30 -19 -17 -39 -30 -45 -30 -6 0 -23 -11 -39 -24 -15 -13 -38 -26 -49 -30 -12 -4 -38 -22 -57 -41 -20 -19 -43 -35 -53 -35 -9 0 -25 -11 -35 -24 -11 -14 -33 -28 -51 -31 -17 -4 -42 -20 -56 -36 -13 -16 -29 -29 -36 -29 -7 0 -28 -15 -47 -32 -19 -18 -52 -42 -73 -53 -21 -11 -45 -30 -53 -42 -9 -13 -24 -23 -34 -23 -10 0 -36 -15 -56 -33 -21 -18 -76 -60 -123 -92 -46 -33 -98 -71 -115 -86 -16 -14 -46 -31 -67 -38 -25 -8 -38 -19 -42 -36 -4 -17 -23 -33 -56 -50 -27 -14 -59 -38 -71 -55 -12 -16 -35 -32 -52 -36 -16 -3 -44 -22 -61 -42 -17 -19 -47 -42 -67 -51 -19 -9 -50 -33 -68 -54 -21 -23 -42 -37 -56 -37 -16 0 -36 -15 -60 -45 -22 -26 -59 -55 -91 -71 -30 -14 -54 -32 -54 -38 0 -19 -50 -61 -97 -82 -23 -10 -43 -24 -43 -31 0 -15 -70 -73 -89 -73 -7 0 -38 -25 -69 -56 -30 -30 -75 -65 -99 -76 -24 -11 -52 -32 -63 -47 -35 -46 -74 -81 -93 -81 -10 0 -20 -7 -23 -15 -4 -8 -10 -15 -15 -15 -6 0 -35 -27 -66 -60 -30 -33 -62 -60 -69 -60 -14 0 -27 -10 -107 -83 l-37 -35 0 -1161 c0 -1027 2 -1160 15 -1155 8 4 15 14 15 25 0 10 9 23 19 29 11 5 24 25 30 43 6 18 27 49 46 67 21 20 35 44 35 58 0 15 7 26 19 29 11 3 21 17 25 33 3 16 21 44 41 64 19 19 35 43 35 53 0 10 11 27 25 37 14 10 25 27 25 37 0 11 5 19 10 19 6 0 10 5 10 10 0 6 11 22 24 35 13 13 27 37 31 53 3 16 19 38 35 50 15 12 31 35 35 51 3 16 19 40 36 53 16 13 29 28 29 35 0 22 23 63 36 63 6 0 17 14 23 31 6 18 24 45 41 60 16 16 30 37 30 47 0 10 16 32 35 51 20 19 35 42 35 55 0 13 13 34 28 47 16 13 36 40 45 59 9 19 28 45 41 58 14 12 28 36 31 53 4 16 20 39 36 51 16 12 33 36 39 54 6 18 27 45 46 60 19 15 34 37 34 48 1 22 52 86 70 86 5 0 10 11 10 25 0 15 9 30 21 37 11 7 31 36 44 64 13 29 37 62 54 75 17 12 31 31 31 42 0 10 18 36 39 58 22 21 49 59 60 84 11 26 30 50 44 56 15 7 27 23 30 38 3 15 24 46 46 69 22 23 43 53 47 67 3 13 23 40 44 59 21 19 41 44 45 55 3 11 33 53 66 93 32 40 59 77 59 83 0 5 20 28 44 51 25 22 52 59 61 80 18 43 72 104 91 104 7 0 17 16 23 36 6 20 35 62 70 100 34 36 61 71 61 78 0 7 29 41 65 75 36 33 65 68 65 76 0 9 28 46 63 83 34 37 78 90 97 117 18 28 67 85 107 128 40 43 73 83 73 89 0 5 36 47 79 92 43 45 95 107 114 137 19 30 76 94 126 143 50 49 91 91 91 94 0 2 10 14 23 26 12 12 42 46 67 76 64 77 226 245 532 553 259 260 308 299 308 249 0 -17 -138 -165 -217 -232 -76 -65 -138 -127 -188 -186 -27 -32 -144 -156 -261 -274 -265 -269 -314 -322 -314 -338 0 -7 -44 -59 -98 -115 -55 -56 -110 -118 -123 -139 -14 -20 -63 -78 -109 -128 -47 -51 -91 -104 -99 -119 -8 -14 -45 -58 -82 -98 -38 -40 -79 -90 -93 -111 -14 -22 -41 -53 -61 -69 -20 -17 -45 -47 -57 -69 -11 -21 -47 -68 -79 -103 -33 -35 -59 -70 -59 -77 0 -6 -22 -32 -48 -56 -27 -23 -51 -50 -55 -58 -24 -51 -58 -97 -81 -108 -17 -8 -36 -34 -51 -65 -13 -29 -35 -63 -50 -77 -15 -14 -47 -55 -72 -92 -24 -37 -52 -70 -62 -73 -10 -3 -21 -18 -24 -33 -3 -15 -24 -46 -45 -70 -22 -23 -47 -57 -56 -76 -8 -18 -34 -48 -56 -66 -25 -20 -40 -41 -40 -55 0 -13 -18 -37 -45 -62 -26 -23 -45 -49 -45 -61 0 -11 -12 -30 -26 -41 -14 -11 -36 -41 -49 -68 -13 -26 -39 -63 -59 -81 -20 -19 -36 -40 -36 -48 0 -8 -16 -30 -35 -48 -19 -19 -35 -44 -35 -55 0 -11 -13 -30 -30 -43 -16 -12 -30 -28 -30 -35 0 -7 -4 -13 -10 -13 -5 0 -10 -8 -10 -17 0 -9 -14 -31 -31 -48 -18 -17 -37 -46 -43 -64 -6 -19 -20 -39 -31 -45 -29 -16 -44 -38 -45 -63 0 -11 -12 -32 -28 -45 -15 -12 -33 -37 -40 -54 -8 -18 -26 -44 -42 -59 -16 -15 -32 -40 -35 -56 -4 -15 -22 -39 -41 -54 -22 -17 -34 -34 -34 -50 0 -15 -10 -31 -25 -41 -14 -9 -25 -25 -25 -36 0 -10 -11 -30 -25 -44 -14 -14 -25 -29 -25 -34 0 -6 -4 -10 -10 -10 -5 0 -10 -8 -10 -19 0 -10 -18 -36 -40 -57 -22 -22 -40 -47 -40 -57 0 -10 -11 -28 -25 -41 -14 -13 -25 -28 -25 -35 0 -6 -4 -11 -10 -11 -5 0 -10 -7 -10 -15 0 -8 -4 -15 -10 -15 -5 0 -10 -6 -10 -14 0 -8 -6 -16 -14 -19 -7 -3 -17 -18 -20 -33 -4 -15 -21 -41 -37 -58 -16 -16 -29 -40 -29 -51 0 -13 -13 -32 -29 -45 -17 -12 -33 -35 -36 -51 -4 -16 -13 -29 -21 -29 -8 0 -14 -7 -14 -15 0 -8 -4 -15 -10 -15 -5 0 -10 -9 -10 -20 0 -11 -13 -34 -29 -51 -17 -17 -33 -44 -36 -60 -4 -16 -13 -29 -20 -29 -22 0 -36 -35 -26 -63 8 -20 6 -30 -10 -48 -18 -21 -19 -42 -19 -616 l0 -593 7248 0 c6340 1 7242 3 7207 15 -53 20 -153 45 -218 55 -28 5 -72 14 -97 20 -25 7 -79 18 -120 25 -41 8 -95 19 -120 25 -25 6 -97 13 -160 16 -63 3 -117 10 -118 15 -9 23 -34 37 -79 42 -49 7 -142 26 -268 54 -38 9 -92 20 -120 24 -50 8 -141 26 -285 56 -41 8 -96 16 -122 18 -26 2 -52 6 -58 10 -6 4 -48 13 -93 21 -45 8 -102 19 -127 24 -42 8 -203 37 -260 45 -14 3 -68 13 -120 24 -150 30 -311 62 -365 71 -27 5 -87 16 -132 25 -46 8 -118 21 -160 29 -43 8 -87 17 -98 20 -11 3 -72 15 -135 26 -63 12 -140 27 -170 35 -30 7 -91 21 -135 30 -113 24 -323 69 -440 95 -55 13 -120 27 -145 32 -53 12 -67 15 -270 63 -85 20 -171 40 -190 45 -19 4 -107 27 -195 50 -88 23 -187 48 -220 55 -33 8 -85 21 -115 30 -86 26 -109 32 -200 55 -47 11 -123 34 -170 50 -47 16 -106 32 -130 36 -25 4 -54 13 -65 19 -11 7 -42 18 -70 25 -50 12 -86 24 -205 65 -36 13 -90 30 -120 40 -30 9 -64 20 -75 25 -11 4 -42 16 -70 25 -27 10 -72 28 -100 40 -27 13 -66 26 -85 30 -19 4 -42 13 -50 19 -8 7 -31 18 -50 26 -19 7 -60 24 -90 38 -62 28 -108 48 -130 56 -8 4 -29 15 -46 25 -57 35 -129 71 -140 71 -6 0 -17 7 -24 15 -7 8 -20 15 -30 15 -9 0 -25 9 -35 20 -10 11 -26 20 -37 20 -10 0 -27 9 -38 20 -11 11 -27 20 -35 20 -9 0 -28 8 -43 18 -79 54 -114 75 -144 86 -18 7 -55 22 -81 34 -27 12 -53 22 -58 22 -5 0 -15 15 -23 33 -14 34 -59 77 -80 77 -7 0 -25 14 -42 31 -16 17 -45 39 -64 49 -19 10 -58 40 -85 67 -28 26 -65 58 -82 69 -18 11 -65 51 -105 90 -40 39 -100 91 -133 116 -70 53 -291 274 -333 333 -16 22 -72 85 -124 140 -52 55 -102 114 -111 130 -8 17 -38 53 -66 80 -28 28 -51 56 -51 63 0 7 -20 34 -44 60 -24 26 -53 65 -64 88 -11 22 -28 46 -37 54 -8 7 -29 34 -46 59 -17 25 -37 49 -44 54 -8 4 -17 21 -20 38 -4 17 -22 45 -41 61 -19 17 -34 38 -34 47 0 10 -11 28 -25 41 -14 13 -25 29 -25 36 0 7 -11 26 -25 42 -14 17 -25 34 -25 40 0 5 -13 26 -30 47 -16 21 -30 43 -30 50 0 6 -9 20 -20 30 -11 10 -20 26 -20 36 0 10 -6 24 -14 31 -14 15 -19 23 -109 189 -29 53 -57 103 -63 110 -6 8 -30 52 -53 99 -23 47 -46 92 -50 100 -19 33 -71 150 -71 159 0 5 -7 14 -15 21 -8 7 -15 18 -15 25 0 7 -22 60 -50 118 -27 58 -50 110 -50 117 0 7 -7 24 -15 38 -15 27 -108 254 -160 387 -14 39 -30 79 -34 90 -50 124 -97 252 -131 355 -22 69 -45 139 -50 156 -6 17 -8 38 -4 47 5 13 9 13 30 -6 13 -11 24 -26 24 -32 0 -6 15 -56 34 -111 65 -188 117 -336 125 -353 24 -48 51 -113 51 -122 0 -6 11 -34 24 -62 13 -29 27 -63 31 -77 4 -14 23 -58 41 -98 19 -40 34 -76 34 -80 0 -4 11 -29 25 -57 13 -27 25 -56 25 -64 0 -8 6 -22 13 -30 12 -14 20 -33 59 -131 6 -14 14 -32 19 -40 5 -8 12 -22 15 -30 27 -65 53 -122 73 -160 60 -113 72 -136 81 -150 5 -8 27 -53 50 -100 22 -47 52 -103 65 -125 26 -44 53 -89 90 -150 13 -22 29 -51 35 -64 6 -13 22 -37 35 -53 14 -16 25 -35 25 -42 0 -7 9 -21 20 -31 11 -10 20 -23 20 -30 0 -11 35 -70 91 -152 16 -23 29 -47 29 -53 0 -7 11 -21 25 -32 14 -11 33 -34 42 -51 8 -18 31 -49 49 -70 19 -20 34 -43 34 -51 0 -8 18 -32 39 -54 22 -22 46 -52 54 -68 8 -16 33 -49 54 -74 22 -25 46 -57 54 -72 16 -31 107 -128 120 -128 5 0 18 -19 30 -42 27 -53 499 -532 585 -593 34 -24 89 -71 123 -105 34 -33 68 -60 77 -60 9 0 37 -21 63 -46 25 -26 61 -53 79 -60 17 -8 32 -18 32 -23 0 -4 17 -16 37 -27 21 -10 43 -24 50 -30 6 -6 23 -9 37 -7 21 4 42 -9 113 -70 144 -125 160 -137 176 -137 9 0 19 -5 23 -11 3 -6 25 -20 48 -30 22 -11 48 -24 56 -29 8 -5 22 -11 30 -15 8 -3 33 -17 55 -30 22 -14 74 -41 115 -60 41 -20 101 -49 133 -66 31 -16 62 -29 69 -29 6 0 34 -11 62 -25 28 -13 85 -38 126 -55 41 -17 84 -35 95 -40 11 -4 36 -13 55 -20 19 -7 44 -16 55 -20 11 -4 36 -13 55 -20 19 -7 44 -16 55 -20 11 -5 52 -18 90 -31 39 -12 90 -30 115 -39 77 -29 112 -41 195 -61 44 -11 89 -24 100 -29 39 -16 181 -58 220 -65 22 -4 46 -12 52 -17 12 -9 223 -68 318 -88 53 -11 120 -29 175 -45 25 -8 89 -23 142 -35 54 -12 100 -25 103 -29 2 -5 28 -11 57 -15 29 -4 67 -11 83 -16 38 -12 284 -68 351 -80 27 -5 65 -13 84 -18 109 -31 155 -43 202 -51 121 -22 228 -44 305 -62 45 -10 95 -19 111 -19 15 0 32 -4 38 -9 5 -5 52 -17 104 -25 52 -8 115 -20 140 -26 56 -13 120 -25 232 -44 47 -8 95 -17 106 -20 11 -4 46 -11 79 -17 32 -6 92 -17 133 -25 70 -13 169 -31 300 -54 84 -14 190 -35 355 -68 83 -16 157 -30 165 -31 24 0 221 -40 261 -52 20 -6 43 -9 50 -7 8 3 28 1 44 -4 17 -5 44 -11 60 -14 17 -3 80 -15 140 -29 61 -13 137 -28 170 -35 33 -6 84 -15 113 -21 44 -8 58 -7 82 7 27 17 30 16 132 -25 57 -23 149 -51 203 -62 110 -23 305 -65 375 -80 25 -6 59 -12 75 -14 32 -3 127 -26 209 -51 26 -8 60 -15 75 -16 14 -1 -26 -5 -89 -8 -63 -3 323 -7 858 -8 l972 -2 0 7760 0 7760 -3260 0 c-3247 0 -3259 0 -3270 -20 -6 -11 -27 -29 -48 -40 -56 -32 -100 -62 -142 -97 -20 -18 -42 -33 -48 -33 -6 0 -27 -13 -45 -30 -19 -16 -39 -30 -43 -30 -5 0 -34 -20 -65 -44 -31 -24 -70 -51 -87 -60 -17 -9 -35 -22 -39 -29 -4 -8 -29 -26 -54 -40 -25 -15 -54 -36 -64 -47 -10 -11 -24 -20 -30 -20 -7 0 -30 -17 -51 -37 -22 -21 -51 -43 -65 -49 -14 -7 -47 -30 -73 -53 -26 -23 -51 -41 -57 -41 -5 0 -34 -22 -64 -50 -30 -27 -59 -50 -65 -50 -5 0 -26 -17 -47 -39 -22 -21 -54 -46 -73 -56 -19 -10 -57 -38 -84 -64 -28 -26 -69 -59 -91 -74 -22 -14 -60 -47 -85 -72 -24 -25 -49 -45 -55 -45 -6 0 -45 -31 -86 -68 -41 -37 -87 -76 -103 -86 -16 -10 -65 -52 -107 -94 -43 -41 -97 -88 -121 -105 -24 -16 -84 -70 -134 -119 -50 -49 -107 -99 -127 -111 -20 -12 -58 -43 -84 -68 -26 -25 -56 -48 -66 -52 -9 -4 -20 -15 -24 -24 -9 -23 -368 -383 -382 -383 -6 0 -11 -6 -11 -14 0 -8 -16 -28 -35 -45 -19 -17 -35 -33 -35 -35 0 -17 -66 -96 -173 -205 -67 -69 -130 -142 -141 -161 -10 -19 -41 -58 -70 -87 -51 -51 -70 -75 -83 -103 -3 -8 -28 -39 -55 -69 -27 -29 -56 -67 -65 -85 -8 -17 -30 -45 -49 -63 -18 -18 -40 -46 -49 -64 -10 -17 -35 -50 -56 -72 -21 -23 -39 -46 -39 -53 0 -6 -16 -32 -35 -57 -19 -25 -35 -51 -35 -57 0 -5 -4 -18 -9 -28 -5 -9 -18 -36 -28 -59 -10 -23 -25 -43 -33 -43 -21 -1 -107 -85 -115 -112 -4 -13 -17 -34 -30 -48 -12 -14 -30 -39 -39 -57 -8 -17 -27 -40 -41 -51 -14 -11 -25 -28 -25 -39 0 -24 -27 -63 -44 -63 -8 0 -16 -14 -20 -31 -3 -17 -19 -44 -36 -60 -16 -17 -30 -39 -30 -49 0 -10 -11 -27 -25 -38 -14 -11 -28 -34 -31 -50 -3 -17 -17 -41 -30 -53 -13 -12 -24 -28 -24 -35 0 -7 -11 -25 -23 -41 -13 -15 -30 -40 -38 -54 -57 -107 -70 -128 -79 -134 -5 -3 -10 -14 -10 -24 0 -10 -9 -26 -20 -36 -11 -10 -34 -46 -51 -79 -17 -33 -39 -71 -50 -84 -10 -14 -19 -31 -19 -38 0 -8 -9 -19 -20 -26 -11 -7 -20 -20 -20 -28 0 -14 -11 -36 -78 -160 -11 -19 -34 -62 -51 -95 -18 -33 -36 -67 -41 -75 -5 -8 -32 -64 -60 -125 -29 -60 -56 -117 -61 -125 -5 -8 -20 -39 -35 -67 -14 -29 -30 -53 -35 -53 -5 0 -9 -13 -9 -29 0 -17 -4 -33 -10 -36 -5 -3 -10 -13 -10 -22 0 -9 -6 -24 -14 -32 -8 -9 -21 -37 -30 -63 -9 -26 -20 -56 -25 -65 -8 -16 -20 -48 -23 -63 -1 -3 -12 -26 -25 -51 -13 -26 -23 -52 -23 -58 0 -7 -7 -22 -16 -35 -14 -22 -26 -53 -104 -268 -16 -46 -34 -92 -39 -103 -18 -39 -160 -494 -206 -660 -9 -33 -20 -74 -26 -91 -5 -17 -9 -38 -9 -47 0 -9 -7 -37 -16 -63 -8 -25 -20 -67 -24 -93 -5 -25 -16 -77 -25 -116 -76 -329 -132 -744 -149 -1105 -3 -78 -12 -110 -28 -110 -14 0 -1 280 26 530 20 193 29 257 56 405 5 28 12 70 15 95 8 57 62 315 76 357 6 18 14 54 19 80 8 43 34 140 75 273 7 25 25 90 40 145 15 55 30 109 35 120 11 27 49 142 61 185 6 19 19 54 30 77 10 24 19 48 19 53 0 6 9 30 20 52 11 23 20 48 20 55 0 12 29 84 50 124 5 9 12 34 16 54 4 21 17 53 30 72 12 18 30 58 40 88 9 31 21 58 25 61 5 3 9 12 9 20 0 8 12 41 26 72 14 31 34 75 45 97 10 22 23 52 28 68 6 15 15 27 21 27 6 0 8 5 5 11 -4 6 6 38 23 72 16 34 44 94 62 132 18 39 36 77 41 85 5 8 15 29 24 45 8 17 19 37 24 45 5 8 26 51 48 94 21 44 46 88 56 98 9 10 17 27 17 37 0 11 5 23 11 27 6 3 17 22 25 41 8 18 21 36 29 40 8 3 15 15 15 28 0 12 7 28 15 35 8 7 15 19 15 27 0 7 8 26 18 41 51 74 72 109 72 119 0 5 14 27 30 48 17 21 30 43 30 50 0 7 7 18 16 25 8 8 22 27 29 44 8 17 33 58 55 91 22 33 46 75 55 92 8 18 24 39 35 45 11 7 20 21 20 31 0 10 11 29 25 43 14 14 25 32 25 40 0 9 16 32 34 50 19 19 38 43 41 54 3 10 19 35 35 55 17 21 30 45 30 55 0 9 9 25 21 36 12 10 30 35 40 56 10 20 29 45 41 55 29 24 68 100 68 133 0 18 25 52 91 120 50 52 106 118 124 146 18 28 49 65 69 82 20 17 36 38 36 46 0 8 23 41 51 73 28 32 56 69 63 83 6 13 34 47 61 75 28 28 58 67 67 86 10 19 43 60 75 90 32 30 67 72 77 94 11 22 78 99 149 170 70 72 134 140 142 152 8 12 24 24 35 28 11 3 20 12 20 18 0 19 163 207 180 207 7 0 54 45 337 323 95 92 178 167 186 167 7 0 56 43 108 96 52 52 110 104 129 114 19 10 70 52 113 94 42 42 83 76 90 76 8 0 45 29 83 65 38 35 72 64 76 65 4 0 37 27 74 60 36 33 70 60 75 60 5 0 28 17 50 38 23 20 63 53 90 72 27 19 94 70 149 112 55 43 110 83 123 89 12 7 41 29 64 50 24 22 47 39 53 39 5 0 27 15 47 34 21 18 56 45 78 60 58 39 105 72 145 101 45 33 97 70 135 94 17 11 53 36 80 55 86 63 119 85 158 106 20 11 37 25 37 30 0 7 -724 9 -2082 8 l-2083 -3 -5 -25 c-3 -14 -24 -63 -47 -109 -24 -46 -43 -90 -43 -97 0 -8 -4 -14 -9 -14 -5 0 -12 -10 -16 -22 -7 -27 -24 -67 -36 -88 -18 -31 -109 -218 -109 -223 0 -3 -20 -48 -44 -99 -23 -51 -58 -131 -77 -178 -18 -47 -41 -96 -50 -110 -9 -14 -20 -41 -24 -60 -4 -19 -11 -39 -15 -45 -11 -13 -105 -247 -115 -285 -5 -17 -80 -209 -101 -255 -23 -53 -153 -456 -159 -494 -4 -20 -10 -45 -14 -56 -17 -40 -71 -221 -81 -266 -5 -25 -9 -74 -9 -110 -1 -87 -4 -100 -31 -114 -30 -16 -40 -44 -109 -325 -21 -82 -38 -150 -66 -255 -21 -82 -85 -356 -96 -415 -12 -65 -15 -82 -63 -310 -20 -96 -44 -213 -52 -260 -8 -47 -21 -121 -29 -165 -8 -44 -22 -123 -30 -175 -9 -52 -25 -142 -35 -200 -11 -58 -24 -139 -29 -180 -6 -41 -19 -133 -30 -205 -33 -210 -41 -275 -56 -447 -8 -90 -21 -239 -30 -333 -8 -93 -20 -271 -26 -395 -10 -226 -14 -970 -4 -1012 2 -13 7 -72 10 -133 16 -326 53 -750 76 -884 5 -30 9 -70 9 -88 0 -19 5 -43 11 -54 13 -24 2 -79 -15 -79 -11 0 -35 97 -35 140 0 8 -5 44 -10 80 -6 36 -15 117 -21 180 -5 63 -14 156 -20 205 -46 430 -59 1325 -27 1835 10 157 22 310 27 340 5 30 9 79 9 109 1 30 5 80 11 110 5 31 14 99 20 151 10 92 29 238 50 405 19 147 41 290 50 325 5 19 19 98 30 175 12 77 30 181 40 230 10 50 28 140 39 200 22 120 25 136 47 240 18 82 27 127 44 215 13 66 33 150 51 206 5 17 9 39 9 50 0 10 9 53 20 94 11 41 29 111 39 155 21 90 37 154 76 300 40 153 44 176 33 200 -7 16 -6 30 6 53 9 17 16 36 16 42 0 7 8 24 18 38 22 32 32 58 67 177 36 122 41 141 60 210 19 74 41 145 65 210 10 28 34 102 54 165 40 123 40 124 79 215 14 33 31 83 38 110 7 28 16 55 21 61 4 6 19 40 32 75 25 66 78 201 101 254 7 17 24 57 38 90 14 33 41 95 61 139 20 43 36 82 36 87 0 6 29 70 65 143 36 73 65 139 65 146 0 7 6 21 13 29 8 9 42 77 77 151 35 74 74 155 87 180 l24 45 -1262 3 c-694 1 -1264 0 -1266 -2 -9 -8 -38 -562 -48 -886 -2 -85 -7 -360 -11 -610 -6 -467 -6 -474 32 -633 5 -20 1 -34 -12 -48 -17 -19 -19 -40 -20 -213 0 -105 3 -263 7 -351 4 -88 10 -227 13 -310 3 -82 11 -224 17 -315 5 -91 12 -196 15 -235 5 -75 18 -245 33 -415 6 -58 14 -159 20 -225 6 -66 15 -154 21 -195 5 -41 15 -127 21 -190 24 -231 47 -422 58 -495 6 -33 17 -114 27 -180 9 -66 23 -158 31 -205 8 -47 23 -139 33 -205 11 -66 28 -167 40 -225 11 -58 25 -132 31 -165 11 -71 35 -184 50 -240 6 -22 15 -65 19 -95 11 -63 15 -83 80 -375 59 -262 69 -303 120 -500 23 -88 45 -176 50 -195 5 -19 22 -84 38 -145 17 -60 37 -137 46 -170 9 -33 28 -95 42 -137 14 -43 23 -82 20 -87 -4 -5 -2 -11 2 -13 5 -1 20 -39 35 -83 32 -99 57 -174 68 -200 22 -52 69 -205 69 -224 0 -12 5 -21 12 -21 9 0 9 -3 0 -12 -16 -16 -58 30 -67 74 -3 18 -17 60 -30 93 -38 97 -105 318 -105 348 0 15 -4 27 -9 27 -10 0 -71 181 -71 211 0 11 -5 30 -11 42 -11 20 -36 100 -44 142 -2 11 -11 47 -20 80 -27 99 -36 137 -70 280 -9 39 -24 93 -32 120 -9 28 -19 68 -23 90 -5 22 -16 72 -25 110 -9 39 -20 95 -26 125 -5 30 -14 66 -19 80 -6 14 -17 66 -26 115 -30 166 -89 450 -98 475 -4 8 -13 58 -21 110 -8 52 -19 118 -24 145 -11 56 -29 169 -37 230 -3 22 -9 60 -14 85 -5 25 -14 77 -20 115 -6 39 -15 89 -20 113 -6 23 -10 54 -10 69 0 15 -4 52 -10 82 -5 31 -19 133 -30 226 -12 94 -23 184 -26 200 -15 86 -29 219 -74 700 -6 61 -15 157 -20 215 -6 58 -15 182 -20 275 -6 94 -12 197 -15 230 -8 92 -26 548 -30 760 -7 367 -11 428 -34 446 -21 17 -21 35 8 194 6 34 13 269 16 535 2 261 7 507 9 545 5 67 18 414 21 520 2 102 16 351 21 373 l4 22 -1191 0 c-948 0 -1190 -3 -1186 -12 3 -7 15 -56 27 -108 12 -52 35 -151 50 -220 110 -473 132 -573 146 -635 8 -38 19 -83 24 -100 16 -52 128 -518 135 -560 3 -22 10 -49 15 -60 4 -11 13 -40 19 -65 7 -25 18 -65 26 -90 8 -25 25 -88 39 -140 14 -53 45 -138 70 -191 51 -109 56 -130 37 -152 -10 -13 -11 -23 -3 -44 6 -16 16 -48 22 -73 6 -25 15 -54 20 -65 4 -11 16 -54 25 -95 10 -41 28 -102 41 -135 13 -33 28 -82 34 -110 11 -51 32 -122 56 -185 7 -19 16 -51 20 -70 3 -19 10 -39 14 -45 4 -5 11 -26 15 -45 7 -41 73 -247 86 -272 5 -9 12 -36 15 -60 4 -24 11 -46 16 -49 5 -3 12 -25 15 -48 3 -22 10 -41 14 -41 5 0 9 -7 9 -15 0 -8 4 -23 9 -33 16 -32 44 -109 66 -182 27 -88 109 -317 136 -377 10 -24 19 -49 19 -56 0 -7 4 -17 8 -22 5 -6 19 -43 32 -83 12 -40 26 -75 30 -77 5 -3 11 -23 15 -45 4 -22 11 -42 16 -46 5 -3 9 -12 9 -20 0 -8 8 -33 19 -57 10 -23 29 -69 41 -102 12 -33 26 -69 30 -80 5 -11 11 -27 14 -35 3 -8 10 -22 15 -30 4 -8 14 -31 20 -50 32 -90 46 -128 64 -170 10 -25 25 -58 32 -75 7 -16 22 -51 34 -77 11 -26 21 -55 21 -63 0 -8 4 -23 9 -33 5 -9 12 -24 15 -32 4 -8 17 -35 31 -59 14 -24 25 -48 25 -53 0 -5 7 -25 17 -46 26 -60 43 -106 43 -122 0 -8 9 -21 20 -28 12 -7 18 -17 14 -23 -3 -6 2 -19 11 -29 9 -10 23 -39 31 -65 7 -27 19 -54 26 -62 12 -15 15 -23 25 -75 3 -16 9 -28 14 -28 5 0 9 -10 9 -23 0 -12 9 -28 20 -35 11 -7 20 -19 20 -27 0 -8 4 -23 9 -33 5 -9 24 -48 41 -87 17 -38 35 -77 41 -85 18 -31 39 -83 39 -100 0 -10 7 -20 15 -24 8 -3 15 -17 15 -31 0 -14 4 -25 9 -25 11 0 51 -80 51 -102 0 -9 3 -18 8 -20 8 -4 142 -272 142 -286 0 -5 6 -15 14 -21 8 -7 18 -26 21 -42 4 -16 11 -29 16 -29 5 0 12 -12 15 -27 4 -15 28 -63 53 -107 26 -45 52 -92 59 -106 37 -73 78 -149 88 -161 7 -8 29 -47 50 -88 42 -78 99 -185 159 -291 20 -36 55 -100 78 -142 23 -43 48 -83 54 -90 7 -6 13 -18 13 -24 0 -7 11 -26 25 -42 14 -17 25 -36 25 -43 0 -7 7 -20 16 -30 16 -17 23 -30 75 -126 15 -26 43 -72 63 -102 20 -29 36 -59 36 -65 0 -7 11 -23 25 -36 14 -13 25 -29 25 -36 0 -7 11 -26 25 -42 14 -17 28 -44 31 -61 6 -27 4 -30 -12 -24 -26 10 -54 35 -54 49 0 6 -13 30 -30 52 -16 23 -30 45 -30 48 0 4 -11 21 -24 38 -12 17 -31 45 -40 61 -9 17 -28 48 -41 70 -13 22 -30 54 -38 70 -8 17 -21 36 -30 44 -10 7 -17 21 -17 31 0 10 -7 24 -17 31 -9 8 -22 28 -30 44 -8 17 -27 50 -43 75 -15 25 -43 72 -60 105 -17 33 -54 98 -81 145 -28 47 -59 103 -70 125 -10 22 -29 56 -40 75 -12 19 -46 82 -76 140 -31 58 -66 123 -78 145 -42 72 -75 144 -75 159 0 9 -4 16 -10 16 -5 0 -12 11 -16 24 -3 14 -12 27 -20 30 -8 3 -14 19 -14 36 0 16 -4 30 -9 30 -5 0 -30 42 -56 93 -26 50 -51 99 -55 107 -5 8 -11 22 -14 30 -3 8 -10 22 -14 30 -5 8 -27 53 -49 100 -22 47 -53 114 -70 150 -17 36 -45 97 -63 135 -17 39 -36 78 -41 87 -5 10 -9 24 -9 32 0 7 -7 19 -15 26 -8 7 -15 20 -15 30 0 10 -7 23 -15 30 -8 7 -15 23 -15 36 0 12 -4 26 -10 29 -5 3 -10 17 -10 31 0 13 -4 24 -9 24 -5 0 -19 21 -31 48 -13 26 -26 55 -31 64 -5 10 -9 24 -9 32 0 7 -6 18 -13 24 -7 6 -19 34 -27 62 -7 27 -17 50 -22 50 -4 0 -8 6 -8 14 0 7 -7 19 -15 26 -8 7 -15 22 -15 34 0 12 -7 31 -15 42 -8 10 -15 26 -15 35 0 9 -11 36 -24 61 -13 24 -27 55 -31 69 -4 13 -18 48 -31 77 -13 29 -24 59 -24 67 0 8 -4 15 -10 15 -5 0 -10 8 -10 18 0 10 -8 36 -19 58 -59 123 -95 211 -151 369 -12 33 -28 71 -35 85 -7 14 -12 27 -12 30 1 3 -22 68 -52 145 -63 165 -80 210 -121 330 -17 50 -35 97 -39 105 -5 9 -12 31 -16 50 -4 19 -11 41 -15 50 -25 50 -45 110 -42 124 2 4 -1 13 -7 20 -14 17 -71 194 -71 222 0 13 -4 24 -9 24 -5 0 -12 17 -16 38 -4 20 -10 42 -15 47 -4 6 -15 35 -24 65 -10 30 -21 64 -26 75 -13 32 -50 159 -50 173 0 7 -4 20 -9 30 -5 9 -26 73 -46 142 -20 69 -44 140 -52 157 -8 18 -13 40 -9 48 3 8 2 15 -2 15 -9 0 -42 118 -42 149 0 12 -4 21 -10 21 -5 0 -10 8 -10 17 0 16 -16 70 -65 224 -14 42 -25 84 -25 93 0 9 -11 21 -23 25 -20 8 -25 19 -31 73 -18 157 -40 261 -87 414 -5 17 -9 42 -9 55 0 14 -4 29 -10 35 -5 5 -21 56 -35 114 -14 58 -30 119 -35 135 -23 76 -113 425 -120 468 -5 26 -20 92 -34 145 -14 53 -34 144 -46 201 -12 58 -23 108 -26 113 -3 4 -14 49 -24 100 -10 51 -26 122 -35 158 -8 36 -22 97 -30 135 -8 39 -22 100 -31 138 l-17 67 -318 0 -319 0 0 -1933z m16430 -27 c0 -24 -2 -25 -195 -85 -82 -26 -168 -53 -190 -60 -22 -7 -74 -22 -115 -34 -41 -12 -111 -33 -155 -47 -44 -13 -100 -28 -125 -33 -25 -6 -63 -15 -85 -21 -39 -11 -93 -24 -145 -36 -14 -3 -43 -10 -65 -15 -22 -5 -69 -16 -105 -24 -36 -8 -72 -18 -80 -21 -8 -4 -42 -13 -75 -21 -33 -8 -76 -18 -95 -23 -19 -5 -78 -18 -130 -29 -108 -22 -330 -76 -376 -91 -17 -6 -42 -10 -57 -10 -14 0 -29 -5 -32 -10 -4 -6 -18 -10 -33 -10 -26 1 -74 -8 -157 -29 -22 -5 -85 -19 -140 -31 -55 -11 -119 -30 -142 -40 -24 -11 -46 -20 -49 -20 -3 0 -21 -7 -40 -16 -22 -11 -45 -14 -66 -10 -50 11 -115 7 -177 -10 -31 -9 -78 -19 -106 -24 -27 -5 -77 -15 -110 -23 -63 -16 -132 -29 -275 -52 -47 -8 -101 -19 -120 -26 -33 -10 -94 -24 -150 -33 -14 -2 -50 -9 -80 -15 -30 -7 -64 -12 -74 -12 -11 0 -28 -5 -39 -11 -11 -5 -32 -12 -46 -13 -14 -2 -66 -10 -116 -19 -49 -8 -119 -20 -155 -26 -36 -6 -99 -20 -140 -30 -41 -11 -93 -21 -115 -24 -49 -6 -92 -14 -170 -31 -33 -7 -87 -18 -120 -25 -33 -6 -89 -18 -125 -26 -36 -8 -126 -26 -200 -40 -74 -14 -164 -32 -200 -39 -36 -8 -119 -26 -185 -39 -66 -14 -174 -37 -240 -51 -66 -14 -151 -32 -190 -40 -38 -8 -99 -21 -135 -30 -36 -9 -94 -22 -130 -30 -36 -7 -112 -25 -170 -38 -58 -14 -116 -28 -130 -30 -14 -3 -88 -21 -165 -42 -77 -20 -176 -45 -220 -56 -44 -10 -111 -28 -150 -39 -38 -12 -92 -25 -120 -30 -27 -5 -59 -14 -70 -19 -11 -6 -54 -19 -95 -30 -202 -53 -298 -80 -335 -94 -22 -9 -69 -23 -105 -32 -36 -9 -74 -20 -85 -25 -11 -5 -51 -19 -90 -31 -132 -41 -270 -89 -298 -104 -16 -8 -35 -15 -44 -15 -8 0 -29 -6 -46 -13 -18 -8 -81 -33 -142 -56 -60 -24 -135 -54 -165 -68 -30 -14 -66 -30 -80 -35 -14 -5 -38 -16 -53 -24 -16 -8 -34 -14 -42 -14 -7 0 -18 -6 -24 -13 -6 -8 -30 -20 -53 -27 -24 -8 -52 -20 -63 -27 -11 -7 -30 -13 -42 -13 -14 0 -23 -6 -23 -15 0 -8 -8 -15 -18 -15 -11 0 -27 -9 -37 -20 -10 -11 -26 -20 -36 -20 -10 0 -20 -4 -23 -8 -3 -5 -39 -26 -80 -46 -41 -21 -80 -44 -87 -52 -6 -8 -18 -14 -26 -14 -9 0 -51 -34 -94 -77 -73 -71 -83 -77 -133 -84 -46 -6 -60 -13 -87 -43 -17 -20 -39 -36 -49 -36 -10 0 -42 -24 -71 -52 -30 -29 -72 -65 -94 -79 -22 -14 -56 -42 -75 -60 -76 -75 -214 -193 -248 -213 -28 -16 -52 -40 -52 -53 0 -7 -5 -13 -12 -13 -15 0 -58 -40 -58 -54 0 -5 -42 -51 -92 -101 -96 -95 -158 -167 -158 -183 0 -5 -35 -42 -78 -83 -42 -41 -94 -99 -114 -130 -20 -30 -53 -69 -72 -86 -20 -17 -36 -35 -36 -40 0 -6 -7 -16 -15 -23 -8 -7 -15 -20 -15 -29 0 -10 -12 -28 -26 -42 -15 -13 -42 -48 -61 -76 -18 -29 -44 -60 -57 -68 -13 -9 -26 -28 -29 -43 -3 -15 -19 -45 -36 -66 -17 -21 -31 -45 -31 -52 0 -7 -6 -17 -14 -21 -8 -4 -24 -26 -37 -48 -12 -22 -33 -53 -46 -68 -13 -16 -23 -33 -23 -39 0 -6 -11 -26 -25 -44 -14 -18 -25 -36 -25 -40 0 -4 -11 -22 -25 -40 -14 -18 -25 -39 -25 -47 0 -8 -7 -20 -16 -28 -15 -12 -35 -46 -68 -115 -8 -17 -22 -36 -30 -43 -8 -7 -18 -25 -21 -41 -3 -16 -13 -34 -21 -41 -8 -6 -14 -19 -14 -29 0 -9 -9 -25 -20 -35 -11 -10 -20 -25 -20 -32 0 -8 -9 -26 -20 -40 -11 -14 -20 -34 -20 -44 0 -10 -5 -21 -10 -24 -6 -4 -20 -28 -31 -53 -11 -26 -25 -54 -29 -62 -25 -42 -100 -201 -100 -211 0 -6 -9 -22 -20 -36 -11 -14 -20 -31 -20 -38 0 -6 -12 -36 -28 -66 -15 -30 -43 -92 -62 -139 -18 -47 -51 -122 -72 -166 -21 -45 -38 -86 -38 -91 0 -5 -12 -38 -26 -74 -51 -124 -138 -363 -191 -522 -35 -105 -53 -131 -75 -109 -8 8 -2 33 20 89 16 43 36 101 42 128 7 28 17 54 21 60 5 5 9 15 9 22 0 7 9 35 21 61 11 26 26 61 34 77 7 17 18 50 25 75 7 25 24 68 36 97 13 28 24 57 24 63 0 6 9 30 20 52 11 23 20 46 20 51 0 5 11 31 25 59 14 27 25 54 25 59 0 5 13 37 29 71 16 35 48 106 71 158 23 52 55 123 72 158 16 35 33 73 38 85 6 12 14 29 19 37 10 17 50 95 81 160 39 82 63 125 76 141 8 8 14 23 14 32 0 9 5 19 11 23 6 3 20 25 31 48 10 22 32 61 48 86 16 25 29 53 29 63 1 9 12 27 26 39 14 12 25 28 25 36 0 8 11 30 25 48 14 18 25 37 25 41 0 5 12 25 26 44 14 19 30 44 35 57 5 12 13 22 18 22 5 0 14 15 22 33 7 17 25 48 41 68 15 20 28 42 28 47 0 6 11 23 25 38 14 16 33 43 41 60 9 18 27 40 40 49 13 8 24 22 24 29 0 8 25 47 55 87 30 40 55 76 55 81 0 12 67 78 79 78 6 0 13 12 17 28 10 48 13 52 44 70 16 9 30 22 30 29 0 6 12 21 27 33 25 20 41 41 62 85 5 11 50 60 100 108 50 49 91 93 91 98 0 5 5 9 11 9 14 0 69 52 69 65 0 8 147 155 155 155 9 0 65 56 65 65 0 15 202 210 237 228 16 9 57 43 92 76 34 34 68 61 75 61 8 0 29 16 47 35 19 19 51 40 72 48 37 12 49 27 86 106 9 18 23 26 87 45 28 8 71 24 95 36 43 19 53 25 94 49 11 6 34 18 51 26 17 7 36 21 44 29 7 9 23 16 37 16 13 0 26 7 29 15 4 8 10 15 14 15 8 0 147 66 210 100 19 11 42 19 51 20 9 0 22 7 29 15 7 8 19 15 28 15 8 0 23 6 31 13 9 8 37 20 63 27 26 7 53 19 59 26 6 8 17 14 25 14 7 0 30 7 51 16 101 43 98 42 323 124 47 17 94 35 105 40 11 5 45 16 75 24 30 8 81 24 112 35 32 12 64 21 72 21 9 0 30 6 48 14 31 13 94 33 298 92 47 14 105 31 130 38 25 8 63 18 85 24 22 6 63 17 90 25 28 8 64 18 80 21 17 4 53 13 80 21 64 18 163 43 310 78 33 8 87 22 120 31 32 9 70 16 83 16 13 0 32 5 43 11 11 5 52 17 92 25 82 17 183 40 242 55 22 6 61 14 87 19 27 5 53 12 59 15 11 7 383 87 575 124 27 5 68 14 90 19 21 5 84 18 139 27 55 10 127 24 160 32 81 19 202 43 245 49 61 8 104 15 145 24 22 5 114 23 205 40 91 17 215 42 275 56 61 13 137 29 170 35 33 6 78 15 100 19 22 4 65 13 95 19 30 5 109 21 175 35 66 14 132 26 147 26 15 0 29 4 32 9 3 4 27 11 53 14 27 3 89 14 138 25 172 38 380 83 414 90 28 6 46 22 57 50 1 1 57 5 125 8 68 2 147 11 174 18 28 8 84 21 125 30 41 8 118 24 170 36 166 36 373 81 425 91 28 6 70 17 95 26 25 8 65 19 90 24 42 8 180 39 260 59 19 5 78 20 130 35 52 15 115 31 140 35 47 10 76 17 175 45 33 10 74 21 90 25 17 5 62 18 100 30 39 12 90 27 115 35 55 15 215 66 330 104 107 36 130 38 130 11z m-7350 -3365 c74 -4 153 -11 175 -16 22 -6 69 -14 105 -19 56 -8 171 -28 340 -59 104 -20 298 -63 340 -76 25 -8 86 -26 135 -40 140 -40 140 -40 330 -100 99 -31 189 -60 200 -65 11 -5 65 -25 120 -45 55 -21 108 -41 117 -46 10 -5 22 -9 28 -9 6 0 32 -11 59 -24 27 -13 65 -26 84 -30 19 -4 40 -13 47 -21 7 -8 31 -20 53 -26 40 -11 70 -23 192 -79 33 -15 76 -34 95 -43 36 -16 143 -64 215 -97 22 -10 56 -25 75 -33 19 -8 69 -31 110 -49 41 -19 91 -40 110 -47 19 -7 44 -17 55 -21 148 -60 416 -150 445 -150 11 0 28 -4 38 -10 15 -8 102 -32 227 -61 65 -16 136 -30 200 -39 33 -5 98 -16 145 -25 377 -68 569 -85 1058 -91 l394 -5 5 21 c6 21 9 22 122 15 151 -9 135 -9 226 -1 182 15 365 35 505 56 275 41 361 56 590 102 266 53 284 56 325 67 61 16 85 14 85 -8 0 -14 -14 -22 -62 -34 -109 -29 -300 -68 -418 -86 -30 -5 -109 -19 -175 -31 -66 -12 -158 -26 -205 -31 -47 -5 -148 -18 -225 -29 -77 -11 -180 -24 -230 -29 -49 -6 -135 -15 -190 -21 -55 -5 -134 -21 -175 -34 -122 -39 -139 -41 -163 -18 -21 19 -39 21 -417 25 -408 5 -612 19 -845 56 -71 11 -175 28 -230 36 -94 15 -189 34 -280 57 -39 9 -65 15 -170 38 -27 5 -90 22 -140 36 -49 14 -121 34 -160 45 -38 11 -77 24 -86 29 -9 5 -33 12 -52 15 -20 4 -41 13 -48 21 -6 8 -17 14 -24 14 -14 0 -94 30 -173 66 -29 13 -57 24 -62 24 -10 0 -64 23 -165 70 -117 55 -211 97 -245 110 -19 7 -42 19 -51 27 -8 7 -21 13 -27 13 -6 0 -35 11 -64 24 -149 67 -218 96 -226 96 -5 0 -35 12 -66 26 -30 14 -90 38 -133 53 -43 16 -116 43 -163 61 -47 17 -107 38 -134 46 -27 7 -72 22 -100 32 -99 38 -279 95 -386 122 -19 5 -53 14 -75 20 -57 16 -98 26 -200 49 -49 12 -108 25 -130 31 -22 6 -53 12 -70 15 -16 2 -52 8 -80 14 -128 26 -240 43 -435 66 -148 17 -627 22 -657 7 -10 -5 -47 -10 -83 -10 -36 -1 -85 -6 -110 -11 -25 -5 -79 -15 -120 -21 -167 -27 -504 -117 -549 -147 -14 -9 -55 -32 -89 -51 -52 -27 -70 -32 -101 -27 -31 5 -54 -2 -137 -40 -140 -66 -332 -162 -379 -190 -22 -13 -57 -33 -77 -44 -20 -11 -39 -25 -43 -31 -3 -5 -14 -10 -23 -10 -9 -1 -33 -14 -52 -30 -19 -17 -39 -30 -45 -30 -6 0 -25 -13 -43 -30 -18 -16 -40 -30 -48 -30 -7 0 -31 -15 -52 -34 -21 -19 -50 -38 -65 -41 -15 -4 -27 -13 -27 -20 0 -16 -47 -55 -67 -55 -7 0 -33 -18 -56 -41 -23 -22 -60 -53 -82 -69 -23 -15 -65 -53 -95 -84 -30 -31 -71 -64 -90 -75 -26 -14 -383 -364 -538 -527 -7 -8 -18 -14 -23 -14 -5 0 -9 -6 -9 -13 0 -8 -9 -22 -20 -32 -11 -10 -20 -24 -20 -32 0 -7 -32 -46 -71 -86 -40 -39 -78 -85 -85 -102 -7 -16 -27 -43 -44 -60 -40 -37 -112 -144 -105 -155 3 -4 -3 -7 -12 -6 -9 0 -25 -17 -40 -44 -13 -25 -34 -56 -47 -70 -31 -33 -236 -337 -236 -350 0 -5 -13 -25 -30 -43 -16 -19 -30 -39 -30 -45 0 -6 -11 -24 -25 -40 -13 -16 -29 -40 -35 -53 -6 -13 -24 -44 -40 -69 -16 -25 -38 -61 -48 -80 -97 -178 -185 -318 -198 -313 -21 8 -18 23 23 99 20 38 47 90 60 116 13 26 28 50 33 53 5 3 23 33 40 66 17 33 38 72 48 87 10 15 28 41 39 57 11 17 30 48 42 70 12 22 27 49 34 60 46 73 80 125 103 156 14 20 31 46 37 57 25 43 73 115 105 153 17 23 32 47 32 53 0 7 9 21 20 31 11 10 37 43 57 74 20 31 54 76 75 100 21 24 38 49 38 55 0 7 16 28 36 47 20 18 55 61 79 94 24 33 74 90 112 126 37 37 82 84 98 104 130 163 356 389 452 452 14 9 52 45 86 81 34 35 76 71 92 80 17 8 52 37 80 63 27 27 67 56 87 66 21 10 38 24 38 31 0 7 21 26 48 42 26 16 63 40 82 55 57 42 103 73 140 94 19 10 44 28 54 40 11 12 26 21 35 21 8 0 26 11 40 24 15 13 53 39 86 56 33 17 78 42 100 55 40 23 205 107 248 125 12 6 29 14 37 19 39 22 78 39 115 51 43 13 85 46 85 66 0 7 21 15 53 19 70 9 176 32 267 60 41 13 102 28 135 35 33 6 83 18 110 26 55 16 79 20 345 64 158 26 417 31 750 15z m-970 -1046 c145 -18 247 -45 375 -99 66 -28 101 -46 124 -62 13 -10 31 -18 40 -18 9 0 22 -9 29 -21 7 -11 28 -27 46 -34 32 -14 147 -110 195 -163 13 -15 48 -53 77 -85 30 -31 54 -64 54 -71 0 -8 10 -27 23 -43 24 -30 70 -121 82 -163 4 -14 18 -54 33 -90 24 -60 26 -77 26 -225 1 -167 -11 -237 -54 -330 -81 -176 -109 -232 -124 -244 -27 -23 -50 -73 -48 -107 2 -30 -9 -46 -48 -69 -68 -38 -122 -79 -186 -137 -40 -38 -77 -68 -83 -68 -5 0 -30 -18 -55 -39 -25 -22 -56 -43 -68 -47 -13 -4 -29 -15 -36 -25 -7 -11 -19 -19 -26 -19 -7 0 -24 -9 -37 -19 -48 -37 -225 -134 -334 -182 -11 -5 -27 -13 -35 -18 -30 -18 -259 -111 -273 -111 -7 0 -28 -7 -46 -16 -18 -9 -56 -23 -84 -31 -29 -8 -68 -19 -87 -25 -68 -20 -110 -22 -110 -4 0 16 58 46 91 46 10 0 33 6 51 14 18 7 69 26 113 41 162 55 220 77 236 91 8 8 19 14 24 14 7 0 238 113 330 162 17 9 37 23 44 32 8 9 21 16 30 16 10 0 28 11 41 25 13 14 31 25 40 25 9 0 29 13 46 29 16 15 44 36 62 45 19 10 59 41 90 69 32 29 66 59 78 67 11 8 27 26 34 40 7 13 20 31 27 39 8 8 26 31 39 53 13 21 42 49 65 64 22 14 48 39 57 56 10 17 27 42 38 57 44 54 122 244 148 356 18 79 13 250 -9 320 -10 33 -22 64 -27 70 -4 5 -8 15 -8 23 0 27 -98 217 -125 242 -15 14 -35 41 -45 60 -20 38 -163 180 -181 180 -7 0 -29 15 -49 33 -101 86 -263 162 -470 220 -108 30 -173 39 -298 39 -126 0 -156 -4 -319 -53 -34 -11 -47 -10 -67 0 -30 16 -47 13 -301 -62 -38 -11 -117 -40 -175 -65 -208 -88 -252 -108 -325 -152 -27 -16 -57 -32 -65 -35 -8 -4 -22 -11 -30 -16 -8 -5 -29 -15 -46 -23 -17 -8 -35 -19 -38 -25 -4 -6 -22 -17 -39 -25 -18 -7 -43 -23 -56 -35 -13 -11 -29 -21 -36 -21 -6 0 -30 -16 -52 -35 -23 -19 -46 -35 -51 -35 -6 0 -32 -18 -57 -40 -25 -22 -50 -40 -56 -40 -5 0 -26 -15 -46 -34 -21 -18 -53 -41 -71 -50 -18 -9 -36 -24 -39 -32 -3 -8 -24 -24 -47 -36 -22 -11 -59 -39 -80 -60 -22 -22 -56 -48 -75 -58 -20 -10 -54 -37 -76 -60 -22 -23 -62 -57 -90 -75 -27 -19 -77 -61 -110 -94 -33 -34 -64 -61 -70 -61 -6 0 -75 -64 -155 -142 -80 -79 -155 -150 -167 -158 -18 -13 -185 -163 -217 -196 -70 -72 -213 -230 -226 -251 -10 -16 -46 -55 -80 -88 -34 -33 -79 -85 -100 -115 -47 -69 -73 -93 -97 -88 -32 6 -20 33 46 104 35 38 68 80 75 93 23 50 710 744 796 803 61 43 152 136 145 148 -3 6 0 10 7 10 19 0 106 63 187 136 25 23 60 49 78 57 17 9 44 32 60 50 15 19 42 42 58 53 17 10 45 31 63 46 18 15 39 28 48 28 8 0 37 20 63 45 26 25 52 45 57 45 5 0 27 15 49 33 21 17 53 41 71 52 18 11 58 38 90 60 125 86 372 226 494 279 19 8 42 20 50 25 55 35 358 140 510 176 92 22 110 31 110 53 0 16 18 17 238 15 130 -2 275 -8 322 -14z m-767 -940 c50 -18 51 -18 84 2 l33 21 115 -113 c63 -62 115 -118 115 -125 0 -7 12 -28 28 -46 15 -18 35 -49 45 -68 10 -19 25 -47 33 -62 34 -63 55 -180 54 -303 0 -66 -5 -136 -10 -155 -5 -19 -11 -46 -14 -60 -13 -74 -96 -260 -148 -334 -16 -21 -28 -44 -28 -50 0 -6 -15 -25 -34 -42 -19 -17 -37 -41 -41 -53 -8 -26 -100 -123 -132 -140 -20 -10 -23 -9 -23 9 0 27 56 100 108 142 22 18 42 45 46 60 3 14 18 41 34 60 30 34 43 57 88 148 50 103 81 185 87 230 4 25 11 74 16 109 20 133 -40 388 -103 441 -9 7 -16 19 -16 27 0 29 -94 114 -164 148 -38 19 -75 35 -81 35 -6 0 -22 12 -36 26 -49 54 -94 65 -267 66 -151 0 -308 -14 -341 -31 -9 -5 -56 -18 -106 -30 -87 -21 -199 -58 -260 -87 -16 -8 -45 -17 -63 -20 -18 -4 -35 -11 -38 -15 -3 -5 -13 -9 -23 -9 -10 0 -24 -7 -31 -15 -7 -8 -21 -15 -31 -15 -18 0 -201 -91 -229 -114 -8 -7 -26 -18 -40 -24 -14 -7 -43 -23 -65 -37 -22 -13 -53 -30 -70 -38 -16 -8 -36 -22 -44 -31 -8 -10 -33 -27 -55 -38 -49 -25 -89 -53 -139 -95 -20 -18 -43 -33 -51 -33 -8 0 -27 -13 -43 -30 -15 -16 -33 -30 -40 -30 -6 0 -32 -17 -57 -37 -24 -21 -60 -48 -78 -60 -110 -74 -140 -96 -189 -140 -30 -27 -67 -57 -84 -68 -16 -10 -50 -37 -75 -60 -25 -22 -58 -49 -75 -60 -16 -10 -55 -42 -85 -70 -30 -28 -75 -64 -98 -80 -24 -16 -65 -51 -90 -77 -51 -54 -92 -65 -92 -25 0 23 59 87 80 87 7 0 47 33 89 73 42 40 100 88 128 106 29 18 65 47 81 64 15 18 53 49 83 69 30 21 68 51 84 68 16 16 34 30 41 30 6 0 39 25 73 55 34 30 66 55 71 55 6 0 27 15 47 34 21 18 52 40 68 49 17 8 39 24 49 36 11 12 25 21 33 21 7 0 30 15 50 34 21 18 52 40 68 49 17 8 39 24 49 36 11 12 25 21 32 21 7 0 28 13 46 29 18 15 43 31 54 35 12 4 29 15 39 26 10 11 24 20 32 20 8 0 28 10 46 22 63 43 83 54 115 67 17 8 32 17 32 22 0 5 6 9 13 9 6 0 55 21 107 46 124 60 125 61 195 83 33 10 74 26 90 35 17 9 36 16 43 16 7 0 32 9 54 20 23 11 53 20 67 20 14 0 46 7 71 16 51 18 118 32 202 42 31 4 60 10 63 14 3 3 85 6 182 5 145 0 184 -3 226 -18z m-580 -773 c50 -31 219 -116 230 -116 15 0 217 -203 217 -218 0 -6 11 -23 23 -39 24 -28 38 -62 76 -186 25 -81 29 -177 6 -177 -15 0 -16 4 -36 105 -21 116 -62 216 -110 270 -10 11 -24 34 -31 51 -19 46 -183 174 -221 174 -7 0 -17 4 -22 9 -6 5 -61 15 -122 22 -93 11 -114 16 -119 31 -5 18 -50 36 -60 25 -4 -3 -18 -1 -33 5 -50 19 -322 0 -437 -31 -21 -6 -77 -20 -124 -31 -47 -11 -107 -29 -135 -39 -27 -11 -88 -31 -135 -46 -47 -14 -103 -34 -125 -45 -168 -78 -217 -100 -221 -100 -13 0 -339 -164 -342 -171 -2 -5 -10 -9 -18 -9 -16 0 -280 -134 -303 -154 -26 -22 -82 -46 -108 -46 -36 0 -28 27 16 54 22 14 42 30 46 36 3 5 15 10 25 10 10 0 25 6 32 13 7 6 38 25 68 40 30 16 62 33 70 38 8 5 53 27 100 49 47 23 94 46 105 52 54 31 236 118 280 135 22 9 67 28 100 44 33 15 96 42 140 59 85 32 119 47 147 61 10 5 29 9 43 9 13 0 42 6 62 14 61 23 186 59 213 62 14 1 77 12 140 24 96 18 144 21 287 18 94 -1 175 0 179 5 12 12 73 8 97 -7z m-368 -455 c22 -5 65 -16 96 -24 30 -9 110 -25 177 -36 67 -11 130 -25 141 -30 11 -6 28 -11 39 -11 35 0 238 -84 268 -111 11 -11 26 -19 34 -19 22 0 60 -42 60 -67 0 -33 -28 -29 -70 11 -39 37 -92 66 -215 117 -124 51 -348 92 -432 78 -87 -14 -170 -11 -177 7 -5 14 -19 15 -94 11 -167 -11 -347 -28 -362 -34 -8 -3 -42 -10 -75 -15 -71 -10 -103 -15 -170 -27 -27 -5 -93 -16 -145 -25 -52 -8 -131 -25 -175 -37 -44 -11 -109 -27 -145 -34 -36 -7 -92 -19 -125 -28 -202 -52 -416 -100 -422 -93 -4 4 -2 15 3 24 10 16 188 68 314 92 25 5 92 21 150 35 98 24 133 32 250 56 25 6 65 14 90 20 64 14 83 18 195 34 55 9 125 20 155 26 30 5 167 20 304 33 207 19 250 25 258 39 10 19 16 20 73 8z m963 -397 c28 -19 29 -57 2 -84 -39 -39 -100 -16 -100 37 0 54 52 79 98 47z m-993 -24 c33 -7 176 -11 413 -11 313 0 364 -2 369 -15 3 -8 3 -17 1 -20 -3 -2 -171 -5 -374 -5 -203 0 -389 -5 -414 -9 -156 -31 -172 -32 -192 -11 -18 21 -26 21 -779 18 -664 -2 -761 0 -769 13 -5 8 -6 18 -1 23 4 4 155 7 337 7 1194 -2 1198 -2 1209 15 8 14 23 16 80 12 39 -3 93 -10 120 -17z m1200 -91 c22 -5 49 -14 60 -18 11 -5 56 -19 100 -32 44 -12 84 -26 90 -31 5 -4 18 -8 28 -8 10 0 33 -6 50 -14 18 -7 48 -19 67 -26 105 -39 319 -134 400 -180 8 -4 26 -13 40 -19 26 -11 48 -24 92 -53 15 -10 34 -18 43 -18 9 0 18 -6 21 -14 3 -8 22 -21 42 -29 20 -8 46 -24 56 -36 11 -12 45 -34 75 -50 159 -82 165 -86 173 -115 4 -16 48 -71 100 -126 149 -154 218 -263 303 -475 82 -206 82 -399 -1 -623 -20 -53 -40 -101 -45 -106 -5 -6 -9 -17 -9 -26 0 -9 -9 -25 -19 -34 -11 -10 -22 -28 -25 -40 -3 -13 -23 -42 -44 -66 -22 -23 -50 -58 -63 -78 -20 -33 -170 -161 -234 -202 -56 -36 -142 -85 -167 -97 -15 -6 -42 -18 -60 -26 -18 -9 -60 -23 -93 -32 -33 -9 -70 -21 -82 -26 -35 -13 -190 -37 -283 -43 -74 -4 -277 5 -395 17 -56 7 -201 36 -257 53 -26 8 -64 14 -85 14 -63 1 -124 19 -144 44 -10 13 -46 33 -81 45 -35 13 -86 34 -115 47 -28 13 -56 24 -61 24 -9 0 -320 159 -381 195 -18 11 -45 30 -59 43 -14 12 -33 22 -42 22 -9 0 -25 9 -36 21 -10 12 -32 28 -49 36 -16 9 -45 29 -63 44 -18 16 -41 29 -51 29 -10 0 -35 18 -54 39 -20 22 -49 47 -64 55 -16 8 -46 31 -68 51 -22 20 -53 44 -70 52 -16 9 -51 37 -78 64 -26 26 -58 51 -70 55 -12 4 -46 30 -75 58 -29 28 -67 59 -85 68 -17 10 -58 44 -92 76 -33 33 -76 68 -96 80 -19 12 -55 43 -80 69 -56 61 -116 113 -128 113 -6 0 -57 44 -113 99 -57 54 -138 127 -180 162 -124 102 -612 599 -628 639 -8 19 -19 39 -24 43 -6 5 2 6 18 2 20 -4 81 -59 197 -178 93 -95 187 -190 211 -212 23 -22 101 -97 173 -166 178 -173 206 -199 218 -199 5 0 60 -49 122 -110 62 -60 118 -110 124 -110 7 0 50 -36 97 -80 46 -44 89 -80 94 -80 5 0 44 -31 86 -70 43 -39 82 -70 89 -70 6 0 31 -20 55 -45 25 -25 63 -58 85 -73 22 -14 68 -52 103 -84 34 -32 68 -58 74 -58 6 0 33 -20 59 -45 26 -25 54 -45 62 -45 7 0 26 -14 43 -31 16 -17 43 -38 59 -46 17 -9 48 -31 71 -49 23 -19 45 -34 50 -34 5 0 22 -11 38 -25 16 -14 37 -25 46 -25 9 0 27 -11 40 -25 13 -14 31 -25 41 -25 9 0 23 -7 30 -16 7 -9 45 -32 84 -50 38 -19 88 -45 110 -59 22 -13 48 -24 58 -25 9 0 17 -4 17 -10 0 -5 12 -13 28 -16 15 -4 32 -10 37 -14 9 -7 66 -30 189 -76 27 -11 42 -12 49 -5 19 19 46 12 160 -43 116 -56 144 -67 187 -72 14 -1 50 -7 80 -13 30 -5 82 -15 115 -20 33 -6 128 -11 211 -11 185 0 253 11 504 84 25 7 78 31 119 52 41 21 86 45 100 53 14 7 40 26 56 41 17 15 43 34 59 42 41 21 205 187 227 230 10 20 24 40 30 44 6 3 17 21 25 38 8 17 18 38 23 46 20 34 61 140 83 210 33 106 32 282 -1 390 -31 104 -40 125 -78 205 -83 170 -127 233 -247 347 -76 74 -108 97 -128 98 -19 0 -33 9 -44 28 -25 39 -146 162 -161 162 -7 0 -27 13 -46 30 -19 16 -45 34 -58 40 -13 6 -49 26 -79 45 -30 19 -62 34 -71 35 -9 0 -23 7 -30 16 -17 21 -278 146 -364 175 -22 7 -44 16 -50 20 -11 8 -250 88 -325 109 -88 25 -130 43 -130 56 0 17 30 18 85 3z m-2820 -76 c62 -19 149 -40 240 -58 87 -17 240 -52 280 -65 17 -5 57 -12 90 -16 33 -3 68 -11 77 -16 15 -7 137 -30 233 -42 17 -2 57 -9 90 -15 140 -26 366 -51 454 -51 60 0 73 3 83 20 15 24 52 25 173 7 47 -7 100 -9 130 -4 28 4 65 9 84 12 19 2 39 9 44 14 5 5 15 7 22 5 25 -10 325 107 325 126 0 4 11 11 24 14 14 3 41 22 62 41 44 42 74 46 74 10 0 -19 -14 -34 -67 -69 -38 -24 -80 -50 -95 -57 -16 -7 -28 -16 -28 -21 0 -4 -7 -8 -15 -8 -8 0 -43 -11 -77 -24 -144 -55 -232 -80 -318 -90 -131 -14 -221 -29 -258 -43 -41 -16 -44 -15 -72 6 -25 18 -44 22 -122 23 -93 1 -122 4 -338 33 -63 9 -131 18 -150 20 -35 4 -181 28 -275 46 -27 5 -61 9 -73 9 -13 0 -33 7 -45 15 -12 8 -31 15 -42 15 -11 0 -70 11 -130 25 -99 23 -140 32 -292 65 -43 9 -131 33 -190 52 -21 6 -33 16 -33 27 0 33 7 33 135 -6z m2738 -27 c15 -11 27 -27 27 -36 0 -9 13 -31 30 -50 16 -19 29 -40 30 -47 0 -7 13 -27 29 -45 15 -18 31 -43 35 -54 4 -12 15 -29 26 -39 11 -10 20 -24 20 -30 0 -7 17 -46 38 -86 68 -130 110 -245 133 -360 21 -104 21 -118 9 -208 -7 -53 -16 -103 -20 -111 -4 -8 -14 -30 -23 -48 -9 -19 -17 -40 -17 -48 0 -8 -7 -17 -15 -20 -8 -3 -19 -20 -25 -38 -12 -36 -139 -167 -196 -202 -44 -26 -119 -64 -149 -74 -11 -3 -49 -21 -85 -38 -72 -35 -105 -40 -113 -18 -5 12 -36 16 -149 19 -150 5 -194 9 -268 26 -25 5 -65 14 -90 20 -25 6 -76 22 -114 36 -38 14 -76 25 -85 25 -9 0 -38 12 -66 25 -27 14 -56 25 -63 25 -7 0 -20 4 -30 9 -9 6 -70 35 -134 66 -65 32 -122 63 -129 71 -6 8 -19 14 -29 14 -10 0 -23 7 -30 15 -7 8 -20 15 -30 15 -9 0 -25 9 -35 20 -10 11 -25 20 -33 20 -8 0 -27 11 -44 25 -16 14 -35 25 -42 25 -7 0 -21 9 -31 20 -10 11 -25 20 -33 20 -8 0 -30 14 -49 30 -18 17 -40 30 -47 30 -7 0 -21 9 -30 19 -10 11 -37 29 -59 41 -55 28 -105 59 -148 93 -20 15 -39 27 -44 27 -4 0 -23 14 -42 30 -18 17 -40 30 -47 30 -7 0 -23 11 -36 25 -13 14 -28 25 -34 25 -5 0 -35 20 -65 44 -31 24 -66 46 -78 50 -12 4 -35 22 -50 39 -16 18 -43 39 -61 46 -18 8 -41 24 -50 36 -10 13 -43 38 -73 58 -30 19 -73 55 -96 80 -23 25 -52 49 -65 53 -44 13 -214 194 -183 194 9 0 49 -24 82 -50 17 -14 48 -37 70 -53 21 -15 46 -39 57 -55 17 -25 94 -82 111 -82 5 0 32 -22 61 -50 29 -27 59 -50 66 -50 8 0 30 -16 49 -36 18 -20 48 -43 64 -51 17 -9 47 -31 68 -50 21 -19 50 -39 65 -46 15 -6 32 -19 39 -28 7 -9 27 -22 45 -30 18 -7 39 -21 45 -30 7 -9 30 -24 52 -32 22 -9 43 -23 48 -31 4 -7 24 -22 44 -32 54 -29 97 -56 136 -86 20 -16 40 -28 45 -28 5 0 24 -11 42 -25 18 -14 36 -25 41 -25 4 0 20 -11 37 -25 16 -14 38 -25 49 -25 11 0 22 -6 25 -14 3 -8 20 -20 37 -27 18 -7 39 -18 47 -25 8 -6 42 -26 75 -43 33 -18 64 -36 70 -42 5 -5 17 -9 26 -9 9 0 22 -7 29 -15 11 -14 78 -49 130 -69 8 -3 22 -10 30 -15 22 -14 108 -51 118 -51 4 0 25 -9 47 -20 22 -11 46 -20 54 -20 9 0 33 -6 56 -14 89 -32 183 -59 235 -67 30 -4 82 -13 115 -18 33 -6 106 -13 162 -16 100 -6 102 -5 105 17 3 21 13 25 134 45 73 12 149 30 171 41 48 25 204 182 218 220 5 15 13 29 16 32 8 5 49 111 68 171 6 19 11 58 11 86 0 71 -44 249 -81 331 -52 114 -82 174 -104 206 -11 17 -27 46 -34 64 -7 17 -18 32 -23 32 -5 0 -18 19 -29 43 -22 46 -75 126 -108 161 -11 12 -21 34 -21 49 0 30 14 28 63 -7z m-147 -98 c-8 -146 -22 -201 -86 -332 -36 -73 -59 -103 -139 -183 -97 -97 -158 -135 -257 -162 -23 -6 -47 -18 -54 -26 -7 -8 -20 -15 -29 -15 -9 0 -21 -4 -26 -8 -6 -5 -29 -15 -53 -22 -39 -12 -44 -12 -56 5 -12 17 -31 19 -185 22 -94 2 -182 8 -197 13 -14 6 -44 10 -67 10 -23 0 -78 10 -122 21 -44 11 -96 24 -115 29 -102 24 -265 81 -283 99 -6 6 -17 11 -24 11 -22 0 -423 193 -462 222 -13 10 -32 18 -42 18 -9 0 -19 4 -21 8 -4 12 -98 62 -115 62 -7 0 -16 6 -19 14 -3 8 -22 22 -42 31 -20 9 -55 27 -77 40 -22 13 -54 32 -72 42 -165 92 -223 134 -223 159 0 18 18 17 56 -4 72 -39 111 -61 154 -84 25 -14 71 -39 102 -56 32 -17 70 -40 84 -51 15 -12 31 -21 37 -21 6 0 18 -7 28 -16 21 -19 264 -147 319 -168 8 -3 24 -11 35 -18 41 -23 52 -29 135 -69 115 -55 174 -81 245 -108 33 -13 81 -32 108 -42 26 -11 66 -24 90 -29 23 -5 74 -17 112 -25 127 -29 168 -34 351 -41 177 -7 182 -6 193 14 9 17 24 21 98 27 49 3 107 8 130 11 43 4 99 31 143 69 14 11 38 27 54 35 83 42 235 301 236 402 0 15 5 30 10 33 6 3 10 23 10 44 0 73 12 131 27 131 12 0 14 -16 9 -92z m-3346 -127 c0 -11 -5 -23 -11 -26 -5 -4 -20 -26 -32 -50 -12 -23 -39 -68 -59 -99 -21 -31 -38 -60 -38 -65 0 -5 -11 -23 -25 -39 -13 -16 -29 -40 -35 -53 -6 -13 -26 -49 -45 -79 -18 -30 -48 -82 -65 -115 -18 -33 -37 -66 -42 -73 -12 -13 -35 -54 -68 -117 -11 -22 -32 -58 -46 -80 -13 -22 -27 -47 -30 -55 -3 -8 -10 -22 -15 -30 -5 -8 -26 -47 -45 -87 -20 -40 -42 -77 -50 -84 -8 -6 -14 -18 -14 -26 0 -8 -9 -26 -20 -40 -11 -14 -20 -32 -20 -39 0 -7 -14 -37 -31 -66 -17 -29 -36 -62 -41 -73 -5 -11 -27 -51 -48 -90 -37 -68 -212 -415 -224 -445 -3 -8 -10 -22 -15 -30 -5 -8 -21 -42 -36 -75 -15 -33 -31 -67 -36 -75 -5 -8 -18 -35 -30 -60 -11 -24 -40 -85 -65 -136 -24 -50 -44 -96 -44 -101 0 -6 -7 -16 -15 -23 -8 -7 -15 -23 -15 -36 0 -12 -4 -26 -10 -29 -5 -3 -10 -14 -10 -24 0 -10 -7 -24 -15 -31 -8 -7 -15 -19 -15 -26 0 -7 -16 -49 -36 -91 -57 -125 -62 -136 -82 -183 -11 -25 -34 -81 -52 -125 -18 -44 -37 -84 -41 -89 -5 -6 -9 -16 -9 -23 0 -8 -9 -33 -20 -55 -11 -23 -20 -47 -20 -53 0 -16 -29 -73 -41 -80 -5 -4 -9 -14 -9 -23 0 -10 -9 -35 -20 -57 -11 -22 -20 -47 -20 -57 0 -9 -4 -19 -9 -22 -4 -3 -19 -34 -31 -68 -13 -35 -29 -76 -35 -93 -7 -16 -23 -57 -35 -90 -12 -33 -33 -84 -46 -113 -13 -29 -24 -57 -24 -62 0 -8 -35 -103 -60 -165 -26 -61 -60 -163 -60 -176 0 -8 -4 -19 -9 -24 -5 -6 -16 -30 -24 -55 -9 -25 -26 -72 -38 -105 -73 -202 -91 -254 -100 -285 -6 -19 -18 -53 -28 -75 -10 -22 -26 -70 -37 -107 -10 -38 -22 -68 -25 -68 -4 0 -10 -17 -13 -37 -4 -21 -15 -63 -25 -93 -10 -30 -33 -102 -51 -160 -18 -58 -36 -112 -41 -121 -4 -9 -11 -34 -15 -55 -6 -36 -23 -87 -44 -139 -5 -11 -11 -31 -14 -45 -15 -74 -44 -178 -56 -199 -11 -22 -33 -95 -46 -161 -3 -14 -8 -32 -12 -40 -3 -8 -7 -22 -8 -30 -2 -8 -12 -49 -24 -90 -12 -41 -25 -88 -29 -105 -4 -17 -14 -31 -25 -33 -15 -3 -18 1 -13 20 3 12 12 50 20 83 14 55 41 149 55 185 3 8 7 22 8 30 4 30 29 115 35 120 3 3 9 16 12 30 6 27 29 118 48 193 7 26 16 47 21 47 4 0 8 9 8 20 0 22 23 114 38 150 16 37 88 268 102 325 6 28 16 59 20 70 19 46 52 142 57 165 2 14 8 34 13 45 26 66 42 111 70 205 18 58 43 133 56 167 13 34 24 68 24 75 0 8 4 18 9 24 5 5 23 52 41 104 18 52 41 113 51 134 10 22 19 46 19 53 0 7 8 32 19 56 10 23 29 69 41 102 12 33 25 67 30 75 4 9 11 31 15 50 4 19 16 53 27 75 11 22 26 60 35 85 8 25 23 63 33 85 10 22 23 56 30 75 8 19 19 42 25 50 6 8 18 35 25 60 7 25 20 52 27 61 7 8 13 20 13 25 0 11 78 213 91 234 5 8 12 22 15 30 9 21 54 122 65 142 5 10 9 22 9 27 0 6 18 49 41 98 45 98 49 107 80 178 12 28 33 75 46 105 50 109 80 178 97 220 3 8 10 22 15 30 5 8 19 35 32 60 12 25 29 56 36 70 19 37 150 311 162 340 6 14 16 34 23 45 6 11 15 27 19 35 5 8 35 66 69 127 33 62 60 119 60 126 0 7 5 18 12 25 7 7 28 43 48 81 80 157 113 217 126 232 8 8 14 19 14 23 0 4 9 19 20 33 11 14 20 31 20 38 0 11 47 96 117 213 13 20 32 56 43 79 11 23 25 45 31 49 6 3 18 21 26 38 8 17 25 49 38 71 13 22 34 56 45 75 11 19 34 55 50 80 16 25 38 61 47 80 10 19 28 48 40 63 13 16 23 35 23 43 0 8 10 14 25 14 18 0 25 -5 25 -19z m463 -79 c21 -42 43 -84 47 -92 5 -8 32 -60 60 -115 27 -55 54 -107 59 -115 5 -8 12 -22 15 -30 6 -15 10 -23 34 -65 7 -11 19 -37 28 -57 9 -21 20 -38 24 -38 7 0 18 -19 71 -122 11 -21 24 -38 28 -38 5 0 15 -15 21 -34 6 -19 18 -40 26 -47 8 -7 22 -26 30 -43 28 -58 51 -99 68 -120 25 -32 64 -92 86 -136 11 -22 29 -44 40 -50 11 -6 20 -21 20 -33 0 -13 15 -38 35 -57 19 -19 35 -38 35 -43 0 -6 15 -28 33 -51 19 -23 46 -61 62 -86 15 -25 47 -66 71 -92 24 -26 44 -52 44 -57 0 -6 28 -41 63 -78 35 -38 77 -88 95 -113 47 -67 609 -626 646 -644 18 -8 53 -37 78 -64 26 -27 52 -52 60 -56 34 -18 57 -33 88 -63 19 -17 45 -38 59 -45 15 -7 43 -27 64 -45 20 -18 42 -33 48 -33 7 0 29 -16 50 -35 22 -19 48 -35 59 -35 11 0 20 -4 20 -10 0 -5 21 -21 48 -35 26 -14 67 -39 92 -55 25 -16 52 -32 60 -36 8 -3 22 -9 30 -14 8 -5 78 -41 154 -80 94 -47 143 -67 150 -60 23 23 75 9 129 -36 16 -13 37 -24 48 -24 11 0 22 -7 25 -14 3 -8 38 -27 77 -41 40 -15 90 -34 112 -42 46 -18 237 -68 340 -89 259 -54 420 -69 700 -66 282 2 382 9 519 33 61 12 125 22 141 24 38 5 258 51 305 64 19 5 58 15 85 22 28 7 55 15 60 19 6 4 29 10 53 14 55 8 345 96 417 126 11 5 52 18 90 30 39 12 102 34 140 50 39 15 97 38 130 50 33 13 80 32 104 43 25 10 63 26 85 33 21 8 44 18 50 23 6 5 57 28 114 50 56 22 110 45 120 50 9 6 76 38 147 72 185 88 456 222 550 273 81 44 148 78 175 90 8 3 35 19 60 35 25 16 70 42 100 57 30 15 84 45 119 66 34 21 65 38 68 38 3 0 34 18 69 40 35 22 70 40 78 40 7 0 19 7 26 15 7 8 18 15 25 15 7 0 24 9 38 20 14 11 31 20 38 20 7 0 31 8 53 19 140 63 210 92 239 98 18 3 48 13 67 23 19 9 62 23 95 30 33 7 67 19 76 27 8 7 28 13 42 13 15 0 44 6 64 14 21 8 83 24 138 36 55 12 114 26 130 31 31 9 106 22 225 39 36 5 85 14 110 20 58 13 279 42 349 45 31 2 57 9 62 17 5 8 9 9 9 2 0 -8 38 -10 133 -7 201 6 238 11 244 34 5 17 11 19 52 14 25 -4 64 -12 86 -18 22 -6 44 -10 48 -8 5 1 34 -3 65 -8 32 -6 138 -13 237 -16 99 -3 196 -7 215 -9 168 -16 432 -48 460 -56 19 -4 64 -13 100 -20 36 -6 115 -19 175 -29 61 -11 151 -28 200 -39 50 -12 107 -23 128 -27 31 -5 37 -10 37 -30 0 -14 -4 -25 -8 -25 -5 0 -93 18 -196 40 -104 23 -234 48 -289 56 -56 8 -118 19 -137 24 -58 15 -471 58 -680 71 -158 10 -212 10 -285 -1 -154 -22 -194 -24 -213 -7 -14 13 -41 15 -147 11 -119 -3 -344 -23 -520 -44 -38 -5 -108 -14 -155 -19 -47 -6 -94 -13 -105 -17 -11 -3 -54 -12 -95 -20 -152 -29 -204 -42 -340 -81 -47 -13 -98 -28 -115 -32 -68 -19 -181 -54 -200 -62 -11 -5 -46 -17 -78 -27 -32 -11 -63 -24 -70 -31 -6 -6 -17 -11 -24 -11 -8 0 -44 -14 -81 -31 -136 -62 -177 -81 -192 -90 -8 -4 -42 -21 -75 -38 -34 -16 -67 -36 -74 -45 -7 -9 -18 -16 -24 -16 -5 0 -25 -11 -43 -25 -18 -14 -39 -25 -48 -25 -8 0 -21 -6 -28 -13 -16 -14 -45 -31 -143 -82 -38 -21 -75 -41 -81 -46 -10 -8 -45 -28 -154 -86 -25 -13 -54 -29 -65 -35 -11 -6 -27 -15 -35 -20 -8 -4 -25 -12 -37 -18 -41 -17 -168 -80 -183 -90 -14 -9 -188 -92 -330 -157 -57 -27 -155 -69 -245 -108 -16 -7 -55 -23 -85 -37 -30 -14 -93 -39 -140 -57 -47 -18 -98 -39 -115 -46 -16 -7 -46 -16 -65 -20 -19 -4 -55 -17 -80 -29 -25 -12 -93 -37 -150 -55 -58 -18 -121 -39 -140 -46 -19 -7 -69 -23 -110 -35 -41 -12 -86 -26 -100 -31 -22 -7 -210 -55 -375 -95 -104 -26 -319 -61 -540 -90 -153 -19 -578 -18 -750 2 -135 16 -141 17 -245 38 -181 36 -170 34 -315 75 -99 28 -226 71 -250 84 -11 6 -54 17 -95 24 -129 24 -131 25 -142 49 -7 14 -34 35 -67 50 -104 48 -256 126 -311 160 -75 45 -120 71 -155 88 -16 8 -41 26 -54 40 -14 14 -32 26 -41 26 -9 0 -29 14 -45 30 -16 17 -34 30 -42 30 -7 0 -35 20 -63 45 -28 25 -56 45 -62 45 -6 0 -35 22 -64 50 -29 27 -58 50 -64 50 -7 0 -44 30 -84 66 -39 37 -87 77 -106 89 -42 27 -447 434 -517 520 -28 33 -80 93 -116 133 -37 39 -67 76 -67 80 0 4 -22 32 -50 62 -27 30 -50 59 -50 64 0 5 -20 32 -44 60 -23 28 -50 65 -59 81 -8 17 -25 39 -37 50 -12 11 -30 36 -40 55 -10 19 -28 45 -39 57 -12 12 -21 28 -21 36 0 7 -11 24 -24 37 -14 12 -34 41 -45 64 -10 23 -26 48 -35 55 -9 8 -16 18 -16 24 0 5 -10 24 -23 41 -24 32 -72 112 -95 156 -6 14 -23 43 -36 65 -49 79 -67 111 -104 177 -20 37 -43 73 -50 80 -6 6 -12 18 -12 26 0 7 -13 36 -29 65 -35 63 -86 163 -100 197 -6 14 -15 32 -20 40 -5 8 -14 26 -20 40 -7 14 -23 43 -36 65 -31 51 -32 75 -2 75 18 0 30 -15 60 -78z m-407 -8 c-8 -27 -40 -121 -71 -209 -31 -88 -65 -194 -76 -235 -11 -41 -24 -84 -29 -95 -10 -22 -19 -53 -61 -210 -52 -195 -79 -298 -99 -390 -53 -240 -63 -284 -76 -330 -8 -27 -18 -75 -24 -105 -14 -85 -37 -203 -65 -340 -15 -69 -35 -174 -45 -235 -10 -60 -23 -130 -29 -155 -5 -25 -15 -85 -21 -135 -6 -49 -18 -124 -26 -165 -8 -41 -19 -95 -24 -120 -5 -25 -14 -94 -20 -155 -6 -60 -15 -123 -20 -140 -9 -30 -33 -207 -32 -235 1 -8 -4 -46 -10 -85 -6 -38 -12 -88 -14 -110 -1 -22 -10 -107 -18 -190 -9 -82 -23 -226 -31 -320 -8 -93 -17 -192 -20 -220 -19 -187 -40 -516 -50 -775 -1 -36 -5 -110 -8 -165 -10 -152 -18 -476 -18 -712 0 -206 0 -213 -20 -213 -19 0 -19 6 -15 282 3 156 10 409 17 563 6 154 12 312 14 350 1 39 7 147 13 240 7 94 14 204 16 245 9 167 37 518 45 570 5 30 14 105 21 165 13 132 59 518 70 595 4 30 13 102 19 160 7 57 16 109 20 115 5 5 11 44 15 85 4 41 11 98 16 125 6 28 14 79 20 115 8 55 42 248 81 460 5 30 14 80 18 111 5 30 16 82 24 115 9 32 20 86 26 119 15 81 56 275 76 355 9 36 20 88 25 115 5 28 18 86 30 130 22 85 24 91 64 255 15 58 31 114 36 125 5 11 23 67 40 125 81 268 104 339 126 393 13 32 24 64 24 72 0 21 40 109 53 117 23 14 28 -10 13 -58z m84 12 c0 -18 -9 -101 -19 -182 -21 -158 -29 -240 -37 -369 -29 -485 -33 -574 -36 -935 -3 -378 25 -902 63 -1175 6 -44 13 -100 15 -125 5 -78 46 -384 64 -485 6 -33 18 -103 26 -155 29 -185 64 -383 100 -555 3 -16 16 -84 29 -150 14 -66 34 -160 45 -210 11 -49 27 -126 35 -170 8 -44 21 -102 29 -130 8 -27 26 -104 41 -170 15 -66 34 -145 42 -175 8 -30 19 -73 23 -95 5 -22 16 -65 24 -95 9 -30 16 -64 16 -75 0 -11 6 -29 14 -40 7 -11 16 -36 19 -55 3 -19 19 -84 36 -145 17 -60 46 -166 65 -235 37 -136 72 -252 87 -288 14 -34 11 -42 -13 -42 -19 0 -26 10 -41 58 -9 31 -17 62 -17 68 0 6 -9 33 -19 60 -11 27 -29 87 -41 134 -29 111 -41 151 -52 175 -5 11 -13 43 -18 70 -5 28 -21 91 -35 140 -15 50 -31 110 -35 135 -5 25 -14 61 -20 80 -7 19 -16 53 -20 75 -5 22 -14 60 -20 85 -6 25 -15 65 -20 90 -5 25 -23 101 -40 170 -18 69 -38 157 -45 195 -8 39 -19 90 -24 115 -33 143 -44 195 -61 288 -10 57 -23 116 -29 130 -5 15 -17 77 -26 137 -14 103 -24 156 -46 265 -26 127 -95 611 -109 760 -6 68 -16 132 -21 141 -5 9 -8 37 -7 61 0 23 -5 108 -11 188 -7 80 -14 174 -16 210 -2 36 -6 97 -9 135 -5 58 -19 447 -20 550 -1 67 16 560 24 700 27 472 33 562 45 650 3 17 7 50 10 75 10 86 28 150 42 150 8 0 13 -12 13 -34z m94 12 c3 -13 8 -106 11 -208 5 -165 38 -468 64 -605 6 -27 15 -79 21 -115 22 -125 42 -226 62 -310 11 -47 26 -114 34 -150 20 -87 29 -125 47 -185 9 -27 30 -99 47 -160 17 -60 35 -114 39 -120 5 -5 14 -35 21 -65 7 -30 16 -59 20 -65 4 -5 12 -28 18 -50 10 -39 65 -201 81 -240 9 -21 79 -203 113 -295 12 -30 33 -80 49 -110 15 -30 31 -66 35 -80 6 -22 31 -79 101 -230 32 -68 140 -290 152 -310 5 -8 34 -67 66 -130 31 -63 60 -119 65 -125 4 -5 27 -48 51 -95 23 -47 48 -92 55 -100 6 -8 29 -48 50 -88 57 -107 67 -124 92 -159 12 -17 22 -35 22 -40 0 -4 18 -33 40 -63 22 -30 49 -74 61 -97 11 -23 27 -47 35 -54 8 -6 14 -17 14 -24 0 -8 10 -26 23 -42 13 -15 36 -50 53 -76 16 -27 38 -64 49 -82 20 -33 34 -52 92 -128 17 -23 42 -61 54 -85 12 -24 28 -46 35 -49 8 -3 14 -11 14 -19 0 -8 15 -31 33 -51 18 -21 45 -58 59 -83 14 -25 35 -54 47 -64 12 -11 21 -25 21 -32 0 -7 20 -33 44 -58 24 -25 50 -60 57 -79 12 -34 53 -67 82 -67 17 0 39 -31 82 -114 16 -32 37 -72 45 -88 9 -16 42 -56 73 -88 31 -33 57 -66 57 -74 0 -7 29 -44 64 -82 34 -38 71 -84 80 -102 9 -18 52 -68 96 -112 44 -44 87 -94 96 -112 9 -18 27 -41 40 -51 13 -10 29 -27 34 -38 9 -16 7 -19 -15 -19 -18 0 -31 9 -43 30 -9 16 -22 30 -28 30 -12 0 -132 130 -149 161 -6 10 -38 49 -71 86 -33 37 -77 92 -96 120 -20 29 -50 64 -67 79 -17 14 -46 51 -65 82 -33 54 -95 116 -174 173 -33 24 -37 31 -38 77 -1 44 -5 53 -38 82 -20 18 -46 49 -56 69 -10 20 -31 50 -47 66 -16 17 -34 43 -42 60 -7 16 -21 35 -32 43 -11 7 -28 30 -38 50 -10 20 -29 46 -41 57 -12 11 -29 37 -37 58 -8 20 -19 37 -23 37 -8 0 -81 108 -112 164 -9 17 -28 42 -42 55 -14 14 -26 31 -26 38 0 8 -10 29 -23 46 -12 18 -27 39 -32 49 -6 9 -32 49 -60 90 -27 40 -55 84 -61 98 -6 14 -18 31 -27 39 -10 7 -17 18 -17 24 0 5 -11 25 -25 43 -14 18 -25 37 -25 43 0 10 -16 37 -87 147 -24 36 -43 71 -43 77 -1 7 -16 37 -35 67 -18 30 -43 75 -55 100 -12 25 -25 52 -30 60 -5 8 -25 47 -45 85 -20 39 -47 90 -60 115 -59 113 -135 277 -135 291 0 9 -9 24 -19 33 -11 10 -22 29 -25 42 -4 14 -22 57 -40 97 -69 148 -199 467 -261 642 -68 191 -72 202 -125 368 -45 141 -63 200 -116 395 -8 29 -14 63 -14 76 0 13 -6 39 -14 57 -8 19 -21 72 -30 119 -9 47 -25 128 -37 180 -19 86 -30 161 -59 393 -5 43 -17 116 -25 162 -9 46 -15 90 -14 97 3 14 -8 250 -17 366 -4 67 -4 72 15 72 13 0 22 -8 25 -22z m8470 -3937 c42 -47 -10 -117 -71 -95 -30 10 -39 37 -29 79 9 37 72 47 100 16z"
       id="path8" />
  </g>
  <g
     style="fill:#000000;stroke:none"
     transform="matrix(0.024,0,0,-0.024,0.00254765,372.44872)"
     id="g2993">
    <path
       inkscape:connector-curvature="0"
       d="m 4154,6594 c -22,-21 -25,-31 -19,-62 4,-20 12,-43 18,-51 54,-65 160,9 127,89 -23,56 -84,67 -126,24 z"
       id="path2995" />
    <path
       inkscape:connector-curvature="0"
       d="m 7266,6597 c -35,-35 -33,-71 3,-108 37,-37 65,-37 101,0 26,25 28,32 20,66 -11,47 -18,54 -63,62 -29,4 -40,1 -61,-20 z m 94,-17 c 32,-32 25,-66 -17,-89 -44,-23 -83,-1 -83,46 0,57 61,82 100,43 z"
       id="path2997" />
    <path
       inkscape:connector-curvature="0"
       d="m 13100,2671 c 0,-5 5,-13 10,-16 15,-9 13,-228 -2,-243 -9,-9 -5,-12 20,-12 l 31,0 -5,58 c -5,66 10,96 48,90 21,-3 23,-9 26,-65 2,-39 -1,-63 -8,-63 -5,0 -10,-4 -10,-10 0,-5 11,-10 25,-10 24,0 25,2 25,63 0,81 -14,101 -68,99 l -41,-2 -3,58 c -3,50 -6,57 -25,60 -13,2 -23,-1 -23,-7 z"
       id="path2999" />
    <path
       inkscape:connector-curvature="0"
       d="m 14226,2648 c -3,-13 -6,-40 -6,-60 l 0,-37 -52,-3 c -73,-4 -77,-28 -4,-28 l 55,0 3,-57 c 2,-32 8,-58 13,-58 6,0 11,26 13,58 l 3,57 55,0 c 71,0 69,23 -2,30 l -49,5 -3,50 c -4,56 -16,78 -26,43 z"
       id="path3001" />
    <path
       inkscape:connector-curvature="0"
       d="m 12909,2640 c -20,-10 -43,-30 -53,-44 -30,-47 -16,-126 32,-169 22,-20 99,-37 88,-19 -4,6 -13,9 -21,6 -19,-8 -65,39 -67,68 0,13 -2,37 -3,53 -3,42 24,94 52,101 13,4 23,10 23,15 0,13 -10,11 -51,-11 z"
       id="path3003" />
    <path
       inkscape:connector-curvature="0"
       d="m 13023,2626 c 15,-14 27,-30 27,-36 0,-5 5,-10 10,-10 10,0 9,45 0,53 -3,2 -18,7 -35,11 l -30,8 28,-26 z"
       id="path3005" />
    <path
       inkscape:connector-curvature="0"
       d="m 14540,2642 c 0,-4 12,-9 26,-10 15,-1 33,-7 40,-13 21,-17 17,-57 -6,-69 -25,-13 -26,-27 -1,-35 27,-8 36,-53 15,-76 -9,-11 -25,-19 -36,-19 -10,0 -18,-4 -18,-10 0,-15 37,-12 70,5 24,13 30,22 30,49 0,20 -8,40 -20,51 -24,21 -25,38 -6,55 12,9 13,18 5,38 -6,15 -16,30 -22,34 -16,10 -77,10 -77,0 z"
       id="path3007" />
    <path
       inkscape:connector-curvature="0"
       d="m 12596,2604 c -57,-58 -13,-146 69,-135 28,3 65,47 65,77 0,33 -51,84 -83,84 -13,0 -36,-12 -51,-26 z"
       id="path3009" />
    <path
       inkscape:connector-curvature="0"
       d="m 14510,2593 c 1,-18 19,-35 29,-28 9,5 9,10 0,21 -12,15 -29,19 -29,7 z"
       id="path3011" />
    <path
       inkscape:connector-curvature="0"
       d="m 13702,2573 c -42,-3 -55,-9 -68,-29 -13,-18 -14,-31 -6,-52 12,-35 10,-81 -7,-111 -12,-21 -11,-26 5,-38 10,-7 29,-12 43,-12 23,2 23,2 4,6 -28,5 -47,29 -39,48 3,10 19,15 46,15 49,0 80,-14 81,-38 0,-13 3,-12 11,6 18,36 -13,62 -74,62 -58,0 -63,15 -10,30 39,10 71,48 58,69 -4,5 3,15 14,21 22,12 27,31 8,28 -7,-1 -37,-3 -66,-5 z m 2,-29 c 20,-19 20,-35 2,-59 -27,-37 -68,6 -48,51 13,28 24,30 46,8 z"
       id="path3013" />
    <path
       inkscape:connector-curvature="0"
       d="m 13330,2557 c -27,-13 -33,-38 -12,-44 7,-3 12,4 12,15 0,24 27,37 46,21 9,-7 12,-28 9,-69 -5,-62 8,-86 39,-74 12,4 13,10 6,24 -6,10 -10,37 -10,59 0,28 -7,48 -20,61 -23,23 -36,24 -70,7 z"
       id="path3015" />
    <path
       inkscape:connector-curvature="0"
       d="m 13480,2550 c 0,-5 4,-11 9,-14 14,-9 6,-117 -10,-127 -9,-6 0,-9 30,-9 36,0 42,2 32,14 -7,8 -11,36 -9,63 2,37 7,48 20,48 15,0 49,23 38,26 -25,6 -110,5 -110,-1 z"
       id="path3017" />
    <path
       inkscape:connector-curvature="0"
       d="m 13821,2534 c -27,-35 -27,-77 2,-108 33,-37 97,-37 112,1 5,15 4,15 -12,2 -40,-34 -98,-5 -86,42 4,15 14,19 54,19 26,0 50,4 53,9 10,15 -34,61 -57,60 -15,0 -17,-2 -7,-6 19,-8 40,-35 34,-45 -3,-5 -21,-8 -40,-8 -26,0 -34,4 -34,18 0,10 5,23 12,30 8,8 9,12 1,12 -6,0 -21,-12 -32,-26 z"
       id="path3019" />
    <path
       inkscape:connector-curvature="0"
       d="m 14507,2494 c -14,-14 -6,-41 18,-64 14,-13 25,-19 25,-13 0,6 -7,13 -15,17 -8,3 -12,12 -9,20 7,17 -9,50 -19,40 z"
       id="path3021" />
    <path
       inkscape:connector-curvature="0"
       d="m 13312,2471 c -8,-5 -12,-21 -10,-37 2,-23 9,-30 31,-32 29,-4 37,12 11,22 -11,4 -15,14 -12,31 6,27 1,30 -20,16 z"
       id="path3023" />
    <path
       inkscape:connector-curvature="0"
       d="m 13037,2444 c -10,-13 -24,-24 -32,-24 -8,0 -15,-4 -15,-8 0,-5 14,-7 31,-4 31,5 43,19 37,46 -2,10 -8,8 -21,-10 z"
       id="path3025" />
    <path
       inkscape:connector-curvature="0"
       d="m 13100,2231 c 0,-6 5,-13 10,-16 15,-9 13,-218 -2,-233 -9,-9 -9,-12 3,-13 7,-1 26,-3 42,-5 29,-3 37,10 12,20 -18,6 -20,61 -5,102 7,18 7,30 -1,40 -6,7 -9,25 -8,41 5,61 0,73 -26,73 -14,0 -25,-4 -25,-9 z"
       id="path3027" />
    <path
       inkscape:connector-curvature="0"
       d="m 12939,2219 c -65,-17 -99,-60 -99,-126 0,-78 64,-133 147,-126 55,4 73,17 73,50 0,24 0,24 -26,-6 -20,-25 -34,-31 -63,-31 -24,0 -44,7 -53,18 -17,19 -35,70 -33,92 1,8 3,28 3,43 1,15 13,39 27,53 21,21 33,25 65,21 22,-2 37,-1 35,3 -7,12 -48,17 -76,9 z"
       id="path3029" />
    <path
       inkscape:connector-curvature="0"
       d="m 13030,2206 c 0,-14 24,-56 32,-56 17,0 3,55 -14,58 -10,2 -18,1 -18,-2 z"
       id="path3031" />
    <path
       inkscape:connector-curvature="0"
       d="m 14570,2200 c -33,-5 -34,-6 -13,-18 20,-11 21,-19 20,-109 -2,-94 -3,-97 -27,-104 -16,-4 2,-7 45,-7 43,0 60,3 45,7 -24,7 -25,10 -30,121 l -5,115 -35,-5 z"
       id="path3033" />
    <path
       inkscape:connector-curvature="0"
       d="m 12594,2155 c -37,-37 -31,-91 14,-121 28,-19 38,-21 63,-12 43,15 62,48 53,92 -12,66 -83,88 -130,41 z m 97,-16 c 24,-24 19,-64 -9,-86 -23,-17 -43,-16 -70,3 -28,19 -29,57 -2,84 26,26 55,25 81,-1 z"
       id="path3035" />
    <path
       inkscape:connector-curvature="0"
       d="m 13744,2139 c -4,-7 -20,-9 -40,-6 -24,4 -40,0 -59,-14 -25,-21 -34,-62 -15,-74 12,-7 3,-73 -11,-91 -22,-28 18,-65 68,-63 25,1 24,2 -10,11 -73,20 -58,63 20,59 59,-3 72,-14 48,-41 -10,-11 -13,-20 -7,-20 6,0 19,12 29,26 23,36 7,59 -44,60 -48,1 -85,19 -65,32 11,8 11,13 1,29 -19,31 -4,73 26,73 15,0 25,-6 25,-14 0,-8 3,-21 6,-29 3,-8 -2,-22 -11,-31 -9,-9 -12,-16 -6,-16 18,0 53,41 47,55 -2,7 4,21 14,30 11,10 17,22 14,26 -7,12 -21,11 -30,-2 z"
       id="path3037" />
    <path
       inkscape:connector-curvature="0"
       d="m 13180,2120 c 0,-5 6,-7 13,-4 8,3 19,-2 26,-9 16,-20 9,-116 -9,-127 -13,-9 -13,-10 0,-11 8,0 25,-2 38,-3 25,-3 39,9 22,19 -5,3 -10,27 -10,53 0,57 -21,92 -56,92 -13,0 -24,-4 -24,-10 z"
       id="path3039" />
    <path
       inkscape:connector-curvature="0"
       d="m 13315,2110 c -14,-15 -16,-23 -7,-32 8,-8 13,-7 18,8 17,52 16,54 -11,24 z"
       id="path3041" />
    <path
       inkscape:connector-curvature="0"
       d="m 13362,2123 c 21,-5 31,-30 19,-51 -6,-10 -5,-24 1,-35 8,-15 6,-24 -10,-39 -11,-11 -25,-17 -31,-14 -15,9 -14,39 2,55 10,10 8,12 -8,9 -28,-5 -44,-54 -24,-74 12,-11 22,-13 42,-5 15,6 40,8 57,5 19,-4 30,-2 30,5 0,6 -4,11 -10,11 -5,0 -10,23 -10,51 0,65 -13,89 -48,88 -15,-1 -20,-3 -10,-6 z"
       id="path3043" />
    <path
       inkscape:connector-curvature="0"
       d="m 13486,2122 c -15,-3 -16,-6 -5,-12 14,-9 18,-101 5,-130 -6,-15 0,-16 59,-11 6,1 4,5 -2,9 -14,9 -17,28 -15,86 2,35 4,38 26,32 27,-7 44,10 28,26 -6,6 -16,5 -30,-3 -14,-9 -25,-10 -34,-3 -7,6 -22,9 -32,6 z"
       id="path3045" />
    <path
       inkscape:connector-curvature="0"
       d="m 13831,2105 c -54,-46 -35,-128 34,-141 25,-4 35,0 60,27 l 30,33 -29,-22 c -16,-12 -36,-22 -46,-22 -22,0 -46,29 -46,55 1,17 8,20 54,21 29,1 56,4 59,8 12,12 -34,61 -59,64 -16,2 -37,-7 -57,-23 z m 77,-12 c 3,-21 -1,-23 -38,-23 -42,0 -43,4 -17,38 16,20 52,10 55,-15 z"
       id="path3047" />
    <path
       inkscape:connector-curvature="0"
       d="m 14135,2040 c 4,-6 57,-10 126,-10 73,0 119,4 119,10 0,6 -49,10 -126,10 -81,0 -123,-4 -119,-10 z"
       id="path3049" />
  </g>
  <rect
     style="fill:#b9b9b9;fill-opacity:1;stroke:none"
     id="rect3165"
     width="48.936306"
     height="23.116579"
     x="306.29468"
     y="306.48587" />
  <text
     xml:space="preserve"
     style="font-size:8.64000034000000028px;font-style:normal;font-variant:normal;font-weight:bold;font-stretch:normal;line-height:125%;letter-spacing:0px;word-spacing:0px;fill:#000000;fill-opacity:1;stroke:none;font-family:Linux Libertine O;-inkscape-font-specification:Linux Libertine O Bold"
     x="307.41321"
     y="314.40891"
     id="text3157"
     sodipodi:linespacing="125%"><tspan
       sodipodi:role="line"
       id="tspan3159"
       x="307.41321"
       y="314.40891">Charge +3</tspan></text>
  <text
     xml:space="preserve"
     style="font-size:8.64000034000000028px;font-style:normal;font-variant:normal;font-weight:bold;font-stretch:normal;line-height:125%;letter-spacing:0px;word-spacing:0px;fill:#000000;fill-opacity:1;stroke:none;font-family:Linux Libertine O;-inkscape-font-specification:Linux Libertine O Bold"
     x="307.13361"
     y="324.569"
     id="text3161"
     sodipodi:linespacing="125%"><tspan
       sodipodi:role="line"
       id="tspan3163"
       x="307.13361"
       y="324.569">Charge 1</tspan></text>
</svg>
