<?xml version="1.0" encoding="UTF-8" standalone="no"?>
<svg
   xmlns:dc="http://purl.org/dc/elements/1.1/"
   xmlns:cc="http://creativecommons.org/ns#"
   xmlns:rdf="http://www.w3.org/1999/02/22-rdf-syntax-ns#"
   xmlns:svg="http://www.w3.org/2000/svg"
   xmlns="http://www.w3.org/2000/svg"
   xmlns:sodipodi="http://sodipodi.sourceforge.net/DTD/sodipodi-0.dtd"
   xmlns:inkscape="http://www.inkscape.org/namespaces/inkscape"
   version="1.0"
   width="396.480000pt"
   height="208.320000pt"
   viewBox="0 0 396.480000 208.320000"
   preserveAspectRatio="xMidYMid meet"
   id="svg2989"
   sodipodi:docname="fields-of-point-charges.svg">
  <defs
     id="defs3045" />
  <sodipodi:namedview
     pagecolor="#ffffff"
     bordercolor="#666666"
     borderopacity="1"
     objecttolerance="10"
     gridtolerance="10"
     guidetolerance="10"
     inkscape:pageopacity="0"
     inkscape:pageshadow="2"
     inkscape:window-width="1280"
     inkscape:window-height="996"
     id="namedview3043"
     showgrid="false"
     inkscape:zoom="1.3348695"
     inkscape:cx="88.792524"
     inkscape:cy="87.491168"
     inkscape:window-x="0"
     inkscape:window-y="0"
     inkscape:window-maximized="1"
     inkscape:current-layer="svg2989" />
  <metadata
     id="metadata2991">
Created by potrace 1.10, written by Peter Selinger 2001-2011
<rdf:RDF>
  <cc:Work
     rdf:about="">
    <dc:format>image/svg+xml</dc:format>
    <dc:type
       rdf:resource="http://purl.org/dc/dcmitype/StillImage" />
    <dc:title />
  </cc:Work>
</rdf:RDF>
</metadata>
  <g
     style="fill:#b9b9b9;stroke:none"
     transform="matrix(0.024,0,0,-0.024,0,208.32)"
     id="g6">
    <path
       inkscape:connector-curvature="0"
       d="M 0,4340 0,0 l 8260,0 8260,0 -2,4343 c -2,2388 -4,4161 -5,3940 -3,-362 -5,-403 -19,-403 -12,0 -15,6 -9,23 4,12 6,72 6,132 -1,137 -1,212 0,249 1,15 -4,32 -11,36 -7,5 -8,10 -2,14 5,3 10,45 11,93 1,49 4,125 7,171 l 6,82 -4351,0 c -3747,0 -4351,-2 -4351,-14 0,-8 6,-17 12,-19 8,-3 6,-6 -4,-6 -12,-1 -18,6 -18,19 0,18 -6,20 -72,18 -41,-1 -56,-3 -35,-5 54,-6 46,-18 -13,-19 -47,-1 -65,8 -37,19 6,3 -437,6 -985,6 -786,1 -997,-2 -1001,-12 -4,-9 -6,-9 -6,0 -1,10 -589,13 -2821,13 L 0,8680 0,4340 z m 6830,4320 c 0,-5 -7,-10 -15,-10 -8,0 -15,5 -15,10 0,6 7,10 15,10 8,0 15,-4 15,-10 z m -1260,-50 c 0,-5 -9,-10 -20,-10 -11,0 -20,5 -20,10 0,6 9,10 20,10 11,0 20,-4 20,-10 z m 1320,-90 c 0,-5 -4,-10 -10,-10 -5,0 -10,-6 -10,-14 0,-9 -7,-12 -20,-9 -19,5 -19,6 3,24 25,21 37,24 37,9 z M 5440,8295 c 0,-8 -4,-15 -9,-15 -5,0 -11,7 -15,15 -3,9 0,15 9,15 8,0 15,-7 15,-15 z m 2430,-130 c 0,-14 -4,-25 -10,-25 -5,0 -9,11 -8,25 1,14 6,25 10,25 4,0 8,-11 8,-25 z m -235,-59 c 12,-12 12,-15 1,-19 -16,-7 -26,1 -26,20 0,17 8,17 25,-1 z M 4265,7443 c 3,-38 11,-78 17,-89 11,-23 3,-64 -13,-64 -5,0 -9,-15 -9,-34 0,-43 -9,-66 -25,-66 -32,0 -36,268 -5,305 22,26 28,17 35,-52 z M 2567,7058 c 11,-13 26,-34 33,-48 7,-14 26,-41 41,-61 16,-20 29,-49 29,-63 0,-15 7,-40 15,-56 21,-40 1,-48 -26,-11 -12,16 -34,35 -48,41 -24,9 -30,22 -48,98 -12,48 -24,95 -28,105 -10,24 8,21 32,-5 z m 3389,-55 c -1,-20 -7,-38 -14,-41 -7,-2 -12,-17 -12,-32 0,-16 -4,-31 -9,-35 -5,-3 -12,-19 -16,-35 -5,-22 -12,-30 -28,-30 -16,0 -28,-12 -42,-42 -11,-23 -19,-46 -17,-50 1,-4 -7,-8 -18,-8 -15,0 -20,7 -20,28 0,16 7,37 15,48 8,10 15,33 15,51 0,17 5,35 11,39 6,3 8,15 6,26 -4,12 1,21 11,25 9,4 28,18 41,32 18,20 70,60 77,61 0,0 0,-17 0,-37 z m 10551,-335 c -2,-13 -4,-3 -4,22 0,25 2,35 4,23 2,-13 2,-33 0,-45 z M 4901,6385 c -5,-5 -9,-54 -10,-109 0,-91 -2,-100 -25,-121 -28,-26 -56,-86 -56,-121 0,-12 -4,-25 -9,-28 -5,-3 -14,-30 -21,-58 -6,-29 -19,-70 -28,-90 -18,-39 -42,-51 -42,-20 0,24 40,204 51,224 5,10 9,26 9,36 0,10 6,24 12,30 10,10 10,17 0,33 -11,17 -10,27 6,62 11,23 28,61 38,85 10,23 21,42 26,42 4,0 8,10 8,21 0,26 31,53 42,36 4,-6 3,-16 -1,-22 z m -1261,1 c 0,-8 18,-49 39,-92 54,-108 63,-132 49,-136 -13,-5 7,-147 27,-188 11,-22 15,-41 27,-124 4,-28 -20,-31 -31,-4 -18,45 -23,63 -27,96 -2,18 -10,42 -18,54 -9,12 -21,48 -27,80 -9,46 -15,57 -33,60 -19,3 -21,11 -26,98 -6,112 -2,182 11,174 5,-3 9,-11 9,-18 z m 9472,-340 c -14,-57 -34,-105 -60,-146 -12,-19 -22,-38 -22,-42 0,-5 -7,-8 -16,-8 -13,0 -15,7 -10,38 4,20 9,68 13,106 5,59 10,74 36,101 30,32 30,32 50,12 17,-17 18,-25 9,-61 z m -1128,49 c 10,-14 26,-25 35,-26 10,0 12,-2 4,-6 -13,-5 -18,-35 -8,-45 11,-11 13,-169 2,-165 -11,3 -16,11 -40,67 -8,19 -21,48 -28,64 -14,29 -16,106 -4,126 10,16 19,12 39,-15 z M 1300,5760 c 3,-3 31,-17 63,-30 40,-15 62,-31 67,-46 5,-13 21,-26 34,-30 34,-8 53,-31 38,-46 -9,-9 -17,-9 -34,0 -13,6 -40,15 -60,21 -52,13 -178,113 -178,140 0,11 61,3 70,-9 z m 1224,-15 c 9,-14 25,-25 35,-25 10,0 26,-9 36,-20 10,-11 24,-20 32,-20 7,0 13,-4 13,-9 0,-6 12,-16 28,-23 17,-8 28,-22 30,-39 2,-17 38,-62 108,-133 57,-59 104,-114 104,-122 0,-32 -30,-25 -67,16 -21,22 -59,63 -85,91 -27,27 -48,53 -48,57 0,5 -11,15 -25,22 -19,10 -27,11 -39,1 -13,-11 -18,-7 -33,25 -10,21 -37,57 -59,81 -23,23 -44,53 -46,65 -3,13 -9,31 -13,41 -11,26 10,21 29,-8 z m 3420,-1 c 12,-4 13,-11 5,-32 -5,-14 -8,-31 -5,-39 3,-7 2,-13 -2,-13 -15,0 -82,-65 -82,-80 0,-22 -41,-60 -66,-60 -38,0 -54,-11 -54,-36 0,-13 -5,-24 -10,-24 -15,0 -80,-64 -80,-79 0,-6 -6,-11 -13,-11 -7,0 -21,-10 -31,-21 -15,-18 -20,-19 -27,-8 -15,24 -10,47 16,67 14,11 25,24 25,29 0,6 13,20 29,32 16,13 35,37 42,54 7,18 19,38 26,45 7,7 13,22 13,33 0,12 7,19 20,19 11,0 20,3 20,8 0,4 24,21 53,39 28,17 63,43 76,57 28,29 24,28 45,20 z m 1326,-14 c 0,-12 -7,-20 -17,-20 -17,0 -63,-45 -63,-62 0,-23 -33,-39 -80,-40 -28,-1 -53,-5 -56,-10 -3,-4 -14,-8 -25,-8 -11,0 -22,-7 -25,-15 -8,-21 -26,-19 -47,5 -22,27 -22,27 17,40 19,6 37,17 40,25 3,8 11,15 19,15 7,0 24,11 37,25 14,15 43,28 74,35 28,6 58,15 66,20 27,17 60,12 60,-10 z m 413,-30 c 4,-15 0,-20 -13,-20 -22,0 -34,15 -25,30 10,17 32,11 38,-10 z m 3297,-155 c 7,-8 21,-15 32,-15 10,0 21,-7 24,-15 4,-8 12,-15 18,-15 13,0 92,-147 84,-155 -3,-3 -13,4 -23,15 -10,11 -24,20 -31,20 -18,0 -54,31 -54,46 0,7 -13,17 -30,22 -19,7 -32,20 -36,36 -3,14 -10,26 -15,26 -10,0 -12,33 -2,43 10,11 19,8 33,-8 z m 3110,-30 c 0,-8 -4,-15 -10,-15 -5,0 -10,-13 -10,-29 0,-23 -6,-31 -27,-39 -16,-6 -45,-27 -65,-46 -20,-20 -45,-36 -55,-36 -11,0 -24,-5 -31,-12 -9,-9 -15,-9 -23,-1 -8,8 1,23 35,55 25,25 46,48 46,53 0,17 71,74 98,78 15,2 30,5 35,6 4,0 7,-6 7,-14 z M 4248,5386 c 0,-13 4,-45 10,-72 6,-27 17,-84 25,-126 14,-76 14,-77 -10,-102 -23,-25 -23,-28 -22,-228 1,-112 5,-210 9,-218 10,-20 -14,-115 -29,-114 -6,1 -14,2 -18,2 -5,1 -6,36 -5,78 2,42 -1,97 -8,122 -7,29 -8,47 -1,51 5,4 8,66 7,155 -2,122 -5,151 -18,160 -14,10 -15,23 -8,81 13,116 32,219 43,232 13,18 25,8 25,-21 z m 8282,-85 c 5,-11 10,-62 10,-115 0,-53 4,-98 10,-101 6,-4 8,-11 5,-16 -4,-5 -1,-9 5,-9 8,0 10,-14 6,-42 -3,-24 -10,-78 -15,-121 -15,-122 -47,-141 -58,-33 -3,31 -10,59 -14,62 -5,3 -9,20 -9,39 0,19 -4,36 -9,39 -12,8 -2,48 15,62 10,8 14,41 15,115 1,57 3,112 6,122 6,23 20,22 33,-2 z m -8933,-81 c 17,-17 41,-49 52,-71 12,-22 41,-60 64,-84 38,-38 43,-48 39,-80 -3,-26 1,-45 15,-63 11,-15 26,-44 33,-64 8,-21 22,-40 32,-44 10,-3 18,-13 18,-23 0,-10 12,-40 26,-67 15,-27 36,-67 47,-89 12,-22 23,-42 26,-45 4,-3 16,-24 28,-48 21,-40 22,-72 2,-72 -10,0 -79,105 -79,120 0,6 -7,10 -15,10 -8,0 -15,9 -15,20 0,11 -4,20 -8,20 -4,0 -14,20 -21,45 -7,25 -17,45 -22,45 -5,0 -9,9 -9,19 0,10 -7,21 -15,25 -8,3 -15,12 -15,21 0,8 -11,34 -25,56 -14,22 -30,51 -35,65 -5,13 -18,27 -27,30 -45,14 -63,29 -63,49 0,27 -27,95 -38,95 -4,0 -13,26 -19,58 -7,31 -15,67 -19,80 -9,30 6,28 43,-8 z m 1310,-49 c -8,-17 -18,-45 -22,-63 -3,-18 -12,-46 -20,-63 -7,-16 -23,-52 -34,-80 -14,-35 -25,-49 -36,-47 -23,4 -85,-58 -85,-85 0,-12 -6,-26 -12,-30 -14,-9 -29,-33 -78,-128 -17,-33 -38,-67 -46,-76 -8,-8 -14,-23 -14,-32 0,-9 -4,-17 -9,-17 -5,0 -16,-15 -24,-33 -9,-18 -27,-43 -41,-56 l -26,-24 0,24 c 0,21 31,94 53,124 32,44 56,88 62,113 3,17 13,33 21,36 8,3 14,12 14,19 0,8 9,24 20,37 11,13 20,29 20,37 0,7 4,13 9,13 6,0 11,15 13,33 2,22 10,35 25,42 19,8 22,17 21,55 -2,42 1,49 56,105 92,95 96,100 96,112 0,16 33,34 44,23 5,-5 2,-22 -7,-39 z m 6975,-38 c 10,-9 18,-21 18,-27 0,-6 14,-29 30,-50 17,-22 30,-46 30,-54 0,-22 30,-52 52,-52 19,0 54,-62 50,-87 -2,-6 7,-28 18,-48 11,-19 20,-44 20,-53 0,-10 5,-23 10,-28 11,-11 4,-44 -9,-44 -3,0 -13,11 -21,24 -27,43 -113,136 -127,136 -14,0 -17,16 -14,68 2,17 -2,32 -7,32 -6,0 -13,13 -17,30 -4,16 -11,32 -16,35 -5,4 -9,15 -9,25 0,10 -11,32 -25,48 -41,48 -27,85 17,45 z m 1318,-26 c 0,-10 -42,-87 -50,-92 -5,-3 -10,-13 -10,-22 0,-8 -9,-26 -20,-40 -13,-16 -19,-39 -18,-67 0,-38 -4,-47 -46,-87 -25,-24 -46,-49 -46,-55 0,-7 -7,-14 -15,-18 -8,-3 -15,-11 -15,-18 0,-15 -39,-42 -48,-34 -3,4 5,35 17,71 13,35 20,68 17,74 -4,5 -2,12 4,16 5,3 18,26 29,50 14,31 26,44 43,47 14,2 29,15 40,36 9,19 24,39 33,46 9,7 15,20 13,29 -2,10 10,28 27,42 27,22 45,31 45,22 z M 3145,4697 c 17,-6 35,-16 42,-23 7,-6 37,-15 67,-18 50,-7 56,-10 72,-43 22,-49 43,-70 77,-78 15,-4 27,-11 27,-15 0,-5 13,-11 29,-15 16,-3 35,-13 42,-21 6,-8 17,-14 23,-14 6,0 17,-9 23,-19 7,-11 26,-22 43,-26 16,-4 35,-15 40,-26 6,-10 20,-19 30,-19 11,0 29,-9 40,-20 11,-11 26,-20 33,-20 19,0 59,-48 55,-66 -2,-12 -12,-10 -48,10 -25,14 -69,37 -97,51 -29,14 -53,29 -53,34 0,4 -18,14 -41,21 -23,8 -43,20 -46,26 -6,15 -77,54 -98,54 -8,0 -15,7 -15,15 0,9 -9,15 -21,15 -11,0 -27,7 -36,16 -9,8 -28,14 -44,12 -22,-2 -45,10 -98,50 -37,28 -73,52 -79,52 -6,0 -14,9 -17,20 -3,11 -9,20 -13,20 -15,1 -53,40 -48,49 6,10 54,0 111,-22 z m 2295,8 c 0,-9 -8,-19 -17,-22 -40,-15 -75,-79 -52,-94 9,-6 2,-7 -18,-3 -38,7 -63,-12 -63,-48 0,-18 -2,-20 -10,-8 -8,13 -13,13 -40,-2 -19,-11 -41,-15 -64,-11 -19,3 -36,1 -40,-6 -4,-6 -16,-11 -26,-11 -11,0 -35,-13 -53,-30 -19,-16 -42,-30 -51,-30 -9,0 -19,-6 -22,-14 -3,-8 -19,-18 -35,-21 -16,-4 -29,-10 -29,-14 0,-3 -17,-15 -37,-25 -21,-10 -47,-23 -58,-29 -11,-6 -37,-19 -58,-29 -21,-11 -40,-25 -44,-33 -6,-18 -63,-20 -63,-2 1,19 26,47 43,47 8,0 25,11 38,25 14,14 35,25 51,25 17,0 29,7 33,18 3,11 23,24 48,31 23,7 49,19 57,27 9,7 31,20 50,29 104,49 160,91 160,122 0,13 7,26 15,29 8,4 15,13 15,22 0,12 3,13 12,4 15,-15 48,-16 48,-2 0,6 11,10 24,10 14,0 31,7 40,15 8,8 19,15 25,15 6,0 11,4 11,9 0,4 11,6 24,4 13,-3 32,0 43,6 26,15 43,13 43,-4 z m -3425,-19 c 94,-11 105,-15 105,-35 0,-14 10,-21 38,-26 20,-4 43,-11 49,-17 7,-6 19,-8 27,-5 7,3 26,-1 41,-9 15,-8 36,-14 47,-14 44,0 98,-23 98,-42 0,-23 -1,-23 -123,8 -169,43 -180,45 -195,39 -18,-7 -92,14 -113,32 -8,7 -23,13 -33,13 -9,0 -19,6 -22,14 -3,8 -20,20 -37,27 -31,11 -32,12 -8,18 27,7 40,7 126,-3 z m 9428,-66 c 8,0 17,-7 21,-15 3,-8 12,-15 20,-15 8,0 22,-8 32,-17 9,-10 35,-18 58,-19 22,-1 49,-2 58,-3 10,-1 24,-14 33,-31 8,-16 36,-45 63,-64 62,-46 85,-67 79,-73 -7,-7 -142,35 -203,63 -36,16 -54,31 -58,48 -6,23 -74,66 -104,66 -7,0 -15,7 -18,15 -4,8 -15,15 -26,15 -18,0 -48,21 -48,35 0,3 6,12 13,19 10,11 16,11 39,-5 14,-11 33,-19 41,-19 z m -4850,1 c 28,-6 28,-6 10,-27 -10,-11 -30,-24 -45,-28 -16,-3 -28,-12 -28,-20 0,-9 -8,-12 -27,-8 -18,3 -30,-1 -40,-14 -18,-24 -101,-46 -127,-32 -22,12 -177,-9 -188,-25 -3,-6 -28,-11 -55,-11 -40,-1 -48,2 -48,17 0,22 73,51 157,62 29,4 65,14 80,21 15,8 38,14 51,14 16,0 26,7 30,20 5,18 22,24 65,23 6,-1 12,3 12,8 0,10 109,10 153,0 z m 7067,-1 c 0,-30 -25,-60 -50,-60 -15,0 -33,-7 -40,-15 -7,-8 -20,-15 -30,-15 -19,0 -65,-48 -74,-78 -5,-13 -25,-22 -71,-32 -36,-8 -71,-20 -77,-27 -6,-7 -19,-13 -29,-13 -11,0 -28,-5 -39,-12 -41,-26 -29,3 22,54 110,107 139,129 154,117 11,-9 26,-5 69,16 30,14 55,30 55,35 0,4 16,11 35,14 19,4 35,11 35,16 0,6 9,10 20,10 11,0 20,-4 20,-10 z m -3150,-51 c 0,-5 7,-9 15,-9 15,0 52,-17 119,-53 l 28,-15 -43,-7 c -45,-7 -142,-1 -171,10 -9,4 -19,13 -22,21 -3,8 -14,14 -25,14 -22,0 -35,15 -28,33 5,14 127,20 127,6 z m 4134,0 40,-11 -25,-19 c -13,-10 -30,-19 -36,-19 -7,0 -13,-6 -13,-14 0,-18 -22,-26 -68,-26 -21,0 -53,-5 -72,-10 -19,-6 -48,-7 -64,-4 l -29,6 29,24 c 16,13 39,23 52,24 12,0 25,6 28,14 3,8 19,18 35,21 16,4 29,11 29,16 0,12 46,11 94,-2 z M 3433,4041 c 134,2 248,-1 255,-5 7,-4 12,-16 12,-26 0,-17 -13,-18 -260,-15 -245,2 -260,1 -265,-16 -5,-16 -15,-18 -66,-15 -33,2 -65,8 -72,13 -6,6 -31,11 -55,12 -23,0 -50,5 -60,10 -9,5 -25,12 -35,15 -25,8 -12,26 19,26 13,0 24,5 24,11 0,5 4,7 10,4 5,-3 29,-1 52,6 24,7 65,13 92,15 27,1 53,7 59,13 7,7 16,1 29,-20 l 18,-30 243,2 z m 1992,23 c 28,-3 59,-9 70,-14 11,-5 37,-11 57,-15 46,-7 57,-22 26,-34 -74,-30 -78,-31 -153,-37 -33,-3 -64,-9 -68,-14 -12,-11 -80,6 -93,24 -13,18 -56,21 -84,6 -11,-6 -21,-6 -24,-1 -4,5 -90,8 -196,6 -198,-2 -228,3 -214,38 3,9 16,17 28,18 91,3 276,0 284,-5 15,-9 162,6 156,15 -9,14 6,10 22,-6 22,-21 41,-19 59,9 13,19 23,23 48,20 18,-2 55,-7 82,-10 z m -4420,-4 c 3,-5 17,-10 30,-10 63,0 28,-45 -44,-56 -48,-7 -211,14 -211,28 0,4 8,8 18,8 10,0 22,3 26,8 10,9 101,29 143,31 17,0 35,-3 38,-9 z m 6595,-26 c 14,-1 37,-5 53,-9 17,-5 33,-3 42,5 13,10 15,8 15,-13 0,-13 -6,-29 -12,-35 -7,-5 -58,-16 -112,-23 -77,-10 -101,-10 -104,-1 -2,7 -22,12 -45,12 -51,0 -70,11 -65,36 3,16 11,19 51,16 34,-2 52,2 64,13 12,13 25,15 52,9 20,-4 47,-8 61,-10 z m 3990,-19 c 107,-17 120,-20 120,-34 0,-10 -121,-33 -237,-44 -30,-3 -43,0 -43,8 0,16 -73,27 -153,23 -42,-2 -61,2 -67,12 -15,24 18,34 114,32 78,-1 92,1 108,18 14,14 23,17 36,11 9,-6 64,-17 122,-26 z m 968,6 c 8,-5 12,-23 10,-47 l -3,-39 -50,0 c -49,0 -50,0 -53,33 -2,19 -1,40 2,48 6,15 72,19 94,5 z m 1038,-8 c 14,-15 37,-18 116,-19 102,-2 128,-11 128,-45 0,-16 -9,-17 -116,-13 -97,4 -118,2 -128,-11 -9,-12 -17,-13 -46,-4 -31,9 -72,17 -177,36 -81,14 -10,50 123,63 43,4 80,8 81,9 1,0 9,-7 19,-16 z M 4750,3759 c 0,-5 10,-14 23,-20 12,-5 38,-20 59,-32 100,-60 132,-77 149,-77 11,0 19,-7 19,-15 0,-9 9,-15 23,-15 13,0 33,-11 45,-25 13,-14 33,-25 47,-25 16,0 25,-6 25,-15 0,-22 25,-29 60,-16 28,9 33,7 53,-16 51,-60 80,-83 103,-83 13,0 24,-5 24,-10 0,-6 16,-27 35,-47 34,-35 38,-60 6,-48 -9,4 -21,8 -28,9 -7,1 -16,5 -19,9 -4,4 -20,7 -36,7 -15,0 -28,4 -28,9 0,5 -10,12 -22,16 -13,3 -32,10 -43,16 -11,5 -38,15 -60,22 -34,12 -40,19 -43,45 -3,26 -8,32 -28,32 -15,0 -24,6 -24,15 0,8 -9,15 -20,15 -11,0 -20,5 -20,10 0,6 -6,10 -14,10 -8,0 -16,7 -20,15 -3,8 -15,15 -26,15 -11,0 -20,5 -20,10 0,6 -9,10 -21,10 -12,0 -30,11 -41,25 -11,14 -27,25 -37,25 -9,0 -27,9 -39,20 -12,11 -30,20 -42,20 -11,0 -20,6 -20,14 0,8 -18,22 -40,32 -36,16 -51,40 -35,56 8,8 55,-3 55,-13 z m -970,-21 c 0,-14 -26,-34 -76,-58 -22,-10 -47,-26 -54,-35 -7,-8 -17,-15 -22,-15 -5,0 -16,-7 -24,-15 -8,-8 -32,-19 -53,-25 -21,-5 -46,-19 -56,-30 -10,-11 -26,-20 -35,-20 -10,0 -25,-11 -34,-25 -10,-15 -22,-22 -31,-19 -21,8 -65,-22 -65,-44 0,-28 -40,-58 -95,-71 -27,-7 -60,-19 -72,-27 -13,-8 -44,-17 -70,-20 l -48,-5 44,38 c 24,21 73,66 108,99 62,60 65,62 95,50 24,-8 32,-8 35,2 3,6 13,12 23,12 10,0 22,4 25,10 3,5 25,19 48,30 75,36 132,70 147,88 9,10 21,17 28,14 8,-2 22,5 33,17 11,12 28,21 38,21 10,0 29,8 42,19 40,30 69,34 69,9 z m 790,-227 c 0,-6 5,-11 10,-11 6,0 10,-11 10,-25 0,-14 8,-29 20,-35 12,-6 20,-21 20,-35 0,-13 6,-28 13,-32 7,-4 19,-23 27,-42 7,-18 21,-41 30,-50 9,-9 23,-32 30,-51 7,-19 19,-40 27,-47 8,-6 18,-24 22,-40 5,-18 19,-34 40,-44 34,-16 71,-74 71,-110 0,-10 7,-24 15,-33 8,-8 18,-35 21,-60 4,-25 10,-46 14,-46 15,0 17,-59 2,-65 -14,-5 -82,57 -82,77 0,6 -11,21 -25,34 -13,12 -27,34 -31,49 -3,14 -17,33 -29,41 -27,18 -37,48 -22,63 9,9 8,17 -1,31 -6,11 -12,26 -12,34 0,8 -7,16 -15,20 -8,3 -15,15 -15,26 0,11 -7,23 -15,26 -8,4 -15,14 -15,24 0,11 -4,22 -10,25 -5,3 -10,15 -10,25 0,10 -11,32 -25,48 -14,17 -25,34 -25,39 0,6 -11,22 -25,37 -14,15 -25,35 -25,45 0,11 -7,21 -15,25 -8,3 -15,12 -15,21 0,8 -4,15 -9,15 -5,0 -11,18 -15,39 -3,22 -9,47 -12,56 -4,8 12,-2 35,-24 22,-22 41,-44 41,-50 z m 8720,59 c 0,-5 17,-11 38,-15 20,-3 66,-21 102,-38 54,-27 66,-37 68,-59 2,-19 9,-28 21,-28 10,0 26,-9 36,-20 10,-11 25,-20 34,-20 28,-1 75,-46 67,-66 -5,-13 -9,-15 -18,-6 -7,7 -21,12 -33,12 -11,0 -26,9 -33,20 -7,11 -20,20 -30,20 -10,0 -23,5 -29,11 -6,6 -35,13 -64,15 -29,2 -56,9 -60,16 -15,25 -97,108 -107,108 -17,0 -59,44 -55,56 4,12 63,6 63,-6 z m -1510,-37 c -18,-15 -39,-36 -48,-45 -9,-10 -21,-18 -28,-18 -6,0 -30,-19 -52,-42 -23,-23 -42,-37 -42,-30 0,17 -45,15 -59,-2 -7,-8 -25,-18 -41,-21 -16,-3 -34,-13 -41,-21 -22,-26 -92,-55 -103,-43 -8,7 -5,14 9,24 11,8 25,19 32,24 6,6 22,13 36,16 13,4 39,20 56,36 18,16 38,29 46,29 7,0 15,10 17,22 2,12 14,28 28,35 51,26 119,53 133,53 8,0 30,6 48,14 44,19 48,4 9,-31 z m -7796,-17 c -3,-14 -10,-26 -15,-26 -5,0 -9,-8 -9,-19 0,-10 -7,-24 -15,-31 -8,-7 -15,-19 -15,-27 0,-9 -13,-31 -30,-50 -16,-18 -30,-40 -30,-48 0,-7 -11,-26 -23,-42 -13,-15 -27,-40 -31,-55 -3,-16 -11,-28 -16,-28 -6,0 -10,-8 -10,-18 0,-10 -11,-28 -25,-40 -20,-18 -25,-31 -25,-72 0,-42 -4,-52 -25,-66 -14,-9 -25,-22 -25,-29 0,-8 -6,-20 -13,-27 -7,-7 -22,-28 -32,-45 -11,-18 -23,-33 -28,-33 -4,0 -22,-13 -40,-30 -17,-16 -33,-27 -35,-25 -2,2 6,34 19,72 46,142 84,223 105,223 23,0 40,21 65,79 13,28 29,51 36,51 7,0 13,11 13,24 0,13 6,26 13,29 7,2 21,22 32,43 11,21 26,45 33,52 6,7 12,22 12,32 0,10 6,25 13,32 23,25 57,77 57,87 0,14 33,31 43,22 4,-5 5,-20 1,-35 z m 2144,25 c 9,-4 31,-16 49,-25 17,-9 47,-16 66,-16 20,0 38,-4 41,-9 11,-17 67,-21 89,-6 27,19 53,19 61,0 3,-8 12,-15 21,-15 8,0 15,-3 15,-8 0,-4 15,-13 33,-20 87,-36 121,-58 111,-73 -3,-5 -16,-9 -30,-9 -13,0 -24,-4 -24,-10 0,-5 -4,-10 -10,-10 -5,0 -10,7 -10,15 0,12 -16,14 -87,12 -82,-2 -88,0 -99,21 -16,32 -44,51 -76,52 -15,0 -30,5 -33,10 -3,6 -22,10 -41,10 -19,0 -51,7 -71,15 -19,8 -46,15 -58,15 -22,0 -35,17 -35,46 0,16 59,20 88,5 z m -3688,-38 c 16,-15 -50,-41 -139,-57 -55,-10 -103,-21 -106,-26 -3,-4 -21,-11 -40,-14 -20,-4 -45,-15 -56,-24 -20,-17 -152,-44 -173,-36 -7,3 -31,1 -54,-5 -75,-16 -48,11 61,63 93,44 109,49 187,52 47,1 105,10 129,18 24,9 53,16 65,16 12,0 26,4 32,9 19,18 76,21 94,4 z m 8194,8 c 11,-18 -6,-41 -31,-41 -13,0 -31,-6 -38,-12 -38,-34 -49,-39 -95,-45 -33,-4 -50,-11 -50,-19 0,-12 -4,-12 -19,-2 -29,18 -33,46 -8,60 12,6 27,17 32,25 11,15 107,33 135,26 10,-3 21,0 24,6 9,13 43,15 50,2 z m -6379,-299 0,-287 23,-3 c 26,-4 26,0 3,-117 -23,-118 -38,-181 -45,-193 -12,-19 -26,-4 -26,28 0,16 -4,39 -9,52 -5,13 -15,65 -22,117 -12,83 -11,95 2,105 21,15 34,113 18,132 -7,8 -7,14 -1,14 6,0 9,73 8,210 -1,198 0,210 19,224 11,8 22,12 25,9 3,-2 5,-134 5,-291 z m 3063,267 c 9,-13 9,-16 -3,-16 -8,0 -15,9 -15,20 0,11 1,18 3,16 1,-2 8,-11 15,-20 z m 7196,-7 c 86,-3 89,-4 124,-39 34,-34 34,-36 17,-49 -26,-19 -73,-17 -120,6 -22,11 -48,19 -57,20 -10,0 -18,4 -18,9 0,5 -16,18 -35,30 -36,21 -51,50 -17,35 9,-5 57,-10 106,-12 z m -1475,-296 c 0,-5 13,-19 27,-31 17,-15 27,-36 31,-66 3,-24 14,-61 24,-81 11,-21 19,-43 19,-50 0,-7 9,-24 20,-38 22,-29 26,-60 7,-60 -24,0 -57,31 -57,55 0,13 -7,30 -15,39 -8,8 -15,19 -15,25 0,13 -38,53 -72,76 -17,10 -28,26 -28,39 0,12 -7,31 -15,42 -8,10 -15,26 -15,34 0,8 -6,27 -14,41 -18,34 -27,75 -19,83 7,6 120,-93 122,-108 z m -917,72 c -7,-7 -12,-21 -12,-32 0,-12 -7,-34 -15,-50 -8,-15 -15,-37 -15,-47 0,-11 -4,-19 -10,-19 -5,0 -10,-11 -10,-24 0,-32 -10,-56 -23,-56 -15,0 -57,-41 -57,-56 0,-6 -7,-14 -15,-18 -8,-3 -15,-15 -15,-27 0,-12 -11,-30 -25,-41 -14,-11 -25,-25 -25,-32 0,-23 -22,-36 -42,-25 -17,9 -17,12 -3,25 8,9 15,24 15,35 0,10 4,19 9,19 5,0 17,18 27,40 10,22 21,40 26,40 4,0 8,24 8,53 0,44 4,55 25,71 14,10 25,24 25,30 0,6 9,18 20,26 11,8 20,20 20,27 0,7 14,25 31,40 18,16 37,33 43,40 7,7 15,8 21,2 5,-6 5,-13 -3,-21 z m 422,-120 c 3,-18 7,-40 7,-48 0,-8 7,-51 16,-94 14,-73 14,-81 -1,-91 -12,-10 -16,-31 -15,-101 1,-91 -7,-144 -21,-144 -23,0 -31,36 -31,139 -1,86 -4,111 -14,111 -18,0 -23,19 -14,55 4,16 13,65 19,109 16,104 40,134 54,64 z m -4780,-47 c 20,-8 16,-12 -18,-25 -13,-4 -17,-2 -13,8 3,8 1,17 -6,20 -7,3 -6,4 3,5 8,0 24,-4 34,-8 z m -260,-46 c 3,-9 0,-15 -9,-15 -8,0 -15,7 -15,15 0,8 4,15 9,15 5,0 11,-7 15,-15 z M 5643,2673 c 9,-3 17,-11 17,-18 0,-6 9,-20 20,-30 11,-10 20,-24 20,-32 0,-7 11,-13 25,-13 20,0 25,-5 25,-26 0,-17 6,-28 20,-31 11,-3 20,-9 20,-14 0,-12 81,-70 90,-64 11,7 26,-14 39,-57 7,-21 18,-38 24,-38 13,-1 57,-87 49,-95 -14,-13 -42,-1 -81,35 -23,22 -51,40 -60,40 -10,0 -24,11 -31,25 -7,14 -19,25 -26,25 -13,0 -24,22 -24,51 0,10 -7,19 -15,19 -8,0 -15,6 -15,13 0,12 -87,112 -163,189 -39,38 -39,38 -15,47 16,6 29,5 43,-5 11,-8 28,-17 38,-21 z m -2730,-36 c -15,-17 -33,-37 -40,-44 -6,-7 -14,-22 -18,-33 -3,-10 -15,-22 -26,-25 -10,-4 -19,-11 -19,-16 0,-5 -20,-28 -45,-51 -32,-31 -45,-50 -45,-70 0,-16 -4,-28 -9,-28 -9,0 -35,-21 -81,-63 -8,-8 -25,-18 -38,-21 -12,-4 -36,-19 -52,-33 -34,-28 -53,-24 -27,5 10,10 17,26 17,36 0,9 12,29 28,44 15,15 36,45 46,66 14,26 28,39 48,43 15,3 43,20 63,38 19,18 38,35 42,37 5,1 35,32 67,68 60,66 94,92 109,83 5,-3 -4,-19 -20,-36 z m 4369,-9 c -6,-24 -15,-29 -32,-17 -10,6 -11,9 -2,9 6,0 12,6 12,13 0,8 6,14 14,14 8,0 11,-8 8,-19 z m 3888,-15 c 0,-5 -15,-24 -33,-43 -18,-19 -50,-59 -72,-87 -26,-36 -46,-53 -61,-53 -12,0 -27,-7 -34,-15 -7,-8 -16,-13 -20,-10 -13,8 32,104 51,110 9,3 27,19 39,35 13,17 31,30 41,30 10,0 21,5 24,11 12,18 65,36 65,22 z m 2783,-33 c 11,-8 25,-21 32,-27 8,-7 18,-13 24,-13 6,0 11,-4 11,-10 0,-5 5,-10 12,-10 19,0 48,-31 48,-52 0,-10 5,-18 10,-18 16,0 12,-46 -5,-60 -9,-8 -15,-8 -15,-2 0,6 -9,14 -21,17 -30,10 -99,74 -99,93 0,8 -11,30 -25,48 -14,18 -25,37 -25,43 0,6 -5,11 -11,11 -5,0 -7,4 -4,10 6,10 30,-1 68,-30 z m -7161,-96 c -3,-17 -7,-22 -12,-13 -9,13 -2,39 10,39 4,0 5,-12 2,-26 z m -5297,-50 c 0,-12 -13,-26 -37,-37 -22,-11 -38,-27 -42,-42 -4,-16 -13,-25 -26,-25 -11,0 -29,-4 -40,-10 -11,-5 -29,-14 -40,-20 -11,-5 -29,-10 -39,-10 -11,0 -22,-4 -25,-9 -3,-5 -15,-11 -26,-14 -15,-4 -20,0 -20,14 0,13 17,29 46,47 26,15 63,42 83,59 25,23 46,33 69,33 19,0 42,8 54,20 26,24 43,21 43,-6 z m 5561,-10 c 25,-3 68,-4 95,-1 31,4 47,2 44,-3 -4,-6 -13,-10 -21,-10 -33,0 6,-82 46,-95 21,-7 27,-39 9,-51 -6,-3 -16,-1 -22,5 -6,6 -18,11 -27,11 -9,0 -35,9 -58,20 -22,11 -50,20 -62,20 -15,0 -20,6 -20,25 0,15 -7,28 -17,32 -10,3 -30,15 -45,25 -25,18 -26,20 -11,38 14,15 18,16 30,5 7,-8 34,-17 59,-21 z M 3754,2070 c -14,-63 -27,-124 -28,-136 -1,-11 -5,-25 -9,-31 -3,-5 -6,-34 -5,-64 1,-61 -19,-129 -39,-129 -8,0 -16,-13 -19,-30 -4,-16 -10,-30 -15,-30 -5,0 -9,-8 -9,-17 -1,-19 -29,-63 -31,-47 -3,30 0,100 6,173 7,75 11,88 36,108 21,18 29,38 38,87 6,35 20,92 31,126 11,35 20,72 20,84 0,23 43,50 48,31 1,-6 -9,-62 -24,-125 z m 992,117 c 0,-1 6,-27 12,-57 21,-102 36,-150 49,-150 8,0 13,-12 13,-30 0,-17 8,-47 19,-68 10,-20 22,-53 26,-72 10,-46 12,-181 3,-186 -16,-10 -48,22 -48,47 0,14 -9,38 -20,52 -11,14 -20,32 -20,40 0,8 -7,27 -15,43 -9,19 -11,32 -5,38 12,12 13,76 1,76 -4,0 -11,24 -15,53 -3,30 -13,74 -22,98 -8,24 -16,58 -16,74 0,17 -6,36 -12,44 -9,12 -6,13 19,7 16,-4 30,-8 31,-9 z m 2439,-37 c 16,-7 17,-9 3,-9 -9,-1 -18,-7 -20,-13 -3,-7 -7,-2 -10,10 -7,24 -4,25 27,12 z m 4851,-66 c -3,-26 -6,-71 -6,-100 0,-43 -5,-58 -25,-80 -14,-15 -25,-32 -25,-38 0,-6 -4,-17 -9,-25 -19,-29 -38,5 -35,61 2,57 7,77 30,121 7,16 14,35 14,43 0,8 4,14 9,14 5,0 12,11 15,25 4,14 14,25 23,25 13,0 15,-8 9,-46 z m -4647,-17 c 1,-5 -3,-5 -9,-2 -5,3 -10,16 -9,28 0,21 1,21 9,2 5,-11 9,-24 9,-28 z m 5651,-2 c 5,-14 19,-35 30,-47 11,-12 20,-30 20,-39 0,-10 4,-21 10,-24 10,-6 7,-95 -4,-114 -9,-13 -46,8 -46,26 0,7 -8,17 -18,22 -14,7 -18,19 -16,47 2,20 0,63 -5,95 -6,47 -5,59 6,59 7,0 18,-11 23,-25 z m -5197,-99 c 3,-8 0,-17 -8,-20 -9,-3 -13,2 -12,15 2,22 13,25 20,5 z m -90,-157 c 15,0 17,-2 7,-6 -8,-3 -19,-12 -23,-20 -13,-21 -27,-5 -27,30 1,27 2,29 11,15 5,-10 20,-18 32,-19 z m -13,-389 c 0,-5 -7,-10 -15,-10 -8,0 -15,5 -15,10 0,6 7,10 15,10 8,0 15,-4 15,-10 z M 5860,1233 c 0,-7 7,-13 15,-13 8,0 15,-7 15,-15 0,-8 7,-15 15,-15 8,0 20,-15 28,-32 21,-49 60,-178 55,-183 -7,-7 -48,7 -48,16 0,15 -55,88 -66,89 -16,0 -24,24 -24,66 0,19 -4,34 -10,34 -12,0 -30,67 -23,86 5,13 8,12 24,-2 11,-9 19,-23 19,-31 z m -3192,3 c 2,-10 -3,-32 -11,-50 -9,-17 -21,-46 -27,-63 -7,-18 -38,-60 -70,-93 -47,-48 -59,-56 -65,-42 -3,9 -1,18 4,20 6,2 11,11 11,20 0,10 6,29 14,43 7,14 16,37 19,51 4,15 23,41 42,59 21,20 35,43 35,57 0,19 5,23 22,20 13,-2 24,-11 26,-22 z M 7686,862 c -4,-3 -11,0 -16,8 -15,24 -11,33 6,15 9,-9 13,-19 10,-23 z m -66,-7 c 0,-8 -4,-15 -10,-15 -5,0 -10,7 -10,15 0,8 5,15 10,15 6,0 10,-7 10,-15 z M 4265,817 c 12,-41 10,-212 -3,-269 -14,-62 -42,-82 -42,-30 -1,15 -7,60 -14,100 -7,40 -9,75 -5,77 3,3 10,38 14,79 6,65 9,73 25,69 10,-3 21,-15 25,-26 z M 8368,591 c 2,-12 1,-34 -2,-48 -6,-22 -11,-24 -54,-21 -45,3 -47,4 -50,36 -5,55 2,63 55,60 42,-3 48,-6 51,-27 z m -700,-78 c -10,-2 -26,-2 -35,0 -10,3 -2,5 17,5 19,0 27,-2 18,-5 z M 7170,114 c 0,-8 -4,-12 -10,-9 -5,3 -10,13 -10,21 0,8 5,12 10,9 6,-3 10,-13 10,-21 z m 80,-59 c 0,-8 -4,-15 -10,-15 -5,0 -10,7 -10,15 0,8 5,15 10,15 6,0 10,-7 10,-15 z"
       id="path8" />
  </g>
  <g
     transform="translate(0.000000,208.320000) scale(0.024000,-0.024000)"
     fill="#000000"
     stroke="none"
     id="g2993">
    <path
       d="M4188 4071 c-34 -33 -31 -99 6 -137 31 -30 118 -5 130 38 10 38 7 46 -25 83 -25 28 -38 35 -63 33 -17 -1 -39 -9 -48 -17z"
       id="path2995" />
    <path
       d="M12464 4052 c-19 -12 -41 -66 -36 -87 8 -39 49 -83 75 -80 84 9 122 100 67 155 -20 20 -83 27 -106 12z m91 -42 c41 -45 -18 -110 -70 -76 -27 18 -34 63 -13 84 18 18 63 14 83 -8z"
       id="path2997" />
    <path
       d="M8816 1161 c-4 -5 -1 -13 5 -16 5 -4 10 -21 9 -39 -1 -17 -1 -33 0 -36 1 -3 4 -36 5 -74 2 -50 -1 -73 -11 -83 -8 -8 -12 -19 -9 -24 7 -10 55 -12 79 -3 15 6 15 7 1 18 -30 22 -18 127 13 121 9 -2 21 -4 25 -4 10 -1 5 -121 -5 -121 -16 0 -7 -19 12 -25 26 -8 61 11 54 30 -9 22 4 18 29 -7 23 -24 57 -33 57 -16 0 5 5 6 10 3 6 -3 10 -1 10 4 0 7 7 7 20 -1 16 -10 24 -10 40 0 13 8 20 8 20 2 0 -7 17 -10 43 -8 32 2 41 7 38 18 -7 27 -6 101 1 113 6 9 10 9 17 -1 6 -11 11 -10 24 3 24 23 11 46 -22 39 -14 -3 -41 -5 -58 -5 -27 1 -33 -2 -33 -19 0 -11 4 -20 8 -20 10 0 9 -86 0 -95 -3 -3 -17 -3 -32 1 -25 6 -26 9 -22 57 4 44 1 54 -20 74 -30 27 -24 27 -72 8 -41 -17 -48 -39 -22 -70 11 -13 10 -19 -9 -36 -12 -12 -24 -19 -26 -17 -2 2 -6 22 -8 45 -8 63 -69 109 -94 71 -5 -8 -10 14 -13 52 -5 61 -6 65 -32 68 -14 2 -29 -1 -32 -7z m279 -148 c-2 -10 -4 -21 -4 -25 -1 -5 -12 -8 -25 -8 -19 0 -22 4 -18 25 3 18 11 25 27 25 17 0 22 -5 20 -17z m-4 -66 c-1 -4 -1 -13 -1 -21 0 -9 -9 -14 -20 -13 -23 2 -23 2 -9 28 10 19 31 23 30 6z"
       id="path2999" />
    <path
       d="M9939 1153 c-1 -5 -1 -29 0 -54 2 -53 -4 -58 -66 -54 -54 3 -70 -7 -47 -29 12 -12 30 -17 63 -15 l46 3 1 -54 c1 -49 3 -55 23 -58 22 -3 23 -1 20 47 -2 28 -1 52 4 52 4 1 11 2 16 3 5 0 12 4 16 8 4 4 18 3 31 -2 17 -7 27 -5 38 6 25 25 9 40 -40 39 -25 0 -49 2 -54 5 -5 3 -10 29 -11 58 -2 43 -6 52 -21 52 -10 0 -19 -3 -19 -7z"
       id="path3001" />
    <path
       d="M8609 1123 c-36 -30 -59 -79 -58 -120 0 -26 37 -119 38 -99 1 4 13 0 28 -9 34 -23 131 -22 152 1 12 13 22 60 15 67 -4 3 -18 -7 -32 -23 -21 -24 -35 -30 -67 -30 -51 0 -68 24 -73 105 -3 50 0 64 18 83 30 32 85 30 116 -4 13 -14 24 -30 24 -35 0 -6 5 -7 10 -4 6 3 10 21 10 38 0 31 -3 33 -53 45 -75 17 -91 15 -128 -15z"
       id="path3003" />
    <path
       d="M10278 1128 c-30 -30 -21 -95 13 -95 18 0 18 49 -1 55 -8 3 -8 8 1 18 13 15 34 20 25 5 -4 -5 2 -7 12 -4 23 5 56 -47 34 -55 -7 -2 -25 -15 -40 -28 -15 -13 -20 -22 -11 -19 18 7 59 -26 59 -47 0 -22 -37 -51 -55 -44 -9 3 -13 10 -10 16 4 6 -1 7 -11 3 -13 -5 -16 -3 -11 9 7 20 -16 53 -31 44 -27 -16 16 -96 52 -96 8 0 17 -4 21 -10 6 -10 49 5 78 28 23 20 22 74 -2 96 -18 16 -19 56 -1 56 14 0 5 36 -16 63 -17 21 -29 27 -55 25 -19 -2 -42 -11 -51 -20z"
       id="path3005" />
    <path
       d="M8283 1109 c-33 -16 -43 -27 -43 -45 0 -13 -4 -24 -9 -24 -5 0 -2 -18 6 -40 13 -33 23 -42 54 -50 29 -8 45 -8 61 1 36 19 44 32 47 76 3 43 -23 83 -53 83 -8 0 -16 4 -18 10 -2 6 -21 1 -45 -11z"
       id="path3007" />
    <path
       d="M9348 1037 c-27 -27 -28 -53 -4 -69 13 -8 8 -78 -6 -95 -6 -7 -7 -24 -4 -38 6 -25 9 -26 72 -24 66 2 96 17 102 50 2 16 -28 54 -50 62 -10 3 -9 12 5 39 10 18 15 41 12 50 -4 9 0 18 9 21 9 4 16 12 16 20 0 10 -17 13 -62 13 -55 -1 -66 -5 -90 -29z m82 -39 c0 -16 -4 -27 -9 -24 -5 4 -11 0 -14 -6 -3 -9 -9 -7 -20 7 -9 11 -11 22 -6 23 5 2 7 8 3 13 -9 15 5 27 26 22 14 -4 20 -14 20 -35z m35 -144 c0 -15 -8 -20 -44 -22 -47 -3 -67 8 -58 31 4 11 19 14 54 13 40 -2 48 -6 48 -22z"
       id="path3009" />
    <path
       d="M9542 1032 c-18 -19 -28 -39 -27 -53 1 -13 3 -32 4 -41 0 -9 12 -28 26 -42 20 -20 29 -23 59 -16 19 4 38 5 41 1 4 -3 5 1 3 9 -1 8 2 14 7 13 13 -2 17 34 5 42 -5 3 -11 -4 -15 -15 -5 -15 -15 -20 -41 -20 -23 0 -34 5 -34 14 0 8 -3 23 -7 33 -6 16 -5 17 12 3 10 -8 16 -10 12 -4 -4 7 8 10 33 10 22 0 42 3 45 6 10 10 -6 75 -18 76 -7 1 -26 4 -44 8 -26 5 -36 1 -61 -24z m47 -13 c-8 -5 -9 -9 -3 -9 5 0 15 5 21 11 7 7 12 5 15 -8 4 -15 0 -19 -21 -17 -41 2 -42 3 -29 23 7 11 16 17 21 14 5 -3 3 -9 -4 -14z"
       id="path3011" />
    <path
       d="M1050 740 c-8 -5 -12 -10 -8 -10 4 0 -1 -20 -12 -45 -24 -56 -37 -169 -21 -179 6 -4 11 -15 11 -24 1 -9 15 -33 32 -52 l30 -35 -7 30 c-3 16 -10 32 -15 35 -29 18 -35 178 -7 221 19 31 31 69 20 69 -4 0 -15 -5 -23 -10z"
       id="path3013" />
    <path
       d="M1380 737 c0 -7 5 -18 12 -25 7 -7 8 -12 4 -12 -5 0 -1 -11 8 -25 33 -50 32 -113 -3 -199 -36 -91 -35 -83 -16 -83 8 0 12 4 10 7 -3 4 4 18 15 30 11 13 20 30 20 40 0 9 5 21 12 28 7 7 9 12 5 12 -4 0 -3 8 2 19 10 19 15 74 9 102 -2 9 -12 28 -21 43 -10 14 -22 37 -27 51 -10 26 -30 34 -30 12z"
       id="path3015" />
    <path
       d="M8843 725 c-16 -12 -17 -15 -2 -32 13 -14 17 -41 17 -119 1 -97 0 -102 -21 -108 -17 -4 -19 -8 -10 -17 18 -18 80 -19 94 -3 10 12 14 12 28 1 9 -7 22 -12 29 -11 6 1 19 2 27 3 17 1 21 46 6 56 -6 3 -8 23 -5 46 3 25 0 44 -8 53 -20 20 -68 29 -84 15 -12 -10 -14 -1 -14 54 0 56 -3 65 -20 70 -10 3 -27 -1 -37 -8z m108 -157 c1 -13 3 -35 5 -50 3 -30 -19 -60 -39 -52 -18 7 -16 107 3 116 25 11 30 9 31 -14z"
       id="path3017" />
    <path
       d="M14540 710 c-7 -16 -16 -30 -21 -30 -5 0 -8 -3 -7 -7 1 -5 -4 -29 -11 -56 -12 -41 -12 -99 0 -147 2 -8 14 -26 27 -40 12 -13 22 -28 22 -32 0 -5 5 -8 10 -8 15 0 12 23 -7 50 -23 32 -26 51 -27 131 -1 54 4 75 27 117 21 39 25 52 14 52 -8 0 -20 -13 -27 -30z"
       id="path3019" />
    <path
       d="M14670 726 c0 -8 6 -16 14 -19 11 -5 12 -13 5 -39 -14 -51 -48 -202 -46 -203 28 -12 93 -21 95 -14 2 5 11 9 20 9 10 0 29 17 43 38 24 34 28 56 20 116 -1 9 -66 4 -93 -8 -13 -6 -15 -3 -11 16 3 13 9 28 13 33 4 6 10 24 13 42 5 23 2 33 -9 37 -28 11 -64 6 -64 -8z m113 -138 c6 -18 -23 -99 -33 -93 -4 3 -10 -2 -14 -10 -7 -19 -32 -19 -40 0 -8 22 9 59 41 89 31 29 39 32 46 14z"
       id="path3021" />
    <path
       d="M14900 735 c0 -2 9 -22 21 -45 29 -55 35 -133 15 -200 -9 -30 -20 -56 -25 -60 -5 -3 -12 -19 -16 -35 l-7 -30 26 30 c41 48 67 112 66 163 0 67 -3 92 -11 92 -4 0 -9 10 -13 23 -7 28 -7 28 -25 50 -15 16 -31 23 -31 12z"
       id="path3023" />
    <path
       d="M8667 707 c-1 -4 -12 -9 -24 -10 -12 0 -19 -5 -17 -9 3 -4 1 -8 -5 -8 -5 0 -19 -20 -31 -45 -29 -61 -24 -101 21 -147 20 -20 34 -40 31 -43 -3 -3 29 -3 72 -1 42 2 79 5 80 7 2 2 7 24 11 49 l7 45 -30 -34 c-41 -46 -84 -51 -122 -12 -26 26 -28 33 -25 86 4 71 24 95 77 95 21 0 38 -5 38 -11 0 -5 5 -7 10 -4 6 4 15 -8 21 -25 15 -41 33 -33 37 17 l3 40 -75 9 c-42 5 -77 6 -79 1z"
       id="path3025" />
    <path
       d="M10368 695 c-3 -3 -22 -6 -42 -7 l-37 -1 25 -26 c22 -23 24 -34 24 -113 0 -66 -3 -86 -12 -82 -7 3 -18 -2 -25 -9 -9 -11 -9 -16 1 -19 11 -4 97 -3 131 1 16 2 -5 21 -24 21 -21 0 -20 -6 -25 139 -3 91 -5 106 -16 96z"
       id="path3027" />
    <path
       d="M8275 648 c-53 -30 -62 -99 -19 -141 34 -34 71 -32 114 6 27 25 31 34 26 60 -4 18 -7 37 -8 44 -1 13 -57 43 -80 43 -7 0 -22 -6 -33 -12z m79 -44 c21 -20 20 -43 -1 -66 -20 -22 -56 -23 -77 -2 -32 32 -8 84 39 84 13 0 31 -7 39 -16z"
       id="path3029" />
    <path
       d="M1220 641 c-43 -18 -60 -39 -66 -85 -4 -29 -2 -55 5 -69 10 -19 19 -22 67 -20 56 2 77 14 82 47 3 17 1 18 -12 7 -13 -11 -14 -7 -11 30 3 24 9 47 14 52 28 28 -34 57 -79 38z m35 -21 c8 -13 -13 -80 -32 -105 -11 -14 -17 -16 -20 -7 -3 6 -8 10 -12 7 -14 -8 1 49 17 68 8 9 12 17 7 17 -4 0 -2 7 5 15 14 17 26 19 35 5z"
       id="path3031" />
    <path
       d="M9380 603 c-25 -24 -37 -93 -16 -93 6 0 5 -5 -1 -11 -7 -7 -8 -20 -3 -34 5 -14 5 -26 -2 -33 -15 -15 -2 -58 19 -61 44 -5 104 -1 122 8 10 6 24 25 30 42 10 30 10 31 -29 46 -38 15 -62 43 -37 43 12 0 37 44 37 66 0 7 4 14 9 16 5 2 11 9 13 17 2 12 -10 15 -57 16 -50 1 -64 -2 -85 -22z m60 -17 c-1 -5 4 -13 12 -17 11 -7 10 -11 -2 -19 -8 -5 -10 -10 -5 -10 6 0 4 -4 -4 -9 -32 -21 -48 12 -32 67 2 8 32 -4 31 -12z m49 -161 c35 -21 -47 -47 -93 -29 -19 7 -21 31 -4 36 18 6 84 1 97 -7z"
       id="path3033" />
    <path
       d="M9045 589 c-15 -29 -15 -32 2 -44 17 -13 17 -14 -1 -34 -13 -14 -16 -28 -12 -46 6 -24 8 -25 89 -23 45 1 103 -2 130 -6 49 -9 61 0 32 24 -17 14 -20 66 -4 76 8 4 7 9 -2 15 -10 6 -8 9 8 9 25 0 56 27 47 42 -4 5 -19 7 -35 4 -16 -3 -40 -1 -54 4 -25 9 -32 2 -25 -25 1 -5 4 -36 5 -67 2 -43 -1 -58 -12 -62 -11 -5 -13 -2 -9 11 4 10 4 14 0 11 -4 -4 -15 -3 -26 3 -15 8 -18 19 -16 57 4 60 -13 82 -64 82 -32 0 -40 -5 -53 -31z m73 -23 c-4 -25 -48 -36 -48 -12 0 9 5 16 11 16 6 0 9 6 6 14 -4 10 0 12 14 9 14 -4 19 -13 17 -27z m-2 -63 c-3 -20 -36 -31 -36 -13 0 6 4 8 10 5 6 -3 7 1 4 9 -4 10 -1 16 9 16 9 0 14 -7 13 -17z"
       id="path3035" />
    <path
       d="M9590 610 c0 -4 -11 -13 -25 -20 -22 -12 -25 -20 -25 -66 0 -69 17 -86 79 -83 54 4 66 19 69 90 3 47 -14 78 -41 80 -7 0 -22 2 -34 3 -13 2 -23 0 -23 -4z m54 -31 c3 -3 -4 -10 -14 -17 -12 -7 -20 -8 -20 -2 0 5 -8 7 -17 4 -17 -5 -17 -4 0 9 17 14 40 17 51 6z m30 -71 c-18 -61 -65 -64 -86 -6 -9 23 -1 28 49 28 41 0 44 -2 37 -22z"
       id="path3037" />
    <path
       d="M9866 550 c-29 -5 -29 -6 -11 -23 16 -16 29 -18 129 -11 61 3 113 8 115 10 24 22 -148 40 -233 24z"
       id="path3039" />
    <path
       d="M11068 3 c12 -2 30 -2 40 0 9 3 -1 5 -23 4 -22 0 -30 -2 -17 -4z"
       id="path3041" />
  </g>
  <rect
     style="fill:#b9b9b9;fill-opacity:1;stroke:none"
     id="rect3068"
     width="5.1060266"
     height="29.835215"
     x="490.32874"
     y="0.092781015"
     transform="matrix(0.79999999,0,0,0.79999999,0,-8.4828521e-6)" />
  <rect
     style="fill:#b9b9b9;fill-opacity:1;stroke:none"
     id="rect3009"
     width="20.336395"
     height="11.674597"
     x="224.07693"
     y="11.844093"
     transform="matrix(0.79999999,0,0,0.79999999,0,-8.4828521e-6)" />
  <rect
     style="fill:#b9b9b9;fill-opacity:1;stroke:none"
     id="rect3011"
     width="12.804397"
     height="9.7915974"
     x="158.17195"
     y="8.4546938"
     transform="matrix(0.79999999,0,0,0.79999999,0,-8.4828521e-6)" />
  <rect
     style="fill:#b9b9b9;fill-opacity:1;stroke:none"
     id="rect3013"
     width="16.946995"
     height="12.051197"
     x="226.33653"
     y="80.385277"
     transform="matrix(0.79999999,0,0,0.79999999,0,-8.4828521e-6)" />
  <rect
     style="fill:#b9b9b9;fill-opacity:1;stroke:none"
     id="rect3015"
     width="31.634392"
     height="34.270592"
     x="212.77895"
     y="148.54985"
     transform="matrix(0.79999999,0,0,0.79999999,0,-8.4828521e-6)" />
  <rect
     style="fill:#b9b9b9;fill-opacity:1;stroke:none"
     id="rect3017"
     width="23.349194"
     height="25.232193"
     x="227.84294"
     y="191.48224"
     transform="matrix(0.79999999,0,0,0.79999999,0,-8.4828521e-6)" />
  <rect
     style="fill:#b9b9b9;fill-opacity:1;stroke:none"
     id="rect3019"
     width="25.232193"
     height="30.881191"
     x="213.90874"
     y="210.68884"
     transform="matrix(0.79999999,0,0,0.79999999,0,-8.4828521e-6)" />
  <rect
     style="fill:#b9b9b9;fill-opacity:1;stroke:none"
     id="rect3021"
     width="18.453396"
     height="10.544797"
     x="210.89594"
     y="195.62485"
     transform="matrix(0.79999999,0,0,0.79999999,0,-8.4828521e-6)" />
  <rect
     style="fill:#b9b9b9;fill-opacity:1;stroke:none"
     id="rect3023"
     width="11.674597"
     height="12.051197"
     x="192.81915"
     y="178.30125"
     transform="matrix(0.79999999,0,0,0.79999999,0,-8.4828521e-6)" />
  <path
     style="color:#000000;fill:#ffffff;fill-opacity:1;stroke:none;stroke-width:1.25;marker:none;visibility:visible;display:inline;overflow:visible;enable-background:accumulate"
     d="m 166.57657,99.307123 5.04276,-5.538775 -1.07469,-1.322692 8.54239,-4.767204 -4.93254,8.156603 -1.40536,-1.019575 -4.68454,5.59389 z"
     id="path3026"
     inkscape:connector-curvature="0"
     transform="matrix(0.79999999,0,0,0.79999999,0,-8.4828521e-6)"
     sodipodi:nodetypes="cccccccc" />
  <path
     style="color:#000000;fill:#ffffff;fill-opacity:1;stroke:none;stroke-width:1.25;marker:none;visibility:visible;display:inline;overflow:visible;enable-background:accumulate"
     d="m 165.8795,74.716026 2.62295,-1.889718 -0.57641,-1.235564 7.55656,-2.036059 -5.41535,5.368838 -0.89199,-1.06474 -2.70558,1.867663 z"
     id="path3026-9"
     inkscape:connector-curvature="0"
     sodipodi:nodetypes="cccccccc" />
  <path
     style="color:#000000;fill:#ffffff;fill-opacity:1;stroke:none;stroke-width:1.25;marker:none;visibility:visible;display:inline;overflow:visible;enable-background:accumulate"
     d="m 166.53911,148.76889 2.83907,1.54614 0.86417,-1.05455 5.10712,5.92997 -7.18421,-2.55686 0.57355,-1.26505 -2.85497,-1.63018 z"
     id="path3026-9-6"
     inkscape:connector-curvature="0"
     sodipodi:nodetypes="cccccccc" />
  <path
     style="color:#000000;fill:#b9b9b9;stroke:none;stroke-width:1.25000000000000000;stroke-linecap:butt;stroke-linejoin:miter;stroke-miterlimit:4;stroke-opacity:1;stroke-dasharray:none;stroke-dashoffset:0;marker:none;visibility:visible;display:inline;overflow:visible;enable-background:accumulate;fill-opacity:1"
     d="m 213.19945,186.9468 2.45981,2.70335 1.77788,-1.36385 -1.99707,-2.92255 z"
     id="path3832"
     inkscape:connector-curvature="0"
     transform="matrix(0.79999999,0,0,0.79999999,0,-8.4828521e-6)" />
  <rect
     style="fill:#b9b9b9;fill-opacity:1;stroke:none"
     id="rect3845"
     width="87.536644"
     height="15.610703"
     x="162.38048"
     y="0.12439218"
     transform="matrix(0.79999999,0,0,0.79999999,0,-8.4828521e-6)" />
  <rect
     style="fill:#b9b9b9;fill-opacity:1;stroke:none"
     id="rect3022"
     width="35.093937"
     height="35.491226"
     x="197.58548"
     y="224.11421"
     transform="matrix(0.79999999,0,0,0.79999999,0,-8.4828521e-6)" />
  <path
     style="color:#000000;fill:#ffffff;fill-opacity:1;stroke:none;stroke-width:1.25;marker:none;visibility:visible;display:inline;overflow:visible;enable-background:accumulate"
     d="m 139.21305,176.82603 1.85408,2.64825 1.24324,-0.55966 1.93373,7.5834 -5.29514,-5.48743 1.0767,-0.87752 -1.83092,-2.73058 z"
     id="path3026-9-6-0"
     inkscape:connector-curvature="0"
     sodipodi:nodetypes="cccccccc" />
  <path
     style="color:#000000;fill:#ffffff;fill-opacity:1;stroke:none;stroke-width:1.25;marker:none;visibility:visible;display:inline;overflow:visible;enable-background:accumulate"
     d="m 102.62164,187.59083 0.17107,3.22825 1.35102,0.18333 -2.3739,7.45734 -1.58743,-7.45859 1.37799,-0.1745 -0.10783,-3.28583 z"
     id="path3026-9-6-8"
     inkscape:connector-curvature="0"
     sodipodi:nodetypes="cccccccc" />
  <path
     style="color:#000000;fill:#ffffff;fill-opacity:1;stroke:none;stroke-width:1.25;marker:none;visibility:visible;display:inline;overflow:visible;enable-background:accumulate"
     d="m 64.902021,177.515 -1.421441,2.90351 1.091069,0.81758 -5.702685,5.35972 2.242589,-7.28843 1.288755,0.5181 1.504712,-2.92305 z"
     id="path3026-9-6-1"
     inkscape:connector-curvature="0"
     sodipodi:nodetypes="cccccccc" />
  <path
     style="color:#000000;fill:#ffffff;fill-opacity:1;stroke:none;stroke-width:1.25;marker:none;visibility:visible;display:inline;overflow:visible;enable-background:accumulate"
     d="m 36.979119,149.91772 -2.717604,1.75086 0.511427,1.26384 -7.652163,1.64062 5.687036,-5.08016 0.835454,1.10965 2.798985,-1.72453 z"
     id="path3026-9-6-13"
     inkscape:connector-curvature="0"
     sodipodi:nodetypes="cccccccc" />
  <path
     style="color:#000000;fill:#ffffff;fill-opacity:1;stroke:none;stroke-width:1.25;marker:none;visibility:visible;display:inline;overflow:visible;enable-background:accumulate"
     d="m 27.596047,112.28586 -3.232289,0.0563 -0.231188,1.34365 -7.368336,-2.6372 7.510247,-1.32159 0.125459,1.38332 3.287593,0.009 z"
     id="path3026-9-6-09"
     inkscape:connector-curvature="0"
     sodipodi:nodetypes="cccccccc" />
  <path
     style="color:#000000;fill:#ffffff;fill-opacity:1;stroke:none;stroke-width:1.25;marker:none;visibility:visible;display:inline;overflow:visible;enable-background:accumulate"
     d="m 36.814228,75.074973 -2.83907,-1.54614 -0.86417,1.05455 -5.107121,-5.929969 7.184211,2.556859 -0.57355,1.26505 2.85497,1.63018 z"
     id="path3026-9-6-7"
     inkscape:connector-curvature="0"
     sodipodi:nodetypes="cccccccc"
     inkscape:transform-center-y="2.383739" />
  <path
     style="color:#000000;fill:#ffffff;fill-opacity:1;stroke:none;stroke-width:1.25;marker:none;visibility:visible;display:inline;overflow:visible;enable-background:accumulate"
     d="m 65.298078,46.868527 -1.995025,-2.543764 -1.211047,0.626282 -2.342287,-7.467324 5.585041,5.192084 -1.027505,0.934636 1.976356,2.627233 z"
     id="path3026-9-6-19"
     inkscape:connector-curvature="0"
     sodipodi:nodetypes="cccccccc" />
  <path
     style="color:#000000;fill:#ffffff;fill-opacity:1;stroke:none;stroke-width:1.25;marker:none;visibility:visible;display:inline;overflow:visible;enable-background:accumulate"
     d="m 101.0783,36.955176 -0.0856,-3.23165 -1.345698,-0.219023 2.570438,-7.391893 1.38948,7.497987 -1.38213,0.137969 0.0208,3.287538 z"
     id="path3026-9-6-73"
     inkscape:connector-curvature="0"
     sodipodi:nodetypes="cccccccc" />
  <path
     style="color:#000000;fill:#ffffff;fill-opacity:1;stroke:none;stroke-width:1.25;marker:none;visibility:visible;display:inline;overflow:visible;enable-background:accumulate"
     d="m 137.98755,47.303644 1.27153,-2.972219 -1.13134,-0.760876 5.42195,-5.643555 -1.868,7.393307 -1.3135,-0.451701 -1.3537,2.995973 z"
     id="path3026-9-6-6"
     inkscape:connector-curvature="0"
     sodipodi:nodetypes="cccccccc" />
  <path
     style="color:#000000;fill:#ffffff;fill-opacity:1;stroke:none;stroke-width:1.25;marker:none;visibility:visible;display:inline;overflow:visible;enable-background:accumulate"
     d="m 113.08017,66.930163 1.44068,-5.816633 -1.25962,-0.521772 4.19696,-6.605513 -0.36688,7.616819 -1.37694,-0.18264 -1.16764,5.719096 z"
     id="path3026-3"
     inkscape:connector-curvature="0"
     sodipodi:nodetypes="cccccccc" />
  <path
     style="color:#000000;fill:#ffffff;fill-opacity:1;stroke:none;stroke-width:1.25;marker:none;visibility:visible;display:inline;overflow:visible;enable-background:accumulate"
     d="m 68.793284,79.979986 -4.395068,-4.073346 -1.065737,0.850334 -3.753006,-6.867466 6.49003,4.003747 -0.825599,1.11701 4.441701,3.787172 z"
     id="path3026-95"
     inkscape:connector-curvature="0"
     sodipodi:nodetypes="cccccccc" />
  <path
     style="color:#000000;fill:#ffffff;fill-opacity:1;stroke:none;stroke-width:1.25;marker:none;visibility:visible;display:inline;overflow:visible;enable-background:accumulate"
     d="m 57.990297,100.12939 -5.812794,-1.456096 -0.525112,1.25822 -6.594359,-4.214449 7.615816,0.387072 -0.186286,1.376453 5.715979,1.182789 z"
     id="path3026-7"
     inkscape:connector-curvature="0"
     sodipodi:nodetypes="cccccccc" />
  <path
     style="color:#000000;fill:#ffffff;fill-opacity:1;stroke:none;stroke-width:1.25;marker:none;visibility:visible;display:inline;overflow:visible;enable-background:accumulate"
     d="m 58.047637,124.93833 -5.731699,1.74826 0.198528,1.34886 -7.82317,-0.21263 6.725782,-3.59367 0.549818,1.27555 5.507864,-1.93256 z"
     id="path3026-4"
     inkscape:connector-curvature="0"
     sodipodi:nodetypes="cccccccc" />
  <path
     style="color:#000000;fill:#ffffff;fill-opacity:1;stroke:none;stroke-width:1.25;marker:none;visibility:visible;display:inline;overflow:visible;enable-background:accumulate"
     d="m 70.47755,144.88676 -4.03421,4.43102 0.85975,1.05816 -6.83391,3.81376 3.94603,-6.52528 1.12429,0.81566 3.74763,-4.47511 z"
     id="path3026-2"
     inkscape:connector-curvature="0"
     sodipodi:nodetypes="cccccccc" />
  <path
     style="color:#000000;fill:#ffffff;fill-opacity:1;stroke:none;stroke-width:1.25;marker:none;visibility:visible;display:inline;overflow:visible;enable-background:accumulate"
     d="m 90.714285,156.66368 -1.400814,5.82637 1.263155,0.51314 -4.151618,6.63409 0.31471,-7.61915 1.378161,0.17321 1.128435,-5.72696 z"
     id="path3026-74"
     inkscape:connector-curvature="0"
     sodipodi:nodetypes="cccccccc" />
  <path
     style="color:#000000;fill:#ffffff;fill-opacity:1;stroke:none;stroke-width:1.25;marker:none;visibility:visible;display:inline;overflow:visible;enable-background:accumulate"
     d="m 113.98147,156.20696 1.75753,5.72886 1.34855,-0.20071 -0.19997,7.8235 -3.60455,-6.71994 1.27466,-0.55189 -1.94148,-5.50473 z"
     id="path3026-957"
     inkscape:connector-curvature="0"
     sodipodi:nodetypes="cccccccc" />
</svg>
