<?xml version="1.0" encoding="UTF-8" standalone="no"?>
<svg
   xmlns:dc="http://purl.org/dc/elements/1.1/"
   xmlns:cc="http://creativecommons.org/ns#"
   xmlns:rdf="http://www.w3.org/1999/02/22-rdf-syntax-ns#"
   xmlns:svg="http://www.w3.org/2000/svg"
   xmlns="http://www.w3.org/2000/svg"
   xmlns:xlink="http://www.w3.org/1999/xlink"
   xmlns:sodipodi="http://sodipodi.sourceforge.net/DTD/sodipodi-0.dtd"
   xmlns:inkscape="http://www.inkscape.org/namespaces/inkscape"
   version="1.0"
   width="162.000000pt"
   height="224.640000pt"
   viewBox="0 0 162.000000 224.640000"
   preserveAspectRatio="xMidYMid meet"
   id="svg3113"
   inkscape:version="0.48.3.1 r9886"
   sodipodi:docname="flux-through-different-surfaces-is-equal.svg">
  <defs
     id="defs3243" />
  <sodipodi:namedview
     pagecolor="#ffffff"
     bordercolor="#666666"
     borderopacity="1"
     objecttolerance="10"
     gridtolerance="10"
     guidetolerance="10"
     inkscape:pageopacity="0"
     inkscape:pageshadow="2"
     inkscape:window-width="1440"
     inkscape:window-height="872"
     id="namedview3241"
     showgrid="false"
     inkscape:zoom="1.3558544"
     inkscape:cx="162.70548"
     inkscape:cy="279.22699"
     inkscape:window-x="0"
     inkscape:window-y="0"
     inkscape:window-maximized="1"
     inkscape:current-layer="svg3113" />
  <metadata
     id="metadata3115">
Created by potrace 1.10, written by Peter Selinger 2001-2011
<rdf:RDF>
  <cc:Work
     rdf:about="">
    <dc:format>image/svg+xml</dc:format>
    <dc:type
       rdf:resource="http://purl.org/dc/dcmitype/StillImage" />
    <dc:title />
  </cc:Work>
</rdf:RDF>
</metadata>
  <image
     sodipodi:absref="/home/bcrowell/a/flux-through-different-surfaces-is-equal-shaded.jpg"
     xlink:href="flux-through-different-surfaces-is-equal-shaded.jpg"
     width="161.85828"
     height="224.44348"
     id="image3253"
     x="-3.5212593e-06"
     y="0.19651856" />
  <g
     transform="translate(0.000000,224.640000) scale(0.024000,-0.024000)"
     fill="#000000"
     stroke="none"
     id="g3117">
    <path
       d="M5473 9333 c-7 -2 -13 -9 -13 -14 0 -5 -18 -55 -40 -110 -22 -56 -40 -105 -40 -110 0 -5 12 -12 26 -15 l26 -7 -7 -81 c-4 -44 -11 -97 -16 -117 -5 -21 -20 -111 -34 -200 -13 -90 -34 -222 -45 -294 -11 -71 -27 -177 -36 -235 -9 -58 -22 -130 -29 -160 -7 -30 -16 -82 -19 -115 -4 -33 -11 -82 -16 -110 -4 -27 -18 -113 -30 -190 -12 -77 -30 -187 -41 -245 -10 -58 -30 -184 -45 -280 -14 -96 -28 -179 -30 -185 -7 -14 -18 -33 -109 -179 -44 -70 -85 -135 -90 -144 -6 -10 -41 -64 -79 -121 -73 -111 -83 -136 -52 -136 13 0 34 21 60 62 139 212 217 335 242 383 16 30 33 59 37 65 4 5 29 46 54 90 25 44 65 109 88 145 23 36 48 76 55 90 7 14 16 27 19 30 7 5 11 12 73 115 23 39 48 74 55 78 7 4 13 14 13 21 0 7 12 31 28 53 15 21 32 48 39 59 7 10 35 55 62 99 135 216 167 265 174 265 4 0 7 6 7 13 0 7 23 45 50 84 28 39 50 74 50 77 0 13 -16 5 -25 -13 -6 -10 -28 -45 -50 -78 -22 -33 -65 -99 -95 -147 -30 -48 -85 -134 -122 -191 -38 -57 -68 -108 -68 -113 0 -5 -11 -21 -25 -36 -14 -15 -37 -49 -50 -74 -23 -41 -42 -73 -125 -197 -11 -16 -20 -36 -20 -42 0 -7 -4 -13 -8 -13 -5 0 -18 -17 -29 -38 -12 -20 -34 -48 -49 -62 l-27 -25 7 35 c4 19 20 125 37 235 17 110 35 223 39 250 11 68 58 372 71 465 19 137 68 422 73 427 7 8 78 22 116 24 21 1 27 3 15 6 -43 10 -33 21 47 52 77 30 115 51 93 51 -5 0 -36 -11 -69 -24 -105 -41 -109 -42 -101 -15 7 21 3 19 -34 -14 -64 -57 -68 -54 -51 48 6 33 24 146 41 250 46 289 45 285 80 285 16 0 32 6 35 14 4 12 -12 106 -41 244 -5 21 -24 27 -52 15z"
       id="path3119" />
    <path
       d="M6291 8730 c-33 -53 -41 -79 -15 -45 19 24 56 95 50 95 -2 0 -18 -23 -35 -50z"
       id="path3121" />
    <path
       d="M5788 8693 c-90 -102 -75 -329 18 -269 48 32 88 160 70 230 -13 52 -59 72 -88 39z m54 -30 c8 -40 -4 -73 -29 -79 -38 -10 -46 7 -27 55 17 43 49 57 56 24z m-16 -149 c-7 -53 -20 -74 -47 -74 -16 0 -19 8 -19 44 0 63 7 76 42 76 l31 0 -7 -46z"
       id="path3123" />
    <path
       d="M6050 8652 c0 -5 7 -13 16 -16 31 -12 3 -24 -71 -31 -41 -4 -78 -11 -81 -17 -10 -16 -2 -17 54 -7 29 6 70 9 90 7 l37 -3 -30 -17 c-41 -24 -17 -22 36 2 49 22 89 26 89 9 0 -10 -41 -82 -88 -156 -8 -13 -12 -23 -9 -23 4 0 48 68 156 240 15 25 15 25 -5 8 -28 -25 -108 -21 -176 7 -10 4 -18 3 -18 -3z"
       id="path3125" />
    <path
       d="M5067 8448 c-8 -18 -17 -46 -21 -63 -7 -29 -7 -29 8 -10 14 17 17 18 26 5 25 -37 -6 -70 -37 -39 -8 8 -14 0 -23 -28 -7 -21 -19 -48 -26 -60 -14 -22 -13 -23 16 -23 27 0 29 2 18 19 -19 32 4 71 42 71 24 0 33 -6 41 -27 7 -20 7 -33 0 -46 -11 -16 -7 -17 44 -16 52 2 70 11 42 22 -7 2 -32 53 -56 111 -24 59 -47 109 -52 112 -5 2 -15 -10 -22 -28z"
       id="path3127" />
    <path
       d="M5935 8160 c-29 -46 -40 -70 -32 -70 9 0 69 102 63 107 -2 3 -16 -14 -31 -37z"
       id="path3129" />
    <path
       d="M4930 7663 c-101 -81 -412 -388 -586 -579 -149 -163 -198 -217 -229 -253 -17 -19 -64 -73 -106 -120 -66 -76 -79 -97 -107 -176 -46 -132 -129 -368 -135 -385 -14 -35 -168 -475 -187 -532 -11 -35 -24 -72 -29 -83 -4 -11 -16 -42 -26 -70 -42 -118 -73 -202 -84 -230 -7 -16 -17 -51 -22 -77 -6 -26 -15 -50 -20 -54 -5 -3 -9 -16 -9 -29 0 -13 -4 -27 -10 -30 -5 -3 -10 -14 -10 -23 0 -9 -6 -29 -14 -44 -8 -15 -17 -42 -21 -60 -4 -18 -11 -37 -15 -43 -4 -5 -13 -26 -18 -45 -10 -34 -59 -172 -137 -385 -20 -55 -42 -118 -49 -140 -7 -22 -20 -58 -29 -80 -13 -35 -29 -80 -28 -80 0 0 -18 -52 -40 -115 -22 -63 -54 -158 -71 -210 -41 -127 -118 -352 -163 -475 -20 -55 -50 -138 -67 -185 -16 -47 -34 -89 -38 -94 -5 -5 -21 -1 -37 9 l-28 19 28 -33 c15 -18 27 -37 27 -42 0 -28 42 6 166 133 77 79 293 298 481 488 188 190 384 390 436 445 231 243 634 631 654 628 9 -1 12 2 6 8 -6 6 32 53 96 122 226 239 1739 1759 1769 1776 7 4 15 19 18 34 4 23 -8 40 -78 115 -167 176 -349 345 -458 423 -25 18 -47 36 -50 40 -5 7 -102 77 -172 124 -72 48 -81 25 -10 -25 192 -136 328 -244 403 -319 20 -20 75 -74 124 -121 48 -47 114 -117 146 -157 l59 -72 -67 -37 c-38 -20 -93 -52 -123 -69 -30 -18 -91 -52 -135 -75 -44 -24 -92 -51 -107 -61 -14 -11 -29 -19 -32 -19 -4 0 -19 -8 -34 -19 -15 -10 -64 -41 -110 -67 -45 -27 -97 -58 -115 -68 -45 -27 -270 -173 -282 -183 -5 -5 -25 -15 -42 -22 -18 -7 -33 -16 -33 -20 0 -3 -20 -17 -44 -31 -43 -23 -46 -23 -64 -7 -10 9 -24 17 -30 17 -7 0 -12 4 -12 9 0 5 -21 23 -47 40 -27 17 -79 56 -117 86 -37 30 -74 55 -82 55 -8 0 -14 4 -14 9 0 9 -132 97 -270 180 -41 25 -165 91 -275 147 -110 56 -201 109 -203 117 -4 20 39 79 136 185 44 48 92 103 108 122 54 65 89 104 139 155 28 28 129 131 225 231 96 99 209 207 250 241 87 71 92 71 205 17 47 -23 71 -30 74 -22 2 7 -6 19 -19 27 -36 25 -159 91 -168 91 -4 0 -24 -12 -42 -27z m-841 -1109 c227 -99 616 -326 782 -458 15 -12 39 -30 55 -41 26 -19 73 -57 122 -100 28 -25 28 -30 -3 -63 -58 -64 -95 -108 -95 -114 0 -5 -8 -16 -17 -26 -26 -26 -105 -121 -123 -146 -18 -27 -109 -139 -154 -191 -30 -35 -119 -143 -153 -185 -6 -8 -35 -44 -65 -79 -29 -35 -70 -87 -92 -115 -21 -28 -53 -67 -70 -86 -18 -19 -44 -51 -58 -70 -14 -19 -45 -55 -67 -79 -23 -24 -48 -55 -56 -70 -8 -14 -39 -52 -69 -85 -31 -32 -56 -62 -56 -65 0 -4 -36 -49 -80 -101 -44 -52 -80 -99 -80 -104 0 -5 -21 -32 -47 -61 -27 -28 -86 -96 -133 -150 -47 -54 -103 -118 -125 -142 l-40 -44 -27 26 c-15 14 -34 25 -43 25 -8 0 -15 5 -15 11 0 5 -4 7 -10 4 -20 -12 -10 11 20 45 16 19 29 40 30 47 0 6 16 31 36 55 20 23 42 54 48 68 12 30 56 100 73 118 6 6 25 12 41 12 28 0 30 3 51 85 13 47 25 103 28 126 l6 40 -44 -30 c-24 -17 -68 -52 -98 -79 -53 -47 -54 -49 -39 -72 9 -14 13 -32 9 -40 -3 -8 -42 -68 -86 -133 -44 -65 -88 -132 -97 -149 -30 -56 -39 -60 -73 -32 -27 21 -29 26 -17 45 19 29 87 165 112 224 12 28 40 85 62 129 21 43 37 80 34 83 -6 6 -96 -171 -96 -188 0 -6 -13 -31 -30 -56 -16 -24 -30 -48 -30 -52 0 -5 -9 -20 -20 -33 -10 -14 -16 -28 -13 -32 3 -3 1 -6 -5 -6 -7 0 -12 -6 -12 -13 0 -7 -12 -26 -28 -42 -45 -49 -184 -166 -189 -161 -3 3 25 92 62 198 38 106 74 213 81 238 7 25 36 110 64 190 29 80 55 156 60 170 4 14 45 131 90 260 45 129 104 298 130 375 27 77 74 212 105 300 32 88 72 203 90 255 186 530 217 610 238 610 11 0 67 -21 126 -46z m2072 -11 c-5 -10 -123 -131 -263 -270 -139 -138 -373 -372 -519 -520 -147 -147 -340 -341 -430 -430 -90 -88 -243 -242 -339 -342 -100 -103 -181 -179 -188 -176 -7 3 -10 0 -7 -5 3 -6 1 -10 -5 -10 -6 0 -9 -4 -6 -9 8 -12 -31 -44 -43 -36 -6 3 -9 0 -6 -7 4 -11 -648 -671 -742 -751 -18 -15 -33 -31 -33 -36 0 -10 -36 -21 -45 -13 -3 3 -13 6 -23 7 -14 1 -17 -5 -14 -25 3 -21 -2 -28 -33 -43 -45 -21 -57 -15 -26 14 12 11 33 39 47 62 15 23 34 49 44 57 10 8 51 58 92 110 40 52 83 106 94 120 12 14 70 84 130 155 59 72 110 132 114 135 3 3 25 30 50 60 24 30 54 65 67 76 12 12 20 24 17 26 -2 3 20 31 49 64 29 32 66 77 82 100 17 23 47 61 67 85 59 69 139 169 185 229 22 30 52 66 65 80 12 14 45 55 73 90 44 58 116 147 177 220 12 14 44 52 71 85 27 33 53 62 57 65 3 3 25 33 49 68 23 34 46 62 51 62 5 0 16 13 25 29 8 16 24 32 35 36 11 3 42 24 70 46 27 21 52 39 55 39 3 0 30 18 60 40 82 60 555 349 689 419 39 21 100 54 136 74 74 41 85 44 71 20z m-2888 -2470 c23 -7 22 -20 -8 -59 -31 -41 -31 -48 0 -62 22 -10 26 -9 39 16 8 16 22 34 31 42 13 11 20 9 43 -13 16 -15 36 -27 45 -27 22 0 21 -5 -5 -49 -22 -36 -105 -121 -117 -121 -4 0 -16 8 -27 18 -11 9 -26 18 -34 20 -8 2 -22 9 -30 16 -8 6 -27 18 -42 26 -16 7 -28 17 -28 22 0 19 61 138 71 138 5 0 9 6 8 13 -4 30 1 39 19 32 9 -4 25 -10 35 -12z m-93 -28 c0 -9 -62 -115 -70 -120 -13 -8 -40 6 -40 19 0 17 82 106 98 106 6 0 12 -2 12 -5z m-124 -141 c19 -9 34 -22 34 -28 0 -18 -59 -150 -106 -236 -22 -41 -61 -114 -85 -162 -48 -96 -74 -136 -84 -127 -6 7 87 293 142 434 19 50 39 100 44 113 10 26 12 26 55 6z m114 -70 c0 -6 -167 -280 -192 -316 -83 -116 -75 -80 27 129 47 96 85 177 85 180 0 4 7 14 16 24 15 17 18 17 40 2 13 -8 24 -17 24 -19z m72 -40 c21 -15 38 -31 38 -36 0 -5 -28 -44 -62 -86 -68 -83 -268 -322 -304 -362 -12 -14 -37 -42 -54 -63 -18 -21 -35 -35 -38 -33 -6 6 23 54 198 331 73 116 142 225 152 243 11 17 23 32 26 32 3 0 23 -12 44 -26z m30 -156 c-83 -83 -155 -148 -159 -144 -4 4 -3 10 3 14 5 4 48 54 96 112 47 58 97 115 112 128 28 23 88 52 96 45 2 -2 -64 -72 -148 -155z"
       id="path3131" />
    <path
       d="M4178 6053 c-201 -411 -241 -494 -236 -498 4 -4 17 21 169 325 149 299 239 490 230 490 -4 0 -77 -143 -163 -317z"
       id="path3133" />
    <path
       d="M4629 6143 c-12 -21 -74 -115 -136 -210 -62 -94 -113 -176 -113 -181 0 -9 31 -27 34 -20 1 2 18 28 37 58 57 86 124 192 144 228 11 17 23 32 27 32 4 0 8 5 8 11 0 6 14 30 31 54 30 42 32 65 4 65 -7 0 -24 -17 -36 -37z"
       id="path3135" />
    <path
       d="M4197 5669 c17 -17 -26 -205 -51 -221 -6 -4 14 -7 44 -7 30 0 48 3 40 6 -24 10 -28 23 -18 62 13 47 21 55 52 47 22 -5 26 -12 26 -42 0 -50 16 -74 48 -74 22 1 24 2 10 10 -11 7 -17 23 -16 50 0 22 -5 47 -12 55 -11 13 -9 19 8 36 24 22 29 58 10 77 -7 7 -41 12 -82 12 -49 0 -67 -3 -59 -11z m113 -15 c20 -23 1 -65 -33 -77 -39 -13 -49 1 -41 51 6 38 10 42 34 42 15 0 33 -7 40 -16z"
       id="path3137" />
    <path
       d="M3925 5526 c-6 -6 -21 -33 -34 -61 -13 -27 -88 -181 -167 -341 -139 -281 -168 -344 -160 -344 6 0 377 753 373 756 -1 1 -7 -3 -12 -10z"
       id="path3139" />
    <path
       d="M4140 5379 c0 -6 -51 -88 -113 -182 -152 -230 -218 -332 -253 -390 -16 -26 -37 -62 -48 -78 -17 -29 -18 -31 -1 -49 17 -19 19 -18 64 56 82 135 86 142 102 161 9 10 18 25 22 34 3 8 22 42 44 74 21 32 42 65 48 74 5 9 21 34 34 56 14 22 31 49 37 60 6 11 32 55 58 98 25 43 46 82 46 87 0 6 -9 10 -20 10 -11 0 -20 -5 -20 -11z"
       id="path3141" />
    <path
       d="M3513 4698 c-21 -36 -37 -86 -23 -72 10 10 51 104 46 104 -2 0 -13 -15 -23 -32z"
       id="path3143" />
    <path
       d="M5286 7501 c-7 -11 113 -93 128 -88 20 7 12 22 -19 37 -16 8 -44 25 -62 38 -35 25 -39 26 -47 13z"
       id="path3145" />
    <path
       d="M4445 6580 c-25 -49 -41 -90 -37 -90 5 0 21 28 37 63 15 34 34 74 42 90 7 15 11 27 8 27 -2 0 -25 -40 -50 -90z"
       id="path3147" />
    <path
       d="M4464 4739 c0 -9 6 -15 12 -12 7 2 11 -3 11 -13 -1 -11 6 -18 20 -19 12 -1 20 2 17 7 -4 5 -12 7 -20 4 -17 -7 -18 6 -1 23 10 11 9 12 -2 6 -10 -6 -13 -4 -9 6 4 9 0 15 -11 15 -9 0 -17 -8 -17 -17z"
       id="path3149" />
    <path
       d="M4544 4688 c0 -10 1 -18 2 -18 0 0 8 8 17 18 15 16 15 18 -1 18 -10 0 -18 -8 -18 -18z"
       id="path3151" />
    <path
       d="M4650 4689 c0 -6 -6 -9 -13 -6 -21 8 -17 -25 5 -49 10 -12 18 -25 17 -30 -4 -21 2 -35 12 -28 8 4 7 9 -2 15 -12 7 -12 9 0 9 10 0 5 10 -14 30 -16 16 -26 33 -22 36 3 3 16 -6 29 -21 24 -27 24 -27 24 -4 0 13 -8 31 -18 41 -10 10 -18 13 -18 7z"
       id="path3153" />
    <path
       d="M4557 4663 c-15 -17 -13 -18 19 -18 19 0 34 0 34 1 0 0 -8 8 -18 18 -18 15 -20 15 -35 -1z"
       id="path3155" />
    <path
       d="M4700 4649 c-12 -9 -13 -12 -1 -16 10 -4 10 -7 1 -13 -6 -4 -13 -18 -14 -31 -2 -18 2 -25 15 -25 17 0 17 1 1 20 -16 18 -16 19 0 13 13 -4 15 -2 11 11 -5 15 -3 14 16 -2 18 -17 21 -17 15 -3 -6 16 4 22 33 18 18 -2 27 19 14 32 -9 9 -11 8 -6 -5 4 -10 3 -18 -3 -18 -5 0 -12 7 -16 15 -3 8 -11 15 -18 15 -9 0 -9 -3 2 -10 13 -9 13 -11 0 -20 -20 -13 -35 -7 -34 14 2 19 3 19 -16 5z"
       id="path3157" />
    <path
       d="M4575 4620 c-2 -4 7 -6 21 -4 35 3 41 12 9 12 -14 0 -27 -4 -30 -8z"
       id="path3159" />
    <path
       d="M4779 4594 c-15 -18 -20 -56 -7 -48 5 3 7 11 5 17 -2 7 2 20 11 30 8 9 13 17 10 17 -3 0 -11 -7 -19 -16z"
       id="path3161" />
    <path
       d="M2833 4126 c-24 -21 -25 -23 -8 -40 14 -13 20 -14 26 -5 4 7 5 18 3 24 -6 14 23 28 37 19 5 -3 7 -26 5 -52 -2 -26 -4 -53 -5 -59 -1 -7 -10 -13 -21 -13 -23 0 -27 29 -8 48 10 10 6 10 -20 1 -27 -9 -33 -16 -30 -37 4 -34 32 -51 58 -34 15 9 26 10 41 2 25 -14 57 6 39 24 -5 5 -10 33 -10 62 0 34 -5 56 -15 64 -26 22 -64 20 -92 -4z"
       id="path3163" />
    <path
       d="M1577 3944 c-6 -7 29 -70 56 -99 10 -11 27 -37 38 -57 19 -38 48 -55 34 -20 -26 61 -17 65 42 19 22 -17 54 -41 69 -52 16 -11 44 -34 64 -50 19 -17 44 -37 55 -44 28 -19 -58 62 -148 139 -75 64 -89 88 -42 70 35 -13 32 7 -2 22 -16 6 -30 12 -33 12 -15 3 -101 49 -106 57 -6 10 -18 12 -27 3z"
       id="path3165" />
    <path
       d="M2151 3597 c-9 -12 -8 -16 3 -20 19 -7 32 11 19 24 -6 6 -14 5 -22 -4z"
       id="path3167" />
    <path
       d="M2086 3591 c-4 -5 -2 -11 4 -13 7 -2 7 -22 -1 -61 -12 -57 -9 -74 9 -63 13 8 36 122 28 135 -9 13 -33 14 -40 2z"
       id="path3169" />
    <path
       d="M2324 3326 c27 -26 58 -51 70 -57 12 -6 8 0 -9 13 -16 13 -48 38 -70 57 -26 22 -23 17 9 -13z"
       id="path3171" />
    <path
       d="M1220 3201 c0 -5 6 -16 14 -24 11 -11 12 -17 3 -26 -8 -8 -8 -11 1 -11 7 0 12 3 13 8 0 4 2 17 3 29 1 12 -1 20 -6 17 -4 -3 -8 0 -8 5 0 6 -4 11 -10 11 -5 0 -10 -4 -10 -9z"
       id="path3173" />
    <path
       d="M2778 2964 c-33 -17 -58 -62 -58 -101 0 -43 15 -57 57 -58 38 0 38 0 35 -37 -3 -29 0 -38 12 -38 9 0 18 10 20 23 23 117 40 194 44 206 4 11 -1 12 -21 7 -14 -3 -29 -2 -32 4 -8 14 -25 12 -57 -6z m62 -49 c0 -48 -30 -95 -60 -95 -26 0 -33 15 -26 53 10 53 41 96 65 90 17 -4 21 -13 21 -48z"
       id="path3175" />
    <path
       d="M1255 2822 c-12 -9 -12 -31 1 -57 13 -27 10 -98 -4 -103 -8 -2 -6 -12 7 -28 11 -14 17 -32 14 -41 -5 -12 -2 -15 9 -11 11 5 14 0 12 -18 -1 -13 1 -22 6 -19 5 3 10 -1 13 -7 3 -10 7 -10 17 -1 9 9 10 16 3 25 -9 12 -33 75 -33 88 0 3 -5 21 -11 40 -9 30 -16 76 -21 128 -1 6 -2 12 -2 12 -1 0 -5 -4 -11 -8z"
       id="path3177" />
    <path
       d="M1234 2612 c-8 -5 -5 -13 9 -27 20 -20 20 -20 9 1 -6 12 -8 24 -5 28 9 8 1 7 -13 -2z"
       id="path3179" />
    <path
       d="M3875 2516 c0 -26 3 -32 13 -24 6 6 12 14 12 17 0 4 -6 15 -12 24 -11 15 -13 13 -13 -17z"
       id="path3181" />
    <path
       d="M1334 2476 c1 -43 4 -52 16 -48 8 3 12 2 8 -2 -3 -4 4 -23 17 -42 13 -20 22 -41 19 -48 -3 -7 2 -19 10 -26 9 -7 13 -16 10 -21 -3 -5 2 -6 11 -3 11 5 14 2 9 -12 -4 -11 -3 -15 1 -11 10 9 47 -61 39 -74 -3 -5 3 -6 12 -2 13 5 16 3 11 -9 -3 -10 3 -23 20 -35 13 -10 29 -28 33 -40 6 -13 17 -21 29 -20 23 1 16 20 -19 52 -12 11 -29 33 -37 50 -9 16 -33 51 -54 76 -22 26 -39 52 -39 58 0 7 -5 9 -12 5 -7 -4 -8 -3 -4 5 4 6 0 18 -8 27 -9 8 -16 24 -16 33 0 10 -8 36 -17 57 -17 38 -20 46 -22 72 0 6 -5 12 -10 12 -4 0 -8 -24 -7 -54z"
       id="path3183" />
    <path
       d="M3362 2342 c-9 -7 -7 -13 9 -28 22 -19 22 -19 11 2 -6 12 -8 24 -5 28 9 8 1 7 -15 -2z"
       id="path3185" />
    <path
       d="M3270 2320 c8 -15 18 -20 31 -17 10 3 17 1 13 -4 -3 -5 0 -9 6 -9 6 0 8 -5 4 -12 -4 -6 -3 -8 4 -4 6 3 13 3 16 -2 3 -5 25 -8 50 -7 24 0 42 -3 40 -7 -2 -4 4 -6 15 -5 11 0 17 6 14 14 -5 13 -8 14 -55 17 -15 0 -40 14 -57 30 -24 23 -34 27 -43 18 -8 -8 -17 -8 -30 -1 -18 10 -18 9 -8 -11z"
       id="path3187" />
    <path
       d="M3450 2303 c0 -15 36 -44 44 -36 4 4 4 0 0 -10 -3 -9 -2 -17 4 -17 17 0 20 24 6 38 -8 7 -14 10 -14 6 0 -4 -9 1 -20 11 -11 10 -20 14 -20 8z"
       id="path3189" />
    <path
       d="M3516 2241 c-3 -4 4 -17 16 -27 21 -19 21 -19 10 2 -6 12 -8 24 -5 28 3 3 1 6 -5 6 -6 0 -13 -4 -16 -9z"
       id="path3191" />
    <path
       d="M3021 2205 c0 -17 -6 -36 -12 -42 -7 -7 -5 -12 10 -16 14 -3 18 -1 14 11 -4 8 2 21 13 30 15 12 16 14 2 9 -12 -4 -18 1 -21 16 -3 16 -5 14 -6 -8z"
       id="path3193" />
    <path
       d="M3084 2179 c0 -9 6 -15 12 -12 20 7 23 29 5 29 -9 0 -17 -8 -17 -17z"
       id="path3195" />
    <path
       d="M3847 2182 c-20 -21 -22 -32 -6 -32 5 0 7 5 4 10 -3 6 -2 10 3 10 6 0 12 7 16 15 7 20 3 19 -17 -3z"
       id="path3197" />
    <path
       d="M3108 2158 c-13 -13 -22 -22 -19 -21 9 6 30 -20 24 -30 -3 -6 -1 -7 6 -3 16 10 53 -3 45 -16 -4 -7 -2 -8 4 -4 9 5 9 13 1 27 -9 19 -9 19 10 10 15 -8 23 -7 35 4 13 14 13 45 -1 45 -3 0 -3 -6 0 -14 3 -8 -2 -20 -10 -28 -15 -11 -16 -11 -10 6 6 14 4 17 -10 12 -14 -6 -14 -4 3 15 19 22 19 22 -1 11 -13 -6 -27 -7 -37 -1 -12 7 -23 3 -40 -13z"
       id="path3199" />
    <path
       d="M3282 2118 c15 -11 15 -14 0 -36 -16 -24 -15 -25 3 -15 29 15 50 6 33 -15 -11 -13 -11 -14 2 -10 10 3 15 18 15 45 0 31 -3 39 -12 31 -8 -6 -20 -6 -35 2 -19 8 -20 8 -6 -2z"
       id="path3201" />
    <path
       d="M3214 2082 c0 -10 5 -19 11 -19 6 0 11 9 11 19 0 10 -5 18 -11 18 -6 0 -11 -8 -11 -18z"
       id="path3203" />
    <path
       d="M3388 2053 c-8 -10 -7 -12 6 -7 15 6 21 -4 17 -33 -2 -14 18 -19 20 -5 8 52 7 58 -12 58 -11 0 -25 -6 -31 -13z"
       id="path3205" />
    <path
       d="M3461 2061 c-19 -12 -24 -62 -6 -55 7 3 16 1 20 -5 3 -6 11 -11 16 -11 6 0 7 5 3 12 -4 7 -3 8 5 4 17 -11 70 -16 75 -8 2 4 -2 13 -10 20 -8 7 -14 9 -14 3 0 -16 -28 -20 -34 -5 -3 8 -1 12 4 9 6 -3 7 1 4 10 -4 9 -13 14 -20 11 -8 -3 -13 0 -11 6 3 14 -15 20 -32 9z"
       id="path3207" />
    <path
       d="M1622 2041 c-10 -6 -10 -11 3 -21 9 -7 13 -20 10 -29 -3 -8 -3 -13 0 -9 3 3 20 -7 38 -23 17 -16 41 -32 52 -35 11 -4 34 -18 52 -31 20 -15 34 -20 38 -13 3 5 -2 13 -12 17 -10 3 -33 22 -52 40 -18 19 -39 32 -47 29 -9 -3 -11 0 -7 11 5 12 2 15 -10 10 -10 -4 -14 -2 -11 6 7 18 -38 58 -54 48z"
       id="path3209" />
    <path
       d="M2940 2000 c-12 -7 -12 -12 -2 -22 9 -9 15 -9 24 0 16 16 -2 34 -22 22z"
       id="path3211" />
    <path
       d="M3594 1939 c-24 -27 -26 -30 -6 -20 12 6 22 16 22 21 0 5 7 7 15 4 11 -5 13 -2 9 10 -8 20 -5 21 -40 -15z"
       id="path3213" />
    <path
       d="M3149 1887 c-8 -21 -2 -43 11 -43 19 0 21 33 3 40 -7 3 -13 4 -14 3z"
       id="path3215" />
    <path
       d="M1825 1860 c-10 -16 4 -30 22 -23 12 5 14 3 8 -7 -6 -9 -4 -11 5 -5 9 6 12 4 8 -6 -4 -9 1 -15 12 -15 25 0 14 29 -20 49 -18 11 -31 14 -35 7z"
       id="path3217" />
    <path
       d="M3198 1838 c-3 -7 -3 -19 0 -26 3 -10 8 -9 23 4 10 9 16 21 13 25 -8 13 -31 11 -36 -3z"
       id="path3219" />
    <path
       d="M1936 1795 c6 -14 4 -17 -7 -13 -10 4 -15 -1 -16 -12 -2 -26 33 -32 53 -9 9 11 14 22 11 26 -4 3 -7 3 -7 -2 0 -4 -9 0 -20 10 -20 18 -21 18 -14 0z"
       id="path3221" />
    <path
       d="M1977 1764 c-3 -3 -3 -13 0 -22 4 -10 2 -13 -5 -8 -8 5 -10 2 -6 -9 4 -9 25 -25 47 -35 51 -25 55 -25 31 1 -17 20 -18 22 -3 32 15 9 12 13 -17 29 -38 20 -38 20 -47 12z"
       id="path3223" />
    <path
       d="M2070 1722 c0 -12 33 -37 55 -40 11 -2 23 -8 26 -14 3 -5 9 -2 12 7 4 9 3 14 -2 10 -5 -3 -11 -1 -13 4 -4 13 -78 44 -78 33z"
       id="path3225" />
    <path
       d="M2214 1649 c0 -11 6 -15 15 -11 9 3 12 1 8 -5 -5 -7 2 -10 19 -8 16 1 23 -2 21 -9 -5 -13 37 -16 47 -3 3 4 3 5 0 2 -4 -2 -19 4 -34 15 -16 11 -33 20 -40 20 -6 0 -9 4 -6 8 2 4 -3 8 -13 8 -9 0 -17 -8 -17 -17z"
       id="path3227" />
    <path
       d="M2360 1607 c0 -4 -4 -6 -9 -3 -5 3 -15 -2 -22 -11 -11 -13 -11 -15 -1 -9 8 5 21 1 33 -10 18 -16 19 -16 13 -1 -5 13 -2 16 9 11 9 -3 18 -12 21 -21 4 -8 12 -13 19 -10 13 5 39 -17 31 -27 -2 -3 2 -2 8 4 17 14 28 12 22 -4 -3 -8 -1 -17 5 -21 7 -4 8 1 4 12 -6 15 -4 16 9 5 13 -10 19 -10 32 3 9 9 16 18 16 19 0 2 -20 2 -45 1 -29 -1 -46 3 -50 12 -3 8 0 11 6 7 8 -4 7 0 0 15 -7 11 -16 21 -22 21 -6 0 -8 -4 -5 -8 3 -5 -5 -7 -17 -6 -12 1 -25 3 -29 3 -5 1 -8 6 -8 12 0 6 6 9 13 6 8 -3 20 -2 27 3 7 5 -2 7 -24 7 -20 -1 -36 -5 -36 -10z"
       id="path3229" />
    <path
       d="M2722 1443 c-10 -4 -10 -8 0 -21 11 -14 10 -15 -7 -8 -16 6 -18 5 -7 -6 10 -10 17 -7 37 13 22 21 23 25 8 26 -10 0 -24 -2 -31 -4z"
       id="path3231" />
    <path
       d="M2771 1424 c-19 -20 -20 -23 -5 -17 17 6 17 5 5 -11 -8 -9 -20 -15 -26 -12 -8 3 -11 -12 -10 -52 2 -38 7 -57 16 -60 10 -3 10 -1 -1 7 -8 6 -10 11 -4 11 6 0 19 -9 28 -19 15 -16 23 -18 47 -9 16 5 26 14 23 20 -3 5 -13 7 -21 4 -13 -5 -13 -2 2 20 15 24 15 26 2 21 -28 -10 -28 10 -2 40 15 17 23 21 19 11 -3 -10 -11 -18 -17 -18 -6 0 -7 -3 -4 -7 4 -3 18 4 31 16 21 19 24 20 36 6 11 -13 10 -14 -4 -9 -12 5 -15 2 -10 -12 5 -15 4 -16 -5 -4 -8 12 -11 12 -17 -3 -7 -20 1 -47 15 -47 6 0 7 8 4 18 -7 16 -6 16 11 0 9 -10 23 -18 29 -18 7 0 6 4 -3 10 -8 5 -10 10 -4 10 5 0 15 -5 21 -11 17 -17 35 -1 23 21 -8 16 -6 18 18 15 15 -2 34 2 42 8 8 7 6 2 -4 -11 -11 -12 -16 -25 -13 -29 4 -3 7 -2 7 4 0 6 7 14 16 17 12 4 15 2 10 -9 -3 -8 -2 -14 2 -14 24 4 34 -3 27 -18 -5 -14 -4 -15 6 -6 10 10 9 17 -8 35 -11 13 -19 28 -16 34 2 7 -12 10 -41 9 -38 -1 -44 1 -34 13 8 9 14 10 16 3 4 -13 22 -15 22 -2 0 15 -32 22 -46 10 -12 -10 -13 -8 -7 6 5 14 3 17 -8 13 -8 -3 -26 0 -39 7 -17 9 -30 10 -42 4 -14 -8 -16 -6 -11 8 3 10 3 15 -1 11 -5 -4 -18 -3 -30 2 -17 6 -27 2 -45 -16z"
       id="path3233" />
    <path
       d="M2674 1418 c3 -11 1 -15 -8 -12 -8 3 -17 1 -21 -5 -3 -6 1 -12 9 -12 9 -1 21 -3 26 -4 6 -1 14 -3 19 -4 17 -2 5 -56 -13 -55 -12 1 -15 -5 -11 -23 2 -14 7 -28 11 -32 4 -3 4 2 1 11 -4 11 2 24 18 36 18 14 21 22 12 31 -8 8 -7 11 4 11 10 1 8 6 -7 18 -11 9 -26 26 -33 37 -9 14 -11 15 -7 3z"
       id="path3235" />
    <path
       d="M3075 1339 c-6 -8 -4 -10 5 -4 10 6 12 4 7 -7 -3 -10 0 -15 10 -14 9 0 18 -5 21 -13 3 -9 0 -11 -8 -6 -8 5 -11 4 -6 -3 4 -6 13 -9 21 -5 19 7 20 5 -14 37 -21 20 -31 24 -36 15z"
       id="path3237" />
    <path
       d="M2814 1163 c0 -15 7 -19 32 -19 21 1 30 5 27 14 -4 10 -9 10 -19 1 -12 -9 -17 -8 -27 5 -12 16 -13 16 -13 -1z"
       id="path3239" />
  </g>
  <path
     style="fill:#000000;stroke:none;stroke-width:1px;stroke-linecap:butt;stroke-linejoin:miter;stroke-opacity:1;fill-opacity:1"
     d="m 164.0347,0.97129028 0.88007,-2.49352308 0.83117,3.0476393 -1.33639,1.1571251 -0.44004,-1.6134561"
     id="path3044"
     inkscape:connector-curvature="0"
     transform="matrix(0.80000003,0,0,0.80000003,-3.5212592e-6,0)" />
</svg>
