<?xml version="1.0" encoding="UTF-8" standalone="no"?>
<svg
   xmlns:dc="http://purl.org/dc/elements/1.1/"
   xmlns:cc="http://creativecommons.org/ns#"
   xmlns:rdf="http://www.w3.org/1999/02/22-rdf-syntax-ns#"
   xmlns:svg="http://www.w3.org/2000/svg"
   xmlns="http://www.w3.org/2000/svg"
   xmlns:xlink="http://www.w3.org/1999/xlink"
   xmlns:sodipodi="http://sodipodi.sourceforge.net/DTD/sodipodi-0.dtd"
   xmlns:inkscape="http://www.inkscape.org/namespaces/inkscape"
   version="1.0"
   width="177.600000pt"
   height="468.480000pt"
   viewBox="0 0 177.600000 468.480000"
   preserveAspectRatio="xMidYMid meet"
   id="svg3205"
   sodipodi:docname="flux.svg">
  <defs
     id="defs3441" />
  <sodipodi:namedview
     pagecolor="#ffffff"
     bordercolor="#666666"
     borderopacity="1"
     objecttolerance="10"
     gridtolerance="10"
     guidetolerance="10"
     inkscape:pageopacity="0"
     inkscape:pageshadow="2"
     inkscape:window-width="1280"
     inkscape:window-height="996"
     id="namedview3439"
     showgrid="false"
     inkscape:zoom="0.62385833"
     inkscape:cx="-509.46396"
     inkscape:cy="132.23501"
     inkscape:window-x="0"
     inkscape:window-y="0"
     inkscape:window-maximized="1"
     inkscape:current-layer="svg3205" />
  <metadata
     id="metadata3207">
Created by potrace 1.10, written by Peter Selinger 2001-2011
<rdf:RDF>
  <cc:Work
     rdf:about="">
    <dc:format>image/svg+xml</dc:format>
    <dc:type
       rdf:resource="http://purl.org/dc/dcmitype/StillImage" />
  </cc:Work>
</rdf:RDF>
</metadata>
  <g
     id="g3127"
     transform="translate(-58.819595,0)">
    <image
       sodipodi:absref="/home/bcrowell/Documents/writing/books/purcell/ch01/figs/flux-shaded.jpg"
       xlink:href="flux-shaded.jpg"
       y="122.02096"
       x="-337.28842"
       id="image3451"
       height="468.82895"
       width="177.73228" />
    <g
       style="fill:#000000;stroke:none"
       id="g3209"
       transform="matrix(0.024,0,0,-0.024,-337.28843,590.84989)">
      <path
         inkscape:connector-curvature="0"
         id="path3211"
         d="m 4220,19107 c -14,-17 -40,-48 -58,-68 -25,-29 -29,-38 -17,-42 9,-4 12,-13 9,-24 -5,-17 -5,-17 9,0 8,9 23,17 33,17 15,0 22,14 36,72 10,39 16,73 15,74 -1,2 -14,-11 -27,-29 z" />
      <path
         inkscape:connector-curvature="0"
         id="path3213"
         d="m 5155,18980 c -3,-11 -10,-20 -14,-20 -5,0 -31,-20 -57,-45 -42,-39 -46,-45 -26,-45 27,0 28,-13 4,-48 -27,-39 -34,-52 -28,-52 3,0 18,18 32,40 25,37 28,39 44,25 16,-14 18,-10 38,59 12,41 25,82 28,90 3,9 1,16 -4,16 -6,0 -14,-9 -17,-20 z" />
      <path
         inkscape:connector-curvature="0"
         id="path3215"
         d="m 3262,18941 c -7,-15 -34,-53 -61,-82 -35,-39 -45,-55 -34,-57 10,-3 13,-12 10,-30 l -5,-27 15,23 c 15,21 17,21 34,6 17,-15 18,-13 24,33 4,26 14,69 22,95 17,54 14,82 -5,39 z" />
      <path
         inkscape:connector-curvature="0"
         id="path3217"
         d="m 4121,18914 c -12,-20 -20,-38 -18,-40 2,-2 14,14 26,36 28,50 21,53 -8,4 z" />
      <path
         inkscape:connector-curvature="0"
         id="path3219"
         d="m 4073,18828 c -6,-7 -16,-24 -22,-38 -12,-24 -12,-24 4,-5 20,24 37,55 32,55 -3,0 -9,-6 -14,-12 z" />
      <path
         inkscape:connector-curvature="0"
         id="path3221"
         d="m 4023,18748 c -23,-30 -24,-41 -2,-21 12,12 20,25 17,28 -3,3 -10,0 -15,-7 z" />
      <path
         inkscape:connector-curvature="0"
         id="path3223"
         d="m 4990,18715 c -17,-25 -27,-45 -23,-45 8,1 66,90 58,90 -2,0 -18,-20 -35,-45 z" />
      <path
         inkscape:connector-curvature="0"
         id="path3225"
         d="m 4897,18585 c -15,-19 -25,-35 -21,-35 7,0 28,25 45,53 15,27 7,20 -24,-18 z" />
      <path
         inkscape:connector-curvature="0"
         id="path3227"
         d="m 3640,18584 c -344,-58 -726,-368 -915,-744 -36,-71 -97,-230 -89,-230 2,0 -2,-12 -9,-27 -8,-16 -22,-62 -30,-103 -17,-80 -21,-103 -38,-220 -5,-41 -12,-83 -15,-92 -3,-12 0,-18 10,-18 22,0 27,13 32,97 8,121 15,163 55,298 86,289 191,469 395,670 111,111 212,188 304,233 14,6 32,16 40,21 41,27 184,79 230,85 19,3 35,5 35,6 0,4 64,10 139,14 43,3 83,9 89,15 16,16 -127,12 -233,-5 z" />
      <path
         inkscape:connector-curvature="0"
         id="path3229"
         d="m 3901,18565 c -17,-19 -47,-60 -68,-92 -47,-70 -62,-91 -138,-189 -81,-106 -90,-118 -77,-110 11,7 102,118 157,191 16,22 33,45 37,50 52,68 131,185 124,185 -2,0 -18,-16 -35,-35 z" />
      <path
         inkscape:connector-curvature="0"
         id="path3231"
         d="m 3971,18591 c -16,-10 -2,-14 123,-32 151,-21 362,-97 519,-185 62,-36 91,-37 47,-4 -105,81 -408,191 -595,215 -27,4 -57,8 -65,11 -8,2 -21,0 -29,-5 z" />
      <path
         inkscape:connector-curvature="0"
         id="path3233"
         d="m 4838,18508 c -15,-18 -25,-35 -22,-37 4,-5 27,21 45,52 15,26 6,20 -23,-15 z" />
      <path
         inkscape:connector-curvature="0"
         id="path3235"
         d="m 4765,18413 c -20,-27 -55,-68 -79,-93 -23,-25 -52,-58 -64,-74 -59,-76 -162,-189 -315,-345 -62,-63 -98,-105 -82,-93 43,29 209,204 432,452 45,51 156,200 149,200 -3,0 -21,-21 -41,-47 z" />
      <path
         inkscape:connector-curvature="0"
         id="path3237"
         d="m 5900,18374 c 0,-9 -64,-57 -135,-100 -34,-21 -36,-23 -12,-18 23,5 27,3 27,-15 0,-11 -12,-33 -27,-49 -55,-59 -138,-155 -146,-171 -13,-23 71,63 133,138 49,59 54,62 61,43 5,-12 12,-22 16,-22 12,0 97,189 89,197 -3,3 -6,2 -6,-3 z" />
      <path
         inkscape:connector-curvature="0"
         id="path3239"
         d="m 4734,18309 c -3,-6 -2,-14 3,-18 26,-16 70,-50 117,-88 28,-24 65,-53 81,-65 17,-11 57,-52 90,-90 33,-38 66,-76 73,-84 7,-8 10,-14 6,-14 -4,0 2,-10 13,-22 12,-13 42,-65 68,-115 26,-51 51,-95 55,-98 23,-14 18,20 -11,77 -80,158 -187,287 -361,434 -102,85 -124,99 -134,83 z" />
      <path
         inkscape:connector-curvature="0"
         id="path3241"
         d="m 2828,18203 c -18,-21 -31,-43 -25,-43 2,0 13,14 25,30 25,33 24,41 0,13 z" />
      <path
         inkscape:connector-curvature="0"
         id="path3243"
         d="m 3555,18103 c -27,-32 -39,-49 -26,-38 24,21 86,95 79,95 -2,0 -26,-26 -53,-57 z" />
      <path
         inkscape:connector-curvature="0"
         id="path3245"
         d="m 3448,17978 c -55,-62 -73,-92 -26,-45 28,28 91,107 86,107 -2,0 -30,-28 -60,-62 z" />
      <path
         inkscape:connector-curvature="0"
         id="path3247"
         d="m 5568,17991 c -1,-6 -40,-48 -85,-94 -46,-46 -83,-88 -83,-93 0,-11 168,155 181,179 6,10 6,17 0,17 -5,0 -11,-4 -13,-9 z" />
      <path
         inkscape:connector-curvature="0"
         id="path3249"
         d="m 2589,17888 c -19,-24 -26,-37 -16,-29 20,16 61,71 54,71 -3,0 -20,-19 -38,-42 z" />
      <path
         inkscape:connector-curvature="0"
         id="path3251"
         d="m 3315,17830 c -21,-22 -35,-40 -30,-39 10,1 82,79 73,79 -2,0 -22,-18 -43,-40 z" />
      <path
         inkscape:connector-curvature="0"
         id="path3253"
         d="m 2519,17803 -34,-38 38,34 c 20,19 37,36 37,38 0,8 -8,0 -41,-34 z" />
      <path
         inkscape:connector-curvature="0"
         id="path3255"
         d="m 5283,17696 c -54,-51 -135,-126 -180,-166 -77,-67 -90,-80 -78,-80 3,0 173,148 211,184 6,6 35,34 65,62 64,60 95,94 86,94 -4,0 -51,-42 -104,-94 z" />
      <path
         inkscape:connector-curvature="0"
         id="path3257"
         d="m 4116,17715 c -38,-36 -67,-67 -65,-70 3,-2 36,27 74,65 38,39 67,70 65,70 -3,-1 -36,-30 -74,-65 z" />
      <path
         inkscape:connector-curvature="0"
         id="path3259"
         d="m 2365,17629 c -22,-22 -33,-37 -25,-34 14,6 77,75 68,75 -2,0 -22,-18 -43,-41 z" />
      <path
         inkscape:connector-curvature="0"
         id="path3261"
         d="m 3975,17583 c -33,-30 -53,-51 -44,-47 23,12 113,94 108,98 -2,2 -31,-21 -64,-51 z" />
      <path
         inkscape:connector-curvature="0"
         id="path3263"
         d="m 5277,17634 c -6,-6 -2,-21 13,-59 61,-152 106,-381 111,-567 2,-82 12,-117 25,-83 12,29 -15,296 -42,413 -28,127 -83,302 -93,302 -4,0 -10,-3 -14,-6 z" />
      <path
         inkscape:connector-curvature="0"
         id="path3265"
         d="m 6277,17564 c -21,-14 -55,-33 -75,-41 -20,-9 -31,-18 -24,-20 19,-7 15,-19 -20,-60 -18,-21 -22,-29 -10,-18 19,15 27,17 42,7 16,-10 22,-6 49,36 17,26 34,52 38,57 14,18 44,65 41,65 -2,0 -20,-12 -41,-26 z" />
      <path
         inkscape:connector-curvature="0"
         id="path3267"
         d="m 2961,17473 -66,-66 70,63 c 39,35 72,65 74,67 2,2 1,3 -3,3 -5,0 -38,-30 -75,-67 z" />
      <path
         inkscape:connector-curvature="0"
         id="path3269"
         d="m 3777,17413 c -20,-16 -38,-34 -41,-41 -3,-7 15,4 39,25 25,20 45,39 45,40 0,7 -8,2 -43,-24 z" />
      <path
         inkscape:connector-curvature="0"
         id="path3271"
         d="m 2864,17383 c -101,-91 -201,-180 -210,-188 -105,-92 -153,-140 -144,-145 11,-7 14,-92 6,-140 -11,-63 -48,-182 -81,-258 -42,-97 -60,-129 -133,-237 -77,-113 -118,-158 -178,-193 -22,-12 -65,-37 -96,-56 -56,-33 -89,-46 -213,-81 -206,-58 -324,-132 -412,-258 -22,-32 -24,-40 -12,-48 16,-11 9,-18 -94,-83 -34,-21 -53,-35 -42,-32 11,4 25,8 30,9 6,1 9,-37 6,-104 -3,-101 10,-202 31,-243 20,-37 26,1 12,69 -19,91 -23,153 -12,190 5,17 11,39 12,50 11,67 25,80 201,187 55,33 149,92 208,129 59,38 111,69 116,69 4,0 25,13 47,30 21,16 42,30 47,30 7,0 88,50 164,102 23,15 44,28 47,28 3,0 29,18 58,40 29,22 57,40 62,40 4,0 30,16 56,35 26,19 52,35 57,35 6,0 23,11 39,25 16,14 49,37 74,52 25,14 61,38 80,52 19,14 43,31 52,36 50,30 196,134 222,158 17,15 33,27 37,27 5,0 175,125 249,183 9,7 63,48 120,91 58,44 111,86 118,93 8,7 30,26 50,41 21,15 51,39 67,54 17,16 33,28 38,28 4,0 7,5 7,10 0,6 -49,-29 -108,-77 -60,-48 -121,-97 -136,-108 -15,-11 -55,-41 -89,-68 -34,-26 -82,-61 -107,-79 -25,-17 -46,-35 -48,-40 -2,-4 -9,-8 -16,-8 -7,0 -21,-8 -32,-17 -49,-44 -112,-92 -144,-108 -19,-10 -37,-21 -40,-24 -12,-15 -100,-83 -100,-77 0,4 -6,2 -12,-4 -37,-30 -95,-73 -127,-92 -20,-12 -45,-29 -56,-39 -11,-9 -36,-25 -55,-36 -20,-10 -59,-35 -87,-56 -28,-20 -54,-37 -58,-37 -3,0 -21,-11 -39,-25 -31,-24 -56,-32 -56,-19 0,4 24,38 53,78 92,123 138,202 188,321 35,86 75,265 78,357 1,41 30,75 150,178 79,67 188,170 180,170 -3,0 -14,-8 -25,-17 z m -964,-1311 c 0,-4 -17,-18 -37,-31 -21,-12 -78,-47 -128,-78 -49,-31 -106,-65 -125,-76 -19,-10 -70,-40 -113,-64 -43,-25 -81,-43 -84,-39 -4,3 -1,6 6,6 7,0 10,4 6,10 -3,5 23,41 57,80 52,58 79,78 154,115 50,25 100,48 110,50 10,3 42,11 69,19 58,17 85,19 85,8 z" />
      <path
         inkscape:connector-curvature="0"
         id="path3273"
         d="m 6020,17319 -65,-61 65,53 c 36,30 67,55 69,56 2,2 2,5 0,7 -2,3 -34,-22 -69,-55 z" />
      <path
         inkscape:connector-curvature="0"
         id="path3275"
         d="m 4815,17290 c -16,-16 -26,-30 -24,-30 3,0 18,14 34,30 16,17 26,30 24,30 -3,0 -18,-13 -34,-30 z" />
      <path
         inkscape:connector-curvature="0"
         id="path3277"
         d="m 4576,17115 c -11,-8 -18,-17 -15,-19 2,-2 15,4 28,15 27,22 15,26 -13,4 z" />
      <path
         inkscape:connector-curvature="0"
         id="path3279"
         d="m 2455,17020 c -16,-16 -26,-30 -24,-30 3,0 18,14 34,30 16,17 26,30 24,30 -3,0 -18,-13 -34,-30 z" />
      <path
         inkscape:connector-curvature="0"
         id="path3281"
         d="m 5460,16899 c -228,-157 -246,-169 -259,-169 -6,0 -11,-3 -11,-8 0,-4 -20,-18 -45,-32 -25,-14 -45,-28 -45,-33 0,-4 10,-2 22,4 43,23 283,183 286,191 2,4 8,8 13,8 9,0 189,129 189,136 0,6 2,7 -150,-97 z" />
      <path
         inkscape:connector-curvature="0"
         id="path3283"
         d="m 2197,16811 c -70,-58 -93,-82 -52,-54 33,23 123,102 115,102 -3,0 -31,-22 -63,-48 z" />
      <path
         inkscape:connector-curvature="0"
         id="path3285"
         d="m 5413,16808 c -6,-7 -13,-69 -16,-138 -3,-69 -10,-138 -15,-155 -9,-26 -28,-110 -36,-155 -2,-8 -6,-22 -9,-30 -3,-8 -13,-40 -22,-70 -19,-62 -104,-280 -115,-295 -4,-5 -10,-18 -13,-28 -6,-17 -5,-17 16,0 45,33 160,350 195,534 19,99 40,349 30,349 -3,0 -10,-6 -15,-12 z" />
      <path
         inkscape:connector-curvature="0"
         id="path3287"
         d="m 4985,16588 c -55,-33 -122,-75 -150,-93 -27,-18 -105,-64 -172,-104 -68,-39 -123,-74 -123,-77 0,-7 82,40 270,154 85,53 181,111 213,130 49,30 77,52 65,52 -2,0 -49,-28 -103,-62 z" />
      <path
         inkscape:connector-curvature="0"
         id="path3289"
         d="m 1943,16608 c -21,-18 -40,-34 -42,-35 -2,-2 -2,-5 0,-7 2,-2 24,14 49,35 25,21 42,39 38,39 -4,0 -24,-14 -45,-32 z" />
      <path
         inkscape:connector-curvature="0"
         id="path3291"
         d="m 3678,16506 c -21,-11 -38,-24 -38,-29 0,-6 71,33 89,49 12,11 -19,-1 -51,-20 z" />
      <path
         inkscape:connector-curvature="0"
         id="path3293"
         d="m 1775,16474 -30,-26 33,22 c 17,12 32,23 32,26 0,7 -4,5 -35,-22 z" />
      <path
         inkscape:connector-curvature="0"
         id="path3295"
         d="m 6090,16440 c -19,-11 -45,-19 -57,-20 -25,0 -43,-20 -19,-20 29,0 16,-18 -39,-54 -30,-20 -57,-41 -61,-47 -4,-6 18,5 47,25 55,37 75,43 81,26 2,-6 27,17 56,50 55,62 53,73 -8,40 z" />
      <path
         inkscape:connector-curvature="0"
         id="path3297"
         d="m 3388,16327 c -64,-40 -120,-76 -125,-81 -11,-12 -4,-9 117,64 91,55 145,92 130,89 -3,0 -58,-33 -122,-72 z" />
      <path
         inkscape:connector-curvature="0"
         id="path3299"
         d="m 4432,16260 c -46,-28 -87,-50 -92,-50 -4,0 -13,-7 -20,-15 -13,-16 92,38 169,87 76,47 31,30 -57,-22 z" />
      <path
         inkscape:connector-curvature="0"
         id="path3301"
         d="m 5813,16239 c -35,-22 -46,-37 -15,-20 22,13 58,40 52,41 -3,0 -20,-10 -37,-21 z" />
      <path
         inkscape:connector-curvature="0"
         id="path3303"
         d="m 3157,16196 c -59,-35 -68,-51 -12,-21 51,27 77,46 60,44 -6,0 -27,-11 -48,-23 z" />
      <path
         inkscape:connector-curvature="0"
         id="path3305"
         d="m 5668,16152 c -54,-32 -101,-62 -105,-67 -10,-11 -7,-9 110,59 82,48 108,66 95,66 -2,0 -47,-26 -100,-58 z" />
      <path
         inkscape:connector-curvature="0"
         id="path3307"
         d="m 2998,16107 c -81,-44 -109,-65 -68,-49 34,13 168,92 155,91 -5,0 -45,-19 -87,-42 z" />
      <path
         inkscape:connector-curvature="0"
         id="path3309"
         d="m 4174,16115 c -18,-13 -18,-14 4,-8 12,3 25,9 28,14 8,14 -10,11 -32,-6 z" />
      <path
         inkscape:connector-curvature="0"
         id="path3311"
         d="m 5488,16046 c -78,-44 -88,-58 -13,-17 55,30 86,51 75,51 -3,0 -31,-15 -62,-34 z" />
      <path
         inkscape:connector-curvature="0"
         id="path3313"
         d="m 3997,16022 c -26,-14 -45,-27 -43,-29 5,-5 106,45 106,52 0,8 -13,4 -63,-23 z" />
      <path
         inkscape:connector-curvature="0"
         id="path3315"
         d="m 2838,16019 c -21,-11 -38,-22 -38,-24 0,-3 18,4 40,15 22,11 40,23 40,25 0,7 0,7 -42,-16 z" />
      <path
         inkscape:connector-curvature="0"
         id="path3317"
         d="m 5386,15993 c -20,-20 -771,-405 -796,-408 -3,-1 -32,-14 -65,-29 -33,-16 -89,-42 -125,-58 -36,-16 -92,-42 -125,-58 -58,-28 -190,-85 -230,-100 -21,-8 -38,-15 -116,-49 -26,-11 -73,-30 -105,-42 -33,-12 -63,-26 -69,-31 -14,-14 27,-2 90,27 28,12 68,28 90,35 22,7 65,24 95,37 30,14 73,32 95,40 40,15 98,41 227,102 37,17 70,31 73,31 13,0 578,279 720,356 33,17 103,55 154,83 96,51 124,71 105,71 -6,0 -14,-3 -18,-7 z" />
      <path
         inkscape:connector-curvature="0"
         id="path3319"
         d="m 3802,15923 c -40,-19 -71,-37 -69,-40 3,-2 40,14 83,36 97,49 86,53 -14,4 z" />
      <path
         inkscape:connector-curvature="0"
         id="path3321"
         d="m 2628,15909 c -21,-11 -38,-22 -38,-24 0,-3 18,4 40,15 22,11 40,23 40,25 0,7 0,7 -42,-16 z" />
      <path
         inkscape:connector-curvature="0"
         id="path3323"
         d="m 3580,15815 c -14,-8 -20,-14 -15,-14 6,0 21,6 35,14 14,8 21,14 15,14 -5,0 -21,-6 -35,-14 z" />
      <path
         inkscape:connector-curvature="0"
         id="path3325"
         d="m 5127,15799 c -9,-5 -24,-24 -33,-42 -16,-32 -53,-90 -123,-197 -66,-101 -151,-201 -286,-335 -104,-104 -207,-195 -220,-195 -4,0 -33,-21 -65,-47 -32,-27 -69,-56 -81,-65 -13,-10 -20,-18 -17,-18 42,0 240,147 378,282 165,161 228,238 351,428 70,108 124,200 117,200 -2,0 -11,-5 -21,-11 z" />
      <path
         inkscape:connector-curvature="0"
         id="path3327"
         d="m 3473,15765 c -29,-13 -53,-26 -53,-29 0,-6 92,33 105,45 13,13 6,11 -52,-16 z" />
      <path
         inkscape:connector-curvature="0"
         id="path3329"
         d="m 3210,15644 -25,-15 25,7 c 14,3 29,10 35,15 15,14 -7,10 -35,-7 z" />
      <path
         inkscape:connector-curvature="0"
         id="path3331"
         d="m 1103,15584 c -24,-14 -43,-27 -43,-30 0,-6 67,33 85,48 17,15 1,8 -42,-18 z" />
      <path
         inkscape:connector-curvature="0"
         id="path3333"
         d="m 3048,15571 c -52,-24 -62,-37 -13,-17 22,10 44,21 50,27 12,12 7,11 -37,-10 z" />
      <path
         inkscape:connector-curvature="0"
         id="path3335"
         d="m 980,15514 c -25,-15 -76,-44 -115,-65 -38,-21 -64,-39 -57,-39 13,0 222,119 222,126 0,6 -3,5 -50,-22 z" />
      <path
         inkscape:connector-curvature="0"
         id="path3337"
         d="m 2905,15505 c -38,-18 -65,-33 -60,-33 13,-1 153,66 140,67 -5,0 -41,-15 -80,-34 z" />
      <path
         inkscape:connector-curvature="0"
         id="path3339"
         d="m 1820,15505 c -14,-8 -20,-14 -15,-14 6,0 21,6 35,14 14,8 21,14 15,14 -5,0 -21,-6 -35,-14 z" />
      <path
         inkscape:connector-curvature="0"
         id="path3341"
         d="m 1707,15454 c -16,-9 -27,-18 -24,-21 6,-5 67,24 67,32 0,8 -14,5 -43,-11 z" />
      <path
         inkscape:connector-curvature="0"
         id="path3343"
         d="m 1615,15410 c -22,-11 -71,-33 -110,-50 -38,-17 -82,-38 -97,-46 -14,-8 -31,-14 -38,-14 -6,0 -28,-11 -48,-25 -33,-23 -34,-25 -12,-23 22,3 29,-6 61,-70 20,-41 41,-81 48,-90 6,-10 25,-41 42,-69 21,-38 35,-53 51,-53 19,0 20,2 6,18 -23,25 -98,152 -98,165 0,6 -7,18 -15,27 -8,9 -16,26 -18,38 -2,12 -6,25 -10,28 -20,21 6,41 146,108 83,41 148,74 142,75 -5,0 -28,-9 -50,-19 z" />
      <path
         inkscape:connector-curvature="0"
         id="path3345"
         d="m 5413,15361 c -56,-7 -83,-21 -40,-21 63,0 13,-31 -206,-126 -48,-20 -85,-39 -83,-41 3,-4 173,69 266,113 47,23 69,22 49,-2 -23,-29 7,-13 51,26 25,22 48,40 53,40 4,0 7,5 7,10 0,11 -15,11 -97,1 z" />
      <path
         inkscape:connector-curvature="0"
         id="path3347"
         d="m 2535,15346 c -47,-22 -128,-57 -150,-66 -11,-4 -31,-12 -45,-18 -14,-6 -41,-17 -60,-25 -107,-46 -160,-70 -157,-73 4,-5 439,176 452,187 14,13 -5,11 -40,-5 z" />
      <path
         inkscape:connector-curvature="0"
         id="path3349"
         d="m 3593,15162 c -137,-52 -169,-77 -40,-30 132,48 198,77 177,77 -8,0 -70,-21 -137,-47 z" />
      <path
         inkscape:connector-curvature="0"
         id="path3351"
         d="m 4937,15117 c -64,-28 -115,-52 -113,-54 5,-5 226,86 241,99 18,16 -10,6 -128,-45 z" />
      <path
         inkscape:connector-curvature="0"
         id="path3353"
         d="m 2050,15140 c -19,-11 -30,-19 -25,-19 6,0 26,8 45,19 19,11 31,19 25,19 -5,0 -26,-8 -45,-19 z" />
      <path
         inkscape:connector-curvature="0"
         id="path3355"
         d="m 935,15101 c -22,-11 -37,-20 -34,-20 10,-1 79,29 79,34 0,7 0,7 -45,-14 z" />
      <path
         inkscape:connector-curvature="0"
         id="path3357"
         d="m 3360,15074 c -52,-20 -103,-38 -112,-41 -10,-3 -18,-9 -18,-14 0,-8 13,-4 85,27 17,7 54,20 83,29 29,10 55,21 58,26 7,11 14,14 -96,-27 z" />
      <path
         inkscape:connector-curvature="0"
         id="path3359"
         d="m 1901,15084 c -18,-8 -31,-17 -29,-20 3,-2 25,4 49,15 24,11 37,20 29,19 -8,0 -30,-6 -49,-14 z" />
      <path
         inkscape:connector-curvature="0"
         id="path3361"
         d="m 1780,15036 c -30,-12 -64,-26 -75,-31 -11,-4 -24,-9 -30,-11 -32,-10 -86,-31 -91,-37 -4,-4 -16,-7 -26,-7 -10,0 -18,-4 -18,-10 0,-5 -8,-10 -17,-10 -10,0 -25,-5 -33,-10 -11,-8 -8,-9 12,-4 25,5 37,-3 112,-78 106,-106 269,-223 303,-216 13,2 8,9 -22,27 -138,82 -245,169 -290,235 -29,43 -35,60 -20,61 6,0 19,6 30,11 11,6 34,15 50,19 17,5 32,9 35,10 10,3 105,45 135,59 47,23 6,17 -55,-8 z" />
      <path
         inkscape:connector-curvature="0"
         id="path3363"
         d="m 4770,15045 c -14,-8 -20,-14 -15,-14 6,0 21,6 35,14 14,8 21,14 15,14 -5,0 -21,-6 -35,-14 z" />
      <path
         inkscape:connector-curvature="0"
         id="path3365"
         d="m 4675,15009 c -147,-59 -465,-174 -790,-285 -99,-35 -548,-170 -589,-178 -11,-3 -86,-22 -166,-44 -80,-22 -201,-54 -270,-72 -69,-17 -133,-34 -143,-37 -10,-3 -16,-7 -14,-10 3,-2 22,1 44,7 21,6 108,15 193,20 296,17 630,92 890,202 74,31 307,156 346,185 26,19 154,73 244,102 42,14 314,122 319,126 9,10 -16,3 -64,-16 z m -665,-269 c 0,-13 -143,-86 -250,-128 -199,-78 -337,-116 -555,-152 -192,-32 -270,-23 -119,14 33,8 100,26 149,41 50,14 115,32 145,40 87,21 281,80 460,139 91,30 166,55 168,55 1,1 2,-3 2,-9 z" />
      <path
         inkscape:connector-curvature="0"
         id="path3367"
         d="m 3150,14997 c -30,-12 -88,-33 -129,-47 -40,-13 -69,-26 -64,-27 10,-4 222,70 251,86 30,18 -1,11 -58,-12 z" />
      <path
         inkscape:connector-curvature="0"
         id="path3369"
         d="m 2900,14911 c -8,-5 -85,-32 -170,-61 -147,-49 -196,-69 -140,-58 33,7 321,107 340,119 13,7 13,8 0,8 -8,0 -22,-4 -30,-8 z" />
      <path
         inkscape:connector-curvature="0"
         id="path3371"
         d="m 1335,14859 c -22,-10 -29,-16 -15,-13 28,7 80,33 65,33 -5,0 -28,-9 -50,-20 z" />
      <path
         inkscape:connector-curvature="0"
         id="path3373"
         d="m 1120,14775 c -33,-19 -21,-19 21,0 19,8 27,14 19,14 -8,0 -26,-6 -40,-14 z" />
      <path
         inkscape:connector-curvature="0"
         id="path3375"
         d="m 2523,14783 c -12,-2 -39,-13 -60,-24 -21,-11 -27,-17 -14,-13 13,3 29,7 35,8 17,4 82,34 71,34 -5,0 -20,-3 -32,-5 z" />
      <path
         inkscape:connector-curvature="0"
         id="path3377"
         d="m 2355,14725 c -40,-19 -16,-19 26,0 19,8 27,14 19,14 -8,0 -28,-7 -45,-14 z" />
      <path
         inkscape:connector-curvature="0"
         id="path3379"
         d="m 2100,14645 c -107,-35 -256,-82 -330,-105 -184,-57 -194,-61 -145,-53 22,3 100,25 174,49 74,24 144,44 157,44 13,0 47,-11 76,-23 60,-27 260,-91 329,-106 86,-19 313,-40 349,-32 28,6 8,10 -95,20 -187,18 -286,36 -405,74 -144,47 -191,68 -187,81 2,6 66,32 143,58 156,53 165,56 144,56 -8,0 -103,-28 -210,-63 z" />
      <path
         inkscape:connector-curvature="0"
         id="path3381"
         d="m 4964,14455 c 10,-7 15,-18 12,-23 -3,-6 1,-13 10,-16 14,-5 14,-9 3,-23 -8,-9 14,2 49,26 34,23 62,44 62,46 0,3 -35,5 -77,5 -69,-1 -76,-2 -59,-15 z" />
      <path
         inkscape:connector-curvature="0"
         id="path3383"
         d="m 1375,14420 c -13,-5 -14,-9 -5,-9 8,0 24,4 35,9 13,5 14,9 5,9 -8,0 -24,-4 -35,-9 z" />
      <path
         inkscape:connector-curvature="0"
         id="path3385"
         d="m 2595,14360 c -13,-5 -14,-9 -5,-9 8,0 24,4 35,9 13,5 14,9 5,9 -8,0 -24,-4 -35,-9 z" />
      <path
         inkscape:connector-curvature="0"
         id="path3387"
         d="m 2515,14340 c -13,-5 -14,-9 -5,-9 8,0 24,4 35,9 13,5 14,9 5,9 -8,0 -24,-4 -35,-9 z" />
      <path
         inkscape:connector-curvature="0"
         id="path3389"
         d="m 2350,14300 c -20,-6 -21,-8 -5,-8 11,0 29,3 40,8 25,11 -1,11 -35,0 z" />
      <path
         inkscape:connector-curvature="0"
         id="path3391"
         d="m 1920,14200 c -20,-6 -21,-8 -5,-8 11,0 31,4 45,8 20,6 21,8 5,8 -11,0 -31,-4 -45,-8 z" />
      <path
         inkscape:connector-curvature="0"
         id="path3393"
         d="m 1775,14168 c -22,-5 -51,-11 -64,-14 -13,-3 -21,-7 -19,-10 5,-5 149,24 157,31 7,7 -29,4 -74,-7 z" />
      <path
         inkscape:connector-curvature="0"
         id="path3395"
         d="m 1595,14130 c -17,-7 -16,-9 10,-9 17,0 39,4 50,9 17,7 16,9 -10,9 -16,0 -39,-4 -50,-9 z" />
      <path
         inkscape:connector-curvature="0"
         id="path3397"
         d="m 3530,13396 c 0,-13 -7,-43 -15,-67 -16,-46 -14,-69 7,-69 9,0 13,15 13,43 1,23 4,59 9,80 6,25 5,37 -3,37 -6,0 -11,-11 -11,-24 z" />
      <path
         inkscape:connector-curvature="0"
         id="path3399"
         d="m 3440,13368 c -23,-37 -26,-93 -7,-101 9,-3 12,4 9,27 -2,18 3,49 12,69 19,46 12,48 -14,5 z" />
      <path
         inkscape:connector-curvature="0"
         id="path3401"
         d="m 3702,13358 c -1,-20 -5,-45 -8,-55 -5,-17 -5,-17 6,0 6,9 9,34 7,55 l -4,37 -1,-37 z" />
      <path
         inkscape:connector-curvature="0"
         id="path3403"
         d="m 3745,12130 c -302,-29 -542,-138 -740,-335 -84,-84 -90,-91 -145,-170 -64,-91 -183,-318 -226,-429 -14,-38 -32,-103 -40,-145 -8,-42 -21,-105 -29,-141 -14,-62 -20,-124 -29,-320 -4,-78 -16,-134 -61,-295 -35,-124 -106,-284 -158,-359 -84,-118 -275,-248 -522,-356 -182,-79 -179,-78 -257,-127 -100,-63 -189,-158 -233,-247 -34,-68 -37,-82 -37,-154 0,-100 39,-248 92,-352 65,-129 90,-174 108,-195 10,-11 31,-40 48,-64 59,-89 228,-233 339,-288 143,-72 332,-138 511,-178 230,-52 690,-59 904,-15 108,22 275,67 345,93 114,42 364,161 530,251 124,68 340,224 478,344 377,330 655,781 767,1246 65,272 83,675 40,901 -27,144 -96,346 -165,485 -113,227 -271,417 -432,519 -350,223 -550,296 -891,331 -56,5 -108,9 -115,8 -7,-1 -43,-4 -82,-8 z m 100,-43 c -3,-7 -27,-24 -53,-37 -26,-14 -57,-33 -70,-42 -13,-9 -42,-26 -66,-38 -39,-18 -46,-19 -77,-6 -47,19 -96,75 -78,87 8,5 20,7 27,4 6,-2 12,-1 12,4 0,8 45,18 130,28 25,2 46,6 47,6 1,1 31,3 67,5 51,2 64,0 61,-11 z m 152,-52 c 44,-41 83,-95 83,-117 0,-15 -9,-18 -57,-18 -32,0 -116,-9 -186,-21 l -128,-22 -29,28 c -41,40 -40,41 145,147 17,9 48,26 70,37 43,22 40,23 102,-34 z m 153,34 c 93,-18 270,-72 270,-84 0,-1 -7,-25 -16,-55 l -16,-53 -61,7 c -34,3 -78,9 -97,12 -33,6 -59,10 -88,13 -7,0 -17,12 -21,25 -5,13 -34,50 -65,83 -31,33 -53,63 -50,66 7,7 60,1 144,-14 z m -722,-60 c 7,-11 15,-44 18,-71 2,-28 7,-56 12,-62 11,-15 46,-125 41,-129 -42,-28 -132,-115 -180,-172 -70,-86 -66,-86 -152,-2 -56,55 -103,130 -92,147 3,6 1,10 -4,10 -12,0 -15,58 -5,84 6,15 102,94 149,123 42,26 179,93 189,93 6,0 17,-9 24,-21 z m 97,-49 c 4,-6 23,-19 43,-29 49,-25 115,-88 109,-104 -3,-6 -13,-32 -22,-57 -10,-25 -22,-51 -28,-57 -26,-35 -97,61 -125,168 -11,41 -18,77 -15,82 6,10 31,9 38,-3 z m 1027,-32 c 49,-23 88,-45 88,-50 0,-4 7,-8 15,-8 9,0 30,-10 48,-22 18,-13 34,-24 36,-25 8,-5 -44,-93 -55,-93 -10,0 -72,37 -136,81 -15,11 -29,19 -31,19 -3,0 -22,8 -43,17 -22,9 -42,17 -46,17 -12,1 -12,8 2,51 15,47 19,55 28,55 4,0 46,-19 94,-42 z m -483,-68 c 18,-9 18,-12 1,-74 -10,-36 -21,-89 -25,-118 -3,-29 -8,-66 -10,-83 -2,-16 -4,-33 -4,-37 -3,-28 -223,31 -311,82 -39,23 -70,46 -70,53 0,26 59,135 77,141 35,10 188,35 233,38 25,2 55,4 68,5 13,2 32,-1 41,-7 z m 229,-6 c 95,-10 179,-40 266,-95 47,-29 88,-60 91,-68 12,-32 -83,-100 -195,-138 -82,-29 -358,-39 -382,-15 -8,8 -11,36 -10,75 3,66 37,224 54,245 11,12 25,12 176,-4 z m 505,-74 c 70,-57 100,-80 108,-80 5,0 27,-17 49,-39 30,-29 40,-47 40,-70 0,-35 -39,-121 -55,-121 -6,0 -31,30 -55,67 -25,36 -71,92 -102,123 l -58,57 15,36 c 15,37 35,46 58,27 z m -1772,-27 c 1,-5 3,-17 4,-28 1,-11 12,-40 24,-64 11,-25 21,-52 21,-61 0,-8 -20,-38 -45,-67 -25,-28 -45,-56 -45,-61 0,-5 -7,-15 -15,-22 -8,-7 -32,-43 -52,-81 -23,-43 -44,-69 -54,-69 -19,0 -45,27 -36,37 4,3 0,15 -8,27 -8,11 -15,28 -15,37 0,10 -5,19 -12,21 -15,5 6,78 31,105 9,10 21,29 28,43 6,14 18,34 27,45 9,11 36,48 61,83 29,40 52,62 65,62 11,0 21,-3 21,-7 z m 534,-63 c 38,-30 188,-120 201,-120 4,0 15,-7 24,-15 16,-14 15,-23 -11,-123 -16,-59 -34,-126 -39,-149 -14,-54 -25,-55 -133,-6 -164,75 -317,171 -317,199 0,24 102,149 161,195 33,27 64,49 68,49 5,0 25,-13 46,-30 z m 1240,-92 c 60,-66 105,-145 105,-188 0,-19 -13,-36 -51,-65 -70,-55 -102,-75 -116,-75 -7,0 -30,35 -53,78 -22,42 -60,104 -85,137 -25,33 -45,63 -45,66 0,4 15,17 34,29 19,11 48,36 64,54 51,59 62,56 147,-36 z m -1670,-37 c 12,-20 203,-169 263,-205 34,-20 62,-43 62,-49 0,-7 -12,-29 -26,-50 -34,-51 -87,-147 -125,-229 -24,-50 -37,-68 -52,-68 -34,0 -249,155 -298,215 -9,11 -26,31 -38,44 -23,27 -21,54 12,111 11,19 26,46 33,60 7,14 21,34 31,45 10,11 29,37 42,58 40,65 80,93 96,68 z m 1917,-3 c 56,-46 237,-359 238,-411 0,-36 -122,-190 -148,-185 -8,2 -26,37 -42,83 -27,78 -108,246 -142,294 -16,23 -16,26 6,70 12,25 31,72 41,104 21,61 23,64 47,45 z m -1107,-37 c 55,-10 126,-22 158,-26 75,-9 78,-17 75,-199 l -3,-141 -70,3 c -81,4 -267,35 -307,51 -23,9 -28,17 -28,45 0,63 53,286 68,286 4,0 52,-9 107,-19 z m 639,-46 c 43,-53 98,-157 111,-208 6,-23 2,-27 -52,-47 -108,-41 -361,-80 -415,-64 -14,4 -16,24 -17,146 -1,77 -2,143 -3,147 -4,36 2,38 105,44 56,3 120,12 142,20 67,26 80,22 129,-38 z m -1807,-124 c -3,-14 -15,-57 -27,-96 -29,-95 -46,-162 -54,-210 -10,-60 -27,-106 -36,-100 -8,5 -19,52 -26,116 -5,43 22,129 78,246 29,61 43,80 55,76 10,-4 13,-14 10,-32 z m 2217,-141 c 45,-89 79,-187 90,-257 5,-36 3,-44 -20,-62 -14,-11 -46,-30 -72,-42 -26,-12 -54,-28 -62,-35 -51,-43 -368,-132 -383,-107 -3,4 -8,42 -12,83 -7,82 -15,122 -46,247 -12,46 -19,89 -16,96 3,8 23,17 44,20 101,17 265,87 318,136 51,48 67,53 93,28 13,-12 42,-60 66,-107 z m -2137,29 c 65,-69 141,-142 159,-152 19,-11 18,-29 -7,-76 -11,-22 -27,-62 -34,-88 -47,-164 -56,-201 -60,-241 -6,-74 -19,-75 -81,-7 -55,60 -61,67 -100,117 -22,28 -25,90 -9,212 13,99 65,286 80,286 2,0 26,-23 52,-51 z m 750,10 c 48,-23 149,-57 223,-76 132,-35 140,-36 370,-39 171,-3 236,-8 241,-17 25,-47 53,-212 53,-311 l 1,-110 -35,-9 c -48,-12 -422,-3 -492,13 -55,12 -58,14 -58,44 0,17 8,76 19,131 23,123 36,264 24,250 -5,-5 -15,-46 -22,-90 -7,-44 -16,-93 -21,-110 -4,-16 -16,-64 -24,-105 -24,-109 -18,-106 -122,-80 -111,28 -216,67 -346,131 l -100,50 5,36 c 7,39 72,184 125,276 21,37 39,57 51,57 11,0 59,-18 108,-41 z m 1748,-283 c 40,-132 56,-232 62,-391 l 6,-151 -36,-27 c -20,-15 -40,-27 -45,-27 -5,0 -10,58 -11,132 0,73 -5,158 -11,188 -5,30 -12,71 -15,90 -6,37 -48,195 -59,221 -4,9 4,29 21,52 28,36 28,36 46,15 9,-11 28,-57 42,-102 z m -2263,58 c 17,-9 51,-31 77,-49 25,-18 114,-66 196,-105 83,-40 152,-74 154,-76 4,-4 -17,-90 -51,-209 -30,-103 -48,-194 -48,-243 0,-29 -5,-44 -16,-49 -38,-14 -409,207 -456,272 -9,12 -1,126 13,190 37,168 76,285 95,285 3,0 19,-7 36,-16 z m 2148,-135 c 39,-144 67,-453 45,-490 -4,-6 -7,-30 -7,-53 1,-41 -1,-43 -61,-83 -94,-61 -234,-123 -278,-123 -25,0 -26,3 -33,105 -14,191 -47,367 -83,438 -8,16 -13,33 -11,38 2,6 35,25 73,42 107,50 163,83 245,142 84,61 90,61 110,-16 z m -2611,10 c 15,-44 59,-112 114,-176 46,-55 56,-79 38,-98 -13,-15 -69,-184 -81,-247 -6,-31 -17,-59 -24,-61 -7,-3 -39,19 -70,49 -53,51 -56,57 -54,99 0,25 4,45 7,45 3,0 6,57 7,128 1,110 17,261 31,285 9,15 21,6 32,-24 z m 1011,-150 c 69,-27 310,-76 415,-85 44,-4 86,-11 93,-17 9,-7 11,-40 7,-134 -3,-69 -7,-129 -10,-133 -2,-4 -12,-70 -21,-146 -9,-77 -18,-141 -20,-143 -23,-24 -536,111 -629,166 -30,18 -24,117 20,308 21,88 39,170 42,183 7,28 31,28 103,1 z m 1142,-41 c 33,-25 75,-250 84,-449 7,-138 5,-149 -31,-155 -5,-1 -23,-5 -40,-9 -125,-30 -171,-33 -385,-31 -124,1 -233,6 -242,10 -23,10 -23,61 -3,251 8,77 15,182 15,233 l 0,92 28,1 c 15,1 77,3 137,5 118,3 279,24 360,48 64,18 59,18 77,4 z m -1927,-108 c 60,-59 184,-153 255,-195 45,-26 84,-54 87,-60 2,-7 -4,-30 -15,-52 -11,-21 -32,-78 -47,-128 -49,-166 -54,-177 -78,-169 -30,9 -85,42 -130,78 -60,49 -188,169 -197,186 -7,14 -2,71 15,159 3,19 14,59 25,90 41,124 46,129 85,91 z m 2558,-320 c -2,-107 -18,-226 -49,-362 -31,-137 -34,-145 -80,-195 -48,-52 -174,-114 -174,-85 0,4 11,50 24,102 30,121 48,282 41,387 l -5,83 33,16 c 33,18 84,56 146,111 57,51 66,42 64,-57 z m -2835,11 c 1,-22 -1,-41 -5,-41 -4,0 -9,-17 -11,-37 -1,-20 -6,-39 -10,-43 -4,-3 -8,-14 -10,-25 -4,-31 -7,-38 -22,-62 -17,-26 -35,-30 -44,-8 -3,8 -12,15 -21,15 -20,0 -19,7 13,86 16,38 31,83 35,99 3,17 10,43 16,59 11,27 13,27 34,13 16,-10 23,-26 25,-56 z m 744,-2 c 40,-18 93,-40 118,-51 25,-11 52,-23 60,-27 8,-4 62,-22 120,-40 140,-43 170,-57 170,-78 0,-10 -10,-67 -21,-128 -45,-246 -54,-275 -84,-275 -13,0 -42,7 -66,15 -75,26 -284,118 -287,127 -2,4 -10,8 -19,8 -8,0 -33,13 -56,29 -23,15 -61,38 -83,49 -23,12 -44,29 -48,37 -14,37 90,365 116,365 4,0 40,-14 80,-31 z m -608,-77 c 12,-14 16,-29 13,-44 -25,-96 -32,-118 -39,-118 -5,0 -8,-8 -9,-17 -1,-22 -31,-75 -45,-80 -5,-2 -19,5 -30,15 -11,11 -30,25 -42,31 -22,12 -31,51 -11,51 5,0 7,5 4,10 -4,6 -2,16 3,23 6,7 13,28 17,47 3,19 8,44 10,55 2,11 4,20 5,20 1,0 4,14 6,30 9,57 11,58 56,27 24,-16 51,-39 62,-50 z m 2420,-41 c 8,-13 9,-167 1,-236 -8,-79 -38,-206 -64,-276 l -21,-56 -103,-23 c -109,-24 -381,-48 -412,-37 -15,6 -17,15 -11,60 16,111 17,137 19,282 l 2,150 30,2 c 87,5 148,14 220,32 94,23 286,88 300,102 11,11 32,12 39,0 z m -2336,-49 c 10,-10 33,-28 52,-40 19,-12 48,-33 64,-48 l 28,-25 -17,-57 c -29,-100 -57,-147 -85,-147 -14,0 -34,8 -45,18 -11,10 -33,26 -50,34 -30,15 -75,59 -75,73 0,4 7,13 15,20 8,7 15,21 15,31 0,10 4,20 9,23 5,3 12,23 16,43 4,21 11,44 17,51 6,6 7,12 3,12 -4,0 -2,7 5,15 16,20 26,19 48,-3 z m 1149,-38 c 53,-8 100,-17 104,-19 16,-11 205,-26 316,-26 95,0 124,-3 133,-15 10,-11 11,-57 6,-192 -7,-189 -15,-252 -37,-278 -28,-34 -347,3 -616,71 -112,28 -128,39 -113,79 5,15 10,38 10,52 0,14 6,35 14,47 7,12 24,81 36,152 12,72 24,133 27,138 6,10 9,9 120,-9 z m -1461,-82 52,-47 -19,-40 c -25,-54 -55,-102 -78,-126 -18,-20 -18,-20 -71,1 -28,11 -58,27 -66,34 -16,16 -13,22 47,116 19,30 41,67 48,83 8,15 19,27 25,27 6,-1 34,-22 62,-48 z m 545,-45 c 58,-39 137,-84 272,-155 43,-22 48,-28 44,-52 -9,-43 -85,-197 -101,-203 -15,-6 -111,49 -264,151 -93,63 -99,70 -83,88 5,5 21,45 35,89 15,44 29,86 31,93 6,18 28,15 66,-11 z m -399,-62 c 45,-31 53,-54 34,-97 -20,-43 -48,-91 -61,-100 -12,-10 -69,1 -73,13 -2,5 -11,9 -21,9 -17,0 -41,18 -41,31 0,4 6,14 13,21 6,8 25,38 41,68 49,93 51,94 108,55 z m -354,-108 c 9,-10 -2,-26 -46,-69 -82,-80 -115,-98 -157,-85 -19,5 -36,15 -39,22 -2,6 25,31 61,56 37,24 80,54 97,66 35,25 69,29 84,10 z m 574,-47 c 51,-33 95,-60 100,-60 19,0 6,-46 -24,-87 -88,-120 -84,-118 -159,-48 -23,22 -50,45 -59,50 -9,6 -31,22 -48,37 l -32,27 22,40 c 12,23 26,41 30,41 5,0 7,4 4,8 -10,16 25,52 50,52 14,0 66,-27 116,-60 z m -437,-10 c 36,-17 65,-36 65,-43 0,-16 -101,-115 -152,-148 -44,-30 -62,-29 -103,7 -15,13 -32,24 -36,24 -4,0 -15,7 -23,16 -14,14 -13,18 17,42 17,15 39,36 47,47 30,41 82,85 101,85 11,0 49,-14 84,-30 z m 1112,-27 c 39,-18 78,-33 85,-33 7,0 46,-14 87,-30 40,-17 79,-30 86,-30 8,0 21,-7 29,-15 14,-14 13,-23 -13,-93 -38,-102 -69,-170 -82,-178 -11,-6 -36,2 -127,43 -29,12 -55,23 -58,23 -11,0 -254,120 -254,125 0,3 15,34 33,68 18,34 39,80 46,102 7,22 18,45 23,52 13,17 58,6 145,-34 z m -904,-85 c 42,-29 77,-59 76,-68 0,-18 -197,-167 -230,-175 -17,-4 -32,1 -49,17 -14,13 -42,36 -62,52 -21,16 -38,34 -38,41 0,7 15,24 34,38 18,15 61,53 94,87 33,33 69,60 79,60 10,0 53,-24 96,-52 z m 2651,4 c -13,-52 -44,-100 -86,-133 -24,-18 -45,-36 -48,-39 -27,-29 -223,-160 -239,-160 -6,0 -54,-31 -173,-112 -31,-21 -61,-38 -67,-38 -13,0 -15,32 -2,46 19,21 80,146 115,235 l 36,94 113,24 c 61,13 126,25 142,28 17,2 68,23 115,46 47,23 88,41 93,39 4,-2 4,-15 1,-30 z m -2162,-51 c 51,-32 152,-88 223,-125 72,-37 134,-71 139,-76 19,-19 -45,-123 -128,-205 -81,-81 -140,-120 -162,-107 -7,4 -44,55 -83,113 -39,59 -108,148 -153,199 -45,50 -77,95 -72,98 6,4 21,23 34,42 14,19 28,40 33,45 4,6 17,25 27,43 11,17 26,32 34,32 8,0 57,-26 108,-59 z m -1005,-1 c 41,-19 61,-34 58,-42 -3,-8 -52,-38 -108,-67 -56,-30 -112,-63 -124,-73 -16,-15 -29,-18 -52,-13 -17,4 -31,10 -31,14 0,3 -13,12 -30,18 -16,6 -30,18 -30,26 0,17 40,70 47,63 3,-3 17,7 32,21 26,24 105,66 128,68 6,0 15,4 19,8 12,12 26,8 91,-23 z m 1823,0 c 53,-16 305,-57 392,-65 43,-4 80,-10 82,-13 4,-8 -36,-174 -44,-182 -4,-3 -12,-24 -18,-47 -7,-23 -19,-49 -27,-57 -8,-8 -15,-20 -15,-27 0,-17 -30,-49 -47,-49 -36,0 -503,166 -503,179 0,3 13,32 30,63 16,32 36,79 44,105 33,111 36,113 106,93 z m -2080,-7 c 0,-5 -24,-28 -52,-53 -52,-46 -86,-56 -122,-38 -16,9 -16,12 -4,24 13,13 152,73 171,74 4,0 7,-3 7,-7 z m 907,-56 c 32,-18 163,-147 163,-161 -1,-25 -244,-183 -270,-174 -22,8 -161,153 -158,165 3,13 223,181 238,182 3,0 15,-5 27,-12 z m -524,-8 c 27,-15 33,-20 87,-67 38,-35 42,-42 31,-56 -7,-9 -21,-16 -30,-16 -9,0 -56,-25 -106,-55 -140,-85 -127,-82 -177,-46 -114,81 -115,95 -8,154 25,13 68,37 95,52 28,15 54,31 60,36 12,12 22,11 48,-2 z m 2521,3 c 13,-21 -11,-74 -154,-352 -10,-19 -32,-48 -49,-64 l -31,-29 -68,16 c -38,9 -85,23 -104,32 l -35,14 41,83 c 23,46 52,127 66,181 13,54 29,102 35,107 17,14 290,25 299,12 z m -3104,-54 c 18,-12 16,-16 -39,-69 -90,-89 -131,-225 -97,-327 14,-40 14,-54 5,-76 -7,-14 -15,-26 -18,-26 -22,0 -130,127 -136,161 -2,11 -9,27 -15,34 -20,24 -14,61 19,108 56,82 203,207 243,207 10,0 27,-5 38,-12 z m 138,-63 c 29,-11 67,-31 84,-46 l 32,-26 -37,-45 c -33,-41 -107,-190 -107,-216 0,-16 -30,-19 -72,-9 -24,6 -53,6 -78,-1 -55,-14 -65,1 -65,97 1,97 27,158 97,223 56,51 65,53 146,23 z m 3382,19 c 0,-13 -87,-175 -99,-184 -3,-3 -24,-34 -45,-70 -22,-36 -42,-67 -45,-70 -4,-3 -24,-30 -45,-62 -21,-31 -48,-65 -60,-76 -11,-10 -28,-29 -36,-41 -22,-33 -66,-78 -95,-97 -24,-16 -26,-15 -45,7 -10,13 -19,29 -20,34 0,6 -16,34 -35,62 -19,29 -35,55 -35,59 0,4 -9,17 -20,29 l -20,22 21,26 c 11,15 25,27 31,27 11,0 89,52 126,84 27,24 81,58 142,89 44,22 107,63 205,132 46,32 75,44 75,29 z m -2711,-92 c 54,-51 62,-69 34,-79 -60,-22 -203,-97 -213,-112 -3,-4 -15,-13 -28,-20 -20,-11 -27,-7 -72,35 -28,26 -50,54 -50,64 0,15 110,93 170,120 14,6 36,17 50,25 39,23 54,18 109,-33 z m 1154,7 c 45,-17 91,-35 102,-40 11,-5 32,-13 48,-19 16,-5 27,-17 27,-27 0,-22 -42,-113 -63,-139 -9,-10 -31,-39 -49,-64 -19,-25 -44,-46 -56,-48 -20,-3 -65,28 -147,101 -11,10 -35,27 -52,38 -38,24 -42,48 -12,75 12,10 41,49 66,87 24,37 46,67 49,67 2,0 42,-14 87,-31 z m -626,-36 c 40,-44 164,-234 160,-247 -9,-32 -214,-107 -298,-110 l -52,-1 -31,57 c -17,32 -45,80 -63,108 l -32,49 28,21 c 16,11 34,20 39,20 5,0 38,21 72,46 79,58 122,84 138,84 7,0 24,-12 39,-27 z m -1025,-1 c 2,-5 29,-28 61,-51 48,-37 57,-48 57,-75 0,-17 -8,-43 -18,-58 -51,-78 -119,-168 -129,-172 -7,-3 -30,9 -51,27 -22,18 -52,41 -67,52 l -27,20 15,51 c 21,71 66,160 95,190 24,23 57,32 64,16 z m 2008,-99 c 52,-18 107,-39 122,-46 l 28,-12 -33,-62 c -41,-79 -99,-155 -184,-240 -51,-53 -69,-46 -209,80 l -43,39 35,51 c 20,29 39,54 43,57 14,10 91,140 91,153 0,34 3,33 150,-20 z m -1368,-22 c 20,-22 43,-51 49,-63 7,-13 17,-28 23,-35 28,-31 36,-43 56,-82 11,-24 19,-48 17,-54 -2,-6 -37,-17 -78,-23 -41,-7 -120,-20 -176,-29 -56,-10 -108,-15 -116,-12 -8,3 -18,18 -21,34 -4,15 -14,35 -21,43 -39,44 -78,140 -57,140 4,0 18,10 32,23 59,54 212,122 240,107 8,-5 32,-27 52,-49 z m -421,-68 c 78,-70 169,-235 169,-304 0,-39 -38,-50 -176,-51 -168,0 -164,-1 -181,54 -7,26 -18,50 -23,53 -18,11 -10,53 19,107 38,69 123,177 138,178 7,0 32,-17 54,-37 z m 1246,0 c 20,-21 52,-50 71,-65 19,-15 58,-49 86,-75 29,-27 66,-59 84,-73 17,-14 32,-32 32,-41 0,-45 -213,-180 -308,-195 l -37,-6 -33,99 c -18,54 -52,139 -76,188 -24,50 -41,96 -38,103 2,7 19,20 36,29 17,9 47,29 66,44 46,39 72,37 117,-8 z m 778,7 c 4,-6 10,-8 13,-6 11,7 113,-30 122,-44 10,-16 -29,-115 -67,-172 -16,-23 -42,-68 -58,-98 -37,-72 -93,-140 -114,-140 -18,0 -79,29 -121,58 -14,9 -40,26 -58,37 -17,11 -32,23 -32,26 0,3 17,24 38,46 77,83 143,159 155,179 7,12 21,34 31,50 11,16 25,39 33,52 14,23 47,30 58,12 z m -2840,-61 c 32,-48 64,-82 110,-118 34,-26 62,-105 41,-118 -6,-4 -38,-6 -71,-4 -44,2 -66,8 -82,23 -25,24 -49,97 -59,180 -12,100 10,113 61,37 z m 3122,-14 c 39,-7 93,-50 93,-75 0,-9 9,-28 19,-42 29,-36 81,-134 81,-151 0,-8 -39,-50 -87,-93 -49,-44 -99,-89 -113,-102 -40,-37 -79,-54 -109,-47 -39,10 -231,98 -231,107 0,4 8,15 18,25 29,29 66,84 106,156 21,37 41,67 45,67 8,0 61,101 61,116 0,5 7,19 15,30 14,22 29,23 102,9 z m -2772,-19 c 56,-14 96,-33 107,-49 3,-6 -9,-28 -27,-50 -32,-37 -66,-100 -95,-174 -23,-61 -63,-35 -124,82 -33,62 -34,122 -5,159 37,47 66,53 144,32 z m 1477,-38 c 29,-52 88,-192 88,-208 0,-30 -75,-51 -245,-69 -141,-15 -156,-10 -176,66 -9,33 -22,69 -28,81 -20,38 -13,50 32,57 23,4 48,12 55,17 6,6 12,8 12,5 0,-6 113,29 185,57 54,20 62,20 77,-6 z M 1918,8857 c 59,-83 55,-177 -10,-217 -60,-36 -187,-15 -196,32 -9,47 121,243 156,236 9,-2 31,-25 50,-51 z m 876,-14 c 42,-97 77,-279 78,-409 0,-139 -11,-171 -61,-166 -77,8 -276,70 -369,117 -42,20 -52,30 -47,43 26,63 29,260 5,342 -13,45 -1,56 68,64 31,4 77,13 102,21 59,18 83,22 151,24 55,1 56,1 73,-36 z m 990,-59 c 25,-14 46,-29 46,-33 0,-5 18,-16 40,-26 22,-10 40,-22 40,-26 0,-4 8,-10 19,-14 10,-3 29,-14 41,-25 12,-10 27,-21 33,-23 31,-10 -152,-267 -192,-267 -9,0 -36,31 -61,68 -25,37 -50,74 -57,82 -57,68 -106,145 -101,159 2,8 139,131 144,131 1,0 22,-12 48,-26 z m -2198,-56 c 18,-36 27,-23 -71,-105 -21,-18 -44,-33 -50,-33 -17,0 -89,145 -82,164 5,11 18,13 60,9 30,-3 62,-1 73,5 25,14 50,0 70,-40 z m 788,-35 c 19,-116 -5,-266 -59,-373 -28,-55 -110,-130 -142,-130 -19,0 -25,9 -37,53 -8,28 -18,88 -21,133 -6,76 -5,84 22,135 16,30 40,81 53,114 13,33 27,65 32,70 8,9 89,30 129,34 12,1 18,-10 23,-36 z m -198,13 c 6,-15 -37,-129 -68,-183 -11,-18 -26,-33 -34,-33 -14,0 -119,106 -119,119 1,3 8,22 17,41 9,19 19,43 22,53 5,14 18,17 91,17 64,0 87,-3 91,-14 z m 1121,-8 c 22,-30 57,-197 58,-278 l 0,-55 -140,0 c -134,0 -279,10 -297,21 -4,3 -8,27 -8,54 0,27 -5,83 -11,125 -6,42 -8,79 -6,82 3,2 34,6 68,8 35,2 93,8 129,14 36,6 83,13 104,17 21,3 48,10 60,14 29,12 32,12 43,-2 z m -1599,-74 c 2,-1 -8,-21 -22,-43 -15,-23 -33,-71 -42,-109 -8,-37 -19,-71 -23,-75 -11,-11 -90,79 -108,123 l -15,34 66,64 65,64 38,-28 c 21,-16 39,-29 41,-30 z m 1876,9 c 11,-15 37,-52 56,-83 19,-30 42,-64 52,-74 10,-11 18,-26 18,-33 0,-48 -271,-193 -293,-156 -2,4 -8,51 -11,103 -4,52 -9,102 -11,110 -2,8 -6,34 -9,57 l -5,42 52,16 c 29,8 63,22 77,30 36,21 49,18 74,-12 z m 629,-85 c 75,-34 137,-67 137,-74 0,-16 -25,-35 -105,-84 -191,-117 -312,-177 -332,-164 -8,5 -26,30 -41,55 l -26,46 25,24 c 45,44 106,128 140,194 19,36 41,65 49,65 8,0 77,-28 153,-62 z m -2385,31 c 18,-7 22,-16 22,-55 0,-53 19,-174 29,-189 14,-20 54,-165 48,-172 -11,-10 -72,22 -157,82 -110,77 -114,83 -107,152 9,76 12,92 30,134 29,69 54,78 135,48 z m 183,-54 c 81,-84 88,-96 88,-146 0,-24 2,-53 4,-64 3,-11 8,-40 12,-65 4,-24 12,-52 18,-62 9,-13 9,-20 0,-29 -14,-14 -70,-25 -111,-21 -27,3 -36,10 -56,50 -55,111 -100,290 -89,358 5,33 36,56 61,46 8,-3 40,-33 73,-67 z m 1769,-176 c 55,-65 90,-120 90,-140 0,-20 -17,-29 -160,-89 -84,-36 -228,-85 -278,-95 l -33,-7 6,74 c 4,40 7,86 8,102 3,33 6,35 102,72 39,15 86,39 105,54 45,36 102,70 115,70 6,0 26,-19 45,-41 z m -1319,-3 c 52,-29 170,-71 288,-102 86,-22 86,-22 84,-53 -3,-72 -90,-197 -154,-223 -23,-9 -117,39 -172,88 -23,20 -75,68 -116,107 l -73,71 33,61 c 30,56 45,74 60,75 4,0 26,-11 50,-24 z m 605,-10 c 38,-3 119,-8 179,-11 61,-4 116,-8 123,-10 16,-6 16,-183 -1,-250 -15,-57 -40,-75 -116,-82 -41,-4 -49,-1 -75,26 -36,38 -117,151 -152,214 -15,26 -30,47 -34,47 -4,0 -12,12 -19,26 -9,20 -9,30 0,40 6,8 15,12 19,9 4,-2 38,-7 76,-9 z m -116,-70 c 38,-60 117,-173 133,-191 31,-33 60,-96 49,-107 -12,-12 -351,-13 -363,-1 -6,6 2,26 20,50 45,62 71,120 116,261 7,19 29,14 45,-12 z m -546,-164 c 52,-50 98,-97 102,-104 15,-25 -171,10 -333,63 -40,12 -73,26 -73,30 0,4 24,18 53,32 28,15 68,38 87,51 19,14 43,24 52,23 9,-1 59,-44 112,-95 z" />
      <path
         inkscape:connector-curvature="0"
         id="path3405"
         d="m 3492,7096 c -12,-63 -25,-122 -28,-130 -4,-10 -1,-16 9,-16 9,0 17,13 20,33 21,120 26,144 30,157 15,44 17,70 5,70 -9,0 -21,-39 -36,-114 z" />
      <path
         inkscape:connector-curvature="0"
         id="path3407"
         d="m 3762,7055 c 0,-58 1,-64 8,-35 5,19 5,51 0,70 -7,29 -8,23 -8,-35 z" />
      <path
         inkscape:connector-curvature="0"
         id="path3409"
         d="m 3598,7066 c 2,-21 -4,-49 -18,-77 l -23,-44 23,20 c 34,30 52,79 40,110 -14,36 -27,31 -22,-9 z" />
      <path
         inkscape:connector-curvature="0"
         id="path3411"
         d="m 3313,7040 c 0,-30 2,-43 4,-27 2,15 2,39 0,55 -2,15 -4,2 -4,-28 z" />
      <path
         inkscape:connector-curvature="0"
         id="path3413"
         d="m 4656,5705 c -21,-36 -49,-81 -62,-101 -29,-42 -27,-48 10,-35 29,12 29,12 26,-58 -2,-46 -25,-87 -32,-55 -6,32 -202,94 -408,129 -115,20 -312,23 -400,6 -116,-23 -360,-119 -360,-143 0,-4 -5,-8 -11,-8 -11,0 -113,-68 -144,-97 -11,-10 -45,-40 -75,-67 -78,-69 -152,-156 -224,-266 -70,-106 -92,-146 -98,-175 -1,-11 -5,-22 -9,-25 -10,-9 -39,-78 -39,-92 0,-8 -9,-32 -19,-54 -18,-37 -49,-144 -56,-189 -1,-11 -5,-27 -8,-35 -21,-56 -72,-506 -61,-535 4,-8 2,-15 -4,-15 -13,0 -41,-115 -35,-140 3,-11 1,-20 -5,-20 -6,0 -14,-10 -17,-22 -22,-73 -149,-287 -187,-316 -10,-7 -18,-20 -18,-29 0,-9 -3,-14 -6,-11 -3,4 -30,-17 -60,-45 -77,-71 -113,-94 -238,-149 -61,-27 -122,-54 -136,-60 -14,-6 -29,-12 -35,-14 -34,-7 -128,-51 -196,-90 -105,-60 -236,-188 -272,-265 -53,-113 -59,-303 -16,-472 20,-80 88,-226 121,-261 10,-11 18,-24 18,-29 0,-18 128,-146 217,-217 36,-29 216,-141 268,-167 93,-47 315,-121 449,-149 167,-35 514,-45 716,-20 367,46 616,127 935,306 161,89 325,198 430,285 44,36 91,73 105,82 28,19 181,153 220,193 92,94 290,340 290,360 0,4 12,24 26,46 14,21 41,65 58,98 18,34 42,77 54,96 12,19 22,41 22,48 0,23 -26,12 -43,-18 -24,-39 -164,-159 -277,-235 -87,-59 -243,-131 -261,-120 -5,4 -5,13 0,23 14,27 76,177 122,292 22,58 42,106 43,107 1,2 36,7 77,13 65,9 133,23 178,36 10,3 11,8 4,15 -6,6 -25,6 -55,0 -51,-12 -107,-21 -158,-25 -19,-2 -53,-6 -75,-9 -44,-7 -127,-15 -223,-22 -75,-5 -80,1 -62,83 20,94 21,101 28,257 l 7,150 30,3 c 146,13 385,65 505,111 50,19 50,19 61,-2 11,-19 6,-217 -5,-235 -2,-4 -7,-31 -11,-61 -4,-30 -11,-66 -16,-79 -11,-30 4,-53 22,-35 19,19 48,224 49,340 l 0,111 48,23 c 26,13 69,35 95,51 76,44 84,40 81,-39 -1,-38 -7,-88 -13,-113 -7,-33 -7,-46 2,-52 17,-11 25,20 39,167 17,168 13,355 -8,355 -11,0 -14,-20 -14,-104 0,-117 -4,-136 -30,-136 -15,0 -18,14 -25,115 -6,100 -9,115 -24,115 -16,0 -17,-9 -13,-79 2,-44 1,-108 -2,-143 -8,-71 4,-60 -141,-124 -83,-37 -218,-84 -241,-84 -10,0 -13,38 -13,178 0,171 -13,284 -42,359 -16,42 -11,73 10,73 11,0 22,4 25,9 3,4 23,11 45,15 67,10 125,41 188,100 33,31 66,56 72,56 18,0 37,-50 56,-147 13,-65 23,-93 33,-93 10,0 13,10 10,38 -7,50 -36,159 -54,199 -18,40 -18,55 3,98 20,41 40,45 53,10 11,-29 48,-175 56,-220 10,-60 25,-105 35,-105 24,0 -74,403 -107,439 -12,13 -15,10 -25,-18 -30,-85 -114,-211 -141,-211 -4,0 -19,38 -33,85 -17,55 -31,85 -41,85 -18,0 -18,-5 5,-81 11,-35 22,-83 26,-106 l 7,-43 -49,-21 c -46,-21 -183,-66 -288,-95 -27,-8 -85,-17 -127,-21 -90,-7 -81,-18 -98,122 -6,55 -20,150 -31,212 -10,62 -19,114 -19,117 0,2 15,7 33,11 147,31 269,86 336,152 19,19 41,33 50,31 9,-2 29,-28 45,-58 43,-83 56,-101 67,-95 9,6 -46,116 -82,163 -17,22 -17,25 10,71 16,26 34,65 41,87 12,35 25,53 40,54 3,0 25,-31 50,-70 25,-38 51,-70 58,-70 18,0 16,3 -30,73 -54,80 -139,177 -155,177 -18,0 -16,-15 2,-30 12,-10 15,-25 11,-58 -6,-57 -17,-68 -41,-42 -17,19 -45,28 -45,14 0,-3 11,-19 25,-36 29,-34 31,-55 10,-104 -19,-46 -127,-154 -154,-154 -17,0 -29,18 -59,83 -21,45 -62,110 -91,145 l -52,62 33,18 c 18,9 52,36 75,60 47,47 69,52 103,22 25,-22 33,-24 44,-13 4,4 -12,24 -35,44 -38,32 -41,38 -32,64 16,48 36,53 79,17 41,-34 54,-39 54,-21 0,30 -276,219 -320,219 -5,0 -10,-9 -10,-21 0,-11 4,-18 9,-15 12,8 115,-46 152,-80 24,-21 21,-69 -6,-110 l -15,-23 -66,34 c -37,19 -73,35 -80,35 -32,0 -9,-20 61,-53 41,-20 75,-41 75,-46 0,-30 -121,-111 -166,-111 -8,0 -14,-7 -14,-15 0,-8 5,-15 10,-15 16,0 110,-91 110,-106 0,-8 4,-14 9,-14 13,0 82,-151 79,-173 -6,-36 -167,-76 -375,-93 l -83,-7 0,114 c 0,72 -6,132 -15,163 -18,61 -17,62 82,72 53,5 73,10 73,21 0,10 -8,12 -34,8 -18,-4 -79,-8 -134,-8 -129,-2 -135,2 -134,106 1,83 16,161 37,194 13,19 21,21 72,17 65,-4 154,-21 195,-36 26,-10 48,-5 48,11 0,9 -135,41 -204,48 -34,4 -56,12 -70,28 -97,105 -146,169 -146,189 0,17 5,16 120,-6 30,-6 62,-12 70,-14 39,-6 136,-37 145,-45 5,-5 16,-9 25,-9 8,0 23,-6 32,-14 16,-11 16,-17 2,-70 -14,-54 -13,-76 5,-76 5,0 14,27 20,60 7,33 14,60 16,60 10,0 4,-80 -28,-395 -3,-22 -10,-69 -17,-103 -11,-56 -11,-66 4,-80 26,-27 37,-3 51,119 19,157 44,334 55,394 5,28 9,76 9,108 1,63 13,77 51,57 19,-10 21,-10 16,8 -12,37 -36,157 -36,182 -1,54 -16,50 -54,-15 z m -657,-131 c 33,-4 61,-11 61,-16 0,-5 -4,-6 -10,-3 -5,3 -10,2 -10,-3 0,-11 -72,-42 -98,-42 -10,0 -23,-5 -30,-12 -6,-6 -44,-26 -84,-43 -77,-34 -85,-34 -128,7 -13,13 -26,22 -27,21 -11,-11 -22,1 -21,22 2,20 9,26 38,31 19,4 42,10 50,14 8,4 44,11 80,15 36,4 67,9 69,11 6,6 39,5 110,-2 z m 143,-53 c 7,-10 40,-48 73,-86 65,-72 81,-95 68,-96 -4,0 -44,-2 -88,-4 -106,-4 -195,-14 -236,-25 -19,-6 -43,-10 -54,-10 -20,0 -105,73 -105,90 0,13 286,147 317,149 6,1 18,-7 25,-18 z m -532,-67 c 0,-65 18,-137 50,-206 16,-33 11,-40 -58,-87 -55,-37 -105,-87 -145,-145 -10,-14 -26,-26 -36,-26 -24,0 -124,106 -152,161 -13,24 -26,46 -29,49 -4,3 -13,16 -20,30 -12,23 -10,27 32,65 59,53 210,155 230,155 9,0 18,4 20,9 4,12 90,50 101,44 4,-2 7,-24 7,-49 z m 67,-26 c 31,-14 81,-52 138,-105 30,-28 33,-35 25,-60 -22,-74 -38,-108 -52,-111 -25,-5 -95,76 -109,126 -6,26 -16,52 -20,57 -8,11 -21,105 -15,105 2,0 17,-6 33,-12 z m 563,-147 c 0,-16 -5,-42 -10,-56 -6,-15 -13,-66 -16,-114 -7,-114 -7,-114 -46,-106 -64,14 -222,65 -278,91 l -58,26 13,49 c 21,78 36,94 100,108 61,14 159,26 243,29 52,2 52,2 52,-27 z m -1034,-93 c 9,-18 20,-35 23,-38 13,-9 41,-54 41,-65 0,-10 -102,-150 -119,-165 -9,-7 -54,-79 -76,-122 -11,-21 -27,-38 -35,-38 -19,0 -49,38 -79,100 l -21,44 47,78 c 26,43 62,93 80,110 18,18 33,37 33,41 0,11 72,87 82,87 4,0 15,-15 24,-32 z m 507,-19 c 12,-7 36,-24 53,-39 18,-15 65,-40 105,-55 95,-35 123,-53 111,-68 -5,-7 -19,-41 -31,-77 -13,-36 -26,-72 -29,-80 -3,-8 -13,-42 -22,-75 -16,-59 -17,-60 -50,-57 -39,3 -178,75 -256,132 -29,22 -64,45 -76,51 -13,6 -30,21 -40,33 -15,20 -15,25 -1,54 28,58 171,192 205,192 5,0 19,-5 31,-11 z m -368,-156 c 98,-84 199,-162 248,-192 20,-12 37,-30 37,-39 0,-9 -14,-42 -30,-72 -46,-83 -107,-215 -130,-277 -7,-18 -18,-33 -25,-33 -28,0 -176,112 -267,202 l -98,97 19,48 c 31,75 52,112 121,206 35,48 70,87 78,87 8,0 29,-12 47,-27 z m 777,-22 c 46,-11 110,-23 143,-27 33,-3 65,-10 72,-16 21,-17 37,-112 35,-212 -1,-54 -5,-102 -8,-107 -14,-23 -245,-3 -364,32 -95,29 -92,23 -70,110 34,138 76,239 99,239 5,0 47,-9 93,-19 z M 2940,4816 c 0,-11 -7,-43 -15,-69 -8,-27 -14,-52 -14,-55 1,-4 1,-9 -1,-12 -1,-3 -3,-16 -5,-30 -2,-14 -12,-63 -23,-110 -11,-47 -23,-102 -27,-122 -3,-21 -10,-38 -15,-38 -4,0 -20,14 -35,32 -33,39 -31,60 21,219 50,155 80,220 99,213 8,-4 15,-16 15,-28 z m 813,-94 c 89,-40 298,-107 351,-111 26,-2 -35,-368 -69,-414 -13,-18 -17,-18 -88,-3 -73,15 -182,47 -222,66 -11,5 -60,26 -110,46 -49,19 -98,44 -108,53 -18,17 -18,21 -2,75 18,61 139,306 157,318 6,3 18,3 27,-1 9,-4 38,-17 64,-29 z m -660,-77 c 110,-107 111,-107 73,-218 -27,-80 -51,-185 -61,-264 -4,-29 -13,-58 -22,-64 -16,-14 -26,-4 -123,110 -25,29 -52,62 -61,72 -25,30 -19,90 28,289 14,58 26,114 27,126 4,28 14,44 29,44 7,0 56,-43 110,-95 z m 1520,-52 c 28,-99 55,-334 47,-397 -4,-36 -9,-41 -40,-49 -46,-12 -408,-2 -488,13 -70,14 -67,5 -43,95 12,44 36,197 46,289 l 7,58 116,-6 c 65,-3 151,-2 192,3 127,14 158,13 163,-6 z M 3338,4433 c 78,-51 247,-143 312,-168 34,-14 36,-41 7,-127 -40,-119 -55,-178 -73,-278 -18,-109 -19,-110 -44,-110 -39,0 -295,164 -387,249 -34,31 -34,29 -17,151 5,41 33,159 54,235 26,91 32,105 46,105 9,0 55,-26 102,-57 z m -474,-155 80,-91 -13,-56 c -31,-139 -46,-218 -56,-296 -8,-65 -14,-85 -27,-85 -6,0 -42,31 -79,69 -63,64 -81,96 -62,115 4,4 8,21 9,39 6,111 27,319 36,355 6,23 15,42 22,41 6,0 47,-41 90,-91 z m 921,-64 c 141,-44 398,-94 484,-94 18,0 42,-5 53,-11 20,-11 21,-16 14,-167 -8,-173 -40,-392 -59,-404 -18,-12 -108,1 -252,37 -141,35 -404,128 -415,145 -20,32 44,339 99,483 12,32 11,31 76,11 z m 1203,-56 c 44,-54 70,-555 30,-593 -16,-16 -228,-52 -357,-61 -121,-8 -330,13 -338,34 -4,8 2,58 11,111 10,53 23,177 29,277 l 11,181 180,7 c 227,9 344,23 386,47 21,12 36,11 48,-3 z M 3095,4020 c 54,-55 104,-100 110,-100 9,0 25,-12 98,-75 16,-14 26,-29 22,-35 -3,-5 -8,-22 -10,-37 -2,-16 -10,-57 -19,-93 -8,-36 -20,-105 -26,-155 -7,-49 -16,-94 -20,-98 -13,-14 -89,35 -170,110 -19,18 -39,33 -45,33 -5,1 -38,28 -73,60 l -62,59 5,58 c 3,32 10,92 16,133 6,41 12,91 15,110 4,30 11,60 29,118 9,26 33,9 130,-88 z m -385,-201 c 0,-5 4,-8 9,-5 5,3 15,-4 24,-17 12,-19 12,-29 0,-72 -7,-28 -16,-63 -19,-80 -3,-16 -10,-34 -15,-39 -5,-6 -9,-18 -9,-27 0,-25 -39,-89 -54,-89 -7,0 -25,13 -41,30 l -29,30 30,61 c 16,34 27,63 24,64 -3,1 0,8 6,16 11,13 33,73 35,94 3,31 39,62 39,34 z m 767,-70 c 106,-55 116,-59 316,-129 76,-26 143,-52 149,-58 8,-8 8,-23 -1,-54 -6,-24 -20,-95 -31,-158 -34,-198 -38,-216 -54,-229 -13,-11 -44,-4 -123,31 -24,10 -46,18 -49,18 -25,0 -264,113 -323,153 l -73,49 6,72 c 10,114 48,324 62,348 9,14 22,9 121,-43 z m -628,-63 43,-44 -12,-54 c -15,-70 -60,-197 -72,-204 -16,-10 -52,5 -86,35 -33,29 -33,31 -21,66 7,19 17,35 21,35 4,0 7,3 6,8 -2,9 21,92 33,114 5,10 9,25 9,33 0,8 5,15 11,15 5,0 7,5 4,10 -7,11 2,30 14,30 4,0 26,-20 50,-44 z m 161,-141 c 19,-17 52,-43 72,-58 30,-22 36,-31 28,-45 -5,-9 -23,-61 -41,-114 -27,-85 -34,-98 -54,-98 -12,0 -30,9 -40,20 -10,11 -22,20 -27,20 -4,0 -30,15 -57,33 -44,29 -48,35 -43,62 5,30 48,150 60,170 6,10 8,15 10,47 2,15 6,16 30,6 15,-6 43,-26 62,-43 z m 1100,-15 c 79,-19 273,-42 465,-56 44,-4 81,-7 82,-8 6,-5 6,-126 0,-201 -9,-109 -32,-212 -56,-251 -15,-25 -24,-29 -55,-28 -88,4 -196,17 -266,30 -41,8 -118,21 -170,29 -99,15 -196,40 -204,53 -6,10 49,358 65,411 14,48 18,49 139,21 z m -1509,-59 c 16,-17 38,-33 49,-36 39,-12 19,-70 -52,-149 -16,-18 -20,-18 -82,-2 -36,9 -77,16 -91,16 -14,0 -25,4 -25,9 0,9 32,52 63,86 11,11 32,39 48,63 17,23 37,42 45,42 9,0 29,-13 45,-29 z m 623,-90 c 28,-22 62,-49 76,-60 25,-18 79,-50 165,-95 37,-20 40,-25 38,-59 -1,-20 -18,-71 -38,-113 -33,-72 -36,-76 -61,-70 -14,4 -42,17 -62,30 -20,12 -71,40 -112,61 -41,22 -82,47 -91,57 -9,10 -20,18 -25,18 -5,1 -20,10 -33,20 -23,20 -23,21 -7,60 9,22 16,48 16,56 0,30 52,134 67,134 9,0 38,-18 67,-39 z m -448,-41 c 21,-16 43,-30 47,-30 28,-1 50,-61 27,-75 -5,-3 -17,-21 -26,-40 -27,-57 -35,-56 -156,27 -15,10 -32,18 -38,18 -18,0 -11,20 25,67 19,25 35,50 35,54 0,19 49,7 86,-21 z m -323,-72 c 13,-6 15,-13 8,-26 -16,-28 -58,-69 -117,-113 -52,-40 -56,-41 -92,-30 -46,14 -93,50 -74,58 7,3 36,20 63,39 28,19 55,34 59,34 5,0 10,3 12,8 2,4 16,18 32,30 30,23 65,23 109,0 z m 162,-52 c 40,-19 76,-40 80,-46 8,-12 -27,-45 -144,-135 -46,-36 -92,-65 -101,-65 -10,0 -44,20 -75,45 l -58,45 42,37 c 23,21 65,59 92,85 44,41 76,67 87,68 2,0 36,-16 77,-34 z m 393,-34 c 93,-62 109,-81 91,-114 -22,-41 -86,-108 -103,-108 -6,0 -50,38 -98,84 l -87,84 27,36 c 15,19 35,47 45,61 11,15 23,22 30,18 7,-3 49,-31 95,-61 z m 648,-38 c 82,-32 120,-45 274,-90 62,-19 66,-19 138,-29 50,-7 52,-8 52,-39 0,-50 -66,-219 -94,-239 -16,-11 -82,0 -124,22 -21,10 -90,37 -156,60 -113,40 -242,97 -271,121 -15,13 -8,41 31,118 13,26 24,50 24,54 0,16 20,58 28,58 5,0 49,-16 98,-36 z m -886,-20 c 31,-21 140,-126 140,-135 0,-4 -8,-9 -17,-13 -10,-3 -45,-24 -78,-46 -33,-22 -69,-44 -80,-49 -11,-5 -35,-21 -54,-35 -54,-40 -77,-35 -145,33 l -58,60 28,27 c 16,15 61,50 99,79 39,29 81,62 94,74 29,25 39,26 71,5 z m -600,-19 c 17,-9 30,-19 30,-23 0,-4 -41,-23 -90,-41 -50,-19 -124,-56 -165,-83 -79,-53 -76,-52 -163,-21 -39,15 -41,17 -27,33 21,23 131,73 252,115 113,39 124,40 163,20 z m 1182,-128 c 101,-50 211,-104 245,-119 34,-15 64,-31 67,-36 7,-12 -51,-111 -99,-168 -92,-110 -197,-193 -229,-181 -7,3 -28,34 -46,69 -18,34 -44,79 -59,98 -14,19 -35,49 -46,66 -11,17 -43,58 -72,90 -113,127 -110,119 -52,177 22,22 49,53 60,69 11,15 27,28 34,28 8,0 97,-42 197,-93 z m -1007,22 c 14,-15 9,-19 -60,-52 -41,-20 -105,-61 -142,-92 -37,-30 -73,-55 -82,-55 -8,0 -35,12 -60,28 -25,15 -55,32 -66,38 -34,19 -23,44 35,80 52,31 188,87 255,104 32,7 90,-17 120,-51 z m 2055,-27 135,-18 -2,-50 c -2,-72 -58,-232 -95,-271 l -30,-31 -52,15 c -67,19 -190,60 -243,80 -49,18 -54,37 -24,87 18,30 52,129 66,190 7,33 -19,33 245,-2 z m -1419,-54 c 76,-89 109,-133 109,-145 0,-6 -15,-20 -32,-31 -58,-35 -237,-112 -262,-112 -17,0 -35,13 -58,43 -18,23 -43,53 -55,67 -13,14 -23,31 -23,39 0,17 29,51 42,51 5,0 28,13 51,29 23,15 62,38 87,51 25,12 52,31 60,41 22,28 32,24 81,-33 z m 1939,30 c 0,-13 -6,-35 -14,-50 -8,-14 -19,-43 -26,-65 -7,-21 -26,-67 -43,-103 -98,-217 -98,-217 -186,-200 -69,13 -171,50 -171,62 0,5 9,27 21,50 11,22 32,84 45,137 13,53 29,113 35,134 l 10,38 74,-4 c 41,-2 77,-1 80,2 3,2 21,5 40,6 18,0 36,3 39,6 3,3 26,6 51,8 41,2 45,0 45,-21 z m -2428,-56 c 26,-24 48,-48 48,-53 0,-4 -30,-17 -67,-29 -38,-13 -112,-45 -167,-72 -96,-48 -99,-49 -119,-31 -12,10 -26,21 -32,25 -5,4 -23,18 -39,31 l -29,24 56,45 c 75,58 150,99 212,113 59,14 70,10 137,-53 z m -721,21 c 16,-3 29,-11 29,-17 0,-14 -32,-65 -59,-93 -11,-12 -21,-28 -21,-36 0,-7 -6,-19 -12,-25 -19,-19 -16,-158 4,-208 16,-40 16,-43 -3,-59 -10,-10 -19,-24 -19,-30 0,-7 -7,-16 -16,-19 -37,-14 -143,117 -164,202 -6,26 -14,56 -16,67 -7,29 69,130 142,189 45,37 63,46 82,41 13,-3 37,-9 53,-12 z m 152,-71 c 137,-72 137,-72 83,-155 -26,-39 -37,-67 -42,-114 -9,-86 -19,-98 -70,-84 -21,6 -61,11 -87,11 -45,0 -49,2 -62,33 -7,18 -16,62 -19,98 -5,54 -3,71 16,111 19,38 94,136 106,138 2,0 36,-17 75,-38 z m 713,-86 c 23,-24 47,-52 53,-64 10,-19 8,-23 -16,-35 -16,-8 -46,-20 -68,-27 -22,-7 -44,-16 -49,-21 -6,-5 -16,-9 -24,-9 -8,0 -49,-15 -92,-34 -43,-18 -82,-31 -87,-27 -5,3 -32,31 -61,63 l -53,56 28,27 c 33,31 64,45 193,90 52,18 104,31 115,28 11,-3 39,-24 61,-47 z m 1204,8 c 63,-20 120,-41 127,-46 10,-8 8,-19 -7,-49 -39,-75 -79,-131 -117,-163 -73,-61 -69,-59 -100,-42 -42,22 -153,130 -153,149 0,9 18,45 40,79 58,93 70,108 83,108 6,0 63,-16 127,-36 z m 1407,-42 c -13,-30 -106,-172 -138,-212 -11,-14 -44,-54 -73,-90 -67,-82 -163,-173 -178,-168 -18,6 -98,220 -88,238 5,8 55,35 112,59 96,42 195,97 313,176 55,38 70,37 52,-3 z m -3086,-31 c 35,-26 74,-62 86,-78 l 21,-30 -41,-33 c -23,-18 -60,-57 -81,-87 -22,-29 -45,-53 -52,-53 -8,0 -34,10 -58,22 -52,25 -57,42 -40,129 10,53 44,138 67,167 16,20 31,14 98,-37 z m 1007,7 c 69,-90 136,-212 128,-233 -10,-27 -245,-105 -314,-105 -36,0 -40,3 -58,41 -10,23 -40,73 -66,111 -27,38 -46,74 -43,78 3,5 33,22 67,37 34,15 101,47 148,70 47,23 90,42 95,43 6,0 25,-19 43,-42 z m 900,-18 c 9,-5 52,-19 95,-31 43,-12 80,-26 83,-31 3,-4 14,-8 24,-8 33,0 33,-20 1,-66 -18,-24 -41,-63 -52,-88 -21,-49 -180,-206 -208,-206 -10,0 -27,9 -39,20 -12,11 -26,20 -31,20 -5,0 -40,29 -77,64 l -68,63 57,59 c 53,56 107,127 107,142 0,4 12,22 27,40 28,33 50,39 81,22 z M 2784,2575 c 26,-36 53,-71 60,-78 22,-26 56,-101 48,-109 -15,-15 -154,-36 -284,-44 l -127,-7 -18,39 c -10,22 -30,57 -45,78 -16,21 -28,43 -28,47 0,5 15,16 33,26 51,27 270,111 293,112 14,1 35,-19 68,-64 z m -1292,-2 c 9,-10 23,-34 31,-53 20,-44 63,-89 113,-116 30,-17 43,-33 56,-70 9,-26 15,-51 11,-57 -7,-12 -125,1 -139,16 -4,4 -14,7 -23,7 -28,1 -65,40 -69,73 -9,79 -12,217 -4,217 5,0 16,-8 24,-17 z m 2975,-23 c 67,-15 77,-27 55,-68 -57,-106 -79,-143 -117,-197 -46,-63 -156,-175 -173,-175 -15,0 -135,71 -169,100 -9,7 10,32 71,92 61,62 92,103 121,162 22,43 52,89 68,101 25,22 30,23 60,11 17,-8 55,-19 84,-26 z m -878,13 c 17,-10 31,-21 31,-24 0,-4 39,-38 88,-77 48,-39 109,-93 135,-120 59,-60 57,-67 -41,-146 -76,-61 -123,-87 -201,-110 -75,-22 -98,-21 -106,7 -19,64 -82,226 -106,274 -25,50 -29,83 -9,83 8,0 109,80 142,113 10,9 22,17 27,17 5,0 23,-8 40,-17 z m -1258,-45 c 45,-46 91,-121 123,-201 37,-94 31,-102 -85,-94 -47,4 -109,11 -137,17 -45,10 -52,15 -62,45 -6,18 -18,39 -26,45 -22,19 -17,54 15,96 67,87 76,97 105,110 17,7 32,13 33,14 1,0 16,-15 34,-32 z m 2380,-27 c 10,-1 27,-31 49,-88 18,-49 37,-92 41,-98 4,-5 10,-30 14,-55 7,-49 2,-55 -111,-145 -21,-16 -54,-44 -73,-61 -79,-67 -93,-75 -124,-68 -56,12 -227,92 -227,107 0,5 21,30 48,56 57,57 131,159 181,249 70,126 66,123 141,110 25,-4 52,-7 61,-7 z m -2786,-45 c 22,-8 44,-20 49,-28 10,-17 -97,-248 -116,-248 -15,0 -96,87 -115,124 -8,15 -17,52 -20,81 -5,46 -3,55 18,74 21,20 31,22 84,17 33,-4 78,-13 100,-20 z m 1453,-111 c 24,-49 46,-102 49,-117 5,-25 1,-29 -38,-46 -68,-28 -186,-52 -274,-55 l -80,-2 -33,95 c -18,52 -31,99 -28,106 2,6 22,15 43,19 50,9 186,51 243,76 25,10 52,18 60,16 8,-1 34,-42 58,-92 z m -1295,28 c 37,-40 67,-111 67,-164 0,-37 -5,-52 -26,-73 -23,-22 -35,-26 -83,-26 -33,0 -73,8 -98,19 l -42,19 16,49 c 8,26 18,60 23,74 4,15 16,39 26,55 9,16 23,39 31,52 18,30 54,28 86,-5 z m 863,-73 c 12,-30 27,-66 33,-80 25,-59 41,-178 42,-310 1,-76 -2,-143 -5,-149 -12,-18 -135,-12 -231,12 -30,8 -171,65 -216,87 l -39,20 4,113 c 4,100 -6,194 -30,298 l -6,27 99,7 c 54,4 132,13 173,20 41,7 93,13 115,12 39,-2 41,-4 61,-57 z m -1409,-25 c 20,-10 62,-16 114,-17 65,0 87,-4 96,-17 21,-27 15,-45 -25,-70 -43,-29 -112,-97 -112,-111 0,-6 -8,-10 -19,-10 -30,0 -114,200 -96,230 8,13 6,13 42,-5 z m 2475,-61 c 44,-31 88,-58 97,-62 9,-3 28,-15 42,-27 30,-24 29,-42 -2,-115 -24,-55 -136,-170 -166,-170 -11,0 -35,22 -58,53 -22,28 -43,54 -46,57 -14,12 -109,173 -109,186 0,7 17,25 38,38 20,13 53,40 71,60 19,20 39,36 44,36 5,0 45,-25 89,-56 z m -1738,0 c 44,-6 46,-8 46,-39 0,-47 -28,-131 -53,-160 l -22,-26 -35,25 c -20,13 -44,40 -55,60 -19,35 -19,35 2,58 11,13 24,38 28,56 7,35 12,36 89,26 z m 217,-27 c 13,-19 21,-140 14,-211 -10,-115 -29,-158 -92,-216 -56,-51 -79,-58 -94,-30 -13,26 -32,184 -26,225 8,60 64,237 78,246 16,10 112,-1 120,-14 z m -642,-37 c 31,-30 31,-31 14,-54 -10,-12 -38,-68 -63,-124 -24,-56 -51,-102 -58,-102 -20,0 -122,111 -122,134 0,24 154,176 179,176 10,0 32,-14 50,-30 z m 1600,7 c 15,-19 68,-183 76,-238 7,-47 7,-47 -27,-55 -18,-5 -37,-9 -43,-10 -5,0 -17,-4 -25,-7 -24,-9 -138,-25 -232,-32 -62,-5 -95,-4 -116,6 l -30,13 -4,125 c -3,69 -4,127 -3,129 1,1 53,9 116,16 117,15 215,37 246,55 24,14 29,13 42,-2 z m 318,-92 c 18,-28 36,-54 41,-60 42,-53 62,-84 62,-92 0,-6 -31,-36 -70,-68 -70,-58 -203,-116 -221,-98 -4,4 -11,28 -14,53 -12,107 -18,138 -31,184 -8,27 -14,53 -14,56 0,4 33,17 74,29 40,12 82,28 92,36 29,22 46,14 81,-40 z m -1793,25 c 25,-9 26,-12 26,-97 0,-77 23,-209 56,-320 13,-47 -42,-21 -201,95 -70,51 -72,64 -25,177 5,11 14,38 21,60 26,84 62,109 123,85 z m 158,-28 c 9,-15 33,-41 53,-57 69,-55 72,-60 80,-126 4,-35 9,-73 11,-84 10,-53 16,-115 12,-115 -3,0 -36,-11 -74,-25 -38,-14 -77,-25 -86,-25 -29,0 -57,76 -83,230 -21,123 -20,185 5,210 29,29 62,25 82,-8 z m 2209,-37 c 66,-30 125,-55 130,-55 6,0 9,-9 7,-21 -2,-13 -21,-31 -50,-48 -26,-14 -55,-33 -65,-41 -49,-42 -248,-150 -277,-150 -23,0 -86,65 -86,89 0,10 17,30 39,44 64,42 110,98 139,169 15,37 31,68 35,68 4,0 62,-25 128,-55 z m -362,-240 c 40,-47 71,-91 68,-98 -11,-28 -349,-160 -443,-173 l -41,-6 5,98 c 2,55 6,101 8,103 2,2 16,5 33,7 54,6 115,37 191,96 41,31 82,58 91,58 8,0 48,-38 88,-85 z m -1379,29 c 85,-41 159,-68 214,-80 70,-15 106,-19 144,-18 54,2 59,-9 36,-78 -22,-67 -63,-136 -94,-160 -24,-17 -29,-17 -84,-3 -54,14 -163,65 -193,90 -7,5 -19,16 -27,23 -8,6 -19,12 -23,12 -5,0 -26,16 -46,35 -20,19 -41,35 -45,35 -5,0 -19,11 -32,25 l -23,24 29,37 c 16,19 36,47 44,60 19,30 32,30 100,-2 z m 938,-100 c 3,-121 -2,-189 -16,-212 -10,-14 -154,-44 -176,-36 -24,9 -187,209 -211,258 -12,26 -19,48 -16,50 4,3 59,9 124,15 111,11 255,36 266,46 18,19 26,-14 29,-121 z m -446,24 c 15,-32 89,-128 141,-184 78,-85 80,-94 26,-106 -49,-11 -339,-22 -339,-14 0,4 21,42 46,84 50,82 62,113 70,182 3,25 7,51 9,58 8,22 31,12 47,-20 z m -561,-145 c 37,-28 94,-68 127,-89 34,-21 62,-43 62,-48 0,-13 -134,4 -265,34 -111,25 -290,93 -290,110 0,7 34,23 78,35 42,13 83,27 90,32 6,6 26,15 42,20 26,9 34,7 60,-17 17,-15 60,-50 96,-77 z" />
      <path
         inkscape:connector-curvature="0"
         id="path3415"
         d="m 5286,5547 c -23,-14 -41,-27 -59,-43 -7,-6 -32,-25 -56,-42 -42,-30 -43,-32 -18,-32 19,0 27,-5 27,-17 -1,-22 -176,-303 -239,-384 -11,-15 -25,-38 -30,-52 -15,-40 14,-43 41,-4 12,18 26,34 30,35 4,2 8,8 8,14 0,6 13,27 28,47 16,20 57,83 91,141 86,147 86,147 109,127 27,-25 30,-22 37,31 8,53 43,160 56,168 11,6 12,24 2,23 -5,0 -17,-6 -27,-12 z" />
      <path
         inkscape:connector-curvature="0"
         id="path3417"
         d="m 5705,5145 c -49,-13 -100,-24 -112,-24 -24,-1 -31,-15 -13,-26 23,-14 6,-36 -66,-87 -41,-29 -81,-58 -87,-63 -7,-6 -37,-26 -67,-45 -30,-19 -79,-52 -108,-73 -43,-31 -51,-41 -41,-53 17,-21 32,-17 75,17 22,17 68,51 104,75 36,25 99,69 140,99 41,30 79,54 83,54 4,1 11,-8 15,-19 7,-18 19,-8 102,75 52,52 88,95 80,94 -8,0 -55,-11 -105,-24 z" />
      <path
         inkscape:connector-curvature="0"
         id="path3419"
         d="m 5808,4825 c 18,-23 20,-31 10,-40 -14,-13 -230,-74 -533,-151 -40,-10 -27,-6 -232,-65 -125,-35 -183,-56 -183,-66 0,-25 24,-23 175,18 83,22 173,46 200,53 62,17 396,109 490,136 98,28 108,27 103,-10 -3,-16 -3,-30 0,-30 5,0 66,42 72,51 3,3 19,14 35,23 87,49 109,65 95,69 -8,3 -61,10 -118,16 -57,7 -111,15 -120,19 -13,4 -11,-1 6,-23 z" />
      <path
         inkscape:connector-curvature="0"
         id="path3421"
         d="m 5350,4779 c 0,-15 33,-69 42,-69 12,0 10,18 -7,50 -15,30 -35,40 -35,19 z" />
      <path
         inkscape:connector-curvature="0"
         id="path3423"
         d="m 6000,4223 c 0,-4 10,-17 22,-30 18,-19 20,-26 9,-32 -14,-9 -114,-23 -286,-41 -55,-6 -136,-14 -180,-20 -44,-5 -134,-14 -200,-20 -156,-14 -165,-16 -165,-39 0,-26 12,-28 84,-20 34,4 88,10 121,13 33,4 130,16 215,26 290,37 399,47 409,37 7,-7 3,-19 -10,-35 -29,-37 -16,-38 38,-4 42,27 75,42 182,83 37,15 15,26 -87,43 -52,9 -107,23 -123,31 -16,9 -29,12 -29,8 z" />
      <path
         inkscape:connector-curvature="0"
         id="path3425"
         d="m 5442,3463 c 2,-13 54,-35 198,-83 263,-88 241,-77 205,-105 -16,-13 -27,-27 -24,-29 3,-3 39,-2 80,4 41,5 103,10 139,10 l 65,0 -65,41 c -36,23 -67,45 -70,48 -3,4 -27,27 -54,51 l -49,45 8,-43 c 6,-37 5,-42 -13,-42 -25,0 -238,64 -319,96 -74,29 -106,31 -101,7 z" />
      <path
         inkscape:connector-curvature="0"
         id="path3427"
         d="m 5505,3368 c -2,-7 -15,-56 -29,-108 -33,-127 -41,-147 -65,-155 -12,-3 -21,-9 -21,-13 0,-13 42,-34 50,-25 10,10 77,220 86,267 6,33 -11,62 -21,34 z" />
      <path
         inkscape:connector-curvature="0"
         id="path3429"
         d="m 4957,3323 c -4,-3 -7,-13 -7,-22 0,-14 14,-26 95,-81 70,-47 142,-100 183,-133 26,-21 54,-42 62,-45 36,-16 330,-228 330,-238 0,-7 -10,-14 -22,-18 -32,-8 -15,-19 66,-45 38,-12 89,-31 113,-42 25,-11 47,-18 50,-15 6,6 -14,39 -46,75 -12,14 -36,53 -53,88 -32,65 -48,73 -48,22 0,-47 0,-47 -219,108 -29,21 -63,45 -76,53 -48,33 -200,146 -223,168 -14,12 -28,22 -32,22 -3,0 -15,8 -26,18 -30,27 -123,92 -132,92 -5,0 -12,-3 -15,-7 z" />
      <path
         inkscape:connector-curvature="0"
         id="path3431"
         d="m 3827,520 c 4,-14 10,-43 14,-65 l 6,-40 1,35 c 1,19 -5,49 -13,65 -12,24 -13,25 -8,5 z" />
      <path
         inkscape:connector-curvature="0"
         id="path3433"
         d="m 3618,480 c -53,-41 -62,-111 -18,-139 25,-15 25,-15 7,6 -16,18 -17,27 -7,63 6,23 22,53 35,66 29,29 18,32 -17,4 z" />
      <path
         inkscape:connector-curvature="0"
         id="path3435"
         d="m 3682,474 c 2,-11 8,-18 13,-16 15,3 12,25 -3,30 -9,3 -13,-2 -10,-14 z" />
      <path
         inkscape:connector-curvature="0"
         id="path3437"
         d="m 3421,429 c 0,-24 4,-53 9,-64 5,-12 6,4 3,40 -7,72 -13,85 -12,24 z" />
    </g>
    <rect
       y="264.91348"
       x="-261.75772"
       height="11.088747"
       width="15.724207"
       id="rect3483"
       style="fill:#ffffff;fill-opacity:1;stroke:none" />
    <text
       sodipodi:linespacing="125%"
       id="text3471"
       y="272.33249"
       x="-258.3667"
       style="font-size:9.03999996px;font-style:italic;font-variant:normal;font-weight:bold;font-stretch:normal;line-height:125%;letter-spacing:0px;word-spacing:0px;fill:#000000;fill-opacity:1;stroke:none;font-family:Linux Libertine O;-inkscape-font-specification:Linux Libertine O Bold Italic"
       xml:space="preserve"><tspan
         y="272.33249"
         x="-258.3667"
         id="tspan3473"
         sodipodi:role="line">(a)</tspan></text>
    <rect
       y="415.70224"
       x="-261.12146"
       height="12.543009"
       width="16.451336"
       id="rect4253"
       style="fill:#ffffff;fill-opacity:1;stroke:none" />
    <text
       sodipodi:linespacing="125%"
       id="text3475"
       y="423.45984"
       x="-258.3667"
       style="font-size:9.03999996px;font-style:italic;font-variant:normal;font-weight:bold;font-stretch:normal;line-height:125%;letter-spacing:0px;word-spacing:0px;fill:#000000;fill-opacity:1;stroke:none;font-family:Linux Libertine O;-inkscape-font-specification:Linux Libertine O Bold Italic"
       xml:space="preserve"><tspan
         y="423.45984"
         x="-258.3667"
         id="tspan3477"
         sodipodi:role="line">(b)</tspan></text>
    <rect
       y="574.58038"
       x="-258.48563"
       height="12.179442"
       width="16.996685"
       id="rect4255"
       style="fill:#ffffff;fill-opacity:1;stroke:none" />
    <text
       sodipodi:linespacing="125%"
       id="text3479"
       y="582.06299"
       x="-258.11069"
       style="font-size:9.03999996px;font-style:italic;font-variant:normal;font-weight:bold;font-stretch:normal;line-height:125%;letter-spacing:0px;word-spacing:0px;fill:#000000;fill-opacity:1;stroke:none;font-family:Linux Libertine O;-inkscape-font-specification:Linux Libertine O Bold Italic"
       xml:space="preserve"><tspan
         y="582.06299"
         x="-258.11069"
         id="tspan3481"
         sodipodi:role="line">(c)</tspan></text>
    <path
       sodipodi:nodetypes="cssc"
       transform="matrix(0.8,0,0,0.8,0,-1.4648437e-5)"
       inkscape:connector-curvature="0"
       id="path3106"
       d="m -400.49492,253.99024 c 34.60276,-28.19484 33.48089,-27.50082 47.0982,-41.65147 13.37591,-13.8998 21.35905,-26.73759 24.16327,-31.23909 2.91067,-4.67236 4.35197,-8.16961 4.35197,-8.16961"
       style="fill:none;stroke:#000000;stroke-width:1px;stroke-linecap:butt;stroke-linejoin:miter;stroke-opacity:1" />
    <path
       sodipodi:nodetypes="cssc"
       transform="matrix(0.8,0,0,0.8,0,-1.4648437e-5)"
       inkscape:connector-curvature="0"
       id="path3108"
       d="m -398.57255,264.24291 c 37.9384,-24.91055 37.16593,-24.99088 54.46731,-40.36989 17.30138,-15.379 26.59286,-24.0297 33.32118,-32.68039 6.72831,-8.65069 15.05861,-23.3889 15.05861,-23.3889"
       style="fill:none;stroke:#000000;stroke-width:1px;stroke-linecap:butt;stroke-linejoin:miter;stroke-opacity:1" />
    <path
       sodipodi:nodetypes="cssc"
       transform="matrix(0.8,0,0,0.8,0,-1.4648437e-5)"
       inkscape:connector-curvature="0"
       id="path3110"
       d="m -397.77204,276.33762 c 79.1378,-47.73899 64.93022,-39.4236 87.33547,-58.41854 20.34371,-17.2472 34.54857,-34.22913 37.11174,-38.39428 2.56316,-4.16515 5.79422,-8.19671 5.79422,-8.19671"
       style="fill:none;stroke:#000000;stroke-width:1px;stroke-linecap:butt;stroke-linejoin:miter;stroke-opacity:1" />
    <path
       sodipodi:nodetypes="csc"
       transform="matrix(0.8,0,0,0.8,0,-1.4648437e-5)"
       inkscape:connector-curvature="0"
       id="path3112"
       d="m -396.19715,286.61739 c 79.50763,-35.5069 110.887,-60.8557 123.24596,-70.8346 13.59116,-10.97381 25.60552,-24.26976 25.60552,-24.26976"
       style="fill:none;stroke:#000000;stroke-width:1px;stroke-linecap:butt;stroke-linejoin:miter;stroke-opacity:1" />
    <path
       sodipodi:nodetypes="cscc"
       transform="matrix(0.8,0,0,0.8,0,-1.4648437e-5)"
       inkscape:connector-curvature="0"
       id="path3114"
       d="m -389.92186,295.64171 c 77.26486,-30.517 83.62334,-35.24355 105.08987,-46.77781 21.46653,-11.53425 50.62256,-35.56395 50.62256,-35.56395 l 0,0"
       style="fill:none;stroke:#000000;stroke-width:1px;stroke-linecap:butt;stroke-linejoin:miter;stroke-opacity:1" />
    <path
       sodipodi:nodetypes="csc"
       transform="matrix(0.8,0,0,0.8,0,-1.4648437e-5)"
       inkscape:connector-curvature="0"
       id="path3116"
       d="m -381.93906,306.02796 c 62.47721,-18.18128 76.80708,-24.7532 103.86248,-37.91415 24.77161,-12.05002 38.74081,-21.81307 38.74081,-21.81307"
       style="fill:none;stroke:#000000;stroke-width:1px;stroke-linecap:butt;stroke-linejoin:miter;stroke-opacity:1" />
    <path
       sodipodi:nodetypes="csc"
       transform="matrix(0.8,0,0,0.8,0,-1.4648437e-5)"
       inkscape:connector-curvature="0"
       id="path3118"
       d="m -373.71525,314.49184 c 47.89777,-10.43949 62.27697,-14.19371 81.83455,-22.05409 19.86455,-7.98375 32.68038,-14.09742 32.68038,-14.09742"
       style="fill:none;stroke:#000000;stroke-width:1px;stroke-linecap:butt;stroke-linejoin:miter;stroke-opacity:1" />
    <path
       sodipodi:nodetypes="csc"
       transform="matrix(0.8,0,0,0.8,0,-1.4648437e-5)"
       inkscape:connector-curvature="0"
       id="path3120"
       d="m -368.34885,327.46739 c 61.19563,-10.25267 55.71642,-9.82164 75.74797,-15.19219 14.07732,-3.77419 20.90512,-6.70121 20.90512,-6.70121"
       style="fill:none;stroke:#000000;stroke-width:1px;stroke-linecap:butt;stroke-linejoin:miter;stroke-opacity:1" />
  </g>
  <rect
     style="fill:none;stroke:none"
     id="rect3114"
     width="222.51968"
     height="32.643158"
     x="-418.50171"
     y="340.11386" />
</svg>
