<?xml version="1.0" encoding="UTF-8" standalone="no"?>
<svg
   xmlns:dc="http://purl.org/dc/elements/1.1/"
   xmlns:cc="http://creativecommons.org/ns#"
   xmlns:rdf="http://www.w3.org/1999/02/22-rdf-syntax-ns#"
   xmlns:svg="http://www.w3.org/2000/svg"
   xmlns="http://www.w3.org/2000/svg"
   xmlns:sodipodi="http://sodipodi.sourceforge.net/DTD/sodipodi-0.dtd"
   xmlns:inkscape="http://www.inkscape.org/namespaces/inkscape"
   version="1.0"
   width="514.560000pt"
   height="118.080000pt"
   viewBox="0 0 514.560000 118.080000"
   preserveAspectRatio="xMidYMid meet"
   id="svg2"
   inkscape:version="0.48.4 r9939"
   sodipodi:docname="flux-dot-product.svg">
  <defs
     id="defs12" />
  <sodipodi:namedview
     pagecolor="#ffffff"
     bordercolor="#666666"
     borderopacity="1"
     objecttolerance="10"
     gridtolerance="10"
     guidetolerance="10"
     inkscape:pageopacity="0"
     inkscape:pageshadow="2"
     inkscape:window-width="1280"
     inkscape:window-height="996"
     id="namedview10"
     showgrid="false"
     inkscape:zoom="1.2614611"
     inkscape:cx="262.94469"
     inkscape:cy="13.608675"
     inkscape:window-x="0"
     inkscape:window-y="0"
     inkscape:window-maximized="1"
     inkscape:current-layer="svg2" />
  <metadata
     id="metadata4">
Created by potrace 1.10, written by Peter Selinger 2001-2011
<rdf:RDF>
  <cc:Work
     rdf:about="">
    <dc:format>image/svg+xml</dc:format>
    <dc:type
       rdf:resource="http://purl.org/dc/dcmitype/StillImage" />
    <dc:title />
  </cc:Work>
</rdf:RDF>
</metadata>
  <g
     transform="translate(0.000000,118.080000) scale(0.024000,-0.024000)"
     fill="#b9b9b9"
     stroke="none"
     id="g6">
    <path
       d="M0 4687 l0 -232 282 2 c156 1 331 2 391 2 64 1 107 5 107 11 0 25 207 3 303 -32 25 -10 26 -12 10 -23 -10 -7 -49 -18 -88 -24 -38 -7 -84 -17 -101 -22 -53 -16 -108 -11 -127 11 -16 19 -29 20 -187 20 -129 0 -170 -3 -171 -12 0 -10 -2 -10 -6 0 -2 6 -16 12 -29 12 -13 0 -24 -6 -25 -12 0 -10 -2 -10 -5 -1 -4 8 -55 12 -180 13 l-174 0 0 -465 c0 -361 3 -465 13 -465 9 0 9 -2 0 -8 -8 -5 -12 -177 -12 -665 -1 -712 -4 -675 49 -647 15 8 19 7 17 -9 0 -11 -4 -18 -8 -15 -13 8 -37 -7 -42 -26 -3 -13 1 -20 17 -23 18 -4 17 -4 -5 -6 l-26 -1 -2 -170 c-1 -169 -1 -170 22 -171 l22 -2 -22 -4 c-25 -5 -32 -38 -11 -46 10 -4 10 -6 1 -6 -10 -1 -13 -41 -13 -164 l0 -163 193 -1 c132 0 194 3 199 11 5 8 8 7 8 -2 0 -10 24 -13 98 -13 53 0 106 0 117 0 11 0 26 9 34 20 11 17 20 19 58 14 33 -4 47 -2 54 8 7 11 9 11 9 -3 0 -21 43 -32 162 -43 22 -2 49 -25 42 -36 -3 -5 -16 -9 -30 -9 -13 0 -24 -5 -24 -11 0 -5 -5 -7 -10 -4 -6 4 -32 2 -58 -4 -26 -6 -84 -15 -129 -19 -74 -7 -83 -6 -83 9 0 9 -8 19 -18 21 -10 3 -154 5 -320 5 l-301 0 0 -419 c0 -323 2 -418 12 -418 9 0 9 -2 0 -8 -9 -6 -12 -66 -12 -225 l1 -217 10719 0 10719 0 -2 2463 -3 2462 -2 -2382 c-2 -1403 -7 -2383 -12 -2383 -5 0 -7 59 -5 135 3 102 1 135 -9 135 -9 0 -11 100 -10 453 2 248 2 540 2 647 -1 107 -1 257 -1 333 1 75 -2 137 -6 137 -5 0 -8 12 -7 28 0 29 0 29 -115 22 -19 -1 -80 1 -135 4 -55 3 -146 5 -202 6 -83 0 -103 3 -103 14 0 8 8 17 18 20 19 5 246 10 362 8 19 -1 38 4 42 11 6 9 8 9 8 0 0 -9 20 -13 65 -13 l64 0 1 287 c1 159 1 311 0 338 0 28 -2 235 -4 460 -2 226 -5 483 -7 573 -2 89 0 162 4 162 5 0 5 4 2 10 -6 9 -10 202 -5 225 1 6 2 13 1 17 -1 12 -2 213 -1 445 0 128 -2 244 -6 259 -4 17 -2 29 7 35 8 5 -2577 9 -6110 9 -4790 -1 -6128 -3 -6140 -13 -11 -9 -13 -9 -8 0 6 9 -47 12 -219 13 -180 0 -224 -2 -218 -12 6 -10 5 -11 -8 -1 -21 18 -1764 18 -1772 0 -3 -9 -5 -9 -5 0 -1 18 -1507 18 -1514 0 -4 -9 -6 -9 -6 1 -1 18 -2997 17 -3004 -1 -4 -9 -6 -9 -6 0 -1 10 -253 13 -1185 13 l-1185 0 -1 -233z m14503 -189 c12 -6 31 -13 42 -15 139 -23 165 -30 165 -47 0 -12 -52 -31 -73 -27 -4 0 -26 -4 -50 -9 -23 -6 -68 -13 -101 -16 -51 -4 -61 -2 -78 16 -18 19 -28 21 -102 17 -100 -6 -102 -6 -430 -2 -294 4 -329 8 -324 33 3 15 27 17 213 18 116 1 217 2 225 2 8 0 102 -2 209 -4 l193 -4 30 25 c33 28 49 30 81 13z m2581 -5 c20 -3 135 -27 186 -39 24 -5 24 -6 6 -20 -11 -8 -29 -14 -40 -14 -29 0 -126 -23 -126 -30 0 -4 -24 -7 -52 -7 -41 -1 -57 4 -72 19 -17 18 -28 19 -190 14 -94 -3 -183 -5 -198 -5 -46 0 -129 1 -203 2 -38 1 -123 1 -187 1 -65 -1 -118 3 -118 8 0 4 8 16 18 26 19 19 0 18 529 13 12 -1 24 3 27 7 2 4 71 3 153 -2 l149 -8 38 26 c21 14 43 23 49 19 5 -3 20 -8 31 -10z m3587 6 c11 -5 34 -11 52 -13 18 -2 52 -9 76 -15 23 -7 49 -10 56 -7 20 7 26 -21 7 -29 -9 -4 -34 -9 -54 -11 -20 -2 -57 -11 -82 -19 -25 -9 -48 -15 -53 -14 -4 1 -21 -1 -36 -6 -22 -6 -32 -3 -51 18 -25 26 -23 26 -213 18 -14 -1 -33 -1 -58 -1 -8 0 -24 0 -35 -1 -32 -1 -138 -1 -157 1 -10 1 -27 1 -38 1 -11 -1 -49 2 -84 5 -48 5 -65 3 -72 -7 -6 -11 -13 -11 -26 -3 -15 9 -164 12 -198 4 -26 -6 -55 1 -55 14 0 25 40 47 63 35 10 -6 38 -8 61 -5 22 3 48 6 56 6 89 -1 372 0 395 1 17 1 48 1 70 0 22 -1 49 -1 60 -1 11 1 59 -1 107 -4 99 -6 118 -2 118 25 0 15 7 19 36 19 19 0 44 -5 55 -11z m-13960 -25 c30 -4 71 -7 92 -7 20 1 37 -2 37 -7 0 -4 18 -10 40 -14 47 -7 46 -31 -3 -41 -18 -3 -52 -10 -77 -15 -25 -5 -73 -14 -108 -20 -35 -6 -70 -14 -78 -17 -12 -4 -14 0 -9 19 6 23 5 24 -65 26 -39 1 -79 -2 -88 -7 -11 -6 -23 -5 -34 3 -23 17 -325 21 -344 5 -9 -7 -19 -7 -33 0 -26 15 -231 15 -231 0 0 -5 -5 -7 -11 -3 -6 3 -54 9 -107 13 -87 5 -97 8 -100 26 -2 18 3 20 63 21 36 1 72 2 80 3 8 0 29 1 45 1 17 0 36 0 43 1 6 1 57 -2 113 -6 70 -5 103 -4 108 3 5 8 15 8 32 2 16 -6 32 -7 42 -1 10 6 24 6 35 -1 11 -5 44 -7 75 -4 70 6 51 6 207 0 150 -5 171 -2 178 27 5 17 9 19 25 10 11 -6 44 -14 73 -17z m2580 -2 c22 2 39 0 39 -5 0 -5 8 -7 19 -4 11 2 25 -3 34 -13 14 -16 13 -19 -10 -29 -13 -6 -28 -9 -32 -7 -4 3 -32 -2 -62 -10 -30 -8 -65 -17 -79 -19 -97 -17 -104 -17 -114 -3 -17 21 -90 41 -128 34 -18 -3 -39 -6 -45 -5 -18 1 -107 1 -175 -1 -38 -1 -58 -5 -58 -13 0 -7 -4 -6 -10 3 -8 14 -95 18 -386 20 -40 0 -53 4 -58 17 -9 22 23 48 38 33 13 -13 52 -13 77 0 11 6 19 7 19 1 0 -5 140 -9 356 -9 279 1 358 3 368 14 19 18 105 22 140 6 16 -8 46 -12 67 -10z m2831 10 c18 -5 51 -8 73 -7 46 2 117 -26 107 -42 -4 -5 -26 -13 -49 -17 -24 -3 -64 -14 -90 -23 -27 -9 -64 -18 -83 -19 -19 -1 -44 -4 -55 -6 -14 -2 -19 2 -17 14 4 26 -26 36 -108 32 -105 -4 -356 -3 -813 5 -44 1 -59 5 -64 17 -10 27 26 47 72 39 22 -4 51 -8 65 -10 14 -2 32 -6 40 -9 9 -4 24 -1 33 7 14 10 39 11 105 5 48 -4 96 -5 107 -1 11 4 25 5 30 3 19 -7 142 -11 355 -10 153 0 184 4 177 23 -5 14 63 13 115 -1z m-7933 -17 c45 -9 86 -13 91 -10 13 8 60 -16 60 -31 0 -12 -11 -15 -94 -29 -21 -3 -50 -11 -65 -17 -14 -5 -48 -12 -75 -14 -38 -3 -53 0 -66 13 -15 17 -52 18 -496 22 -263 2 -492 5 -509 6 -16 2 -33 4 -37 4 -5 1 -8 10 -8 21 0 20 6 20 248 20 211 0 425 -1 562 -4 136 -2 230 5 242 19 17 19 47 18 147 0z m3866 -775 c99 -14 127 -24 119 -44 -6 -14 -88 -36 -139 -36 -18 0 -40 -6 -47 -13 -21 -20 -90 -15 -110 8 -16 19 -29 20 -445 21 -235 1 -436 5 -445 8 -15 7 -15 9 0 27 16 19 28 19 312 13 177 -3 312 -2 338 4 26 6 42 6 42 0 0 -5 37 -8 87 -7 79 3 90 5 117 30 28 24 33 26 56 14 14 -7 66 -18 115 -25z m-2685 20 c11 -6 57 -15 102 -21 46 -6 91 -15 101 -21 28 -14 20 -35 -15 -41 -86 -14 -219 -38 -235 -43 -7 -2 -26 8 -42 22 -30 25 -31 25 -178 19 -187 -7 -166 -7 -499 -2 -154 2 -285 6 -291 10 -6 4 -13 15 -15 24 -4 17 5 18 120 16 83 -2 130 1 139 9 10 8 19 8 37 -1 19 -11 28 -10 51 2 24 12 32 12 57 -1 20 -10 33 -11 40 -4 6 6 21 7 37 2 34 -10 289 -11 295 -1 3 4 41 3 86 -2 88 -10 130 -4 130 17 0 23 50 32 80 16z m5245 -4 c19 -13 72 -25 140 -32 17 -1 33 -3 36 -3 4 -1 9 -10 12 -21 4 -15 -1 -21 -16 -24 -12 -3 -51 -10 -87 -16 -103 -19 -103 -19 -88 -38 11 -14 10 -14 -8 1 -11 9 -37 17 -57 17 -27 0 -37 4 -37 15 0 20 -26 30 -43 18 -7 -6 -51 -7 -112 -2 -55 5 -156 6 -225 3 -146 -6 -138 -6 -300 -1 -181 6 -170 4 -170 30 l0 22 177 -2 c128 -2 183 1 198 10 14 9 36 10 75 5 30 -5 127 -10 215 -13 145 -3 162 -2 180 15 17 16 37 23 80 29 6 0 19 -5 30 -13z m2745 -13 c120 -22 129 -25 140 -38 19 -23 5 -27 -175 -55 -33 -5 -72 -12 -87 -16 -21 -5 -28 -3 -28 9 0 8 -8 18 -17 22 -30 13 -706 15 -721 3 -9 -8 -20 -8 -38 1 -14 6 -58 11 -99 11 -82 0 -113 16 -95 50 9 17 13 17 60 3 40 -12 84 -14 203 -9 84 3 168 6 187 5 246 -5 420 -4 420 2 0 5 23 5 50 2 41 -5 50 -3 50 10 0 20 19 27 50 20 14 -3 59 -12 100 -20z m6580 12 c14 -1 41 -7 61 -14 20 -6 41 -11 45 -9 5 1 20 -4 32 -11 l24 -13 -22 -15 c-12 -8 -53 -19 -92 -24 -41 -5 -79 -16 -90 -25 -11 -10 -18 -12 -18 -6 0 7 -15 12 -34 12 -18 0 -38 6 -44 13 -10 12 -193 24 -314 20 -21 -1 -46 -1 -55 -1 -10 0 -136 0 -280 0 l-263 -1 0 27 0 27 335 -1 c184 -1 338 2 340 7 3 4 17 4 31 -1 15 -6 55 -7 99 -2 50 5 79 5 86 -2 8 -8 15 -4 27 12 14 21 20 23 61 16 25 -4 57 -8 71 -9z m-4065 -6 c0 -1 22 -3 50 -5 27 -2 51 -8 53 -14 2 -5 17 -10 32 -10 16 0 32 -5 35 -10 4 -6 12 -7 18 -4 9 5 9 4 1 -5 -9 -10 -116 -36 -189 -45 -16 -2 -47 -7 -68 -11 -31 -6 -42 -4 -60 12 -20 18 -37 20 -172 21 -172 0 -218 7 -213 31 3 13 16 15 80 13 47 -2 86 1 99 9 24 12 99 19 99 9 0 -11 100 -4 112 8 7 7 33 10 67 7 31 -2 56 -5 56 -6z m-13054 -19 c10 -6 29 -10 43 -10 32 0 78 -20 73 -33 -6 -20 -169 -57 -248 -57 -33 0 -47 5 -57 20 -12 19 -23 20 -517 17 -461 -2 -505 -1 -505 14 0 37 21 39 306 38 154 0 290 0 304 0 14 0 111 0 216 0 169 1 193 3 198 17 6 15 18 16 88 10 44 -4 89 -11 99 -16z m6715 -6 c34 7 35 6 32 -21 -3 -26 -6 -28 -39 -25 -21 2 -40 -1 -44 -7 -4 -8 -12 -8 -26 0 -11 5 -29 7 -40 4 -24 -8 -49 11 -49 37 0 18 5 19 50 13 36 -5 50 -4 50 5 0 10 3 10 15 0 9 -8 28 -10 51 -6z m5552 1 c3 -2 13 0 23 6 12 6 26 6 35 1 9 -5 31 -6 50 -2 42 10 59 -5 33 -31 -18 -18 -29 -20 -154 -20 -33 0 -73 -5 -88 -11 -21 -8 -31 -8 -40 1 -6 6 -39 11 -74 11 -65 0 -82 11 -70 44 5 11 31 13 143 10 76 -3 140 -7 142 -9z m-14455 -95 c3 -11 4 -20 3 -20 -1 0 -9 9 -19 20 -13 15 -14 20 -3 20 7 0 16 -9 19 -20z m102 -72 c6 -4 0 -8 -12 -8 -16 0 -21 4 -16 15 3 9 8 12 12 8 3 -4 11 -11 16 -15z m37 -85 c-12 -2 -30 -2 -40 0 -9 3 1 5 23 4 22 0 30 -2 17 -4z m-122 -49 c0 -22 -4 -33 -11 -29 -6 4 -8 14 -4 22 4 13 3 14 -10 3 -21 -17 -19 -1 3 21 23 24 22 24 22 -17z m109 -44 c1 -13 0 -13 -9 0 -5 8 -9 24 -9 35 0 20 0 20 9 0 5 -11 9 -27 9 -35z m-84 -38 c-1 -1 -9 0 -18 4 -13 4 -14 9 -4 19 10 11 13 10 18 -4 4 -9 5 -17 4 -19z m111 -7 c-8 -8 -17 -15 -20 -15 -3 0 -6 7 -6 15 0 9 9 15 21 15 18 0 19 -2 5 -15z m-156 -215 c0 -13 -5 -18 -15 -14 -11 5 -12 9 -2 20 16 18 17 17 17 -6z m20225 -146 c17 -11 36 -14 62 -9 28 4 51 0 86 -15 26 -12 51 -19 55 -17 4 3 12 -1 19 -8 13 -14 -8 -25 -61 -30 -16 -2 -31 -7 -35 -11 -3 -5 -35 -10 -70 -12 -35 -1 -71 -6 -80 -11 -11 -7 -25 -3 -48 15 -32 24 -32 24 -225 20 -106 -3 -200 -5 -208 -4 -8 0 -130 1 -271 2 -204 1 -259 4 -273 15 -38 32 20 42 209 38 60 -1 94 -1 178 2 6 0 46 -2 87 -5 41 -3 82 -4 90 -4 8 1 101 2 207 4 182 2 206 5 209 27 3 18 4 19 24 19 12 0 32 -7 45 -16z m-17110 -4 c14 -5 49 -12 78 -14 29 -3 60 -8 70 -11 9 -4 23 -2 31 4 10 8 17 6 31 -9 28 -31 13 -47 -55 -54 -34 -4 -74 -12 -88 -18 -15 -5 -38 -11 -52 -12 -14 -1 -35 -6 -46 -10 -15 -4 -28 -1 -40 11 -10 10 -25 18 -33 18 -11 0 -17 11 -19 33 -2 18 0 32 5 31 22 -4 35 2 30 15 -9 23 44 33 88 16z m5360 -4 c54 -12 66 -15 74 -20 5 -3 31 -6 57 -7 27 -1 55 -6 62 -12 27 -21 9 -33 -75 -49 -49 -8 -99 -19 -113 -23 -38 -10 -100 -13 -95 -5 3 5 2 15 -1 24 -5 13 -26 16 -128 16 -66 0 -127 -4 -135 -9 -9 -6 -23 -5 -36 1 -15 6 -38 7 -66 1 -24 -5 -62 -6 -84 -2 -33 6 -371 13 -440 10 -49 -2 -55 0 -55 24 0 34 44 55 62 30 4 -6 72 -10 170 -9 200 1 316 1 473 0 66 -1 147 1 180 4 52 4 60 8 57 24 -3 16 1 18 35 12 21 -3 47 -7 58 -10z m-7945 -10 c109 -16 150 -29 150 -50 0 -17 -59 -31 -207 -50 -95 -12 -98 -11 -108 9 -9 16 -19 20 -60 18 -28 -1 -54 -2 -60 -3 -5 -1 -65 -1 -132 0 -67 1 -127 -1 -132 -5 -6 -3 -11 -1 -11 4 0 7 -24 11 -60 11 -45 0 -60 -4 -60 -14 0 -9 -7 -12 -21 -9 -12 4 -25 0 -30 -8 -7 -11 -9 -10 -9 4 0 13 -9 17 -42 18 -72 2 -153 -3 -158 -10 -10 -12 -40 -9 -40 5 0 19 -100 20 -100 2 -1 -7 -7 1 -14 17 -8 19 -10 34 -4 40 6 6 86 9 210 8 152 -2 204 0 210 10 5 8 8 8 8 0 0 -18 461 -16 497 2 34 18 53 18 173 1z m6043 -5 c16 -6 39 -11 52 -11 13 0 35 -4 49 -10 36 -13 24 -40 -18 -40 -17 0 -58 -7 -89 -15 -76 -20 -163 -20 -174 0 -7 11 -40 14 -173 14 -91 0 -176 1 -190 2 -14 1 -36 1 -50 0 -49 -4 -227 -1 -341 5 -85 5 -122 3 -139 -6 -18 -10 -25 -10 -28 -1 -2 6 -10 17 -17 25 -20 19 1 36 36 29 16 -3 35 0 43 6 10 9 16 9 21 1 4 -6 38 -11 83 -10 65 1 162 1 230 0 9 0 73 1 142 2 69 0 180 0 246 0 98 -1 125 2 135 14 9 11 28 14 83 10 39 -2 84 -9 99 -15z m4928 -1 c55 -11 103 -18 108 -16 4 3 14 -3 23 -13 14 -17 13 -19 -19 -30 -18 -7 -52 -14 -75 -16 -23 -1 -44 -7 -46 -13 -1 -5 -16 -8 -33 -5 -16 2 -46 -1 -66 -8 -33 -10 -37 -10 -57 14 -20 24 -26 26 -91 22 -72 -5 -79 -5 -117 -3 -13 1 -54 1 -93 1 -38 0 -216 0 -395 2 -179 1 -332 -2 -341 -6 -11 -6 -22 -2 -32 9 -31 34 -3 46 113 52 8 0 202 0 430 -1 228 -1 424 -1 435 0 11 0 33 1 50 1 16 0 37 7 45 15 19 20 43 19 161 -5z m2659 -1 c82 -15 169 -42 164 -51 -3 -5 -9 -6 -14 -3 -10 6 -60 -15 -60 -26 0 -5 -10 -5 -22 0 -13 5 -41 3 -68 -4 -65 -18 -62 -17 -97 -16 -17 0 -39 9 -49 18 -14 15 -42 17 -223 16 -113 0 -215 0 -226 0 -567 1 -600 2 -607 17 -15 33 -7 35 135 37 78 1 149 1 157 1 8 0 112 -1 230 -2 118 -1 282 -4 363 -6 141 -3 150 -2 170 19 23 22 22 22 147 0z m2639 1 c35 -5 71 -15 79 -23 13 -13 12 -17 -7 -27 -29 -15 -58 -22 -101 -24 -46 -2 -109 -16 -115 -26 -6 -9 -66 10 -87 28 -9 7 -44 12 -84 12 -38 0 -89 0 -114 1 -25 1 -88 0 -140 -1 -165 -3 -370 -2 -512 1 -115 3 -138 7 -138 19 0 20 63 40 85 27 9 -5 42 -6 73 -3 31 3 64 5 72 5 8 0 179 -1 380 -2 282 -2 369 0 385 10 23 15 132 17 224 3z m-13923 -12 c32 2 68 -21 62 -39 -3 -9 -250 -13 -650 -10 -174 1 -208 3 -208 15 0 8 6 18 12 22 7 5 168 7 358 6 192 -1 351 3 360 8 8 5 19 6 24 2 6 -3 25 -5 42 -4z m-3426 -646 c0 -4 -9 -8 -20 -9 -16 -1 -17 1 -7 12 12 13 27 11 27 -3z m10701 -128 c17 3 40 1 51 -5 12 -6 42 -16 67 -23 45 -11 56 -24 29 -38 -7 -3 -47 -12 -88 -18 -84 -13 -137 -24 -162 -35 -13 -5 -19 -1 -23 18 l-7 25 -416 1 c-567 2 -562 1 -549 36 7 18 24 18 425 16 199 -2 277 1 288 10 10 8 14 8 14 0 0 -7 36 -11 113 -11 112 0 141 8 130 35 -8 22 30 23 65 2 23 -13 43 -17 63 -13z m7967 10 c35 -8 68 -12 73 -9 5 3 19 1 31 -6 16 -8 23 -9 26 -1 4 14 49 -5 56 -24 5 -12 -47 -34 -81 -34 -7 0 -13 -5 -13 -10 0 -6 -17 -10 -37 -9 -21 1 -62 -2 -91 -6 -41 -6 -56 -4 -70 8 -15 13 -136 23 -247 19 -11 -1 -96 -1 -190 0 -93 0 -204 0 -245 -1 -102 -2 -341 -1 -362 1 -11 1 -18 10 -18 23 0 20 6 22 68 24 37 1 101 2 142 2 48 0 77 4 82 12 6 9 8 9 8 -1 0 -10 13 -12 54 -7 29 4 62 3 72 -3 11 -5 45 -6 79 -2 32 3 80 3 107 -2 33 -6 57 -5 80 4 24 10 51 11 98 5 36 -4 105 -10 153 -13 94 -6 117 2 117 38 0 16 4 19 23 13 12 -3 51 -13 85 -21z m-15954 -23 c56 -10 84 -28 68 -42 -4 -4 -45 -14 -92 -22 -47 -8 -107 -20 -135 -26 -44 -10 -53 -9 -77 9 -26 19 -43 20 -360 20 -183 1 -376 4 -428 8 -87 6 -95 9 -98 29 l-3 21 436 -3 436 -4 10 23 c11 23 11 23 97 10 48 -7 114 -17 146 -23z m5186 19 c62 -10 122 -22 182 -34 55 -12 12 -42 -72 -52 -14 -1 -38 -4 -55 -7 -139 -20 -135 -20 -149 -2 -10 15 -26 18 -82 16 -107 -3 -138 -5 -151 -14 -6 -4 -14 -4 -17 1 -8 13 -488 19 -539 7 -15 -4 -47 -2 -72 5 -39 11 -43 14 -34 34 10 21 13 21 254 18 175 -3 245 0 245 8 0 7 6 8 18 1 11 -6 63 -8 118 -5 140 6 143 6 202 2 49 -4 52 -3 52 20 0 17 4 22 18 18 9 -3 46 -10 82 -16z m-2520 -15 c47 -8 86 -15 88 -15 1 0 2 -9 2 -19 0 -16 -10 -21 -47 -27 -27 -3 -52 -9 -57 -12 -10 -5 -16 -6 -128 -16 -61 -6 -68 -4 -79 15 -10 19 -16 21 -67 15 -52 -6 -74 -8 -117 -6 -8 0 -21 0 -27 -1 -7 0 -85 3 -173 7 -139 6 -165 5 -192 -9 -20 -11 -34 -13 -38 -7 -3 5 -16 10 -28 11 -12 0 -77 3 -145 5 -120 5 -123 6 -120 27 4 28 58 35 178 24 47 -4 121 -6 165 -3 109 8 196 8 353 0 73 -3 141 -2 150 2 9 4 27 6 40 5 15 -2 22 3 22 15 0 15 8 16 68 11 37 -4 105 -13 152 -22z m8005 10 c17 -1 43 -8 58 -14 16 -6 37 -11 48 -11 10 0 19 -4 19 -10 0 -22 -62 -38 -233 -62 -69 -10 -79 -9 -90 6 -10 14 -30 17 -127 16 -63 0 -122 -1 -130 -1 -8 -1 -76 2 -150 5 -74 4 -179 3 -233 -1 -54 -5 -103 -6 -109 -2 -7 4 -23 2 -38 -6 -21 -11 -28 -11 -45 1 -13 10 -47 14 -108 14 l-88 0 3 28 c2 18 8 26 18 23 32 -10 426 -9 444 1 10 6 21 6 25 2 3 -5 48 -11 99 -12 81 -3 95 -1 108 15 12 15 13 16 8 1 -5 -15 4 -17 98 -16 56 1 110 5 119 9 9 5 30 4 48 -1 24 -7 35 -5 53 11 23 19 49 19 203 4z m2525 1 c19 -2 48 -9 63 -15 16 -6 43 -11 62 -11 28 0 45 -13 45 -35 0 -1 -21 -6 -47 -10 -27 -4 -57 -12 -67 -17 -11 -6 -52 -12 -93 -15 -61 -4 -77 -1 -97 14 -20 16 -44 19 -149 22 -89 1 -132 -2 -148 -11 -17 -10 -23 -10 -26 -1 -3 9 -10 10 -22 4 -10 -6 -23 -6 -31 -1 -8 5 -21 5 -30 0 -9 -5 -22 -5 -31 1 -18 11 -96 12 -103 0 -3 -4 -18 -6 -33 -3 -16 3 -99 7 -185 9 -145 4 -158 5 -158 22 0 24 40 28 250 26 141 -2 167 0 178 14 7 9 11 11 8 5 -6 -12 115 -20 369 -26 106 -3 110 -2 120 20 9 19 15 22 50 17 22 -3 56 -7 75 -9z m-15885 -186 c-3 -5 1 -11 7 -13 7 -3 3 -6 -9 -6 -15 -1 -21 4 -20 18 0 11 6 17 14 14 7 -3 11 -9 8 -13z m-1 -131 c-2 -4 8 -10 22 -13 40 -10 21 -19 -25 -11 -28 4 -38 11 -35 20 3 8 14 13 24 12 10 -1 17 -4 14 -8z m556 -89 c0 -13 -7 -20 -20 -20 -19 0 -19 1 -2 19 22 25 22 25 22 1z m19465 -335 c43 -3 162 -43 133 -44 -10 -1 -18 -6 -18 -12 0 -6 -7 -9 -15 -6 -8 4 -38 -1 -67 -9 -29 -8 -75 -17 -102 -19 -27 -3 -57 -7 -66 -10 -12 -4 -19 1 -23 15 -4 15 -13 20 -34 20 -15 0 -37 0 -48 0 -195 0 -326 -4 -330 -10 -3 -5 -21 -4 -40 1 -22 6 -41 6 -52 1 -9 -5 -30 -6 -47 -2 -25 6 -177 7 -236 1 -8 -1 -39 3 -67 10 -37 8 -53 16 -53 28 0 14 29 16 295 15 163 -1 298 2 301 7 3 5 13 5 22 1 9 -5 75 -8 147 -7 115 2 131 4 144 22 13 17 21 18 66 10 27 -4 68 -10 90 -12z m-5442 1 c12 -8 46 -17 76 -20 69 -6 139 -27 145 -42 5 -13 -22 -22 -87 -30 -72 -9 -144 -23 -170 -33 -26 -10 -32 -8 -58 20 l-30 32 -77 -8 c-42 -4 -129 -6 -192 -5 -96 3 -214 3 -367 1 -93 -1 -263 12 -263 20 0 5 -8 9 -17 10 -14 0 -12 3 5 10 13 5 92 10 177 12 85 1 157 6 161 9 3 4 17 3 29 -2 13 -5 145 -9 293 -9 268 1 270 1 304 24 40 29 42 29 71 11z m-10540 -18 c32 -6 60 -8 64 -5 3 4 14 2 25 -4 11 -6 32 -11 47 -11 15 -1 33 -9 39 -18 9 -15 6 -19 -21 -25 -18 -4 -50 -9 -71 -12 -22 -2 -48 -9 -57 -14 -29 -15 -145 -11 -159 6 -9 10 -32 15 -76 15 -35 0 -64 2 -64 4 0 2 -3 11 -6 19 -6 18 32 29 102 29 37 0 47 4 51 18 5 20 8 20 126 -2z m5217 2 c68 -10 97 -17 168 -35 37 -10 0 -36 -61 -41 -28 -3 -68 -9 -87 -14 -53 -15 -119 -12 -137 5 -8 8 -27 16 -41 16 -45 2 -221 3 -322 2 -162 -2 -170 -2 -185 -2 -8 -1 -21 -1 -27 0 -7 0 -40 0 -73 -2 -33 -1 -74 1 -92 5 -19 4 -40 3 -53 -4 -14 -7 -40 -9 -71 -5 -43 6 -49 10 -49 31 0 22 4 23 53 23 28 -1 115 -1 192 -1 77 0 210 0 295 0 85 0 178 1 205 2 28 1 67 -2 87 -5 56 -10 91 1 83 26 -6 17 -3 19 17 15 13 -2 57 -10 98 -16z m2693 10 c15 0 27 -4 27 -9 0 -11 98 -34 111 -25 5 3 9 0 9 -6 0 -6 5 -8 10 -5 6 3 10 -1 10 -10 0 -9 -4 -13 -10 -10 -5 3 -10 2 -10 -3 0 -5 -6 -9 -12 -10 -31 -2 -95 -13 -118 -18 -46 -12 -55 -14 -97 -20 -35 -5 -43 -3 -52 15 -10 17 -21 21 -64 21 -29 0 -58 -5 -65 -12 -9 -9 -12 -9 -12 0 0 10 -29 13 -112 13 -62 0 -126 0 -143 1 -132 0 -195 -4 -195 -13 0 -6 -7 -6 -21 2 -12 6 -79 11 -160 12 -121 2 -139 4 -139 18 0 21 40 29 135 28 39 -1 113 -1 165 -1 52 0 109 0 125 0 17 0 37 0 45 0 137 4 373 2 388 -3 14 -4 27 1 39 14 20 22 56 31 93 24 14 -2 37 -4 53 -3z m5472 -7 c17 -2 46 -4 66 -4 23 1 44 -6 59 -19 13 -11 18 -20 12 -20 -7 0 -12 -6 -12 -14 0 -17 -27 -24 -60 -16 -26 6 -98 -4 -167 -24 -39 -12 -42 -11 -51 9 -8 17 -22 23 -59 28 -26 3 -55 1 -63 -3 -9 -5 -22 -5 -30 0 -8 5 -21 5 -30 0 -9 -5 -23 -4 -33 1 -10 6 -24 6 -34 1 -10 -5 -96 -8 -193 -5 -249 6 -331 4 -347 -8 -8 -7 -13 -8 -13 -1 0 6 -32 9 -81 8 -56 -1 -87 3 -101 13 -20 13 -20 15 -3 27 10 8 30 11 46 7 16 -3 35 0 43 6 9 7 17 8 20 2 5 -7 265 -15 386 -11 157 5 282 5 360 -1 107 -7 117 -5 126 23 6 19 11 20 68 14 33 -4 75 -10 91 -13z m-10724 -4 c9 -5 47 -11 84 -13 69 -5 115 -25 115 -51 0 -10 -11 -14 -37 -14 -21 1 -65 -4 -98 -10 -33 -6 -87 -14 -121 -17 -56 -6 -61 -5 -66 14 -6 20 -12 21 -269 22 -145 0 -275 1 -289 2 -14 0 -43 0 -65 -1 -22 -1 -49 -2 -60 -2 -55 1 -64 0 -70 -8 -3 -6 -20 -5 -40 0 -20 6 -43 9 -53 8 -9 -1 -29 1 -45 6 -17 4 -32 3 -41 -4 -10 -9 -19 -7 -37 8 -26 21 -18 42 17 42 10 0 161 -2 334 -5 210 -3 334 -1 373 7 40 8 69 8 96 1 30 -8 45 -7 64 3 17 8 28 9 32 3 9 -15 52 -12 58 4 6 16 90 19 118 5z m-3331 -24 c112 0 115 -1 118 -22 3 -22 0 -23 -70 -23 -266 -1 -388 1 -420 6 -22 4 -50 1 -67 -6 -24 -9 -37 -9 -65 1 -20 7 -36 19 -36 26 0 14 59 18 260 14 63 -1 122 2 130 8 8 5 19 7 25 3 5 -4 62 -7 125 -7z m255 -23 c8 -20 -13 -33 -50 -30 -24 2 -31 8 -33 28 -3 24 -1 25 37 22 24 -2 42 -10 46 -20z m-3398 -712 c1 -14 -4 -20 -18 -20 -12 0 -17 4 -13 11 3 6 0 15 -7 20 -10 6 -7 9 11 9 19 0 26 -6 27 -20z m240 -341 c1 -12 -3 -16 -13 -12 -8 3 -14 16 -14 29 0 20 3 22 13 13 7 -7 14 -20 14 -30z m-9 -116 c-9 -2 -19 -12 -21 -21 -3 -12 -5 -10 -6 6 -1 17 4 22 22 21 15 -1 17 -3 5 -6z"
       id="path8" />
  </g>
  <g
     style="fill:#000000;stroke:none"
     transform="matrix(0.024,0,0,-0.024,-0.23073244,117.42264)"
     id="g2993">
    <path
       inkscape:connector-curvature="0"
       d="m 17745,4437 c -11,-7 -35,-24 -53,-39 -18,-16 -39,-28 -47,-28 -7,0 -15,-3 -17,-8 -5,-13 -85,-72 -97,-72 -16,0 -14,-32 4,-57 13,-18 13,-22 0,-33 -8,-7 -15,-17 -15,-22 0,-6 -26,-45 -57,-88 -82,-112 -115,-158 -137,-194 -11,-17 -41,-59 -68,-93 -27,-35 -46,-63 -42,-63 5,0 -53,-79 -67,-90 -3,-3 -14,-21 -24,-40 -9,-19 -39,-60 -65,-90 -26,-30 -55,-72 -65,-93 -12,-25 -23,-36 -32,-33 -8,3 -11,1 -8,-4 3,-6 -10,-30 -31,-55 -20,-25 -33,-45 -30,-45 10,0 -25,-48 -70,-94 -21,-22 -45,-54 -53,-71 -15,-29 -64,-94 -101,-134 -24,-26 -18,-60 13,-79 28,-17 29,-17 54,13 14,17 43,50 64,74 22,23 39,48 39,55 0,7 25,41 55,76 31,36 62,79 70,95 9,17 33,49 55,71 21,23 36,44 33,48 -3,3 2,8 11,12 9,3 16,12 16,20 0,8 20,39 45,70 25,30 45,59 45,65 0,6 5,7 12,3 7,-4 8,-3 4,5 -4,6 10,33 33,62 23,29 41,56 41,62 0,6 3,7 7,4 3,-4 14,10 24,31 10,20 31,52 48,70 17,19 33,42 36,52 8,26 33,32 51,12 23,-26 62,-84 74,-110 10,-24 30,-22 30,3 0,8 18,-5 41,-28 40,-41 109,-137 109,-151 0,-5 9,-20 20,-36 11,-15 17,-30 13,-34 -3,-3 -2,-6 4,-6 10,0 46,-73 48,-96 0,-6 6,-18 14,-27 7,-9 10,-21 7,-26 -4,-5 -2,-12 3,-15 7,-5 12,-18 27,-86 2,-8 6,-28 10,-43 5,-21 3,-27 -7,-25 -21,5 -13,-48 26,-173 5,-15 -2,-17 -52,-15 -58,2 -121,25 -144,52 -6,8 -18,14 -26,14 -13,0 -68,33 -83,50 -3,3 -11,6 -19,8 -8,2 -27,12 -42,23 -15,10 -30,19 -33,19 -6,0 -55,27 -186,103 -19,11 -51,29 -70,39 -19,11 -43,27 -53,36 -28,25 -57,22 -63,-5 -7,-28 8,-49 50,-69 65,-31 111,-57 116,-64 3,-4 23,-16 45,-27 89,-45 111,-57 141,-80 17,-13 37,-23 45,-23 8,0 25,-9 39,-20 14,-11 29,-20 33,-20 5,0 20,-9 34,-20 l 26,-20 -194,-1 c -604,-4 -594,-3 -594,-19 0,-13 55,-15 430,-15 419,-1 431,-1 470,-22 22,-12 59,-31 83,-43 23,-12 42,-26 42,-31 0,-5 8,-9 17,-9 14,0 84,-41 103,-60 3,-3 12,-6 20,-8 8,-2 22,-9 30,-15 8,-7 32,-21 53,-31 20,-11 37,-23 37,-28 0,-4 8,-8 19,-8 10,0 30,-9 44,-20 14,-11 29,-20 35,-20 5,0 21,-9 35,-20 14,-12 37,-26 51,-34 l 25,-13 -20,-32 c -11,-19 -24,-29 -31,-25 -7,4 -8,3 -4,-4 4,-7 2,-12 -5,-12 -7,0 -10,-3 -6,-6 9,-9 -16,-33 -28,-26 -5,3 -7,2 -3,-3 10,-10 -11,-37 -23,-29 -5,3 -9,-2 -9,-11 0,-8 -7,-18 -15,-21 -8,-4 -15,-10 -15,-15 0,-17 -63,-79 -73,-72 -6,3 -7,1 -3,-5 9,-15 -43,-73 -58,-65 -6,3 -8,3 -4,-2 11,-11 -12,-36 -26,-28 -6,3 -8,3 -4,-2 4,-4 -2,-19 -13,-33 -19,-25 -19,-27 -2,-33 30,-10 51,1 99,55 25,28 81,87 123,131 144,151 213,234 209,252 -3,17 -28,34 -123,82 -99,51 -154,85 -149,93 3,4 -1,5 -9,3 -7,-3 -24,3 -37,15 -13,11 -28,20 -34,20 -6,0 -29,12 -51,27 -22,15 -46,28 -53,29 -8,2 -21,9 -30,17 -10,8 -32,22 -50,32 -19,9 -32,19 -29,21 3,3 56,6 119,8 62,1 119,5 126,10 27,17 -3,26 -87,26 -59,0 -92,4 -98,13 -15,20 1,147 18,147 5,0 4,9 -3,20 -8,13 -20,19 -31,16 -9,-2 -14,0 -11,5 3,6 0,16 -6,24 -10,12 -10,15 -1,15 8,0 7,6 -3,16 -9,8 -14,20 -10,25 3,6 1,16 -5,23 -6,7 -12,27 -14,45 -2,17 -9,37 -15,43 -7,7 -12,18 -12,25 0,18 -59,141 -71,149 -6,3 -8,13 -5,21 3,8 1,11 -4,8 -6,-3 -10,0 -10,8 0,8 -9,22 -20,32 -12,10 -18,25 -15,32 2,8 0,11 -5,8 -6,-3 -10,0 -10,8 0,7 -14,26 -31,43 -42,39 -54,71 -34,91 18,17 11,33 -13,33 -9,0 -26,7 -36,15 -11,8 -27,15 -36,15 -9,0 -29,13 -44,29 l -28,30 48,73 c 43,66 62,91 124,166 10,12 15,22 12,22 -4,0 0,5 8,10 10,6 22,4 37,-5 19,-13 24,-13 37,1 9,8 19,33 22,55 4,22 11,42 15,45 5,3 9,16 9,30 0,13 4,24 10,24 5,0 7,7 4,15 -3,8 -2,20 2,27 5,7 9,18 11,23 1,6 6,24 11,42 14,44 -1,55 -43,30 z"
       id="path2995" />
    <path
       inkscape:connector-curvature="0"
       d="m 4750,4360 c -25,-14 -190,-77 -275,-105 -44,-15 -89,-30 -100,-35 -11,-5 -54,-21 -95,-35 -85,-31 -103,-38 -143,-54 -16,-6 -32,-9 -37,-6 -5,3 -10,1 -12,-5 -2,-6 -12,-12 -23,-14 -11,-2 -49,-16 -84,-30 -35,-14 -67,-23 -72,-20 -5,3 -9,1 -9,-4 0,-5 -15,-13 -32,-17 -44,-10 -40,-9 -66,-23 -12,-7 -26,-10 -31,-7 -5,3 -11,2 -13,-3 -1,-4 -46,-22 -98,-39 l -95,-32 -2,-38 c -5,-66 -3,-346 2,-673 12,-679 13,-1070 1,-1063 -7,4 -6,1 1,-8 7,-8 13,-35 13,-60 0,-24 2,-115 3,-201 2,-93 0,-155 -6,-151 -5,3 -4,-4 2,-15 6,-12 11,-78 10,-164 -1,-383 1,-398 39,-366 18,15 241,126 357,178 39,17 77,36 85,41 8,5 22,12 30,15 8,3 27,12 43,20 15,8 27,12 27,8 0,-4 8,0 18,8 9,8 62,36 117,62 55,26 122,59 148,72 27,13 55,24 62,24 7,0 18,7 25,15 6,8 15,14 18,13 10,-3 221,103 228,113 3,5 9,7 14,4 9,-6 12,198 3,221 -7,19 -39,18 -47,-2 -3,-9 -6,-52 -6,-97 l 0,-82 -69,-33 c -38,-17 -73,-32 -79,-32 -5,0 -15,-7 -22,-15 -7,-8 -21,-15 -31,-15 -11,0 -19,-3 -19,-8 0,-4 -24,-18 -52,-31 -29,-13 -100,-47 -158,-75 -58,-27 -108,-49 -112,-48 -3,1 -12,-5 -18,-13 -7,-8 -21,-15 -31,-15 -10,0 -21,-5 -25,-11 -3,-6 -36,-24 -73,-41 -151,-69 -257,-119 -271,-128 -72,-46 -138,-71 -141,-52 -1,4 -3,178 -4,387 -2,209 -4,380 -5,380 -1,0 -3,109 -5,243 -3,181 -1,242 8,242 9,0 9,2 1,8 -8,4 -11,40 -10,100 0,50 -3,93 -7,95 -5,1 -4,14 2,29 5,14 7,29 3,33 -4,4 -8,167 -9,363 -1,196 -2,359 -3,362 -3,7 0,298 3,329 2,24 7,28 62,51 61,26 88,35 125,45 3,1 12,5 20,8 8,4 26,8 40,9 14,2 28,7 31,11 3,4 66,28 140,53 74,25 148,51 164,58 17,7 68,25 115,40 47,15 94,31 105,36 32,14 226,81 265,90 19,5 37,7 40,4 3,-3 5,-128 5,-277 0,-195 3,-276 12,-284 17,-19 41,-16 48,7 4,11 5,158 4,326 -3,259 -6,307 -19,318 -9,9 -21,11 -30,6 z"
       id="path2997" />
    <path
       inkscape:connector-curvature="0"
       d="m 9575,4286 c -14,-30 -25,-64 -25,-75 0,-11 -4,-23 -10,-26 -5,-3 -10,-17 -10,-31 0,-13 -4,-24 -8,-24 -5,0 -9,-6 -10,-12 -1,-7 -4,-25 -8,-41 -7,-30 10,-59 31,-51 7,3 18,-3 23,-13 8,-16 14,-199 13,-413 -1,-421 -1,-544 0,-718 2,-131 6,-205 13,-211 38,-29 85,-12 87,32 0,12 1,48 2,80 1,31 -2,57 -7,57 -5,0 -4,6 1,13 5,6 8,23 6,37 -5,47 -5,258 0,267 3,5 2,15 -3,23 -5,8 -5,22 1,32 5,10 6,18 1,18 -10,0 -9,70 2,88 4,6 3,12 -1,12 -13,0 -11,224 1,232 8,5 8,8 0,8 -8,0 -11,65 -12,220 0,185 2,223 15,236 9,8 21,13 28,10 9,-3 12,3 11,17 -6,44 -19,92 -28,105 -6,6 -7,12 -3,12 4,0 2,7 -5,15 -7,8 -10,21 -7,29 3,8 2,16 -4,18 -5,2 -11,13 -14,25 -6,34 -28,76 -42,81 -7,2 -23,-20 -38,-52 z"
       id="path2999" />
    <path
       inkscape:connector-curvature="0"
       d="m 15809,4010 c -40,-29 -132,-86 -160,-101 -79,-42 -108,-60 -114,-69 -4,-6 -21,-17 -38,-25 -44,-20 -96,-53 -114,-71 -8,-8 -19,-12 -24,-9 -5,4 -9,2 -9,-2 0,-8 -48,-40 -62,-42 -5,-1 -17,-10 -28,-21 -10,-10 -43,-31 -72,-46 -29,-14 -61,-33 -70,-41 -9,-8 -22,-12 -27,-8 -6,3 -11,2 -11,-3 0,-10 -53,-50 -71,-54 -7,-2 -24,-13 -38,-25 -14,-12 -28,-20 -33,-17 -4,3 -8,1 -8,-4 0,-5 -17,-17 -37,-28 -21,-10 -45,-25 -54,-32 -9,-7 -21,-12 -26,-10 -5,2 -23,-11 -41,-28 -30,-30 -30,-32 -13,-48 10,-9 25,-16 34,-16 9,0 19,-5 23,-11 3,-6 25,-19 48,-29 22,-10 53,-30 67,-43 15,-14 29,-23 32,-20 3,3 21,-7 40,-21 19,-14 39,-26 46,-26 7,0 9,-4 6,-10 -3,-5 0,-8 7,-5 7,3 27,-8 44,-24 18,-17 34,-27 38,-24 3,3 18,-3 33,-13 15,-10 42,-26 58,-35 35,-19 104,-57 160,-89 22,-12 47,-28 55,-35 8,-7 31,-20 50,-30 43,-20 90,-46 127,-70 15,-11 53,-32 83,-48 30,-16 71,-39 90,-51 59,-37 74,-45 115,-67 22,-12 53,-32 68,-45 16,-13 35,-24 43,-24 8,0 27,-8 42,-18 72,-49 109,-72 118,-72 5,0 27,-14 48,-30 22,-17 46,-30 53,-30 8,0 11,-4 8,-10 -3,-5 0,-7 8,-5 7,3 22,-3 32,-15 10,-11 25,-20 34,-20 9,0 29,-12 44,-26 16,-14 36,-27 45,-29 9,-1 16,-8 15,-13 -2,-6 3,-9 10,-6 7,2 22,-4 32,-14 20,-18 28,-22 43,-22 4,0 19,-11 34,-24 14,-14 28,-22 32,-19 4,5 68,-37 86,-56 3,-4 11,-7 18,-9 14,-3 73,-41 82,-54 5,-6 12,-8 29,-8 5,0 16,-6 23,-13 7,-7 34,-24 61,-37 26,-13 47,-28 47,-32 0,-5 4,-7 9,-4 8,6 63,-31 69,-46 2,-5 7,-6 11,-3 4,2 32,-11 62,-30 29,-19 61,-38 71,-41 10,-3 18,-10 18,-15 0,-6 5,-7 10,-4 6,3 10,1 10,-6 0,-7 3,-9 6,-6 6,6 62,-28 74,-44 3,-4 10,-7 15,-8 10,0 55,-26 121,-69 19,-12 53,-31 75,-42 21,-11 39,-25 39,-30 0,-27 41,-2 108,65 41,41 77,73 82,70 4,-3 7,1 6,8 0,7 32,49 71,92 40,43 70,82 67,87 -3,4 -23,7 -44,6 -21,-2 -36,-6 -33,-10 6,-11 -49,-64 -62,-60 -5,2 -7,0 -3,-4 11,-10 -12,-35 -26,-27 -6,3 -8,3 -4,-1 9,-10 -23,-46 -41,-46 -8,0 -11,-3 -8,-7 10,-10 -14,-34 -27,-26 -6,3 -8,3 -4,-2 4,-4 -8,-24 -28,-42 -33,-33 -36,-34 -57,-19 -12,8 -40,24 -62,34 -22,10 -46,26 -54,35 -7,10 -22,17 -32,17 -10,0 -20,4 -23,9 -3,5 -25,18 -48,30 -24,12 -68,37 -98,56 -30,19 -68,40 -85,48 -16,8 -38,24 -48,35 -11,11 -24,19 -31,16 -7,-3 -30,9 -51,26 -21,16 -43,30 -50,30 -7,0 -19,7 -26,16 -8,9 -33,25 -56,35 -24,10 -43,23 -43,28 0,6 -12,14 -27,17 -28,7 -82,41 -95,59 -4,6 -11,8 -15,7 -10,-4 -63,30 -63,40 0,4 -6,5 -12,3 -7,-3 -26,6 -42,20 -16,14 -34,25 -39,25 -6,0 -24,10 -41,23 -17,12 -48,31 -68,41 -21,11 -38,23 -38,27 0,4 -15,12 -33,18 -19,7 -42,20 -53,30 -11,10 -31,21 -44,24 -14,4 -38,19 -55,34 -16,15 -30,26 -30,24 0,-8 -45,11 -45,19 0,5 -10,12 -22,15 -13,4 -37,18 -55,31 -17,13 -38,24 -47,24 -8,0 -18,5 -21,10 -4,6 -27,22 -53,36 -73,40 -185,107 -239,142 -18,12 -40,22 -48,22 -7,0 -15,4 -17,9 -1,5 -25,21 -53,35 -27,15 -72,40 -100,57 -27,16 -65,36 -84,45 -18,8 -42,24 -54,35 -11,10 -28,19 -38,19 -9,0 -23,7 -30,16 -8,9 -32,25 -54,34 -23,10 -49,25 -58,34 -9,10 -26,19 -37,21 -11,2 -29,13 -42,24 -12,12 -26,21 -32,21 -12,0 -89,51 -94,63 -2,4 -7,5 -11,2 -5,-2 -23,7 -41,20 -19,14 -40,25 -47,25 -7,0 -13,7 -13,15 0,8 6,15 14,15 8,0 22,7 30,16 9,8 20,13 25,9 5,-3 13,0 17,6 5,8 3,9 -7,4 -11,-6 -11,-5 -3,5 7,6 23,13 37,13 13,1 23,7 20,13 -2,6 9,17 26,23 16,7 37,21 47,32 19,21 39,26 28,7 -3,-7 5,-1 18,14 13,15 31,28 38,30 8,2 26,13 40,26 13,12 32,22 41,22 9,0 24,9 34,20 10,11 24,20 32,20 7,0 13,4 13,9 0,4 21,19 47,32 26,13 54,30 61,37 7,6 19,12 26,12 8,0 19,6 25,14 7,8 40,29 74,47 34,17 64,35 67,39 6,9 59,41 118,72 23,12 42,26 42,30 0,4 8,8 17,8 9,0 27,10 40,22 13,12 23,16 23,9 0,-7 4,-9 10,-6 5,3 26,-6 46,-21 31,-24 39,-26 56,-15 11,7 17,8 14,3 -7,-12 32,-64 43,-57 5,2 23,-7 41,-20 19,-14 40,-25 48,-25 7,0 10,-4 7,-10 -3,-5 0,-7 8,-5 7,3 22,-3 32,-15 10,-11 24,-20 32,-20 8,0 30,-12 50,-27 20,-15 42,-28 49,-28 7,0 25,-11 41,-25 15,-13 33,-24 39,-22 6,1 19,-7 29,-18 10,-11 24,-20 32,-20 8,0 11,-4 8,-10 -3,-5 0,-7 7,-5 8,3 29,-6 48,-20 19,-14 39,-25 45,-25 7,0 24,-11 38,-24 14,-13 28,-21 31,-19 9,9 36,-19 29,-30 -3,-5 -1,-7 5,-3 14,9 63,-14 55,-27 -3,-6 -1,-7 5,-3 10,6 25,-2 118,-61 42,-28 65,-29 80,-5 9,14 8,23 -6,39 -10,12 -20,19 -24,16 -3,-4 -6,-1 -6,6 0,7 -4,10 -9,7 -5,-3 -20,3 -34,14 -14,11 -31,20 -39,20 -7,0 -25,11 -40,25 -15,14 -34,25 -43,25 -9,0 -28,9 -42,20 -14,11 -31,20 -38,20 -17,0 -47,35 -38,44 5,4 4,7 -2,6 -23,-5 -46,1 -40,10 4,6 -1,7 -11,3 -13,-5 -15,-3 -9,7 5,9 4,11 -3,6 -6,-4 -24,1 -39,11 -47,31 -67,43 -100,58 -49,23 -103,62 -95,69 3,4 0,4 -9,1 -8,-3 -25,3 -37,14 -13,10 -36,24 -53,31 -16,7 -28,18 -26,24 3,7 -3,12 -12,13 -29,2 -45,9 -81,31 -19,12 -42,22 -51,22 -9,0 -19,7 -22,15 -4,8 -25,24 -49,36 -24,12 -49,26 -56,32 -21,16 -45,15 -73,-3 z"
       id="path3001" />
    <path
       inkscape:connector-curvature="0"
       d="m 12697,3928 c -9,-6 -9,-10 2,-17 8,-5 31,-44 51,-87 l 38,-78 27,55 c 15,30 30,56 34,59 3,3 7,12 9,20 2,8 10,22 18,32 18,19 9,26 -26,23 -20,-1 -25,-7 -25,-31 0,-16 -4,-35 -8,-42 -13,-20 -38,12 -35,44 3,25 0,27 -35,28 -21,1 -43,-2 -50,-6 z"
       id="path3003" />
    <path
       inkscape:connector-curvature="0"
       d="m 16992,3884 c -17,-12 -23,-24 -21,-48 2,-17 -1,-37 -5,-45 -14,-23 -12,-55 4,-67 16,-12 55,-12 66,-1 11,11 21,8 37,-8 13,-12 17,-12 32,5 15,16 15,22 5,35 -8,10 -10,29 -6,55 5,35 3,44 -18,65 -29,29 -62,32 -94,9 z m 56,-45 c 2,-13 1,-21 -4,-17 -4,4 -14,2 -22,-5 -13,-10 -15,-9 -9,6 4,10 7,25 7,34 0,24 25,9 28,-18 z m -6,-71 c -6,-6 -15,-8 -19,-4 -4,4 -1,11 7,16 19,12 27,3 12,-12 z"
       id="path3005" />
    <path
       inkscape:connector-curvature="0"
       d="m 18216,3706 c -27,-25 -27,-57 -1,-86 25,-28 69,-26 89,5 43,65 -32,134 -88,81 z m 54,-30 c 0,-2 3,-11 6,-20 4,-11 0,-16 -14,-16 -15,0 -20,6 -19,20 1,11 7,20 14,20 7,0 13,-2 13,-4 z"
       id="path3007" />
    <path
       inkscape:connector-curvature="0"
       d="m 18032,3673 c -13,-15 -27,-21 -34,-17 -9,6 -9,3 1,-9 11,-15 11,-17 -2,-17 -16,0 -30,26 -22,41 4,5 -2,6 -11,2 -10,-4 -15,-2 -11,3 3,6 -9,11 -27,12 -25,2 -40,-5 -62,-27 -44,-43 -49,-53 -48,-86 1,-16 -4,-36 -10,-44 -8,-11 -8,-13 2,-7 8,5 12,-1 12,-22 0,-37 39,-83 75,-86 19,-3 37,5 60,25 18,16 34,26 37,23 3,-2 4,7 3,21 -2,14 1,23 6,19 5,-3 9,-11 9,-18 0,-18 68,-78 75,-66 4,6 11,8 16,4 16,-9 57,35 71,75 15,44 16,62 4,79 -5,7 -4,12 3,12 8,0 6,6 -4,16 -9,9 -14,22 -12,28 7,18 -46,61 -78,63 -21,1 -37,-6 -53,-24 z m 74,-15 c 21,-34 22,-185 1,-205 -11,-11 -16,-10 -33,8 -15,17 -18,34 -17,92 1,59 5,90 12,115 3,7 31,0 37,-10 z m -156,-4 c 0,-1 -7,-10 -16,-18 -8,-9 -11,-16 -5,-16 27,0 8,-28 -21,-33 -33,-5 -54,2 -30,10 6,3 10,9 7,14 -11,17 14,47 40,47 14,0 25,-2 25,-4 z m 41,-71 c -3,-21 -6,-30 -9,-20 -2,9 -8,17 -13,17 -5,0 -4,9 3,20 19,30 25,24 19,-17 z m -107,-35 c -6,-9 -3,-9 9,1 21,17 51,7 43,-15 -3,-8 -2,-12 4,-9 14,9 12,-37 -3,-57 -18,-23 -52,-28 -51,-6 1,10 -2,15 -7,12 -5,-3 -10,3 -10,13 -3,36 6,73 16,73 4,0 3,-6 -1,-12 z"
       id="path3009" />
    <path
       inkscape:connector-curvature="0"
       d="m 4753,3582 c -9,-5 -13,-63 -14,-202 0,-107 0,-197 0,-200 1,-3 2,-68 2,-145 0,-77 3,-148 6,-157 5,-19 38,-24 48,-8 4,6 7,161 7,345 -1,361 -5,395 -49,367 z"
       id="path3011" />
    <path
       inkscape:connector-curvature="0"
       d="m 9810,3380 c -8,-5 -17,-7 -20,-5 -3,2 -11,-9 -17,-26 -7,-18 -8,-29 -1,-29 5,0 8,-10 6,-22 -2,-13 -8,-22 -14,-21 -6,1 -10,-9 -8,-24 3,-29 44,-67 57,-54 5,5 28,7 51,4 53,-5 78,16 52,43 -13,12 -14,19 -5,30 9,11 9,14 -1,14 -10,0 -10,3 0,15 10,12 10,15 0,15 -7,0 -10,6 -7,14 12,32 -59,67 -93,46 z m 49,-47 c 4,-2 -25,-33 -32,-33 -2,0 -4,13 -3,29 1,24 4,27 16,18 8,-6 17,-12 19,-14 z m -17,-85 c -10,-10 -15,-10 -22,2 -6,9 -5,17 3,22 18,11 33,-10 19,-24 z"
       id="path3013" />
    <path
       inkscape:connector-curvature="0"
       d="m 4960,3028 c -24,-26 -25,-32 -5,-48 12,-10 18,-10 30,0 9,7 14,19 11,27 -3,7 1,13 8,13 16,0 27,-22 18,-37 -4,-6 -24,-18 -45,-26 -79,-34 -52,-85 44,-84 58,0 97,19 73,35 -6,4 -10,17 -11,30 0,12 -1,35 -2,51 0,16 -8,37 -17,45 -23,24 -79,20 -104,-6 z m 63,-99 c -4,-15 -9,-17 -17,-9 -8,8 -7,13 4,20 8,5 16,10 17,10 0,0 -1,-9 -4,-21 z"
       id="path3015" />
    <path
       inkscape:connector-curvature="0"
       d="m 9073,3043 c 3,-4 -68,-7 -156,-7 l -162,1 -29,-28 c -17,-16 -36,-29 -44,-29 -7,0 -20,-7 -29,-16 -9,-8 -22,-13 -30,-10 -8,3 -12,2 -9,-3 3,-4 -6,-13 -20,-20 -36,-16 -25,-35 23,-39 27,-2 44,2 53,13 7,8 21,15 31,15 11,0 19,4 19,9 0,5 15,16 33,24 27,13 82,15 372,13 187,-1 348,2 358,6 24,12 21,47 -5,57 -13,5 -102,8 -198,6 -96,-1 -183,3 -194,8 -10,5 -16,5 -13,0 z"
       id="path3017" />
    <path
       inkscape:connector-curvature="0"
       d="m 10060,3043 c 0,-9 -44,-12 -175,-10 l -176,2 -6,-24 c -10,-40 13,-47 151,-46 72,1 122,-3 119,-8 -3,-5 3,-5 13,1 16,8 486,9 1233,2 l 44,0 -22,-24 c -45,-48 0,-55 80,-14 55,28 86,65 73,86 -6,9 -22,18 -35,19 -13,1 -307,3 -654,4 -466,0 -632,4 -637,12 -6,9 -8,9 -8,0 z"
       id="path3019" />
    <path
       inkscape:connector-curvature="0"
       d="m 5653,2862 c -20,-3 -28,-18 -24,-44 0,-4 -312,-7 -694,-7 -510,1 -698,-1 -709,-10 -17,-14 -18,-57 -1,-71 8,-7 231,-11 671,-12 363,-1 675,-5 694,-8 22,-3 35,-11 35,-20 1,-38 14,-38 113,-3 53,19 113,39 132,45 19,5 41,16 49,23 12,12 5,18 -44,39 -31,14 -63,26 -70,26 -6,0 -15,3 -19,7 -4,4 -13,8 -19,8 -18,1 -71,17 -82,24 -5,4 -20,5 -32,3 z"
       id="path3021" />
    <path
       inkscape:connector-curvature="0"
       d="m 8336,2772 c -39,-19 -83,-44 -98,-54 -16,-11 -34,-16 -40,-12 -7,4 -10,4 -6,-1 7,-7 -18,-27 -77,-61 -64,-36 -95,-54 -141,-82 -28,-18 -54,-32 -58,-32 -4,0 -22,-11 -40,-25 -18,-14 -37,-25 -43,-25 -5,0 -20,-11 -33,-25 -13,-14 -26,-23 -28,-20 -3,2 -17,-3 -31,-13 -40,-26 -63,-40 -96,-58 -40,-22 -75,-55 -75,-70 0,-19 25,-23 145,-24 61,0 152,-1 203,-3 50,-1 92,0 92,3 0,3 28,4 62,3 35,-2 413,-3 841,-4 562,-1 777,-5 777,-13 0,-8 2,-8 8,0 9,14 342,13 335,-1 -3,-5 0,-4 8,3 7,6 17,12 22,12 4,0 5,-6 1,-12 -6,-10 -4,-10 7,0 7,6 17,12 22,12 4,0 5,-6 1,-12 -6,-10 -4,-10 7,0 16,15 105,16 115,1 4,-8 9,-7 15,2 8,12 11,11 19,-1 5,-8 10,-10 10,-5 0,6 41,9 107,8 l 106,-1 46,44 c 25,24 51,44 56,44 6,0 24,13 41,29 17,16 44,35 60,44 16,8 42,29 58,46 17,17 35,31 42,31 7,0 14,4 16,8 3,7 45,41 153,124 16,13 31,22 32,20 2,-1 10,3 17,10 45,43 104,91 126,101 37,19 32,41 -10,45 -27,2 -43,-4 -70,-28 -19,-16 -40,-30 -45,-30 -6,0 -29,-18 -50,-40 -21,-22 -44,-40 -50,-40 -7,0 -31,-18 -56,-40 -24,-22 -47,-40 -51,-40 -4,0 -30,-19 -57,-42 -68,-58 -149,-118 -159,-118 -4,0 -28,-20 -52,-45 -24,-24 -47,-42 -52,-39 -5,3 -14,1 -21,-4 -15,-12 -1876,-10 -1896,2 -9,6 -12,5 -7,-2 8,-14 -34,-12 -53,2 -11,8 -13,8 -8,-1 7,-10 -34,-11 -698,-4 l -50,1 54,35 c 29,19 54,35 56,35 2,0 33,20 69,45 37,25 72,45 80,45 7,0 21,9 31,20 10,11 26,20 35,20 9,0 25,9 35,20 10,11 27,22 39,26 11,4 34,17 49,30 16,13 34,24 42,24 7,0 18,7 25,15 7,9 15,13 18,11 2,-3 19,6 37,19 17,14 36,25 42,25 5,0 18,9 28,20 11,12 25,18 34,15 8,-3 12,-3 8,1 -4,4 3,12 15,18 31,16 33,33 2,39 -17,3 -49,-7 -98,-31 z"
       id="path3023" />
    <path
       inkscape:connector-curvature="0"
       d="m 4755,2640 c -6,-10 -8,-442 -2,-500 1,-19 8,-25 27,-25 l 25,0 1,255 c 1,152 -3,260 -9,268 -12,15 -33,16 -42,2 z"
       id="path3025" />
    <path
       inkscape:connector-curvature="0"
       d="m 17493,677 c -32,-14 -46,-53 -31,-85 11,-22 21,-27 55,-30 45,-3 60,11 57,53 0,11 -2,30 -3,41 -1,25 -44,36 -78,21 z m 40,-63 c -4,-10 -10,-11 -25,-3 -15,8 -17,13 -7,25 14,18 41,0 32,-22 z"
       id="path3027" />
    <path
       inkscape:connector-curvature="0"
       d="m 3517,664 c -4,-4 -2,-12 3,-19 9,-11 10,-25 10,-102 0,-18 0,-40 0,-48 0,-46 -5,-75 -12,-75 -4,0 -8,-8 -8,-17 0,-15 9,-18 49,-18 l 49,0 -18,22 c -10,14 -16,33 -13,50 2,15 4,33 3,38 -5,62 -5,117 0,120 4,2 6,14 5,27 -1,18 -8,24 -31,26 -16,2 -33,0 -37,-4 z"
       id="path3029" />
    <path
       inkscape:connector-curvature="0"
       d="m 8883,654 c -17,-17 -16,-24 1,-24 21,0 24,-16 21,-115 -3,-123 -4,-127 -15,-120 -9,6 -13,-6 -7,-22 3,-10 77,-11 83,-1 3,5 1,15 -6,22 -7,9 -10,54 -7,130 4,120 -3,146 -37,133 -8,-3 -16,-2 -18,3 -2,4 -9,2 -15,-6 z"
       id="path3031" />
    <path
       inkscape:connector-curvature="0"
       d="m 14955,654 c 26,-19 41,-217 18,-240 -17,-17 -1,-28 44,-29 35,-1 44,16 21,39 -9,9 -13,48 -12,130 l 0,117 -44,-3 c -37,-1 -41,-4 -27,-14 z"
       id="path3033" />
    <path
       inkscape:connector-curvature="0"
       d="m 18525,656 c -21,-16 -85,-22 -85,-8 0,5 -10,8 -22,7 -21,-2 -23,-7 -23,-66 l 0,-64 36,0 c 42,0 69,-19 69,-49 0,-19 -20,-61 -20,-43 0,5 -7,2 -15,-7 -23,-23 -45,-9 -41,24 4,31 -14,46 -33,27 -42,-42 35,-116 87,-83 7,4 12,2 12,-4 0,-6 15,5 34,26 19,21 32,45 31,58 -1,11 -3,27 -4,34 -2,22 -40,52 -66,52 -14,0 -25,5 -25,11 0,6 -7,3 -16,-5 -21,-21 -24,-20 -24,7 0,21 4,23 44,21 35,-2 49,2 66,21 12,13 20,31 18,40 -3,14 -5,14 -23,1 z"
       id="path3035" />
    <path
       inkscape:connector-curvature="0"
       d="m 14917,654 c -3,-3 -48,-7 -99,-8 -51,0 -92,-4 -90,-8 1,-5 2,-13 2,-19 0,-6 6,-9 13,-6 9,3 12,-20 12,-96 0,-94 -1,-100 -22,-108 -13,-5 -23,-11 -23,-14 0,-4 5,-3 10,0 6,3 10,2 10,-4 0,-6 7,-8 15,-5 9,4 15,0 15,-7 0,-10 2,-11 8,-2 8,12 36,12 48,0 4,-4 15,3 25,15 22,25 23,29 7,23 -7,-3 -20,0 -28,5 -12,8 -13,11 -1,19 11,7 11,9 0,14 -12,4 -11,7 1,16 10,7 11,11 3,11 -7,0 -13,5 -13,11 0,6 7,8 16,5 8,-3 12,-2 9,4 -3,6 -2,10 3,10 10,0 26,-29 24,-42 -3,-13 18,-9 24,5 2,7 6,37 8,67 l 3,54 -26,-31 c -33,-39 -56,-31 -57,20 -1,36 8,48 21,27 5,-8 11,-7 21,1 20,16 68,-5 60,-26 -3,-8 -1,-15 4,-15 6,0 13,-1 17,-2 14,-5 13,69 0,81 -8,6 -17,8 -20,5 z"
       id="path3037" />
    <path
       inkscape:connector-curvature="0"
       d="m 17111,626 c -47,-48 -58,-146 -22,-190 7,-8 9,-21 5,-27 -4,-7 -3,-9 3,-6 6,4 27,0 47,-8 20,-8 36,-11 36,-6 0,5 13,14 28,20 15,6 29,19 30,29 6,51 22,85 22,46 0,-36 24,-72 59,-89 34,-16 34,-16 66,15 17,17 33,28 36,26 6,-6 8,17 9,97 0,44 -5,64 -21,87 -24,32 -72,48 -93,31 -7,-6 -15,-9 -18,-6 -3,3 -13,-14 -24,-37 -20,-45 -21,-47 -23,-79 -1,-19 -3,-18 -24,7 -23,26 -72,40 -83,23 -11,-19 -25,-9 -14,11 6,11 8,20 4,20 -4,0 1,9 11,20 26,28 50,26 53,-6 3,-37 11,-47 28,-33 33,27 0,79 -54,85 -22,2 -36,-5 -61,-30 z m 267,-50 c 4,-28 4,-67 -1,-106 -4,-30 -23,-51 -40,-44 -42,16 -45,151 -5,194 20,21 22,21 31,4 6,-10 12,-31 15,-48 z m -184,-62 c 11,-30 6,-58 -16,-81 l -21,-23 -19,22 c -21,24 -22,36 -8,72 11,30 54,36 64,10 z"
       id="path3039" />
    <path
       inkscape:connector-curvature="0"
       d="m 18136,639 c -13,-10 -25,-16 -28,-14 -2,2 -4,-4 -5,-13 -2,-26 -8,-51 -15,-57 -3,-3 -2,-25 2,-48 5,-23 6,-45 4,-49 -3,-5 0,-8 7,-8 7,0 9,-3 6,-6 -4,-4 6,-18 21,-31 44,-38 116,-23 131,28 3,8 6,46 7,85 3,67 1,73 -25,98 -35,34 -74,39 -105,15 z m 76,-43 c 3,-12 1,-33 -4,-45 -4,-12 -4,-20 0,-17 5,3 9,-15 9,-40 1,-24 -3,-47 -8,-50 -5,-3 -7,-10 -4,-15 3,-5 -2,-6 -11,-2 -12,4 -15,3 -10,-5 10,-16 -9,-15 -21,1 -11,13 -12,19 -18,95 -3,39 0,52 8,49 7,-3 13,3 13,13 0,10 -5,16 -10,13 -9,-6 -1,12 17,35 13,16 33,0 39,-32 z"
       id="path3041" />
    <path
       inkscape:connector-curvature="0"
       d="m 3283,636 c -3,-5 2,-15 11,-21 26,-20 20,-180 -8,-206 -11,-11 -18,-19 -15,-20 2,-1 30,-2 62,-4 56,-2 88,11 50,21 -14,4 -19,16 -21,53 -1,43 0,47 20,46 12,-1 25,-11 30,-24 13,-35 28,-14 28,40 0,37 -4,49 -15,49 -8,0 -15,-7 -15,-15 0,-8 -3,-15 -7,-16 -5,0 -16,-2 -26,-4 -15,-3 -18,3 -15,38 3,41 4,42 41,43 37,1 60,-12 70,-38 3,-10 8,-10 16,-2 13,12 22,63 12,65 -32,6 -214,2 -218,-5 z"
       id="path3043" />
    <path
       inkscape:connector-curvature="0"
       d="m 9985,633 c -29,-8 -52,-39 -60,-81 -4,-20 -12,-43 -18,-51 -10,-12 -9,-13 2,-7 10,7 12,3 6,-13 -4,-12 -2,-28 5,-36 6,-8 8,-20 4,-26 -4,-8 -3,-9 4,-5 7,4 12,3 12,-2 0,-5 12,-22 26,-38 15,-16 23,-24 20,-17 -4,8 2,11 21,9 26,-2 49,15 81,59 14,20 22,125 9,125 -5,0 -4,7 3,15 11,13 10,14 -4,9 -13,-5 -23,8 -13,19 4,5 -27,34 -38,34 -5,0 -17,3 -25,6 -8,2 -24,2 -35,0 z m 53,-61 c 8,-14 9,-117 2,-132 -3,-7 -7,-22 -8,-37 -2,-15 -32,-5 -49,16 -19,24 -17,136 2,151 9,7 14,19 11,27 -8,20 31,-3 42,-25 z"
       id="path3045" />
    <path
       inkscape:connector-curvature="0"
       d="m 8656,621 c -3,-5 0,-11 6,-13 9,-3 13,-33 14,-101 1,-63 -2,-94 -9,-90 -6,4 -7,1 -3,-6 5,-7 0,-18 -10,-26 -17,-13 -12,-14 49,-15 37,0 67,3 67,7 0,3 -7,15 -17,25 -12,14 -13,18 -3,18 11,0 11,3 2,12 -7,7 -12,22 -12,34 0,16 6,21 23,20 14,-1 22,-7 21,-19 -2,-16 3,-19 24,-16 11,2 13,109 2,109 -19,0 -25,-5 -25,-20 0,-8 -10,-16 -23,-18 -21,-3 -23,0 -20,35 2,31 7,39 27,41 34,5 68,-6 75,-23 4,-11 2,-14 -6,-9 -7,4 -8,3 -4,-4 10,-17 36,-15 37,3 5,65 14,60 -103,63 -60,1 -109,-2 -112,-7 z"
       id="path3047" />
    <path
       inkscape:connector-curvature="0"
       d="m 15721,612 c -1,-10 -20,-12 -81,-10 -71,4 -81,2 -86,-15 -3,-10 -4,-21 -1,-24 3,-2 66,-6 140,-6 120,-2 137,0 146,16 17,26 7,33 -38,31 -23,-1 -41,3 -41,9 0,5 -6,5 -14,-2 -11,-9 -15,-9 -19,1 -4,10 -6,10 -6,0 z"
       id="path3049" />
    <path
       inkscape:connector-curvature="0"
       d="m 17725,602 c -56,-4 -76,-15 -57,-34 16,-16 280,-18 286,-2 13,35 -59,46 -229,36 z"
       id="path3051" />
    <path
       inkscape:connector-curvature="0"
       d="m 4127,592 c -9,-2 -17,-12 -17,-23 0,-19 7,-21 85,-21 173,0 205,2 205,16 0,8 -5,18 -11,22 -11,6 -232,12 -262,6 z"
       id="path3053" />
    <path
       inkscape:connector-curvature="0"
       d="m 9694,593 c 5,-10 -18,-13 -103,-13 -104,0 -111,-1 -111,-20 0,-11 5,-21 10,-21 6,-1 14,-2 19,-3 5,0 13,-4 17,-8 4,-4 13,-3 21,3 10,9 13,8 13,-1 0,-8 4,-9 13,-3 6,5 54,9 105,8 50,-1 92,1 93,4 0,3 2,16 4,27 4,19 0,21 -27,18 -17,-2 -38,2 -46,9 -13,9 -14,9 -8,0 z"
       id="path3055" />
    <path
       inkscape:connector-curvature="0"
       d="m 16274,578 c -3,-4 -14,-8 -25,-8 -10,0 -32,-14 -49,-31 -26,-27 -30,-40 -30,-85 0,-30 3,-54 8,-55 4,0 16,-2 27,-4 10,-2 25,1 32,6 8,7 18,7 32,0 17,-9 25,-6 50,21 29,31 30,33 11,36 -18,3 -20,8 -14,35 14,69 11,90 -14,92 -13,1 -25,-2 -28,-7 z m 6,-49 c 0,-10 -4,-19 -8,-19 -4,0 -8,-8 -9,-17 -3,-40 -11,-58 -26,-61 -27,-5 -31,25 -7,63 12,19 18,35 15,35 -4,0 -2,7 5,15 15,18 30,11 30,-16 z"
       id="path3057" />
    <path
       inkscape:connector-curvature="0"
       d="m 16670,581 c 0,-7 -6,-11 -15,-8 -8,4 -17,1 -21,-5 -4,-7 -3,-8 4,-4 7,4 12,2 12,-3 0,-10 -12,-15 -30,-13 -3,0 -6,-7 -7,-16 -1,-9 -4,-32 -7,-49 -3,-18 -1,-33 4,-33 6,0 10,-9 10,-19 0,-11 6,-23 13,-28 14,-9 118,-13 113,-4 -4,7 20,32 26,26 2,-2 4,20 6,49 2,38 -1,56 -12,66 -9,7 -14,15 -12,19 3,4 -4,8 -15,9 -10,1 -27,2 -36,3 -10,1 -21,7 -25,13 -5,7 -8,7 -8,-3 z m 48,-43 c 16,-16 15,-31 0,-22 -7,4 -5,-1 4,-12 17,-17 17,-19 0,-38 -9,-11 -11,-16 -4,-12 16,9 15,-4 -2,-26 -17,-23 -30,-23 -22,-2 5,14 4,15 -7,5 -12,-9 -17,-5 -27,18 -24,58 21,126 58,89 z"
       id="path3059" />
    <path
       inkscape:connector-curvature="0"
       d="m 16834,583 c 4,-8 2,-13 -6,-13 -8,0 -21,-9 -31,-20 -9,-11 -12,-20 -6,-20 5,0 7,-5 3,-11 -8,-13 46,-70 59,-62 6,3 7,1 3,-5 -3,-5 0,-12 6,-14 7,-3 0,-7 -15,-10 -20,-4 -27,-2 -23,7 5,14 -20,29 -28,17 -2,-4 -3,-18 -2,-32 1,-22 6,-25 41,-26 23,-1 47,5 58,14 21,19 22,55 2,72 -8,7 -12,17 -8,23 4,6 1,7 -6,3 -14,-9 -53,22 -45,35 9,15 34,10 34,-6 0,-8 7,-15 16,-15 11,0 14,8 12,28 -2,20 -8,26 -21,24 -10,-2 -26,3 -35,10 -12,10 -14,10 -8,1 z"
       id="path3061" />
    <path
       inkscape:connector-curvature="0"
       d="m 16024,548 c -30,-32 -42,-71 -20,-62 7,3 10,-11 10,-38 -1,-26 4,-48 12,-56 9,-8 14,-9 14,-2 0,6 5,8 13,3 23,-14 42,-8 75,25 27,27 32,40 32,80 0,50 -12,72 -41,72 -30,0 -32,-20 -5,-47 14,-14 26,-31 26,-37 0,-22 -58,-69 -76,-62 -11,4 -13,10 -6,19 5,6 10,19 10,27 0,8 2,34 5,57 2,23 1,40 -3,38 -5,-3 -10,0 -12,5 -2,6 -17,-4 -34,-22 z"
       id="path3063" />
    <path
       inkscape:connector-curvature="0"
       d="m 16485,561 c -31,-16 -36,-29 -39,-91 -1,-39 19,-70 46,-70 9,0 20,-5 23,-10 5,-8 11,-7 21,1 11,9 14,9 14,0 0,-7 13,0 29,16 21,20 26,31 18,41 -8,10 -13,8 -24,-8 -18,-25 -45,-26 -66,-2 -23,25 -21,64 3,90 25,27 40,28 40,4 0,-11 9,-27 20,-37 18,-17 19,-16 26,9 5,21 1,33 -17,52 -26,27 -51,29 -94,5 z"
       id="path3065" />
    <path
       inkscape:connector-curvature="0"
       d="m 18895,562 c -38,-32 -55,-66 -55,-109 0,-37 4,-45 26,-55 19,-9 30,-9 44,0 14,9 21,8 30,-4 11,-12 18,-9 47,22 25,26 31,39 22,45 -7,4 -19,5 -27,1 -11,-4 -13,-2 -7,8 5,8 10,26 12,40 9,67 10,64 -32,67 -26,2 -47,-3 -60,-15 z m 50,-41 c -4,-9 -11,-28 -15,-44 -9,-27 -32,-57 -46,-57 -11,0 5,80 22,105 17,27 50,23 39,-4 z"
       id="path3067" />
    <path
       inkscape:connector-curvature="0"
       d="m 3840,560 c 0,-6 -4,-8 -10,-5 -18,11 -11,-11 16,-50 25,-37 25,-38 7,-59 -47,-54 -48,-56 -15,-56 21,0 30,4 27,13 -3,6 0,19 5,27 9,13 11,13 20,0 5,-8 8,-20 6,-26 -5,-14 48,-24 66,-12 11,6 11,10 0,16 -17,11 -54,82 -43,82 5,0 11,9 14,20 3,11 11,19 19,18 7,-2 13,4 13,12 0,8 -9,15 -20,16 -22,0 -45,-14 -45,-28 0,-5 6,-6 13,-2 9,5 9,3 -1,-7 -11,-12 -14,-12 -22,1 -6,9 -5,17 2,21 7,4 7,9 -1,13 -6,4 -11,5 -11,1 0,-3 -9,-1 -20,5 -14,8 -20,8 -20,0 z"
       id="path3069" />
    <path
       inkscape:connector-curvature="0"
       d="m 15171,553 c -8,-9 -10,-18 -4,-22 13,-8 14,-94 1,-112 -7,-11 -11,-11 -15,-1 -2,6 -9,10 -14,6 -8,-5 -14,19 -9,41 7,31 6,54 -1,49 -5,-3 -9,6 -9,20 0,21 -4,24 -27,20 -16,-3 -33,-5 -40,-6 -15,-2 -6,-18 10,-18 8,0 12,-20 13,-56 0,-47 5,-59 29,-82 15,-15 25,-22 22,-16 -7,12 -6,12 118,17 65,2 70,4 71,25 1,12 4,25 7,28 8,8 27,-5 27,-17 0,-6 -4,-8 -8,-5 -4,2 -8,-3 -8,-13 0,-14 10,-18 49,-20 52,-2 53,0 13,46 -29,34 -29,59 0,87 15,13 24,28 21,33 -5,8 -15,9 -59,4 -4,-1 -5,-9 -2,-18 5,-16 4,-16 -10,1 -17,21 -72,31 -82,15 -3,-6 4,-20 16,-31 12,-11 19,-27 16,-35 -3,-8 -1,-11 4,-8 6,3 10,-1 10,-9 0,-9 -5,-16 -11,-16 -5,0 -8,-4 -4,-9 3,-5 -4,-12 -15,-16 -11,-3 -20,-11 -20,-17 0,-7 -5,-7 -14,1 -8,7 -13,28 -12,54 3,57 -12,101 -29,87 -8,-6 -14,-7 -17,-1 -1,5 -9,2 -17,-6 z"
       id="path3071" />
    <path
       inkscape:connector-curvature="0"
       d="m 18694,555 c -32,-13 -50,-40 -34,-50 6,-4 13,-4 18,-2 4,3 5,-15 4,-39 -5,-62 22,-86 80,-70 41,12 62,42 66,94 2,38 -1,52 -17,66 -11,10 -27,16 -36,12 -22,-8 -14,-42 8,-38 20,3 33,-21 21,-40 -5,-7 -9,-19 -10,-26 -4,-23 -24,-39 -48,-39 -25,0 -25,-1 -11,88 4,26 3,49 -2,52 -4,3 -22,-1 -39,-8 z"
       id="path3073" />
    <path
       inkscape:connector-curvature="0"
       d="m 3618,553 c -16,-4 -16,-6 -2,-29 13,-19 14,-24 3,-24 -9,0 -10,-3 -4,-8 6,-4 10,-20 10,-37 -1,-32 48,-90 67,-79 5,3 23,8 40,11 21,3 28,1 23,-7 -4,-7 5,-4 20,6 15,10 23,20 16,22 -6,2 -11,8 -11,13 0,6 6,7 13,3 9,-6 9,-5 0,7 -6,8 -13,37 -15,64 -3,52 -18,65 -56,50 -14,-5 -14,-8 -2,-15 20,-12 22,-96 3,-116 -14,-13 -17,-13 -34,2 -22,19 -25,44 -6,44 8,0 8,3 -2,9 -9,6 -12,19 -8,40 5,24 2,33 -13,41 -10,5 -20,9 -22,9 -2,-1 -11,-3 -20,-6 z"
       id="path3075" />
    <path
       inkscape:connector-curvature="0"
       d="m 4581,534 c -30,-25 -41,-54 -21,-54 6,0 9,-15 7,-35 -4,-29 1,-40 21,-55 34,-28 70,-19 110,27 18,21 32,31 31,23 -6,-52 28,-80 65,-54 17,11 21,11 32,-4 11,-16 13,-16 31,1 11,9 22,16 24,15 2,-2 3,-1 2,1 -1,2 3,13 9,25 10,19 9,19 -4,8 -11,-9 -18,-10 -23,-2 -3,5 -3,10 2,10 4,0 8,10 9,23 0,12 4,40 9,61 l 8,39 -53,-6 c -57,-7 -100,-36 -100,-69 0,-10 -5,-18 -12,-18 -6,0 -9,3 -5,6 10,10 -14,64 -33,74 -13,7 -21,5 -30,-5 -15,-18 -5,-35 20,-35 30,0 19,-58 -15,-88 -48,-41 -55,-26 -40,79 8,58 -4,67 -44,33 z m 253,-31 c -15,-71 -26,-93 -45,-93 -12,0 -19,7 -19,20 0,25 21,70 32,70 5,0 7,4 4,9 -6,8 8,18 27,20 4,1 5,-11 1,-26 z"
       id="path3077" />
    <path
       inkscape:connector-curvature="0"
       d="m 9193,527 c -10,-11 -13,-18 -8,-15 6,3 16,0 23,-8 7,-8 10,-14 7,-14 -4,0 1,-7 9,-16 22,-21 21,-26 -14,-59 -16,-16 -30,-23 -30,-16 0,7 -4,9 -10,6 -10,-6 -11,-1 -14,72 -1,48 -7,56 -43,61 -23,3 -25,0 -19,-20 24,-78 17,-125 -18,-125 -23,0 -24,2 -24,62 1,75 -4,85 -40,80 -15,-2 -31,-4 -36,-4 -5,-1 -2,-9 6,-18 9,-11 15,-35 14,-58 -1,-33 4,-46 31,-73 28,-28 36,-31 54,-22 15,9 24,8 37,-2 11,-9 14,-10 8,0 -4,7 -1,12 8,12 9,0 16,-6 16,-12 0,-9 3,-8 10,2 5,9 22,13 44,12 29,-2 35,1 38,20 3,26 23,22 22,-4 0,-10 4,-19 10,-19 6,-1 18,-2 26,-3 21,-2 54,15 44,23 -5,3 -19,20 -31,38 -19,27 -21,36 -12,57 7,14 15,23 19,21 4,-3 13,2 20,9 9,12 7,17 -9,25 -28,16 -51,3 -51,-28 -1,-22 -2,-24 -11,-8 -5,9 -7,22 -4,27 3,6 3,10 -2,11 -4,0 -18,2 -30,3 -13,2 -31,-6 -40,-17 z"
       id="path3079" />
    <path
       inkscape:connector-curvature="0"
       d="m 17712,515 c -6,-8 -19,-12 -27,-9 -22,9 -31,-24 -11,-39 10,-7 34,-12 54,-11 20,1 81,3 134,3 96,1 97,1 89,23 -7,20 -14,21 -118,22 -87,0 -110,3 -106,13 7,17 1,16 -15,-2 z"
       id="path3081" />
    <path
       inkscape:connector-curvature="0"
       d="m 15559,507 c 0,-1 -2,-12 -5,-24 -4,-22 -1,-23 66,-24 106,-1 139,-1 148,1 4,1 18,1 32,1 24,-2 76,37 54,40 -15,2 -294,7 -295,6 z"
       id="path3083" />
    <path
       inkscape:connector-curvature="0"
       d="m 4106,484 c -9,-24 26,-31 155,-33 102,-2 128,1 139,13 18,23 5,25 -152,29 -107,3 -138,1 -142,-9 z"
       id="path3085" />
    <path
       inkscape:connector-curvature="0"
       d="m 9518,482 c -39,-3 -50,-20 -25,-39 6,-6 53,-9 104,-8 55,1 90,-2 86,-8 -3,-5 3,-4 14,1 12,7 24,7 37,0 14,-8 17,-7 12,1 -4,6 -1,11 8,11 20,0 31,19 17,33 -10,10 -171,16 -253,9 z"
       id="path3087" />
    <path
       inkscape:connector-curvature="0"
       d="m 18318,442 c -24,-5 -23,-39 2,-52 16,-9 22,-8 26,5 9,23 -8,52 -28,47 z"
       id="path3089" />
    <path
       inkscape:connector-curvature="0"
       d="m 10042,3 c 10,-2 28,-2 40,0 13,2 5,4 -17,4 -22,1 -32,-1 -23,-4 z"
       id="path3091" />
    <path
       inkscape:connector-curvature="0"
       d="m 16433,3 c 9,-2 25,-2 35,0 9,3 1,5 -18,5 -19,0 -27,-2 -17,-5 z"
       id="path3093" />
  </g>
  <rect
     style="fill:#b9b9b9;fill-opacity:1;stroke:none"
     id="rect3267"
     width="21.432049"
     height="22.267063"
     x="10.576855"
     y="35.986355"
     transform="matrix(0.79999998,0,0,0.79999998,0,-1.3209101e-6)" />
  <rect
     style="fill:#b9b9b9;fill-opacity:1;stroke:none"
     id="rect3269"
     width="33.957272"
     height="28.112167"
     x="0"
     y="72.727005"
     transform="matrix(0.79999998,0,0,0.79999998,0,-1.3209101e-6)" />
  <rect
     style="fill:#b9b9b9;fill-opacity:1;stroke:none"
     id="rect3271"
     width="26.163799"
     height="20.875372"
     x="6.958457"
     y="123.94125"
     transform="matrix(0.79999998,0,0,0.79999998,0,-1.3209101e-6)" />
  <g
     id="g3366"
     transform="translate(0.89068249,-24.048427)">
    <rect
       transform="matrix(0.79999998,0,0,0.79999998,0,-1.3209101e-6)"
       y="155.95015"
       x="96.305046"
       height="10.576855"
       width="50.100891"
       id="rect3321"
       style="fill:#b9b9b9;fill-opacity:1;stroke:none" />
    <text
       transform="matrix(0.79999998,0,0,0.79999998,0,-1.3209101e-6)"
       sodipodi:linespacing="125%"
       id="text3273"
       y="164.85698"
       x="100.48012"
       style="font-size:10.80000019000000044px;font-style:normal;font-variant:normal;font-weight:bold;font-stretch:normal;line-height:125%;letter-spacing:0px;word-spacing:0px;fill:#000000;fill-opacity:1;stroke:none;font-family:Liberation Serif;-inkscape-font-specification:Liberation Serif Bold"
       xml:space="preserve"><tspan
         y="164.85698"
         x="100.48012"
         id="tspan3275"
         sodipodi:role="line">Flux = <tspan
   id="tspan3305"
   style="font-style:italic;-inkscape-font-specification:Liberation Serif Bold Italic">va</tspan></tspan></text>
  </g>
  <rect
     style="fill:#b9b9b9;fill-opacity:1;stroke:none"
     id="rect3325"
     width="36.639378"
     height="9.3521652"
     x="206.51694"
     y="100.26635" />
  <text
     xml:space="preserve"
     style="font-size:8.64000034000000028px;font-style:normal;font-variant:normal;font-weight:bold;font-stretch:normal;line-height:125%;letter-spacing:0px;word-spacing:0px;fill:#000000;fill-opacity:1;stroke:none;font-family:Linux Libertine O;-inkscape-font-specification:Linux Libertine O Bold"
     x="211.09177"
     y="108.28249"
     id="text3277"
     sodipodi:linespacing="125%"><tspan
       sodipodi:role="line"
       id="tspan3279"
       x="211.09177"
       y="108.28249">Flux = 0</tspan></text>
  <rect
     style="fill:#b9b9b9;fill-opacity:1;stroke:none"
     id="rect3327"
     width="106.93273"
     height="8.9068251"
     x="351.81958"
     y="101.15703" />
  <text
     xml:space="preserve"
     style="font-size:8.64000034000000028px;font-style:normal;font-variant:normal;font-weight:bold;font-stretch:normal;line-height:125%;letter-spacing:0px;word-spacing:0px;fill:#000000;fill-opacity:1;stroke:none;font-family:Linux Libertine O;-inkscape-font-specification:Linux Libertine O Bold"
     x="354.93695"
     y="108.28249"
     id="text3281"
     sodipodi:linespacing="125%"><tspan
       sodipodi:role="line"
       id="tspan3283"
       x="354.93695"
       y="108.28249">Flux = <tspan
   style="font-style:normal;-inkscape-font-specification:Linux Libertine O Bold;font-family:Linux Libertine O;font-weight:bold;font-stretch:normal;font-variant:normal"
   id="tspan3307">va</tspan> cos 60 = 0.5 <tspan
   style="font-style:normal;-inkscape-font-specification:Linux Libertine O Bold;font-family:Linux Libertine O;font-weight:bold;font-stretch:normal;font-variant:normal"
   id="tspan3309">va</tspan></tspan></text>
  <g
     id="g3329"
     transform="translate(-1.781365,55.222315)">
    <rect
       transform="matrix(0.79999998,0,0,0.79999998,0,-1.3209101e-6)"
       y="-18.846289"
       x="146.96262"
       height="11.690207"
       width="8.3501482"
       id="rect3311"
       style="fill:#b9b9b9;fill-opacity:1;stroke:none" />
    <text
       transform="matrix(0.79999998,0,0,0.79999998,0,-1.3209101e-6)"
       sodipodi:linespacing="125%"
       id="text3285"
       y="-10.496139"
       x="148.63264"
       style="font-size:11.30000019000000044px;font-style:normal;font-variant:normal;font-weight:bold;font-stretch:normal;line-height:125%;letter-spacing:0px;word-spacing:0px;fill:#000000;fill-opacity:1;stroke:none;font-family:Liberation Serif;-inkscape-font-specification:Liberation Serif Bold"
       xml:space="preserve"><tspan
         y="-10.496139"
         x="148.63264"
         id="tspan3287"
         sodipodi:role="line">a</tspan></text>
  </g>
  <g
     id="g3334"
     transform="translate(2.6720475,52.104926)">
    <rect
       transform="matrix(0.79999998,0,0,0.79999998,0,-1.3209101e-6)"
       y="-21.629671"
       x="287.24512"
       height="11.133532"
       width="11.690207"
       id="rect3313"
       style="fill:#b9b9b9;fill-opacity:1;stroke:none" />
    <text
       transform="matrix(0.79999998,0,0,0.79999998,0,-1.3209101e-6)"
       sodipodi:linespacing="125%"
       id="text3289"
       y="-13.836199"
       x="290.58517"
       style="font-size:11.30000019000000044px;font-style:normal;font-variant:normal;font-weight:bold;font-stretch:normal;line-height:125%;letter-spacing:0px;word-spacing:0px;fill:#000000;fill-opacity:1;stroke:none;font-family:Liberation Serif;-inkscape-font-specification:Liberation Serif Bold"
       xml:space="preserve"><tspan
         y="-13.836199"
         x="290.58517"
         id="tspan3291"
         sodipodi:role="line">a</tspan></text>
  </g>
  <g
     id="g3339"
     transform="translate(-1.781365,35.6273)">
    <rect
       transform="matrix(0.79999998,0,0,0.79999998,0,-1.3209101e-6)"
       y="-20.516317"
       x="380.76678"
       height="11.133532"
       width="9.4635019"
       id="rect3315"
       style="fill:#b9b9b9;fill-opacity:1;stroke:none" />
    <text
       transform="matrix(0.79999998,0,0,0.79999998,0,-1.3209101e-6)"
       sodipodi:linespacing="125%"
       id="text3293"
       y="-12.722846"
       x="381.88013"
       style="font-size:11.30000019000000044px;font-style:normal;font-variant:normal;font-weight:bold;font-stretch:normal;line-height:125%;letter-spacing:0px;word-spacing:0px;fill:#000000;fill-opacity:1;stroke:none;font-family:Liberation Serif;-inkscape-font-specification:Liberation Serif Bold"
       xml:space="preserve"><tspan
         y="-12.722846"
         x="381.88013"
         id="tspan3295"
         sodipodi:role="line">v</tspan></text>
  </g>
  <g
     id="g3344"
     transform="translate(-3.1173887,32.06457)">
    <rect
       transform="matrix(0.79999998,0,0,0.79999998,0,-1.3209101e-6)"
       y="-15.506228"
       x="507.68903"
       height="12.246884"
       width="9.4635019"
       id="rect3317"
       style="fill:#b9b9b9;fill-opacity:1;stroke:none" />
    <text
       transform="matrix(0.79999998,0,0,0.79999998,0,-1.3209101e-6)"
       sodipodi:linespacing="125%"
       id="text3297"
       y="-6.0427265"
       x="510.47241"
       style="font-size:11.30000019000000044px;font-style:normal;font-variant:normal;font-weight:bold;font-stretch:normal;line-height:125%;letter-spacing:0px;word-spacing:0px;fill:#000000;fill-opacity:1;stroke:none;font-family:Liberation Serif;-inkscape-font-specification:Liberation Serif Bold"
       xml:space="preserve"><tspan
         y="-6.0427265"
         x="510.47241"
         id="tspan3299"
         sodipodi:role="line">a</tspan></text>
  </g>
  <g
     id="g3349"
     transform="translate(-4.4534125,42.307418)">
    <rect
       transform="matrix(0.79999998,0,0,0.79999998,0,-1.3209101e-6)"
       y="-19.959641"
       x="539.41962"
       height="12.246884"
       width="19.483681"
       id="rect3319"
       style="fill:#b9b9b9;fill-opacity:1;stroke:none" />
    <text
       transform="matrix(0.79999998,0,0,0.79999998,0,-1.3209101e-6)"
       sodipodi:linespacing="125%"
       id="text3301"
       y="-10.496139"
       x="541.0896"
       style="font-size:10.80000019000000044px;font-style:normal;font-variant:normal;font-weight:bold;font-stretch:normal;line-height:125%;letter-spacing:0px;word-spacing:0px;fill:#000000;fill-opacity:1;stroke:none;font-family:Liberation Serif;-inkscape-font-specification:Liberation Serif Bold"
       xml:space="preserve"><tspan
         y="-10.496139"
         x="541.0896"
         id="tspan3303"
         sodipodi:role="line">60</tspan></text>
  </g>
</svg>
