<?xml version="1.0" encoding="UTF-8" standalone="no"?>
<svg
   xmlns:dc="http://purl.org/dc/elements/1.1/"
   xmlns:cc="http://creativecommons.org/ns#"
   xmlns:rdf="http://www.w3.org/1999/02/22-rdf-syntax-ns#"
   xmlns:svg="http://www.w3.org/2000/svg"
   xmlns="http://www.w3.org/2000/svg"
   xmlns:xlink="http://www.w3.org/1999/xlink"
   xmlns:sodipodi="http://sodipodi.sourceforge.net/DTD/sodipodi-0.dtd"
   xmlns:inkscape="http://www.inkscape.org/namespaces/inkscape"
   version="1.0"
   width="172.800000pt"
   height="147.840000pt"
   viewBox="0 0 172.800000 147.840000"
   preserveAspectRatio="xMidYMid meet"
   id="svg3021"
   sodipodi:docname="line-charge-by-gauss.svg">
  <defs
     id="defs3115">
    <marker
       inkscape:stockid="Arrow2Mstart"
       orient="auto"
       refY="0.0"
       refX="0.0"
       id="Arrow2Mstart"
       style="overflow:visible">
      <path
         id="path3945"
         style="fill-rule:evenodd;stroke-width:0.62500000;stroke-linejoin:round"
         d="M 8.7185878,4.0337352 L -2.2072895,0.016013256 L 8.7185884,-4.0017078 C 6.9730900,-1.6296469 6.9831476,1.6157441 8.7185878,4.0337352 z "
         transform="scale(0.6) translate(0,0)" />
    </marker>
    <marker
       inkscape:stockid="Arrow2Mend"
       orient="auto"
       refY="0.0"
       refX="0.0"
       id="Arrow2Mend"
       style="overflow:visible;">
      <path
         id="path3948"
         style="fill-rule:evenodd;stroke-width:0.62500000;stroke-linejoin:round;"
         d="M 8.7185878,4.0337352 L -2.2072895,0.016013256 L 8.7185884,-4.0017078 C 6.9730900,-1.6296469 6.9831476,1.6157441 8.7185878,4.0337352 z "
         transform="scale(0.6) rotate(180) translate(0,0)" />
    </marker>
  </defs>
  <sodipodi:namedview
     pagecolor="#ffffff"
     bordercolor="#666666"
     borderopacity="1"
     objecttolerance="10"
     gridtolerance="10"
     guidetolerance="10"
     inkscape:pageopacity="0"
     inkscape:pageshadow="2"
     inkscape:window-width="1280"
     inkscape:window-height="996"
     id="namedview3113"
     showgrid="false"
     inkscape:zoom="1.5494769"
     inkscape:cx="166.43784"
     inkscape:cy="158.58237"
     inkscape:window-x="0"
     inkscape:window-y="0"
     inkscape:window-maximized="1"
     inkscape:current-layer="svg3021" />
  <metadata
     id="metadata3023">
Created by potrace 1.10, written by Peter Selinger 2001-2011
<rdf:RDF>
  <cc:Work
     rdf:about="">
    <dc:format>image/svg+xml</dc:format>
    <dc:type
       rdf:resource="http://purl.org/dc/dcmitype/StillImage" />
    <dc:title></dc:title>
  </cc:Work>
</rdf:RDF>
</metadata>
  <g
     id="g4952"
     transform="translate(-6.1183533,0)">
    <image
       y="-0.048513487"
       x="-0.056703188"
       id="image3125"
       xlink:href="line-charge-by-gauss-shaded.jpg"
       height="147.93703"
       width="172.91341" />
    <g
       id="g3025"
       transform="matrix(0.024,0,0,-0.024,0,147.84)"
       style="fill:#000000;stroke:none">
      <path
         id="path3027"
         d="m 5453,5489 c -32,-9 -37,-32 -9,-42 13,-5 68,38 59,47 -7,7 -8,7 -50,-5 z"
         inkscape:connector-curvature="0" />
      <path
         id="path3029"
         d="m 3691,4498 c -7,-51 -15,-105 -18,-120 -5,-24 -2,-28 16,-28 12,0 19,4 16,10 -5,8 18,169 31,213 4,12 0,17 -13,17 -16,0 -21,-13 -32,-92 z"
         inkscape:connector-curvature="0" />
      <path
         id="path3031"
         d="m 5195,4579 c -99,-10 -124,-21 -367,-164 -18,-10 -58,-33 -88,-50 -30,-18 -138,-81 -240,-142 -102,-61 -204,-121 -227,-134 -47,-27 -159,-93 -303,-179 -95,-57 -278,-165 -315,-186 -27,-15 -130,-77 -180,-107 -57,-34 -246,-145 -490,-287 -115,-67 -217,-128 -225,-136 -12,-12 -12,-14 7,-14 11,0 26,7 33,16 8,8 27,22 44,30 33,16 78,41 138,77 20,12 70,41 110,65 40,23 80,47 88,52 67,43 169,100 177,100 6,0 18,9 28,20 10,11 24,20 30,20 7,0 23,8 36,19 13,10 51,33 84,51 33,17 89,49 124,71 34,21 64,39 66,39 1,0 51,29 110,65 59,36 113,65 121,65 8,0 14,4 14,10 0,5 24,21 53,36 28,14 67,37 85,51 17,13 47,31 65,39 17,8 44,22 59,32 46,30 156,92 163,92 3,0 21,11 39,25 18,14 38,25 44,25 7,0 12,4 12,9 0,5 17,16 38,25 46,21 92,47 110,63 7,7 24,16 38,19 13,3 24,9 24,14 0,4 21,18 48,31 26,13 49,27 52,31 3,4 17,12 30,17 14,6 48,25 75,41 28,17 62,35 77,41 14,6 29,17 32,25 3,8 13,14 22,14 10,0 25,6 33,13 24,20 113,37 194,37 73,0 141,-15 211,-45 35,-15 164,-92 176,-105 3,-3 28,-23 55,-45 28,-22 78,-69 112,-104 34,-36 65,-63 68,-60 6,7 -135,152 -193,198 -82,66 -209,136 -297,163 -55,17 -129,23 -200,17 z"
         inkscape:connector-curvature="0" />
      <path
         id="path3033"
         d="m 3827,4382 c -19,-21 -22,-32 -7,-32 10,0 34,39 27,46 -2,2 -11,-4 -20,-14 z"
         inkscape:connector-curvature="0" />
      <path
         id="path3035"
         d="m 6665,4257 c -55,-32 -118,-69 -140,-82 -22,-12 -78,-45 -125,-72 -47,-28 -129,-76 -182,-107 -97,-57 -110,-69 -85,-79 15,-6 48,11 247,130 74,44 155,91 180,105 88,49 220,130 225,138 3,4 -1,12 -8,17 -8,7 -42,-8 -112,-50 z"
         inkscape:connector-curvature="0" />
      <path
         id="path3037"
         d="m 5900,4181 c 0,-6 33,-59 74,-118 40,-60 93,-147 116,-195 39,-80 60,-107 60,-76 0,15 -80,154 -137,238 -80,118 -113,162 -113,151 z"
         inkscape:connector-curvature="0" />
      <path
         id="path3039"
         d="m 2753,3908 c -48,-34 -42,-49 12,-29 30,10 45,22 45,33 0,24 -19,23 -57,-4 z"
         inkscape:connector-curvature="0" />
      <path
         id="path3041"
         d="m 2671,3848 c 0,-18 3,-26 6,-18 3,8 9,17 13,20 4,3 2,11 -6,18 -12,11 -14,8 -13,-20 z"
         inkscape:connector-curvature="0" />
      <path
         id="path3043"
         d="m 5933,3836 c -40,-22 -73,-47 -73,-53 0,-7 -9,-13 -20,-13 -19,0 -104,-44 -144,-75 -18,-13 -17,-45 2,-45 5,0 28,13 53,28 60,39 218,132 224,132 2,0 20,11 39,24 26,17 32,26 23,35 -16,16 -24,14 -104,-33 z"
         inkscape:connector-curvature="0" />
      <path
         id="path3045"
         d="m 6158,3754 c -4,-5 5,-37 19,-69 13,-33 29,-77 35,-97 6,-21 15,-38 20,-38 6,0 8,-12 5,-26 -2,-14 2,-31 10,-39 7,-8 16,-31 18,-52 3,-21 10,-60 16,-88 24,-110 18,-361 -11,-430 -4,-11 -13,-39 -20,-62 -7,-23 -21,-51 -32,-62 -10,-11 -18,-26 -18,-34 0,-7 -3,-17 -7,-23 -5,-5 1,0 11,11 32,34 78,146 92,225 30,170 7,426 -56,604 -44,124 -75,192 -82,180 z"
         inkscape:connector-curvature="0" />
      <path
         id="path3047"
         d="m 5585,3626 c -65,-40 -294,-172 -385,-224 -141,-79 -446,-255 -455,-262 -5,-4 -44,-25 -85,-48 -133,-72 -244,-139 -268,-161 -12,-11 -29,-21 -37,-21 -12,0 -64,-29 -215,-118 -19,-11 -61,-36 -92,-54 -32,-18 -58,-38 -58,-45 0,-7 -10,-13 -22,-13 -24,0 -158,-76 -158,-89 0,-5 -13,-11 -30,-14 -18,-4 -30,-13 -30,-22 0,-9 -9,-15 -21,-15 -28,0 -119,-52 -119,-67 0,-7 -9,-13 -20,-13 -27,0 -120,-52 -120,-67 0,-7 -12,-13 -26,-13 -15,0 -38,-12 -56,-30 -16,-17 -38,-30 -49,-30 -11,0 -22,-7 -25,-15 -4,-8 -12,-15 -20,-15 -18,0 -18,-19 -1,-26 14,-5 45,12 557,311 69,40 141,81 160,92 54,31 402,233 505,294 17,10 57,32 90,50 33,17 71,40 85,50 14,9 180,106 370,215 190,108 361,206 381,218 20,12 75,44 123,71 52,30 85,56 84,64 -5,23 -20,22 -63,-3 z"
         inkscape:connector-curvature="0" />
      <path
         id="path3049"
         d="m 2683,3100 c 0,-47 2,-66 4,-42 2,23 2,61 0,85 -2,23 -4,4 -4,-43 z"
         inkscape:connector-curvature="0" />
      <path
         id="path3051"
         d="m 2578,3092 c -44,-25 -208,-122 -282,-167 -43,-27 -136,-105 -136,-115 0,-5 26,4 58,20 115,57 226,61 368,15 70,-24 169,-76 232,-123 17,-13 32,-20 32,-16 0,18 -75,68 -170,114 -8,4 -24,12 -35,18 -46,25 -162,52 -226,52 -118,0 -105,27 50,109 14,7 35,21 46,31 11,10 29,21 41,24 17,5 87,67 73,65 -2,0 -25,-12 -51,-27 z"
         inkscape:connector-curvature="0" />
      <path
         id="path3053"
         d="m 2683,2935 c 0,-27 2,-38 4,-22 2,15 2,37 0,50 -2,12 -4,0 -4,-28 z"
         inkscape:connector-curvature="0" />
      <path
         id="path3055"
         d="m 2087,2738 c -37,-50 -47,-72 -37,-88 6,-10 10,-6 16,16 4,16 20,44 36,62 30,35 33,42 19,42 -6,0 -21,-15 -34,-32 z"
         inkscape:connector-curvature="0" />
      <path
         id="path3057"
         d="m 6151,2694 c -7,-8 -11,-17 -9,-20 3,-2 13,5 23,16 10,11 14,20 9,20 -5,-1 -15,-8 -23,-16 z"
         inkscape:connector-curvature="0" />
      <path
         id="path3059"
         d="m 2951,2613 c 256,-264 441,-616 494,-940 19,-115 19,-173 1,-173 -8,0 -39,26 -70,57 -55,56 -56,56 -46,22 14,-47 13,-57 -7,-62 -15,-4 -14,-5 3,-6 31,-2 118,-33 126,-45 24,-35 -8,-220 -53,-314 -31,-64 -78,-115 -181,-194 -40,-32 4,-20 100,27 92,44 114,61 67,49 -34,-9 -33,12 5,56 17,19 35,51 41,70 6,19 14,44 19,55 31,71 45,242 30,367 -26,226 -101,445 -218,643 -38,64 -123,197 -132,205 -3,3 -32,39 -65,80 -63,80 -153,170 -169,170 -6,0 19,-30 55,-67 z"
         inkscape:connector-curvature="0" />
      <path
         id="path3061"
         d="m 6088,2652 c -21,-8 -38,-20 -38,-27 0,-7 -12,-16 -27,-20 -31,-7 -53,-23 -53,-36 0,-8 47,17 108,58 18,12 38,24 45,26 7,2 10,6 7,9 -3,3 -22,-2 -42,-10 z"
         inkscape:connector-curvature="0" />
      <path
         id="path3063"
         d="m 2011,2573 c -6,-20 -7,-42 -3,-50 5,-8 12,5 18,37 12,57 0,68 -15,13 z"
         inkscape:connector-curvature="0" />
      <path
         id="path3065"
         d="m 5928,2553 c -9,-2 -19,-11 -22,-19 -4,-11 -2,-12 12,-5 49,28 52,35 10,24 z"
         inkscape:connector-curvature="0" />
      <path
         id="path3067"
         d="m 5826,2489 c -11,-10 -28,-19 -37,-19 -10,0 -23,-10 -30,-21 -11,-21 -10,-21 28,2 68,41 89,58 73,58 -8,0 -24,-9 -34,-20 z"
         inkscape:connector-curvature="0" />
      <path
         id="path3069"
         d="m 1995,2470 c 5,-21 3,-30 -6,-30 -16,0 -6,-205 16,-319 16,-83 55,-217 80,-276 40,-97 60,-136 63,-125 3,7 0,22 -6,33 -15,31 -38,87 -52,127 -7,19 -16,44 -20,55 -40,94 -64,255 -64,418 0,81 -4,147 -9,147 -5,0 -6,-13 -2,-30 z"
         inkscape:connector-curvature="0" />
      <path
         id="path3071"
         d="m 5668,2400 c -17,-16 -37,-30 -43,-30 -7,0 -16,-7 -19,-16 -3,-8 -2,-13 2,-11 30,16 132,81 132,83 0,2 -9,4 -20,4 -11,0 -34,-13 -52,-30 z"
         inkscape:connector-curvature="0" />
      <path
         id="path3073"
         d="m 5564,2333 c -12,-2 -30,-13 -40,-24 -9,-10 -23,-19 -31,-19 -23,0 -93,-44 -93,-58 0,-10 11,-8 38,9 20,12 61,35 89,51 29,16 55,34 58,39 4,5 5,8 3,8 -2,-1 -13,-4 -24,-6 z"
         inkscape:connector-curvature="0" />
      <path
         id="path3075"
         d="m 5350,2203 c -19,-9 -52,-23 -72,-32 -21,-9 -38,-20 -38,-26 0,-11 -46,-35 -66,-35 -7,0 -17,-6 -21,-13 -4,-7 -23,-19 -40,-26 -18,-8 -33,-20 -33,-27 0,-16 25,-4 127,59 29,18 81,49 117,70 37,21 66,40 66,42 0,6 1,7 -40,-12 z"
         inkscape:connector-curvature="0" />
      <path
         id="path3077"
         d="m 3099,2181 c -18,-17 -38,-31 -45,-31 -22,0 -194,-100 -194,-112 0,-5 -9,-8 -20,-8 -11,0 -25,-9 -32,-20 -7,-11 -18,-20 -23,-20 -21,0 -63,-25 -75,-43 -8,-14 -8,-22 1,-33 15,-18 29,-18 29,0 0,12 61,53 143,94 15,8 27,18 27,23 0,5 6,9 13,9 6,1 37,16 67,35 30,19 85,51 122,72 68,38 79,55 40,61 -13,2 -33,-9 -53,-27 z"
         inkscape:connector-curvature="0" />
      <path
         id="path3079"
         d="m 5006,2005 c -15,-14 -36,-25 -47,-25 -10,0 -19,-6 -19,-13 0,-14 -40,-37 -65,-37 -8,0 -20,-9 -27,-20 -7,-11 -21,-20 -31,-20 -11,0 -31,-8 -45,-18 -15,-10 -35,-22 -44,-25 -10,-4 -18,-13 -18,-22 0,-19 5,-19 38,4 26,18 198,121 272,163 49,28 58,38 33,38 -11,0 -32,-11 -47,-25 z"
         inkscape:connector-curvature="0" />
      <path
         id="path3081"
         d="m 2635,1912 c -11,-2 -30,-15 -43,-28 -13,-13 -33,-24 -46,-24 -13,0 -26,-7 -29,-14 -3,-8 -32,-27 -64,-42 -32,-15 -64,-34 -71,-41 -7,-7 -20,-13 -28,-13 -8,0 -14,-4 -14,-10 0,-5 -8,-10 -19,-10 -10,0 -24,-7 -31,-15 -7,-8 -19,-15 -26,-15 -8,0 -14,-5 -14,-11 0,-5 -21,-20 -47,-31 -46,-20 -137,-71 -433,-243 -74,-43 -163,-95 -198,-114 -34,-20 -99,-58 -145,-85 -45,-27 -113,-67 -152,-89 -38,-23 -103,-60 -142,-84 -40,-24 -76,-43 -79,-43 -4,0 -22,-9 -40,-21 -21,-12 -31,-25 -27,-35 7,-20 32,-17 73,8 19,11 103,60 185,108 169,98 162,94 378,222 86,51 176,104 200,117 99,55 184,105 208,122 15,10 67,39 117,64 50,26 96,53 103,61 6,8 17,14 24,14 6,0 22,9 35,20 13,11 29,20 37,20 7,0 13,4 13,9 0,5 10,13 23,16 26,8 211,117 215,128 2,4 10,7 17,7 7,0 23,9 36,19 27,22 17,40 -16,33 z"
         inkscape:connector-curvature="0" />
      <path
         id="path3083"
         d="m 3087,1913 c -4,-3 -3,-18 0,-34 4,-19 1,-29 -6,-29 -8,0 -10,-8 -6,-21 4,-13 2,-25 -5,-29 -7,-4 -9,-13 -6,-19 13,-21 25,-11 31,27 4,20 10,48 14,62 8,24 -9,57 -22,43 z"
         inkscape:connector-curvature="0" />
      <path
         id="path3085"
         d="m 4653,1803 c -7,-2 -13,-10 -13,-16 0,-13 -45,-37 -67,-37 -7,0 -18,-9 -25,-20 -7,-11 -23,-20 -35,-20 -13,0 -28,-9 -35,-20 -7,-11 -23,-20 -35,-20 -12,0 -27,-9 -33,-20 -6,-11 -20,-20 -31,-20 -11,0 -31,-12 -44,-26 -13,-14 -39,-30 -59,-35 -21,-6 -36,-16 -36,-25 0,-16 11,-12 85,34 89,56 115,72 243,147 72,42 132,79 132,81 0,5 -32,4 -47,-3 z"
         inkscape:connector-curvature="0" />
      <path
         id="path3087"
         d="m 1462,1686 c 10,-7 26,-34 37,-59 l 20,-47 -39,-74 c -25,-48 -36,-77 -29,-81 15,-10 21,-1 44,62 11,31 25,58 31,60 5,2 20,-21 33,-51 26,-63 46,-85 63,-68 8,8 7,15 -4,25 -8,8 -32,56 -53,106 -40,97 -73,141 -102,141 -17,-1 -17,-1 -1,-14 z"
         inkscape:connector-curvature="0" />
      <path
         id="path3089"
         d="m 2237,1554 c -6,-6 28,-62 78,-129 97,-130 226,-265 323,-337 104,-77 282,-158 349,-158 40,0 25,18 -19,23 -63,7 -132,28 -141,44 -4,7 -18,13 -31,13 -13,0 -31,9 -40,19 -10,11 -28,22 -42,25 -13,4 -24,11 -24,16 0,6 -7,10 -15,10 -8,0 -15,5 -15,10 0,6 -6,13 -14,16 -30,11 -196,169 -196,186 0,4 -7,8 -15,8 -8,0 -15,5 -15,12 0,6 -6,18 -14,27 -8,9 -26,29 -40,44 -14,15 -26,30 -26,33 0,3 -5,10 -10,17 -6,7 -26,36 -45,65 -39,63 -40,64 -48,56 z"
         inkscape:connector-curvature="0" />
      <path
         id="path3091"
         d="m 4200,1520 c 0,-5 -9,-10 -20,-10 -11,0 -20,-7 -20,-15 0,-11 7,-10 35,6 38,23 43,29 20,29 -8,0 -15,-4 -15,-10 z"
         inkscape:connector-curvature="0" />
      <path
         id="path3093"
         d="m 4110,1465 c 0,-13 4,-14 20,-5 11,6 20,13 20,15 0,3 -9,5 -20,5 -11,0 -20,-7 -20,-15 z"
         inkscape:connector-curvature="0" />
      <path
         id="path3095"
         d="m 4030,1420 c -11,-11 -27,-20 -35,-20 -9,0 -27,-11 -40,-24 -13,-14 -32,-26 -41,-28 -10,-2 -19,-9 -22,-17 -5,-14 60,20 157,81 35,22 40,28 23,28 -12,0 -31,-9 -42,-20 z"
         inkscape:connector-curvature="0" />
      <path
         id="path3097"
         d="m 3818,1290 c -18,-16 -43,-30 -55,-30 -14,0 -23,-6 -23,-15 0,-8 -5,-15 -12,-15 -6,0 -9,-2 -6,-5 5,-5 32,9 121,64 40,25 45,31 23,31 -8,0 -30,-13 -48,-30 z"
         inkscape:connector-curvature="0" />
      <path
         id="path3099"
         d="m 3690,1214 c -39,-13 -100,-46 -100,-55 0,-5 -20,-18 -44,-28 -24,-11 -46,-26 -49,-34 -4,-11 12,-5 46,15 29,18 76,45 104,60 29,16 55,34 58,39 4,5 5,9 3,8 -2,0 -10,-3 -18,-5 z"
         inkscape:connector-curvature="0" />
      <path
         id="path3101"
         d="m 3432,1060 c -12,-20 -12,-21 18,-5 34,18 38,25 12,25 -9,0 -23,-9 -30,-20 z"
         inkscape:connector-curvature="0" />
      <path
         id="path3103"
         d="m 3043,923 c 15,-2 37,-2 50,0 12,2 0,4 -28,4 -27,0 -38,-2 -22,-4 z"
         inkscape:connector-curvature="0" />
      <path
         id="path3105"
         d="m 875,900 c -16,-11 -67,-41 -113,-67 -76,-43 -98,-69 -67,-80 6,-2 60,26 120,61 75,43 110,70 110,82 0,25 -16,27 -50,4 z"
         inkscape:connector-curvature="0" />
      <path
         id="path3107"
         d="m 543,708 c -50,-28 -65,-49 -44,-63 5,-3 37,11 70,30 42,25 58,40 55,50 -8,20 -20,18 -81,-17 z"
         inkscape:connector-curvature="0" />
      <path
         id="path3109"
         d="m 384,609 c -9,-15 10,-31 29,-23 14,5 14,8 2,20 -16,17 -22,17 -31,3 z"
         inkscape:connector-curvature="0" />
      <path
         id="path3111"
         d="m 285,550 c -3,-6 1,-13 10,-16 19,-8 30,0 20,15 -8,14 -22,14 -30,1 z"
         inkscape:connector-curvature="0" />
    </g>
    <path
       transform="matrix(0.80000005,0,0,0.80000005,-5.7071838e-6,0)"
       inkscape:connector-curvature="0"
       id="path3147"
       d="m 81.670828,127.21513 18.825822,11.62771"
       style="color:#000000;fill:none;stroke:#000000;stroke-width:0;stroke-linecap:butt;stroke-linejoin:miter;stroke-miterlimit:4;stroke-opacity:1;stroke-dasharray:none;stroke-dashoffset:0;marker:none;marker-end:url(#Arrow2Mend);visibility:visible;display:inline;overflow:visible;enable-background:accumulate" />
    <path
       sodipodi:nodetypes="cc"
       transform="matrix(0.80000005,0,0,0.80000005,-5.7071838e-6,0)"
       inkscape:connector-curvature="0"
       id="path4361"
       d="M 81.877858,68.378373 165.19177,20.26039"
       style="color:#000000;fill:none;stroke:#000000;stroke-width:1.25;stroke-linecap:butt;stroke-linejoin:miter;stroke-miterlimit:4;stroke-opacity:1;stroke-dasharray:none;stroke-dashoffset:0;marker:none;marker-start:url(#Arrow2Mstart);marker-end:url(#Arrow2Mend);visibility:visible;display:inline;overflow:visible;enable-background:accumulate" />
    <path
       sodipodi:nodetypes="cc"
       transform="matrix(0.80000005,0,0,0.80000005,-5.7071838e-6,0)"
       inkscape:connector-curvature="0"
       id="path4733"
       d="m 81.670828,125.83088 21.012602,13.99728"
       style="color:#000000;fill:none;stroke:#000000;stroke-width:1.25;stroke-linecap:butt;stroke-linejoin:miter;stroke-miterlimit:4;stroke-opacity:1;stroke-dasharray:none;stroke-dashoffset:0;marker:none;marker-end:url(#Arrow2Mend);visibility:visible;display:inline;overflow:visible;enable-background:accumulate" />
    <rect
       transform="matrix(0.80000005,0,0,0.80000005,-5.7071838e-6,0)"
       y="44.990604"
       x="108.52531"
       height="11.904561"
       width="9.1360588"
       id="rect4923"
       style="fill:#ffffff;fill-opacity:1;stroke:none" />
    <text
       sodipodi:linespacing="125%"
       id="text4919"
       y="43.522816"
       x="87.927643"
       style="font-size:9.04000092px;font-style:italic;font-variant:normal;font-weight:bold;font-stretch:normal;text-indent:0;text-align:start;text-decoration:none;line-height:125%;letter-spacing:0px;word-spacing:0px;text-transform:none;direction:ltr;block-progression:tb;writing-mode:lr-tb;text-anchor:start;baseline-shift:baseline;color:#000000;fill:#000000;fill-opacity:1;fill-rule:nonzero;stroke:none;stroke-width:0.99999994px;marker:none;visibility:visible;display:inline;overflow:visible;enable-background:accumulate;font-family:Linux Libertine O;-inkscape-font-specification:Sans Italic"
       xml:space="preserve"><tspan
         y="43.522816"
         x="87.927643"
         id="tspan4921"
         sodipodi:role="line">L</tspan></text>
    <text
       sodipodi:linespacing="125%"
       id="text4925"
       y="105.15436"
       x="72.394852"
       style="font-size:9.04000092px;font-style:italic;font-variant:normal;font-weight:bold;font-stretch:normal;text-indent:0;text-align:start;text-decoration:none;line-height:125%;letter-spacing:0px;word-spacing:0px;text-transform:none;direction:ltr;block-progression:tb;writing-mode:lr-tb;text-anchor:start;baseline-shift:baseline;color:#000000;fill:#000000;fill-opacity:1;fill-rule:nonzero;stroke:none;stroke-width:0.99999994px;marker:none;visibility:visible;display:inline;overflow:visible;enable-background:accumulate;font-family:Linux Libertine O;-inkscape-font-specification:Sans Italic"
       xml:space="preserve"><tspan
         y="105.15436"
         x="72.394852"
         id="tspan4927"
         sodipodi:role="line">r</tspan></text>
    <path
       inkscape:connector-curvature="0"
       id="path4929"
       d="m 64.382287,79.502739 0,-26.676017"
       style="color:#000000;fill:none;stroke:#000000;stroke-width:1.00000012;stroke-linecap:butt;stroke-linejoin:miter;stroke-miterlimit:4;stroke-opacity:1;stroke-dasharray:none;stroke-dashoffset:0;marker:none;visibility:visible;display:inline;overflow:visible;enable-background:accumulate" />
    <path
       inkscape:connector-curvature="0"
       id="path4931"
       d="m 133.57241,38.918412 0,-26.676017"
       style="color:#000000;fill:none;stroke:#000000;stroke-width:1.00000012;stroke-linecap:butt;stroke-linejoin:miter;stroke-miterlimit:4;stroke-opacity:1;stroke-dasharray:none;stroke-dashoffset:0;marker:none;visibility:visible;display:inline;overflow:visible;enable-background:accumulate" />
  </g>
  <rect
     style="fill:none;stroke:none"
     id="rect5009"
     width="222.5197"
     height="38.722748"
     x="-30.978203"
     y="54.558624" />
</svg>
