<?xml version="1.0" encoding="UTF-8" standalone="no"?>
<svg
   xmlns:dc="http://purl.org/dc/elements/1.1/"
   xmlns:cc="http://creativecommons.org/ns#"
   xmlns:rdf="http://www.w3.org/1999/02/22-rdf-syntax-ns#"
   xmlns:svg="http://www.w3.org/2000/svg"
   xmlns="http://www.w3.org/2000/svg"
   xmlns:sodipodi="http://sodipodi.sourceforge.net/DTD/sodipodi-0.dtd"
   xmlns:inkscape="http://www.inkscape.org/namespaces/inkscape"
   version="1.0"
   width="192.960000pt"
   height="256.320000pt"
   viewBox="0 0 192.960000 256.320000"
   preserveAspectRatio="xMidYMid meet"
   id="svg2"
   sodipodi:docname="gray.svg">
  <defs
     id="defs20" />
  <sodipodi:namedview
     pagecolor="#ffffff"
     bordercolor="#666666"
     borderopacity="1"
     objecttolerance="10"
     gridtolerance="10"
     guidetolerance="10"
     inkscape:pageopacity="0"
     inkscape:pageshadow="2"
     inkscape:window-width="1280"
     inkscape:window-height="996"
     id="namedview18"
     showgrid="false"
     inkscape:zoom="1.2020991"
     inkscape:cx="64.487293"
     inkscape:cy="175.81273"
     inkscape:window-x="0"
     inkscape:window-y="0"
     inkscape:window-maximized="1"
     inkscape:current-layer="svg2" />
  <metadata
     id="metadata4">
Created by potrace 1.10, written by Peter Selinger 2001-2011
<rdf:RDF>
  <cc:Work
     rdf:about="">
    <dc:format>image/svg+xml</dc:format>
    <dc:type
       rdf:resource="http://purl.org/dc/dcmitype/StillImage" />
    <dc:title></dc:title>
  </cc:Work>
</rdf:RDF>
</metadata>
  <g
     transform="translate(0.000000,256.320000) scale(0.024000,-0.024000)"
     fill="#b9b9b9"
     stroke="none"
     id="g6">
    <path
       d="M0 5340 l0 -5340 4020 0 4020 0 0 5340 0 5340 -4020 0 -4020 0 0 -5340z m4860 2937 c0 -2 -11 -14 -25 -27 -14 -13 -25 -21 -25 -17 0 3 10 15 22 27 21 19 28 24 28 17z m-3324 -1527 c88 -21 123 -34 170 -65 31 -21 35 -45 8 -45 -9 0 -13 4 -9 9 3 5 1 12 -5 16 -5 3 -10 2 -10 -4 0 -17 -113 -120 -143 -130 -24 -9 -29 -7 -37 12 -5 14 -8 -74 -7 -228 2 -247 2 -247 4 -51 2 121 8 204 14 212 11 13 40 24 117 44 34 9 41 14 33 24 -6 8 -9 20 -6 28 9 22 86 68 116 68 54 0 269 -188 269 -236 0 -14 -19 -33 -62 -62 -35 -23 -105 -70 -157 -106 -52 -36 -99 -62 -103 -60 -5 3 -7 1 -6 -4 4 -11 -157 -122 -178 -122 -8 0 -17 -7 -20 -15 -7 -17 -183 -138 -201 -138 -7 0 -10 -3 -8 -7 4 -7 -189 -140 -204 -140 -6 0 -11 -4 -11 -10 0 -5 -6 -10 -14 -10 -8 0 -37 -20 -65 -44 -59 -49 -316 -226 -330 -226 -5 0 -11 -4 -13 -8 -6 -17 -106 -82 -125 -82 -27 0 -66 63 -96 157 -45 139 -50 180 -44 349 5 162 24 263 60 329 9 17 19 38 23 47 30 81 166 264 186 252 6 -4 8 -3 5 3 -17 28 252 203 312 203 11 0 22 4 25 9 6 9 129 39 186 44 112 11 250 6 326 -13z m544 -392 c0 -7 -15 -23 -33 -35 -17 -11 -72 -49 -122 -84 -185 -129 -278 -187 -292 -182 -8 3 -13 7 -11 8 2 1 39 27 83 57 267 184 361 247 368 247 4 1 7 -5 7 -11z m65 -88 c14 -28 23 -56 19 -62 -4 -7 -3 -8 4 -4 7 4 13 1 13 -6 2 -26 8 -64 11 -78 2 -11 -26 -19 -122 -36 -147 -26 -136 -31 15 -8 58 9 111 14 119 11 17 -7 39 -102 34 -149 -3 -29 -8 -33 -48 -44 l-45 -12 50 1 50 2 -1 -75 c0 -80 -23 -232 -33 -226 -3 2 -7 -9 -8 -26 -3 -43 -90 -214 -142 -278 -93 -116 -202 -206 -319 -265 -120 -62 -210 -83 -377 -91 -165 -8 -297 16 -422 75 -184 88 -357 241 -339 299 3 10 39 39 78 65 40 26 120 81 178 122 58 42 119 82 135 91 17 8 45 26 64 39 19 14 42 26 52 26 19 2 33 4 47 9 4 2 12 4 17 5 6 1 17 5 25 8 8 3 31 10 50 16 l35 9 -32 1 c-68 2 -43 38 82 123 44 30 110 75 147 101 74 52 104 59 111 25 3 -15 5 -9 6 14 0 20 5 39 10 42 9 6 97 23 241 46 41 7 80 14 85 16 12 5 -85 -3 -142 -12 -36 -6 -43 -3 -53 16 -6 12 -10 23 -8 24 29 24 248 164 248 159 0 -4 6 1 13 10 20 27 80 65 104 66 17 1 29 -11 48 -49z m-575 -262 c0 -7 -71 -61 -158 -120 -86 -58 -189 -129 -229 -157 -45 -32 -74 -47 -79 -40 -3 6 -2 14 2 18 27 24 448 311 457 311 4 0 7 -6 7 -12z m-502 -347 c-3 -9 -129 -98 -368 -262 -122 -83 -114 -79 -128 -70 -9 5 10 23 55 53 37 25 109 74 158 109 217 151 260 179 273 179 7 0 12 -4 10 -9z m3105 -2143 c35 -18 77 -99 77 -147 0 -26 -4 -51 -8 -57 -15 -23 -135 -104 -145 -97 -5 3 -7 2 -4 -4 3 -5 -15 -23 -41 -41 -26 -17 -83 -56 -126 -86 -44 -30 -84 -52 -89 -49 -6 3 -7 2 -4 -3 3 -6 -44 -43 -104 -84 -157 -107 -272 -187 -287 -200 -7 -6 -17 -8 -24 -4 -6 4 -8 3 -5 -3 4 -6 1 -13 -6 -16 -6 -2 -102 -67 -212 -142 -110 -76 -254 -175 -320 -220 -66 -45 -158 -107 -205 -140 -47 -32 -112 -76 -145 -99 -33 -23 -68 -48 -78 -57 -9 -9 -30 -22 -45 -30 -15 -8 -32 -19 -39 -25 -6 -6 -69 -50 -140 -98 -70 -48 -166 -114 -213 -147 -47 -33 -107 -75 -135 -94 -27 -19 -88 -61 -135 -94 -177 -124 -261 -181 -269 -181 -4 0 -16 -9 -26 -20 -10 -11 -23 -20 -30 -20 -7 0 -20 -9 -30 -20 -10 -11 -24 -20 -32 -20 -7 0 -16 -6 -19 -14 -3 -8 -30 -27 -60 -42 -30 -15 -54 -31 -54 -35 0 -11 -67 -55 -95 -63 -16 -5 -23 2 -39 39 -10 25 -40 69 -67 97 l-49 52 32 29 c28 24 61 47 150 102 28 17 132 89 146 100 7 5 19 16 27 22 7 7 17 13 20 13 4 0 23 14 42 30 18 17 38 30 44 30 5 0 24 13 42 30 18 16 47 37 65 45 17 9 32 21 32 27 0 5 6 8 14 5 8 -3 17 1 20 8 3 8 31 31 63 52 66 43 67 44 109 78 18 14 35 25 39 25 3 0 27 16 52 35 25 19 50 35 55 35 4 0 36 22 71 49 34 26 72 52 85 55 12 4 22 11 22 16 0 9 205 150 219 150 4 0 24 15 45 34 20 19 60 49 89 66 29 16 77 48 107 71 30 22 105 74 165 115 61 41 189 129 285 195 96 66 216 148 265 181 50 34 92 64 95 67 3 3 34 26 70 51 36 24 88 60 115 79 183 127 239 166 310 215 44 30 115 80 158 109 78 54 113 65 150 45z m-3193 -2213 c7 -8 19 -15 27 -15 7 0 16 -8 20 -17 3 -10 12 -25 18 -33 17 -21 28 -97 14 -105 -5 -4 -26 -4 -45 0 -27 5 -41 16 -64 53 -31 49 -47 103 -35 121 9 16 51 13 65 -4z"
       id="path8" />
    <path
       d="M1031 6194 c-1 -50 -21 -84 -48 -84 -6 0 -34 -7 -62 -17 -41 -13 -50 -20 -46 -34 4 -11 -5 -28 -27 -49 l-33 -31 28 7 c24 5 26 4 20 -12 -10 -26 56 29 78 65 19 32 37 46 66 55 l23 7 2 -183 c2 -101 7 -182 12 -180 11 3 8 439 -4 478 -7 26 -8 23 -9 -22z"
       id="path10" />
    <path
       d="M2080 5870 c-20 -6 -21 -8 -5 -8 11 0 31 4 45 8 20 6 21 8 5 8 -11 0 -31 -4 -45 -8z"
       id="path12" />
    <path
       d="M1990 5850 c-20 -6 -21 -8 -5 -8 11 0 31 4 45 8 20 6 21 8 5 8 -11 0 -31 -4 -45 -8z"
       id="path14" />
    <path
       d="M1603 5806 c2 -49 5 -51 62 -36 l30 8 -33 1 c-30 1 -32 3 -30 33 2 24 -2 33 -14 36 -14 3 -17 -4 -15 -42z"
       id="path16" />
  </g>
  <g
     style="fill:#000000;stroke:none"
     transform="matrix(0.024,0,0,-0.024,0.0600478,256.27193)"
     id="g3001">
    <path
       inkscape:connector-curvature="0"
       d="m 3109,9927 c -28,-30 -26,-52 4,-33 14,10 27,12 37,6 11,-7 5,-18 -28,-54 -55,-60 -56,-98 -2,-64 15,9 24,9 44,-1 13,-8 32,-11 41,-8 21,9 35,49 23,65 -15,18 -28,15 -28,-8 0,-23 -22,-27 -39,-7 -8,11 -2,24 29,58 22,24 40,49 40,54 0,6 -23,11 -51,12 -39,1 -54,-3 -70,-20 z"
       id="path3003" />
    <path
       inkscape:connector-curvature="0"
       d="m 3149,9668 c -2,-37 2,-589 6,-683 2,-60 7,-409 10,-775 3,-366 8,-737 11,-826 4,-88 3,-175 -1,-192 -6,-31 -40,-57 -330,-255 -22,-15 -51,-35 -65,-46 -14,-10 -70,-49 -125,-85 -191,-128 -260,-175 -290,-199 -16,-13 -41,-30 -55,-37 -14,-7 -44,-28 -67,-46 -23,-19 -46,-34 -52,-34 -6,0 -26,-14 -44,-30 -19,-17 -41,-30 -48,-30 -8,0 -41,28 -74,63 -57,59 -151,139 -191,163 -16,10 -17,13 -5,28 7,9 21,16 30,16 9,0 35,18 56,40 51,52 34,51 -51,-5 -75,-49 -84,-52 -122,-31 -58,31 -107,48 -200,73 -160,41 -398,34 -517,-16 C 769,6654 657,6563 513,6345 374,6135 333,5824 410,5564 c 23,-76 71,-184 82,-184 4,0 8,-9 8,-20 0,-25 -40,-62 -100,-94 -25,-13 -54,-33 -64,-45 -11,-12 -25,-21 -32,-21 -7,0 -31,-17 -54,-38 -38,-34 -41,-41 -31,-60 20,-37 56,-38 96,-3 20,17 43,31 51,31 9,0 24,10 34,23 10,13 39,34 64,46 25,13 53,32 62,42 10,11 23,19 29,19 19,0 106,-100 99,-112 -4,-7 -2,-8 4,-4 6,4 30,-10 54,-31 55,-49 57,-50 98,-75 131,-80 254,-124 392,-142 54,-7 104,-18 111,-25 6,-6 19,-11 28,-11 21,0 72,-57 99,-110 25,-49 50,-164 49,-227 -1,-63 13,-165 51,-363 31,-165 124,-484 171,-587 10,-24 19,-49 19,-57 0,-7 7,-31 16,-52 9,-22 20,-52 25,-68 7,-25 6,-27 -11,-22 -11,3 -29,9 -40,12 -34,11 -23,-14 35,-79 30,-34 55,-66 55,-70 0,-10 7,-19 62,-80 48,-55 57,-49 34,20 -21,66 -26,96 -27,186 -1,42 -4,77 -8,77 -15,0 -31,-25 -31,-48 0,-39 -23,-20 -39,34 -9,27 -18,51 -22,54 -6,5 -87,245 -94,283 -2,9 -6,21 -9,25 -9,15 -64,267 -72,327 -10,87 -15,385 -6,385 4,0 7,12 6,27 0,14 3,45 8,67 5,23 11,50 13,61 37,178 126,319 260,412 79,55 245,237 245,269 0,3 10,20 23,37 12,18 23,39 25,47 2,8 8,17 13,18 5,2 9,10 9,17 0,7 9,35 21,62 28,65 59,228 59,312 l 0,68 108,22 c 59,12 114,23 122,26 81,20 117,29 195,45 50,10 140,31 200,45 61,14 133,30 160,35 28,4 57,11 65,14 16,6 44,12 120,26 25,5 94,20 154,35 60,14 111,23 115,19 3,-3 6,-42 6,-86 0,-56 4,-82 13,-85 6,-3 12,2 12,11 0,28 14,18 84,-59 69,-77 112,-112 122,-102 8,8 -38,66 -53,66 -15,1 -113,119 -113,137 0,8 10,14 25,14 35,0 31,14 -9,38 -18,11 -38,33 -44,50 l -11,31 117,26 c 64,15 198,46 297,70 99,23 216,50 260,59 44,10 103,24 130,32 43,12 87,22 215,48 14,3 52,11 85,20 33,8 96,22 140,31 44,9 94,21 110,25 101,28 100,28 131,4 33,-27 80,-31 111,-9 28,20 63,12 278,-56 50,-16 115,-36 145,-45 30,-9 69,-21 85,-26 17,-5 104,-32 195,-59 91,-28 199,-61 240,-74 41,-13 104,-32 140,-43 36,-11 119,-36 185,-57 66,-20 158,-48 205,-62 47,-14 94,-29 105,-34 11,-4 45,-15 75,-23 30,-8 76,-21 102,-30 26,-8 50,-11 53,-7 9,15 -29,38 -90,54 -82,21 -395,117 -420,128 -11,5 -51,17 -90,28 -164,44 -307,94 -312,109 -4,9 4,24 22,38 16,13 26,26 23,30 -4,3 -26,-9 -49,-27 -42,-33 -87,-41 -113,-20 -6,5 -29,12 -51,16 -22,4 -48,11 -58,17 -18,9 -16,13 20,51 37,40 55,81 67,154 9,55 -21,123 -55,123 -15,0 -6,11 13,14 7,1 22,5 33,9 11,3 32,8 46,11 55,9 276,57 324,70 28,8 73,18 100,24 28,6 90,21 139,33 74,18 96,20 135,11 37,-8 49,-8 62,4 8,8 19,14 23,14 10,0 120,90 124,101 3,7 -10,11 -38,11 -19,0 -261,-13 -332,-18 -66,-5 -88,-10 -88,-21 0,-7 10,-17 22,-22 19,-7 9,-11 -52,-25 -41,-9 -115,-26 -165,-37 -49,-11 -119,-27 -155,-35 -36,-8 -83,-19 -105,-24 -95,-22 -233,-53 -275,-61 -54,-10 -137,-28 -290,-62 -160,-36 -216,-42 -245,-27 -29,15 -63,8 -93,-21 -15,-13 -31,-19 -45,-16 -57,14 -144,39 -162,46 -11,5 -54,19 -95,30 -41,12 -104,31 -140,42 -36,11 -82,24 -103,30 -21,5 -45,13 -55,18 -9,5 -46,17 -82,26 -36,9 -105,29 -155,45 -49,16 -128,41 -175,55 -47,14 -125,38 -175,54 -49,16 -130,41 -180,56 -49,14 -99,30 -110,35 -11,5 -72,23 -135,42 -75,22 -116,38 -117,48 -3,14 37,46 97,78 14,7 36,24 51,38 14,13 30,24 35,24 6,0 37,20 68,45 32,25 63,45 70,45 6,0 22,12 35,26 13,14 38,32 55,41 17,9 52,32 78,52 25,20 59,44 75,54 37,23 87,58 145,102 25,19 50,35 55,35 5,0 27,15 49,34 21,18 53,40 69,49 17,8 46,29 65,46 19,17 40,31 47,31 6,0 33,18 58,40 25,22 50,40 55,40 4,0 31,18 59,40 28,22 55,40 61,40 5,0 27,15 47,33 21,19 54,42 73,53 42,23 56,34 78,57 9,9 23,17 30,17 8,0 37,20 64,45 28,25 55,45 62,45 6,0 34,18 61,40 28,22 55,40 61,40 6,0 28,16 48,35 21,19 43,35 49,35 20,0 33,42 22,68 -13,29 -35,28 -82,-3 -21,-14 -46,-31 -57,-38 -10,-6 -24,-17 -30,-23 -7,-6 -25,-18 -41,-27 -17,-8 -41,-25 -55,-37 -14,-12 -45,-34 -70,-48 -25,-14 -51,-34 -58,-44 -7,-10 -19,-18 -26,-18 -11,0 -24,-9 -84,-56 -15,-12 -38,-27 -51,-34 -14,-7 -30,-17 -35,-22 -58,-48 -72,-58 -80,-58 -5,0 -28,-16 -51,-35 -23,-19 -48,-35 -56,-37 -7,-2 -18,-7 -24,-13 -14,-12 -86,-66 -135,-100 -19,-14 -59,-42 -89,-62 -29,-21 -65,-46 -80,-55 -46,-31 -62,-42 -105,-75 -22,-18 -45,-33 -49,-33 -4,0 -18,-9 -30,-21 -12,-11 -42,-32 -67,-47 -47,-27 -51,-30 -162,-112 -37,-28 -71,-50 -75,-50 -4,0 -30,-18 -58,-40 -27,-22 -54,-40 -59,-40 -6,0 -19,-9 -30,-19 -28,-26 -156,-111 -167,-111 -5,0 -9,71 -10,158 0,86 -2,177 -4,202 -1,25 -6,358 -10,740 -3,382 -8,781 -10,885 -2,105 -4,259 -5,343 0,128 -2,152 -15,152 -8,0 -15,-6 -16,-12 z M 5100,8429 c 0,-5 -4,-7 -10,-4 -5,3 -10,1 -10,-4 0,-6 -6,-11 -13,-11 -7,0 -18,-9 -25,-21 -8,-12 -19,-18 -28,-15 -9,3 -12,1 -9,-4 3,-6 2,-10 -2,-10 -10,0 -39,-21 -86,-62 -17,-16 -37,-28 -43,-28 -6,0 -27,-13 -45,-30 -19,-16 -45,-35 -59,-42 -14,-7 -42,-26 -63,-42 -21,-17 -44,-31 -52,-32 -8,-1 -29,-16 -47,-33 -18,-17 -41,-34 -50,-37 -10,-3 -18,-9 -18,-12 0,-4 -16,-16 -35,-26 -19,-11 -35,-23 -35,-28 0,-5 -19,-17 -42,-27 -24,-10 -56,-33 -72,-50 -17,-17 -35,-31 -41,-31 -7,0 -32,-16 -57,-35 -25,-19 -49,-31 -53,-27 -5,4 -5,1 -1,-6 5,-8 -3,-16 -21,-23 -15,-5 -40,-22 -54,-35 -15,-14 -34,-26 -43,-28 -9,-1 -35,-19 -57,-40 -23,-21 -50,-39 -60,-41 -10,-2 -33,-18 -51,-34 -18,-17 -39,-29 -45,-26 -7,2 -12,-1 -10,-7 1,-6 -10,-18 -24,-27 -60,-36 -122,-78 -156,-103 -20,-16 -42,-28 -50,-28 -8,0 -12,-4 -8,-9 3,-5 -3,-12 -13,-15 -10,-4 -36,-22 -58,-41 -21,-19 -44,-35 -49,-35 -6,0 -32,-18 -59,-40 -26,-22 -54,-40 -61,-40 -8,0 -26,-12 -42,-27 -15,-16 -46,-37 -68,-47 -22,-11 -44,-22 -50,-25 -27,-13 23,32 68,63 29,19 66,46 82,60 17,14 35,26 40,26 6,0 32,18 59,40 26,22 54,40 61,40 7,0 28,14 46,30 19,17 51,40 72,51 21,11 48,29 61,40 14,12 28,22 33,22 10,2 40,25 68,54 11,12 32,24 46,28 13,3 44,24 69,46 24,21 53,42 64,45 11,4 36,22 56,40 19,19 40,34 46,34 7,0 33,18 59,39 29,24 54,37 63,33 10,-3 13,-1 8,6 -4,7 -3,12 3,12 5,0 31,18 56,40 26,22 51,38 56,35 5,-3 22,8 39,25 17,17 35,28 42,24 6,-4 8,-3 5,3 -8,13 17,36 27,26 3,-4 19,7 35,24 29,32 69,58 78,50 2,-3 25,15 50,39 24,24 51,44 59,44 7,0 27,13 44,30 36,35 77,60 65,38 -4,-7 1,-4 13,7 72,70 92,84 108,78 13,-5 15,-3 9,7 -5,8 -4,11 3,6 5,-3 12,-3 14,1 7,16 66,64 80,67 8,1 27,12 42,24 31,24 46,28 46,11 z M 3210,7125 c 0,-8 -7,-15 -15,-15 -8,0 -15,-4 -15,-10 0,-5 -5,-10 -11,-10 -6,0 -33,-18 -59,-40 -26,-22 -52,-40 -58,-40 -6,0 -31,-15 -55,-34 -25,-19 -58,-41 -74,-49 -15,-8 -37,-24 -47,-36 -11,-12 -25,-21 -33,-21 -7,0 -32,-17 -56,-39 -23,-21 -58,-46 -77,-54 -19,-8 -47,-27 -62,-41 -15,-14 -33,-26 -40,-26 -7,0 -33,-18 -57,-40 -25,-22 -50,-40 -56,-40 -6,0 -35,-20 -64,-45 -29,-25 -57,-45 -63,-45 -6,0 -27,-13 -48,-30 -21,-16 -43,-30 -49,-30 -6,0 -11,-4 -11,-10 0,-5 -5,-10 -11,-10 -6,0 -29,-15 -52,-34 -48,-38 -98,-57 -75,-28 20,26 40,41 76,57 17,8 32,19 32,24 0,6 5,11 10,11 6,0 19,9 30,20 12,12 25,18 30,15 4,-3 21,8 37,24 16,16 47,38 69,49 21,11 50,32 63,46 14,14 31,26 39,26 8,0 36,17 61,38 25,20 48,37 51,37 9,1 61,38 92,67 16,15 35,28 42,28 6,0 27,13 46,30 19,16 42,29 51,30 9,0 22,7 29,15 7,8 42,34 79,59 36,24 75,53 85,65 11,11 26,21 35,21 9,0 31,13 49,30 54,49 82,61 82,35 z m 167,-65 c 70,-23 148,-48 173,-56 54,-18 111,-35 205,-62 39,-11 144,-43 235,-71 91,-28 198,-61 238,-73 39,-13 72,-26 72,-31 0,-4 -5,-5 -10,-2 -16,10 -35,-10 -71,-73 -26,-45 -33,-72 -37,-129 -5,-75 -1,-84 43,-109 15,-8 24,-3 55,30 50,56 71,100 77,168 4,44 2,63 -11,83 l -17,26 28,-7 c 15,-3 73,-19 128,-36 55,-16 109,-32 120,-34 11,-3 29,-9 40,-14 11,-4 40,-14 65,-21 56,-16 52,-15 70,-21 8,-3 49,-15 90,-28 41,-12 81,-24 88,-26 18,-5 15,-22 -5,-28 -10,-2 -67,-12 -128,-21 -60,-8 -162,-24 -225,-35 -220,-38 -306,-52 -435,-72 -71,-11 -155,-24 -185,-29 -30,-5 -104,-16 -165,-24 -60,-8 -143,-22 -183,-31 -40,-10 -75,-14 -78,-11 -10,9 14,52 65,116 27,34 31,45 21,51 -8,5 -18,6 -22,4 -26,-17 7,42 52,92 45,49 66,84 50,84 -14,0 -96,-88 -112,-120 -7,-14 -21,-38 -32,-54 -18,-27 -20,-28 -33,-11 -20,29 -28,10 -31,-85 l -4,-87 -46,-7 c -26,-3 -76,-10 -112,-16 -203,-34 -445,-72 -572,-90 -37,-5 -123,-19 -192,-30 -214,-34 -338,-50 -347,-44 -5,3 -9,11 -9,18 0,6 -18,49 -40,95 -22,45 -40,89 -40,96 0,14 67,69 142,118 24,15 90,61 148,102 58,41 121,83 141,94 19,11 55,36 78,55 24,20 49,36 56,36 7,0 19,7 26,17 13,15 107,80 183,126 16,10 48,34 71,53 23,19 47,34 52,34 6,0 30,16 54,35 24,19 49,35 54,35 6,0 26,14 45,30 19,16 38,30 42,30 3,0 64,-18 135,-40 z M 1498,6754 c 88,-18 225,-68 241,-88 9,-11 4,-18 -22,-35 -39,-24 -62,-28 -33,-6 14,11 17,18 9,26 -7,7 -16,3 -30,-15 -23,-29 -135,-126 -145,-126 -5,0 -8,9 -8,20 0,11 -4,20 -8,20 -8,0 -5,-423 2,-460 2,-8 4,74 5,182 1,226 -8,205 105,236 67,18 85,34 46,40 -18,3 -12,11 37,48 32,24 68,44 80,44 31,0 171,-108 226,-176 26,-31 47,-60 47,-64 0,-4 -33,-30 -72,-57 -136,-92 -263,-179 -648,-443 -212,-145 -439,-301 -505,-346 -66,-45 -152,-105 -192,-133 -39,-28 -78,-51 -85,-51 -29,0 -95,153 -125,284 -21,94 -21,288 0,382 47,210 154,386 321,526 111,93 285,173 433,198 83,13 240,11 321,-6 z m 2812,-64 c 0,-32 -11,-50 -31,-50 -24,0 -26,42 -3,64 18,19 34,12 34,-14 z m 1481,-50 c -53,-59 -80,-185 -51,-240 23,-42 30,-44 -260,44 -216,66 -271,86 -265,96 4,6 45,16 135,35 34,6 231,48 355,75 55,12 102,23 104,26 2,2 6,2 8,0 2,-2 -9,-18 -26,-36 z m 59,-45 c 0,-37 -11,-55 -32,-55 -18,0 -20,4 -14,32 11,57 46,75 46,23 z m -1570,-15 c 0,-30 -29,-82 -43,-77 -13,4 -14,29 -2,70 9,33 45,38 45,7 z m 1555,-102 c -9,-42 -33,-80 -45,-73 -11,7 -13,65 -4,89 3,9 17,16 31,16 22,0 24,-3 18,-32 z m -1166,-12 c -12,-10 -60,-16 -54,-6 3,5 18,10 32,10 15,0 24,-2 22,-4 z m -149,-26 c 0,-5 -3,-11 -7,-11 -5,-1 -17,-3 -28,-5 -29,-4 -60,-12 -60,-15 0,-1 -9,-3 -20,-5 -11,-1 -72,-16 -135,-32 -63,-17 -189,-46 -280,-66 -219,-49 -337,-75 -380,-86 -41,-11 -231,-53 -380,-86 -58,-12 -170,-38 -250,-57 -80,-19 -172,-40 -205,-47 -33,-6 -73,-15 -90,-20 -16,-5 -55,-13 -85,-19 -58,-10 -259,-56 -297,-67 -19,-5 -22,0 -32,48 -6,29 -12,68 -13,87 -3,29 0,34 22,37 80,11 181,27 220,35 25,4 83,13 130,19 47,6 96,13 110,16 14,2 70,11 125,19 55,8 127,20 160,25 33,6 89,15 125,21 156,23 520,80 575,89 57,10 126,21 338,54 50,8 139,22 197,31 58,9 117,18 131,19 14,2 31,6 37,10 7,4 12,1 12,-6 0,-9 2,-10 8,-2 4,7 18,14 32,17 14,2 28,5 33,6 4,0 7,-3 7,-9 z m -2437,-85 c 2,-9 -79,-68 -318,-228 -66,-45 -121,-85 -123,-89 -5,-11 -40,-10 -47,1 -3,6 47,45 111,88 64,43 168,115 232,160 110,77 140,92 145,68 z m 46,-65 c 24,-41 75,-169 69,-175 -13,-13 -497,-84 -504,-74 -2,4 65,53 148,110 84,56 173,117 198,135 25,18 51,33 58,33 7,1 21,-13 31,-29 z m 90,-237 c 6,-21 13,-61 17,-89 l 6,-51 -68,-17 c -38,-9 -172,-39 -298,-66 -211,-47 -230,-50 -246,-35 -17,15 -18,15 -16,-2 1,-20 -14,-25 -259,-79 -88,-19 -168,-37 -179,-40 -37,-12 -3,17 122,103 70,48 158,109 197,135 38,26 72,48 76,48 3,0 11,-10 17,-22 10,-21 11,-20 11,13 1,22 7,39 15,42 8,3 110,21 227,40 118,20 239,40 269,45 96,17 98,16 109,-25 z m -644,-42 c 6,-10 -18,-27 -285,-211 -170,-116 -200,-132 -200,-109 0,14 445,327 467,328 6,1 14,-3 18,-8 z m 665,-200 c 0,-386 -288,-750 -680,-861 -256,-72 -560,-12 -785,155 -75,55 -175,158 -175,180 0,11 424,311 488,344 13,7 51,18 85,26 217,47 931,208 977,219 94,24 90,27 90,-63 z M 1070,5661 c 0,-9 -418,-303 -469,-330 -15,-8 -27,-9 -33,-3 -11,11 -22,2 267,203 183,126 235,155 235,130 z M 514,5271 c -16,-13 -30,-19 -32,-13 -2,6 -23,-10 -48,-35 -28,-28 -51,-43 -60,-39 -9,3 -12,1 -9,-4 3,-6 0,-10 -8,-10 -8,0 -20,-7 -27,-16 -14,-16 -50,-38 -50,-30 0,11 59,61 120,100 36,24 71,50 79,59 7,9 24,16 38,15 l 25,-3 -28,-24 z"
       id="path3005" />
    <path
       inkscape:connector-curvature="0"
       d="m 2728,6513 c -21,-5 -22,-8 -6,-32 8,-14 7,-36 -7,-97 -10,-43 -22,-85 -28,-91 -17,-23 0,-43 37,-43 36,0 57,17 37,29 -15,9 -4,88 13,94 6,2 21,1 34,-4 20,-8 22,-13 16,-44 -8,-42 15,-75 53,-75 24,0 31,14 13,25 -5,3 -10,22 -10,41 0,19 -5,43 -12,54 -10,15 -9,22 5,38 22,24 22,65 0,84 -18,15 -112,28 -145,21 z m 107,-37 c 17,-12 18,-18 7,-40 -10,-23 -23,-29 -59,-25 -5,0 -7,8 -5,17 11,67 21,75 57,48 z"
       id="path3007" />
    <path
       inkscape:connector-curvature="0"
       d="m 1030,6191 c 0,-57 -6,-63 -99,-91 -55,-16 -76,-36 -45,-42 11,-2 -20,-29 -90,-78 -59,-41 -103,-76 -97,-78 5,-2 52,25 103,59 73,49 89,57 75,36 -36,-55 3,-33 67,38 38,41 72,75 77,75 5,0 9,-80 9,-180 0,-118 4,-180 10,-180 14,0 12,478 -1,486 -5,3 -9,-17 -9,-45 z"
       id="path3009" />
    <path
       inkscape:connector-curvature="0"
       d="m 6255,9210 c -4,-6 -23,-17 -43,-26 -37,-15 -52,-30 -52,-50 0,-8 11,-6 33,5 42,22 97,63 97,73 0,12 -28,10 -35,-2 z"
       id="path3011" />
    <path
       inkscape:connector-curvature="0"
       d="m 6125,9193 c -34,-17 -85,-63 -85,-75 0,-15 27,-8 45,12 10,11 24,20 30,20 19,0 66,40 60,51 -8,12 -15,11 -50,-8 z"
       id="path3013" />
    <path
       inkscape:connector-curvature="0"
       d="m 6045,9068 c -11,-11 -33,-26 -50,-33 -42,-19 -99,-71 -86,-80 6,-3 24,3 40,14 16,12 32,21 36,21 11,0 114,84 115,93 0,15 -36,5 -55,-15 z"
       id="path3015" />
    <path
       inkscape:connector-curvature="0"
       d="m 5940,9060 c -14,-11 -29,-20 -34,-20 -4,0 -27,-14 -50,-32 -22,-17 -43,-33 -45,-35 -3,-2 0,-8 5,-13 7,-7 22,-1 44,15 19,14 39,25 45,25 13,0 75,59 75,71 0,14 -13,10 -40,-11 z"
       id="path3017" />
    <path
       inkscape:connector-curvature="0"
       d="m 5658,8871 c -38,-25 -68,-52 -68,-58 0,-20 18,-16 54,12 18,14 37,25 43,25 5,0 22,10 37,23 21,19 24,26 14,34 -10,7 -31,-2 -80,-36 z"
       id="path3019" />
    <path
       inkscape:connector-curvature="0"
       d="m 5820,8914 c 0,-11 -52,-38 -65,-35 -3,1 -19,-12 -36,-30 -18,-19 -35,-29 -45,-25 -10,4 -13,2 -8,-6 5,-7 2,-9 -8,-6 -11,5 -14,0 -10,-18 6,-32 20,-30 67,11 22,19 44,35 50,35 5,0 24,12 42,28 24,20 30,31 23,42 -5,8 -10,10 -10,4 z"
       id="path3021" />
    <path
       inkscape:connector-curvature="0"
       d="m 5469,8742 c -70,-41 -114,-81 -102,-93 7,-7 21,-1 41,16 18,15 37,23 43,19 8,-5 9,-3 4,6 -5,8 -3,11 5,8 13,-4 70,47 70,63 0,14 -12,11 -61,-19 z"
       id="path3023" />
    <path
       inkscape:connector-curvature="0"
       d="m 5487,8689 c -26,-23 -44,-45 -41,-50 8,-14 17,-11 54,22 19,17 45,35 58,40 29,11 29,29 -1,29 -12,0 -44,-18 -70,-41 z"
       id="path3025" />
    <path
       inkscape:connector-curvature="0"
       d="m 5290,8620 c -13,-11 -27,-20 -32,-20 -4,0 -10,0 -12,-1 -3,0 -25,-19 -50,-41 -46,-42 -53,-72 -10,-44 13,9 30,16 39,16 10,0 13,5 9,12 -4,7 -3,8 4,4 7,-4 12,-2 12,5 0,7 3,10 6,6 9,-9 76,62 69,73 -8,13 -8,13 -35,-10 z"
       id="path3027" />
    <path
       inkscape:connector-curvature="0"
       d="m 5298,8567 c -32,-30 -71,-56 -78,-52 -10,6 -25,-34 -16,-42 10,-11 83,31 104,60 8,10 20,16 27,13 14,-5 28,18 18,28 -11,10 -41,7 -55,-7 z"
       id="path3029" />
    <path
       inkscape:connector-curvature="0"
       d="m 4673,8541 c -18,-9 -32,-19 -33,-23 0,-5 0,-13 0,-19 0,-6 -7,-8 -16,-5 -9,3 -25,-4 -40,-19 -14,-14 -29,-25 -34,-25 -12,0 -50,-32 -50,-42 0,-5 7,-8 15,-8 8,0 15,-5 15,-11 0,-5 4,-8 9,-5 5,3 14,-8 21,-24 7,-17 16,-30 21,-30 5,0 9,-9 9,-20 0,-34 25,-33 64,5 21,19 46,35 55,35 34,0 52,42 20,46 -5,1 -13,2 -18,3 -10,1 -41,74 -41,96 0,47 84,-24 85,-72 0,-25 0,-25 32,-17 35,9 36,33 3,67 -16,17 -30,34 -30,37 0,3 -13,16 -28,27 -27,20 -30,20 -59,4 z m -13,-147 c 19,-56 -10,-74 -45,-28 -31,41 -36,62 -18,79 14,15 17,14 34,-1 10,-9 23,-32 29,-50 z"
       id="path3031" />
    <path
       inkscape:connector-curvature="0"
       d="m 4251,8396 c -12,-15 -3,-67 42,-236 6,-25 12,-47 12,-50 0,-3 4,-11 9,-18 6,-11 11,-9 23,8 14,19 14,27 -1,73 -8,29 -22,81 -31,117 -8,36 -17,74 -20,84 -7,30 -21,38 -34,22 z"
       id="path3033" />
    <path
       inkscape:connector-curvature="0"
       d="m 4418,8369 c -11,-12 -18,-35 -18,-62 0,-34 6,-49 28,-70 51,-49 113,-28 141,46 9,24 8,27 -9,27 -14,0 -20,-7 -20,-24 0,-27 -18,-37 -52,-31 -29,6 -48,31 -48,65 0,37 7,40 45,24 29,-12 34,-12 39,3 16,42 -72,60 -106,22 z"
       id="path3035" />
    <path
       inkscape:connector-curvature="0"
       d="m 4148,8171 c -20,-20 -14,-31 14,-31 12,0 24,-13 34,-36 14,-33 12,-74 -4,-74 -7,0 -59,59 -87,96 -11,16 -14,15 -33,-4 -12,-12 -22,-27 -22,-33 0,-5 -5,-7 -11,-4 -19,12 -67,-16 -78,-46 -14,-42 14,-74 62,-71 37,3 59,-14 36,-28 -7,-5 -21,-4 -30,1 -23,12 -35,-6 -19,-26 18,-21 41,-18 74,8 24,20 27,28 22,54 -7,33 -27,42 -103,51 -7,1 -13,7 -13,13 0,6 9,8 22,4 16,-6 26,-1 39,16 l 19,24 44,-47 c 24,-27 51,-48 59,-48 9,0 28,11 44,24 15,12 38,28 51,35 28,15 29,41 1,41 -13,0 -25,11 -34,33 -30,68 -55,81 -87,48 z"
       id="path3037" />
    <path
       inkscape:connector-curvature="0"
       d="m 3852,7977 c -36,-38 -36,-82 0,-122 59,-68 148,-29 139,63 -2,20 -21,14 -21,-7 0,-46 -22,-61 -64,-45 -26,10 -18,32 19,56 60,40 57,63 -10,73 -34,6 -43,3 -63,-18 z m 58,-22 c 0,-15 -34,-38 -43,-29 -2,3 -3,14 0,25 6,22 43,26 43,4 z"
       id="path3039" />
    <path
       inkscape:connector-curvature="0"
       d="m 3474,7866 c -18,-14 -16,-16 36,-39 31,-14 61,-31 67,-38 6,-8 13,-41 16,-74 7,-70 14,-92 32,-99 24,-9 38,20 27,56 -6,18 -13,45 -16,61 -6,24 -4,26 11,18 92,-47 125,-52 131,-19 2,12 -14,24 -57,43 -33,15 -68,36 -77,46 -9,11 -22,19 -28,19 -7,0 -29,9 -51,20 -47,24 -65,25 -91,6 z"
       id="path3041" />
    <path
       inkscape:connector-curvature="0"
       d="m 5695,7132 c -38,-4 -54,-19 -32,-28 17,-6 23,-50 9,-69 -4,-5 -27,-17 -51,-25 -39,-13 -47,-21 -65,-64 -18,-44 -18,-51 -5,-75 17,-31 43,-38 75,-20 18,9 27,9 37,0 19,-15 42,-6 62,25 14,21 14,24 0,24 -8,0 -15,-5 -15,-11 0,-5 -4,-8 -9,-5 -8,5 2,87 13,104 2,4 7,30 10,57 4,28 9,57 12,67 6,20 -3,25 -41,20 z m -35,-177 c 0,-44 -25,-85 -52,-85 -17,0 -19,5 -16,38 6,47 27,82 50,82 14,0 18,-8 18,-35 z"
       id="path3043" />
    <path
       inkscape:connector-curvature="0"
       d="m 5776,7101 c -4,-5 1,-14 11,-20 12,-6 18,-24 19,-58 4,-81 -7,-153 -22,-153 -8,0 -14,-4 -14,-10 0,-10 29,-12 170,-14 l 65,-1 3,34 c 5,45 -14,63 -27,28 -6,-15 -17,-27 -26,-28 -64,-4 -69,-3 -76,23 -4,14 -3,32 2,39 4,7 6,16 3,20 -2,4 5,5 15,2 11,-3 22,-14 25,-26 8,-32 22,-10 30,46 6,39 5,47 -8,47 -9,0 -21,-9 -28,-20 -21,-33 -38,-24 -38,19 0,22 5,43 10,46 16,10 80,-15 80,-31 0,-8 9,-14 21,-14 17,0 20,5 17,38 l -3,37 -112,3 c -64,1 -114,-1 -117,-7 z"
       id="path3045" />
    <path
       inkscape:connector-curvature="0"
       d="m 4196,7072 c -3,-5 -19,-7 -35,-4 -25,3 -32,0 -42,-22 -9,-20 -9,-29 1,-41 8,-10 10,-29 5,-61 -6,-44 -5,-45 17,-42 19,2 25,12 33,56 8,41 16,56 35,65 28,14 34,50 8,55 -9,2 -19,-1 -22,-6 z"
       id="path3047" />
    <path
       inkscape:connector-curvature="0"
       d="m 2046,7049 c -29,-23 -27,-40 4,-32 15,4 21,-1 25,-23 4,-16 8,-33 9,-39 2,-5 -12,-27 -31,-49 -31,-33 -34,-43 -28,-75 14,-79 76,-117 109,-67 9,15 25,26 35,26 21,0 36,16 44,48 6,26 -8,29 -22,5 -9,-17 -10,-17 -16,2 -4,11 -10,27 -14,35 -4,8 -20,54 -36,103 -16,48 -34,87 -40,87 -7,0 -24,-9 -39,-21 z m 73,-176 c 6,-21 11,-48 11,-61 0,-30 -29,-41 -46,-17 -14,19 -19,96 -7,108 16,16 33,4 42,-30 z"
       id="path3049" />
    <path
       inkscape:connector-curvature="0"
       d="m 2265,7044 c -8,-9 -15,-20 -15,-26 0,-6 -9,-8 -19,-5 -28,7 -38,-4 -46,-48 -6,-36 -5,-38 8,-22 19,23 44,22 57,-2 14,-28 13,-50 -6,-68 -14,-15 -14,-17 0,-25 21,-12 36,-2 36,24 0,16 4,19 24,14 19,-5 29,0 40,16 22,32 20,38 -11,32 -24,-5 -31,0 -47,26 -18,31 -18,32 3,54 25,26 26,32 6,40 -8,3 -21,-2 -30,-10 z"
       id="path3051" />
    <path
       inkscape:connector-curvature="0"
       d="m 5065,6951 c -3,-6 2,-14 11,-19 16,-9 16,-16 1,-97 -9,-48 -23,-95 -32,-104 -24,-28 -19,-31 48,-31 61,0 62,1 40,18 -19,14 -22,23 -17,54 6,33 11,39 43,48 69,18 110,95 67,125 -23,17 -151,21 -161,6 z m 118,-26 c 13,-9 17,-20 12,-34 -16,-53 -70,-64 -59,-12 15,68 17,70 47,46 z"
       id="path3053" />
    <path
       inkscape:connector-curvature="0"
       d="m 6607,6796 c -12,-9 -14,-16 -7,-21 12,-7 40,11 40,26 0,13 -12,11 -33,-5 z"
       id="path3055" />
    <path
       inkscape:connector-curvature="0"
       d="m 6518,6716 c -40,-35 -46,-46 -25,-46 15,1 77,56 77,70 0,17 -13,11 -52,-24 z"
       id="path3057" />
    <path
       inkscape:connector-curvature="0"
       d="m 6358,6585 c -48,-43 -56,-55 -39,-55 11,0 104,78 109,91 9,22 -28,4 -70,-36 z"
       id="path3059" />
    <path
       inkscape:connector-curvature="0"
       d="m 6191,6451 c -24,-20 -42,-43 -39,-51 2,-8 23,6 58,38 63,59 47,70 -19,13 z"
       id="path3061" />
    <path
       inkscape:connector-curvature="0"
       d="m 5175,6350 c 13,-14 16,-28 11,-54 -6,-31 -11,-35 -46,-41 -67,-11 -114,-88 -91,-148 11,-29 45,-36 81,-17 13,7 21,7 25,0 11,-18 41,-11 63,15 26,30 27,37 5,33 -20,-4 -22,18 -6,77 16,63 30,145 25,150 -3,3 -23,5 -45,5 -39,0 -40,0 -22,-20 z m -19,-167 c -10,-71 -66,-111 -66,-47 0,30 24,80 42,87 27,11 30,6 24,-40 z"
       id="path3063" />
    <path
       inkscape:connector-curvature="0"
       d="m 5293,6336 c -4,-5 2,-15 11,-22 17,-12 17,-17 0,-101 -10,-48 -24,-95 -32,-105 -20,-24 -4,-29 89,-26 88,2 119,17 119,58 0,27 -12,25 -40,-5 -17,-18 -34,-25 -61,-25 l -38,0 5,43 c 7,55 17,64 43,36 15,-17 21,-19 25,-8 2,8 9,29 15,46 13,42 -2,53 -33,24 -34,-32 -35,-31 -28,52 3,24 57,23 79,-2 9,-11 20,-18 25,-15 13,8 9,54 -4,56 -41,6 -171,2 -175,-6 z"
       id="path3065" />
    <path
       inkscape:connector-curvature="0"
       d="m 5531,6111 c -19,-13 -24,-106 -6,-121 8,-7 21,-10 29,-7 11,4 12,0 7,-21 -6,-20 -13,-26 -29,-24 -14,2 -22,-2 -22,-11 0,-24 29,-28 60,-10 22,13 32,30 45,77 22,84 24,121 5,121 -9,0 -16,-11 -18,-27 -2,-16 -7,-28 -12,-28 -4,0 -11,-11 -14,-25 -8,-31 -27,-33 -20,-2 16,67 6,97 -25,78 z"
       id="path3067" />
    <path
       inkscape:connector-curvature="0"
       d="m 4090,5902 c -65,-69 -86,-185 -45,-248 37,-56 108,-4 143,106 25,81 15,151 -25,169 -33,15 -32,16 -73,-27 z m 60,-46 c 0,-35 -20,-53 -44,-39 -10,6 -10,15 1,41 18,43 43,43 43,-2 z m -22,-108 c 2,-15 -4,-38 -14,-53 -13,-21 -19,-23 -31,-13 -14,11 -11,67 4,91 11,17 38,1 41,-25 z"
       id="path3069" />
    <path
       inkscape:connector-curvature="0"
       d="m 3936,5921 c -32,-6 -48,-31 -21,-31 13,0 15,-6 10,-32 -10,-46 -12,-48 -46,-48 -40,0 -85,-45 -95,-95 -11,-61 25,-100 71,-75 19,10 28,11 37,2 27,-27 79,5 78,48 -1,12 -3,12 -11,-2 -5,-10 -15,-18 -21,-18 -12,0 -10,10 25,137 29,104 24,124 -27,114 z m -36,-166 c 0,-47 -29,-95 -58,-95 -17,0 -12,63 7,98 16,31 51,29 51,-3 z"
       id="path3071" />
    <path
       inkscape:connector-curvature="0"
       d="m 6843,5866 c -22,-19 -25,-27 -16,-37 8,-7 10,-29 6,-60 -4,-32 -1,-54 7,-64 8,-10 9,-15 1,-15 -15,0 -14,-33 1,-48 38,-38 97,15 127,113 29,96 30,118 7,123 -22,5 -36,-13 -36,-47 0,-27 -47,-94 -60,-86 -4,3 0,31 10,62 12,40 15,62 8,71 -15,17 -23,15 -55,-12 z m 57,-176 c 0,-13 -7,-20 -20,-20 -22,0 -28,25 -7,33 22,10 27,7 27,-13 z"
       id="path3073" />
    <path
       inkscape:connector-curvature="0"
       d="m 6343,5103 c -16,-6 -17,-33 -3,-33 11,0 26,28 19,34 -2,2 -10,1 -16,-1 z"
       id="path3075" />
    <path
       inkscape:connector-curvature="0"
       d="m 6267,5053 c -14,-13 -6,-24 15,-21 27,4 36,28 11,28 -11,0 -23,-3 -26,-7 z"
       id="path3077" />
    <path
       inkscape:connector-curvature="0"
       d="m 94,5014 c -27,-19 -59,-39 -71,-44 -13,-6 -23,-18 -23,-30 0,-22 14,-26 33,-10 41,35 96,74 121,87 22,12 26,17 15,24 -20,13 -21,12 -75,-27 z"
       id="path3079" />
    <path
       inkscape:connector-curvature="0"
       d="m 6177,4994 c -27,-15 -32,-34 -11,-41 6,-2 23,6 37,17 47,37 28,54 -26,24 z"
       id="path3081" />
    <path
       inkscape:connector-curvature="0"
       d="m 6065,4916 c -17,-7 -36,-21 -44,-30 -8,-10 -31,-26 -50,-36 -41,-20 -77,-57 -68,-67 4,-3 19,0 35,8 29,15 33,17 77,54 17,14 35,25 41,25 15,0 47,37 43,49 -3,6 -15,5 -34,-3 z"
       id="path3083" />
    <path
       inkscape:connector-curvature="0"
       d="m 6491,4867 c -6,-8 -8,-17 -4,-20 7,-8 33,11 33,24 0,13 -16,11 -29,-4 z"
       id="path3085" />
    <path
       inkscape:connector-curvature="0"
       d="m 6440,4829 c 0,-6 -6,-9 -12,-7 -7,3 -22,-3 -32,-13 -18,-18 -18,-19 -1,-25 12,-5 23,-1 32,12 8,10 18,18 23,17 4,-1 14,4 20,12 10,12 9,15 -9,15 -11,0 -21,-5 -21,-11 z"
       id="path3087" />
    <path
       inkscape:connector-curvature="0"
       d="m 6291,4739 c -13,-16 -21,-32 -18,-35 8,-9 88,38 84,50 -7,23 -42,15 -66,-15 z"
       id="path3089" />
    <path
       inkscape:connector-curvature="0"
       d="m 5793,4727 c -12,-12 -39,-31 -60,-42 -54,-28 -93,-65 -93,-87 0,-18 4,-16 38,10 20,16 51,37 67,46 41,22 106,81 98,89 -11,12 -27,7 -50,-16 z"
       id="path3091" />
    <path
       inkscape:connector-curvature="0"
       d="m 6165,4645 c -16,-14 -35,-25 -41,-25 -6,0 -22,-10 -35,-21 -13,-12 -39,-33 -56,-46 -18,-14 -33,-29 -33,-33 0,-16 30,-4 69,28 22,18 44,32 49,32 12,0 95,68 100,81 7,17 -23,8 -53,-16 z"
       id="path3093" />
    <path
       inkscape:connector-curvature="0"
       d="m 5519,4532 c -86,-57 -113,-76 -127,-89 -7,-7 -18,-13 -23,-13 -5,0 -9,-4 -9,-10 0,-23 48,-7 90,30 25,22 50,40 56,40 18,0 88,66 78,73 -6,3 -35,-11 -65,-31 z"
       id="path3095" />
    <path
       inkscape:connector-curvature="0"
       d="m 5886,4453 c -28,-15 -40,-23 -69,-49 -7,-6 -24,-18 -39,-28 -16,-10 -28,-22 -28,-27 0,-18 28,-8 70,24 24,17 59,41 78,52 62,35 50,62 -12,28 z"
       id="path3097" />
    <path
       inkscape:connector-curvature="0"
       d="m 5268,4363 c -4,-10 -94,-73 -105,-73 -17,-1 -75,-59 -69,-69 7,-10 42,10 122,69 23,16 46,30 52,30 16,0 43,30 37,41 -7,11 -32,12 -37,2 z"
       id="path3099" />
    <path
       inkscape:connector-curvature="0"
       d="m 5607,4260 c -30,-22 -60,-40 -64,-40 -14,0 -56,-47 -46,-53 14,-8 193,107 193,124 0,18 -29,8 -83,-31 z"
       id="path3101" />
    <path
       inkscape:connector-curvature="0"
       d="m 5860,4249 c -98,-20 -120,-29 -135,-58 -19,-37 -9,-46 23,-20 35,27 45,8 30,-63 -6,-30 -9,-62 -5,-71 6,-16 8,-16 27,0 11,10 20,27 20,39 0,12 6,25 13,27 10,4 10,6 0,6 -15,1 -18,51 -3,51 5,0 6,7 3,17 -5,11 -3,14 6,8 8,-4 11,-20 8,-39 -6,-38 16,-96 37,-96 20,0 23,25 12,81 -12,57 -4,79 28,79 24,0 41,23 30,41 -6,11 -33,10 -94,-2 z"
       id="path3103" />
    <path
       inkscape:connector-curvature="0"
       d="m 6486,4231 c -55,-60 -60,-238 -9,-277 74,-56 143,74 113,215 -13,63 -29,81 -68,81 -10,0 -27,-9 -36,-19 z m 54,-67 c 0,-30 -3,-34 -26,-34 -24,0 -25,2 -19,33 13,58 45,59 45,1 z m 4,-91 c 3,-10 2,-34 -2,-53 -6,-26 -13,-35 -27,-35 -16,0 -21,8 -23,39 -2,21 -1,44 2,52 8,20 44,17 50,-3 z"
       id="path3105" />
    <path
       inkscape:connector-curvature="0"
       d="m 4984,4165 c -22,-19 -45,-35 -52,-35 -22,0 -73,-53 -62,-64 6,-6 16,-4 28,7 10,9 25,17 34,17 8,0 25,12 39,26 13,14 41,35 62,45 21,11 35,24 32,29 -12,19 -43,9 -81,-25 z"
       id="path3107" />
    <path
       inkscape:connector-curvature="0"
       d="m 5360,4094 c -103,-70 -140,-99 -137,-107 5,-15 15,-13 54,16 21,15 60,42 87,60 50,33 69,58 44,56 -7,0 -29,-11 -48,-25 z"
       id="path3109" />
    <path
       inkscape:connector-curvature="0"
       d="m 6197,4060 c -48,-10 -90,-20 -93,-22 -2,-3 -2,-12 1,-20 5,-13 20,-12 113,5 103,19 132,29 132,48 0,13 -53,9 -153,-11 z"
       id="path3111" />
    <path
       inkscape:connector-curvature="0"
       d="m 4745,4000 c -21,-16 -43,-30 -49,-30 -14,0 -76,-58 -76,-71 0,-14 11,-11 46,16 18,14 37,25 42,25 5,0 25,13 43,30 19,16 41,30 50,30 9,0 16,7 16,15 0,24 -31,17 -72,-15 z"
       id="path3113" />
    <path
       inkscape:connector-curvature="0"
       d="m 5918,4020 c -15,-4 -45,-11 -65,-14 -65,-10 -98,-22 -98,-37 0,-13 30,-15 87,-4 10,2 20,0 23,-6 4,-5 2,-9 -2,-9 -5,0 -16,-12 -24,-27 -21,-38 -11,-87 19,-91 28,-4 31,28 2,35 -24,6 -25,16 -5,37 18,17 41,12 54,-13 10,-17 -29,-112 -57,-140 -12,-13 -12,-16 3,-28 10,-7 22,-10 27,-7 16,10 68,13 68,4 0,-6 -3,-11 -7,-11 -5,-1 -17,-3 -28,-5 -11,-1 -56,-12 -100,-22 -44,-11 -102,-23 -130,-27 -47,-6 -178,-32 -287,-56 -26,-6 -71,-15 -100,-19 -29,-5 -78,-14 -108,-20 -30,-6 -66,-12 -80,-14 -14,-3 -68,-14 -120,-25 -52,-11 -160,-32 -240,-46 -80,-14 -158,-30 -175,-35 -16,-4 -52,-11 -79,-14 l -49,-6 19,21 c 10,12 33,28 51,35 35,15 47,29 38,44 -7,11 -30,0 -96,-50 -62,-47 -108,-73 -142,-81 -25,-6 -31,-3 -44,25 -36,78 -62,111 -104,131 -32,16 -38,16 -70,1 -37,-18 -87,-50 -134,-89 -16,-14 -48,-35 -70,-47 -22,-12 -51,-32 -65,-44 -24,-21 -196,-139 -263,-181 -18,-11 -43,-30 -57,-43 -14,-13 -38,-30 -55,-39 -16,-9 -46,-28 -65,-43 -19,-15 -84,-61 -145,-102 -60,-41 -157,-107 -215,-147 -58,-40 -121,-83 -140,-97 -19,-13 -53,-37 -76,-54 -23,-16 -45,-30 -49,-30 -4,0 -26,-15 -49,-33 -23,-19 -52,-40 -66,-47 -14,-7 -44,-28 -67,-46 -23,-19 -44,-34 -47,-34 -3,0 -41,-24 -84,-54 -42,-29 -106,-73 -142,-97 -35,-24 -71,-50 -79,-58 -9,-8 -29,-20 -46,-27 -18,-7 -37,-20 -45,-29 -12,-15 -123,-92 -182,-128 -17,-10 -50,-32 -74,-50 -23,-18 -65,-48 -93,-67 -28,-19 -77,-54 -108,-77 -31,-24 -59,-43 -62,-43 -4,0 -33,-20 -66,-45 -33,-25 -66,-45 -72,-45 -7,0 -13,-4 -13,-9 0,-5 -28,-27 -62,-49 -35,-23 -101,-68 -148,-101 -46,-34 -92,-63 -101,-66 -9,-3 -33,-21 -54,-40 -20,-19 -41,-35 -46,-35 -5,0 -29,-16 -55,-35 -25,-19 -50,-35 -56,-35 -18,0 -56,-48 -63,-80 -5,-23 0,-45 21,-88 32,-66 46,-81 95,-107 37,-18 38,-18 103,4 64,21 90,29 131,35 17,3 305,68 417,95 20,5 39,6 42,4 2,-3 11,-1 18,3 7,5 22,10 33,11 11,2 108,23 215,48 107,24 206,47 220,50 14,2 57,12 95,20 39,9 82,18 97,20 14,2 95,20 180,40 84,21 173,41 198,45 25,5 77,16 115,25 39,9 90,21 115,25 25,5 56,11 70,14 31,7 393,92 476,111 33,8 71,15 85,15 14,0 29,4 35,9 5,5 41,14 79,20 39,7 84,16 100,21 17,4 82,20 145,34 165,37 286,65 355,81 267,65 817,190 877,200 18,3 87,19 153,34 66,16 165,38 220,50 96,21 123,28 210,50 22,5 60,13 84,16 23,3 54,10 67,15 13,5 24,7 24,5 0,-2 12,0 26,6 15,5 43,12 63,15 20,3 81,16 136,29 55,13 134,31 175,40 41,9 120,27 175,40 55,13 114,26 130,28 43,6 310,65 378,84 57,16 84,33 52,33 -18,0 -165,-31 -330,-69 -66,-16 -205,-47 -310,-70 -104,-23 -237,-53 -295,-66 -58,-13 -127,-29 -155,-34 -27,-6 -120,-27 -205,-47 -218,-50 -274,-62 -363,-79 -43,-8 -83,-17 -88,-21 -5,-3 -62,-17 -127,-31 -64,-13 -144,-31 -177,-38 -33,-8 -82,-19 -110,-25 -27,-6 -119,-27 -203,-47 -84,-19 -155,-33 -157,-31 -2,2 -13,46 -25,98 -25,114 -28,123 -38,116 -9,-5 -3,-57 18,-155 6,-30 8,-57 3,-62 -9,-9 -98,-32 -243,-63 -41,-9 -102,-23 -135,-31 -33,-8 -121,-28 -195,-45 -74,-17 -172,-40 -216,-51 -88,-20 -164,-37 -344,-75 -63,-13 -164,-36 -225,-50 -220,-51 -362,-83 -460,-104 -55,-11 -113,-25 -130,-29 -16,-5 -52,-14 -80,-20 -47,-9 -226,-49 -415,-91 -47,-10 -170,-38 -275,-61 -104,-23 -217,-48 -250,-55 -145,-34 -340,-72 -345,-67 -6,6 81,83 94,83 5,0 32,17 60,38 52,39 60,44 156,109 30,21 70,50 88,65 18,15 38,28 43,28 6,0 33,18 59,40 26,22 50,40 53,40 9,0 102,63 105,72 2,4 9,8 17,8 7,0 18,7 25,14 6,8 63,50 126,93 62,43 144,99 181,125 38,26 73,47 78,47 6,1 16,10 23,21 7,11 18,20 25,20 7,0 26,14 42,30 16,17 33,30 38,30 6,0 33,17 61,38 28,21 62,45 76,52 14,7 34,20 45,30 11,10 38,28 60,40 22,12 54,33 70,47 17,13 57,44 90,67 57,42 77,55 154,101 18,11 55,37 81,58 26,20 52,37 57,37 4,0 26,15 48,33 21,17 53,41 72,52 18,11 73,48 123,83 49,34 92,62 96,62 3,0 25,16 48,35 24,19 46,35 51,35 4,0 30,18 57,40 28,22 56,40 63,40 8,0 15,3 17,8 5,11 100,82 110,82 5,0 31,18 57,40 26,22 52,40 59,40 6,0 31,17 56,38 57,48 154,108 167,104 6,-1 8,1 6,5 -8,13 81,76 97,70 8,-3 15,-14 15,-24 1,-43 5,-58 15,-65 20,-13 23,3 10,59 -8,32 -11,70 -8,84 4,22 9,25 31,21 14,-3 28,1 33,7 4,7 22,15 41,18 19,2 52,9 74,13 22,5 110,23 195,40 85,17 196,39 245,49 50,11 133,27 185,36 52,9 138,25 190,35 219,44 247,50 280,55 19,3 69,12 110,20 157,33 216,44 245,49 34,6 77,14 120,23 17,3 40,7 52,9 12,1 64,11 115,22 117,26 330,66 448,86 32,6 160,31 280,56 52,10 113,22 135,26 22,4 48,11 59,16 31,17 0,26 -52,16 -63,-13 -172,-35 -252,-53 -36,-8 -110,-21 -165,-30 -55,-9 -116,-21 -135,-25 -19,-5 -107,-23 -195,-40 -88,-17 -191,-37 -230,-45 -109,-22 -135,-25 -135,-16 0,5 7,14 15,21 17,14 20,66 4,75 -6,4 -13,-2 -16,-14 -6,-23 -6,-23 -45,-25 l -27,-2 30,40 c 17,24 29,52 29,71 0,35 -31,75 -58,75 -15,0 -15,2 -2,10 8,5 25,10 37,10 30,0 59,30 41,41 -15,10 -14,10 -50,-1 z M 4171,3509 c 43,-30 77,-96 77,-146 -1,-36 -6,-47 -32,-66 -48,-37 -444,-311 -811,-562 -447,-306 -981,-673 -1170,-805 -121,-84 -265,-185 -320,-222 -55,-38 -172,-119 -260,-180 -316,-220 -536,-368 -545,-368 -5,0 -13,12 -16,28 -12,45 -60,116 -93,135 -17,10 -31,22 -31,27 0,5 87,68 192,141 106,73 255,176 330,229 259,181 394,274 643,445 549,376 1233,846 1285,883 30,21 159,109 285,197 127,87 266,184 310,215 110,78 114,80 156,49 z M 986,1299 c 57,-35 100,-132 73,-165 -37,-45 -149,71 -149,156 0,37 26,40 76,9 z"
       id="path3115" />
    <path
       inkscape:connector-curvature="0"
       d="m 7345,3969 c -4,-6 -5,-13 -2,-16 7,-7 27,6 27,18 0,12 -17,12 -25,-2 z"
       id="path3117" />
    <path
       inkscape:connector-curvature="0"
       d="m 5108,3919 c -10,-5 -18,-7 -18,-4 0,3 -14,-7 -32,-24 -18,-16 -43,-36 -57,-43 -30,-15 -35,-19 -76,-52 -31,-25 -28,-50 3,-28 9,7 31,19 47,27 17,7 48,30 70,49 22,20 47,36 56,36 15,0 49,30 49,43 0,10 -22,8 -42,-4 z"
       id="path3119" />
    <path
       inkscape:connector-curvature="0"
       d="m 4513,3842 c -17,-15 -46,-36 -64,-47 -19,-11 -35,-28 -37,-38 -4,-18 -2,-18 30,-1 18,9 53,32 77,50 24,19 47,31 52,28 5,-3 9,4 9,15 0,29 -28,26 -67,-7 z"
       id="path3121" />
    <path
       inkscape:connector-curvature="0"
       d="m 4253,3664 c -56,-38 -80,-60 -76,-70 5,-13 9,-13 29,1 13,8 24,13 24,9 0,-4 26,15 58,42 31,26 59,49 61,51 3,2 0,8 -5,13 -6,6 -39,-10 -91,-46 z"
       id="path3123" />
    <path
       inkscape:connector-curvature="0"
       d="m 4759,3681 c -48,-27 -129,-93 -129,-104 0,-15 23,-5 65,26 25,17 65,45 90,60 44,28 58,48 33,46 -7,-1 -34,-13 -59,-28 z"
       id="path3125" />
    <path
       inkscape:connector-curvature="0"
       d="m 4184,3193 c -13,-3 -31,-26 -53,-70 -27,-55 -33,-78 -32,-131 0,-53 4,-69 22,-88 13,-13 30,-24 39,-24 18,0 61,42 79,78 24,46 40,139 30,175 -7,25 -46,68 -59,65 -3,0 -14,-3 -26,-5 z m 34,-84 c -2,-28 -7,-35 -29,-37 -24,-3 -26,0 -21,25 6,35 32,67 44,55 5,-5 8,-25 6,-43 z m -21,-116 c -4,-20 -13,-44 -22,-52 -14,-14 -17,-14 -25,-1 -9,13 -5,63 7,83 2,4 14,7 25,7 18,0 20,-4 15,-37 z"
       id="path3127" />
    <path
       inkscape:connector-curvature="0"
       d="m 4297,3123 c -7,-13 27,-141 41,-155 14,-14 14,-13 -5,104 -5,37 -27,67 -36,51 z"
       id="path3129" />
    <path
       inkscape:connector-curvature="0"
       d="m 4350,2868 c 0,-34 24,-136 34,-146 15,-14 15,11 0,91 -16,87 -34,116 -34,55 z"
       id="path3131" />
    <path
       inkscape:connector-curvature="0"
       d="m 4975,2841 c -3,-6 2,-14 11,-19 13,-7 15,-18 10,-49 -7,-36 -10,-39 -34,-36 -38,6 -98,-50 -107,-101 -6,-31 -4,-42 14,-59 17,-18 25,-20 48,-11 19,7 37,7 55,0 23,-8 33,-6 58,13 l 31,22 28,-30 c 45,-48 71,-38 115,41 19,34 28,68 32,120 5,65 4,75 -15,96 -38,39 -66,28 -114,-43 -17,-26 -29,-62 -35,-105 -5,-45 -12,-64 -21,-62 -7,1 -19,-3 -27,-9 -8,-7 -16,-10 -18,-8 -2,2 9,56 25,118 15,63 25,119 23,123 -7,11 -72,10 -79,-1 z m 218,-44 c 3,-7 3,-25 0,-40 -4,-22 -11,-27 -34,-27 -30,0 -31,7 -6,58 12,24 32,29 40,9 z m -218,-97 c 3,-5 -2,-32 -12,-60 -14,-40 -22,-50 -40,-50 -16,0 -23,6 -23,19 0,20 23,81 36,94 10,10 32,9 39,-3 z m 195,-35 c 0,-31 -19,-72 -37,-79 -17,-7 -24,10 -19,49 2,17 4,35 5,40 0,6 12,12 26,13 20,1 25,-3 25,-23 z"
       id="path3133" />
    <path
       inkscape:connector-curvature="0"
       d="m 4556,2811 c -3,-5 1,-12 10,-15 13,-5 15,-15 9,-54 -9,-65 -37,-152 -48,-152 -5,0 -4,-6 2,-14 13,-15 37,-18 80,-10 21,5 22,6 7,22 -11,13 -14,29 -9,55 5,34 8,37 40,37 l 35,0 -7,-46 c -7,-51 9,-73 53,-74 26,0 29,12 7,30 -11,9 -14,22 -10,42 5,21 2,35 -10,48 -16,18 -16,20 4,37 26,22 27,64 3,86 -14,13 -38,17 -90,17 -39,0 -73,-4 -76,-9 z m 125,-21 c 13,0 11,-54 -3,-68 -7,-7 -22,-12 -33,-12 -18,0 -21,5 -18,33 7,50 12,60 29,53 9,-3 20,-6 25,-6 z"
       id="path3135" />
    <path
       inkscape:connector-curvature="0"
       d="m 2146,2679 c -15,-15 -17,-22 -8,-31 7,-7 12,-8 12,-2 0,5 7,-4 15,-20 20,-38 19,-49 -9,-76 -38,-34 -42,-74 -15,-131 26,-57 55,-65 92,-25 12,13 31,25 41,27 19,4 29,18 41,54 5,15 8,16 15,6 11,-19 38,-7 50,23 7,18 14,23 30,19 25,-7 50,13 50,38 0,16 -5,18 -25,13 -46,-12 -93,63 -50,80 21,8 19,23 -5,36 -17,9 -22,7 -30,-15 -6,-15 -17,-25 -29,-25 -25,0 -44,-33 -38,-68 4,-26 5,-26 12,-5 6,19 10,20 31,11 13,-6 26,-20 30,-30 7,-23 -21,-58 -48,-58 -10,0 -18,-7 -18,-17 -1,-21 -59,94 -60,117 -1,28 -39,100 -52,99 -7,0 -22,-9 -32,-20 z m 70,-171 c 18,-35 11,-98 -10,-98 -22,0 -48,82 -36,114 12,31 24,27 46,-16 z"
       id="path3137" />
    <path
       inkscape:connector-curvature="0"
       d="m 4398,2643 c -5,-27 27,-156 40,-161 16,-5 15,21 -5,106 -16,71 -28,89 -35,55 z"
       id="path3139" />
    <path
       inkscape:connector-curvature="0"
       d="m 7395,2541 c -10,-17 12,-21 25,-6 10,12 10,15 -3,15 -9,0 -18,-4 -22,-9 z"
       id="path3141" />
    <path
       inkscape:connector-curvature="0"
       d="m 7330,2525 c 0,-9 5,-15 11,-13 6,2 11,8 11,13 0,5 -5,11 -11,13 -6,2 -11,-4 -11,-13 z"
       id="path3143" />
    <path
       inkscape:connector-curvature="0"
       d="m 7215,2513 c -31,-7 -41,-21 -21,-29 21,-8 69,12 61,26 -6,10 -8,11 -40,3 z"
       id="path3145" />
    <path
       inkscape:connector-curvature="0"
       d="m 4454,2358 c 3,-25 10,-57 16,-72 5,-15 10,-41 10,-57 0,-19 5,-29 15,-29 18,0 18,5 -4,109 -19,92 -46,127 -37,49 z"
       id="path3147" />
    <path
       inkscape:connector-curvature="0"
       d="m 730,1227 c -66,-40 -82,-55 -78,-72 3,-15 6,-15 31,5 15,12 27,19 27,15 0,-3 6,-1 13,5 6,5 24,19 40,31 53,40 27,52 -33,16 z"
       id="path3149" />
    <path
       inkscape:connector-curvature="0"
       d="m 5615,1223 c 8,-21 8,-21 6,-56 -1,-21 -6,-28 -18,-26 -52,6 -103,-48 -103,-110 0,-43 45,-66 70,-36 11,14 15,14 30,0 22,-20 65,-3 67,26 2,24 -13,25 -27,2 -8,-15 -9,-12 -5,12 11,66 17,92 32,138 18,54 11,67 -36,67 -18,0 -22,-4 -16,-17 z m -11,-135 c -8,-43 -31,-78 -49,-78 -25,0 -18,52 10,83 34,36 46,34 39,-5 z"
       id="path3151" />
    <path
       inkscape:connector-curvature="0"
       d="m 5759,1228 c -44,-36 -72,-136 -57,-196 6,-24 18,-37 40,-47 30,-12 33,-11 52,14 11,14 23,28 26,31 17,16 25,145 10,180 -13,32 -44,40 -71,18 z m 35,-72 c -8,-22 -34,-20 -34,2 0,27 22,46 32,28 4,-8 5,-21 2,-30 z m -18,-100 c -3,-13 -13,-26 -21,-30 -21,-8 -20,38 2,60 20,19 28,6 19,-30 z"
       id="path3153" />
    <path
       inkscape:connector-curvature="0"
       d="m 5240,1194 c 0,-8 5,-12 10,-9 14,9 13,-15 -6,-98 -9,-39 -24,-77 -33,-84 -13,-10 -7,-12 37,-13 28,0 52,5 52,10 0,6 -4,10 -10,10 -16,0 -12,56 5,70 24,20 43,4 47,-37 2,-27 9,-41 25,-49 13,-6 20,-14 15,-19 -4,-4 3,-2 15,5 20,13 20,15 6,37 -8,13 -13,34 -11,48 3,14 1,25 -3,25 -12,0 -11,37 1,45 17,11 11,54 -9,65 -11,5 -47,10 -80,10 -49,0 -61,-3 -61,-16 z m 120,-25 c 0,-24 -22,-49 -44,-49 -11,0 -16,9 -16,28 0,35 6,42 37,42 17,0 23,-6 23,-21 z"
       id="path3155" />
    <path
       inkscape:connector-curvature="0"
       d="m 550,1105 c -6,-8 -32,-26 -56,-40 -43,-25 -60,-62 -29,-62 8,0 13,2 10,5 -2,3 15,17 38,33 23,15 53,39 66,53 24,25 24,26 4,26 -11,0 -26,-7 -33,-15 z"
       id="path3157" />
    <path
       inkscape:connector-curvature="0"
       d="m 4501,1071 c -55,-54 -82,-153 -61,-227 12,-41 15,-44 46,-44 24,0 41,8 63,33 17,17 31,37 31,43 0,6 7,25 16,43 22,43 22,123 0,155 -22,35 -58,33 -95,-3 z m 55,-26 c 4,-8 3,-26 0,-40 -5,-18 -13,-25 -31,-25 -29,0 -30,6 -9,48 17,35 31,41 40,17 z m -20,-122 c -2,-10 -7,-33 -11,-50 -4,-23 -12,-33 -24,-33 -15,0 -18,8 -16,48 1,26 3,48 4,50 0,1 13,2 27,2 19,0 24,-4 20,-17 z"
       id="path3159" />
    <path
       inkscape:connector-curvature="0"
       d="m 926,1041 c -16,-9 -37,-23 -46,-31 -10,-8 -32,-26 -49,-39 -31,-23 -40,-41 -21,-41 5,0 32,16 60,36 27,20 50,33 50,30 0,-3 12,6 27,20 33,30 19,47 -21,25 z"
       id="path3161" />
    <path
       inkscape:connector-curvature="0"
       d="m 4763,1002 c -31,-3 -51,-26 -33,-37 6,-4 69,-6 142,-6 126,1 164,9 143,30 -10,10 -191,19 -252,13 z"
       id="path3163" />
    <path
       inkscape:connector-curvature="0"
       d="m 3924,990 c -31,-12 -54,-49 -54,-88 0,-73 90,-110 140,-57 19,20 20,25 7,25 -9,0 -19,-4 -22,-10 -10,-16 -51,-12 -66,6 -25,31 -4,104 31,104 6,0 15,-11 20,-25 6,-15 17,-25 29,-25 13,0 20,-9 24,-30 13,-62 77,-96 125,-64 15,10 31,17 35,16 5,-1 6,2 3,7 -4,5 -2,12 4,16 6,4 8,10 6,14 -3,4 -1,13 3,20 12,18 81,-17 81,-41 0,-22 -38,-25 -46,-3 -7,18 -34,20 -34,3 0,-28 20,-42 55,-41 73,2 91,61 30,101 -19,12 -35,26 -35,32 0,16 21,22 36,9 18,-14 37,0 25,19 -14,24 -58,24 -81,0 -11,-12 -20,-29 -20,-37 0,-10 -14,-2 -38,22 -43,42 -74,47 -112,17 -31,-25 -36,-25 -62,0 -23,21 -49,24 -84,10 z m 226,-35 c 16,-20 4,-101 -16,-109 -31,-12 -54,12 -54,57 0,24 5,48 12,55 16,16 43,15 58,-3 z"
       id="path3165" />
    <path
       inkscape:connector-curvature="0"
       d="m 331,955 c -14,-13 -44,-34 -68,-47 -26,-14 -43,-30 -43,-40 0,-29 29,-21 77,22 25,22 50,40 54,40 15,0 48,33 43,42 -9,15 -39,7 -63,-17 z"
       id="path3167" />
    <path
       inkscape:connector-curvature="0"
       d="m 5737,959 c -8,-5 -88,-8 -178,-8 -386,2 -409,1 -409,-21 0,-20 6,-20 348,-17 279,3 347,6 347,17 0,16 -88,40 -108,29 z"
       id="path3169" />
    <path
       inkscape:connector-curvature="0"
       d="m 730,905 c -6,-8 -21,-17 -33,-21 -12,-4 -26,-12 -33,-18 -6,-6 -24,-20 -38,-30 -14,-10 -26,-25 -26,-32 0,-18 27,-18 37,0 4,7 24,21 43,31 18,10 40,24 48,31 7,7 20,18 29,22 9,5 13,14 9,21 -10,15 -21,14 -36,-4 z"
       id="path3171" />
    <path
       inkscape:connector-curvature="0"
       d="m 4734,895 c -33,-24 -5,-35 94,-36 53,0 112,0 130,-1 33,0 72,25 59,38 -13,13 -265,12 -283,-1 z"
       id="path3173" />
    <path
       inkscape:connector-curvature="0"
       d="m 5445,851 c -3,-6 0,-14 9,-17 8,-3 13,-11 11,-17 -2,-7 -6,-24 -9,-39 -5,-20 -10,-25 -26,-21 -32,8 -90,-56 -90,-100 0,-57 35,-77 77,-45 7,5 14,5 18,-2 11,-17 43,-11 59,12 l 16,22 0,-22 c 0,-26 31,-30 50,-7 12,14 15,14 32,-2 18,-16 20,-16 41,5 l 21,22 -21,0 c -14,0 -23,8 -27,24 -8,32 2,56 24,56 23,0 35,29 14,37 -8,3 -24,-3 -36,-13 -12,-11 -18,-14 -15,-7 4,6 2,15 -3,18 -20,12 -55,-4 -67,-30 -12,-28 -10,-30 17,-15 15,8 19,5 23,-18 7,-39 -10,-55 -50,-47 -20,4 -33,2 -33,-5 0,-5 -4,-10 -9,-10 -5,0 -6,12 -2,28 5,15 14,26 20,24 9,-2 9,3 2,17 -6,10 -8,21 -4,24 6,7 15,63 17,107 1,20 -4,26 -26,28 -14,2 -29,-2 -33,-7 z m -10,-160 c -7,-44 -25,-64 -47,-56 -22,9 -10,62 20,85 14,11 27,18 30,16 2,-3 1,-23 -3,-45 z"
       id="path3175" />
    <path
       inkscape:connector-curvature="0"
       d="M 85,785 C 63,766 36,749 25,748 11,746 4,736 2,717 -1,690 0,689 22,701 c 13,7 38,25 57,40 19,15 39,25 44,22 6,-3 7,-1 3,5 -3,6 3,13 14,17 11,3 20,13 20,21 0,24 -33,15 -75,-21 z"
       id="path3177" />
    <path
       inkscape:connector-curvature="0"
       d="m 475,730 c -27,-22 -54,-40 -60,-40 -14,-1 -75,-58 -75,-70 0,-19 21,-10 64,25 24,19 46,35 50,35 14,0 106,73 106,84 0,17 -41,0 -85,-34 z"
       id="path3179" />
    <path
       inkscape:connector-curvature="0"
       d="m 250,574 c -49,-33 -60,-43 -60,-54 0,-18 26,-10 68,21 23,17 42,37 42,45 0,19 -8,17 -50,-12 z"
       id="path3181" />
    <path
       inkscape:connector-curvature="0"
       d="m 116,483 c -25,-7 -49,-30 -42,-42 3,-5 16,-7 29,-4 28,7 58,33 51,44 -5,9 -8,10 -38,2 z"
       id="path3183" />
    <path
       inkscape:connector-curvature="0"
       d="M 21,413 C 2,397 0,392 12,388 c 21,-8 41,6 36,27 -3,16 -5,16 -27,-2 z"
       id="path3185" />
  </g>
</svg>
