<?xml version="1.0" encoding="UTF-8" standalone="no"?>
<svg
   xmlns:dc="http://purl.org/dc/elements/1.1/"
   xmlns:cc="http://creativecommons.org/ns#"
   xmlns:rdf="http://www.w3.org/1999/02/22-rdf-syntax-ns#"
   xmlns:svg="http://www.w3.org/2000/svg"
   xmlns="http://www.w3.org/2000/svg"
   xmlns:sodipodi="http://sodipodi.sourceforge.net/DTD/sodipodi-0.dtd"
   xmlns:inkscape="http://www.inkscape.org/namespaces/inkscape"
   version="1.0"
   width="178.080000pt"
   height="221.280000pt"
   viewBox="0 0 178.080000 221.280000"
   preserveAspectRatio="xMidYMid meet"
   id="svg2"
   inkscape:version="0.48.4 r9939"
   sodipodi:docname="gray.svg">
  <defs
     id="defs54" />
  <sodipodi:namedview
     pagecolor="#ffffff"
     bordercolor="#666666"
     borderopacity="1"
     objecttolerance="10"
     gridtolerance="10"
     guidetolerance="10"
     inkscape:pageopacity="0"
     inkscape:pageshadow="2"
     inkscape:window-width="1280"
     inkscape:window-height="996"
     id="namedview52"
     showgrid="false"
     inkscape:zoom="1.332433"
     inkscape:cx="58.390555"
     inkscape:cy="85.146328"
     inkscape:window-x="0"
     inkscape:window-y="0"
     inkscape:window-maximized="1"
     inkscape:current-layer="svg2" />
  <metadata
     id="metadata4">
Created by potrace 1.10, written by Peter Selinger 2001-2011
<rdf:RDF>
  <cc:Work
     rdf:about="">
    <dc:format>image/svg+xml</dc:format>
    <dc:type
       rdf:resource="http://purl.org/dc/dcmitype/StillImage" />
    <dc:title></dc:title>
  </cc:Work>
</rdf:RDF>
</metadata>
  <rect
     style="fill:#b9b9b9;fill-opacity:1;stroke:none"
     id="rect3298-7"
     width="44.70261"
     height="221.28094"
     x="138.17238"
     y="9.7655973" />
  <rect
     style="fill:#b9b9b9;fill-opacity:1;stroke:none"
     id="rect3298"
     width="55.299652"
     height="221.28094"
     x="-39.640507"
     y="9.7645149" />
  <g
     transform="matrix(0.024,0,0,-0.024,0,231.05347)"
     id="g6"
     style="fill:#b9b9b9;stroke:none">
    <path
       d="M 0,4610 0,0 l 3710,0 3710,0 0,4610 0,4610 -3710,0 -3710,0 0,-4610 z m 6878,3847 c 5,-37 -15,-34 -20,3 -3,19 -1,29 6,27 6,-2 12,-16 14,-30 z M 1960,7581 c 0,-14 -44,-74 -57,-79 -21,-6 -15,40 9,65 21,23 48,31 48,14 z m 84,0 c 3,-4 -3,-16 -14,-26 -11,-10 -20,-27 -20,-37 0,-10 -7,-21 -15,-24 -8,-4 -15,-12 -15,-20 0,-8 -9,-14 -20,-14 -11,0 -20,-4 -20,-8 0,-5 -12,-22 -26,-38 -15,-16 -23,-24 -20,-17 3,6 2,14 -4,18 -5,3 -10,17 -10,31 0,17 5,24 20,24 11,0 20,7 20,15 0,9 7,18 15,21 8,4 15,11 15,17 0,13 61,66 77,67 6,0 14,-4 17,-9 z m 78,-13 c -4,-25 16,-22 37,4 12,14 24,19 35,15 16,-6 16,-9 -3,-36 -12,-16 -21,-33 -21,-38 0,-10 -43,-33 -62,-33 -5,0 -8,6 -5,13 19,45 19,47 3,47 -9,0 -16,-8 -16,-17 0,-18 -46,-46 -61,-37 -10,6 11,56 28,67 7,4 13,15 13,23 0,11 8,14 28,12 19,-2 26,-8 24,-20 z m 162,13 c 8,-12 -72,-101 -90,-101 -25,0 -15,21 46,93 16,19 36,22 44,8 z m 79,-3 c 3,-10 -56,-87 -71,-93 -21,-8 -33,4 -23,23 26,49 88,95 94,70 z m 81,3 c 3,-4 -4,-19 -15,-32 -11,-13 -29,-34 -40,-46 -19,-23 -49,-31 -49,-13 0,5 15,26 32,47 47,54 61,63 72,44 z m 80,0 c 11,-17 -65,-101 -91,-101 -18,0 -17,7 9,43 39,56 70,78 82,58 z m 83,-3 c -18,-42 -33,-68 -40,-68 -5,0 -15,-7 -23,-15 -17,-16 -44,-20 -44,-6 0,5 7,14 15,21 8,7 15,21 15,31 0,11 5,19 11,19 6,0 17,7 25,15 19,18 48,20 41,3 z m 79,-3 c -3,-8 -9,-22 -12,-30 -3,-8 -1,-15 5,-15 6,0 16,11 21,25 5,14 13,25 17,25 5,0 19,3 32,7 22,6 23,4 16,-26 -9,-40 9,-41 24,-1 8,24 16,30 40,30 24,0 28,-3 24,-20 -3,-11 -1,-20 4,-20 6,0 18,9 28,20 18,20 55,28 55,11 0,-5 -7,-14 -15,-21 -8,-6 -17,-22 -21,-33 -9,-28 -33,-46 -63,-47 -22,0 -23,1 -7,25 21,31 20,34 -4,28 -11,-3 -23,-16 -26,-29 -5,-18 -13,-24 -34,-24 -23,0 -27,4 -23,20 3,12 0,20 -7,20 -6,0 -14,-9 -17,-20 -4,-14 -14,-20 -35,-20 -25,0 -28,3 -23,20 3,11 2,20 -3,20 -5,0 -19,-9 -32,-20 -13,-11 -27,-20 -32,-20 -4,0 -8,9 -8,20 0,11 4,20 10,20 5,0 12,11 16,24 5,23 35,44 63,45 8,1 11,-5 7,-14 z m 334,6 c 0,-5 -7,-14 -15,-21 -8,-6 -17,-22 -21,-33 -4,-12 -14,-27 -23,-34 -15,-12 -51,-18 -51,-8 0,16 29,63 50,82 25,22 60,31 60,14 z m 80,1 c 0,-5 -9,-19 -20,-32 -11,-13 -20,-28 -20,-33 0,-14 -32,-36 -54,-37 -13,0 -16,4 -11,18 4,9 10,25 12,35 3,9 11,17 18,17 6,0 20,9 30,20 18,20 45,27 45,12 z m 76,-7 c -3,-8 -9,-22 -12,-30 -3,-8 -1,-15 6,-15 6,0 14,8 17,18 4,17 59,49 69,39 7,-7 -18,-61 -33,-70 -7,-4 -13,-15 -13,-22 0,-10 -11,-15 -31,-15 -26,0 -29,3 -24,20 3,11 2,20 -3,20 -5,0 -17,-9 -27,-20 -18,-20 -55,-28 -55,-11 0,4 9,20 20,34 11,14 20,29 20,35 0,10 37,30 59,31 8,1 11,-5 7,-14 z m 164,4 c 0,-22 -71,-99 -91,-99 -27,0 -24,9 22,63 39,45 69,61 69,36 z m 83,5 c 3,-4 -2,-18 -11,-33 -10,-14 -23,-35 -28,-46 -7,-12 -24,-21 -43,-23 -30,-3 -32,-1 -26,20 7,24 72,87 91,88 6,0 13,-3 17,-6 z m 87,-3 c 0,-5 -6,-14 -14,-20 -8,-6 -19,-25 -26,-41 -8,-19 -22,-31 -42,-35 -37,-9 -41,-5 -26,26 20,43 108,100 108,70 z m 80,0 c 0,-4 -9,-20 -20,-34 -11,-14 -20,-28 -20,-32 0,-14 -35,-34 -57,-35 -22,0 -22,0 -5,34 24,48 102,99 102,67 z m 80,4 c 0,-14 -41,-78 -57,-90 -16,-13 -53,-20 -53,-11 0,16 32,76 41,76 6,0 17,7 25,15 15,14 44,21 44,10 z m 70,-5 c 0,-20 -25,-66 -44,-82 -18,-15 -56,-25 -56,-14 0,16 32,76 41,76 6,0 17,7 25,15 17,17 34,20 34,5 z m 83,-6 c -1,-5 -5,-17 -9,-28 -10,-27 18,-16 31,11 5,12 19,23 32,26 20,4 23,0 23,-26 0,-25 2,-28 15,-17 8,7 15,19 15,26 0,8 3,14 8,14 4,0 18,3 31,7 22,6 23,4 17,-20 -5,-20 -3,-25 8,-21 8,3 16,14 19,25 7,27 64,24 59,-3 -4,-23 3,-23 37,3 33,24 58,18 41,-9 -6,-9 -19,-30 -29,-47 -12,-21 -27,-31 -48,-33 -28,-3 -30,-1 -27,25 4,26 4,27 -6,5 -10,-23 -46,-43 -66,-35 -6,2 -9,15 -6,29 6,32 -16,31 -24,-2 -5,-20 -12,-24 -33,-22 -21,2 -25,8 -23,26 4,30 -16,28 -24,-3 -5,-20 -13,-25 -36,-25 -25,0 -28,3 -23,20 3,11 2,20 -3,20 -5,0 -17,-9 -27,-20 -17,-18 -55,-28 -55,-14 0,3 9,17 20,31 11,14 20,31 20,37 0,13 39,35 55,31 6,-1 9,-6 8,-11 z m 405,-14 c -3,-16 -1,-30 4,-30 4,0 8,7 8,15 0,9 12,20 26,25 39,15 47,13 40,-16 -6,-22 -4,-24 12,-15 10,5 24,17 32,25 7,9 23,16 37,16 l 24,0 -23,-32 c -13,-18 -28,-42 -34,-53 -6,-11 -23,-21 -38,-23 -20,-3 -26,1 -26,17 0,28 -18,36 -22,9 -2,-18 -9,-23 -33,-23 -23,0 -29,4 -27,18 4,21 -2,22 -21,2 -8,-7 -27,-17 -41,-21 -26,-6 -27,-5 -20,22 8,30 36,64 69,82 31,18 38,14 33,-18 z m 586,15 c -1,-5 -5,-21 -9,-35 -7,-21 -6,-23 7,-13 19,16 28,7 28,-28 0,-18 -7,-32 -20,-39 -21,-11 -28,-40 -10,-40 6,0 10,5 10,10 0,6 5,10 10,10 6,0 10,-16 10,-35 0,-19 -4,-35 -10,-35 -5,0 -10,-6 -10,-13 0,-7 -9,-18 -20,-25 -11,-7 -20,-18 -20,-26 0,-12 -40,-46 -55,-46 -3,0 -5,14 -5,32 0,23 8,38 28,54 15,12 24,26 20,30 -5,4 -17,-1 -28,-11 -20,-18 -20,-18 -20,23 0,23 5,42 10,42 6,0 10,7 10,15 0,8 -9,15 -20,15 -13,0 -20,7 -20,18 0,10 -7,19 -15,19 -8,0 -12,-4 -10,-8 4,-6 -27,-19 -49,-19 -4,0 -5,11 -2,25 4,15 2,25 -5,25 -6,0 -13,-9 -16,-20 -3,-11 -8,-20 -12,-20 -3,0 -17,-3 -30,-7 -22,-6 -23,-4 -17,21 8,31 -1,29 -41,-7 -13,-11 -29,-17 -38,-13 -15,5 -14,9 4,35 12,16 21,34 21,40 0,11 40,31 62,31 6,0 8,-10 4,-25 -4,-15 -2,-25 4,-25 6,0 15,11 20,25 12,31 43,33 56,4 l 9,-20 27,20 c 14,12 36,21 48,21 l 21,0 -20,-29 c -12,-16 -21,-32 -21,-35 0,-10 47,42 53,59 7,18 63,18 61,0 z m -334,-3 c 0,-5 -7,-23 -16,-40 -15,-31 -78,-71 -91,-58 -10,9 17,58 46,83 26,23 61,31 61,15 z m 27,-134 c 89,-2 165,-7 170,-11 14,-14 17,-1922 3,-1947 l -12,-22 -501,6 c -276,4 -863,6 -1304,6 -681,0 -803,2 -816,14 -23,24 -27,160 -27,1088 l 0,880 1163,-5 c 639,-3 1235,-7 1324,-9 z m -2527,-27 c 0,-19 -66,-101 -81,-101 -20,0 -7,35 27,76 38,48 54,55 54,25 z m 2840,-146 c -13,-24 -20,-48 -16,-52 5,-4 11,-2 13,5 3,6 9,12 14,12 14,0 11,-68 -3,-77 -13,-8 -38,-47 -38,-59 0,-4 8,1 19,10 16,14 19,15 24,2 7,-18 -2,-54 -21,-86 -12,-19 -12,-22 -2,-12 8,6 18,12 22,12 15,0 5,-64 -15,-92 -10,-16 -14,-28 -8,-28 6,0 11,5 11,11 0,5 5,7 10,4 6,-3 10,-19 10,-36 0,-16 -4,-29 -10,-29 -5,0 -10,-6 -10,-13 0,-7 -9,-19 -20,-27 -11,-8 -20,-21 -20,-29 0,-10 7,-8 25,9 14,13 28,20 32,16 12,-11 -18,-80 -46,-103 -34,-29 -20,-41 16,-13 17,13 29,17 31,10 6,-16 -19,-72 -40,-91 -10,-9 -18,-22 -18,-29 0,-8 10,-4 25,10 14,13 28,20 32,17 9,-9 -15,-87 -27,-87 -6,0 -10,-8 -10,-17 0,-13 3,-14 12,-5 20,20 28,14 28,-19 0,-17 -9,-42 -20,-56 -21,-27 -19,-43 6,-43 18,0 19,-36 0,-43 -15,-6 -29,-47 -15,-47 5,0 9,5 9,11 0,5 5,7 10,4 6,-3 10,-19 10,-36 0,-16 -4,-29 -10,-29 -5,0 -10,-6 -10,-12 -1,-16 -46,-68 -59,-68 -6,0 -14,-8 -20,-17 -15,-27 -24,-8 -16,33 3,21 20,50 36,67 17,16 27,32 24,36 -4,3 -17,-6 -30,-21 -38,-44 -48,-13 -16,53 18,36 18,39 3,37 -23,-4 -30,50 -8,58 9,3 16,13 16,21 0,8 5,11 13,7 6,-4 9,-4 5,1 -4,4 -2,17 4,29 10,19 8,19 -16,-3 -14,-14 -29,-21 -33,-18 -10,10 19,87 36,97 9,5 13,12 9,16 -4,4 -14,2 -21,-4 -8,-7 -17,-9 -20,-5 -13,12 -7,64 8,69 8,4 15,12 15,19 0,7 6,16 13,18 9,4 9,6 0,6 -6,1 -15,-3 -18,-9 -13,-21 -25,-9 -25,24 0,21 6,36 15,40 8,3 15,12 15,21 0,8 5,15 12,15 6,0 9,3 6,6 -4,3 -16,1 -27,-6 -19,-10 -21,-8 -21,25 0,22 6,38 15,41 8,4 15,12 15,19 0,7 6,16 13,18 7,3 5,6 -5,6 -10,1 -18,-4 -18,-10 0,-5 -4,-7 -10,-4 -15,9 -12,62 4,68 7,3 16,14 18,25 4,15 1,18 -13,15 -15,-4 -19,0 -19,24 0,17 9,42 20,56 11,14 20,27 20,30 0,3 -9,3 -20,0 -33,-9 -26,46 10,85 17,18 30,39 30,45 -1,7 -11,-1 -24,-17 -16,-20 -26,-25 -31,-16 -11,17 16,92 35,97 8,2 26,20 38,40 18,26 27,32 35,24 8,-8 5,-23 -13,-56 z m -2840,44 c 0,-10 -41,-69 -68,-97 -10,-11 -13,-10 -19,4 -3,9 -1,24 6,33 6,9 19,28 29,43 17,27 52,39 52,17 z m 10,-92 c 0,-21 -77,-117 -94,-117 -14,0 -4,38 19,72 14,20 25,41 25,47 0,8 16,16 43,20 4,0 7,-9 7,-22 z m 0,-91 c 0,-33 -67,-125 -92,-126 -12,0 -9,38 5,62 14,24 68,77 80,78 4,0 7,-6 7,-14 z m -16,-144 c -19,-40 -71,-89 -81,-78 -13,13 20,78 55,111 43,40 54,26 26,-33 z m 16,-71 c 0,-16 -6,-31 -15,-35 -8,-3 -15,-12 -15,-21 0,-8 -6,-15 -14,-15 -7,0 -20,-10 -29,-22 -8,-13 -18,-20 -23,-16 -10,11 16,86 32,92 8,3 14,12 14,20 0,13 13,20 43,25 4,0 7,-12 7,-28 z m 0,-82 c 0,-25 -73,-129 -91,-129 -16,0 -10,31 13,63 44,65 78,94 78,66 z m 0,-102 c 0,-16 -54,-99 -76,-117 -8,-7 -17,-10 -20,-7 -12,12 7,53 43,95 38,43 53,52 53,29 z m 0,-104 c 0,-20 -69,-114 -87,-121 -19,-6 -16,30 5,57 64,85 82,99 82,64 z m -5,-120 c -4,-21 -13,-42 -21,-46 -8,-4 -14,-14 -14,-22 0,-7 -9,-17 -20,-20 -11,-3 -20,-11 -20,-18 0,-8 -3,-8 -11,0 -13,13 -3,73 12,73 5,0 13,8 16,18 8,19 43,51 57,52 4,0 5,-17 1,-37 z m 0,-111 c -3,-17 -13,-33 -21,-36 -8,-3 -14,-12 -14,-21 0,-8 -6,-15 -14,-15 -7,0 -21,-10 -30,-22 -17,-22 -17,-22 -12,21 3,26 11,48 20,53 9,5 16,14 16,19 0,17 44,49 54,39 4,-4 5,-22 1,-38 z m 5,-88 c 0,-13 -9,-32 -20,-41 -11,-10 -20,-22 -21,-28 0,-5 -14,-21 -31,-35 l -31,-24 6,44 c 3,24 13,47 21,52 9,5 16,15 16,23 0,7 9,17 20,20 11,3 20,11 20,16 0,6 5,7 10,4 6,-3 10,-17 10,-31 z m -10,-124 c -7,-22 -18,-40 -24,-40 -13,0 -40,-40 -32,-47 3,-3 12,2 21,10 19,20 45,12 45,-13 0,-17 -80,-110 -94,-110 -12,0 -6,39 12,70 16,30 16,32 -2,45 -19,14 -19,15 0,51 25,48 67,92 78,82 6,-4 4,-24 -4,-48 z m 2860,11 c 0,-23 -30,-83 -47,-94 -7,-4 -13,-15 -13,-22 0,-8 -7,-15 -15,-15 -9,0 -18,-7 -21,-15 -4,-8 -11,-15 -16,-15 -16,0 -1,72 17,82 8,5 15,13 15,18 0,10 61,77 73,79 4,0 7,-8 7,-18 z m 0,-102 c 0,-19 -33,-83 -50,-96 -26,-20 -3,-26 26,-7 l 27,18 -7,-39 c -4,-25 -17,-48 -34,-62 -33,-28 -23,-41 14,-17 l 27,18 -7,-39 c -4,-22 -18,-48 -32,-60 -13,-11 -24,-25 -24,-30 0,-6 4,-5 8,2 4,6 16,13 27,15 16,2 21,-3 23,-26 3,-20 0,-26 -9,-21 -8,6 -10,4 -4,-4 4,-7 -1,-22 -12,-34 -34,-37 -38,-54 -7,-25 30,27 30,28 32,5 2,-30 -25,-84 -48,-97 -11,-6 -20,-17 -20,-24 0,-14 -35,-28 -44,-18 -11,11 -6,50 8,55 7,3 16,15 19,27 4,17 2,20 -14,15 -29,-9 -25,40 6,81 17,22 20,32 10,28 -8,-3 -15,-10 -15,-16 0,-5 -5,-6 -11,-2 -6,4 -9,19 -5,35 5,28 12,38 44,74 11,13 11,15 -2,15 -8,0 -18,-4 -21,-10 -3,-5 -11,-10 -17,-10 -14,0 -2,60 16,74 17,14 28,46 15,46 -5,0 -12,-7 -15,-15 -4,-8 -11,-15 -16,-15 -16,0 -1,72 17,82 8,5 15,16 15,23 0,8 5,15 11,15 6,0 20,11 31,25 20,26 38,33 38,14 z M 1976,5958 c -9,-5 -16,-15 -16,-22 0,-8 -7,-16 -15,-20 -8,-3 -15,-11 -15,-18 0,-7 -9,-19 -19,-25 -16,-10 -20,-9 -25,3 -10,27 -6,52 9,58 8,3 15,12 15,20 0,7 7,16 15,20 8,3 15,11 15,18 0,7 10,18 23,23 20,9 22,7 25,-19 2,-19 -2,-32 -12,-38 z m 14,-54 c 0,-22 -40,-91 -72,-124 -22,-22 -28,-24 -31,-11 -6,27 12,67 51,109 40,45 52,51 52,26 z m -10,-144 c -7,-22 -17,-40 -22,-40 -5,0 -12,-8 -15,-17 -8,-22 -33,-42 -52,-43 -18,0 -6,61 14,73 8,4 15,12 15,17 0,5 12,22 28,38 35,38 50,25 32,-28 z m 10,-75 c 0,-18 -32,-78 -47,-88 -7,-4 -13,-14 -13,-22 0,-15 -19,-24 -37,-17 -15,5 -17,52 -3,52 6,0 13,6 16,14 9,23 68,84 77,79 4,-2 7,-10 7,-18 z m -14,-144 c -9,-10 -16,-23 -16,-29 0,-7 -4,-12 -10,-12 -5,0 -10,-6 -10,-14 0,-7 -11,-21 -24,-29 -22,-15 -25,-15 -30,-1 -11,27 -6,54 9,60 8,4 15,12 15,20 0,8 5,14 11,14 6,0 22,14 37,32 l 27,32 3,-28 c 2,-15 -3,-35 -12,-45 z m 2845,-2 c -27,-36 -27,-59 -1,-59 28,0 25,-31 -5,-54 -14,-10 -25,-25 -25,-32 0,-16 -52,-54 -74,-54 -19,0 -19,-1 -1,43 8,20 24,41 35,47 18,9 29,40 15,40 -12,0 -54,-56 -55,-71 0,-18 -52,-59 -75,-59 -9,0 -15,3 -13,8 2,4 12,24 21,45 10,20 24,37 31,37 21,0 45,27 52,58 4,15 30,48 58,73 45,41 51,44 54,27 2,-12 -6,-33 -17,-49 z m -2833,-58 c 1,-16 -7,-39 -18,-54 -11,-14 -20,-28 -20,-32 0,-15 -42,-44 -56,-38 -26,10 -14,40 39,96 28,31 52,56 52,56 1,1 2,-12 3,-28 z m 56,-40 c 12,-19 -68,-103 -90,-94 -18,7 -18,5 7,34 11,13 29,34 40,47 20,23 34,28 43,13 z m 81,-8 c -4,-10 -10,-26 -12,-35 -3,-10 -9,-18 -13,-18 -4,0 -17,-9 -30,-20 -42,-37 -51,-23 -22,34 16,34 42,54 71,55 9,1 11,-5 6,-16 z m 71,-18 c -4,-14 -3,-25 2,-25 5,0 19,11 32,25 13,14 29,25 36,25 25,0 24,-19 -1,-46 -14,-15 -25,-33 -25,-41 0,-10 -9,-13 -27,-11 -20,2 -27,8 -25,20 2,12 -3,15 -18,11 -11,-3 -20,-9 -20,-13 0,-10 -30,-21 -40,-15 -9,6 24,75 42,87 7,4 21,8 32,8 14,0 17,-5 12,-25 z m 168,17 c 8,-14 -61,-87 -83,-88 -23,-1 -21,4 22,59 27,35 50,46 61,29 z m 75,-20 c -10,-14 -19,-30 -19,-36 0,-11 -60,-40 -67,-32 -7,7 22,61 42,78 11,9 30,16 42,15 21,-1 21,-1 2,-25 z m 82,2 c -12,-15 -21,-32 -21,-39 0,-13 -57,-42 -65,-33 -8,8 19,68 31,68 7,0 14,7 18,15 3,8 17,15 31,15 l 26,0 -20,-26 z m 68,-16 c -37,-48 -48,-58 -66,-58 -18,0 -16,13 5,38 9,11 24,30 32,41 8,12 25,21 38,21 23,0 23,0 -9,-42 z m 98,12 c -6,-17 -19,-32 -28,-35 -10,-3 -20,-12 -23,-20 -6,-16 -32,-20 -40,-6 -3,4 3,19 14,31 11,13 20,29 20,36 0,12 18,21 52,23 14,1 15,-3 5,-29 z m 75,-2 c -28,-44 -69,-75 -82,-62 -14,14 56,94 82,94 20,0 20,0 0,-32 z m 88,16 c 0,-18 -59,-84 -75,-84 -27,0 -24,18 11,57 35,39 64,51 64,27 z m 84,7 c 9,-13 -64,-91 -85,-91 -27,0 -24,10 19,58 36,41 55,51 66,33 z m 79,3 c 12,-12 -29,-73 -56,-85 -36,-15 -44,-6 -26,29 23,45 64,73 82,56 z m 84,-6 c -20,-48 -35,-68 -55,-78 -13,-5 -27,-8 -32,-5 -12,7 12,65 28,65 7,0 15,7 18,15 4,8 15,15 26,15 12,0 18,-5 15,-12 z m 83,4 c 0,-8 -25,-46 -50,-74 -15,-19 -50,-25 -50,-9 0,10 39,62 60,78 17,14 40,17 40,5 z m 80,-5 c 0,-19 -65,-87 -84,-87 -25,0 -19,16 20,60 36,40 64,52 64,27 z m 84,4 c 4,-5 -5,-23 -19,-39 -14,-16 -25,-35 -25,-42 0,-6 -11,-10 -27,-8 -37,4 -33,30 10,68 33,30 52,37 61,21 z m 86,2 c 0,-18 -74,-93 -91,-93 -27,0 -24,10 21,58 35,37 70,55 70,35 z m 78,0 c -2,-5 -10,-21 -18,-38 -8,-16 -22,-35 -30,-42 -17,-14 -50,-17 -50,-5 0,18 26,62 36,62 7,0 14,7 18,15 3,8 15,15 27,15 11,0 19,-3 17,-7 z m 82,1 c 0,-12 -35,-69 -50,-81 -8,-7 -25,-13 -36,-13 -21,0 -21,1 -5,34 9,19 27,41 41,50 25,16 50,21 50,10 z m 82,-44 c 5,0 12,9 15,20 3,11 8,20 12,20 3,0 17,3 30,7 22,6 23,4 17,-20 -8,-34 3,-34 38,-2 45,42 64,26 26,-22 -11,-14 -20,-32 -20,-39 0,-9 -11,-14 -31,-14 -26,0 -29,3 -24,20 4,12 2,20 -5,20 -7,0 -14,-9 -17,-20 -4,-14 -14,-20 -35,-20 -25,0 -28,3 -23,20 3,11 2,20 -3,20 -5,0 -17,-9 -27,-20 -18,-20 -55,-28 -55,-11 0,4 9,20 20,34 11,14 20,30 20,35 0,22 35,18 43,-5 5,-13 13,-23 19,-23 z m 242,41 c 9,-14 -64,-91 -86,-91 -20,0 -20,1 -3,28 22,32 62,72 75,72 5,0 11,-4 14,-9 z m 246,2 c 0,-8 -51,-76 -64,-85 -6,-4 -19,-8 -29,-8 -16,0 -15,5 10,39 31,44 83,78 83,54 z m 73,1 c 18,-18 -42,-93 -75,-94 -21,0 -21,0 -5,40 16,36 64,70 80,54 z m 79,-30 c -5,-28 -50,-64 -80,-64 -19,0 -19,0 1,41 29,59 90,77 79,23 z m -331,-8 c -15,-32 -65,-65 -78,-52 -8,8 17,57 37,73 8,7 25,13 36,13 21,0 21,-1 5,-34 z m 80,0 c -15,-33 -47,-56 -76,-56 -11,0 -11,6 3,32 21,41 41,57 68,58 21,0 21,-1 5,-34 z m 331,8 c -2,-14 -12,-28 -21,-32 -9,-3 -20,-11 -24,-19 -7,-12 -47,-19 -47,-8 0,2 9,23 21,45 17,32 27,40 49,40 24,0 27,-3 22,-26 z m 71,-1 c -28,-47 -45,-63 -65,-63 -23,0 -23,5 4,43 26,38 37,47 61,47 17,0 17,-1 0,-27 z m 83,5 c -3,-13 -6,-26 -6,-30 0,-5 -6,-8 -14,-8 -8,0 -16,-7 -20,-15 -3,-8 -15,-15 -27,-15 -13,0 -19,5 -16,13 19,45 34,67 47,71 35,9 42,6 36,-16 z m 79,-4 c -29,-45 -49,-64 -67,-64 -23,0 -23,5 4,43 27,39 37,47 62,47 17,0 17,-1 1,-26 z m 207,-39 c -7,-15 -20,-25 -32,-25 -25,0 -25,4 2,40 26,36 48,25 30,-15 z M 2012,2975 c -2,-11 -11,-25 -20,-32 -9,-7 -27,-22 -38,-34 -32,-32 -39,-7 -14,47 19,39 26,45 49,42 20,-2 25,-8 23,-23 z m 178,16 c 0,-6 -4,-13 -10,-16 -12,-7 -14,-35 -2,-35 4,0 12,10 17,23 6,13 21,23 38,25 22,3 27,0 27,-20 l 0,-22 16,22 c 20,28 71,28 66,0 -4,-25 15,-23 23,2 8,25 65,29 65,5 0,-8 5,-15 10,-15 6,0 10,7 10,15 0,10 10,15 29,15 24,0 28,-3 24,-20 -4,-16 -2,-19 13,-13 11,3 23,12 27,20 8,14 47,18 47,6 -1,-5 -11,-26 -24,-48 -17,-31 -30,-41 -53,-43 -28,-3 -30,-1 -25,25 5,31 -5,26 -22,-9 -7,-14 -22,-24 -39,-26 -22,-3 -27,1 -27,20 0,14 -3,18 -8,11 -10,-16 -58,-27 -66,-15 -4,6 -2,13 4,17 5,3 10,12 10,18 -1,7 -11,0 -23,-15 -12,-14 -33,-28 -47,-30 -21,-2 -25,1 -23,19 2,16 -2,21 -12,17 -8,-4 -15,-12 -15,-20 0,-9 -11,-14 -31,-14 -26,0 -29,3 -24,21 6,18 5,19 -13,10 -12,-6 -24,-16 -27,-21 -3,-6 -17,-10 -31,-10 l -25,0 20,29 c 12,16 21,34 21,40 0,11 47,40 68,41 6,0 12,-4 12,-9 z m -96,-27 c -11,-16 -20,-22 -27,-15 -15,15 0,41 23,41 20,0 20,-1 4,-26 z m 572,4 c -18,-26 -20,-38 -6,-38 6,0 10,6 10,14 0,19 22,35 60,42 31,7 32,6 20,-15 -6,-12 -9,-27 -7,-34 3,-7 9,0 15,15 7,17 21,28 42,33 17,4 34,5 36,2 9,-8 -24,-64 -41,-70 -8,-4 -15,-14 -15,-22 0,-12 -8,-15 -27,-13 -20,2 -27,8 -25,20 2,12 -2,16 -13,12 -8,-3 -15,-12 -15,-20 0,-15 -5,-16 -37,-8 -15,4 -20,11 -16,22 6,14 4,14 -17,-1 -14,-9 -35,-17 -47,-17 -21,0 -22,2 -11,28 15,36 58,72 86,72 22,0 22,-1 8,-22 z m 250,6 c -3,-9 -6,-20 -6,-24 0,-19 -52,-60 -75,-60 -14,0 -25,2 -25,5 0,8 24,48 38,63 6,7 12,18 12,23 0,5 14,9 31,9 24,0 30,-3 25,-16 z m 86,-6 c -4,-25 19,-23 25,2 4,14 14,20 35,20 26,0 28,-3 22,-22 l -6,-21 27,21 c 15,12 38,22 51,22 24,0 32,-14 14,-25 -5,-3 -10,-13 -10,-21 0,-21 19,-7 30,22 7,18 17,24 40,24 27,0 30,-3 25,-20 -3,-11 -4,-20 0,-20 3,0 15,9 27,20 12,11 32,20 44,20 23,0 23,0 6,-32 -21,-40 -30,-50 -64,-67 -34,-17 -47,-8 -29,20 7,12 11,23 9,25 -8,7 -48,-27 -48,-42 0,-9 -11,-14 -31,-14 -27,0 -30,3 -23,23 6,21 6,21 -12,5 -11,-9 -32,-20 -48,-24 -28,-7 -28,-6 -21,26 5,23 4,30 -4,26 -6,-4 -11,-14 -11,-22 0,-17 -47,-37 -68,-29 -12,4 -12,8 -2,20 22,26 5,26 -30,0 -55,-41 -78,-31 -40,18 11,14 20,29 20,34 0,18 26,34 50,31 17,-2 24,-8 22,-20 z m 420,-2 c -3,-17 -2,-17 26,3 17,11 40,21 53,21 21,0 21,-1 6,-18 -19,-21 -22,-42 -7,-42 6,0 10,5 10,12 0,22 33,48 62,48 25,0 28,-3 23,-20 -3,-11 -4,-20 0,-20 3,0 15,9 27,20 12,11 30,20 40,20 19,0 24,-15 8,-25 -5,-3 -10,-13 -10,-21 0,-24 -47,-64 -75,-64 -22,0 -25,3 -20,20 5,15 3,18 -9,14 -9,-3 -16,-12 -16,-20 0,-9 -11,-14 -31,-14 -27,0 -30,3 -23,23 6,21 6,21 -12,5 -24,-21 -70,-33 -78,-20 -4,6 -2,13 4,17 5,3 10,13 10,21 0,13 -2,13 -16,-1 -9,-9 -28,-23 -41,-32 -34,-22 -50,-4 -23,27 11,13 20,27 20,32 0,19 26,38 50,35 18,-1 24,-7 22,-21 z m 338,4 c 0,-11 5,-20 11,-20 6,0 13,9 16,20 4,14 14,20 35,20 25,0 29,-3 25,-20 -5,-20 -5,-20 20,0 14,11 36,20 50,20 20,0 22,-3 13,-19 -16,-31 -12,-42 10,-24 11,10 20,23 20,30 0,8 13,13 35,13 33,0 35,-2 25,-20 -7,-14 -7,-20 0,-20 5,0 10,4 10,9 0,5 14,14 31,21 22,10 33,10 42,1 7,-7 8,-11 0,-11 -6,0 -13,-9 -16,-20 -5,-19 -4,-19 19,-2 13,9 24,23 24,30 0,7 13,12 31,12 27,0 30,-3 23,-22 -6,-21 -6,-22 12,-8 10,8 22,19 25,23 4,5 17,7 30,5 16,-2 23,-9 21,-20 -4,-24 11,-23 33,2 16,17 55,28 55,15 0,-12 -24,-55 -32,-55 -4,0 -8,-5 -8,-11 0,-19 -30,-40 -52,-37 -16,2 -22,9 -20,21 3,16 0,16 -30,-3 -18,-11 -41,-20 -52,-20 -17,0 -17,1 -2,25 19,28 20,35 6,35 -5,0 -10,-5 -10,-12 0,-22 -33,-48 -62,-48 -25,0 -28,3 -23,20 4,11 2,20 -4,20 -6,0 -11,-4 -11,-9 0,-9 -31,-22 -63,-26 -16,-2 -16,0 -2,21 18,27 19,34 5,34 -6,0 -14,-8 -17,-17 -11,-29 -30,-43 -58,-43 -23,0 -25,3 -19,23 6,21 6,21 -12,5 -11,-9 -31,-20 -46,-23 -27,-7 -28,-6 -22,26 7,36 -2,34 -20,-3 -8,-16 -22,-24 -45,-26 -29,-3 -32,-1 -26,17 8,27 -7,27 -30,1 -17,-19 -55,-28 -55,-14 0,8 40,73 55,91 17,21 55,16 55,-7 z m 682,-4 c -3,-17 -2,-17 24,3 24,19 74,30 74,16 0,-11 -26,-51 -49,-77 -31,-35 -86,-40 -76,-7 6,19 5,19 -17,7 -12,-7 -25,-16 -28,-20 -3,-4 -15,-6 -26,-6 -19,2 -19,3 -2,36 25,50 50,72 78,69 18,-1 24,-7 22,-21 z m 173,3 c -6,-18 -5,-19 14,-7 12,7 21,16 21,20 0,5 11,8 25,8 20,0 25,-5 25,-25 0,-14 -5,-25 -11,-25 -5,0 -7,-5 -3,-12 4,-7 13,2 23,23 12,25 24,35 44,37 22,3 27,-1 27,-18 0,-20 2,-20 21,-6 12,8 28,12 35,9 15,-6 20,-63 5,-63 -5,0 -26,-16 -47,-35 -21,-19 -42,-35 -47,-35 -6,0 -7,18 -3,41 4,26 3,38 -4,34 -5,-3 -10,-13 -10,-21 0,-11 -8,-14 -27,-12 -21,2 -27,8 -25,21 3,16 1,16 -17,5 -12,-7 -21,-16 -21,-20 0,-5 -14,-8 -31,-8 -26,0 -29,3 -24,20 3,11 2,20 -3,20 -5,0 -17,-9 -27,-20 -18,-20 -55,-28 -55,-11 0,4 9,20 20,34 11,14 20,29 20,34 0,18 25,33 53,33 24,0 27,-3 22,-21 z m -2573,-49 c 4,-4 -10,-25 -32,-49 -22,-23 -40,-47 -40,-52 0,-15 30,-10 36,6 10,25 24,17 24,-15 0,-18 -10,-39 -24,-54 l -25,-24 25,-6 c 38,-10 29,-37 -31,-89 l -55,-48 0,29 c 0,16 9,37 19,46 10,10 21,26 24,38 5,18 4,19 -12,4 -10,-9 -21,-16 -26,-16 -16,0 5,73 27,92 l 23,21 -27,-7 c -26,-6 -28,-4 -28,24 0,17 5,30 13,30 6,0 30,20 51,45 22,24 42,41 45,37 3,-4 9,-9 13,-12 z m 2808,-77 c 0,-18 -10,-35 -27,-50 l -28,-22 28,-1 c 23,0 27,-4 27,-28 0,-20 -7,-33 -25,-42 -14,-7 -25,-17 -25,-22 0,-12 18,-10 26,3 4,8 9,7 15,-2 16,-26 9,-53 -18,-75 -16,-12 -25,-26 -21,-30 4,-4 14,-2 22,5 11,9 15,8 20,-5 11,-28 6,-53 -12,-66 -10,-7 -22,-19 -27,-27 -6,-11 -3,-13 19,-7 23,6 26,4 26,-21 0,-17 -11,-40 -27,-57 l -27,-29 27,7 c 24,6 27,4 27,-21 0,-16 -11,-40 -26,-56 -14,-16 -24,-30 -21,-33 2,-2 10,2 17,11 22,26 33,17 27,-21 -5,-26 -18,-46 -49,-73 -23,-20 -44,-34 -48,-32 -8,6 1,44 14,61 7,8 16,24 20,34 7,19 6,19 -13,2 -13,-11 -21,-14 -26,-6 -8,13 3,70 14,70 4,0 13,11 19,25 l 12,25 -27,-17 -26,-17 7,39 c 4,22 11,42 15,45 5,3 14,15 20,28 l 12,23 -27,-18 -27,-17 6,38 c 3,21 12,43 20,50 8,6 17,20 21,30 6,19 6,19 -12,3 -10,-9 -22,-17 -26,-17 -16,0 6,74 25,88 19,13 26,42 10,42 -5,0 -11,-7 -15,-15 -3,-8 -11,-15 -17,-15 -13,0 -6,69 8,79 10,8 35,51 29,51 -3,0 -12,-7 -21,-16 -22,-22 -29,-12 -21,30 14,76 106,135 106,69 z m -870,4 725,-2 2,-135 c 2,-74 6,-521 9,-993 l 6,-859 -1315,4 c -723,1 -1319,7 -1324,11 -4,5 -9,230 -10,500 -1,271 -5,673 -9,893 -7,438 -2,579 22,570 8,-3 12,-2 9,4 -8,14 77,15 645,12 283,-2 841,-4 1240,-5 z M 2019,2590 c -8,-16 -21,-31 -31,-33 -10,-3 -18,-11 -18,-19 0,-7 -11,-18 -25,-25 -24,-11 -25,-10 -25,23 0,24 4,34 16,34 9,0 18,9 21,20 3,11 9,20 13,20 4,0 18,9 31,21 21,18 24,19 27,5 2,-9 -2,-29 -9,-46 z m 11,-59 c 0,-11 -13,-35 -30,-53 -16,-18 -30,-38 -30,-44 0,-13 -35,-25 -44,-16 -16,15 -1,45 42,86 52,51 62,55 62,27 z m 2900,-61 c 0,-13 -11,-13 -30,0 -12,8 -11,10 8,10 12,0 22,-4 22,-10 z m -2894,-26 c -4,-15 -14,-33 -21,-41 -8,-8 -15,-20 -15,-28 0,-7 -6,-16 -12,-18 -9,-4 -10,-6 -1,-6 6,-1 18,6 27,14 23,24 29,18 23,-22 -5,-26 -19,-48 -54,-79 -26,-24 -51,-44 -55,-44 -22,0 11,92 39,110 16,10 16,11 -2,5 -36,-12 -40,-10 -38,18 1,18 17,42 50,72 55,51 68,55 59,19 z m -6,-197 c 0,-13 -9,-32 -20,-42 -11,-10 -20,-24 -20,-31 0,-7 -9,-16 -20,-19 -11,-3 -20,-11 -20,-16 0,-5 -7,-9 -15,-9 -31,0 -6,60 45,107 42,39 50,40 50,10 z m 2820,-79 c 0,-30 -24,-74 -38,-71 -6,2 -13,-5 -16,-15 -3,-9 -15,-23 -26,-30 -18,-11 -20,-10 -20,12 0,33 23,75 57,102 35,29 43,30 43,2 z m -2828,-40 c -11,-18 -37,-49 -56,-67 l -36,-35 0,27 c 0,24 51,95 85,119 22,16 27,-12 7,-44 z m 2817,-91 c -7,-18 -19,-40 -28,-50 -13,-16 -13,-17 2,-11 9,3 17,10 17,16 0,5 5,6 11,2 17,-10 3,-60 -27,-89 -29,-29 -25,-48 4,-22 25,23 32,21 32,-5 0,-30 -24,-74 -38,-71 -6,2 -14,-8 -18,-22 -9,-35 -54,-36 -54,-1 0,13 6,26 14,29 7,3 16,15 19,26 4,16 0,21 -14,21 -28,0 -24,38 6,62 14,11 25,26 25,35 0,12 -3,13 -13,4 -18,-14 -27,-4 -27,28 0,19 14,38 47,68 52,45 65,38 42,-20 z m -2810,7 c -30,-59 -34,-64 -42,-64 -5,0 -17,-10 -27,-22 -10,-13 -22,-20 -26,-15 -14,14 17,78 54,112 42,38 64,32 41,-11 z m 8,-83 c -6,-29 -95,-123 -109,-115 -11,7 11,60 33,80 10,9 19,22 19,28 0,10 33,32 54,35 5,0 6,-12 3,-28 z m -2,-97 c -4,-26 -20,-49 -53,-80 -47,-42 -47,-42 -50,-17 -2,13 4,33 12,42 9,10 16,22 16,27 0,5 10,16 21,24 12,8 27,20 33,27 20,22 28,13 21,-23 z m 5,-93 c 0,-16 -6,-31 -14,-34 -15,-6 -29,-47 -15,-47 5,0 9,5 9,11 0,5 5,7 10,4 18,-11 11,-64 -10,-77 -11,-7 -20,-19 -20,-27 0,-10 3,-11 13,-2 18,14 27,4 27,-28 0,-15 -9,-33 -20,-41 -21,-15 -27,-40 -10,-40 6,0 10,5 10,10 0,6 4,10 10,10 5,0 9,-16 8,-35 -1,-19 -6,-35 -11,-35 -11,0 -36,-30 -37,-43 0,-5 6,-7 12,-5 16,6 38,-15 38,-35 0,-15 -30,-46 -30,-31 0,11 -20,-18 -20,-29 0,-5 6,-7 12,-5 15,5 38,-15 38,-34 0,-7 -11,-22 -25,-32 -14,-10 -25,-23 -25,-27 0,-5 11,-9 25,-9 35,0 33,-34 -2,-65 -30,-25 -24,-47 7,-27 18,11 20,9 20,-22 0,-19 -6,-36 -14,-39 -7,-3 -16,-15 -19,-27 -4,-17 -2,-20 14,-15 16,5 19,1 19,-25 0,-17 -4,-29 -9,-25 -5,3 -13,-5 -17,-17 -4,-13 -14,-28 -23,-35 -9,-6 -13,-15 -8,-19 4,-4 18,3 31,16 l 25,22 -4,-40 c -3,-33 -13,-50 -50,-86 -35,-33 -48,-41 -52,-30 -6,15 24,83 42,96 6,5 4,8 -6,8 -8,0 -20,-5 -27,-12 -9,-9 -12,-4 -12,24 0,23 6,38 15,42 8,3 15,12 15,20 0,7 7,16 15,20 8,3 14,13 14,23 -1,17 -2,17 -6,1 -2,-10 -8,-18 -13,-18 -5,0 -15,-3 -24,-6 -13,-5 -16,1 -16,25 0,17 5,31 10,31 6,0 10,6 10,14 0,7 10,20 23,29 12,8 19,18 15,23 -5,4 -16,0 -26,-9 -28,-26 -35,-21 -27,19 3,21 18,46 33,59 15,13 24,27 20,31 -5,4 -17,-1 -28,-11 -11,-10 -23,-15 -26,-12 -11,11 6,75 21,81 8,3 15,12 15,20 0,8 6,17 13,19 7,3 5,6 -5,6 -9,1 -21,-6 -26,-15 -7,-12 -11,-13 -16,-5 -10,16 3,68 18,74 15,6 29,47 16,47 -4,0 -10,-7 -14,-15 -3,-8 -11,-15 -17,-15 -22,0 -2,69 28,94 15,13 25,28 21,32 -5,4 -16,-1 -27,-10 -13,-12 -21,-14 -26,-6 -10,16 5,71 21,77 8,3 14,11 14,18 0,7 6,16 13,18 9,4 9,6 0,6 -7,1 -21,-9 -32,-21 -17,-17 -21,-18 -26,-7 -6,17 21,89 34,89 5,0 11,9 14,21 4,15 2,18 -7,10 -6,-5 -17,-6 -24,-2 -19,12 -4,59 24,78 13,8 24,21 24,28 0,12 14,19 43,24 4,0 7,-12 7,-28 z m 2810,-1 c 0,-5 -9,-25 -21,-44 l -20,-34 20,5 c 18,5 21,1 21,-26 0,-20 -7,-35 -20,-43 -11,-7 -20,-19 -20,-27 0,-12 3,-12 12,-3 20,20 27,14 26,-24 -1,-29 -9,-42 -43,-70 -23,-19 -45,-34 -49,-34 -11,0 -6,44 9,73 13,25 13,27 -3,25 -25,-4 -29,46 -5,64 19,14 47,58 37,58 -3,0 -14,-5 -26,-11 -26,-14 -31,-8 -18,27 19,50 100,102 100,64 z m 0,-278 c 0,-27 -28,-80 -48,-92 -16,-9 -16,-9 1,-10 9,0 17,5 17,10 0,6 7,10 16,10 13,0 15,-7 10,-31 -3,-16 -12,-36 -19,-42 -7,-7 -27,-24 -43,-40 -26,-23 -31,-25 -32,-10 -1,23 19,76 32,86 7,5 5,7 -4,6 -58,-6 -54,32 8,88 52,48 62,52 62,25 z m -11,-191 c 15,-10 8,-61 -9,-61 -6,0 -10,-5 -10,-10 0,-6 8,-10 18,-8 27,5 28,-40 0,-69 -22,-23 -22,-25 -3,-21 29,5 34,-46 6,-62 -26,-13 -28,-32 -3,-28 29,5 28,-45 -3,-77 -14,-16 -22,-31 -19,-34 4,-3 9,0 11,7 3,6 11,12 20,12 11,0 13,-7 8,-31 -7,-32 -33,-69 -48,-69 -12,0 -86,-83 -87,-96 0,-11 -45,-25 -53,-17 -13,12 11,53 49,83 24,19 44,41 44,47 0,7 10,23 21,34 l 22,22 -27,-7 c -24,-6 -26,-4 -26,24 0,21 8,36 30,52 17,12 30,29 30,37 0,11 -5,9 -21,-7 -22,-24 -39,-21 -39,6 1,21 20,46 43,55 9,3 17,13 17,22 0,19 -29,20 -36,0 -4,-8 -11,-12 -16,-9 -13,9 -2,63 18,85 15,16 14,17 -5,12 -17,-4 -21,-1 -21,21 0,15 11,38 25,52 14,14 25,29 25,34 0,12 20,13 39,1 z m 8,-489 c -19,-44 -74,-86 -95,-73 -8,5 -4,16 13,35 14,16 25,34 25,41 0,12 50,34 62,28 4,-2 2,-16 -5,-31 z m -2679,-1 c -44,-55 -66,-73 -89,-69 -23,3 -22,5 22,51 32,33 51,46 63,41 14,-5 14,-9 4,-23 z m -78,13 c 0,-3 -14,-24 -31,-45 -21,-27 -39,-39 -55,-39 l -25,0 32,45 c 22,31 40,45 56,45 13,0 23,-3 23,-6 z m 155,-14 c 3,-11 10,-20 14,-20 4,0 16,9 26,20 10,11 29,20 43,20 l 24,0 -26,-34 c -14,-19 -26,-39 -26,-45 0,-6 -17,-11 -37,-11 -29,0 -34,3 -25,12 23,23 12,28 -20,8 -51,-31 -92,-23 -53,10 8,7 15,18 15,24 0,35 55,49 65,16 z m 177,-5 c -8,-40 -80,-82 -97,-55 -3,6 -2,10 4,10 5,0 13,10 17,22 10,34 27,48 54,45 19,-1 24,-7 22,-22 z m 88,17 c 0,-18 -63,-82 -81,-82 -26,0 -24,11 12,53 28,33 69,50 69,29 z m 73,-24 c -26,-48 -39,-58 -68,-58 -23,0 -25,3 -19,22 11,35 52,67 87,68 17,0 17,-1 0,-32 z m 92,12 c -8,-26 3,-25 31,1 12,11 32,19 43,17 21,-3 21,-3 -4,-32 -14,-16 -25,-35 -25,-43 0,-10 -9,-13 -27,-11 -20,2 -27,8 -25,21 4,23 -10,22 -38,-3 -13,-11 -32,-20 -43,-20 -18,0 -18,2 7,34 14,19 26,39 26,45 0,6 14,11 31,11 26,0 29,-3 24,-20 z m 165,10 c 0,-12 -20,-49 -37,-68 -19,-20 -59,-11 -55,13 7,38 92,89 92,55 z m 82,4 c 9,-8 -16,-53 -38,-69 -17,-13 -54,-21 -54,-11 0,15 32,75 42,79 18,8 44,8 50,1 z m 80,-24 c -9,-16 -20,-30 -24,-30 -5,0 -8,-7 -8,-15 0,-10 -10,-15 -31,-15 -26,0 -29,3 -24,21 10,30 55,68 82,69 22,0 22,-1 5,-30 z m 93,8 c -12,-38 -46,-68 -77,-68 -26,0 -29,3 -23,23 12,37 46,67 77,67 26,0 29,-3 23,-22 z m 77,0 c -4,-23 4,-23 30,2 19,18 58,28 58,15 0,-10 -26,-61 -37,-72 -6,-7 -23,-13 -38,-13 -22,0 -25,3 -20,20 3,11 2,20 -3,20 -5,0 -17,-9 -27,-20 -10,-11 -29,-20 -43,-20 l -24,0 26,34 c 14,19 26,40 26,46 0,6 12,10 28,8 19,-2 26,-8 24,-20 z m 171,2 c -3,-11 -1,-20 4,-20 6,0 18,9 28,20 18,20 55,28 55,11 0,-4 -9,-20 -20,-34 -11,-14 -20,-30 -20,-36 0,-6 -16,-11 -36,-11 -32,0 -35,2 -24,15 20,25 4,29 -21,6 -13,-12 -33,-21 -46,-21 l -24,0 18,32 c 28,50 36,57 65,58 21,0 25,-4 21,-20 z m 153,-22 c -19,-35 -28,-44 -55,-46 -30,-3 -32,-1 -26,20 9,30 54,68 82,68 l 21,0 -22,-42 z m 96,20 c -4,-28 17,-31 24,-3 5,21 12,25 33,23 18,-2 25,-8 23,-20 -4,-23 4,-23 30,2 19,18 58,28 58,15 0,-10 -26,-61 -36,-72 -6,-7 -24,-15 -39,-19 -26,-6 -27,-5 -21,20 4,16 2,26 -5,26 -6,0 -13,-9 -16,-19 -3,-11 -16,-22 -29,-25 -33,-9 -49,1 -33,20 20,24 2,28 -22,5 -13,-12 -33,-21 -46,-21 l -24,0 18,32 c 28,51 36,58 63,55 17,-1 24,-7 22,-19 z m 252,0 c -12,-38 -84,-91 -101,-74 -6,6 -1,20 19,50 26,39 33,45 61,46 25,0 27,-3 21,-22 z m 81,12 c 10,-16 -70,-91 -89,-84 -14,5 -14,9 5,35 20,28 57,59 71,59 4,0 10,-5 13,-10 z m 85,0 c 0,-31 -40,-77 -75,-86 -26,-7 -28,-5 -21,21 8,30 20,45 51,63 25,14 45,15 45,2 z m 85,-10 c -8,-26 3,-25 31,1 14,13 29,19 40,15 15,-6 15,-8 0,-29 -9,-12 -19,-30 -23,-39 -3,-10 -11,-18 -18,-18 -8,0 -21,-3 -31,-7 -14,-5 -16,-2 -10,20 8,34 -3,34 -38,2 -28,-26 -38,-30 -49,-19 -8,8 24,64 35,64 4,0 8,7 8,15 0,10 10,15 31,15 26,0 29,-3 24,-20 z m 165,10 c 0,-12 -20,-49 -35,-65 -6,-7 -23,-15 -39,-19 -27,-7 -28,-6 -22,20 8,29 20,44 51,62 25,14 45,15 45,2 z m 82,-12 c -4,-24 10,-23 38,2 24,21 50,27 50,11 0,-4 -8,-19 -18,-32 -10,-13 -22,-32 -25,-42 -5,-13 -15,-17 -34,-15 -23,2 -27,7 -25,27 4,23 3,23 -13,8 -23,-24 -54,-39 -65,-32 -8,5 11,51 35,82 15,19 61,12 57,-9 z m 168,12 c 0,-12 -20,-49 -36,-66 -6,-7 -22,-14 -35,-16 -20,-2 -24,1 -21,20 2,25 15,41 47,60 25,14 45,15 45,2 z m 80,-11 c 0,-11 -7,-27 -15,-35 -8,-9 -15,-13 -15,-10 0,3 -9,-3 -20,-14 -37,-37 -50,-23 -28,27 19,41 30,52 56,53 16,0 22,-6 22,-21 z m 90,11 c 0,-5 -18,-29 -40,-52 -29,-29 -44,-38 -51,-31 -14,14 2,44 37,72 28,22 54,27 54,11 z"
       id="path8"
       inkscape:connector-curvature="0" />
    <path
       d="m 4230,2321 c 0,-17 6,-18 68,-14 84,7 93,13 19,13 -31,0 -57,5 -57,10 0,6 -7,10 -15,10 -8,0 -15,-8 -15,-19 z"
       id="path10"
       inkscape:connector-curvature="0" />
    <path
       d="m 4110,2255 c 0,-8 7,-15 15,-15 8,0 15,-9 15,-20 0,-11 -7,-20 -15,-20 -8,0 -15,-4 -15,-10 0,-19 25,-9 44,16 18,25 18,26 -3,45 -24,23 -41,25 -41,4 z"
       id="path12"
       inkscape:connector-curvature="0" />
    <path
       d="m 4062,2217 c -12,-13 -25,-38 -28,-56 -6,-27 -2,-37 17,-55 21,-19 27,-20 49,-9 l 25,13 -32,0 c -29,0 -33,3 -31,25 2,17 8,25 20,25 10,0 18,7 18,15 0,8 -7,15 -15,15 -13,0 -14,4 -5,21 16,30 7,33 -18,6 z"
       id="path14"
       inkscape:connector-curvature="0" />
    <path
       d="m 2130,2220 c 34,-11 60,-11 35,0 -11,5 -29,8 -40,8 -16,0 -15,-2 5,-8 z"
       id="path16"
       inkscape:connector-curvature="0" />
    <path
       d="m 2260,2202 c 8,-6 35,-13 60,-16 25,-4 59,-9 75,-12 22,-4 26,-3 15,5 -8,6 -40,13 -70,16 -30,4 -64,9 -75,11 -16,4 -17,3 -5,-4 z"
       id="path18"
       inkscape:connector-curvature="0" />
    <path
       d="m 2490,2161 c 8,-5 42,-12 75,-15 75,-8 44,9 -35,18 -36,5 -50,4 -40,-3 z"
       id="path20"
       inkscape:connector-curvature="0" />
    <path
       d="m 2698,2134 c 6,-3 10,-9 8,-12 -2,-4 14,-8 35,-9 22,0 51,-4 65,-7 15,-4 23,-3 20,2 -3,6 -27,13 -53,16 -27,4 -57,9 -68,11 -11,3 -14,2 -7,-1 z"
       id="path22"
       inkscape:connector-curvature="0" />
    <path
       d="m 2923,2096 c 18,-14 115,-31 124,-22 3,3 -12,7 -33,11 -22,3 -55,10 -74,15 -30,8 -33,7 -17,-4 z"
       id="path24"
       inkscape:connector-curvature="0" />
    <path
       d="m 2220,2075 c 0,-8 9,-15 20,-15 13,0 18,5 14,15 -4,8 -12,15 -20,15 -8,0 -14,-7 -14,-15 z"
       id="path26"
       inkscape:connector-curvature="0" />
    <path
       d="m 3125,2062 c 13,-12 115,-31 115,-21 0,4 -13,10 -30,13 -87,17 -95,18 -85,8 z"
       id="path28"
       inkscape:connector-curvature="0" />
    <path
       d="m 3331,2026 c 2,-2 28,-9 57,-14 55,-10 75,1 21,12 -35,7 -84,8 -78,2 z"
       id="path30"
       inkscape:connector-curvature="0" />
    <path
       d="m 2401,2006 c 8,-8 133,-56 136,-52 2,2 -26,15 -62,30 -62,25 -84,31 -74,22 z"
       id="path32"
       inkscape:connector-curvature="0" />
    <path
       d="m 3555,1990 c 17,-4 41,-8 55,-8 l 25,0 -25,8 c -14,4 -38,8 -55,8 l -30,0 30,-8 z"
       id="path34"
       inkscape:connector-curvature="0" />
    <path
       d="m 3993,1964 c -22,-20 -36,-25 -65,-22 -48,5 -50,-9 -2,-18 24,-4 38,-14 44,-30 24,-62 85,-82 134,-43 35,28 36,80 1,114 -32,33 -76,33 -112,-1 z m 106,-8 c 7,-8 11,-34 9,-58 l -3,-43 -43,-3 c -24,-2 -50,2 -58,9 -17,14 -19,80 -2,97 17,17 83,15 97,-2 z"
       id="path36"
       inkscape:connector-curvature="0" />
    <path
       d="m 3730,1960 c 14,-4 39,-8 55,-8 25,-1 27,1 10,8 -11,5 -36,8 -55,8 -32,0 -33,-1 -10,-8 z"
       id="path38"
       inkscape:connector-curvature="0" />
    <path
       d="m 2630,1914 c 19,-9 37,-19 40,-23 3,-3 16,-7 30,-8 20,-1 16,2 -15,17 -22,10 -51,20 -65,24 -16,4 -12,0 10,-10 z"
       id="path40"
       inkscape:connector-curvature="0" />
    <path
       d="m 3129,1725 c 18,-8 38,-15 45,-15 6,1 -4,7 -23,15 -18,8 -38,15 -45,15 -6,-1 4,-7 23,-15 z"
       id="path42"
       inkscape:connector-curvature="0" />
    <path
       d="m 4113,1693 c 7,-40 -2,-53 -37,-54 l -31,-1 32,-9 c 24,-7 33,-17 39,-42 l 8,-32 6,35 c 4,31 9,35 40,39 l 35,4 -35,6 c -33,6 -35,8 -32,44 2,29 -1,37 -14,37 -12,0 -15,-6 -11,-27 z"
       id="path44"
       inkscape:connector-curvature="0" />
    <path
       d="m 3638,1574 c -34,-24 -36,-28 -26,-57 32,-94 126,-106 159,-20 13,34 12,38 -17,72 -32,39 -66,40 -116,5 z"
       id="path46"
       inkscape:connector-curvature="0" />
    <path
       d="m 3902,1584 c -52,-36 -68,-113 -28,-139 23,-15 28,-15 70,5 25,11 46,27 46,35 0,25 -30,17 -40,-10 -7,-19 -17,-25 -40,-25 -25,0 -29,4 -28,24 2,18 10,26 29,30 52,10 90,76 53,90 -24,9 -38,7 -62,-10 z m 48,-8 c 0,-30 -13,-46 -36,-46 -22,0 -24,2 -13,23 19,35 49,50 49,23 z"
       id="path48"
       inkscape:connector-curvature="0" />
    <path
       d="m 3512,1573 c 5,-26 38,-29 38,-4 0,15 -6,21 -21,21 -14,0 -19,-5 -17,-17 z"
       id="path50"
       inkscape:connector-curvature="0" />
  </g>
  <g
     style="fill:#000000;stroke:none"
     transform="matrix(0.024,0,0,-0.024,6.8875841e-4,231.07301)"
     id="g3035">
    <path
       inkscape:connector-curvature="0"
       d="m 6840,8481 c -7,-13 -7,-28 0,-45 13,-34 47,-34 62,-1 9,21 8,28 -7,45 -23,25 -41,25 -55,1 z m 38,-24 c 5,-37 -15,-34 -20,3 -3,19 -1,29 6,27 6,-2 12,-16 14,-30 z"
       id="path3037" />
    <path
       inkscape:connector-curvature="0"
       d="m 216,7881 c -3,-5 1,-11 9,-15 17,-6 20,-37 6,-64 -10,-19 -23,-51 -41,-99 -7,-18 -21,-35 -32,-39 -15,-4 -17,-9 -7,-20 6,-8 18,-14 26,-14 7,0 25,-7 39,-16 30,-20 44,-11 21,14 -14,15 -14,23 -3,55 15,46 22,53 38,39 33,-26 102,-14 112,20 13,52 7,76 -24,90 -16,7 -30,16 -30,20 0,5 -8,8 -19,8 -10,0 -35,7 -54,15 -20,8 -38,11 -41,6 z m 118,-64 c 25,-18 17,-58 -15,-76 -24,-13 -28,-13 -43,2 -12,12 -14,21 -7,34 5,10 12,26 15,36 6,20 25,22 50,4 z"
       id="path3039" />
    <path
       inkscape:connector-curvature="0"
       d="m 439,7827 c -1,-1 -2,-17 -4,-36 -2,-18 -8,-44 -14,-57 -17,-38 -29,-66 -43,-108 -7,-21 -21,-42 -32,-45 -16,-7 -14,-10 18,-29 47,-28 50,-27 42,3 -4,14 -1,35 5,47 7,13 15,29 19,37 13,29 38,37 57,19 16,-16 15,-20 -7,-68 -13,-27 -27,-50 -32,-50 -17,0 -7,-17 17,-28 36,-16 40,-15 41,11 0,12 7,44 15,70 16,57 7,77 -39,92 l -31,11 20,43 c 25,56 24,64 -6,78 -14,6 -25,10 -26,10 z"
       id="path3041" />
    <path
       inkscape:connector-curvature="0"
       d="m 2090,7632 c -164,-2 -226,-6 -232,-15 -10,-16 -10,-2294 0,-2301 27,-17 2988,-24 3005,-7 6,6 9,197 9,508 -1,274 -2,786 -2,1139 -1,352 -4,645 -8,651 -5,7 -383,12 -1270,16 -694,3 -1266,7 -1270,9 -4,2 -108,2 -232,0 z m -153,-94 c -33,-41 -44,-46 -53,-23 -7,17 33,72 56,77 29,7 28,-16 -3,-54 z m 108,52 c 3,-5 -12,-33 -35,-61 -30,-38 -38,-55 -30,-64 21,-25 -8,-85 -82,-169 -4,-6 -8,3 -8,21 0,21 12,44 40,76 22,25 40,50 40,56 0,23 -29,9 -50,-24 -12,-19 -24,-35 -26,-35 -2,0 -4,18 -4,40 0,26 4,40 13,40 7,0 37,29 65,65 52,65 65,74 77,55 z m 80,0 c 8,-13 -72,-110 -91,-110 -8,0 -14,3 -14,8 0,19 76,112 91,112 4,0 11,-5 14,-10 z m 85,-9 c 0,-15 -82,-101 -96,-101 -8,0 -14,4 -14,9 0,11 56,82 77,98 16,12 33,9 33,-6 z m 80,3 c 0,-8 -61,-87 -75,-96 -14,-10 -35,-10 -35,0 0,20 74,102 91,102 11,0 19,-3 19,-6 z m 77,-14 c -25,-36 -77,-90 -87,-90 -23,0 -17,21 18,64 24,30 45,46 60,46 21,0 22,-2 9,-20 z m 83,11 c 0,-15 -64,-90 -83,-96 -33,-12 -30,3 9,55 33,44 74,67 74,41 z m 79,-8 c -63,-78 -78,-93 -95,-93 -21,0 -18,8 23,61 26,35 44,49 61,49 22,0 23,-2 11,-17 z m 81,11 c 0,-18 -76,-104 -92,-104 -24,0 -23,3 19,60 21,28 45,50 55,50 10,0 18,-3 18,-6 z m 64,-31 c -49,-64 -58,-73 -77,-73 -17,0 -17,1 -1,30 29,47 63,80 86,80 19,0 19,-2 -8,-37 z m 96,26 c 0,-19 -74,-99 -92,-99 -25,0 -23,5 20,61 34,44 72,64 72,38 z m 90,4 c -1,-5 -20,-30 -44,-57 -27,-31 -49,-47 -60,-45 -16,4 -14,9 13,44 17,22 35,46 41,53 12,13 50,17 50,5 z m 80,0 c 0,-5 -20,-30 -43,-57 -28,-32 -49,-47 -61,-45 -15,3 -12,12 24,57 24,30 50,52 61,52 10,0 19,-3 19,-7 z m 80,1 c 0,-3 -17,-28 -37,-55 -26,-33 -45,-48 -62,-49 -17,0 -21,3 -14,13 57,76 77,97 94,97 10,0 19,-3 19,-6 z m 80,-2 c 0,-4 -11,-19 -24,-33 -13,-14 -29,-35 -35,-47 -10,-20 -51,-32 -51,-16 0,18 76,104 92,104 10,0 18,-3 18,-8 z m 80,1 c -1,-22 -72,-103 -90,-103 -23,0 -26,13 -7,32 7,7 23,28 36,46 20,28 61,45 61,25 z m 83,-5 c -57,-77 -77,-98 -94,-98 -26,0 -24,5 13,54 39,49 47,56 72,56 13,0 16,-4 9,-12 z m 81,0 c -25,-42 -79,-98 -95,-98 -27,0 -24,6 22,61 23,28 49,49 61,49 13,0 17,-4 12,-12 z m 86,6 c 0,-17 -84,-104 -101,-104 -10,0 -19,3 -19,6 0,17 84,104 101,104 10,0 19,-3 19,-6 z m 80,0 c 0,-17 -84,-104 -101,-104 -10,0 -19,3 -19,6 0,17 84,104 101,104 10,0 19,-3 19,-6 z m 80,1 c 0,-3 -17,-28 -37,-55 -27,-36 -44,-50 -61,-50 -18,0 -22,3 -15,13 57,76 77,97 94,97 10,0 19,-2 19,-5 z m 80,-4 c 0,-10 -66,-92 -83,-103 -6,-3 -16,-4 -24,-1 -24,9 62,113 93,113 8,0 14,-4 14,-9 z m 80,2 c 0,-10 -68,-96 -82,-104 -6,-4 -17,-5 -25,-2 -10,4 -3,18 24,52 20,25 42,49 48,53 13,10 35,10 35,1 z m 80,-1 c 0,-20 -74,-102 -91,-102 -11,0 -19,3 -19,6 0,8 61,87 75,96 14,10 35,10 35,0 z m 80,0 c 0,-20 -74,-102 -91,-102 -27,0 -24,9 22,63 37,42 69,61 69,39 z m 90,2 c 0,-3 -19,-28 -42,-55 -39,-47 -61,-59 -72,-41 -8,13 74,102 95,102 10,0 19,-3 19,-6 z m 80,-1 c 0,-5 -22,-32 -48,-61 -32,-36 -51,-50 -60,-44 -17,12 62,112 89,112 10,0 19,-3 19,-7 z m 80,2 c 0,-3 -17,-28 -37,-55 -27,-36 -44,-50 -61,-50 -18,0 -22,3 -15,13 57,76 77,97 94,97 10,0 19,-2 19,-5 z m 80,-3 c 0,-5 -16,-30 -36,-55 -34,-44 -68,-66 -81,-53 -11,10 79,116 98,116 11,0 19,-4 19,-8 z m 80,-1 c 0,-15 -81,-111 -94,-111 -27,0 -24,15 11,59 21,25 42,49 48,53 14,10 35,10 35,-1 z m 83,3 c 9,-9 -83,-114 -99,-114 -25,0 -15,24 29,73 42,46 57,54 70,41 z m 85,-4 c -7,-22 -74,-100 -91,-106 -41,-14 -29,20 31,84 28,30 68,45 60,22 z m 82,-1 c 0,-20 -83,-109 -102,-109 -10,0 -18,4 -18,8 0,9 68,92 85,104 15,11 35,10 35,-3 z m 90,3 c 0,-17 -96,-112 -113,-112 -22,0 -14,18 38,78 32,37 75,57 75,34 z m 73,2 c 10,-10 -77,-114 -95,-114 -27,0 -22,17 24,71 39,46 57,57 71,43 z m 80,0 c 7,-8 -80,-124 -93,-124 -24,0 -18,26 19,75 39,51 59,64 74,49 z m 27,-64 c 0,-11 -26,-54 -57,-96 -53,-70 -58,-74 -61,-50 -3,19 11,46 48,96 54,73 70,84 70,50 z m -1208,-84 c 564,-2 1031,-7 1037,-10 7,-4 9,-319 8,-979 l -2,-972 -1310,4 c -720,2 -1312,6 -1315,8 -3,3 -6,9 -6,14 -1,5 -3,12 -4,17 -2,4 -4,50 -5,102 -2,82 -7,1785 -6,1817 1,9 72,10 289,7 158,-2 749,-6 1314,-8 z m 1208,-18 c 0,-24 -95,-158 -111,-158 -22,0 -5,41 44,108 28,39 55,71 60,72 4,0 7,-10 7,-22 z m -2850,-86 c 0,-19 -73,-124 -90,-130 -23,-8 -7,43 25,82 19,24 35,48 35,55 0,6 7,11 15,11 8,0 15,-8 15,-18 z m 2850,-24 c -1,-13 -25,-54 -55,-92 -45,-56 -56,-65 -61,-51 -8,20 0,34 59,114 42,56 57,63 57,29 z m -2850,-86 c 0,-21 -76,-116 -96,-120 -8,-2 -14,0 -14,5 0,24 83,133 102,133 4,0 8,-8 8,-18 z m 2850,-14 c 0,-25 -89,-147 -107,-148 -25,0 -12,33 40,100 28,38 55,69 60,70 4,0 7,-10 7,-22 z m -2850,-85 c 0,-20 -75,-119 -97,-127 -27,-11 -6,43 39,96 42,50 58,59 58,31 z m 2799,-108 c -29,-36 -56,-65 -61,-65 -23,0 -2,49 50,113 54,69 57,71 60,44 3,-21 -9,-43 -49,-92 z m -2839,-61 c -39,-52 -70,-70 -70,-40 0,8 24,43 53,78 46,56 52,60 55,40 2,-15 -11,-42 -38,-78 z m 2890,45 c 0,-23 -104,-162 -114,-152 -3,4 -6,13 -6,21 0,16 100,152 112,152 5,0 8,-9 8,-21 z m -2850,-71 c -1,-24 -76,-128 -92,-128 -21,0 -4,48 33,91 41,49 59,60 59,37 z m 2850,-32 c 0,-16 -22,-50 -57,-93 -50,-58 -58,-65 -61,-45 -2,12 5,33 15,46 10,13 34,44 53,69 40,53 50,57 50,23 z m -2850,-67 c 0,-25 -73,-129 -91,-129 -22,0 -6,46 32,91 40,48 59,60 59,38 z m 2850,-38 c 0,-18 -92,-143 -111,-149 -22,-8 -6,40 27,85 67,89 84,102 84,64 z M 1949,6652 c -24,-31 -47,-61 -51,-66 -4,-6 -8,4 -8,21 0,42 93,159 98,124 2,-14 -12,-43 -39,-79 z m 2891,39 c 0,-23 -100,-152 -112,-145 -16,10 -7,33 42,98 52,68 70,80 70,47 z m -2850,-67 c 0,-18 -80,-133 -92,-134 -22,-1 -3,53 34,99 43,53 58,62 58,35 z m 2850,-34 c 0,-21 -95,-150 -111,-150 -23,0 -5,44 43,104 56,70 68,78 68,46 z m -2850,-69 c 0,-10 -21,-46 -47,-80 -44,-57 -48,-60 -51,-37 -2,17 10,43 39,81 43,58 59,67 59,36 z m 2850,-34 c 0,-12 -23,-50 -51,-84 -47,-58 -69,-70 -69,-39 0,14 101,146 113,146 4,0 7,-10 7,-23 z m -2850,-74 c 0,-20 -91,-133 -102,-127 -16,10 -7,30 38,91 44,60 64,71 64,36 z m 2850,-25 c 0,-13 -25,-54 -55,-91 -42,-52 -57,-65 -61,-52 -4,9 -1,26 5,38 19,36 78,106 85,100 3,-4 6,1 6,10 0,10 5,17 10,17 6,0 10,-10 10,-22 z m -2850,-74 c 0,-22 -89,-136 -101,-129 -17,11 -9,33 39,92 45,59 62,68 62,37 z m 2848,-38 c -4,-19 -100,-145 -110,-145 -23,-2 -2,49 45,109 47,62 74,77 65,36 z m -2850,-53 c 1,-17 -11,-44 -38,-79 -22,-29 -40,-58 -40,-64 0,-5 -7,-10 -15,-10 -28,0 -15,36 37,108 28,40 52,72 52,72 1,0 3,-12 4,-27 z m 2852,-35 c 0,-22 -96,-156 -112,-157 -16,-2 -7,47 12,69 11,13 35,43 53,66 36,49 47,54 47,22 z m -2840,-62 c 0,-23 -85,-142 -108,-151 -25,-9 -6,40 41,105 40,57 67,75 67,46 z m 2840,-44 c 0,-18 -99,-151 -112,-152 -23,-1 -2,50 43,106 52,66 69,77 69,46 z M 1944,5925 c -26,-36 -51,-65 -55,-65 -5,0 -6,25 0,52 0,3 22,32 49,65 41,51 47,55 50,35 2,-14 -13,-45 -44,-87 z m 2896,54 c 0,-21 -94,-139 -111,-139 -22,0 -5,37 43,96 55,68 68,76 68,43 z M 1943,5816 c -26,-35 -51,-65 -55,-65 -24,-2 -1,55 45,115 48,63 52,66 55,41 2,-19 -10,-44 -45,-91 z m 2897,65 c 0,-22 -104,-154 -114,-144 -14,15 -3,39 46,99 54,67 68,76 68,45 z m -2850,-90 c 0,-10 -24,-49 -52,-87 -51,-66 -53,-68 -56,-41 -3,21 9,44 45,91 47,63 63,72 63,37 z m 2800,-91 c -54,-62 -70,-72 -70,-42 1,19 5,26 70,102 44,52 45,53 48,26 3,-20 -9,-41 -48,-86 z m -2800,-10 c 0,-21 -77,-135 -97,-144 -25,-11 1,58 41,111 44,57 56,64 56,33 z m 2826,-53 c -14,-18 -41,-50 -60,-72 l -34,-40 2,31 c 1,22 19,51 56,95 48,55 55,60 58,40 2,-13 -7,-36 -22,-54 z m -2826,-45 c 0,-18 -17,-50 -47,-90 -48,-62 -48,-62 -51,-33 -2,22 4,39 23,58 14,16 36,43 48,60 12,18 23,33 25,33 1,0 2,-13 2,-28 z m 2850,-4 c 0,-13 -23,-49 -50,-82 -28,-32 -71,-85 -96,-117 -43,-56 -66,-70 -78,-50 -3,5 17,33 45,62 28,30 56,63 62,75 18,32 101,133 110,133 4,1 7,-9 7,-21 z M 1949,5405 c -23,-30 -45,-55 -50,-55 -5,0 -9,14 -9,30 0,17 4,30 9,30 5,0 27,24 48,52 37,51 38,52 41,26 2,-19 -9,-43 -39,-83 z m 2891,86 c 0,-23 -108,-161 -126,-161 -29,0 -20,21 36,86 33,38 60,75 60,82 0,6 7,12 15,12 8,0 15,-9 15,-19 z m -2797,-47 c 8,-8 -53,-94 -70,-101 -31,-12 -32,11 -1,50 43,55 57,65 71,51 z m 87,0 c 0,-14 -73,-104 -84,-104 -33,0 -21,29 34,88 19,20 50,30 50,16 z m 70,-16 c 0,-18 -68,-88 -86,-88 -21,0 -18,8 22,56 34,43 64,57 64,32 z m 90,6 c 0,-16 -75,-94 -91,-94 -11,0 -19,4 -19,8 0,18 73,92 91,92 10,0 19,-3 19,-6 z m 80,0 c 0,-16 -75,-94 -91,-94 -11,0 -19,3 -19,6 0,16 75,94 91,94 11,0 19,-3 19,-6 z m 61,-32 c -40,-51 -57,-64 -76,-60 -26,5 53,98 83,98 24,0 24,0 -7,-38 z m 78,-4 c -37,-48 -48,-58 -66,-58 -21,0 -15,21 20,60 19,23 41,39 55,39 23,1 23,0 -9,-41 z m 86,5 c -33,-45 -54,-63 -72,-63 -20,0 -16,15 20,58 21,27 40,41 56,41 l 23,1 -27,-37 z m 99,25 c -25,-42 -70,-88 -86,-88 -10,0 -18,4 -18,8 0,19 73,92 91,92 14,0 18,-4 13,-12 z m 80,0 c -25,-42 -70,-88 -86,-88 -25,0 -23,7 18,56 20,25 44,44 55,44 14,0 18,-4 13,-12 z m 79,6 c 11,-11 -64,-94 -84,-94 -26,0 -24,5 18,56 36,42 52,52 66,38 z m 81,-3 c 9,-14 -64,-91 -86,-91 -25,0 -22,8 22,59 34,40 53,50 64,32 z m 80,1 c 9,-15 -58,-91 -82,-92 -26,0 -24,5 22,63 28,35 49,46 60,29 z m 86,0 c 0,-5 -14,-27 -32,-50 -22,-29 -40,-42 -56,-42 -22,0 -23,2 -11,18 48,63 99,101 99,74 z m 84,-4 c -25,-42 -70,-88 -86,-88 -10,0 -18,4 -18,8 0,19 73,92 91,92 14,0 18,-4 13,-12 z m 80,0 c -25,-43 -68,-88 -85,-88 -26,0 -24,6 17,56 20,25 44,44 55,44 13,0 18,-4 13,-12 z m 86,6 c 0,-16 -75,-94 -91,-94 -11,0 -19,3 -19,6 0,18 74,94 91,94 10,0 19,-3 19,-6 z m 80,0 c 0,-16 -75,-94 -91,-94 -11,0 -19,3 -19,6 0,15 77,94 92,94 10,0 18,-3 18,-6 z m 80,-1 c 0,-3 -15,-25 -32,-49 -22,-28 -41,-43 -55,-44 -13,0 -23,3 -23,6 0,15 77,94 92,94 10,0 18,-3 18,-7 z m 53,-43 c -27,-36 -44,-50 -61,-50 -22,0 -23,2 -11,18 35,46 75,82 91,82 15,0 12,-9 -19,-50 z m 117,42 c 0,-20 -78,-92 -99,-92 -21,0 -20,4 19,50 37,44 80,66 80,42 z m 70,-3 c 0,-22 -62,-89 -82,-89 -24,0 -22,7 21,59 32,39 61,53 61,30 z m 84,3 c 3,-5 -15,-30 -40,-57 -34,-37 -47,-46 -56,-37 -9,9 -8,16 4,29 8,10 26,30 38,46 24,27 44,34 54,19 z m 86,-1 c 0,-17 -89,-103 -99,-96 -14,8 -3,29 38,73 28,30 61,43 61,23 z m 73,3 c 15,-15 -67,-106 -88,-98 -18,7 -9,25 34,72 30,32 42,38 54,26 z m 87,-1 c 0,-7 -43,-64 -65,-87 -18,-18 -49,-11 -37,9 27,49 102,106 102,78 z m 80,1 c 0,-11 -63,-93 -75,-97 -6,-3 -17,-2 -24,2 -14,9 63,101 85,101 8,0 14,-3 14,-6 z m 74,-3 c 6,-10 -47,-81 -71,-95 -8,-4 -19,-4 -24,1 -6,6 6,27 32,56 41,47 53,55 63,38 z m 80,0 c 9,-14 -65,-101 -85,-101 -28,0 -24,12 22,64 41,46 53,53 63,37 z m 79,-14 c -4,-7 -20,-29 -37,-49 -29,-37 -49,-47 -60,-29 -8,13 81,104 93,96 6,-3 8,-12 4,-18 z m 78,-6 c -15,-27 -68,-81 -79,-81 -26,0 -18,21 22,65 43,45 78,55 57,16 z m 83,7 c -38,-63 -84,-102 -98,-80 -8,13 65,92 85,92 14,0 18,-4 13,-12 z m 77,-5 c -5,-10 -23,-33 -38,-52 -22,-26 -33,-32 -46,-25 -14,8 -11,15 19,52 36,42 85,61 65,25 z m 209,-25 c 0,-25 -27,-58 -47,-58 -19,0 -16,17 9,50 26,36 38,38 38,8 z"
       id="path3043" />
    <path
       inkscape:connector-curvature="0"
       d="m 560,7606 c -51,-55 -13,-156 59,-156 41,0 73,30 86,81 10,41 9,47 -11,68 -14,15 -37,25 -65,28 -38,4 -47,1 -69,-21 z m 105,-26 c 14,-63 -51,-137 -82,-94 -27,37 9,124 51,124 19,0 26,-7 31,-30 z"
       id="path3045" />
    <path
       inkscape:connector-curvature="0"
       d="m 772,7608 c -7,-7 -12,-18 -12,-25 0,-7 -6,-13 -13,-13 -9,0 -14,-12 -15,-31 0,-18 -6,-37 -11,-42 -6,-6 -11,-27 -11,-47 0,-43 32,-67 71,-54 l 24,8 -25,6 c -32,7 -37,38 -14,85 12,26 21,34 34,30 23,-7 37,13 16,21 -10,4 -15,17 -13,36 2,34 -12,45 -31,26 z"
       id="path3047" />
    <path
       inkscape:connector-curvature="0"
       d="m 841,7489 c -24,-23 -31,-39 -31,-69 0,-75 90,-108 142,-52 41,42 41,91 2,127 -37,34 -75,32 -113,-6 z m 87,-1 c 16,-16 15,-66 -1,-98 -9,-18 -21,-25 -42,-25 -29,0 -30,1 -28,49 3,67 39,106 71,74 z"
       id="path3049" />
    <path
       inkscape:connector-curvature="0"
       d="m 4,7470 c 3,-25 7,-80 9,-122 2,-43 7,-81 10,-85 4,-3 7,-14 7,-23 0,-57 45,-86 113,-73 35,6 87,48 87,70 0,8 23,39 51,69 57,60 93,70 128,35 22,-22 41,-101 41,-172 0,-87 39,-139 104,-139 27,0 79,48 136,125 45,61 85,77 124,52 28,-19 36,-54 36,-166 0,-95 12,-130 50,-148 28,-13 80,-6 80,11 0,6 20,23 44,39 62,39 105,36 251,-16 53,-19 71,-31 78,-50 6,-19 17,-26 50,-31 23,-3 67,-10 97,-16 30,-6 75,-13 100,-17 41,-6 44,-5 31,10 -7,10 -19,17 -25,17 -6,0 -27,14 -46,30 -42,36 -128,94 -152,103 -13,5 -18,1 -18,-13 0,-28 -28,-29 -100,-2 -151,56 -170,62 -190,62 -29,0 -90,-33 -119,-64 -26,-28 -78,-36 -86,-13 -3,6 -7,62 -8,124 -3,102 -5,114 -30,146 -26,35 -57,46 -106,39 -13,-2 -46,-29 -75,-60 -100,-109 -103,-112 -134,-112 -16,0 -35,7 -42,15 -7,8 -16,59 -20,112 -4,56 -15,113 -25,133 -22,48 -64,66 -114,51 -47,-14 -47,-14 -119,-103 -63,-76 -78,-88 -112,-88 -25,0 -39,20 -44,66 -25,202 -26,209 -47,229 l -21,20 6,-45 z"
       id="path3051" />
    <path
       inkscape:connector-curvature="0"
       d="m 1025,7441 c 6,-20 -26,-105 -46,-116 -8,-6 -5,-12 12,-21 37,-21 49,-17 49,16 0,17 4,38 9,48 5,9 12,25 15,35 3,10 15,17 32,17 26,0 26,-2 20,-42 -4,-24 -15,-55 -26,-70 -21,-28 -14,-43 25,-50 14,-2 19,2 17,14 -1,9 4,34 13,54 18,44 19,78 3,91 -12,9 -109,43 -123,43 -4,0 -4,-8 0,-19 z"
       id="path3053" />
    <path
       inkscape:connector-curvature="0"
       d="m 3252,5187 c -12,-12 -24,-41 -28,-65 -4,-23 -10,-42 -15,-42 -5,0 -4,-12 1,-26 13,-33 13,-114 0,-114 -5,0 -10,-4 -10,-10 0,-13 67,-13 75,-1 3,5 1,12 -5,16 -5,3 -10,30 -10,59 0,46 3,54 21,59 12,3 18,10 15,16 -4,6 -13,8 -21,4 -12,-4 -15,4 -15,40 0,42 2,46 28,49 31,3 33,18 4,29 -14,5 -26,1 -40,-14 z"
       id="path3055" />
    <path
       inkscape:connector-curvature="0"
       d="m 2790,5168 c 0,-5 7,-11 15,-14 23,-9 22,-209 -1,-218 -32,-12 -3,-19 73,-17 73,2 80,4 108,33 30,31 30,33 16,65 -8,18 -22,33 -30,33 -11,0 -11,3 2,18 22,24 21,65 -1,85 -20,18 -182,32 -182,15 z m 143,-33 c 21,-20 10,-54 -20,-66 -35,-13 -44,-3 -41,42 3,33 7,39 25,39 12,0 28,-7 36,-15 z m 17,-115 c 4,-6 4,-26 1,-43 -6,-28 -11,-32 -44,-35 l -38,-3 2,43 c 1,24 4,46 6,50 6,11 64,2 73,-12 z"
       id="path3057" />
    <path
       inkscape:connector-curvature="0"
       d="m 3061,5064 c -25,-20 -31,-34 -31,-64 0,-30 6,-44 31,-64 17,-14 39,-26 48,-26 25,0 71,38 71,57 0,14 -4,12 -23,-5 -42,-40 -87,-25 -87,28 0,15 7,18 43,16 53,-4 67,1 67,24 0,22 -45,60 -71,60 -9,0 -31,-12 -48,-26 z m 67,-6 c 7,-7 12,-15 12,-19 0,-11 -33,-17 -54,-9 -17,6 -17,7 -2,23 21,20 28,21 44,5 z"
       id="path3059" />
    <path
       inkscape:connector-curvature="0"
       d="m 3358,5071 c -31,-25 -41,-74 -23,-118 16,-38 48,-49 102,-36 40,9 50,27 52,89 2,66 -78,106 -131,65 z m 69,-9 c 17,-11 26,-74 14,-105 -8,-19 -17,-27 -35,-27 -32,0 -39,13 -39,66 0,59 26,88 60,66 z"
       id="path3061" />
    <path
       inkscape:connector-curvature="0"
       d="m 3597,5084 c -4,-4 -25,-7 -47,-6 -29,1 -40,-2 -40,-12 0,-8 4,-17 9,-20 12,-8 12,-88 0,-103 -15,-18 -5,-28 31,-31 39,-3 61,9 35,18 -16,6 -19,15 -16,56 3,49 14,66 37,57 19,-7 28,17 12,33 -8,8 -17,11 -21,8 z"
       id="path3063" />
    <path
       inkscape:connector-curvature="0"
       d="m 3679,5072 c -45,-47 -52,-107 -16,-140 32,-30 77,-29 107,3 29,30 20,45 -9,16 -27,-27 -46,-27 -65,1 -28,39 -21,48 39,48 50,0 55,2 55,23 0,30 -11,44 -43,56 -37,14 -49,13 -68,-7 z m 71,-32 c 0,-21 -22,-26 -54,-14 -23,9 -1,34 30,34 17,0 24,-6 24,-20 z"
       id="path3065" />
    <path
       inkscape:connector-curvature="0"
       d="m 4875,4676 c -27,-19 -12,-48 22,-44 33,4 42,32 15,47 -14,7 -24,7 -37,-3 z"
       id="path3067" />
    <path
       inkscape:connector-curvature="0"
       d="m 2070,3030 -185,-5 4,-850 c 2,-467 5,-986 5,-1152 1,-187 5,-306 11,-312 10,-10 2816,-21 2930,-11 l 60,5 -2,475 c -7,1294 -15,1825 -27,1837 -9,10 -293,13 -1311,15 -715,2 -1383,1 -1485,-2 z m -50,-36 c 0,-11 -82,-104 -91,-104 -15,0 -10,31 11,60 20,29 16,48 -7,29 -10,-9 -13,-8 -13,5 0,13 11,16 50,16 28,0 50,-3 50,-6 z m 83,0 c 4,-4 -3,-20 -15,-37 -30,-42 -150,-167 -160,-167 -23,0 -2,45 47,96 30,32 55,62 55,66 0,5 6,8 14,8 7,0 16,9 19,20 5,19 27,27 40,14 z m 87,0 c 0,-4 -16,-28 -36,-55 -26,-36 -42,-49 -61,-49 -19,0 -23,3 -16,13 58,75 79,97 95,97 10,0 18,-3 18,-6 z m 75,-4 c 11,-18 -65,-100 -92,-100 l -25,0 33,43 c 49,64 71,78 84,57 z m 80,0 c 8,-13 -72,-110 -91,-110 -22,0 -17,19 18,64 45,57 60,67 73,46 z m 79,-14 c -10,-27 17,-27 42,-1 18,19 29,24 36,17 15,-15 -58,-102 -84,-102 -14,0 -18,5 -15,15 10,24 -13,29 -29,6 -8,-12 -24,-21 -36,-21 -20,0 -20,1 -3,28 40,61 107,105 89,58 z m 170,16 c 8,-13 -91,-115 -103,-108 -14,9 -3,31 42,79 36,37 51,44 61,29 z m 84,-4 c -2,-4 -19,-28 -38,-53 -23,-29 -43,-44 -58,-45 -28,0 -21,17 30,71 29,31 73,50 66,27 z m 76,3 c 6,-10 -56,-90 -80,-104 -8,-4 -19,-5 -24,-2 -12,7 1,27 49,80 32,36 46,42 55,26 z m 89,3 c 8,-8 -69,-101 -91,-109 -35,-13 -29,14 14,63 43,49 62,60 77,46 z m 76,-16 c -18,-34 -81,-98 -96,-98 -22,0 -15,20 23,63 46,54 96,78 73,35 z m 55,-42 c -36,-43 -69,-65 -81,-53 -7,8 66,101 85,108 35,14 33,-11 -4,-55 z m 171,2 c -48,-51 -56,-58 -72,-58 -22,0 -14,21 24,64 41,45 63,58 78,45 5,-6 -6,-25 -30,-51 z m 346,13 c -44,-55 -68,-74 -87,-67 -13,5 -9,14 27,54 52,57 58,62 76,55 9,-4 5,-15 -16,-42 z m 753,-15 c -36,-41 -78,-66 -90,-53 -3,3 19,31 50,63 43,44 59,55 68,46 8,-8 2,-22 -28,-56 z m 539,40 c -23,-41 -77,-96 -95,-96 -26,0 -22,8 30,69 27,31 48,48 57,44 8,-3 12,-10 8,-17 z m -1724,-37 c -45,-54 -61,-65 -79,-54 -18,11 69,105 97,105 24,0 23,-2 -18,-51 z m 170,1 c -39,-46 -73,-69 -86,-56 -3,2 14,28 37,55 30,35 51,51 67,51 23,0 22,-2 -18,-50 z m 110,33 c -61,-77 -109,-113 -109,-82 0,23 75,98 99,99 21,0 22,-2 10,-17 z m 61,-32 c -44,-51 -68,-67 -81,-54 -14,14 70,103 97,103 25,0 24,-1 -16,-49 z m 175,7 c -46,-52 -65,-68 -82,-68 -21,0 -16,12 28,63 29,33 48,47 66,47 25,0 25,0 -12,-42 z m 105,35 c 0,-18 -83,-103 -101,-103 -26,0 -24,5 14,46 17,20 36,42 40,50 8,14 47,20 47,7 z m 83,0 c 7,-12 -79,-103 -97,-103 -25,0 -19,14 25,64 39,43 62,56 72,39 z m 55,-45 c -25,-29 -55,-54 -67,-56 -29,-5 -27,2 21,59 29,34 49,49 66,49 24,0 23,-2 -20,-52 z m 115,38 c -17,-30 -85,-96 -98,-96 -23,0 -18,16 17,57 41,47 48,53 71,53 13,0 16,-4 10,-14 z m 52,-41 c -26,-30 -56,-55 -66,-55 -27,0 -24,6 22,61 29,35 48,49 66,49 23,0 23,-2 -22,-55 z m 125,49 c 0,-15 -96,-104 -112,-104 -25,0 -23,5 15,46 17,20 36,42 40,50 8,13 57,21 57,8 z m 74,-16 c -51,-62 -80,-88 -96,-88 -25,0 -23,6 23,61 29,35 48,49 66,49 26,0 26,0 7,-22 z m 176,14 c 0,-4 -19,-30 -43,-57 -32,-36 -48,-47 -61,-42 -16,6 -13,13 24,57 23,28 50,50 61,50 10,0 19,-3 19,-8 z m 65,-34 c -22,-23 -46,-48 -52,-56 -7,-7 -22,-12 -34,-10 -18,3 -15,9 26,56 34,37 54,52 73,52 26,0 26,0 -13,-42 z m 115,35 c 0,-16 -95,-103 -112,-103 -26,0 -23,6 25,60 26,31 50,49 65,50 12,0 22,-3 22,-7 z m 63,-25 c -17,-18 -39,-43 -49,-55 -18,-23 -54,-32 -54,-14 0,5 19,30 41,55 29,32 49,46 67,46 l 26,0 -31,-32 z m 100,26 c 10,-10 -85,-104 -105,-104 -25,0 -23,5 25,61 39,45 64,59 80,43 z m 141,-149 c -1,-33 -2,-75 -3,-92 -1,-21 -6,-33 -15,-33 -7,0 -26,-18 -41,-40 -31,-45 -45,-50 -45,-19 0,20 42,82 82,122 18,17 17,37 -2,37 -5,0 -21,-18 -37,-40 -32,-46 -43,-50 -43,-16 0,20 53,97 79,116 4,3 10,13 14,23 11,30 -19,19 -47,-18 -15,-19 -31,-35 -37,-35 -23,0 -5,46 39,96 l 47,56 5,-49 c 3,-26 5,-75 4,-108 z m -148,2 c 7,-8 20,-1804 14,-1955 0,-10 -262,-12 -1309,-12 l -1310,1 -5,42 c -11,85 -17,1929 -6,1922 5,-3 17,-2 25,2 12,7 2586,6 2591,0 z m -2666,-18 c 0,-19 -80,-117 -102,-127 -5,-2 -8,6 -8,19 0,20 84,125 103,128 4,1 7,-9 7,-20 z m 10,-82 c 0,-17 -26,-52 -77,-107 l -43,-45 0,30 c 0,23 11,42 43,73 24,23 47,39 52,35 4,-5 5,0 2,10 -4,11 -1,17 8,17 8,0 15,-6 15,-13 z m 2776,-133 c -14,-16 -34,-40 -45,-54 -10,-14 -22,-22 -26,-18 -13,13 4,53 47,106 43,52 43,52 46,24 2,-19 -5,-38 -22,-58 z m -2840,-53 c -51,-51 -56,-54 -56,-31 0,16 18,44 53,80 48,51 52,53 55,31 3,-18 -10,-38 -52,-80 z m 2874,12 c 0,-19 -12,-39 -35,-62 -19,-19 -35,-38 -35,-42 0,-5 -9,-13 -20,-19 -17,-9 -20,-8 -20,8 0,20 88,142 102,142 4,0 8,-12 8,-27 z m -2820,-29 c 0,-17 -87,-124 -101,-124 -25,0 -4,49 38,92 50,51 63,58 63,32 z m 2820,-70 c 0,-15 -14,-40 -35,-62 -19,-20 -35,-40 -35,-44 0,-4 -9,-12 -20,-18 -17,-9 -20,-8 -20,9 0,19 88,140 103,141 4,0 7,-12 7,-26 z m -2810,-7 c 0,-16 -24,-51 -69,-99 -71,-78 -69,-27 3,56 49,56 66,67 66,43 z m 2810,-89 c 0,-13 -21,-49 -47,-80 -43,-54 -63,-64 -63,-33 0,15 91,134 103,135 4,0 7,-10 7,-22 z m -2810,-8 c 0,-18 -14,-36 -92,-124 -22,-24 -35,-14 -22,18 10,26 94,124 107,125 4,1 7,-8 7,-19 z m 2810,-91 c 0,-24 -87,-132 -100,-124 -15,9 3,50 44,97 46,53 56,58 56,27 z m -2810,-6 c -2,-25 -106,-151 -116,-140 -13,12 7,53 47,100 37,42 70,61 69,40 z m 2763,-169 c -46,-53 -48,-54 -51,-30 -3,19 9,40 45,81 45,51 48,53 51,30 2,-18 -10,-41 -45,-81 z m -2763,72 c 0,-17 -97,-136 -111,-136 -24,0 -4,47 42,96 53,55 69,65 69,40 z m 2766,-166 c -24,-26 -47,-45 -50,-42 -14,13 -3,38 42,90 46,54 47,55 50,28 3,-21 -7,-38 -42,-76 z m -2766,65 c 0,-18 -88,-119 -108,-123 -24,-6 -3,38 46,95 43,50 62,58 62,28 z m 2810,-93 c 0,-19 -76,-112 -91,-112 -22,0 -6,43 34,88 42,49 57,55 57,24 z m -2810,0 c 0,-22 -105,-140 -116,-129 -11,11 9,47 56,100 46,51 60,58 60,29 z m 2769,-162 c -23,-27 -46,-50 -51,-50 -22,0 -3,47 40,97 45,52 47,53 50,29 2,-19 -9,-40 -39,-76 z m -2769,69 c 0,-20 -96,-139 -112,-139 -23,0 -2,47 45,99 57,65 67,71 67,40 z m 2816,-96 c -7,-29 -86,-113 -106,-113 -18,0 -5,24 42,85 48,60 74,72 64,28 z m -2816,-1 c 0,-10 -20,-42 -45,-71 -25,-29 -45,-57 -45,-62 0,-5 -7,-9 -15,-9 -24,0 -17,37 13,72 16,18 39,45 52,61 27,31 40,34 40,9 z m 2810,-91 c 0,-20 -14,-44 -50,-82 l -49,-54 -1,30 c 0,22 12,41 45,74 25,25 45,49 45,53 0,4 2,8 5,8 3,0 5,-13 5,-29 z m -2810,-8 c 0,-15 -94,-135 -111,-141 -26,-10 -3,44 44,101 50,63 67,73 67,40 z m 0,-99 c 0,-9 -17,-37 -37,-62 -64,-79 -70,-85 -75,-70 -8,20 7,49 51,98 22,25 41,49 41,53 0,15 20,-4 20,-19 z m 2817,9 c 4,-11 -86,-123 -99,-123 -21,0 -3,47 35,90 40,47 57,56 64,33 z M 2040,1491 c 0,-19 -88,-140 -102,-141 -23,-1 -2,51 37,95 24,28 45,53 45,58 0,17 20,5 20,-12 z m 2810,-3 c 0,-21 -74,-108 -92,-108 -20,0 -4,39 34,83 45,52 58,58 58,25 z m 0,-90 c -1,-13 -23,-47 -50,-78 -48,-53 -50,-54 -50,-27 0,19 14,43 46,77 26,28 48,50 50,50 2,0 4,-10 4,-22 z m -2800,-1 c 0,-6 -26,-45 -57,-85 -52,-66 -58,-71 -61,-48 -2,18 11,43 45,85 46,58 73,76 73,48 z m 2810,-87 c 0,-20 -84,-120 -101,-120 -20,0 -6,35 31,77 22,25 40,50 40,54 0,5 7,9 15,9 8,0 15,-9 15,-20 z m -2810,-6 c 0,-19 -97,-154 -111,-154 -22,0 -5,49 31,90 22,25 40,50 40,55 0,6 5,3 10,-5 8,-12 10,-11 10,8 0,12 5,22 10,22 6,0 10,-7 10,-16 z m 2810,-91 c 0,-20 -94,-125 -104,-116 -14,14 -3,37 40,83 50,53 64,60 64,33 z m -2815,-20 c -7,-28 -92,-143 -106,-143 -24,0 -4,50 39,97 26,28 46,56 44,62 -2,6 4,11 13,11 14,0 16,-6 10,-27 z m 2815,-71 c 0,-22 -89,-124 -101,-116 -18,11 -8,31 38,82 50,56 63,63 63,34 z M 1994,1007 c -26,-34 -50,-65 -54,-69 -3,-4 -7,6 -8,23 -1,16 3,36 10,43 7,7 31,36 53,63 37,47 40,49 43,26 3,-17 -11,-43 -44,-86 z m 2866,23 c 0,-20 -84,-120 -101,-120 -21,0 -5,35 38,86 51,59 63,65 63,34 z M 2040,981 c 0,-11 -25,-50 -55,-86 -52,-63 -55,-66 -55,-39 0,19 16,48 46,87 48,60 64,70 64,38 z m 2820,-41 c 0,-28 -166,-210 -191,-210 -27,0 -20,11 76,115 44,48 84,94 88,101 12,20 27,17 27,-6 z M 2040,886 c 0,-13 -18,-46 -40,-74 -22,-27 -40,-55 -40,-61 0,-14 -27,-15 -35,-1 -3,5 0,20 6,32 12,22 99,128 106,128 2,0 3,-11 3,-24 z m 2820,-48 c 0,-20 -86,-108 -104,-108 -26,0 -19,15 32,69 48,50 72,63 72,39 z M 2091,822 c -5,-9 -19,-26 -30,-36 -12,-11 -21,-25 -21,-33 0,-8 -12,-13 -31,-13 -28,0 -30,2 -18,18 31,40 79,82 94,82 12,0 13,-4 6,-18 z m 83,10 c 2,-4 -12,-27 -33,-51 -27,-32 -43,-42 -60,-39 -22,3 -21,5 21,51 43,45 61,56 72,39 z m 96,-8 c 0,-10 -6,-14 -15,-10 -8,3 -14,2 -13,-2 6,-17 -47,-72 -69,-72 -33,0 -29,12 22,59 46,43 75,52 75,25 z m 48,-36 c -23,-28 -45,-44 -63,-46 l -28,-4 38,46 c 26,32 45,46 62,46 l 26,0 -35,-42 z m 106,34 c 5,-9 -69,-92 -83,-92 -25,0 -19,23 15,60 36,39 57,49 68,32 z m 61,-36 c -38,-47 -52,-56 -72,-49 -22,8 55,93 84,93 24,0 24,-1 -12,-44 z m 106,25 c -15,-28 -81,-82 -92,-76 -15,10 -11,18 27,58 38,40 83,53 65,18 z m 89,12 c -1,-5 -16,-25 -35,-46 -22,-26 -40,-37 -54,-35 -19,3 -17,6 15,46 31,36 75,57 74,35 z m 50,-42 c -26,-32 -46,-48 -56,-44 -19,7 -19,9 19,53 20,25 41,40 55,40 23,0 22,-3 -18,-49 z m 110,37 c -1,-17 -41,-63 -68,-77 -36,-19 -36,6 0,49 32,38 68,53 68,28 z m 90,5 c 0,-12 -78,-93 -89,-93 -23,0 -18,20 15,59 31,36 74,56 74,34 z m 72,-20 c -31,-44 -59,-65 -81,-61 -19,3 -18,6 16,46 24,27 46,42 61,42 l 23,0 -19,-27 z m 98,20 c 0,-12 -78,-93 -89,-93 -26,0 -20,26 15,61 34,35 74,52 74,32 z m 74,-2 c 8,-12 -68,-91 -87,-91 -24,0 -22,6 19,56 35,42 57,54 68,35 z m 85,-8 c -49,-66 -99,-102 -99,-72 0,23 65,89 89,89 21,0 22,-2 10,-17 z m 82,0 c -15,-27 -69,-83 -80,-83 -26,0 -20,25 15,61 40,41 84,55 65,22 z m 89,11 c 0,-3 -12,-21 -27,-40 -29,-39 -58,-58 -73,-49 -15,9 59,95 81,95 11,0 19,-3 19,-6 z m 71,-21 c -40,-54 -46,-60 -68,-67 -12,-4 -24,-3 -26,2 -9,13 73,92 94,92 20,0 20,0 0,-27 z m 93,19 c 7,-11 -70,-92 -89,-92 -24,0 -18,17 21,60 35,38 57,49 68,32 z m 80,0 c 8,-13 -65,-92 -85,-92 -27,0 -24,9 17,58 35,40 57,51 68,34 z m 84,-10 c -41,-58 -69,-83 -89,-80 -20,3 -18,6 17,50 26,32 47,48 62,48 21,0 22,-2 10,-18 z m 92,11 c -1,-16 -79,-93 -94,-93 -26,0 -19,21 21,62 33,34 74,51 73,31 z m 73,1 c 8,-8 -41,-72 -66,-85 -37,-21 -37,7 2,49 38,41 51,49 64,36 z m 87,-6 c 0,-21 -70,-88 -91,-88 -24,0 -18,12 29,64 32,36 62,47 62,24 z m 90,6 c 0,-15 -77,-94 -92,-94 -10,0 -18,4 -18,8 0,18 73,92 91,92 10,0 19,-3 19,-6 z m 80,-2 c 0,-16 -71,-92 -86,-92 -22,0 -17,19 17,61 27,35 69,53 69,31 z m 80,-3 c 0,-19 -65,-89 -82,-89 -28,0 -21,21 18,63 34,36 64,48 64,26 z m 84,3 c 8,-13 -65,-92 -85,-92 -27,0 -24,11 17,58 34,40 57,51 68,34 z m 86,-1 c 0,-18 -73,-91 -91,-91 -27,0 -24,10 21,58 37,39 70,55 70,33 z m 84,1 c 7,-11 -70,-92 -89,-92 -25,0 -17,22 21,63 34,36 57,46 68,29 z m 79,2 c 9,-9 -63,-94 -79,-94 -23,0 -16,27 17,65 30,34 48,42 62,29 z m 87,0 c 0,-18 -74,-94 -91,-94 -10,0 -19,3 -19,6 0,18 74,94 91,94 10,0 19,-3 19,-6 z m 180,-69 c 0,-16 -27,-32 -37,-22 -3,4 -3,13 0,22 8,20 37,20 37,0 z"
       id="path3069" />
    <path
       inkscape:connector-curvature="0"
       d="m 4225,2330 c -13,-22 10,-30 80,-30 66,0 107,14 73,24 -32,10 -148,14 -153,6 z"
       id="path3071" />
    <path
       inkscape:connector-curvature="0"
       d="m 4095,2260 c -38,-15 -67,-57 -72,-103 -5,-40 -3,-47 21,-62 34,-23 81,-11 109,27 28,37 13,48 -21,16 -24,-23 -54,-29 -69,-14 -10,9 9,26 45,42 73,30 95,76 46,94 -29,12 -32,12 -59,0 z m 33,-36 c -3,-19 -34,-41 -43,-32 -9,9 18,48 33,48 7,0 12,-7 10,-16 z"
       id="path3073" />
    <path
       inkscape:connector-curvature="0"
       d="m 2100,2227 c 0,-11 14,-18 45,-23 25,-3 49,-4 52,0 12,12 -14,28 -56,33 -33,5 -41,3 -41,-10 z"
       id="path3075" />
    <path
       inkscape:connector-curvature="0"
       d="m 2240,2206 c 0,-17 13,-22 100,-36 84,-13 90,-13 90,4 0,18 -15,23 -105,36 -89,12 -85,13 -85,-4 z"
       id="path3077" />
    <path
       inkscape:connector-curvature="0"
       d="m 2470,2165 c 0,-15 9,-18 100,-34 34,-6 59,-6 65,0 15,15 -6,28 -64,39 -75,14 -101,13 -101,-5 z"
       id="path3079" />
    <path
       inkscape:connector-curvature="0"
       d="m 2685,2140 c -4,-7 -2,-16 6,-20 20,-13 138,-32 150,-24 19,12 -11,32 -59,39 -26,3 -57,9 -68,12 -12,2 -25,-1 -29,-7 z"
       id="path3081" />
    <path
       inkscape:connector-curvature="0"
       d="m 2090,2125 c 0,-15 59,-46 73,-38 16,9 5,25 -28,39 -43,18 -45,17 -45,-1 z"
       id="path3083" />
    <path
       inkscape:connector-curvature="0"
       d="m 2906,2101 c -10,-15 23,-29 92,-37 52,-5 62,-4 62,9 0,16 -16,21 -101,33 -29,3 -49,2 -53,-5 z"
       id="path3085" />
    <path
       inkscape:connector-curvature="0"
       d="m 2220,2075 c 0,-15 53,-42 103,-52 48,-10 30,17 -28,43 -65,28 -75,29 -75,9 z"
       id="path3087" />
    <path
       inkscape:connector-curvature="0"
       d="m 3106,2072 c -9,-14 14,-29 59,-36 22,-4 50,-10 61,-12 31,-8 41,24 11,35 -39,15 -124,23 -131,13 z"
       id="path3089" />
    <path
       inkscape:connector-curvature="0"
       d="m 3315,2040 c -4,-7 -3,-15 1,-20 15,-14 127,-31 137,-21 16,16 -2,30 -51,36 -26,4 -54,9 -64,11 -9,3 -19,0 -23,-6 z"
       id="path3091" />
    <path
       inkscape:connector-curvature="0"
       d="m 2384,2019 c -3,-6 -2,-14 2,-19 12,-11 134,-60 151,-60 19,0 16,27 -4,35 -104,42 -143,53 -149,44 z"
       id="path3093" />
    <path
       inkscape:connector-curvature="0"
       d="m 3515,2009 c -10,-15 4,-29 28,-29 12,0 28,-4 36,-9 16,-10 61,0 61,14 0,17 -116,40 -125,24 z"
       id="path3095" />
    <path
       inkscape:connector-curvature="0"
       d="m 3985,1974 c -20,-21 -31,-25 -67,-22 -56,4 -60,-22 -5,-37 26,-7 42,-20 53,-40 21,-42 42,-55 85,-55 45,0 87,33 90,70 3,48 -1,61 -26,85 -34,35 -97,35 -130,-1 z m 115,-44 c 6,-12 7,-28 1,-43 -21,-56 -105,-34 -99,26 5,57 70,69 98,17 z"
       id="path3097" />
    <path
       inkscape:connector-curvature="0"
       d="m 3694,1978 c -11,-18 13,-30 75,-35 43,-4 61,-2 61,6 0,22 -124,49 -136,29 z"
       id="path3099" />
    <path
       inkscape:connector-curvature="0"
       d="m 2590,1932 c 0,-14 14,-25 56,-41 65,-25 84,-26 84,-7 0,8 -23,23 -52,34 -29,11 -61,23 -70,27 -14,5 -18,2 -18,-13 z"
       id="path3101" />
    <path
       inkscape:connector-curvature="0"
       d="m 2790,1856 c 0,-20 102,-58 112,-42 5,7 -9,19 -40,33 -55,26 -72,28 -72,9 z"
       id="path3103" />
    <path
       inkscape:connector-curvature="0"
       d="m 2940,1800 c 0,-14 79,-52 96,-46 24,9 15,23 -26,40 -46,18 -70,20 -70,6 z"
       id="path3105" />
    <path
       inkscape:connector-curvature="0"
       d="m 3090,1737 c 0,-7 17,-19 38,-27 20,-8 40,-16 45,-18 4,-2 7,5 7,16 0,20 -37,42 -70,42 -11,0 -20,-6 -20,-13 z"
       id="path3107" />
    <path
       inkscape:connector-curvature="0"
       d="m 4116,1719 c -2,-8 -7,-26 -10,-41 -5,-21 -13,-27 -39,-30 -41,-4 -38,-21 5,-28 20,-3 33,-11 34,-20 1,-8 2,-25 2,-38 3,-35 26,-21 32,19 4,30 9,34 38,37 19,2 32,9 32,17 0,8 -13,15 -32,17 -28,3 -33,7 -36,33 -4,35 -19,55 -26,34 z"
       id="path3109" />
    <path
       inkscape:connector-curvature="0"
       d="m 3230,1687 c 0,-8 11,-19 24,-25 19,-9 25,-8 30,3 3,8 -3,19 -14,25 -26,14 -40,13 -40,-3 z"
       id="path3111" />
    <path
       inkscape:connector-curvature="0"
       d="m 3330,1646 c 0,-18 23,-27 41,-15 12,8 12,10 -1,19 -22,14 -40,12 -40,-4 z"
       id="path3113" />
    <path
       inkscape:connector-curvature="0"
       d="m 3420,1615 c 0,-8 9,-19 19,-25 27,-14 40,9 16,27 -24,17 -35,17 -35,-2 z"
       id="path3115" />
    <path
       inkscape:connector-curvature="0"
       d="m 3635,1585 c -14,-13 -25,-21 -25,-18 0,4 -5,2 -11,-4 -13,-13 11,-85 38,-115 23,-26 96,-24 121,3 81,86 -40,218 -123,134 z"
       id="path3117" />
    <path
       inkscape:connector-curvature="0"
       d="m 3892,1594 c -30,-21 -52,-66 -52,-108 0,-67 78,-86 130,-31 14,15 20,30 16,41 -6,15 -11,13 -39,-14 -36,-35 -52,-40 -60,-18 -7,17 3,26 61,55 35,18 42,26 42,50 0,42 -54,56 -98,25 z m 54,-25 c 9,-15 -20,-42 -40,-37 -15,3 -15,5 -1,26 18,24 30,28 41,11 z"
       id="path3119" />
    <path
       inkscape:connector-curvature="0"
       d="m 3512,1573 c 5,-26 38,-29 38,-4 0,15 -6,21 -21,21 -14,0 -19,-5 -17,-17 z"
       id="path3121" />
    <path
       inkscape:connector-curvature="0"
       d="m 3333,598 c -6,-7 -13,-33 -16,-58 -3,-24 -10,-46 -16,-48 -7,-2 -6,-11 4,-25 20,-29 20,-101 -1,-118 -33,-27 -62,14 -109,154 -15,43 -32,76 -38,74 -6,-2 -18,-26 -28,-54 -16,-47 -36,-96 -62,-150 -6,-13 -14,-23 -19,-23 -4,0 -8,-4 -8,-10 0,-5 16,-10 35,-10 19,0 35,5 35,10 0,6 -4,10 -9,10 -11,0 -1,53 13,62 20,14 64,8 70,-8 9,-24 7,-54 -4,-54 -5,0 -10,-4 -10,-10 0,-6 42,-10 105,-10 58,0 105,4 105,9 0,5 -5,11 -12,13 -6,2 -13,30 -16,61 -4,53 -3,57 17,57 27,0 27,16 0,23 -17,5 -20,12 -17,44 3,33 6,38 28,38 15,0 25,6 25,15 0,19 -58,26 -72,8 z M 3160,458 c 0,-11 -8,-18 -20,-18 -13,0 -18,5 -15,15 16,51 16,50 25,35 6,-8 10,-23 10,-32 z"
       id="path3123" />
    <path
       inkscape:connector-curvature="0"
       d="m 3439,548 c -1,-2 -3,-12 -4,-23 -2,-11 -6,-28 -10,-37 -4,-11 -3,-18 4,-18 7,0 11,-22 11,-57 0,-32 4,-63 8,-69 13,-20 43,-24 65,-9 21,15 21,15 -5,15 -23,0 -26,4 -29,43 -6,64 -1,77 27,77 27,0 33,19 7,21 -10,1 -21,1 -25,0 -5,0 -8,13 -8,29 0,23 -4,30 -20,30 -11,0 -21,-1 -21,-2 z"
       id="path3125" />
    <path
       inkscape:connector-curvature="0"
       d="m 3594,493 c -24,-5 -54,-51 -54,-85 0,-48 11,-65 49,-78 33,-11 42,-10 65,5 14,10 26,22 26,27 0,5 -10,2 -22,-6 -31,-22 -45,-20 -63,8 -26,40 -11,57 45,50 45,-6 49,-5 52,17 5,41 -44,72 -98,62 z m 49,-32 c 3,-14 -1,-20 -17,-23 -35,-7 -47,1 -36,23 14,25 46,25 53,0 z"
       id="path3127" />
    <path
       inkscape:connector-curvature="0"
       d="m 3795,491 c -4,-7 -22,-9 -46,-5 -32,5 -39,4 -39,-10 0,-10 5,-14 11,-10 8,5 10,-14 7,-65 l -4,-71 33,0 c 18,0 33,5 33,10 0,6 -4,10 -8,10 -4,0 -8,24 -7,53 0,50 1,52 28,52 22,-1 27,3 25,19 -3,22 -23,32 -33,17 z"
       id="path3129" />
  </g>
  <rect
     style="fill:#b9b9b9;fill-opacity:1;stroke:none"
     id="rect3294"
     width="11.985394"
     height="17.031874"
     x="143.19391"
     y="143.49905"
     transform="scale(0.79999998,0.79999998)" />
  <rect
     style="fill:#b9b9b9;fill-opacity:1;stroke:none"
     id="rect3296"
     width="14.508634"
     height="12.616203"
     x="199.96683"
     y="28.060801"
     transform="scale(0.79999998,0.79999998)" />
  <rect
     style="fill:#b9b9b9;fill-opacity:1;stroke:none"
     id="rect3318"
     width="35.989384"
     height="13.842071"
     x="80.284012"
     y="132.24698"
     transform="scale(0.79999998,0.79999998)" />
  <rect
     style="fill:#b9b9b9;fill-opacity:1;stroke:none"
     id="rect3320"
     width="31.24353"
     height="11.864632"
     x="88.193764"
     y="270.27222"
     transform="scale(0.79999998,0.79999998)" />
  <text
     xml:space="preserve"
     style="font-size:8.64000034px;font-style:normal;font-variant:normal;font-weight:bold;font-stretch:normal;text-indent:0;text-align:start;text-decoration:none;line-height:125%;letter-spacing:0px;word-spacing:0px;text-transform:none;direction:ltr;block-progression:tb;writing-mode:lr-tb;text-anchor:start;baseline-shift:baseline;color:#000000;fill:#000000;fill-opacity:1;fill-rule:nonzero;stroke:none;stroke-width:0.99999994px;marker:none;visibility:visible;display:inline;overflow:visible;enable-background:accumulate;font-family:Linux Libertine O;-inkscape-font-specification:Linux Libertine O Bold"
     x="66.441933"
     y="114.02374"
     id="text3322"
     sodipodi:linespacing="125%"><tspan
       sodipodi:role="line"
       id="tspan3324"
       x="66.441933"
       y="114.02374">Before</tspan></text>
  <text
     xml:space="preserve"
     style="font-size:8.64000034px;font-style:normal;font-variant:normal;font-weight:bold;font-stretch:normal;text-indent:0;text-align:start;text-decoration:none;line-height:125%;letter-spacing:0px;word-spacing:0px;text-transform:none;direction:ltr;block-progression:tb;writing-mode:lr-tb;text-anchor:start;baseline-shift:baseline;color:#000000;fill:#000000;fill-opacity:1;fill-rule:nonzero;stroke:none;stroke-width:0.99999994px;marker:none;visibility:visible;display:inline;overflow:visible;enable-background:accumulate;font-family:Linux Libertine O;-inkscape-font-specification:Linux Libertine O Bold"
     x="68.340271"
     y="224.44389"
     id="text3326"
     sodipodi:linespacing="125%"><tspan
       sodipodi:role="line"
       id="tspan3328"
       x="68.340271"
       y="224.44389">After</tspan></text>
  <g
     id="g3336"
     transform="matrix(0.9366121,0.35036805,-0.35036805,0.9366121,109.99139,4.1059425)">
    <rect
       y="64.666862"
       x="-93.651489"
       height="15.81951"
       width="41.130726"
       id="rect3334"
       style="fill:#b9b9b9;fill-opacity:1;stroke:none" />
    <text
       sodipodi:linespacing="125%"
       id="text3330"
       y="78.588028"
       x="-87.007301"
       style="font-size:8.64000034px;font-style:normal;font-variant:normal;font-weight:bold;font-stretch:normal;text-indent:0;text-align:start;text-decoration:none;line-height:125%;letter-spacing:0px;word-spacing:0px;text-transform:none;direction:ltr;block-progression:tb;writing-mode:lr-tb;text-anchor:start;baseline-shift:baseline;color:#000000;fill:#000000;fill-opacity:1;fill-rule:nonzero;stroke:none;stroke-width:0.99999994px;marker:none;visibility:visible;display:inline;overflow:visible;enable-background:accumulate;font-family:Linux Libertine O;-inkscape-font-specification:Linux Libertine O Bold"
       xml:space="preserve"><tspan
         y="78.588028"
         x="-87.007301"
         id="tspan3332"
         sodipodi:role="line">Photon</tspan></text>
  </g>
  <path
     style="color:#000000;fill:none;stroke:#000000;stroke-width:1;stroke-linecap:butt;stroke-linejoin:miter;stroke-miterlimit:4;stroke-opacity:1;stroke-dasharray:none;stroke-dashoffset:0;marker:none;visibility:visible;display:inline;overflow:visible;enable-background:accumulate"
     d="m 0.0685133,51.15225 c -1.7513152,-0.250187 -3.0648015,1.376034 -3.6902712,2.001503 -0.6254697,0.62547 -0.6254697,0.62547 -0.6254697,0.62547"
     id="path3341"
     inkscape:connector-curvature="0" />
  <path
     style="color:#000000;fill:none;stroke:#000000;stroke-width:0.875;stroke-linecap:butt;stroke-linejoin:miter;stroke-miterlimit:4;stroke-opacity:1;stroke-dasharray:none;stroke-dashoffset:0;marker:none;visibility:visible;display:inline;overflow:visible;enable-background:accumulate"
     d="m 73.833177,199.22117 -2.294251,2.71139"
     id="path3343"
     inkscape:connector-curvature="0"
     transform="scale(0.79999998,0.79999998)" />
  <path
     style="color:#000000;fill:none;stroke:#000000;stroke-width:0.69999999;stroke-linecap:butt;stroke-linejoin:miter;stroke-miterlimit:4;stroke-opacity:1;stroke-dasharray:none;stroke-dashoffset:0;marker:none;visibility:visible;display:inline;overflow:visible;enable-background:accumulate"
     d="m 48.359108,50.824835 -1.8354,2.16911"
     id="path3343-4"
     inkscape:connector-curvature="0" />
</svg>
