<?xml version="1.0" encoding="UTF-8" standalone="no"?>
<svg
   xmlns:dc="http://purl.org/dc/elements/1.1/"
   xmlns:cc="http://creativecommons.org/ns#"
   xmlns:rdf="http://www.w3.org/1999/02/22-rdf-syntax-ns#"
   xmlns:svg="http://www.w3.org/2000/svg"
   xmlns="http://www.w3.org/2000/svg"
   xmlns:sodipodi="http://sodipodi.sourceforge.net/DTD/sodipodi-0.dtd"
   xmlns:inkscape="http://www.inkscape.org/namespaces/inkscape"
   version="1.0"
   width="213.360000pt"
   height="186.720000pt"
   viewBox="0 0 213.360000 186.720000"
   preserveAspectRatio="xMidYMid meet"
   id="svg2"
   inkscape:version="0.48.4 r9939"
   sodipodi:docname="gray.svg">
  <defs
     id="defs12" />
  <sodipodi:namedview
     pagecolor="#ffffff"
     bordercolor="#666666"
     borderopacity="1"
     objecttolerance="10"
     gridtolerance="10"
     guidetolerance="10"
     inkscape:pageopacity="0"
     inkscape:pageshadow="2"
     inkscape:window-width="1280"
     inkscape:window-height="996"
     id="namedview10"
     showgrid="false"
     inkscape:zoom="2.859935"
     inkscape:cx="70.935999"
     inkscape:cy="116.7"
     inkscape:window-x="0"
     inkscape:window-y="0"
     inkscape:window-maximized="1"
     inkscape:current-layer="svg2" />
  <metadata
     id="metadata4">
Created by potrace 1.10, written by Peter Selinger 2001-2011
<rdf:RDF>
  <cc:Work
     rdf:about="">
    <dc:format>image/svg+xml</dc:format>
    <dc:type
       rdf:resource="http://purl.org/dc/dcmitype/StillImage" />
    <dc:title></dc:title>
  </cc:Work>
</rdf:RDF>
</metadata>
  <g
     transform="translate(0.000000,186.720000) scale(0.024000,-0.024000)"
     fill="#b9b9b9"
     stroke="none"
     id="g6">
    <path
       d="M0 3890 l0 -3890 4445 0 4445 0 0 3890 0 3890 -4445 0 -4445 0 0 -3890z"
       id="path8" />
  </g>
  <g
     style="fill:#000000;stroke:none"
     transform="matrix(0.024,0,0,-0.024,6.8760474,178.66835)"
     id="g2993">
    <path
       inkscape:connector-curvature="0"
       d="m 4981,7088 c -5,-13 -14,-50 -21,-83 -12,-61 -22,-90 -46,-137 -8,-14 -14,-33 -14,-42 0,-9 -4,-16 -10,-16 -5,0 -10,-6 -10,-13 0,-20 -60,-127 -71,-127 -5,0 -9,10 -9,23 0,23 -16,55 -23,47 -2,-3 -12,-52 -21,-109 -19,-107 -35,-158 -67,-203 -11,-14 -19,-33 -19,-42 0,-9 -3,-16 -7,-16 -5,0 -19,-30 -33,-66 -13,-36 -30,-70 -37,-76 -7,-6 -13,-19 -13,-29 0,-10 -4,-21 -10,-24 -5,-3 -10,-13 -10,-22 0,-8 -6,-29 -14,-46 -8,-18 -19,-50 -24,-72 -6,-22 -18,-67 -27,-100 -18,-61 -20,-75 -30,-205 -6,-70 -6,-229 -1,-275 2,-11 6,-47 10,-80 4,-33 13,-82 21,-110 8,-27 16,-61 18,-75 4,-31 50,-173 57,-180 3,-3 27,-41 52,-85 77,-132 123,-205 129,-205 6,0 84,-108 114,-158 15,-23 22,-34 50,-68 14,-18 25,-36 25,-41 0,-6 12,-28 28,-49 15,-21 36,-57 47,-79 11,-22 25,-45 31,-52 7,-7 22,-34 35,-60 13,-26 29,-54 36,-61 21,-21 15,-26 -11,-8 -18,11 -27,12 -32,5 -7,-12 49,-71 78,-82 15,-5 54,-78 119,-222 7,-16 15,-34 18,-40 2,-5 -23,13 -57,40 -34,28 -64,57 -67,66 -7,20 -37,30 -55,19 -9,-6 -8,-13 4,-32 9,-14 13,-28 9,-33 -5,-4 -3,-6 2,-2 16,8 46,-12 128,-86 66,-59 74,-70 68,-93 -4,-14 -21,-33 -41,-44 -72,-40 -249,-120 -264,-120 -9,0 -16,-5 -16,-10 0,-6 -12,-15 -27,-21 -28,-10 -215,-99 -222,-105 -1,-1 0,-7 3,-12 6,-11 65,6 87,25 8,6 26,14 40,18 32,8 35,2 49,-112 6,-48 13,-90 16,-95 3,-4 18,-6 34,-4 27,3 32,-1 51,-43 38,-83 42,-91 51,-91 4,0 8,6 8,13 0,11 -8,31 -83,182 -27,56 -27,58 -5,35 12,-13 22,-27 21,-31 -1,-3 3,-6 10,-6 7,0 20,-4 30,-8 32,-13 17,10 -53,83 -38,40 -70,80 -70,90 0,17 50,46 155,92 62,27 85,39 158,78 31,18 57,29 57,27 0,-3 9,-1 20,5 21,11 18,20 60,-150 11,-47 23,-98 25,-115 3,-16 10,-63 16,-103 16,-99 6,-332 -20,-447 -35,-155 -40,-173 -76,-251 -19,-41 -35,-80 -35,-85 0,-5 -11,-37 -24,-71 -34,-90 -53,-161 -66,-255 -12,-80 -22,-99 -34,-68 -3,8 -12,15 -21,15 -18,0 -18,8 1,-86 16,-77 16,-108 -1,-294 -12,-128 -74,-369 -96,-378 -5,-2 -9,-12 -9,-22 0,-10 -6,-25 -12,-32 -7,-7 -22,-30 -32,-51 -11,-20 -23,-37 -28,-37 -4,0 -8,-7 -8,-15 0,-8 -6,-15 -13,-15 -8,0 -19,-11 -25,-24 -16,-36 -111,-95 -217,-137 -57,-22 -123,-29 -203,-23 -71,6 -90,11 -109,30 -13,13 -23,30 -23,38 0,13 -47,36 -75,36 -7,0 -27,-15 -45,-32 -25,-27 -30,-39 -26,-62 7,-36 33,-66 56,-66 29,0 54,-32 85,-105 32,-77 89,-178 111,-196 8,-6 14,-18 14,-25 0,-20 134,-154 154,-154 9,0 16,-4 16,-8 0,-14 132,-71 205,-88 159,-39 366,-19 500,48 92,46 230,80 363,88 1,0 -2,8 -7,19 -6,10 -22,22 -36,25 -14,4 -25,10 -25,15 0,5 30,26 68,47 37,20 80,46 95,56 15,11 34,21 41,22 8,1 21,8 30,15 9,8 27,13 41,13 14,0 25,4 25,9 0,5 9,9 19,9 11,0 23,5 26,10 4,6 20,9 36,6 16,-2 27,-1 24,4 -7,12 38,21 184,36 l 64,7 -6,-50 c -7,-58 5,-87 22,-55 6,11 11,33 12,49 1,49 10,58 66,61 l 51,4 -4,-44 c -3,-23 -8,-54 -11,-68 -4,-14 -8,-36 -9,-50 -2,-14 -6,-35 -8,-46 -6,-23 18,-52 28,-36 3,5 13,59 22,118 8,60 19,112 22,116 4,4 59,10 122,13 206,12 486,51 570,81 48,17 106,42 130,55 8,5 31,17 50,28 19,10 46,31 59,45 14,14 28,26 33,26 4,0 23,17 42,38 111,121 132,148 145,181 7,20 23,59 36,86 40,89 74,261 75,379 0,57 46,251 67,284 8,13 12,30 9,39 -5,12 -14,8 -44,-18 l -37,-33 -13,90 c -11,78 -9,419 2,482 2,9 7,42 11,72 4,30 16,92 27,137 18,79 18,103 -2,103 -22,0 -53,-111 -81,-290 -14,-89 -19,-390 -8,-475 10,-77 4,-114 -14,-96 -6,6 -19,11 -29,11 -19,0 -24,-20 -9,-35 19,-19 69,-162 75,-210 5,-53 -7,-174 -28,-270 -15,-67 -71,-225 -83,-234 -5,-3 -17,-23 -28,-43 -11,-21 -23,-38 -27,-38 -3,0 -10,-9 -13,-20 -7,-22 -111,-130 -125,-130 -5,0 -17,-8 -27,-18 -34,-35 -162,-94 -238,-110 -162,-34 -279,-49 -470,-61 -88,-6 -167,-11 -175,-11 -68,-5 -121,-6 -128,-1 -4,3 -8,35 -7,70 0,73 -20,97 -30,34 -3,-21 -9,-54 -13,-73 l -7,-35 -80,-7 c -44,-3 -114,-16 -155,-28 -41,-12 -91,-25 -110,-30 -40,-8 -152,-57 -160,-69 -3,-4 -34,-23 -70,-43 -36,-19 -77,-42 -92,-52 l -26,-17 2,50 c 2,28 0,51 -3,51 -14,0 -29,-17 -44,-47 -25,-48 -151,-173 -175,-173 -12,0 -23,-4 -27,-9 -3,-5 -49,-24 -103,-41 -83,-27 -113,-32 -207,-33 -136,-1 -267,28 -351,79 -31,19 -60,34 -64,34 -6,0 -113,112 -144,150 -6,8 -22,36 -34,62 -13,26 -27,50 -33,53 -5,4 -9,17 -9,29 0,13 -7,29 -16,37 -8,7 -13,21 -11,31 3,10 2,18 -1,18 -8,0 -33,73 -27,78 2,2 27,-4 56,-12 58,-18 189,-21 217,-7 9,5 39,15 66,21 27,6 62,20 77,31 15,10 32,19 37,19 9,0 38,22 117,88 11,9 24,15 28,14 5,-1 6,2 3,7 -3,4 12,29 34,54 22,25 40,52 40,60 0,8 7,20 15,27 8,7 15,17 15,23 0,5 11,33 24,61 34,74 55,161 82,336 12,85 28,163 33,172 6,10 11,25 11,33 0,8 4,23 9,33 5,9 17,35 27,57 9,22 25,51 35,64 37,47 16,68 -31,31 -26,-20 -45,-26 -36,-11 3,4 8,37 11,72 10,105 43,212 136,444 34,84 35,88 57,155 11,36 23,90 27,120 4,30 9,64 11,75 7,31 7,296 0,335 -4,19 -8,51 -11,70 -4,41 -61,276 -70,289 -3,5 -1,12 4,15 4,3 11,20 15,37 3,18 9,29 13,26 3,-4 11,3 17,15 21,41 42,45 75,14 40,-39 60,-25 27,19 -15,19 -26,37 -26,42 0,12 163,173 175,173 12,0 45,36 45,48 0,5 11,15 25,22 14,7 25,17 25,20 0,17 158,172 169,166 6,-4 11,-4 10,1 -4,21 2,33 16,33 8,0 15,5 15,12 0,16 431,448 447,448 7,0 13,6 13,13 0,6 37,49 83,94 148,147 169,171 159,177 -5,3 -56,-41 -113,-99 -57,-58 -109,-105 -116,-105 -7,0 -13,-5 -13,-11 0,-16 -246,-259 -261,-258 -22,1 -109,107 -115,139 -4,17 -14,30 -27,34 -29,7 -32,1 -13,-28 19,-30 21,-48 2,-23 -8,10 -24,20 -37,22 -13,3 -31,14 -41,25 -9,11 -26,20 -37,20 -12,0 -24,7 -27,15 -4,8 -14,15 -24,15 -10,0 -34,7 -53,15 -20,8 -43,15 -51,15 -30,0 -4,-27 47,-50 29,-12 59,-26 67,-31 8,-5 34,-17 58,-28 23,-11 42,-25 42,-30 0,-6 9,-11 19,-11 11,0 22,-4 26,-10 3,-5 -7,-8 -23,-5 -37,4 -54,-6 -42,-25 5,-8 12,-11 16,-8 8,9 112,-30 147,-55 15,-12 27,-27 27,-35 0,-16 -651,-672 -666,-672 -5,0 -26,16 -48,35 -21,19 -42,35 -47,35 -20,0 -7,-31 25,-61 23,-20 33,-37 29,-47 -9,-23 -45,-62 -59,-62 -13,0 -105,224 -93,228 5,2 16,-4 25,-12 8,-9 22,-16 31,-16 20,0 9,15 -69,93 -32,32 -58,65 -58,73 0,8 -11,39 -24,67 -13,29 -31,68 -39,87 -8,19 -27,60 -40,90 -14,30 -29,69 -33,85 -4,17 -10,32 -14,35 -11,8 -59,115 -64,143 -3,15 -12,34 -20,43 -9,8 -16,24 -16,34 0,10 -4,22 -10,25 -5,3 -10,14 -10,25 0,20 16,26 113,35 47,5 67,11 67,21 0,8 -10,14 -22,15 -51,3 94,28 186,33 97,5 138,18 102,32 -28,11 -194,-3 -264,-21 -35,-9 -67,-14 -70,-10 -3,3 4,8 16,12 12,3 22,11 22,19 0,26 -21,25 -55,-4 -18,-17 -43,-33 -54,-37 -12,-3 -21,-10 -21,-15 0,-4 -7,-10 -15,-14 -18,-7 -51,27 -60,62 -11,46 -48,112 -62,112 -19,0 -15,-29 12,-85 14,-27 25,-56 25,-64 0,-8 7,-19 16,-25 9,-7 17,-24 17,-38 1,-15 4,-25 6,-22 6,5 31,-45 31,-62 0,-8 5,-23 10,-34 6,-11 15,-29 20,-40 6,-11 10,-28 10,-39 0,-10 7,-24 15,-31 8,-7 15,-16 15,-21 0,-5 18,-48 40,-95 22,-47 37,-90 34,-95 -3,-5 -1,-9 5,-9 8,0 24,-32 26,-52 0,-4 6,-13 13,-20 6,-6 12,-16 12,-21 0,-16 -22,6 -37,37 -15,32 -31,60 -93,162 -19,31 -41,69 -49,83 -8,14 -17,28 -21,31 -3,3 -27,34 -52,71 -25,36 -57,78 -72,94 -14,15 -26,32 -26,37 0,5 -16,29 -35,52 -19,24 -35,50 -35,60 0,9 -4,16 -10,16 -5,0 -10,5 -10,12 0,6 -8,21 -19,32 -16,18 -90,148 -91,161 0,3 -10,26 -21,51 -11,26 -18,52 -16,58 2,6 -2,25 -9,42 -13,30 -30,122 -40,209 -15,136 -19,193 -12,189 4,-3 8,2 8,10 0,9 -5,16 -11,16 -5,0 -7,5 -4,10 4,6 8,46 10,88 4,90 9,121 36,228 11,43 22,95 25,114 3,19 10,39 15,45 5,5 9,17 9,26 0,9 7,22 15,29 9,7 13,15 11,18 -3,3 1,17 9,31 7,14 37,74 65,133 47,99 118,195 184,251 12,9 31,25 43,35 30,27 15,51 -22,34 -53,-24 -53,-10 4,86 17,29 31,58 31,64 0,6 6,19 13,27 13,16 32,72 61,180 11,41 12,58 3,72 -16,25 -26,24 -36,-3 z m 6,-3842 c -3,-8 -1,-17 6,-19 7,-2 8,-8 4,-13 -11,-11 -27,15 -20,33 3,7 7,13 10,13 3,0 3,-6 0,-14 z"
       id="path2995" />
    <path
       inkscape:connector-curvature="0"
       d="m 4025,6221 c -18,-7 -18,-8 -1,-18 25,-14 19,-77 -9,-81 -61,-9 -100,-46 -109,-101 -11,-71 28,-108 79,-75 22,14 25,15 25,1 0,-11 7,-15 21,-12 32,6 69,33 69,50 0,20 -20,19 -35,-2 -10,-13 -10,-4 -4,46 5,34 13,70 18,79 4,9 11,41 15,70 7,52 7,52 -21,51 -15,0 -37,-4 -48,-8 z m -5,-155 c 0,-33 -26,-92 -44,-99 -22,-9 -29,9 -21,49 11,61 65,102 65,50 z"
       id="path2997" />
    <path
       inkscape:connector-curvature="0"
       d="m 4140,6077 c -19,-30 -18,-53 2,-41 6,4 7,-13 3,-50 -6,-47 -5,-56 8,-56 19,0 33,23 41,65 12,66 17,75 37,64 17,-8 19,-6 19,20 0,28 -2,29 -46,29 -40,0 -48,-3 -64,-31 z"
       id="path2999" />
    <path
       inkscape:connector-curvature="0"
       d="m 948,5853 c -5,-55 -3,-103 4,-103 5,0 6,-5 3,-11 -4,-6 0,-16 9,-22 10,-8 14,-20 9,-35 -4,-18 -8,-20 -14,-10 -6,9 -9,9 -9,1 0,-6 6,-18 13,-25 7,-7 12,-24 11,-38 -2,-29 5,-52 15,-46 3,2 6,-24 6,-59 0,-34 6,-74 14,-88 15,-29 65,-45 57,-18 -3,9 -8,30 -11,46 -3,17 -8,37 -10,45 -2,8 -4,25 -4,38 -1,12 -7,22 -14,22 -8,0 -11,14 -9,45 2,25 8,45 13,45 5,0 9,10 8,23 0,20 -1,20 -8,3 -5,-14 -11,1 -19,52 -7,39 -12,81 -12,94 0,13 -9,31 -20,41 -25,21 -30,21 -32,0 z"
       id="path3001" />
    <path
       inkscape:connector-curvature="0"
       d="m 3964,5803 c -3,-16 -10,-43 -16,-61 -5,-18 -12,-45 -14,-60 -3,-15 -16,-81 -30,-147 -14,-66 -31,-151 -38,-190 -8,-38 -24,-115 -35,-170 -12,-55 -25,-117 -28,-137 -3,-21 -9,-38 -13,-38 -5,0 -6,-10 -4,-22 5,-23 4,-23 -5,-2 -5,12 -15,25 -21,29 -9,6 -11,-14 -5,-83 4,-50 4,-104 0,-120 -6,-28 -8,-29 -38,-22 -18,4 -40,11 -49,15 -24,10 -62,-13 -48,-29 9,-12 81,-31 160,-43 14,-2 49,-10 77,-18 37,-9 55,-10 60,-3 9,16 -24,36 -83,49 -57,13 -70,33 -39,59 9,7 13,15 10,18 -3,3 2,16 10,29 9,13 13,23 9,23 -3,0 6,16 21,35 37,49 30,78 -9,39 -24,-24 -28,-25 -23,-9 3,11 10,43 15,70 37,185 66,320 82,385 10,41 21,95 25,120 11,83 27,140 36,134 6,-3 10,12 9,38 0,23 2,64 6,91 7,52 -11,68 -22,20 z"
       id="path3003" />
    <path
       inkscape:connector-curvature="0"
       d="m 1040,5355 c 0,-14 4,-33 9,-43 5,-9 19,-36 30,-59 l 20,-42 -46,6 c -41,5 -45,3 -40,-12 4,-9 7,-19 7,-21 0,-2 6,-4 13,-4 17,0 99,-84 91,-93 -4,-4 0,-7 9,-7 20,0 52,-52 67,-110 14,-54 36,-90 54,-90 23,0 26,27 5,66 -10,21 -19,45 -19,53 0,8 -8,23 -17,33 -13,15 -18,46 -22,143 -4,71 -10,126 -16,126 -12,2 -44,-53 -38,-63 2,-5 0,-8 -5,-8 -8,0 -46,100 -47,124 0,8 -29,24 -47,25 -5,1 -8,-10 -8,-24 z"
       id="path3005" />
    <path
       inkscape:connector-curvature="0"
       d="m 5599,4957 c -45,-55 -68,-113 -74,-187 -4,-53 27,-99 67,-100 22,0 87,69 88,93 0,9 3,17 8,17 14,0 29,92 21,128 -8,39 -45,82 -68,81 -9,0 -28,-15 -42,-32 z m 61,-47 c 0,-34 -12,-50 -36,-50 -29,0 -30,6 -4,48 21,34 40,35 40,2 z m -28,-119 c -5,-34 -31,-71 -49,-71 -13,0 -14,8 -9,42 9,53 13,60 39,56 17,-2 21,-9 19,-27 z"
       id="path3007" />
    <path
       inkscape:connector-curvature="0"
       d="m 1255,4850 c -8,-24 22,-115 43,-132 31,-26 38,39 12,107 -5,13 -18,29 -29,34 -16,9 -21,7 -26,-9 z"
       id="path3009" />
    <path
       inkscape:connector-curvature="0"
       d="m 2803,4843 c -25,-5 -30,-18 -12,-29 17,-10 302,-5 313,6 23,23 -11,30 -142,29 -75,-1 -147,-4 -159,-6 z"
       id="path3011" />
    <path
       inkscape:connector-curvature="0"
       d="m 3207,4843 c -10,-2 -17,-12 -15,-21 2,-13 16,-18 53,-20 45,-2 152,-14 258,-29 32,-4 37,-2 37,15 0,25 -4,26 -275,56 -22,3 -48,2 -58,-1 z"
       id="path3013" />
    <path
       inkscape:connector-curvature="0"
       d="m 2655,4834 c -53,-7 -179,-25 -207,-30 -16,-3 -28,-12 -28,-20 0,-16 42,-36 50,-24 6,9 50,17 134,25 103,9 126,15 126,36 0,19 -6,20 -75,13 z"
       id="path3015" />
    <path
       inkscape:connector-curvature="0"
       d="m 2210,4759 c -98,-25 -172,-50 -185,-61 -14,-13 15,-30 40,-23 11,3 31,8 45,11 21,4 59,14 120,32 8,2 32,6 52,9 39,5 64,25 53,43 -8,14 -37,11 -125,-11 z"
       id="path3017" />
    <path
       inkscape:connector-curvature="0"
       d="m 3970,4691 c 0,-14 10,-21 33,-26 17,-4 37,-11 42,-15 6,-4 26,-11 45,-15 19,-4 40,-11 45,-16 6,-4 30,-11 53,-15 34,-5 42,-4 42,9 0,12 -57,49 -80,52 -35,5 -130,31 -130,35 0,3 -11,7 -25,8 -19,1 -25,-3 -25,-17 z"
       id="path3019" />
    <path
       inkscape:connector-curvature="0"
       d="m 1310,4683 c 2,-47 20,-106 40,-128 18,-19 20,-27 11,-43 -6,-12 -11,-34 -11,-50 0,-23 -9,-35 -40,-57 -22,-15 -40,-31 -40,-36 0,-16 18,-18 49,-6 23,8 36,9 49,0 23,-14 54,1 45,22 -8,22 14,44 66,67 84,37 91,41 91,60 0,22 -32,24 -50,3 -7,-8 -30,-20 -51,-27 -22,-6 -39,-15 -39,-19 0,-5 -7,-6 -16,-2 -8,3 -13,11 -10,19 3,7 -2,18 -10,25 -9,7 -13,22 -11,33 7,33 -35,150 -55,154 -12,2 -18,-3 -18,-15 z"
       id="path3021" />
    <path
       inkscape:connector-curvature="0"
       d="m 2859,4689 c -11,-7 -11,-11 -1,-21 15,-15 270,-20 279,-5 2,4 0,14 -7,21 -12,16 -247,20 -271,5 z"
       id="path3023" />
    <path
       inkscape:connector-curvature="0"
       d="m 2679,4686 c -2,-3 -34,-7 -69,-9 -82,-6 -110,-15 -110,-35 0,-13 13,-14 88,-7 48,4 109,9 136,11 49,4 80,19 70,35 -5,9 -107,13 -115,5 z"
       id="path3025" />
    <path
       inkscape:connector-curvature="0"
       d="m 3227,4683 c -20,-19 -3,-31 51,-37 101,-12 166,-18 195,-19 15,-1 27,-4 27,-7 0,-3 16,-6 35,-7 25,-1 35,3 35,13 0,26 -42,36 -215,53 -123,13 -120,12 -128,4 z"
       id="path3027" />
    <path
       inkscape:connector-curvature="0"
       d="m 1840,4649 c -41,-16 -87,-31 -104,-35 -35,-8 -81,-48 -72,-62 6,-11 19,-9 61,8 11,4 47,18 80,30 33,12 68,26 77,31 10,5 25,9 33,9 15,0 21,35 8,43 -5,2 -42,-9 -83,-24 z"
       id="path3029" />
    <path
       inkscape:connector-curvature="0"
       d="m 2350,4634 c -30,-8 -82,-20 -114,-27 -55,-12 -90,-37 -74,-53 4,-3 70,9 147,27 116,27 141,36 141,51 0,21 -21,22 -100,2 z"
       id="path3031" />
    <path
       inkscape:connector-curvature="0"
       d="m 3630,4622 c 0,-11 30,-37 52,-45 20,-7 16,-22 -43,-142 -16,-33 -29,-66 -29,-73 0,-23 24,-7 42,29 20,41 23,19 7,-51 -6,-25 -14,-65 -19,-90 -4,-25 -25,-126 -45,-225 -40,-191 -80,-391 -95,-465 -5,-25 -20,-99 -33,-165 -22,-105 -22,-153 -1,-133 6,7 20,63 34,138 4,25 11,56 14,70 7,28 18,89 41,205 8,44 24,123 35,175 12,52 25,118 30,145 20,118 41,224 55,278 8,32 15,70 15,83 0,13 4,24 9,24 5,0 8,-8 7,-17 0,-10 7,-19 16,-21 16,-3 17,7 11,114 l -6,117 44,-7 c 24,-4 55,-12 69,-19 36,-17 105,-16 105,2 0,10 -40,24 -135,47 -139,34 -180,40 -180,26 z"
       id="path3033" />
    <path
       inkscape:connector-curvature="0"
       d="m 4282,4579 c 2,-15 18,-26 55,-39 29,-10 82,-32 118,-49 36,-17 69,-31 74,-31 4,0 19,-8 32,-19 31,-24 85,-36 94,-21 8,13 -32,50 -54,50 -9,0 -56,20 -106,44 -193,95 -219,103 -213,65 z"
       id="path3035" />
    <path
       inkscape:connector-curvature="0"
       d="m 1965,4530 c -135,-47 -145,-52 -145,-65 0,-21 20,-28 43,-16 12,6 65,25 117,42 115,38 114,37 99,55 -15,18 -20,18 -114,-16 z"
       id="path3037" />
    <path
       inkscape:connector-curvature="0"
       d="m 4015,4521 c -7,-12 33,-41 57,-41 9,0 19,-4 22,-9 3,-5 16,-11 28,-14 13,-2 61,-19 108,-36 55,-20 88,-27 94,-21 16,16 -1,26 -129,73 -142,52 -172,60 -180,48 z"
       id="path3039" />
    <path
       inkscape:connector-curvature="0"
       d="m 1708,4435 c -20,-7 -39,-11 -42,-8 -3,4 -6,1 -6,-5 0,-6 -43,-32 -95,-57 -52,-25 -95,-50 -95,-55 0,-16 40,-12 84,9 23,11 75,35 117,54 42,20 80,41 84,47 13,21 -9,28 -47,15 z"
       id="path3041" />
    <path
       inkscape:connector-curvature="0"
       d="m 4402,4367 c -8,-10 -5,-16 11,-27 12,-8 27,-15 33,-16 7,-1 23,-8 37,-15 154,-82 207,-107 212,-99 10,16 -13,33 -130,97 -56,31 -143,73 -150,73 -1,0 -7,-6 -13,-13 z"
       id="path3043" />
    <path
       inkscape:connector-curvature="0"
       d="m 4735,4370 c -11,-18 8,-38 59,-63 29,-14 59,-33 66,-42 7,-8 19,-15 27,-15 7,0 26,-11 41,-25 15,-14 32,-25 38,-25 6,0 17,-7 24,-15 14,-17 30,-11 30,10 0,12 -170,135 -186,135 -3,0 -18,8 -32,18 -36,25 -60,33 -67,22 z"
       id="path3045" />
    <path
       inkscape:connector-curvature="0"
       d="m 1100,4279 c -47,-32 -89,-59 -93,-59 -4,0 -18,-9 -30,-21 -22,-20 -22,-21 -3,-35 18,-13 23,-11 51,16 17,16 38,30 47,30 9,0 33,16 52,35 20,19 42,35 49,35 14,0 57,41 57,53 0,21 -55,-2 -130,-54 z"
       id="path3047" />
    <path
       inkscape:connector-curvature="0"
       d="m 1355,4298 c -7,-33 -31,-68 -46,-68 -5,0 -32,-15 -61,-33 -29,-19 -61,-36 -70,-40 -10,-3 -18,-13 -18,-22 0,-26 30,-29 60,-6 62,45 122,73 133,62 19,-19 36,-12 43,17 4,15 18,39 32,55 25,26 22,32 -14,28 -7,-1 -14,8 -17,19 -8,32 -35,24 -42,-12 z"
       id="path3049" />
    <path
       inkscape:connector-curvature="0"
       d="m 4560,4166 c 0,-14 5,-28 10,-31 6,-3 10,-15 10,-26 0,-10 4,-19 10,-19 5,0 14,-18 20,-40 6,-21 15,-42 20,-45 6,-3 10,-12 10,-18 0,-7 -7,-4 -15,6 -14,19 -46,20 -52,2 -1,-5 11,-18 27,-27 29,-17 90,-100 90,-124 0,-14 -74,-60 -113,-69 -15,-4 -27,-13 -27,-21 0,-16 13,-18 38,-5 37,21 175,81 197,87 13,3 31,14 41,25 9,10 25,19 34,19 10,0 23,7 30,15 7,8 19,15 27,15 8,0 27,8 41,18 15,10 47,27 72,36 38,15 125,60 140,73 2,2 -2,8 -10,13 -9,6 -17,5 -21,-2 -4,-5 -25,-18 -47,-28 -40,-18 -41,-18 -63,1 -12,10 -27,19 -32,19 -6,0 -19,8 -29,17 -11,10 -34,26 -53,38 -18,11 -52,33 -75,48 -25,17 -48,26 -58,22 -14,-5 -12,-11 14,-33 66,-58 84,-72 84,-64 0,4 4,2 8,-4 4,-6 23,-19 42,-29 34,-17 75,-53 69,-60 -15,-14 -244,-115 -254,-111 -12,4 -28,67 -31,121 -2,64 -4,75 -14,75 -10,0 -27,-56 -22,-72 11,-39 -52,81 -89,170 -16,38 -29,42 -29,8 z"
       id="path3051" />
    <path
       inkscape:connector-curvature="0"
       d="m 1344,4158 c -7,-10 -16,-47 -31,-120 -5,-29 8,-36 34,-20 15,10 35,109 27,134 -6,21 -19,23 -30,6 z"
       id="path3053" />
    <path
       inkscape:connector-curvature="0"
       d="m 827,4084 c -11,-14 -30,-30 -43,-36 -26,-12 -32,-45 -10,-54 21,-8 111,79 103,100 -9,23 -29,19 -50,-10 z"
       id="path3055" />
    <path
       inkscape:connector-curvature="0"
       d="m 1084,4085 c -3,-8 -26,-24 -50,-35 -24,-12 -44,-25 -44,-30 0,-15 -33,-21 -42,-8 -7,10 -8,10 -7,-2 3,-22 -11,-50 -26,-50 -18,0 -26,-25 -12,-39 15,-15 37,-14 37,3 0,7 8,16 18,20 27,9 53,28 85,64 16,17 37,32 47,32 20,0 32,23 24,45 -8,19 -23,19 -30,0 z"
       id="path3057" />
    <path
       inkscape:connector-curvature="0"
       d="m 1959,4072 c -50,-24 -69,-41 -69,-63 0,-22 29,-26 49,-6 6,6 15,12 19,12 4,1 17,6 30,13 17,10 22,10 22,1 0,-8 7,-6 18,4 10,10 22,17 25,17 13,0 102,-43 118,-57 18,-15 49,-8 49,11 -1,18 -26,46 -41,46 -8,0 -24,6 -35,14 -24,17 -53,22 -76,12 -9,-4 -25,-3 -37,3 -25,14 -29,14 -72,-7 z"
       id="path3059" />
    <path
       inkscape:connector-curvature="0"
       d="m 1809,3938 c -46,-70 -59,-102 -52,-127 9,-35 53,-18 53,20 0,21 35,84 63,116 21,24 16,43 -12,43 -11,0 -32,-21 -52,-52 z"
       id="path3061" />
    <path
       inkscape:connector-curvature="0"
       d="m 2230,3973 c 0,-10 19,-37 41,-61 39,-41 42,-42 59,-27 18,16 16,19 -25,61 -46,46 -75,56 -75,27 z"
       id="path3063" />
    <path
       inkscape:connector-curvature="0"
       d="m 1318,3968 c -20,-16 -41,-92 -33,-118 7,-22 34,-27 39,-7 2,6 9,30 16,52 15,51 3,92 -22,73 z"
       id="path3065" />
    <path
       inkscape:connector-curvature="0"
       d="m 2342,3842 c -14,-9 -7,-38 15,-62 7,-8 22,-26 32,-40 16,-20 22,-22 32,-13 20,20 -31,124 -60,123 -3,0 -12,-4 -19,-8 z"
       id="path3067" />
    <path
       inkscape:connector-curvature="0"
       d="m 1277,3794 c -25,-34 -29,-136 -5,-139 23,-4 52,121 34,146 -10,15 -13,14 -29,-7 z"
       id="path3069" />
    <path
       inkscape:connector-curvature="0"
       d="m 4740,3797 c 0,-9 -13,-23 -30,-32 -36,-19 -37,-23 -6,-35 35,-13 41,-66 9,-87 -56,-37 -71,-126 -28,-168 27,-28 60,-33 69,-10 3,8 12,15 20,15 47,0 96,59 75,91 -7,11 -10,9 -15,-8 -10,-36 -19,-27 -34,30 -8,28 -15,57 -17,62 -1,6 -9,40 -16,78 -13,65 -27,98 -27,64 z m 16,-204 c 3,-16 8,-36 10,-45 7,-22 -13,-58 -31,-58 -18,0 -36,64 -28,101 7,39 40,40 49,2 z"
       id="path3071" />
    <path
       inkscape:connector-curvature="0"
       d="m 1763,3750 c -20,-8 -23,-16 -23,-67 0,-65 9,-86 29,-73 10,5 16,33 18,79 2,39 2,71 1,70 -2,0 -13,-4 -25,-9 z"
       id="path3073" />
    <path
       inkscape:connector-curvature="0"
       d="m 4872,3710 c -17,-28 -15,-61 5,-75 16,-12 16,-16 3,-39 -12,-24 -12,-28 6,-41 19,-14 58,-11 80,7 24,18 22,57 -3,84 -18,19 -21,29 -13,34 7,4 9,16 5,29 -9,29 -65,29 -83,1 z m 43,-10 c -3,-5 -2,-10 3,-10 5,0 9,-6 9,-14 0,-8 -6,-12 -14,-9 -15,6 -18,43 -2,43 5,0 7,-4 4,-10 z m 14,-89 c 8,-5 11,-16 8,-25 -9,-24 -24,-19 -29,9 -6,27 -1,30 21,16 z"
       id="path3075" />
    <path
       inkscape:connector-curvature="0"
       d="m 2412,3688 c -5,-8 -6,-22 -1,-33 4,-11 8,-34 8,-52 1,-19 8,-36 18,-42 15,-8 15,-13 5,-36 -16,-35 -15,-117 2,-140 8,-11 19,-16 30,-12 15,6 16,16 11,74 -4,38 -11,72 -16,77 -4,5 -3,18 2,28 17,32 -15,148 -41,148 -4,0 -12,-6 -18,-12 z"
       id="path3077" />
    <path
       inkscape:connector-curvature="0"
       d="m 5615,3659 c -4,-5 5,-29 18,-52 29,-48 143,-164 153,-155 9,10 -42,91 -91,143 -25,26 -45,51 -45,55 0,13 -29,20 -35,9 z"
       id="path3079" />
    <path
       inkscape:connector-curvature="0"
       d="m 1253,3633 c -18,-3 -23,-13 -28,-57 -4,-29 -5,-61 -3,-71 3,-18 33,-43 42,-35 5,6 20,171 15,169 -2,-1 -14,-4 -26,-6 z"
       id="path3081" />
    <path
       inkscape:connector-curvature="0"
       d="m 5447,3604 c -4,-4 16,-31 43,-61 28,-30 50,-61 50,-69 0,-8 7,-14 15,-14 8,0 15,-6 15,-12 1,-16 95,-118 109,-118 40,0 -8,69 -146,213 -65,66 -74,73 -86,61 z"
       id="path3083" />
    <path
       inkscape:connector-curvature="0"
       d="m 1765,3589 c -11,-16 4,-114 20,-135 8,-11 15,-41 15,-67 0,-26 7,-63 15,-83 12,-30 17,-34 33,-25 17,9 18,16 10,68 -6,34 -17,65 -28,74 -13,11 -18,30 -18,65 0,27 -2,56 -4,64 -15,49 -30,62 -43,39 z"
       id="path3085" />
    <path
       inkscape:connector-curvature="0"
       d="m 1231,3431 c -8,-6 -16,-32 -19,-63 -3,-44 -1,-56 16,-71 20,-18 20,-18 27,4 11,32 9,119 -1,129 -5,5 -15,5 -23,1 z"
       id="path3087" />
    <path
       inkscape:connector-curvature="0"
       d="m 5800,3420 c 0,-11 18,-43 40,-71 22,-28 40,-55 40,-61 0,-5 16,-26 35,-46 19,-20 35,-44 35,-53 0,-19 34,-52 43,-42 15,14 6,51 -18,73 -14,13 -25,28 -25,34 0,7 -13,27 -28,46 -16,19 -41,54 -55,77 -15,23 -36,47 -47,53 -17,9 -20,8 -20,-10 z"
       id="path3089" />
    <path
       inkscape:connector-curvature="0"
       d="m 2439,3341 c -25,-25 -42,-107 -27,-131 11,-16 10,-22 -6,-33 -17,-12 -34,-67 -40,-130 -1,-15 -8,-33 -14,-39 -7,-7 -12,-22 -12,-35 0,-13 -3,-23 -7,-23 -7,0 -8,-15 -4,-77 1,-7 10,-13 20,-13 15,0 22,11 30,50 6,28 11,64 11,79 0,15 7,43 17,61 9,19 18,58 19,88 2,30 9,61 18,71 18,20 32,113 20,133 -8,13 -11,13 -25,-1 z"
       id="path3091" />
    <path
       inkscape:connector-curvature="0"
       d="m 5725,3270 c -3,-5 3,-23 14,-39 12,-16 21,-36 21,-45 0,-9 4,-16 9,-16 5,0 30,-31 54,-69 57,-86 76,-106 90,-92 7,7 -11,43 -58,113 -38,57 -71,105 -74,108 -3,3 -11,14 -17,24 -13,24 -30,31 -39,16 z"
       id="path3093" />
    <path
       inkscape:connector-curvature="0"
       d="m 1230,3246 c -7,-14 -10,-32 -6,-41 3,-9 2,-13 -4,-10 -5,3 -8,-3 -7,-14 0,-11 4,-18 8,-15 4,2 10,-8 13,-22 5,-17 12,-24 24,-22 14,3 18,17 20,76 3,65 1,72 -16,72 -10,0 -24,-11 -32,-24 z"
       id="path3095" />
    <path
       inkscape:connector-curvature="0"
       d="m 1838,3259 c -12,-7 -14,-16 -8,-37 36,-117 53,-358 31,-438 -5,-17 -5,-38 0,-45 5,-8 3,-20 -5,-29 -8,-8 -19,-32 -26,-52 -6,-21 -15,-38 -20,-38 -12,0 -21,-63 -10,-74 25,-25 96,105 83,153 -4,16 -1,28 10,36 22,16 33,110 16,131 -10,12 -9,21 4,43 23,39 12,127 -19,158 -12,12 -18,25 -13,28 18,12 5,161 -15,168 -7,3 -19,1 -28,-4 z"
       id="path3097" />
    <path
       inkscape:connector-curvature="0"
       d="m 3383,3133 c -32,-15 -48,-38 -37,-54 3,-5 10,-7 15,-4 11,8 12,-11 0,-51 -5,-18 -5,-37 0,-45 15,-25 43,4 54,57 7,32 15,49 25,49 35,1 49,25 30,55 -7,12 -12,11 -31,-5 -12,-11 -19,-15 -16,-8 12,19 -7,22 -40,6 z"
       id="path3099" />
    <path
       inkscape:connector-curvature="0"
       d="m 6027,3095 c -21,-20 -21,-20 -3,-38 18,-17 60,-92 117,-205 44,-88 55,-100 71,-84 11,11 -36,115 -102,227 -16,28 -38,65 -48,84 -17,31 -20,32 -35,16 z"
       id="path3101" />
    <path
       inkscape:connector-curvature="0"
       d="m 1247,3063 c -19,-19 6,-142 31,-151 23,-7 33,35 20,85 -16,64 -32,85 -51,66 z"
       id="path3103" />
    <path
       inkscape:connector-curvature="0"
       d="m 5950,2906 c 0,-16 46,-120 69,-155 8,-13 16,-31 17,-39 4,-23 47,-63 57,-53 10,10 -52,156 -85,200 -10,13 -18,32 -18,42 0,12 -7,19 -20,19 -11,0 -20,-6 -20,-14 z"
       id="path3105" />
    <path
       inkscape:connector-curvature="0"
       d="m 1296,2874 c -16,-43 18,-134 51,-134 20,0 20,89 -1,102 -6,4 -7,8 -3,8 4,0 3,9 -3,20 -13,24 -36,26 -44,4 z"
       id="path3107" />
    <path
       inkscape:connector-curvature="0"
       d="m 2312,2832 c -24,-24 -40,-118 -23,-135 17,-17 30,2 47,67 18,70 8,100 -24,68 z"
       id="path3109" />
    <path
       inkscape:connector-curvature="0"
       d="m 3327,2718 c -15,-73 -38,-187 -52,-253 -22,-104 -36,-171 -86,-415 -5,-25 -14,-65 -19,-90 -6,-25 -15,-63 -19,-85 -24,-112 -42,-199 -62,-285 -28,-124 -38,-173 -39,-182 0,-5 -12,-8 -27,-8 -35,0 -51,-10 -68,-43 -15,-30 -5,-86 19,-106 20,-17 63,-23 71,-11 3,5 14,10 25,10 11,0 23,12 30,33 15,39 14,56 -8,81 -19,21 -19,29 9,141 11,44 24,103 28,130 4,28 26,131 49,230 22,99 53,239 68,310 14,72 38,180 51,240 14,61 31,146 39,190 7,44 18,105 25,135 15,75 16,102 3,107 -7,2 -21,-45 -37,-129 z"
       id="path3111" />
    <path
       inkscape:connector-curvature="0"
       d="m 6219,2735 c -3,-19 2,-50 10,-70 29,-67 60,-146 75,-187 10,-27 24,-48 32,-48 16,0 19,32 5,58 -5,9 -27,61 -48,114 -36,92 -71,155 -74,133 z"
       id="path3113" />
    <path
       inkscape:connector-curvature="0"
       d="m 1348,2693 c -2,-10 9,-41 24,-69 15,-29 24,-55 20,-60 -4,-4 4,-1 18,8 35,22 35,47 0,96 -33,44 -56,54 -62,25 z"
       id="path3115" />
    <path
       inkscape:connector-curvature="0"
       d="m 2255,2643 c -3,-15 -11,-44 -17,-64 -12,-41 -5,-59 21,-59 20,0 33,42 35,110 1,45 -30,56 -39,13 z"
       id="path3117" />
    <path
       inkscape:connector-curvature="0"
       d="m 1441,2577 c -15,-19 -11,-80 4,-67 9,7 16,6 24,-4 13,-15 58,-31 80,-27 8,2 12,-3 8,-11 -3,-10 5,-15 31,-16 20,-2 41,-7 48,-13 8,-7 14,-7 19,1 3,5 14,10 24,10 25,0 47,28 34,41 -6,6 -44,11 -86,12 -41,1 -73,5 -70,10 2,4 0,7 -6,7 -5,0 -30,15 -55,34 -34,26 -47,32 -55,23 z"
       id="path3119" />
    <path
       inkscape:connector-curvature="0"
       d="m 6113,2554 c 7,-34 52,-166 72,-210 8,-17 22,-37 31,-45 16,-13 17,-10 11,35 -4,27 -11,54 -15,60 -5,6 -15,31 -22,56 -19,60 -53,123 -69,128 -10,3 -12,-3 -8,-24 z"
       id="path3121" />
    <path
       inkscape:connector-curvature="0"
       d="m 1738,2516 c -18,-25 -15,-36 12,-36 19,0 50,30 50,48 0,21 -44,12 -62,-12 z"
       id="path3123" />
    <path
       inkscape:connector-curvature="0"
       d="m 2217,2472 c -11,-17 -19,-112 -13,-138 l 7,-28 20,31 c 26,41 31,136 7,141 -9,2 -19,-1 -21,-6 z"
       id="path3125" />
    <path
       inkscape:connector-curvature="0"
       d="m 6343,2358 c 6,-27 25,-96 32,-118 3,-8 11,-36 18,-63 7,-26 21,-55 30,-64 16,-16 17,-16 17,12 0,28 -53,225 -65,246 -4,5 -13,9 -22,9 -11,0 -14,-6 -10,-22 z"
       id="path3127" />
    <path
       inkscape:connector-curvature="0"
       d="m 2191,2281 c -14,-25 -16,-65 -7,-127 5,-34 4,-54 -3,-59 -14,-8 -14,-130 -1,-155 7,-12 7,-21 0,-25 -8,-5 -7,-45 5,-120 2,-11 4,-28 4,-37 1,-12 9,-18 26,-18 25,0 25,1 22,73 -2,41 -8,80 -13,88 -5,8 -7,56 -5,107 2,62 -1,92 -8,92 -16,0 -13,27 4,34 22,8 22,166 0,166 -8,0 -19,-8 -24,-19 z"
       id="path3129" />
    <path
       inkscape:connector-curvature="0"
       d="m 6234,2195 c -4,-8 -2,-21 4,-28 6,-7 23,-64 37,-127 30,-127 55,-174 55,-103 0,22 -7,59 -15,82 -8,23 -14,43 -14,46 -1,10 -12,60 -24,103 -11,42 -33,55 -43,27 z"
       id="path3131" />
    <path
       inkscape:connector-curvature="0"
       d="m 6430,2036 c 0,-9 4,-35 10,-58 5,-24 15,-70 21,-103 15,-74 18,-79 33,-66 20,16 -23,235 -47,239 -10,2 -17,-3 -17,-12 z"
       id="path3133" />
    <path
       inkscape:connector-curvature="0"
       d="m 6320,1803 c 0,-10 4,-47 9,-83 5,-36 12,-100 16,-142 5,-54 11,-78 20,-78 7,0 15,6 18,13 5,12 -18,234 -29,285 -5,26 -34,30 -34,5 z"
       id="path3135" />
    <path
       inkscape:connector-curvature="0"
       d="m 6486,1742 c -5,-9 12,-204 19,-211 12,-12 35,25 30,48 -3,14 -7,54 -10,89 -2,34 -7,67 -10,72 -8,12 -22,13 -29,2 z"
       id="path3137" />
    <path
       inkscape:connector-curvature="0"
       d="m 2204,1713 c -7,-2 -6,-24 3,-71 15,-73 30,-96 52,-83 13,8 9,43 -15,133 -5,18 -23,27 -40,21 z"
       id="path3139" />
    <path
       inkscape:connector-curvature="0"
       d="m 470,1655 c 0,-8 5,-15 10,-15 6,0 10,7 10,15 0,8 -4,15 -10,15 -5,0 -10,-7 -10,-15 z"
       id="path3141" />
    <path
       inkscape:connector-curvature="0"
       d="m 2240,1529 c -7,-13 -8,-25 -2,-32 5,-7 13,-32 17,-57 10,-59 21,-80 45,-80 28,0 33,33 12,82 -11,24 -25,58 -32,76 -14,37 -25,40 -40,11 z"
       id="path3143" />
    <path
       inkscape:connector-curvature="0"
       d="m 6514,1448 c -14,-19 -2,-252 13,-255 17,-4 26,72 21,168 -5,81 -17,112 -34,87 z"
       id="path3145" />
    <path
       inkscape:connector-curvature="0"
       d="m 3226,1435 c -22,-6 -42,-18 -44,-26 -3,-8 -8,-16 -12,-19 -4,-3 -11,-24 -15,-47 -6,-37 -3,-45 19,-68 19,-19 32,-24 50,-19 23,5 24,4 16,-30 -9,-39 -5,-46 21,-46 12,0 21,10 25,28 4,15 17,69 30,120 13,52 21,98 18,103 -3,6 -15,7 -25,4 -11,-4 -25,-3 -32,3 -7,5 -27,4 -51,-3 z m 54,-50 c 0,-13 -8,-40 -17,-60 -12,-26 -23,-35 -41,-35 -23,0 -24,2 -18,40 8,54 26,80 53,80 18,0 23,-6 23,-25 z"
       id="path3147" />
    <path
       inkscape:connector-curvature="0"
       d="m 4297,1442 c -23,-5 -22,-19 2,-27 17,-5 18,-9 4,-88 -9,-45 -22,-93 -30,-106 -20,-31 -8,-39 50,-33 48,4 62,16 28,25 -15,4 -17,11 -12,43 6,36 9,40 47,48 29,6 47,19 62,41 29,42 28,69 -4,86 -24,12 -106,19 -147,11 z m 108,-38 c 22,-22 15,-56 -14,-71 -35,-17 -40,-10 -28,42 11,49 17,53 42,29 z"
       id="path3149" />
    <path
       inkscape:connector-curvature="0"
       d="m 6364,1372 c -12,-20 -6,-282 7,-282 15,0 18,17 23,147 5,100 3,133 -7,141 -9,8 -16,6 -23,-6 z"
       id="path3151" />
    <path
       inkscape:connector-curvature="0"
       d="m 2304,1336 c -7,-17 37,-105 65,-130 19,-17 21,-17 27,-2 11,28 -51,146 -77,146 -5,0 -12,-6 -15,-14 z"
       id="path3153" />
    <path
       inkscape:connector-curvature="0"
       d="m 3370,1305 c 0,-8 5,-15 10,-15 6,0 10,-30 10,-70 0,-57 -3,-70 -16,-70 -9,0 -14,-6 -12,-12 3,-8 27,-14 64,-15 l 59,-3 -28,23 c -26,22 -28,29 -27,83 3,96 3,94 -30,94 -20,0 -30,-5 -30,-15 z"
       id="path3155" />
    <path
       inkscape:connector-curvature="0"
       d="m 2399,1180 c -30,-19 48,-120 93,-120 14,0 -3,54 -23,72 -10,9 -19,21 -19,27 0,17 -34,31 -51,21 z"
       id="path3157" />
    <path
       inkscape:connector-curvature="0"
       d="m 6504,1122 c -5,-4 -9,-18 -8,-32 1,-14 -1,-68 -6,-120 -9,-111 -6,-128 21,-105 9,9 17,24 17,33 -1,10 2,63 6,118 6,83 5,102 -7,107 -7,3 -18,2 -23,-1 z"
       id="path3159" />
    <path
       inkscape:connector-curvature="0"
       d="m 2518,1053 c -10,-2 -18,-12 -18,-22 0,-9 -5,-22 -10,-27 -7,-7 -6,-11 4,-11 8,0 15,3 14,6 -2,20 6,19 35,-8 51,-48 103,-34 56,15 -12,13 -18,24 -13,24 5,0 -4,7 -20,15 -15,8 -29,14 -30,14 0,-1 -9,-3 -18,-6 z"
       id="path3161" />
    <path
       inkscape:connector-curvature="0"
       d="m 4132,991 c -55,-9 -73,-26 -48,-44 14,-10 32,-11 69,-6 56,9 73,20 64,43 -7,17 -17,18 -85,7 z"
       id="path3163" />
    <path
       inkscape:connector-curvature="0"
       d="m 2660,955 c -20,-24 -5,-43 58,-73 53,-25 62,-26 81,-14 20,13 21,13 21,-11 0,-23 5,-27 58,-37 31,-6 63,-13 70,-15 7,-3 12,6 12,23 0,27 -3,28 -67,39 -36,7 -79,21 -94,32 -16,12 -33,21 -39,21 -6,0 -26,11 -44,25 -39,29 -40,30 -56,10 z"
       id="path3165" />
    <path
       inkscape:connector-curvature="0"
       d="m 3955,945 c -62,-12 -76,-21 -68,-42 13,-33 157,3 170,43 4,12 -41,12 -102,-1 z"
       id="path3167" />
    <path
       inkscape:connector-curvature="0"
       d="m 3770,913 c -47,-6 -58,-18 -36,-42 14,-15 24,-17 54,-10 45,10 72,40 45,51 -10,3 -20,6 -23,6 -3,-1 -21,-3 -40,-5 z"
       id="path3169" />
    <path
       inkscape:connector-curvature="0"
       d="m 3137,883 c -4,-3 3,-17 15,-30 l 21,-23 -31,0 c -17,0 -54,5 -82,11 -28,6 -54,8 -58,5 -3,-4 -2,-18 4,-33 8,-23 15,-26 59,-28 28,-2 61,-3 75,-4 14,-1 20,-5 15,-9 -6,-4 -12,-20 -13,-35 -3,-24 -1,-27 15,-19 10,5 38,19 63,32 25,12 55,20 65,18 11,-2 25,2 30,10 6,7 19,14 30,16 11,2 21,9 23,17 2,14 -8,18 -120,50 -27,7 -48,17 -48,21 0,10 -54,11 -63,1 z"
       id="path3171" />
    <path
       inkscape:connector-curvature="0"
       d="m 3605,871 c -26,-4 -40,-11 -40,-21 0,-12 14,-15 65,-15 58,0 65,2 65,20 0,22 -23,27 -90,16 z"
       id="path3173" />
    <path
       inkscape:connector-curvature="0"
       d="m 3441,850 c -59,-5 -75,-21 -39,-36 34,-14 112,-3 116,17 4,22 -12,25 -77,19 z"
       id="path3175" />
    <path
       inkscape:connector-curvature="0"
       d="m 6265,483 c -15,-65 -32,-126 -37,-135 -4,-9 -4,-26 0,-38 12,-33 25,-9 52,90 41,155 46,200 22,200 -5,0 -21,-53 -37,-117 z"
       id="path3177" />
    <path
       inkscape:connector-curvature="0"
       d="m 6411,463 c -23,-56 -49,-183 -38,-190 17,-10 34,24 51,100 9,40 19,82 22,95 9,33 -21,29 -35,-5 z"
       id="path3179" />
    <path
       inkscape:connector-curvature="0"
       d="m 2144,8 c -3,-4 13,-8 35,-8 23,0 41,2 41,4 0,8 -71,12 -76,4 z"
       id="path3181" />
    <path
       inkscape:connector-curvature="0"
       d="m 1003,3 c 9,-2 25,-2 35,0 9,3 1,5 -18,5 -19,0 -27,-2 -17,-5 z"
       id="path3183" />
  </g>
</svg>
