<?xml version="1.0" encoding="UTF-8" standalone="no"?>
<svg
   xmlns:dc="http://purl.org/dc/elements/1.1/"
   xmlns:cc="http://creativecommons.org/ns#"
   xmlns:rdf="http://www.w3.org/1999/02/22-rdf-syntax-ns#"
   xmlns:svg="http://www.w3.org/2000/svg"
   xmlns="http://www.w3.org/2000/svg"
   xmlns:sodipodi="http://sodipodi.sourceforge.net/DTD/sodipodi-0.dtd"
   xmlns:inkscape="http://www.inkscape.org/namespaces/inkscape"
   version="1.0"
   width="197.760000pt"
   height="277.440000pt"
   viewBox="0 0 197.760000 277.440000"
   preserveAspectRatio="xMidYMid meet"
   id="svg2989"
   inkscape:version="0.48.3.1 r9886"
   sodipodi:docname="black.svg">
  <defs
     id="defs3019" />
  <sodipodi:namedview
     pagecolor="#ffffff"
     bordercolor="#666666"
     borderopacity="1"
     objecttolerance="10"
     gridtolerance="10"
     guidetolerance="10"
     inkscape:pageopacity="0"
     inkscape:pageshadow="2"
     inkscape:window-width="1440"
     inkscape:window-height="872"
     id="namedview3017"
     showgrid="false"
     inkscape:zoom="0.68416406"
     inkscape:cx="-5.6038518"
     inkscape:cy="4.0740169"
     inkscape:window-x="0"
     inkscape:window-y="0"
     inkscape:window-maximized="1"
     inkscape:current-layer="svg2989" />
  <metadata
     id="metadata2991">
Created by potrace 1.10, written by Peter Selinger 2001-2011
<rdf:RDF>
  <cc:Work
     rdf:about="">
    <dc:format>image/svg+xml</dc:format>
    <dc:type
       rdf:resource="http://purl.org/dc/dcmitype/StillImage" />
  </cc:Work>
</rdf:RDF>
</metadata>
  <rect
     style="fill:#b9b9b9;fill-opacity:1;stroke:none"
     id="rect3021"
     width="222.5197"
     height="277.51181"
     x="-35.189308"
     y="-0.071810305" />
  <g
     transform="translate(0.000000,277.440000) scale(0.024000,-0.024000)"
     fill="#000000"
     stroke="none"
     id="g2993">
    <path
       d="M8174 10826 c-26 -19 -10 -37 21 -23 14 7 25 15 25 18 0 14 -29 17 -46 5z"
       id="path2995" />
    <path
       d="M4585 10645 c-83 -12 -181 -40 -202 -58 -7 -5 -13 -7 -13 -4 0 8 -162 -77 -217 -114 -64 -42 -107 -73 -113 -81 -3 -3 -8 -5 -12 -5 -10 3 -186 -171 -201 -197 -6 -13 -24 -39 -40 -57 -59 -73 -118 -176 -161 -284 -16 -38 -32 -79 -37 -90 -7 -18 -30 -102 -32 -115 0 -3 -6 -32 -14 -65 -28 -117 -45 -223 -58 -350 -3 -33 -8 -71 -11 -85 -3 -13 -7 -40 -10 -59 -10 -76 -73 -274 -94 -295 -6 -6 -10 -16 -10 -24 0 -31 -156 -251 -239 -336 -76 -78 -98 -94 -186 -137 -55 -26 -113 -51 -130 -55 -16 -4 -93 -31 -170 -61 -214 -83 -330 -170 -384 -287 -46 -101 -54 -144 -49 -273 4 -98 10 -132 36 -205 38 -108 114 -259 161 -318 53 -69 213 -230 228 -230 7 0 27 -13 45 -28 72 -62 228 -140 378 -187 95 -30 261 -71 321 -79 25 -4 57 -8 70 -11 23 -3 229 -17 279 -18 80 -1 346 20 477 39 67 9 301 70 383 98 80 29 294 128 347 161 76 48 115 70 121 69 4 -1 21 10 38 25 17 14 61 44 98 66 37 22 86 55 108 73 23 18 50 38 62 44 105 56 405 324 514 458 64 79 200 317 247 433 14 34 32 76 40 92 21 43 115 301 115 314 0 6 4 19 9 29 17 31 54 203 68 314 34 268 -30 729 -134 983 -42 101 -113 238 -144 277 -16 20 -29 41 -29 47 0 13 -197 208 -254 251 -25 19 -52 41 -60 48 -8 6 -19 12 -24 12 -5 0 -15 7 -22 15 -7 8 -40 29 -74 46 -33 17 -69 38 -78 47 -10 8 -18 12 -18 7 0 -4 -11 0 -25 9 -13 9 -30 16 -38 16 -7 0 -19 6 -25 13 -7 6 -16 12 -20 12 -4 0 -29 8 -57 18 -51 19 -66 24 -75 25 -3 0 -17 5 -33 11 -29 11 -29 11 -182 42 -122 25 -355 32 -470 14z m385 -39 c14 -3 45 -8 70 -11 25 -3 52 -8 60 -11 8 -3 26 -8 40 -10 42 -8 134 -37 148 -47 6 -5 12 -7 12 -3 0 3 24 -3 53 -15 88 -34 207 -92 207 -101 0 -5 4 -7 9 -4 8 6 63 -31 69 -46 2 -5 7 -6 11 -4 4 3 29 -13 55 -34 27 -22 51 -40 55 -40 21 0 261 -255 300 -320 29 -49 121 -236 121 -248 0 -6 9 -32 21 -59 24 -55 64 -222 83 -348 4 -22 9 -53 11 -70 19 -116 27 -373 15 -465 -18 -132 -22 -155 -27 -170 -9 -22 -14 -42 -18 -72 -7 -41 -74 -245 -101 -306 -13 -29 -24 -57 -24 -62 0 -43 -214 -457 -242 -468 -4 -2 -8 -10 -8 -17 0 -8 -17 -34 -37 -58 -21 -24 -53 -63 -71 -86 -77 -94 -185 -190 -370 -328 -31 -24 -62 -47 -69 -53 -6 -5 -37 -26 -68 -47 -31 -21 -103 -68 -159 -106 -55 -37 -112 -73 -126 -79 -14 -7 -32 -17 -40 -23 -66 -51 -427 -209 -505 -220 -5 -1 -17 -5 -25 -8 -45 -18 -198 -48 -365 -72 -76 -11 -500 -14 -590 -4 -219 23 -603 149 -686 225 -11 9 -19 14 -19 10 0 -15 -157 104 -229 174 -68 68 -191 243 -191 274 0 7 -4 16 -9 22 -12 12 -49 106 -67 169 -21 75 -29 234 -15 289 23 94 66 170 129 228 82 75 121 96 361 185 113 43 226 90 251 105 25 15 62 37 83 48 59 32 288 323 314 397 3 10 18 46 34 80 37 80 76 222 89 320 6 43 13 92 15 108 2 17 12 82 21 145 16 118 70 357 84 375 4 6 10 23 14 38 8 34 72 171 96 206 9 14 38 57 63 95 50 74 138 170 232 251 68 58 95 79 95 70 0 -3 10 3 21 14 12 11 33 26 48 33 14 7 46 25 71 40 48 28 210 100 210 93 0 -3 11 0 25 5 13 5 50 12 82 16 32 3 60 8 62 10 6 5 287 -4 321 -10z"
       id="path2997" />
    <path
       d="M609 7732 c-39 -5 -89 -64 -89 -105 0 -42 32 -85 77 -104 31 -12 38 -12 71 4 54 27 76 62 67 111 -11 67 -58 102 -126 94z"
       id="path2999" />
    <path
       d="M803 7527 c-36 -36 -51 -94 -34 -126 9 -16 21 -21 50 -21 l39 0 -5 -40 c-3 -24 -2 -40 4 -40 17 0 37 30 40 59 2 14 6 33 10 41 3 8 7 22 8 30 2 20 15 80 21 102 4 14 -1 17 -23 16 -15 0 -40 2 -54 6 -20 4 -32 -1 -56 -27z m80 -36 c-1 -29 -9 -52 -24 -67 -43 -46 -72 -19 -49 45 29 82 76 96 73 22z"
       id="path3001" />
    <path
       d="M150 6677 c0 -4 9 -25 20 -46 39 -78 36 -158 -12 -253 -10 -21 -18 -42 -18 -49 0 -22 28 11 50 59 12 26 25 54 29 62 14 28 6 139 -11 165 -21 29 -57 69 -58 62z"
       id="path3003" />
    <path
       d="M42 6563 c-12 -24 -3 -155 11 -150 6 2 17 13 25 25 13 20 13 22 -7 22 -11 0 -21 1 -21 3 0 1 6 25 14 54 8 28 11 54 8 57 -10 11 -21 6 -30 -11z"
       id="path3005" />
    <path
       d="M4667 5124 c-1 -1 -27 -4 -57 -7 -64 -6 -156 -24 -185 -37 -24 -10 -70 -24 -70 -20 0 6 -124 -53 -157 -76 -21 -13 -38 -22 -38 -19 0 3 -14 -7 -31 -22 -17 -16 -49 -41 -72 -56 -236 -159 -485 -553 -523 -827 -2 -19 -9 -48 -14 -65 -9 -30 -23 -126 -40 -285 -17 -160 -30 -235 -56 -325 -24 -85 -87 -227 -137 -306 -98 -158 -338 -347 -522 -409 -38 -13 -74 -27 -80 -32 -5 -4 -15 -8 -23 -8 -12 0 -56 -19 -163 -69 -57 -27 -206 -143 -219 -171 -22 -47 -105 -141 -147 -165 -72 -43 -142 -32 -211 34 -89 84 -139 155 -197 276 -32 66 -68 133 -81 148 -13 16 -24 34 -24 40 0 7 -27 45 -60 86 -33 41 -60 81 -60 88 0 8 -5 11 -10 8 -6 -3 -13 0 -16 9 -8 20 -152 126 -238 174 -143 80 -321 87 -606 23 -58 -13 -129 -44 -209 -92 -34 -22 -65 -39 -67 -39 -8 0 -169 -133 -173 -143 -1 -4 -21 -28 -42 -53 -21 -25 -39 -51 -39 -58 0 -8 -7 -19 -15 -26 -30 -25 -61 -94 -55 -124 5 -28 8 -26 60 58 30 48 64 102 74 119 27 45 93 109 146 143 25 16 55 38 68 49 100 86 348 163 532 166 80 2 104 0 197 -17 45 -7 155 -65 233 -120 55 -39 170 -151 170 -165 0 -4 18 -30 40 -58 53 -67 70 -96 131 -221 122 -252 227 -358 371 -373 20 -2 50 2 68 9 41 18 177 149 184 179 6 24 99 114 144 139 60 34 171 88 184 90 7 1 18 4 23 8 12 7 125 48 142 52 7 1 16 5 19 9 4 4 15 7 24 7 38 0 236 141 333 237 134 133 198 233 260 403 47 132 54 166 83 394 43 356 91 543 179 706 56 105 85 153 94 160 4 3 16 19 26 36 44 70 236 256 330 320 65 43 278 138 335 149 19 3 44 8 55 10 76 14 152 21 225 20 90 -2 251 -14 261 -21 4 -2 22 -6 40 -8 168 -22 404 -114 579 -224 47 -30 90 -59 95 -66 6 -6 35 -31 65 -55 144 -113 273 -294 355 -497 27 -65 52 -132 56 -149 30 -112 47 -190 43 -197 -2 -3 0 -9 5 -12 4 -3 11 -32 15 -63 4 -32 9 -71 11 -88 39 -239 31 -435 -26 -690 -21 -93 -72 -256 -90 -289 -6 -10 -12 -27 -14 -37 -11 -56 -203 -462 -234 -496 -10 -10 -20 -26 -24 -35 -16 -42 -136 -185 -235 -279 -59 -56 -159 -140 -222 -187 -63 -47 -131 -97 -150 -111 -19 -15 -69 -49 -110 -75 -41 -27 -94 -61 -118 -77 -23 -16 -46 -29 -50 -29 -4 0 -26 -13 -49 -29 -75 -51 -413 -210 -413 -194 0 3 -6 0 -14 -6 -13 -11 -42 -20 -76 -24 -8 -1 -17 -4 -20 -7 -6 -6 -181 -49 -220 -54 -14 -2 -32 -6 -40 -9 -70 -26 -547 -42 -698 -24 -99 12 -220 36 -297 59 -38 12 -76 21 -82 19 -7 -1 -13 3 -13 9 0 5 -9 10 -20 10 -20 0 -70 20 -125 48 -16 9 -32 15 -35 15 -11 -3 -190 91 -212 111 -13 12 -39 32 -59 44 -49 30 -199 186 -231 242 -40 67 -106 205 -114 237 -7 27 -43 99 -68 135 -47 66 -147 97 -286 86 -134 -10 -163 -22 -240 -98 -51 -50 -76 -86 -113 -160 -59 -121 -117 -249 -117 -257 0 -11 -70 -147 -89 -173 -10 -14 -40 -58 -67 -98 -45 -69 -117 -141 -167 -167 -12 -7 -38 -22 -57 -33 -81 -50 -104 -58 -288 -91 -34 -6 -241 3 -302 13 -33 6 -61 16 -102 37 -10 5 -24 9 -32 9 -7 0 -19 7 -26 15 -7 8 -20 15 -29 15 -9 0 -36 18 -59 40 -24 22 -48 40 -53 40 -6 0 -7 5 -3 12 4 6 3 8 -3 5 -9 -6 -32 16 -84 81 -5 6 -8 12 -5 12 2 0 -14 20 -37 45 -22 24 -44 42 -49 39 -17 -10 -7 -42 24 -80 54 -64 202 -209 218 -212 8 -2 21 -8 28 -14 37 -31 149 -72 227 -83 17 -2 50 -7 75 -11 39 -6 152 -6 258 -1 17 1 32 5 32 10 0 4 11 7 24 7 40 0 165 45 189 69 13 12 34 23 45 26 12 2 36 18 54 35 18 17 47 40 63 51 30 21 72 73 110 135 12 18 33 47 48 64 15 16 25 30 22 30 -3 0 8 24 24 53 16 28 41 81 54 117 48 125 135 298 172 342 14 16 25 34 25 39 0 19 106 78 150 84 25 3 65 8 89 11 25 3 48 7 53 10 4 3 8 2 8 -3 0 -4 17 -8 38 -9 105 -3 140 -36 206 -196 92 -223 196 -368 337 -475 31 -23 62 -47 70 -55 8 -7 20 -14 26 -15 6 -1 27 -13 45 -25 34 -23 195 -105 233 -119 69 -25 210 -69 242 -75 6 -1 27 -7 45 -13 18 -5 47 -12 63 -15 17 -2 30 -5 30 -6 0 -2 17 -4 105 -16 83 -11 407 -11 530 -1 146 13 151 14 210 26 30 6 71 13 90 17 44 7 65 12 65 14 0 2 21 7 50 12 11 2 25 6 30 9 8 5 39 15 75 24 42 10 139 48 183 71 15 9 27 13 27 10 0 -3 30 10 68 29 37 19 73 35 80 35 6 0 12 4 12 9 0 9 22 19 45 22 6 0 12 5 15 10 3 5 24 19 46 31 77 43 139 82 158 100 11 10 26 18 33 18 7 0 13 5 13 11 0 5 4 8 9 5 5 -4 11 -2 13 2 1 5 28 25 58 45 30 21 64 44 75 53 11 9 43 31 70 50 156 106 376 301 409 362 6 11 30 41 54 66 23 24 42 48 42 52 0 4 11 22 25 40 14 18 30 43 36 56 5 13 21 41 34 63 40 65 133 264 159 337 8 24 25 68 36 98 12 30 29 78 37 105 8 28 18 59 23 70 42 103 92 386 91 520 -1 265 -69 638 -151 830 -78 181 -116 246 -211 360 -69 81 -196 202 -236 223 -12 7 -28 19 -36 27 -20 20 -177 115 -190 115 -6 0 -18 6 -26 13 -44 37 -338 132 -466 151 -102 15 -358 29 -368 20z"
       id="path3007" />
    <path
       d="M600 2273 c-44 -23 -62 -57 -56 -107 5 -45 49 -96 83 -96 13 0 23 -5 23 -12 0 -7 6 -6 18 4 9 9 22 14 28 12 22 -9 57 45 61 93 4 43 2 51 -27 81 -18 17 -37 32 -44 32 -6 0 -20 3 -31 5 -11 3 -36 -2 -55 -12z"
       id="path3009" />
    <path
       d="M855 2102 c-32 -6 -63 -41 -79 -87 -14 -42 -14 -44 12 -67 28 -25 48 -28 71 -14 14 9 13 -6 -5 -65 -3 -11 3 -18 15 -22 20 -5 24 1 36 50 16 63 37 140 42 153 16 38 11 49 -22 48 -17 -1 -36 1 -41 4 -5 2 -18 3 -29 0z m46 -35 c9 -12 -6 -62 -26 -94 -22 -33 -60 -28 -60 7 0 25 18 74 37 97 10 12 38 7 49 -10z"
       id="path3011" />
    <path
       d="M10 788 l0 -102 33 32 c47 45 61 42 53 -10 -7 -46 -48 -93 -72 -84 -8 3 -11 0 -7 -10 9 -25 44 -15 84 25 31 30 39 46 39 74 0 20 -7 42 -15 50 -16 17 -52 12 -74 -10 -22 -22 -23 -9 -7 55 21 78 20 82 -9 82 l-25 0 0 -102z"
       id="path3013" />
    <path
       d="M210 881 c0 -4 8 -19 18 -32 26 -34 44 -102 36 -141 -3 -18 -7 -43 -8 -55 -2 -11 -13 -40 -25 -62 -24 -48 -25 -51 -10 -51 5 0 24 29 41 65 47 102 40 200 -20 268 -16 18 -32 23 -32 8z"
       id="path3015" />
  </g>
  <path
     style="fill:none;stroke:#000000;stroke-width:1px;stroke-linecap:butt;stroke-linejoin:miter;stroke-opacity:1"
     d="m 0.94673504,269.28606 c -4.97035904,11.36082 -4.82131794,19.87769 -4.26030774,24.61511 1.065077,8.99398 4.26030774,13.13595 4.26030774,13.13595"
     id="path3791"
     inkscape:connector-curvature="0"
     transform="matrix(0.80000003,0,0,0.80000003,-2.2597792e-6,0)"
     sodipodi:nodetypes="csc" />
  <g
     id="g3854"
     transform="translate(163.08859,-32.412035)">
    <rect
       transform="matrix(0.80000003,0,0,0.80000003,-2.2597792e-6,0)"
       y="159.93309"
       x="-181.90965"
       height="10.345572"
       width="8.1902447"
       id="rect3809"
       style="fill:#b9b9b9;fill-opacity:1;stroke:none" />
    <text
       transform="matrix(0.80000003,0,0,0.80000003,-2.2597792e-6,0)"
       sodipodi:linespacing="125%"
       id="text3793"
       y="166.71988"
       x="-180.74956"
       style="font-size:11.30000019px;font-style:italic;font-variant:normal;font-weight:bold;font-stretch:normal;line-height:125%;letter-spacing:0px;word-spacing:0px;fill:#000000;fill-opacity:1;stroke:none;font-family:Liberation Serif;-inkscape-font-specification:Liberation Serif Bold Italic"
       xml:space="preserve"><tspan
         y="166.71988"
         x="-180.74956"
         id="tspan3795"
         sodipodi:role="line">q</tspan></text>
  </g>
  <g
     id="g3859"
     transform="translate(156.46374,80.790635)">
    <rect
       y="145.53395"
       x="-138.45825"
       height="8.2764587"
       width="6.552196"
       id="rect3809-1"
       style="fill:#b9b9b9;fill-opacity:1;stroke:none" />
    <text
       transform="matrix(0.80000003,0,0,0.80000003,-2.2597792e-6,0)"
       sodipodi:linespacing="125%"
       id="text3797"
       y="188.81149"
       x="-172.04678"
       style="font-size:11.30000019px;font-style:italic;font-variant:normal;font-weight:bold;font-stretch:normal;line-height:125%;letter-spacing:0px;word-spacing:0px;fill:#000000;fill-opacity:1;stroke:none;font-family:Liberation Serif;-inkscape-font-specification:Liberation Serif Bold Italic"
       xml:space="preserve"><tspan
         y="188.81149"
         x="-172.04678"
         id="tspan3799"
         sodipodi:role="line">q</tspan></text>
  </g>
  <g
     id="g3864"
     transform="translate(128.08863,-68.584701)">
    <rect
       y="184.15742"
       x="-133.11304"
       height="10.690426"
       width="11.552556"
       id="rect3809-2"
       style="fill:#b9b9b9;fill-opacity:1;stroke:none" />
    <text
       transform="matrix(0.80000003,0,0,0.80000003,-2.2597792e-6,0)"
       sodipodi:linespacing="125%"
       id="text3801"
       y="239.68913"
       x="-165.35236"
       style="font-size:11.30000019px;font-style:italic;font-variant:normal;font-weight:bold;font-stretch:normal;line-height:125%;letter-spacing:0px;word-spacing:0px;fill:#000000;fill-opacity:1;stroke:none;font-family:Liberation Serif;-inkscape-font-specification:Liberation Serif Bold Italic"
       xml:space="preserve"><tspan
         y="239.68913"
         x="-165.35236"
         id="tspan3803"
         sodipodi:role="line">(a)</tspan></text>
  </g>
  <g
     id="g3869"
     transform="translate(125.30525,42.865054)">
    <rect
       y="212.78017"
       x="-128.02647"
       height="10.690426"
       width="11.552556"
       id="rect3809-2-3"
       style="fill:#b9b9b9;fill-opacity:1;stroke:none" />
    <text
       transform="matrix(0.80000003,0,0,0.80000003,-2.2597792e-6,0)"
       sodipodi:linespacing="125%"
       id="text3805"
       y="274.50018"
       x="-159.99683"
       style="font-size:11.30000019px;font-style:italic;font-variant:normal;font-weight:bold;font-stretch:normal;line-height:125%;letter-spacing:0px;word-spacing:0px;fill:#000000;fill-opacity:1;stroke:none;font-family:Liberation Serif;-inkscape-font-specification:Liberation Serif Bold Italic"
       xml:space="preserve"><tspan
         y="274.50018"
         x="-159.99683"
         id="tspan3807"
         sodipodi:role="line">(b)</tspan></text>
  </g>
</svg>
