<?xml version="1.0" encoding="UTF-8" standalone="no"?>
<svg
   xmlns:dc="http://purl.org/dc/elements/1.1/"
   xmlns:cc="http://creativecommons.org/ns#"
   xmlns:rdf="http://www.w3.org/1999/02/22-rdf-syntax-ns#"
   xmlns:svg="http://www.w3.org/2000/svg"
   xmlns="http://www.w3.org/2000/svg"
   xmlns:xlink="http://www.w3.org/1999/xlink"
   xmlns:sodipodi="http://sodipodi.sourceforge.net/DTD/sodipodi-0.dtd"
   xmlns:inkscape="http://www.inkscape.org/namespaces/inkscape"
   version="1.0"
   width="178.560000pt"
   height="182.400000pt"
   viewBox="0 0 178.560000 182.400000"
   preserveAspectRatio="xMidYMid meet"
   id="svg3109"
   inkscape:version="0.48.4 r9939"
   sodipodi:docname="sphere-flux.svg">
  <defs
     id="defs3173" />
  <sodipodi:namedview
     pagecolor="#ffffff"
     bordercolor="#666666"
     borderopacity="1"
     objecttolerance="10"
     gridtolerance="10"
     guidetolerance="10"
     inkscape:pageopacity="0"
     inkscape:pageshadow="2"
     inkscape:window-width="1280"
     inkscape:window-height="996"
     id="namedview3171"
     showgrid="false"
     inkscape:zoom="1.3488181"
     inkscape:cx="156.04228"
     inkscape:cy="198.46296"
     inkscape:window-x="0"
     inkscape:window-y="0"
     inkscape:window-maximized="1"
     inkscape:current-layer="svg3109" />
  <metadata
     id="metadata3111">
Created by potrace 1.10, written by Peter Selinger 2001-2011
<rdf:RDF>
  <cc:Work
     rdf:about="">
    <dc:format>image/svg+xml</dc:format>
    <dc:type
       rdf:resource="http://purl.org/dc/dcmitype/StillImage" />
  </cc:Work>
</rdf:RDF>
</metadata>
  <image
     sodipodi:absref="/home/bcrowell/Documents/writing/books/purcell/ch01/figs/sphere-flux-shaded.jpg"
     xlink:href="sphere-flux-shaded.jpg"
     y="-0.023155492"
     x="0"
     id="image3183"
     height="182.42316"
     width="178.58267" />
  <path
     style="fill:#000000;stroke:none"
     inkscape:connector-curvature="0"
     id="path3115"
     d="m 125.28,22.776 c 0,0.12 0.144,0.264 0.288,0.312 0.192,0.072 0.336,0.792 0.384,2.064 0.12,2.304 -0.024,3.096 -0.624,3.24 -0.216,0.072 0.84,0.096 2.352,0.096 l 2.76,-0.048 0.072,-0.792 c 0.096,-0.912 -0.312,-1.032 -0.528,-0.168 -0.168,0.648 -0.864,0.936 -1.968,0.792 -0.672,-0.072 -0.696,-0.12 -0.696,-1.272 0,-1.08 0.048,-1.2 0.552,-1.272 0.408,-0.072 0.6,0.048 0.696,0.408 0.216,0.816 0.552,0.576 0.552,-0.408 0,-1.176 -0.168,-1.32 -0.744,-0.744 -0.72,0.72 -1.056,0.456 -1.056,-0.888 0,-0.648 -0.096,-1.248 -0.24,-1.344 -0.336,-0.264 -1.8,-0.24 -1.8,0.024 z" />
  <path
     style="fill:#000000;stroke:none"
     inkscape:connector-curvature="0"
     id="path3117"
     d="m 128.496,22.896 c 0.504,0.168 1.056,0.48 1.224,0.696 0.432,0.6 0.6,0.504 0.6,-0.312 0,-0.72 0,-0.72 -1.368,-0.696 l -1.392,0.024 0.936,0.288 z" />
  <path
     style="fill:#909090;fill-opacity:1;stroke:none"
     d="M 139.40625 68.46875 L 139.3125 68.59375 C 139.26839 68.648756 133.75559 75.500157 130.4375 81.75 L 130.125 82.21875 L 143.75 91.5625 L 143.78125 91.53125 C 143.78125 91.53125 150.25706 85.007856 154.21875 79.03125 L 154.15625 79.03125 L 154.28125 78.875 L 139.40625 68.46875 z "
     transform="matrix(0.80000001,0,0,0.80000001,0,-1.2469548e-6)"
     id="path3047" />
  <path
     style="fill:#000000;stroke:none"
     inkscape:connector-curvature="0"
     id="path3119"
     d="m 138.96,24.168 c -0.6,0.48 -1.128,0.96 -1.2,1.056 -0.36,0.432 -3.216,2.376 -3.504,2.376 -0.192,0 -0.336,0.096 -0.336,0.192 0,0.096 -0.336,0.384 -0.72,0.624 -0.984,0.576 -0.696,0.864 0.864,0.864 0.792,0 1.296,0.096 1.296,0.264 0,0.264 -1.536,2.52 -7.032,10.368 -1.68,2.4 -3.984,5.712 -5.112,7.368 -1.128,1.656 -2.376,3.432 -2.76,3.96 -0.384,0.528 -1.488,2.16 -2.496,3.624 -0.984,1.464 -2.016,2.856 -2.28,3.096 -0.264,0.24 -0.48,0.552 -0.504,0.696 0,0.144 -0.48,0.912 -1.056,1.704 -1.608,2.136 -1.944,2.904 -1.56,3.36 0.48,0.576 1.104,0.432 1.44,-0.36 0.168,-0.408 0.384,-0.72 0.504,-0.72 0.12,0 0.264,-0.264 0.36,-0.576 0.072,-0.336 0.336,-0.768 0.6,-1.008 0.24,-0.216 0.456,-0.528 0.456,-0.696 0,-0.144 0.264,-0.528 0.6,-0.84 0.336,-0.312 0.6,-0.648 0.6,-0.768 0,-0.12 0.432,-0.816 0.96,-1.584 0.528,-0.744 1.656,-2.4 2.52,-3.648 0.864,-1.248 2.328,-3.36 3.264,-4.68 0.936,-1.32 2.016,-2.904 2.424,-3.552 0.696,-1.056 1.416,-1.44 1.728,-0.912 0.072,0.12 -0.36,0.888 -1.008,1.704 -0.624,0.84 -1.416,1.944 -1.752,2.472 -0.36,0.504 -0.72,1.008 -0.84,1.104 -0.12,0.072 -0.36,0.408 -0.528,0.744 -0.168,0.336 -0.6,0.984 -0.96,1.464 -0.36,0.48 -1.68,2.304 -2.928,4.032 -1.248,1.752 -2.52,3.504 -2.832,3.936 -0.312,0.432 -0.768,0.984 -1.032,1.272 -0.24,0.264 -0.456,0.6 -0.456,0.72 0,0.144 -0.192,0.456 -0.432,0.72 -0.768,0.84 -1.296,1.8 -1.152,2.136 0.072,0.192 0.336,0.432 0.576,0.576 0.408,0.216 0.6,0.048 1.464,-1.248 0.528,-0.816 1.464,-2.136 2.064,-2.928 0.576,-0.792 1.056,-1.56 1.056,-1.704 0.024,-0.144 0.192,-0.408 0.384,-0.576 0.192,-0.168 0.984,-1.176 1.728,-2.256 0.744,-1.056 1.512,-2.088 1.68,-2.256 0.168,-0.168 0.312,-0.408 0.312,-0.504 0,-0.096 0.192,-0.408 0.432,-0.696 0.216,-0.264 0.84,-1.104 1.368,-1.848 0.528,-0.744 1.584,-2.184 2.328,-3.192 0.744,-1.032 1.512,-2.064 1.704,-2.304 0.312,-0.456 0.336,-0.432 0.6,0.288 0.24,0.72 0.24,0.768 -0.336,0.768 -0.312,0 -0.576,0.096 -0.576,0.216 0,0.096 0.84,0.888 1.872,1.728 2.256,1.872 7.824,7.392 9.816,9.72 1.92,2.28 4.608,6.072 6.384,9.048 4.008,6.792 6.816,13.608 8.544,20.808 0.432,1.872 0.6,2.712 1.224,6.48 0.84,5.064 0.912,14.712 0.144,20.64 -1.008,7.704 -4.08,17.52 -7.32,23.496 -0.672,1.248 -1.224,2.304 -1.224,2.376 0,0.192 -3.576,5.784 -3.864,6.048 -0.072,0.072 -0.6,0.816 -1.2,1.68 -0.576,0.864 -1.176,1.656 -1.344,1.8 -0.144,0.12 -0.648,0.72 -1.08,1.32 -2.136,2.832 -7.128,7.824 -10.08,10.08 -0.264,0.192 -0.816,0.648 -1.248,0.984 -2.52,2.112 -9.528,6.408 -12.624,7.752 -0.864,0.384 -2.376,1.056 -3.36,1.512 -5.352,2.472 -13.896,4.68 -20.04,5.232 -1.056,0.096 -2.136,0.216 -2.4,0.288 -0.264,0.048 -2.856,0.096 -5.76,0.096 -5.064,0.024 -11.976,-0.576 -14.16,-1.224 -0.384,-0.096 -1.128,-0.264 -1.656,-0.36 -1.968,-0.336 -10.368,-2.952 -12.264,-3.84 -3.888,-1.8 -7.968,-3.84 -8.232,-4.104 -0.168,-0.192 -0.48,-0.336 -0.648,-0.336 -0.168,0 -0.48,-0.144 -0.648,-0.312 -0.168,-0.168 -1.32,-0.936 -2.544,-1.704 -1.224,-0.768 -2.352,-1.536 -2.52,-1.68 -0.168,-0.144 -0.672,-0.552 -1.128,-0.864 -2.424,-1.68 -4.704,-3.696 -8.112,-7.2 -9.624,-9.792 -16.368,-22.176 -19.32,-35.52 -2.496,-11.232 -2.28,-23.136 0.648,-34.608 0.696,-2.736 1.32,-4.608 3.312,-9.792 0.72,-1.896 4.128,-8.52 5.304,-10.272 0.312,-0.48 0.888,-1.368 1.272,-1.968 3.432,-5.28 8.064,-10.344 13.896,-15.24 5.232,-4.392 12.456,-8.832 17.76,-10.92 0.792,-0.312 1.56,-0.648 1.68,-0.72 0.552,-0.408 7.968,-2.688 10.848,-3.336 6.768,-1.56 13.776,-2.184 19.824,-1.752 5.424,0.408 11.256,1.368 15.528,2.616 2.808,0.816 5.88,1.872 7.32,2.472 0.264,0.12 1.176,0.504 2.04,0.864 2.184,0.864 5.928,2.808 8.688,4.488 1.296,0.768 2.448,1.32 2.592,1.248 0.408,-0.24 0.096,-0.504 -1.992,-1.776 C 102.696,30.144 79.104,28.224 57.24,36.96 46.896,41.088 36.144,48.888 28.944,57.504 18.648,69.84 12.912,84.312 11.76,100.92 c -0.84,11.736 2.088,25.896 7.608,36.96 9.216,18.456 25.464,32.184 45,38.04 6.864,2.04 13.224,2.952 20.952,2.952 6.072,0 9.288,-0.312 15.12,-1.536 6.216,-1.272 11.16,-3.024 17.328,-6.096 4.512,-2.232 7.68,-4.176 11.376,-6.984 3.216,-2.424 3.768,-2.928 7.656,-6.816 12,-11.976 19.128,-27.144 21.024,-44.64 0.72,-6.768 0.264,-15.912 -1.128,-22.32 -3.624,-16.584 -11.64,-30.288 -24,-40.968 -1.392,-1.2 -2.136,-2.016 -2.136,-2.328 0,-0.84 0.888,-4.224 1.56,-6 0.912,-2.4 0.768,-2.544 -1.128,-1.104 -0.912,0.672 -1.632,1.104 -1.632,0.936 0,-0.144 1.2,-2.016 2.688,-4.128 1.464,-2.136 3.048,-4.464 3.528,-5.136 0.48,-0.696 0.96,-1.272 1.056,-1.272 0.12,0 0.384,0.432 0.576,0.96 0.216,0.528 0.456,0.96 0.528,0.96 0.096,0 0.528,-1.44 0.96,-3.192 0.456,-1.728 0.96,-3.624 1.152,-4.2 0.552,-1.68 0.336,-1.896 -0.888,-0.84 z" />
  <path
     style="fill:#000000;stroke:none"
     inkscape:connector-curvature="0"
     id="path3121"
     d="m 134.472,43.728 c -0.312,0.144 -0.552,0.456 -0.552,0.72 0,0.624 0.672,0.528 0.768,-0.12 0.048,-0.336 0.24,-0.528 0.552,-0.528 0.36,0 0.48,0.168 0.48,0.696 0,0.576 -0.144,0.744 -0.72,0.936 -0.96,0.312 -1.32,0.624 -1.32,1.128 0,0.744 0.624,1.056 1.44,0.72 0.552,-0.216 0.792,-0.24 1.056,-0.024 0.168,0.144 0.504,0.216 0.72,0.12 0.432,-0.168 0.528,-0.576 0.144,-0.576 -0.12,0 -0.24,-0.552 -0.24,-1.2 0,-1.824 -0.936,-2.544 -2.328,-1.872 z m 1.368,2.448 c 0,0.576 -0.552,0.984 -0.984,0.72 -0.24,-0.144 -0.288,-0.912 -0.048,-1.128 0.072,-0.096 0.36,-0.168 0.6,-0.168 0.288,0 0.432,0.168 0.432,0.576 z" />
  <path
     style="fill:#000000;stroke:none"
     inkscape:connector-curvature="0"
     id="path3123"
     d="m 109.056,68.448 c -0.336,0.576 -0.792,1.296 -0.984,1.584 -0.408,0.648 -0.24,0.96 0.264,0.528 0.528,-0.432 1.824,-2.424 1.824,-2.808 0,-0.6 -0.48,-0.312 -1.104,0.696 z" />
  <path
     style="fill:#000000;stroke:none"
     inkscape:connector-curvature="0"
     id="path3125"
     d="m 106.392,72.768 c -0.984,1.128 -1.944,2.784 -1.752,3.072 0.12,0.216 0.6,-0.312 1.416,-1.536 0.672,-1.032 1.224,-1.896 1.224,-1.968 0,-0.264 -0.456,-0.048 -0.888,0.432 z" />
  <path
     style="fill:#000000;stroke:none"
     inkscape:connector-curvature="0"
     id="path3127"
     d="m 102.576,78.264 c -1.632,2.328 -1.776,2.616 -1.32,2.616 0.288,0 2.424,-2.952 2.424,-3.336 0,-0.528 -0.432,-0.24 -1.104,0.72 z" />
  <path
     style="fill:#000000;stroke:none"
     inkscape:connector-curvature="0"
     id="path3129"
     d="m 99.12,83.352 c -1.368,2.016 -1.512,2.328 -1.128,2.328 0.288,0 2.568,-3.096 2.568,-3.48 0,-0.072 -0.144,-0.12 -0.288,-0.12 -0.168,0 -0.696,0.576 -1.152,1.272 z" />
  <path
     style="fill:#000000;stroke:none"
     inkscape:connector-curvature="0"
     id="path3131"
     d="m 95.424,88.728 c -0.744,1.032 -1.344,1.944 -1.344,2.04 0,0.48 0.648,0.12 1.032,-0.528 0.24,-0.384 0.816,-1.2 1.248,-1.8 0.456,-0.6 0.84,-1.2 0.84,-1.32 0,-0.6 -0.576,-0.096 -1.776,1.608 z" />
  <path
     style="fill:#000000;stroke:none"
     inkscape:connector-curvature="0"
     id="path3133"
     d="m 92.736,92.688 c -0.72,0.792 -2.016,2.76 -2.016,3.048 0,0.6 0.768,-0.144 1.68,-1.584 1.008,-1.632 1.2,-2.424 0.336,-1.464 z" />
  <path
     style="fill:#000000;stroke:none"
     inkscape:connector-curvature="0"
     id="path3135"
     d="m 150.72,97.176 c 0,0.144 0.336,0.432 0.744,0.624 0.408,0.216 0.696,0.456 0.624,0.504 -0.12,0.12 -1.128,0.288 -1.896,0.312 -0.864,0.048 -0.384,0.48 0.6,0.552 l 1.008,0.072 -0.648,0.336 c -0.744,0.384 -0.936,0.888 -0.24,0.648 4.08,-1.368 5.064,-1.752 5.016,-1.944 -0.048,-0.144 -0.408,-0.264 -0.792,-0.312 -0.72,-0.072 -3.48,-0.696 -4.08,-0.936 -0.192,-0.072 -0.336,0 -0.336,0.144 z" />
  <path
     style="fill:#000000;stroke:none"
     inkscape:connector-curvature="0"
     id="path3137"
     d="m 88.464,98.76 c -1.152,1.632 -1.56,2.856 -0.648,1.92 0.6,-0.648 2.184,-3 2.184,-3.264 0,-0.552 -0.528,-0.072 -1.536,1.344 z" />
  <path
     style="fill:#000000;stroke:none"
     inkscape:connector-curvature="0"
     id="path3139"
     d="m 148.032,98.76 c -0.048,0.048 -0.672,0.144 -1.392,0.192 -0.768,0.072 -1.344,0.216 -1.392,0.408 -0.096,0.24 0.24,0.288 1.512,0.168 1.656,-0.168 2.376,-0.456 1.728,-0.72 -0.192,-0.072 -0.408,-0.096 -0.456,-0.048 z" />
  <path
     style="fill:#000000;stroke:none"
     inkscape:connector-curvature="0"
     id="path3141"
     d="m 143.496,99.216 c -0.048,0.072 -0.672,0.144 -1.368,0.168 -1.296,0.072 -1.824,0.336 -1.152,0.6 0.552,0.216 3.144,-0.216 3.096,-0.504 -0.072,-0.264 -0.408,-0.432 -0.576,-0.264 z" />
  <path
     style="fill:#000000;stroke:none"
     inkscape:connector-curvature="0"
     id="path3143"
     d="m 137.64,99.768 c -1.296,0.144 -1.872,0.336 -1.656,0.552 0.264,0.264 3.696,0 3.696,-0.264 0,-0.12 -0.072,-0.24 -0.168,-0.24 -0.504,-0.096 -1.224,-0.096 -1.872,-0.048 z" />
  <path
     style="fill:#000000;stroke:none"
     inkscape:connector-curvature="0"
     id="path3147"
     d="m 133.416,100.176 c -0.048,0.048 -0.672,0.144 -1.392,0.192 -1.296,0.096 -2.064,0.672 -0.912,0.672 1.464,0 3.528,-0.336 3.456,-0.552 -0.072,-0.24 -0.984,-0.48 -1.152,-0.312 z" />
  <path
     style="fill:#000000;stroke:none"
     inkscape:connector-curvature="0"
     id="path3149"
     d="m 127.104,100.8 c -0.72,0.072 -1.224,0.264 -1.296,0.456 -0.096,0.264 0.192,0.288 1.512,0.168 1.368,-0.12 2.712,-0.504 2.28,-0.648 -0.312,-0.096 -1.416,-0.096 -2.496,0.024 z" />
  <path
     style="fill:#000000;stroke:none"
     inkscape:connector-curvature="0"
     id="path3151"
     d="m 122.952,101.232 c -0.864,0.12 -0.648,0.528 0.264,0.528 0.936,0 1.584,-0.192 1.584,-0.48 0,-0.216 -0.792,-0.216 -1.848,-0.048 z" />
  <path
     style="fill:#000000;stroke:none"
     inkscape:connector-curvature="0"
     id="path3153"
     d="m 85.656,103.08 c -0.36,0.6 -0.672,0.84 -1.08,0.84 -1.656,0 -2.088,2.712 -0.456,2.88 0.84,0.096 1.08,0 1.608,-0.6 0.288,-0.336 0.768,-0.6 1.056,-0.6 0.312,0 0.624,-0.12 0.696,-0.24 0.096,-0.144 -0.192,-0.24 -0.72,-0.24 -1.152,0 -1.272,-0.432 -0.48,-1.776 0.528,-0.912 0.576,-1.104 0.264,-1.104 -0.216,0 -0.624,0.384 -0.888,0.84 z" />
  <path
     style="fill:#000000;stroke:none"
     inkscape:connector-curvature="0"
     id="path3155"
     d="m 112.512,102.408 c -0.384,0.048 -0.672,0.216 -0.672,0.36 0,0.264 1.92,0.024 2.28,-0.312 0.216,-0.216 -0.36,-0.24 -1.608,-0.048 z" />
  <path
     style="fill:#000000;stroke:none"
     inkscape:connector-curvature="0"
     id="path3161"
     d="m 107.4,102.888 c -0.384,0.072 -0.816,0.216 -0.96,0.36 -0.312,0.312 3.504,0 3.84,-0.312 0.216,-0.216 -1.464,-0.24 -2.88,-0.048 z" />
  <path
     style="fill:#000000;stroke:none"
     inkscape:connector-curvature="0"
     id="path3163"
     d="m 102.552,103.416 c -1.368,0.24 -1.584,0.504 -0.408,0.504 1.344,0 2.736,-0.264 2.736,-0.504 0,-0.24 -0.84,-0.24 -2.328,0 z" />
  <path
     style="fill:#000000;stroke:none"
     inkscape:connector-curvature="0"
     id="path3165"
     d="m 97.728,103.92 c -1.152,0.264 -1.224,0.48 -0.144,0.48 1.344,0 2.736,-0.264 2.736,-0.504 0,-0.264 -1.488,-0.24 -2.592,0.024 z" />
  <path
     style="fill:#000000;stroke:none"
     inkscape:connector-curvature="0"
     id="path3167"
     d="m 93.432,104.376 c -0.576,0.096 -1.104,0.264 -1.2,0.36 -0.264,0.288 3.36,-0.072 3.648,-0.36 0.24,-0.24 -0.888,-0.24 -2.448,0 z" />
  <path
     style="fill:#000000;stroke:none"
     inkscape:connector-curvature="0"
     id="path3169"
     d="m 89.16,104.856 c -0.48,0.096 -0.624,0.216 -0.408,0.336 0.36,0.24 2.448,-0.048 2.448,-0.336 0,-0.24 -0.936,-0.24 -2.04,0 z" />
  <text
     xml:space="preserve"
     style="font-size:9.04000012000000019px;font-style:italic;font-weight:bold;line-height:125%;letter-spacing:0px;word-spacing:0px;fill:#000000;fill-opacity:1;stroke:none;font-family:Liberation Serif;-inkscape-font-specification:Liberation Serif Bold Italic;font-stretch:normal;font-variant:normal"
     x="77.225197"
     y="107.09761"
     id="text3039"
     sodipodi:linespacing="125%"><tspan
       sodipodi:role="line"
       id="tspan3041"
       x="77.225197"
       y="107.09761">q</tspan></text>
  <text
     xml:space="preserve"
     style="font-size:9.04000012000000019px;font-style:italic;font-weight:bold;line-height:125%;letter-spacing:0px;word-spacing:0px;fill:#000000;fill-opacity:1;stroke:none;font-family:Liberation Serif;-inkscape-font-specification:Liberation Serif Bold Italic;font-stretch:normal;font-variant:normal"
     x="116.35204"
     y="104.05689"
     id="text3043"
     sodipodi:linespacing="125%"><tspan
       sodipodi:role="line"
       id="tspan3045"
       x="116.35204"
       y="104.05689">r</tspan></text>
  <rect
     style="fill:#ffffff;fill-opacity:1;stroke:none"
     id="rect3012"
     width="8.4333086"
     height="9.4527197"
     x="155.46017"
     y="27.129704"
     transform="matrix(0.80000001,0,0,0.80000001,0,-1.2469548e-6)" />
  <text
     xml:space="preserve"
     style="font-size:8.64000034px;font-style:normal;font-variant:normal;font-weight:bold;font-stretch:normal;text-indent:0;text-align:start;text-decoration:none;line-height:125%;letter-spacing:0px;word-spacing:0px;text-transform:none;direction:ltr;block-progression:tb;writing-mode:lr-tb;text-anchor:start;baseline-shift:baseline;color:#000000;fill:#000000;fill-opacity:1;fill-rule:nonzero;stroke:none;stroke-width:0.99999994px;marker:none;visibility:visible;display:inline;overflow:visible;enable-background:accumulate;font-family:Linux Libertine O;-inkscape-font-specification:Linux Libertine O Bold"
     x="126.91393"
     y="27.524031"
     id="text3782"
     sodipodi:linespacing="125%"><tspan
       sodipodi:role="line"
       id="tspan3784"
       x="126.91393"
       y="27.524031">E</tspan></text>
</svg>
