<?xml version="1.0" encoding="UTF-8" standalone="no"?>
<svg
   xmlns:dc="http://purl.org/dc/elements/1.1/"
   xmlns:cc="http://creativecommons.org/ns#"
   xmlns:rdf="http://www.w3.org/1999/02/22-rdf-syntax-ns#"
   xmlns:svg="http://www.w3.org/2000/svg"
   xmlns="http://www.w3.org/2000/svg"
   xmlns:sodipodi="http://sodipodi.sourceforge.net/DTD/sodipodi-0.dtd"
   xmlns:inkscape="http://www.inkscape.org/namespaces/inkscape"
   version="1.0"
   width="396.960000pt"
   height="335.520000pt"
   viewBox="0 0 396.960000 335.520000"
   preserveAspectRatio="xMidYMid meet"
   id="svg2989"
   inkscape:version="0.48.4 r9939"
   sodipodi:docname="black.svg">
  <defs
     id="defs3051" />
  <sodipodi:namedview
     pagecolor="#ffffff"
     bordercolor="#666666"
     borderopacity="1"
     objecttolerance="10"
     gridtolerance="10"
     guidetolerance="10"
     inkscape:pageopacity="0"
     inkscape:pageshadow="2"
     inkscape:window-width="1280"
     inkscape:window-height="996"
     id="namedview3049"
     showgrid="false"
     inkscape:zoom="1.679502"
     inkscape:cx="243.46525"
     inkscape:cy="201.70296"
     inkscape:window-x="0"
     inkscape:window-y="0"
     inkscape:window-maximized="1"
     inkscape:current-layer="svg2989" />
  <metadata
     id="metadata2991">
Created by potrace 1.10, written by Peter Selinger 2001-2011
<rdf:RDF>
  <cc:Work
     rdf:about="">
    <dc:format>image/svg+xml</dc:format>
    <dc:type
       rdf:resource="http://purl.org/dc/dcmitype/StillImage" />
    <dc:title></dc:title>
  </cc:Work>
</rdf:RDF>
</metadata>
  <g
     style="fill:#b9b9b9;stroke:none"
     transform="matrix(0.024,0,0,-0.024,0,335.52)"
     id="g6">
    <path
       inkscape:connector-curvature="0"
       d="M 0,6990 0,0 l 8270,0 8270,0 0,6990 0,6990 -8270,0 -8270,0 0,-6990 z m 6309,5792 c 5,-20 13,-62 16,-93 5,-44 4,-58 -9,-68 -11,-9 -16,-30 -16,-63 0,-72 -24,-59 -28,15 -2,32 -8,57 -14,57 -11,0 -6,56 15,147 13,58 22,59 36,5 z m -1334,-169 c 14,-27 36,-67 49,-90 14,-24 20,-45 15,-49 -5,-3 -9,-14 -9,-25 0,-26 -14,-24 -45,7 -19,19 -28,42 -35,92 -11,74 -12,112 -5,112 2,0 16,-21 30,-47 z m 3535,-215 c -11,-29 -25,-61 -30,-70 -6,-10 -10,-23 -10,-30 0,-6 -20,-31 -45,-55 -36,-34 -47,-40 -52,-27 -3,8 0,26 7,40 10,18 11,27 2,36 -8,8 -6,17 11,32 12,12 42,45 67,74 59,69 76,69 50,0 z m -4751,-73 c 32,-19 65,-135 43,-149 -12,-7 -72,53 -72,73 0,9 -4,21 -9,27 -9,10 -31,93 -31,120 0,11 11,2 29,-24 16,-22 35,-43 40,-47 z m 6294,-531 c 8,-8 -126,-144 -143,-144 -6,0 -25,-10 -42,-21 -24,-18 -32,-19 -39,-8 -5,9 1,19 21,32 17,11 30,27 30,37 0,9 19,30 43,45 23,16 53,36 67,46 26,18 52,24 63,13 z m 2177,-46 c 0,-7 -20,-22 -43,-32 -23,-11 -46,-26 -52,-33 -18,-23 -83,-51 -110,-46 -29,6 -29,6 -11,41 12,24 26,30 98,46 46,9 90,21 98,26 20,12 20,12 20,-2 z m -6787,-551 c 24,-48 40,-90 36,-93 -5,-3 -8,-19 -6,-36 3,-38 -20,-49 -29,-14 -4,15 -13,26 -23,26 -15,0 -19,16 -27,101 -8,87 -7,116 2,107 1,-2 22,-42 47,-91 z m 1442,-14 c -4,-69 -10,-101 -20,-109 -8,-6 -15,-21 -15,-33 0,-11 -6,-21 -14,-21 -17,0 -31,110 -18,137 6,10 20,42 33,71 12,28 26,52 31,52 5,0 6,-44 3,-97 z m -4373,45 c 52,-27 118,-94 118,-119 0,-11 4,-19 9,-19 14,0 20,-25 11,-41 -7,-11 -12,-11 -27,2 -10,8 -30,20 -45,27 -16,6 -28,17 -28,23 0,7 -11,27 -25,45 -14,18 -25,37 -25,42 0,5 -9,17 -20,27 -18,17 -26,35 -15,35 2,0 23,-10 47,-22 z m 5932,-124 c -8,-27 -19,-58 -24,-69 -4,-11 -11,-28 -14,-38 -3,-11 -15,-21 -26,-24 -11,-3 -22,-15 -26,-27 -4,-11 -12,-24 -18,-28 -16,-10 -26,13 -15,35 6,10 9,31 7,47 -2,24 7,39 43,77 26,27 52,59 59,72 21,41 31,9 14,-45 z m 6521,-185 c -22,-12 -47,-27 -56,-35 -8,-8 -23,-14 -33,-14 -9,0 -25,-4 -34,-8 -22,-11 -80,9 -75,26 3,6 13,12 24,12 10,0 19,6 19,14 0,21 15,24 110,25 l 85,1 -40,-21 z m -10955,-12 c 0,-7 21,-33 46,-57 46,-45 67,-82 78,-132 3,-16 9,-39 12,-53 9,-36 -11,-31 -35,9 -12,19 -33,41 -46,50 -14,9 -25,25 -25,36 0,11 -3,20 -8,20 -4,0 -13,21 -19,48 -7,26 -15,57 -19,70 -4,13 -2,22 5,22 6,0 11,-6 11,-13 z m 6820,5 c 0,-5 -24,-24 -52,-43 -77,-50 -98,-60 -108,-54 -5,3 -27,1 -47,-4 -47,-13 -65,2 -23,19 17,7 37,21 44,32 23,32 186,76 186,50 z m 2154,-278 c 22,-9 10,-24 -20,-24 -13,0 -24,-3 -24,-8 0,-13 -108,-33 -145,-26 -41,7 -42,10 -13,41 19,20 31,23 104,23 45,0 89,-3 98,-6 z m -3694,-259 c -48,-49 -66,-61 -85,-57 -15,2 -36,-5 -55,-18 -17,-12 -34,-20 -37,-17 -10,11 7,39 26,44 11,3 25,18 31,34 9,20 23,32 49,39 20,6 56,21 81,33 25,13 47,19 49,14 2,-5 -24,-37 -59,-72 z m -786,-242 c -4,-16 -13,-35 -20,-44 -8,-8 -14,-24 -14,-33 0,-24 -31,-76 -46,-76 -16,0 -64,-43 -64,-57 0,-7 -9,-17 -20,-23 -16,-8 -20,-8 -20,3 0,8 7,20 15,27 8,7 15,23 15,36 0,13 4,24 9,24 5,0 12,13 16,30 4,16 20,41 36,54 16,14 29,28 29,33 0,7 59,53 68,53 1,0 -1,-12 -4,-27 z M 5327,9965 c 14,-22 29,-42 32,-45 17,-13 28,-57 20,-73 -7,-12 0,-37 26,-90 38,-79 46,-131 20,-121 -8,4 -18,18 -21,33 -4,14 -10,31 -14,36 -4,6 -15,32 -25,58 -12,32 -26,52 -42,58 -13,5 -23,17 -23,28 0,11 -4,30 -9,43 -15,40 -29,92 -36,133 l -6,40 26,-30 c 14,-16 37,-48 52,-70 z M 2990,9840 c 14,-11 31,-20 38,-20 6,0 20,-8 30,-18 9,-9 32,-28 50,-40 17,-13 32,-31 32,-41 0,-9 9,-27 21,-39 11,-13 19,-30 17,-38 -2,-13 -9,-11 -33,10 -16,14 -38,29 -49,32 -22,7 -77,67 -91,100 -6,12 -21,35 -35,49 -28,30 -16,33 20,5 z m 7130,-30 c 0,-5 -12,-16 -28,-24 -15,-8 -52,-31 -82,-51 -43,-28 -62,-35 -84,-30 -38,7 -38,7 -23,38 14,31 19,33 107,57 77,21 110,24 110,10 z M 1505,9702 c 11,-3 22,-8 25,-12 9,-12 73,-40 92,-40 12,0 18,-7 18,-23 0,-17 10,-29 35,-43 34,-18 47,-44 23,-44 -7,0 -28,9 -47,21 -18,11 -40,18 -48,14 -10,-3 -37,17 -76,55 -34,33 -65,60 -69,60 -4,0 -8,7 -8,16 0,11 5,14 18,9 9,-4 26,-10 37,-13 z m 5680,-238 c -4,-32 -15,-60 -30,-78 -14,-16 -28,-45 -31,-65 -12,-64 -23,-85 -38,-72 -11,9 -12,20 -4,49 5,20 13,54 19,75 5,21 7,43 3,48 -3,5 14,50 38,98 l 43,89 3,-47 c 2,-25 1,-69 -3,-97 z m -2996,29 c 53,-50 83,-73 128,-100 31,-18 41,-29 34,-36 -19,-19 -12,-44 19,-74 33,-30 60,-76 60,-101 0,-18 -97,75 -106,101 -3,11 -16,17 -35,17 -18,0 -29,5 -29,14 0,7 -9,25 -20,39 -11,14 -20,31 -20,38 0,7 -6,20 -14,28 -14,16 -56,88 -56,96 0,10 10,4 39,-22 z m 7954,-19 c 52,-13 98,-34 75,-34 -4,0 -41,-5 -83,-11 -70,-9 -79,-8 -120,12 -55,27 -61,50 -11,42 20,-3 36,-1 41,7 4,6 13,9 21,6 8,-3 43,-13 77,-22 z m -5868,-46 c 10,-35 21,-67 24,-73 3,-5 7,-47 8,-92 2,-96 -15,-113 -36,-36 -6,26 -18,55 -26,63 -16,18 -19,40 -17,133 2,88 22,90 47,5 z m 8127,-8 c 33,0 98,-19 98,-29 0,-9 -95,-24 -145,-23 -46,0 -110,16 -110,27 0,6 17,11 37,13 20,2 42,10 48,17 9,11 17,12 30,5 10,-6 29,-10 42,-10 z m -6813,-72 c -10,-91 -18,-128 -29,-128 -11,0 -40,-58 -40,-80 0,-9 -9,-25 -20,-35 -18,-16 -20,-16 -26,-1 -3,9 1,34 10,56 19,48 21,80 4,80 -9,0 -10,2 -2,8 12,7 35,48 73,130 11,23 24,42 29,42 4,0 5,-32 1,-72 z m 3091,-483 c 50,-11 53,-13 28,-20 -16,-4 -28,-10 -28,-14 0,-7 -80,-15 -125,-13 -139,8 -219,18 -223,30 -4,14 -10,13 97,15 58,1 86,6 89,15 4,14 65,9 162,-13 z M 8580,8705 c 0,-8 -8,-22 -19,-32 -10,-10 -26,-35 -36,-55 -9,-21 -21,-38 -26,-38 -5,0 -9,-11 -9,-25 0,-19 -5,-25 -23,-25 -12,0 -31,-10 -42,-22 -114,-134 -201,-201 -125,-96 17,22 30,45 30,50 0,4 20,29 45,55 25,25 45,52 45,59 0,27 124,144 152,144 5,0 8,-7 8,-15 z m -5233,-91 c 12,-8 29,-14 36,-14 8,0 22,-9 31,-19 10,-11 29,-22 43,-26 33,-8 50,-26 55,-56 2,-16 16,-31 44,-45 23,-11 54,-32 69,-47 24,-21 26,-28 16,-41 -15,-18 -39,-11 -67,21 -19,22 -107,73 -126,73 -12,0 -168,159 -168,171 0,12 35,3 67,-17 z m 3361,-96 c 35,-107 43,-161 27,-178 -11,-12 -13,-41 -8,-133 5,-100 4,-117 -9,-117 -20,0 -28,42 -28,140 0,60 -4,83 -18,100 -15,19 -17,33 -9,123 12,151 16,157 45,65 z m 2771,-25 c -19,-25 -63,-63 -71,-63 -4,0 -9,-8 -12,-17 -7,-21 -52,-44 -71,-36 -8,3 -30,-4 -48,-16 -39,-24 -47,-26 -47,-10 0,14 47,59 61,59 5,0 9,7 9,15 0,20 125,77 184,84 5,1 2,-7 -5,-16 z M 5605,8388 c 4,-10 10,-18 15,-18 5,0 11,-8 14,-18 4,-10 21,-33 40,-52 21,-21 31,-41 28,-52 -4,-16 15,-71 38,-108 6,-8 19,-32 30,-52 11,-21 25,-38 30,-38 6,0 10,-7 10,-15 0,-8 5,-24 12,-35 7,-10 9,-23 4,-27 -11,-11 -49,38 -97,125 -22,39 -45,72 -50,72 -5,0 -9,6 -9,13 0,6 -14,20 -30,29 -17,9 -30,23 -30,31 0,7 -11,40 -24,73 -13,32 -26,74 -29,92 l -7,33 25,-18 c 13,-10 27,-26 30,-35 z m 7004,-8 c 21,0 166,-128 156,-138 -5,-5 -24,2 -106,44 -26,13 -54,24 -63,24 -9,0 -21,12 -27,27 -5,15 -19,33 -30,41 -29,20 -13,34 21,17 16,-8 38,-15 49,-15 z M 2200,8350 c 34,-11 68,-20 74,-20 7,0 30,-18 51,-40 28,-29 36,-43 28,-51 -8,-8 -16,-8 -31,0 -11,6 -37,11 -58,11 -31,0 -43,7 -76,44 -21,25 -48,46 -60,48 -28,4 -36,28 -10,28 11,0 48,-9 82,-20 z M 944,8281 c 3,-4 32,-14 64,-21 70,-14 74,-17 90,-53 13,-30 13,-30 -39,-41 -17,-4 -31,-1 -39,9 -6,8 -31,23 -54,35 -50,24 -81,54 -71,69 7,13 42,15 49,2 z m 4028,-273 c 22,-21 49,-40 59,-43 13,-4 19,-16 19,-34 0,-21 19,-46 85,-110 46,-46 82,-87 79,-92 -12,-19 -32,-6 -85,52 -87,99 -101,111 -126,106 -19,-3 -28,4 -45,34 -12,22 -25,39 -30,39 -4,0 -14,15 -22,34 -8,19 -26,45 -40,57 -14,12 -23,26 -20,30 7,12 77,-29 126,-73 z m 3829,11 c -23,-23 -41,-44 -41,-48 0,-18 -61,-71 -83,-71 -15,0 -37,-14 -59,-38 -36,-39 -93,-70 -105,-58 -7,7 81,95 123,122 13,9 24,25 24,35 0,13 22,29 73,54 39,20 79,43 87,51 9,9 16,10 18,4 2,-6 -15,-29 -37,-51 z m 1438,-50 c 65,-17 88,-19 102,-11 13,8 20,8 25,1 3,-6 15,-9 25,-6 11,3 19,2 19,-3 0,-4 15,-13 33,-20 113,-44 114,-50 5,-50 -65,0 -91,5 -132,24 -28,13 -103,36 -166,51 -127,30 -160,43 -140,55 13,8 105,-8 229,-41 z m 1769,-264 c 35,-32 61,-60 58,-62 -3,-3 -38,5 -78,17 -54,17 -82,32 -106,58 -34,38 -33,48 8,54 34,5 45,-1 118,-67 z m -4624,13 c -3,-29 -10,-69 -15,-88 -5,-19 -9,-53 -9,-75 0,-46 -8,-61 -33,-66 -19,-4 -57,-93 -57,-131 0,-10 -4,-18 -10,-18 -5,0 -10,-13 -10,-30 0,-16 -4,-30 -10,-30 -5,0 -10,-7 -10,-15 0,-22 -43,-169 -52,-175 -3,-3 -10,-18 -13,-33 -8,-29 -15,-33 -31,-17 -10,10 2,68 26,125 5,11 13,36 19,55 5,19 26,81 45,138 37,104 44,156 26,167 -8,5 -7,11 1,21 6,7 9,21 5,29 -3,8 -1,15 5,15 5,0 18,17 27,38 10,22 25,47 35,56 9,10 17,26 17,37 0,23 19,48 38,49 9,0 11,-13 6,-52 z m 2351,-8 c 3,-6 -2,-13 -12,-16 -10,-3 -36,-14 -58,-24 -79,-35 -94,-39 -127,-34 -18,3 -61,-1 -94,-10 -34,-9 -76,-16 -93,-16 -54,0 -33,33 29,44 84,16 135,31 142,41 4,5 42,13 85,16 43,3 88,6 100,7 12,1 25,-3 28,-8 z m -6881,-57 c 72,-14 93,-22 115,-46 14,-16 46,-38 71,-49 99,-44 134,-64 138,-77 6,-18 -80,-4 -91,14 -12,21 -104,48 -141,41 -26,-5 -37,-2 -57,20 -13,14 -38,32 -55,40 -47,22 -109,81 -93,86 8,3 16,1 19,-3 4,-5 46,-16 94,-26 z m 12926,-29 c 20,-5 8,-11 -58,-30 -61,-18 -88,-21 -102,-14 -10,5 -37,10 -59,10 -21,0 -46,3 -55,6 -29,11 -5,24 43,24 28,0 53,6 60,13 8,11 26,12 78,5 38,-5 79,-11 93,-14 z m -5303,-176 c 6,-7 13,-30 17,-51 4,-20 17,-46 29,-57 15,-14 24,-39 29,-83 5,-34 11,-80 15,-102 5,-36 4,-38 -11,-26 -9,8 -28,39 -42,70 -14,31 -31,59 -36,62 -6,4 -10,30 -9,59 0,30 -6,67 -15,86 -21,43 -3,75 23,42 z m -2707,-91 c 0,-18 -47,-165 -65,-205 -14,-29 -25,-56 -25,-61 0,-5 -13,-11 -28,-14 -20,-4 -34,-17 -47,-45 -11,-22 -35,-69 -52,-105 -18,-36 -44,-82 -58,-103 -13,-20 -36,-60 -51,-90 -23,-46 -28,-52 -44,-42 -14,9 -16,15 -7,30 7,10 15,18 19,18 5,0 8,10 8,23 0,12 9,30 20,40 11,9 20,24 20,34 0,9 6,24 14,32 8,9 40,65 71,125 38,74 55,117 51,131 -4,16 9,45 46,101 29,44 58,83 66,88 8,4 21,17 30,27 14,16 32,25 32,16 z M 6527,7152 c 7,-7 13,-17 13,-21 0,-5 13,-24 30,-42 16,-19 30,-39 30,-45 0,-6 9,-22 20,-36 13,-18 16,-28 8,-36 -12,-12 -2,-82 12,-82 6,0 10,-6 10,-14 0,-8 18,-54 40,-101 22,-47 40,-88 40,-91 0,-7 39,-95 71,-159 30,-61 37,-95 19,-95 -10,0 -36,51 -75,145 -9,22 -28,61 -41,87 -13,26 -24,54 -24,63 0,8 -4,15 -9,15 -5,0 -17,24 -27,53 -29,90 -64,144 -94,151 -20,4 -29,12 -33,33 -17,92 -40,179 -48,188 -5,5 -9,25 -9,44 l 0,36 27,-40 c 15,-22 33,-46 40,-53 z m -2193,48 c 17,-5 63,-19 103,-30 59,-17 72,-24 75,-43 2,-16 9,-22 26,-21 12,0 22,-5 22,-12 0,-6 15,-15 34,-18 19,-4 39,-13 46,-21 7,-8 17,-15 23,-15 15,0 100,-42 115,-57 7,-7 18,-13 23,-13 11,0 12,-27 2,-33 -13,-8 -203,81 -203,94 0,5 -11,9 -25,9 -14,0 -28,7 -31,15 -7,18 -64,20 -64,3 0,-10 -2,-10 -8,-1 -4,7 -24,19 -45,28 -20,8 -43,24 -49,35 -7,12 -30,32 -50,47 -55,37 -52,52 6,33 z m 4046,2 c 0,-5 -11,-19 -25,-32 -14,-13 -46,-55 -72,-94 -56,-83 -88,-112 -120,-108 -14,2 -32,-6 -47,-22 -14,-13 -36,-28 -48,-32 -13,-4 -57,-39 -98,-79 -85,-82 -120,-105 -120,-79 0,21 63,88 120,126 51,35 140,126 140,144 0,20 41,64 59,64 10,0 30,11 45,25 15,14 32,25 38,25 6,0 19,7 29,16 18,16 78,50 92,53 4,0 7,-3 7,-7 z m 4955,-127 c 38,-35 67,-66 64,-69 -6,-6 -40,7 -141,53 -27,12 -48,28 -48,35 0,7 -7,19 -15,26 -21,17 -4,27 37,22 23,-3 54,-23 103,-67 z m -4245,30 c 0,-8 -6,-15 -13,-15 -8,0 -22,-9 -32,-20 -10,-11 -26,-20 -35,-20 -10,0 -23,-7 -30,-15 -7,-8 -19,-15 -28,-15 -8,0 -24,-8 -34,-17 -14,-12 -34,-17 -69,-15 -33,1 -64,-5 -91,-18 -23,-11 -46,-20 -50,-20 -5,0 -28,-9 -50,-20 -23,-11 -52,-20 -64,-20 -13,0 -26,-4 -29,-10 -8,-13 -45,-13 -45,0 0,23 24,47 42,42 11,-3 18,1 18,11 0,9 14,17 38,21 38,7 82,21 118,38 12,6 36,13 54,17 18,3 38,15 44,26 18,33 36,40 141,51 55,6 103,12 108,13 4,0 7,-6 7,-14 z m 854,-22 c 7,-16 19,-55 26,-88 6,-33 19,-87 27,-120 8,-33 18,-72 21,-87 8,-34 3,-178 -6,-178 -10,1 -42,68 -42,88 0,10 -8,34 -19,54 -12,24 -15,40 -8,47 5,5 7,29 3,53 -3,23 -7,59 -9,79 -2,20 -8,42 -12,49 -15,24 -14,130 0,130 3,0 11,-12 19,-27 z m 1147,17 c 5,0 9,-9 9,-19 0,-11 4,-22 9,-25 9,-6 4,-26 -29,-141 -23,-79 -31,-65 -45,76 -5,44 -3,69 4,73 6,4 11,16 11,28 0,14 5,18 16,14 9,-3 20,-6 25,-6 z M 5797,6685 c 18,-6 36,-14 39,-18 4,-4 15,-7 25,-7 39,0 69,-22 69,-52 0,-20 5,-28 18,-28 9,0 23,-9 30,-20 6,-11 33,-31 59,-45 27,-14 66,-37 88,-50 22,-13 59,-34 83,-45 23,-12 42,-25 42,-30 0,-4 19,-16 43,-25 25,-9 47,-26 54,-40 10,-23 9,-25 -12,-25 -12,0 -28,7 -36,16 -7,8 -29,24 -48,34 -20,10 -47,27 -60,39 -13,12 -30,21 -38,21 -8,0 -26,8 -41,18 -15,10 -34,22 -43,27 -9,6 -42,28 -75,49 -38,26 -72,41 -96,42 -29,1 -56,18 -137,83 -115,94 -131,123 -48,89 28,-11 67,-26 84,-33 z m 3438,-35 c 10,-11 28,-36 39,-54 12,-19 43,-57 69,-85 36,-39 53,-50 68,-46 13,4 19,2 19,-9 0,-8 21,-56 46,-106 26,-50 44,-93 41,-96 -7,-7 -92,56 -137,101 -28,29 -34,42 -31,70 1,19 -2,35 -7,35 -5,0 -26,25 -47,56 -22,31 -54,72 -72,90 -19,20 -30,40 -27,49 8,20 17,19 39,-5 z m 2285,-119 c 0,-24 -8,-33 -59,-60 -32,-17 -61,-37 -64,-45 -4,-9 -14,-12 -26,-9 -27,7 -19,24 43,89 37,39 58,54 79,54 23,0 27,-4 27,-29 z m -3090,-19 c 0,-5 -16,-16 -35,-25 -19,-9 -35,-21 -35,-26 0,-5 -9,-13 -20,-16 -11,-4 -32,-17 -48,-29 -15,-13 -38,-27 -51,-31 -14,-4 -33,-17 -42,-29 -16,-20 -18,-20 -36,-3 -22,19 -36,21 -61,8 -9,-5 -48,-21 -87,-36 -63,-24 -102,-40 -160,-66 -29,-13 -79,-16 -85,-4 -3,5 18,18 45,28 28,10 64,24 80,32 17,7 50,21 75,31 25,9 50,20 55,24 6,3 30,13 54,20 29,10 47,22 54,39 15,34 26,41 67,41 19,0 48,7 64,15 15,8 47,15 70,15 22,0 48,5 56,10 18,12 40,13 40,2 z m -4422,-46 c 64,-4 98,-11 108,-21 9,-8 27,-16 42,-17 40,-2 55,-5 72,-10 35,-13 98,-27 147,-33 52,-7 84,-27 64,-39 -10,-6 -122,11 -219,34 -56,13 -115,13 -129,-1 -11,-11 -75,4 -97,23 -6,4 -16,8 -23,8 -7,0 -37,12 -68,26 -56,27 -65,47 -17,39 15,-2 69,-6 120,-9 z m 4820,-218 c 24,-6 72,-8 110,-5 56,5 78,2 137,-19 39,-14 82,-28 98,-31 42,-8 32,-20 -25,-27 -105,-12 -177,-7 -197,13 -11,11 -40,21 -72,25 -62,8 -222,37 -228,42 -1,1 0,8 4,14 8,12 103,6 173,-12 z m 1680,-145 c 2,-7 -2,-13 -9,-13 -26,0 -236,-72 -289,-99 -30,-15 -71,-31 -91,-35 -57,-10 -159,-18 -159,-12 0,3 28,19 63,34 34,16 70,37 80,47 13,12 32,17 65,17 41,-1 122,19 257,64 47,15 77,14 83,-3 z m 4231,-118 c 62,-17 81,-29 48,-31 -12,-1 -53,-6 -91,-11 -64,-9 -70,-8 -92,12 -58,54 2,67 135,30 z M 2216,5955 c 10,-10 32,-14 60,-13 45,1 71,-12 60,-30 -6,-9 -97,-24 -151,-25 -46,0 -130,14 -175,30 -23,8 24,24 110,39 41,6 76,12 78,13 2,1 10,-6 18,-14 z m 1554,0 c 13,-11 47,-16 132,-19 123,-3 161,-13 134,-35 -11,-9 -51,-13 -135,-12 -100,1 -121,-1 -129,-15 -7,-12 -17,-14 -45,-9 -21,4 -40,11 -43,16 -3,5 -27,9 -54,9 -52,0 -100,14 -100,28 0,7 146,42 214,51 5,0 17,-6 26,-14 z m 2048,-52 c 177,2 192,1 192,-15 0,-21 5,-20 -229,-19 -153,0 -164,-1 -180,-20 -16,-19 -21,-20 -96,-10 -115,16 -210,37 -199,43 20,13 93,29 168,38 44,5 84,14 90,20 7,7 18,2 35,-14 26,-24 28,-24 219,-23 z m 2541,32 c 5,3 12,1 16,-5 3,-5 21,-10 40,-10 19,0 37,-4 40,-10 3,-5 19,-10 35,-10 16,0 31,-4 34,-8 6,-10 -52,-25 -182,-48 -83,-15 -94,-15 -110,-1 -24,21 -85,26 -314,29 -140,2 -198,6 -198,14 0,21 30,24 265,24 190,0 235,3 242,14 10,18 49,24 91,13 18,-4 36,-5 41,-2 z m 1241,-24 c 24,-46 0,-91 -47,-91 -53,0 -82,59 -47,94 22,23 81,21 94,-3 z m 1275,-45 27,-18 -23,-22 c -24,-22 -43,-24 -84,-6 -36,16 -115,40 -130,40 -8,0 -15,4 -15,9 0,10 68,17 152,15 26,0 58,-8 73,-18 z m -800,-156 c 6,-4 26,-11 45,-15 42,-9 60,-22 60,-44 0,-11 31,-31 96,-61 52,-24 100,-52 105,-62 9,-17 7,-18 -18,-12 -15,4 -35,13 -44,20 -8,8 -25,14 -36,14 -11,0 -26,6 -32,14 -7,8 -31,17 -54,21 -54,8 -82,22 -125,63 -19,19 -47,38 -63,44 -46,16 -37,37 14,31 23,-3 47,-9 52,-13 z m -995,-180 c 23,-6 49,-9 57,-6 18,7 56,-12 48,-25 -4,-5 -15,-9 -26,-9 -10,0 -19,-3 -19,-7 0,-5 -17,-9 -37,-10 -20,-1 -39,-6 -42,-11 -10,-16 -91,-18 -101,-3 -6,11 -35,12 -145,7 -128,-7 -136,-6 -133,11 3,15 18,19 103,24 113,7 175,17 175,29 0,9 47,19 67,14 6,-2 31,-8 53,-14 z m -2610,-38 c -12,-2 -24,-10 -26,-17 -3,-8 -20,-17 -37,-21 -18,-3 -39,-11 -47,-18 -17,-13 -39,-25 -118,-67 -124,-66 -136,-74 -142,-98 -4,-18 -15,-27 -40,-33 -19,-5 -44,-13 -55,-17 -38,-17 -60,-23 -88,-26 -16,-2 -34,-8 -40,-14 -13,-13 -67,-15 -67,-2 0,5 14,14 30,21 17,7 45,26 63,42 17,16 50,41 72,55 22,14 46,32 53,40 16,15 32,17 32,3 0,-19 36,-10 104,25 38,19 75,35 83,35 7,0 16,6 19,14 3,8 18,19 32,25 15,6 45,22 67,36 22,13 47,27 55,30 8,4 22,10 30,15 10,5 19,3 28,-8 11,-15 10,-17 -8,-20 z m 1377,-32 c 8,0 29,-6 46,-14 238,-102 317,-126 317,-94 0,9 3,9 12,0 7,-7 19,-12 28,-12 9,0 25,-9 36,-21 10,-11 32,-26 49,-34 16,-7 44,-24 60,-39 17,-14 37,-26 46,-26 9,0 19,-7 23,-15 6,-17 -16,-20 -60,-6 -16,5 -69,17 -118,28 -81,16 -91,21 -118,56 -19,23 -38,37 -52,37 -13,0 -26,3 -29,6 -8,8 -118,54 -129,54 -8,0 -113,45 -140,60 -10,6 -24,10 -31,10 -8,0 -22,9 -31,19 -17,19 -17,20 6,23 13,2 34,-4 47,-14 13,-10 30,-18 38,-18 z m 1769,-67 c -99,-104 -121,-123 -138,-123 -27,0 -56,-17 -96,-56 -19,-19 -42,-34 -50,-34 -9,0 -23,-7 -33,-16 -10,-9 -20,-11 -23,-6 -6,10 94,102 111,102 15,1 48,35 60,63 7,15 23,32 35,37 13,6 30,14 38,19 32,19 86,40 104,40 16,1 15,-3 -8,-26 z m 1711,-35 c 52,-52 63,-68 63,-95 0,-29 -3,-33 -28,-33 -32,0 -52,16 -52,42 0,10 -6,21 -14,24 -8,3 -13,11 -10,18 3,7 -6,34 -20,60 -13,25 -20,46 -14,46 6,0 40,-28 75,-62 z m -6848,28 c 9,-11 7,-15 -11,-19 -73,-16 -206,-55 -225,-66 -13,-6 -23,-18 -23,-25 0,-15 -35,-23 -138,-31 -35,-3 -66,-6 -70,-6 -4,-1 -20,-1 -37,0 -26,2 -21,6 43,36 39,19 72,39 72,43 0,13 91,31 128,25 17,-3 32,-1 32,3 0,5 10,10 23,10 29,2 136,30 144,38 11,11 50,6 62,-8 z m 2421,3 c 0,-15 -57,-184 -75,-224 -7,-16 -26,-67 -40,-113 -21,-64 -26,-94 -20,-128 5,-36 2,-49 -14,-70 -12,-15 -21,-31 -21,-37 0,-5 -20,-40 -43,-76 -24,-36 -47,-79 -52,-96 -16,-63 -16,1 0,123 19,146 27,172 54,172 14,0 24,12 34,43 8,23 25,69 37,102 12,33 28,81 35,106 7,26 20,60 29,77 9,17 16,36 16,43 0,24 34,89 47,89 7,0 13,-5 13,-11 z m 860,-185 c 8,-8 34,-27 59,-42 25,-14 54,-35 63,-45 13,-15 25,-18 48,-14 27,6 33,2 55,-33 13,-21 45,-61 70,-87 47,-51 57,-69 28,-54 -10,5 -29,14 -43,20 -14,6 -47,25 -75,41 -27,17 -58,33 -67,36 -10,4 -18,15 -18,25 0,18 -65,85 -121,124 -16,11 -29,26 -29,33 0,17 15,15 30,-4 z m -438,-71 c 10,-9 18,-23 18,-32 0,-15 24,-94 55,-181 7,-19 21,-62 31,-95 10,-33 21,-67 25,-75 4,-8 10,-23 13,-32 3,-10 14,-18 25,-18 11,0 23,-5 26,-10 9,-14 23,-116 30,-215 6,-79 5,-80 -12,-52 -10,15 -21,27 -25,27 -5,0 -8,5 -8,12 0,19 -42,102 -56,111 -7,4 -10,15 -7,24 4,9 -1,21 -12,30 -17,12 -18,17 -7,47 12,34 3,78 -28,137 -5,9 -12,33 -15,53 -4,20 -11,39 -16,42 -5,3 -9,16 -9,30 0,13 -4,24 -10,24 -5,0 -7,6 -4,13 2,7 -2,27 -11,43 -8,16 -15,38 -15,49 0,11 -7,29 -15,39 -30,40 -10,62 27,29 z m 2781,-115 c -2,-13 -9,-32 -13,-43 -5,-11 -14,-39 -20,-62 -6,-24 -20,-52 -32,-63 -12,-11 -34,-47 -49,-81 -25,-59 -53,-89 -67,-74 -5,5 9,41 49,117 5,10 9,30 9,44 0,15 11,42 25,60 14,18 25,38 25,45 0,10 66,79 75,79 2,0 1,-10 -2,-22 z M 2237,4908 c -12,-10 -29,-18 -38,-18 -8,0 -24,-9 -36,-19 -22,-21 -146,-45 -197,-39 -27,3 -24,6 40,38 38,19 72,39 75,43 4,5 37,10 74,12 37,2 72,8 78,14 8,8 13,8 19,-2 4,-7 -1,-19 -15,-29 z m 2633,-40 c -1,-13 -84,-59 -106,-58 -15,0 -41,-31 -46,-55 -2,-13 -14,-22 -38,-27 -19,-3 -70,-16 -114,-28 -89,-24 -115,-22 -68,5 18,11 32,22 32,26 0,4 17,18 38,30 20,12 49,33 64,45 16,13 36,20 47,17 10,-3 40,5 66,16 26,12 54,21 61,21 8,0 14,5 14,10 0,6 11,10 25,10 14,0 25,-6 25,-12 z m 8493,-25 c -10,-31 -116,-120 -150,-126 -36,-7 -38,-2 -23,38 6,15 22,30 40,36 16,6 30,15 30,20 0,5 6,9 13,9 7,0 28,9 47,19 44,25 49,25 43,4 z m -6264,-60 c 5,-21 15,-73 22,-115 7,-43 16,-78 20,-78 3,0 9,-26 12,-58 6,-54 25,-141 43,-187 4,-11 15,-27 25,-35 15,-13 18,-37 22,-157 3,-108 1,-143 -8,-143 -7,0 -18,15 -25,33 -7,17 -22,57 -33,87 -12,30 -24,60 -28,65 -4,6 -10,29 -14,52 -5,34 -4,44 9,49 18,7 21,35 5,51 -6,6 -12,28 -14,49 -4,46 -14,103 -22,124 -3,8 -6,26 -8,40 -1,14 -7,45 -13,70 -23,96 -39,180 -34,185 15,15 32,1 41,-32 z m 1568,-129 c 32,-15 74,-35 94,-45 20,-11 48,-19 62,-19 14,0 29,-4 32,-10 8,-12 45,-13 45,-1 0,17 53,-3 79,-29 14,-15 37,-31 51,-35 14,-4 33,-15 42,-25 9,-10 23,-20 30,-23 7,-2 10,-8 6,-12 -4,-4 -30,-2 -58,5 -27,7 -57,9 -65,6 -8,-3 -15,-2 -15,3 0,5 -20,12 -44,15 -31,5 -46,13 -53,29 -7,15 -32,30 -79,46 -38,13 -76,30 -84,36 -8,7 -29,16 -47,20 -38,8 -86,43 -78,56 9,14 19,11 82,-17 z m 2500,-81 c -6,-117 -14,-160 -33,-167 -30,-11 -52,95 -30,139 8,16 21,51 27,77 8,28 18,48 27,48 11,0 12,-19 9,-97 z m -696,-132 c -6,-10 -35,-44 -66,-76 -30,-32 -55,-61 -55,-66 0,-5 -6,-6 -14,-3 -19,7 -79,-21 -109,-52 -20,-20 -26,-21 -30,-10 -4,10 14,32 49,62 29,26 54,55 54,64 0,10 12,23 28,29 15,6 34,15 42,20 8,5 22,12 30,16 8,3 26,12 40,20 34,20 43,19 31,-4 z m -2321,-61 c 29,-33 61,-60 71,-60 27,0 49,-11 49,-24 0,-6 13,-27 30,-46 16,-19 29,-40 30,-46 0,-5 11,-25 25,-44 14,-19 25,-39 25,-44 0,-7 -3,-6 -8,1 -4,6 -19,14 -33,18 -14,3 -38,18 -54,33 -17,15 -46,40 -66,55 -26,19 -35,33 -32,47 3,13 -14,36 -60,81 -38,36 -63,67 -60,75 10,26 30,14 83,-46 z m -2930,13 c 0,-9 -45,-66 -80,-101 -22,-22 -30,-40 -30,-65 0,-30 -5,-36 -32,-48 -18,-7 -53,-31 -76,-54 -24,-22 -50,-43 -57,-48 -24,-13 -28,14 -6,41 12,15 27,38 33,52 26,54 73,105 93,102 14,-2 39,17 80,62 56,61 75,76 75,59 z m 868,-60 c -15,-35 -43,-73 -101,-137 -25,-28 -51,-68 -58,-90 -15,-43 -117,-158 -163,-181 -23,-12 -26,-12 -26,4 0,10 9,26 20,36 11,10 20,24 20,30 0,7 9,24 20,38 11,14 20,33 20,42 0,21 39,54 63,55 10,0 34,25 58,63 79,122 181,219 147,140 z m 9783,-153 c 103,-33 96,-30 79,-40 -19,-12 -177,-13 -184,-1 -3,5 -30,12 -61,16 -30,3 -57,11 -60,16 -6,9 20,12 93,9 24,-1 42,3 42,9 0,16 18,14 91,-9 z M 9737,4046 c 37,-8 79,-19 92,-24 l 24,-8 -29,-12 c -44,-17 -161,-25 -169,-12 -4,6 -31,10 -64,9 -31,-1 -74,4 -95,11 -34,11 -36,14 -21,23 10,5 49,7 86,5 49,-4 74,-1 86,8 22,16 10,16 90,0 z m -2893,-72 c 3,-9 6,-39 6,-68 0,-30 8,-66 18,-88 16,-30 17,-46 10,-109 -12,-103 -24,-157 -30,-139 -39,112 -57,200 -47,225 4,11 8,56 8,101 1,44 4,84 8,87 11,11 20,8 27,-9 z m -4259,-91 c -14,-14 -25,-34 -25,-45 0,-10 -7,-21 -15,-23 -23,-8 -39,-14 -55,-23 -8,-5 -31,-16 -50,-25 -19,-8 -45,-21 -57,-27 -13,-6 -23,-8 -23,-4 0,11 133,144 145,144 6,0 28,9 49,20 49,25 65,16 31,-17 z m 5530,-103 c 8,-16 27,-42 41,-57 14,-15 40,-50 57,-77 23,-36 41,-52 64,-58 24,-6 34,-16 43,-43 6,-19 16,-35 21,-35 5,0 9,-6 9,-12 0,-7 12,-36 27,-65 14,-29 24,-56 20,-59 -12,-12 -152,142 -179,196 -15,30 -39,69 -53,85 -33,39 -95,135 -95,146 0,21 31,7 45,-21 z m -1822,-88 c -8,-26 -24,-71 -35,-100 -13,-33 -19,-65 -15,-85 3,-20 0,-40 -9,-52 -8,-10 -14,-25 -14,-33 0,-8 -11,-27 -25,-44 -14,-16 -25,-37 -25,-46 0,-9 -12,-26 -27,-36 l -26,-19 8,24 c 4,13 9,40 11,59 9,91 18,132 33,143 9,7 21,23 28,37 36,79 53,121 53,132 0,6 8,28 17,49 12,28 20,36 28,29 9,-8 9,-21 -2,-58 z m 2710,24 c 28,-19 66,-47 84,-61 23,-19 38,-24 57,-19 22,5 37,-5 111,-77 47,-45 85,-86 85,-90 0,-11 -64,9 -68,21 -2,6 -14,10 -27,10 -13,0 -27,4 -30,10 -3,5 -26,18 -50,29 -36,16 -45,25 -45,44 0,18 -8,28 -27,35 -16,5 -43,23 -62,41 -18,17 -38,31 -43,31 -18,0 -68,41 -63,51 10,15 23,11 78,-25 z m 1626,19 c 20,-20 -131,-56 -254,-59 -65,-2 -111,-8 -113,-14 -2,-8 -11,-8 -28,0 -47,22 -28,31 91,43 33,4 78,15 100,26 33,16 53,19 120,14 43,-3 81,-8 84,-10 z m 1291,-109 c 0,-28 -87,-120 -128,-137 -31,-12 -40,-6 -34,28 3,20 17,36 47,56 23,15 47,27 52,27 6,0 18,9 28,20 21,23 35,26 35,6 z M 4726,3356 c -25,-26 -46,-54 -46,-64 0,-9 -12,-28 -25,-41 -14,-13 -25,-27 -25,-31 0,-4 -17,-16 -37,-25 -21,-10 -48,-27 -60,-38 -30,-27 -29,-7 2,39 14,20 25,42 25,48 0,6 9,18 20,26 11,8 20,20 20,27 0,6 18,24 40,40 22,15 42,36 46,46 3,9 10,17 15,17 6,0 18,7 26,16 14,14 18,14 31,1 13,-13 9,-21 -32,-61 z m -1201,-46 c 10,-16 -5,-50 -21,-50 -8,0 -14,-10 -14,-25 0,-16 -16,-40 -46,-70 -26,-25 -50,-45 -54,-45 -4,0 -10,-7 -14,-15 -3,-8 -12,-15 -21,-15 -8,0 -15,-4 -15,-10 0,-5 -4,-10 -10,-10 -15,0 -12,44 5,66 8,10 15,25 15,33 0,7 11,22 24,32 13,10 27,30 30,44 4,14 16,27 29,30 13,4 30,15 37,26 15,20 45,25 55,9 z m 4225,-56 c 15,-37 31,-59 46,-65 13,-4 24,-12 24,-16 1,-24 21,-143 27,-158 12,-33 -42,15 -57,50 -8,16 -24,40 -37,53 -24,24 -30,42 -13,42 6,0 10,7 10,15 0,8 -4,15 -10,15 -5,0 -10,8 -10,19 0,10 -7,32 -15,47 -19,36 -19,54 -1,54 7,0 24,-25 36,-56 z m 5070,29 c -14,-9 -37,-27 -51,-40 -36,-33 -96,-62 -118,-56 -10,2 -36,-5 -57,-16 -39,-21 -84,-28 -84,-13 0,5 22,18 49,30 27,12 60,32 73,45 13,14 34,28 48,32 14,4 45,13 70,20 25,8 56,14 70,14 l 24,1 -24,-17 z m 1794,-222 c 3,-5 -6,-12 -21,-16 -16,-3 -30,-10 -33,-13 -11,-15 -117,-52 -148,-52 -40,0 -41,12 -1,47 20,19 46,30 77,34 76,10 120,10 126,0 z m -4399,-273 c 22,1 54,-3 70,-9 51,-19 99,-43 115,-58 27,-26 -149,-6 -208,24 -28,14 -61,25 -75,25 -27,0 -42,14 -33,29 4,5 24,4 48,-2 24,-6 61,-10 83,-9 z m -4895,-35 c 0,-10 -9,-33 -21,-52 -14,-22 -19,-44 -15,-61 4,-21 -1,-33 -21,-51 -14,-13 -39,-48 -55,-76 -37,-65 -48,-73 -48,-34 0,16 4,32 9,36 6,3 13,26 17,50 3,25 10,48 15,51 5,3 9,14 9,25 0,12 7,19 19,19 11,0 23,9 26,21 11,33 46,89 56,89 5,0 9,-8 9,-17 z m 6173,10 c 37,-3 67,-9 67,-12 0,-3 -37,-18 -82,-32 -82,-25 -188,-30 -188,-8 0,5 18,16 40,25 22,9 40,20 40,25 0,11 30,11 123,2 z M 7201,2571 c 7,-24 21,-48 31,-55 12,-7 18,-23 18,-47 0,-20 5,-60 10,-89 6,-29 8,-55 6,-57 -11,-11 -35,13 -40,43 -4,19 -11,34 -16,34 -6,0 -10,8 -10,19 0,10 -7,24 -15,31 -9,7 -15,29 -15,53 0,22 -7,70 -16,105 -14,54 -14,66 -3,73 10,6 17,-1 25,-29 6,-20 18,-57 25,-81 z m 2155,50 c 5,-6 38,-24 74,-42 38,-18 89,-56 122,-89 71,-71 67,-84 -12,-38 -8,5 -28,15 -45,22 -16,8 -50,35 -75,61 -25,26 -57,53 -72,61 -29,15 -37,34 -15,34 7,0 17,-4 23,-9 z M 6110,2434 c 0,-13 4,-24 9,-24 5,0 2,-19 -6,-42 -9,-24 -21,-68 -27,-98 -6,-30 -15,-54 -21,-53 -5,1 -14,39 -19,84 -9,81 -1,132 27,167 14,17 37,-4 37,-34 z m 10031,-51 c 15,-3 30,0 34,6 5,9 12,6 23,-7 10,-10 33,-24 52,-32 40,-15 93,-50 87,-56 -6,-7 -149,17 -169,27 -9,5 -19,18 -23,28 -3,12 -17,21 -32,23 -15,2 -29,9 -31,17 -3,10 0,12 14,7 11,-4 31,-10 45,-13 z M 7978,2192 c 6,-9 12,-28 12,-43 0,-15 4,-30 10,-34 5,-3 7,-11 4,-19 -3,-7 0,-25 6,-41 6,-15 9,-30 6,-32 -5,-5 -53,47 -70,76 -44,75 -46,81 -36,100 11,22 47,18 68,-7 z m 4270,-234 c 39,-7 72,-15 72,-19 0,-8 -132,-39 -168,-39 -25,0 -101,30 -102,40 0,3 15,12 33,22 33,17 40,16 165,-4 z M 8125,1810 c 9,-15 -14,-40 -36,-40 -22,0 -33,16 -25,35 6,17 52,20 61,5 z m 2333,-347 c 45,-28 112,-89 112,-102 0,-8 -5,-8 -17,-2 -10,5 -52,20 -93,33 -52,17 -76,29 -78,41 -9,47 25,61 76,30 z m 1322,-334 c 41,-11 79,-24 83,-28 5,-5 -35,-12 -88,-16 -84,-6 -99,-5 -116,11 -24,22 -24,34 0,34 11,0 23,5 26,10 8,13 9,13 95,-11 z m -3015,-99 c 3,-5 14,-10 24,-10 12,0 22,-13 31,-42 8,-24 16,-47 20,-53 13,-22 31,-87 26,-93 -4,-3 -14,5 -24,19 -9,13 -38,47 -64,74 -37,39 -48,57 -48,83 0,31 21,45 35,22 z M 2088,868 c 7,-7 12,-24 12,-38 0,-37 -18,-50 -66,-50 -29,0 -44,5 -48,16 -10,25 -7,59 6,72 16,16 80,16 96,0 z M 14649,602 c 19,3 36,-1 42,-9 6,-7 17,-13 24,-13 7,0 29,-13 50,-30 21,-16 46,-30 56,-30 11,0 19,-4 19,-10 0,-13 -12,-13 -91,4 -71,15 -109,31 -109,46 0,6 -11,10 -25,10 -18,0 -25,5 -25,18 0,24 12,36 21,21 4,-7 20,-10 38,-7 z"
       id="path8" />
  </g>
  <g
     transform="translate(0.000000,335.520000) scale(0.024000,-0.024000)"
     fill="#000000"
     stroke="none"
     id="g2993">
    <path
       d="M13418 6533 c-19 -5 -25 -23 -8 -23 13 0 13 -227 0 -235 -25 -15 7 -23 91 -23 80 0 90 2 84 17 -4 9 -9 38 -11 65 -5 61 -26 86 -70 86 l-33 0 -3 57 c-3 59 -10 67 -50 56z m110 -195 c-3 -60 -4 -63 -30 -66 -30 -4 -32 -1 -28 73 2 50 5 55 36 55 24 0 25 -2 22 -62z"
       id="path2995" />
    <path
       d="M12320 6496 c0 -8 5 -16 10 -18 18 -6 21 -161 4 -193 -8 -15 -14 -29 -14 -31 0 -2 49 -4 110 -4 109 0 110 0 116 25 3 14 3 33 -1 42 -6 17 -7 17 -20 -1 -8 -10 -16 -23 -17 -28 -2 -5 -20 -11 -42 -15 -45 -7 -56 4 -56 60 0 31 3 37 21 37 13 0 23 -8 26 -20 9 -36 28 -15 31 33 2 26 0 47 -3 47 -4 0 -18 -9 -33 -20 -31 -25 -45 -15 -40 31 3 31 6 34 39 37 29 2 41 -2 57 -22 27 -35 32 -33 32 14 l0 40 -110 0 c-88 0 -110 -3 -110 -14z"
       id="path2997" />
    <path
       d="M13163 6488 c-51 -57 -53 -152 -3 -206 37 -41 68 -41 106 -1 26 27 29 37 29 99 0 54 -4 74 -21 97 -28 38 -81 43 -111 11z m81 -29 c16 -84 1 -189 -28 -189 -28 0 -40 31 -40 108 -1 92 6 112 37 112 19 0 26 -7 31 -31z"
       id="path2999" />
    <path
       d="M12715 6450 c-15 -24 12 -30 139 -30 73 0 136 3 139 7 4 3 2 12 -4 20 -14 16 -264 19 -274 3z"
       id="path3001" />
    <path
       d="M13641 6404 c-33 -24 -52 -72 -37 -98 28 -51 49 -67 81 -60 36 7 65 31 65 52 0 12 -5 10 -20 -6 -35 -37 -80 -23 -80 25 0 21 4 23 56 23 52 0 55 1 52 23 -7 51 -70 73 -117 41z m69 -24 c0 -16 -7 -20 -30 -20 -32 0 -33 1 -24 24 9 24 54 21 54 -4z"
       id="path3003" />
    <path
       d="M13818 6413 c-45 -4 -63 -16 -37 -25 15 -5 13 -112 -1 -116 -25 -9 -6 -22 30 -22 38 0 52 12 30 25 -5 3 -7 25 -5 48 2 23 4 45 4 50 1 4 12 7 25 7 28 0 42 26 20 34 -9 3 -16 5 -17 4 -1 -1 -23 -3 -49 -5z"
       id="path3005" />
    <path
       d="M13955 6409 c-11 -5 -27 -22 -36 -37 -42 -74 56 -168 117 -111 13 12 24 29 24 37 0 12 -6 10 -23 -6 -32 -30 -65 -28 -77 4 -16 42 -13 46 43 43 46 -3 52 -1 55 18 2 13 -7 28 -24 42 -29 23 -48 25 -79 10z m63 -31 c3 -13 -3 -18 -21 -18 -29 0 -37 7 -30 27 8 19 47 12 51 -9z"
       id="path3007" />
    <path
       d="M11996 6371 c-7 -10 38 -95 104 -196 13 -21 32 -51 103 -169 12 -18 17 -40 13 -56 -4 -22 5 -38 50 -88 30 -33 66 -68 80 -77 l26 -17 -7 33 c-4 18 -11 40 -15 49 -4 8 -20 41 -34 73 -18 39 -32 57 -45 57 -12 0 -36 29 -72 87 -30 48 -56 92 -58 97 -2 5 -26 44 -53 85 -27 41 -47 79 -45 85 2 7 33 10 86 8 97 -4 128 3 110 24 -9 11 -39 14 -125 14 -62 0 -115 -4 -118 -9z"
       id="path3009" />
    <path
       d="M12760 6362 c-46 -6 -54 -11 -40 -27 10 -12 39 -15 141 -15 122 0 156 8 133 30 -9 8 -189 17 -234 12z"
       id="path3011" />
    <path
       d="M7013 5978 c-27 -13 -39 -64 -26 -105 22 -67 131 -66 153 1 28 85 -45 144 -127 104z"
       id="path3013" />
    <path
       d="M9502 5941 c-42 -39 -44 -86 -4 -124 46 -44 98 -32 131 30 17 32 4 70 -34 98 -41 32 -54 31 -93 -4z m93 -31 c23 -25 13 -67 -20 -82 -52 -23 -100 46 -59 86 21 22 57 20 79 -4z"
       id="path3015" />
    <path
       d="M2496 1441 c-4 -5 -2 -12 4 -16 6 -4 10 -54 10 -120 0 -66 -4 -116 -10 -120 -6 -4 -8 -10 -5 -14 5 -10 323 -6 348 4 22 9 22 21 -1 27 -14 4 -19 17 -21 54 -1 27 -9 56 -18 66 -29 32 -103 16 -103 -22 0 -10 4 -21 9 -24 10 -7 39 24 31 33 -3 3 5 7 18 9 20 3 23 0 20 -25 -2 -21 -9 -29 -26 -31 -31 -5 -62 -32 -62 -54 0 -11 -5 -15 -15 -12 -11 4 -15 21 -15 59 0 64 -23 91 -70 82 -20 -5 -30 -2 -31 6 0 6 -1 32 -2 57 -2 41 -5 45 -29 48 -14 2 -29 -1 -32 -7z m122 -190 c-3 -53 -5 -56 -30 -59 -28 -3 -28 -3 -28 57 0 49 3 60 18 63 36 8 43 -2 40 -61z m159 -35 c-8 -20 -47 -21 -47 -1 0 18 32 37 44 25 5 -5 6 -16 3 -24z"
       id="path3017" />
    <path
       d="M3627 1433 c-4 -3 -7 -28 -7 -55 0 -52 4 -49 -75 -52 -28 -1 -49 -16 -38 -27 5 -5 32 -12 59 -15 49 -6 49 -6 50 -45 2 -50 10 -69 29 -69 12 0 15 13 15 58 l0 57 57 0 c46 0 58 3 61 17 3 14 -6 17 -55 20 l-58 3 -3 58 c-3 54 -15 71 -35 50z"
       id="path3019" />
    <path
       d="M2311 1423 c-45 -9 -76 -53 -79 -115 -3 -50 -1 -59 28 -92 37 -42 88 -59 141 -47 53 12 59 18 59 59 l0 37 -19 -32 c-23 -37 -50 -47 -97 -38 -42 7 -54 32 -54 109 0 67 27 106 71 106 40 0 68 -16 79 -46 5 -13 14 -24 20 -24 12 0 14 66 2 74 -13 8 -125 15 -151 9z"
       id="path3021" />
    <path
       d="M3981 1417 c-34 -17 -49 -64 -27 -85 21 -21 32 -8 18 22 -6 13 -8 27 -5 30 12 12 61 6 73 -9 15 -19 4 -52 -21 -60 -25 -8 -24 -25 1 -32 24 -6 37 -49 23 -72 -6 -10 -24 -16 -44 -16 -32 0 -34 2 -33 32 1 32 -19 52 -32 32 -8 -14 5 -61 23 -81 25 -28 94 -24 122 6 19 20 22 32 17 59 -4 20 -13 38 -21 41 -19 7 -19 40 -1 55 22 19 7 58 -29 75 -39 19 -34 19 -64 3z"
       id="path3023" />
    <path
       d="M2024 1393 c-55 -10 -84 -108 -46 -149 28 -30 87 -40 117 -20 29 19 50 87 36 114 -22 41 -65 63 -107 55z"
       id="path3025" />
    <path
       d="M3137 1348 c-10 -5 -25 -8 -35 -7 -39 3 -58 -3 -74 -25 -15 -21 -15 -26 -2 -51 15 -29 10 -90 -7 -101 -15 -9 -10 -40 10 -58 29 -26 99 -19 134 13 15 13 27 30 27 36 0 25 -49 51 -107 57 -7 1 -10 5 -7 9 2 5 11 6 18 3 17 -7 69 54 62 73 -3 7 1 16 9 19 19 7 20 30 2 37 -7 3 -21 1 -30 -5z m-29 -66 c3 -30 1 -33 -20 -30 -23 3 -34 27 -24 54 11 28 41 11 44 -24z m36 -138 c8 -20 -29 -36 -69 -28 -41 7 -50 40 -12 46 37 5 75 -3 81 -18z"
       id="path3027" />
    <path
       d="M2918 1333 c-27 -2 -48 -8 -48 -14 0 -5 5 -9 10 -9 14 0 13 -117 -2 -122 -23 -8 4 -28 38 -28 32 0 35 2 28 22 -9 30 -12 77 -7 99 4 14 9 16 23 9 25 -13 48 13 30 35 -7 8 -15 14 -19 13 -3 -1 -27 -3 -53 -5z"
       id="path3029" />
    <path
       d="M3231 1314 c-25 -20 -31 -34 -31 -64 0 -30 6 -44 31 -64 17 -14 39 -26 50 -26 21 0 69 42 69 60 0 16 -14 12 -28 -10 -22 -36 -82 -20 -82 22 0 14 8 18 39 18 74 0 87 17 50 64 -26 33 -59 33 -98 0z m67 -6 c7 -7 12 -15 12 -19 0 -11 -32 -20 -51 -14 -15 5 -17 10 -9 26 12 22 30 25 48 7z"
       id="path3031" />
    <path
       d="M2508 983 c-22 -6 -23 -19 -3 -27 23 -8 22 -221 -1 -230 -24 -9 2 -36 35 -36 39 0 56 14 36 30 -20 17 -21 103 0 120 8 6 23 9 35 5 17 -5 20 -15 20 -59 0 -35 -5 -58 -15 -66 -8 -7 -12 -16 -9 -21 7 -12 65 -11 83 0 9 6 22 6 34 -1 14 -7 26 -6 44 3 19 10 26 11 32 1 6 -10 15 -10 34 -3 29 11 37 31 12 31 -12 0 -15 13 -15 60 0 55 -2 60 -27 73 -36 17 -69 11 -88 -16 -11 -15 -12 -24 -3 -34 8 -10 8 -20 -1 -39 -6 -14 -11 -34 -11 -44 0 -13 -5 -18 -15 -14 -10 4 -15 21 -15 53 0 70 -17 96 -65 97 l-40 0 -1 45 c-2 85 -3 86 -56 72z m279 -149 c7 -18 -3 -29 -34 -39 -18 -5 -22 -3 -18 9 3 9 7 23 10 31 6 20 34 19 42 -1z m1 -81 c-4 -23 -48 -31 -48 -10 0 9 6 18 13 20 25 11 38 7 35 -10z"
       id="path3033" />
    <path
       d="M2333 963 c-32 -6 -93 -68 -94 -95 0 -13 -2 -31 -4 -41 -6 -32 38 -101 75 -119 44 -21 79 -22 127 -3 33 13 38 19 37 45 -1 41 -11 48 -25 17 -24 -53 -87 -61 -131 -17 -28 29 -30 34 -24 86 3 30 10 64 16 74 19 36 105 41 121 8 5 -10 13 -26 17 -35 17 -35 32 -26 32 20 0 42 -2 45 -32 50 -75 13 -94 15 -115 10z"
       id="path3035" />
    <path
       d="M4016 951 c-4 -6 -18 -11 -32 -11 -13 0 -24 -4 -24 -10 0 -5 7 -10 15 -10 12 0 15 -18 15 -99 0 -91 -2 -100 -20 -106 -37 -12 -10 -25 51 -25 46 0 59 3 59 15 0 8 -9 15 -20 15 -19 0 -20 7 -20 108 0 103 -9 148 -24 123z"
       id="path3037" />
    <path
       d="M1993 908 c-20 -10 -43 -60 -43 -95 0 -6 12 -25 26 -42 35 -42 84 -43 125 -2 16 16 29 39 29 50 0 30 -19 73 -38 87 -20 16 -69 17 -99 2z m87 -48 c24 -24 24 -29 4 -58 -10 -14 -26 -22 -44 -22 -18 0 -34 8 -44 22 -20 28 -20 43 0 62 21 22 60 20 84 -4z"
       id="path3039" />
    <path
       d="M3141 879 c-13 -5 -32 -7 -42 -4 -23 8 -55 -9 -70 -36 -8 -15 -8 -28 1 -50 10 -23 10 -39 0 -74 -7 -24 -10 -56 -6 -70 5 -21 12 -25 45 -25 69 0 102 11 112 38 5 13 7 33 4 42 -6 20 -53 40 -92 40 -13 0 -22 4 -19 9 3 4 16 8 28 7 27 -2 58 29 58 57 0 11 7 25 17 32 9 7 14 19 10 29 -7 18 -12 19 -46 5z m-23 -61 c-2 -23 -9 -34 -22 -36 -23 -5 -34 12 -28 44 3 18 11 24 29 24 21 0 24 -4 21 -32z m37 -148 c0 -19 -45 -35 -79 -26 -17 4 -26 13 -26 27 0 18 5 20 53 17 38 -2 52 -7 52 -18z"
       id="path3041" />
    <path
       d="M2923 863 c-29 -3 -43 -9 -43 -19 0 -8 5 -14 10 -14 6 0 10 -23 10 -50 0 -38 -4 -52 -16 -57 -15 -6 -15 -8 2 -20 33 -24 85 -14 63 13 -5 7 -9 34 -7 61 3 43 5 48 26 45 26 -4 42 25 21 39 -8 5 -16 8 -19 7 -3 -1 -24 -3 -47 -5z"
       id="path3043" />
    <path
       d="M3235 845 c-14 -13 -25 -32 -26 -42 -5 -72 26 -116 76 -111 36 4 75 28 75 45 0 18 -15 16 -30 -3 -8 -9 -25 -14 -44 -12 -27 3 -31 7 -34 37 l-3 34 50 -6 c58 -7 68 2 51 43 -19 46 -77 54 -115 15z m73 -18 c3 -12 -4 -17 -22 -17 -27 0 -37 24 -13 33 19 8 32 2 35 -16z"
       id="path3045" />
    <path
       d="M3510 839 c0 -18 10 -19 130 -19 111 0 129 2 124 15 -7 18 5 16 -136 20 -109 2 -118 1 -118 -16z"
       id="path3047" />
  </g>
</svg>
