<?xml version="1.0" encoding="UTF-8" standalone="no"?>
<svg
   xmlns:dc="http://purl.org/dc/elements/1.1/"
   xmlns:cc="http://creativecommons.org/ns#"
   xmlns:rdf="http://www.w3.org/1999/02/22-rdf-syntax-ns#"
   xmlns:svg="http://www.w3.org/2000/svg"
   xmlns="http://www.w3.org/2000/svg"
   xmlns:sodipodi="http://sodipodi.sourceforge.net/DTD/sodipodi-0.dtd"
   xmlns:inkscape="http://www.inkscape.org/namespaces/inkscape"
   version="1.0"
   width="195.840000pt"
   height="180.000000pt"
   viewBox="0 0 195.840000 180.000000"
   preserveAspectRatio="xMidYMid meet"
   id="svg2"
   inkscape:version="0.48.4 r9939"
   sodipodi:docname="gray.svg">
  <defs
     id="defs12" />
  <sodipodi:namedview
     pagecolor="#ffffff"
     bordercolor="#666666"
     borderopacity="1"
     objecttolerance="10"
     gridtolerance="10"
     guidetolerance="10"
     inkscape:pageopacity="0"
     inkscape:pageshadow="2"
     inkscape:window-width="1280"
     inkscape:window-height="996"
     id="namedview10"
     showgrid="false"
     inkscape:zoom="3.2725938"
     inkscape:cx="131.14695"
     inkscape:cy="116.26687"
     inkscape:window-x="0"
     inkscape:window-y="0"
     inkscape:window-maximized="1"
     inkscape:current-layer="svg2" />
  <metadata
     id="metadata4">
Created by potrace 1.10, written by Peter Selinger 2001-2011
<rdf:RDF>
  <cc:Work
     rdf:about="">
    <dc:format>image/svg+xml</dc:format>
    <dc:type
       rdf:resource="http://purl.org/dc/dcmitype/StillImage" />
    <dc:title></dc:title>
  </cc:Work>
</rdf:RDF>
</metadata>
  <rect
     style="fill:#b9b9b9;fill-opacity:1;stroke:none"
     id="rect3392"
     width="88.22802"
     height="180.00002"
     x="-26.71446"
     y="-0.050126985" />
  <g
     transform="translate(0.000000,180.000000) scale(0.024000,-0.024000)"
     fill="#b9b9b9"
     stroke="none"
     id="g6">
    <path
       d="M0 3750 l0 -3750 4080 0 4080 0 0 3750 0 3750 -4080 0 -4080 0 0 -3750z m4237 2570 c6 -13 29 -33 50 -45 88 -47 135 -97 113 -119 -5 -5 -10 -16 -10 -23 0 -16 63 -114 85 -133 9 -7 25 -30 35 -49 10 -20 37 -58 59 -86 23 -27 48 -65 58 -82 9 -18 20 -33 25 -33 4 0 23 -24 42 -52 19 -29 49 -71 65 -93 17 -22 42 -58 57 -80 15 -22 33 -47 41 -55 14 -15 40 -51 89 -124 14 -22 35 -49 45 -60 11 -11 19 -23 19 -27 0 -4 18 -28 39 -53 22 -25 42 -55 46 -66 3 -11 10 -20 15 -20 4 0 18 -19 30 -42 12 -22 32 -50 46 -60 13 -11 24 -25 24 -33 0 -7 13 -26 29 -41 15 -16 33 -43 38 -60 l11 -30 -54 7 c-62 8 -75 15 -68 33 6 14 -92 156 -107 156 -5 0 -9 7 -9 15 0 9 -16 32 -35 52 -19 20 -35 43 -35 51 0 7 -13 27 -30 42 -16 15 -30 33 -30 39 0 12 -9 25 -42 62 -10 10 -18 22 -18 27 0 4 -17 28 -37 54 -21 25 -54 69 -73 98 -19 28 -47 66 -61 83 -14 18 -34 47 -44 65 -11 17 -23 32 -27 32 -4 0 -15 15 -24 33 -9 17 -30 47 -45 65 -16 18 -29 38 -29 45 0 7 -9 18 -20 24 -10 7 -35 36 -55 65 -109 163 -139 190 -173 156 -7 -7 -12 -10 -12 -7 0 2 -16 49 -36 104 -19 55 -39 116 -43 136 -4 19 -11 41 -15 48 -6 9 1 12 25 9 24 -2 37 -10 46 -28z"
       id="path8" />
  </g>
  <g
     style="fill:#000000;stroke:none"
     transform="matrix(0.024,0,0,-0.024,-0.79936861,179.71352)"
     id="g2993">
    <path
       inkscape:connector-curvature="0"
       d="m 1981,6431 c -27,-7 -41,-31 -18,-31 10,0 16,-15 19,-52 6,-82 -2,-148 -18,-148 -8,0 -14,-4 -14,-10 0,-6 29,-10 68,-10 61,1 65,2 48,15 -11,8 -23,15 -26,15 -4,0 -8,48 -9,106 -1,59 -4,111 -7,115 -6,10 -9,10 -43,0 z"
       id="path2995" />
    <path
       inkscape:connector-curvature="0"
       d="m 1131,6376 c -9,-11 -9,-16 -1,-21 13,-8 269,-7 281,1 5,2 6,11 2,19 -8,21 -265,22 -282,1 z"
       id="path2997" />
    <path
       inkscape:connector-curvature="0"
       d="m 4103,6334 c -35,-26 -63,-53 -63,-60 0,-9 19,0 48,22 63,49 85,58 119,49 15,-5 30,-9 33,-10 88,-22 112,-26 122,-22 12,4 -24,23 -62,33 -8,2 -33,8 -55,14 -22,6 -49,14 -60,16 -13,3 -41,-11 -82,-42 z"
       id="path2999" />
    <path
       inkscape:connector-curvature="0"
       d="m 809,6356 c -25,-12 -69,-80 -69,-107 0,-30 41,-71 66,-66 22,4 24,1 24,-34 0,-42 15,-59 35,-38 12,13 51,164 57,222 3,28 1,29 -44,32 -25,1 -57,-3 -69,-9 z m 59,-43 c 2,-12 -4,-38 -14,-58 -12,-27 -22,-35 -38,-33 -18,3 -21,9 -19,42 4,64 63,105 71,49 z"
       id="path3001" />
    <path
       inkscape:connector-curvature="0"
       d="m 2175,6338 c -15,-14 -28,-38 -32,-60 -5,-32 -1,-41 25,-68 38,-38 79,-40 112,-5 30,32 21,41 -18,18 -37,-21 -65,-10 -70,26 -3,18 2,21 32,22 51,2 54,3 66,15 9,9 8,20 -4,43 -14,26 -23,31 -51,31 -21,0 -44,-9 -60,-22 z m 68,-12 c 7,-18 -1,-26 -25,-26 -18,0 -25,20 -11,33 11,12 31,8 36,-7 z"
       id="path3003" />
    <path
       inkscape:connector-curvature="0"
       d="m 2331,6338 c -19,-20 -19,-23 -4,-49 9,-15 26,-29 37,-31 29,-4 35,-48 8,-48 -11,0 -25,7 -32,15 -19,22 -32,18 -24,-7 8,-29 5,-26 39,-32 38,-7 75,17 75,49 0,30 -28,65 -52,65 -11,0 -18,8 -18,20 0,24 25,26 38,3 9,-15 11,-14 20,4 14,26 7,33 -34,33 -21,0 -41,-8 -53,-22 z"
       id="path3005" />
    <path
       inkscape:connector-curvature="0"
       d="m 2452,6351 c -11,-6 -10,-10 3,-15 13,-5 16,-14 11,-36 -7,-38 19,-108 42,-112 25,-5 120,7 129,16 4,4 1,11 -6,16 -9,5 -15,29 -16,63 -3,63 -9,77 -35,77 -22,0 -35,-16 -20,-25 16,-10 12,-101 -5,-115 -24,-20 -35,-1 -41,66 -7,69 -26,88 -62,65 z"
       id="path3007" />
    <path
       inkscape:connector-curvature="0"
       d="m 1138,6289 c -6,-4 -8,-14 -5,-23 5,-14 27,-16 141,-16 133,0 163,7 137,33 -12,12 -255,17 -273,6 z"
       id="path3009" />
    <path
       inkscape:connector-curvature="0"
       d="m 4460,6288 c 0,-9 18,-18 48,-25 26,-6 71,-19 101,-27 30,-9 57,-14 59,-11 9,9 -20,35 -39,35 -16,0 -71,13 -146,36 -16,4 -23,2 -23,-8 z"
       id="path3011" />
    <path
       inkscape:connector-curvature="0"
       d="m 1555,6280 c -12,-19 39,-30 144,-30 92,0 111,3 111,15 0,18 10,17 -132,20 -65,2 -120,-1 -123,-5 z"
       id="path3013" />
    <path
       inkscape:connector-curvature="0"
       d="m 963,6239 c -29,-10 -42,-38 -36,-72 7,-34 17,-41 33,-23 8,11 8,20 1,34 -12,22 -6,32 21,32 30,0 21,-38 -22,-89 -59,-69 -55,-83 22,-79 51,2 63,6 66,21 5,23 -18,53 -28,36 -4,-6 -15,-9 -25,-7 -15,3 -14,7 9,31 31,34 41,68 27,95 -13,24 -39,32 -68,21 z"
       id="path3015" />
    <path
       inkscape:connector-curvature="0"
       d="m 3945,6210 c -10,-11 -37,-32 -60,-47 -47,-29 -74,-63 -52,-63 8,0 24,11 37,25 13,14 29,25 35,25 6,0 29,18 50,40 25,26 34,40 24,40 -9,0 -24,-9 -34,-20 z"
       id="path3017" />
    <path
       inkscape:connector-curvature="0"
       d="m 4752,6209 c 5,-14 186,-64 196,-54 9,9 -3,15 -74,36 -103,31 -127,34 -122,18 z"
       id="path3019" />
    <path
       inkscape:connector-curvature="0"
       d="m 5030,6135 c 0,-7 10,-15 23,-18 12,-3 49,-12 82,-21 102,-26 145,-16 50,12 -112,33 -155,40 -155,27 z"
       id="path3021" />
    <path
       inkscape:connector-curvature="0"
       d="m 5290,6071 c 0,-16 145,-61 198,-61 35,0 18,17 -25,25 -21,4 -56,13 -78,20 -64,21 -95,26 -95,16 z"
       id="path3023" />
    <path
       inkscape:connector-curvature="0"
       d="m 3750,6062 c 0,-5 -29,-29 -65,-55 -36,-26 -65,-51 -65,-57 0,-15 11,-12 34,9 12,11 27,21 34,23 16,4 92,70 92,81 0,4 -7,7 -15,7 -8,0 -15,-4 -15,-8 z"
       id="path3025" />
    <path
       inkscape:connector-curvature="0"
       d="m 5586,5991 c -4,-5 20,-17 51,-25 32,-9 72,-20 88,-25 56,-17 93,-22 99,-13 6,10 -30,22 -134,47 -36,9 -72,18 -82,21 -9,3 -19,0 -22,-5 z"
       id="path3027" />
    <path
       inkscape:connector-curvature="0"
       d="m 1251,5924 c -12,-15 -21,-41 -21,-59 0,-18 9,-44 21,-59 17,-21 28,-26 62,-25 23,1 53,4 67,8 16,5 43,1 75,-10 28,-9 93,-27 145,-39 52,-12 118,-28 147,-37 49,-15 52,-18 55,-52 3,-40 18,-45 87,-31 20,5 76,11 125,15 133,9 135,15 35,76 -39,24 -94,61 -122,82 -28,20 -57,37 -65,37 -7,0 -18,-13 -23,-30 -12,-34 -25,-36 -84,-16 -22,8 -58,19 -80,25 -22,6 -93,24 -157,42 -65,17 -118,36 -118,42 0,6 -12,22 -27,34 -38,33 -95,31 -122,-3 z"
       id="path3029" />
    <path
       inkscape:connector-curvature="0"
       d="m 5910,5900 c 0,-5 2,-10 4,-10 3,0 131,-33 236,-60 19,-5 44,-10 55,-10 31,0 2,21 -42,30 -21,5 -82,20 -136,34 -109,29 -117,30 -117,16 z"
       id="path3031" />
    <path
       inkscape:connector-curvature="0"
       d="m 3519,5877 c -15,-12 -52,-42 -83,-66 -31,-24 -56,-48 -56,-52 0,-15 34,3 76,40 22,20 56,48 74,62 19,14 30,28 24,31 -5,4 -21,-4 -35,-15 z"
       id="path3033" />
    <path
       inkscape:connector-curvature="0"
       d="m 4880,5841 c 0,-5 5,-11 12,-13 8,-3 13,-38 15,-105 3,-84 1,-102 -12,-106 -8,-4 -15,-11 -15,-17 0,-6 43,-10 115,-10 l 115,0 0,40 c 0,45 -15,52 -32,15 -9,-21 -18,-25 -55,-25 l -43,0 0,45 c 0,37 3,45 19,45 11,0 21,-9 24,-21 10,-37 27,-10 27,42 0,53 -8,61 -28,29 -7,-11 -19,-20 -27,-20 -15,0 -17,5 -17,40 0,11 0,25 1,30 1,6 21,10 46,10 38,0 45,-3 45,-19 0,-11 4,-22 9,-25 14,-9 33,21 29,46 -3,22 -7,23 -115,26 -67,1 -113,-1 -113,-7 z"
       id="path3035" />
    <path
       inkscape:connector-curvature="0"
       d="m 6272,5809 c 3,-8 40,-23 86,-34 44,-11 84,-24 88,-28 7,-6 -91,-57 -111,-57 -27,0 -130,-51 -126,-62 15,-50 13,-55 -41,-91 -29,-20 -73,-55 -98,-77 -24,-22 -47,-40 -51,-40 -3,0 -18,-10 -31,-22 -14,-13 -52,-43 -83,-68 -75,-60 -136,-108 -159,-126 -10,-9 -62,-49 -115,-90 -53,-41 -111,-87 -130,-102 -18,-15 -41,-31 -50,-36 -9,-5 -25,-19 -36,-30 -11,-12 -44,-38 -74,-60 l -54,-38 -61,17 c -34,10 -86,24 -116,31 -30,7 -86,22 -125,33 -106,29 -306,82 -345,91 -19,4 -62,15 -95,24 -32,9 -67,16 -76,16 -10,0 -19,4 -21,8 -1,5 -37,16 -78,26 -122,28 -142,33 -200,50 -30,9 -102,28 -160,42 -58,14 -114,30 -125,35 -11,5 -40,14 -65,19 -92,23 -117,29 -210,54 -147,38 -210,55 -274,73 l -58,16 6,39 c 8,47 8,47 -166,32 -49,-4 -88,-3 -88,1 0,4 18,26 41,47 23,22 39,42 35,45 -6,6 -10,3 -101,-66 l -58,-44 44,-38 c 24,-21 49,-39 55,-39 6,0 33,-17 60,-37 62,-48 119,-77 133,-69 6,4 11,16 11,27 0,21 -1,21 110,-8 71,-18 209,-55 330,-88 113,-31 123,-33 133,-34 20,-2 0,-32 -63,-95 -65,-64 -85,-96 -60,-96 6,0 10,-5 10,-10 0,-12 -110,-176 -140,-207 -11,-12 -20,-25 -20,-29 0,-6 -72,-115 -198,-299 l -69,-100 -72,-3 c -51,-2 -71,-6 -68,-15 2,-8 27,-12 72,-11 65,1 70,3 97,35 45,53 47,56 41,63 -4,3 -1,6 5,6 7,0 12,6 12,13 0,6 14,28 30,47 16,19 34,40 39,46 6,7 7,15 4,18 -4,3 -1,6 5,6 7,0 12,6 12,13 0,7 13,28 28,47 16,19 39,53 52,75 13,22 36,56 52,75 16,19 33,40 38,47 6,7 10,18 10,24 0,12 68,101 82,107 5,2 5,9 2,14 -5,8 3,9 23,5 29,-6 31,-3 57,53 14,33 26,66 26,73 0,7 4,17 10,23 5,5 11,22 12,37 2,19 7,26 18,23 8,-2 40,-10 70,-16 30,-7 75,-19 100,-27 25,-8 95,-28 155,-44 61,-17 153,-41 205,-55 52,-14 138,-37 190,-50 52,-13 102,-26 110,-29 8,-2 65,-16 125,-30 61,-14 121,-30 135,-35 14,-5 36,-11 50,-14 14,-2 52,-12 85,-21 33,-9 69,-19 80,-22 11,-3 32,-7 48,-10 15,-3 27,-8 27,-12 0,-17 71,-2 101,22 77,60 132,104 168,135 21,17 43,32 48,32 6,0 17,7 24,17 8,9 39,34 69,56 30,23 57,45 59,50 2,5 16,16 31,26 16,9 48,33 72,53 24,20 63,53 88,74 l 45,37 5,-124 c 5,-121 5,-123 30,-129 20,-5 26,-14 32,-45 25,-151 25,-153 83,-430 8,-38 19,-97 26,-130 6,-33 17,-87 24,-120 8,-33 16,-76 20,-95 15,-85 38,-170 46,-170 12,0 11,11 -5,83 -13,52 -29,132 -52,257 -3,14 -18,90 -35,170 -16,80 -41,204 -55,275 -14,72 -29,147 -33,167 -5,20 -4,43 0,50 5,7 9,9 9,4 0,-6 5,-5 11,1 7,7 -3,44 -37,126 l -47,116 32,30 c 17,16 44,38 60,48 16,10 66,48 112,86 45,37 87,67 92,67 6,0 21,-9 33,-21 l 22,-20 26,28 c 14,15 33,44 42,63 9,19 24,44 34,55 9,11 34,46 54,78 l 36,57 -22,10 c -32,13 -157,49 -197,56 -26,6 -33,4 -29,-7 z"
       id="path3037" />
    <path
       inkscape:connector-curvature="0"
       d="m 1400,5688 c -11,-18 -20,-36 -20,-40 0,-15 18,-17 36,-4 16,12 23,12 46,0 26,-13 28,-13 28,4 0,17 -48,72 -63,72 -4,0 -16,-15 -27,-32 z"
       id="path3039" />
    <path
       inkscape:connector-curvature="0"
       d="m 3254,5669 c -38,-28 -76,-55 -84,-59 -23,-13 -3,-24 23,-13 13,6 45,29 71,52 26,23 51,41 56,41 4,0 10,7 14,15 9,25 -8,17 -80,-36 z"
       id="path3041" />
    <path
       inkscape:connector-curvature="0"
       d="m 2175,5630 c 3,-5 14,-10 24,-10 10,0 21,-3 25,-7 4,-4 57,-20 119,-36 62,-16 135,-35 162,-42 236,-64 390,-104 393,-100 8,8 -10,25 -27,25 -10,0 -21,3 -24,7 -4,3 -46,16 -94,29 -49,12 -140,37 -203,54 -63,17 -140,38 -170,45 -30,7 -80,21 -110,29 -63,18 -104,21 -95,6 z"
       id="path3043" />
    <path
       inkscape:connector-curvature="0"
       d="m 1386,5578 c -15,-8 -15,-10 0,-25 16,-16 16,-70 -1,-120 -7,-22 -5,-23 44,-23 37,0 51,4 51,14 0,8 -5,16 -11,18 -9,3 -14,39 -10,76 0,6 9,12 20,12 23,0 45,25 38,43 -6,16 -105,20 -131,5 z"
       id="path3045" />
    <path
       inkscape:connector-curvature="0"
       d="m 1567,5508 c -47,-37 -39,-156 13,-183 26,-13 30,-13 55,7 26,20 28,20 40,4 10,-13 25,-16 67,-14 53,3 53,3 56,38 2,32 1,33 -12,17 -9,-12 -24,-17 -43,-15 l -28,3 26,25 c 14,14 33,37 43,51 15,25 15,27 -5,52 -26,34 -61,35 -87,2 l -19,-24 -29,24 c -32,28 -52,31 -77,13 z m 53,-34 c 12,-31 13,-94 1,-113 -5,-8 -16,-11 -25,-8 -15,6 -22,55 -17,107 5,47 26,54 41,14 z m 130,-7 c 0,-51 -53,-123 -79,-108 -10,6 -10,13 -2,28 5,11 7,23 4,27 -3,3 6,6 20,6 27,0 38,22 17,35 -20,12 -10,35 15,35 20,0 25,-5 25,-23 z"
       id="path3047" />
    <path
       inkscape:connector-curvature="0"
       d="m 2370,5468 c -27,-10 -42,-50 -24,-61 9,-5 11,-15 5,-30 -13,-37 -8,-71 12,-75 9,-2 19,2 21,10 2,7 9,32 15,56 9,30 19,46 37,52 16,7 24,17 24,34 0,22 -4,24 -35,23 -20,-1 -44,-5 -55,-9 z"
       id="path3049" />
    <path
       inkscape:connector-curvature="0"
       d="m 2471,5374 c -37,-48 -37,-121 2,-171 24,-32 99,11 109,62 2,12 11,20 23,20 20,0 24,17 14,55 -3,10 4,15 21,15 29,0 41,-33 16,-47 -9,-5 -16,-14 -16,-20 0,-6 -14,-24 -31,-39 -47,-42 -34,-61 38,-57 55,3 58,4 61,31 2,15 2,27 0,27 -2,0 -18,-4 -36,-9 -40,-12 -40,-4 -2,37 35,39 38,74 10,102 -26,26 -36,25 -66,-5 -31,-31 -43,-31 -73,0 -29,32 -44,31 -70,-1 z m 60,-35 c 12,-41 10,-84 -5,-105 -11,-14 -18,-16 -26,-8 -12,12 -16,116 -5,134 10,17 29,6 36,-21 z"
       id="path3051" />
    <path
       inkscape:connector-curvature="0"
       d="m 5210,4750 c -15,-21 -106,-95 -175,-142 -22,-15 -67,-50 -100,-78 -33,-27 -78,-62 -100,-77 -22,-14 -44,-32 -50,-38 -5,-7 -26,-23 -45,-36 -19,-13 -51,-39 -70,-56 -19,-18 -37,-33 -41,-33 -4,0 -27,-16 -51,-35 -23,-19 -62,-49 -86,-67 -23,-18 -64,-51 -91,-73 -27,-22 -79,-62 -116,-90 -37,-27 -75,-57 -84,-66 -10,-8 -36,-29 -58,-45 -22,-16 -66,-49 -98,-74 -31,-25 -74,-58 -95,-75 -21,-16 -76,-58 -122,-92 -45,-35 -101,-77 -122,-95 -22,-18 -49,-39 -60,-47 -12,-8 -38,-28 -58,-45 -20,-17 -49,-41 -65,-53 -25,-19 -55,-43 -170,-133 -17,-14 -58,-45 -90,-70 -32,-24 -62,-48 -68,-52 -25,-20 -200,-156 -229,-178 -78,-59 -147,-113 -337,-264 -8,-7 -40,-31 -70,-54 -30,-22 -76,-59 -104,-81 -27,-22 -61,-48 -75,-58 -49,-34 -155,-117 -165,-128 -5,-6 -30,-25 -55,-43 -25,-18 -66,-49 -92,-70 -84,-67 -238,-186 -276,-214 -20,-15 -42,-31 -47,-36 -19,-16 -237,-187 -270,-212 -18,-14 -58,-45 -90,-70 -87,-69 -136,-106 -180,-137 -22,-15 -46,-36 -53,-46 -7,-9 -27,-24 -43,-33 -16,-8 -54,-37 -85,-64 -30,-28 -58,-50 -64,-50 -12,0 -60,-48 -60,-60 0,-17 18,-11 42,13 13,12 45,38 71,57 78,56 110,81 190,147 41,35 78,63 82,63 3,0 25,18 48,39 43,40 73,63 160,122 26,18 47,36 47,40 0,5 19,19 43,33 23,14 56,39 72,56 16,16 34,30 41,30 7,0 17,6 21,13 4,8 35,34 68,59 33,25 69,55 79,67 11,11 23,21 28,21 5,0 54,36 109,80 54,44 102,80 107,80 4,0 22,16 41,35 19,19 38,35 42,35 5,0 32,20 61,45 114,96 126,105 135,105 5,0 27,18 48,40 21,22 44,40 50,40 7,0 20,10 31,21 10,12 45,40 77,63 102,72 121,87 147,110 14,13 30,25 36,27 12,4 94,72 149,124 18,17 44,36 58,44 15,8 35,21 44,30 10,9 36,29 58,46 22,16 50,40 63,52 13,13 27,23 32,23 4,0 28,16 52,35 23,19 67,54 96,78 29,23 72,59 96,80 24,20 48,37 54,37 6,0 27,16 48,35 20,19 41,35 45,35 5,0 30,20 55,45 26,24 51,42 55,39 5,-3 9,-1 9,5 0,9 154,131 166,131 3,0 24,18 47,39 44,41 83,71 152,117 22,14 45,31 50,38 11,12 135,111 210,166 26,19 69,54 95,78 26,23 51,42 55,42 4,0 27,17 50,38 23,20 73,60 109,87 37,28 81,62 98,77 17,15 35,25 39,22 5,-3 9,-1 9,3 0,5 24,27 53,48 96,73 162,125 196,156 18,17 39,28 47,25 8,-3 14,-1 14,5 0,11 71,79 83,79 5,0 25,16 45,35 25,23 33,38 26,45 -7,7 -14,3 -24,-10 z"
       id="path3053" />
    <path
       inkscape:connector-curvature="0"
       d="m 2601,4702 c -11,-17 -21,-37 -21,-46 0,-18 21,-21 36,-6 7,7 19,8 37,1 23,-9 27,-8 27,7 0,10 -13,31 -29,46 l -29,27 -21,-29 z"
       id="path3055" />
    <path
       inkscape:connector-curvature="0"
       d="m 2373,4664 c -17,-7 -16,-24 1,-24 10,0 16,-22 21,-77 7,-71 5,-78 -14,-93 -29,-21 -17,-30 41,-30 49,0 62,11 32,28 -13,7 -17,28 -18,103 -1,93 -1,94 -26,96 -14,1 -31,-1 -37,-3 z"
       id="path3057" />
    <path
       inkscape:connector-curvature="0"
       d="m 2589,4604 c 0,-2 -1,-37 -1,-76 l -1,-73 29,0 c 28,0 29,2 26,41 -3,35 1,44 23,58 40,26 29,47 -27,51 -27,1 -48,1 -49,-1 z"
       id="path3059" />
    <path
       inkscape:connector-curvature="0"
       d="m 5036,4522 c -23,-47 -28,-71 -28,-126 0,-58 5,-75 33,-122 31,-50 49,-67 49,-45 0,5 -11,32 -25,59 -17,35 -25,66 -25,103 0,53 21,132 42,156 10,12 3,33 -10,33 -4,0 -20,-26 -36,-58 z"
       id="path3061" />
    <path
       inkscape:connector-curvature="0"
       d="m 5910,4577 c 0,-3 11,-29 25,-59 32,-69 34,-165 5,-223 -22,-43 -24,-55 -12,-55 5,0 21,26 37,58 44,88 40,159 -13,246 -16,26 -42,46 -42,33 z"
       id="path3063" />
    <path
       inkscape:connector-curvature="0"
       d="m 2764,4538 c -44,-21 -56,-91 -27,-153 25,-52 80,-60 104,-14 13,25 22,54 20,65 -1,7 9,9 25,6 23,-4 26,-2 22,14 -3,10 -7,26 -9,34 -3,9 5,16 19,18 38,6 29,-46 -18,-98 -22,-25 -40,-48 -40,-52 0,-14 25,-22 63,-19 24,1 36,-2 32,-8 -4,-7 -175,-11 -497,-11 -269,0 -495,-3 -501,-7 -6,-4 -5,-10 5,-17 17,-13 1067,-14 1088,-1 18,11 -7,25 -47,25 -35,0 -40,9 -21,39 14,24 3,60 -14,43 -7,-7 -18,-12 -26,-12 -9,0 -5,10 11,33 33,43 42,84 23,102 -21,21 -70,18 -91,-5 -23,-26 -28,-25 -61,5 -30,28 -30,28 -60,13 z m 50,-73 c 7,-44 0,-95 -14,-95 -16,0 -29,27 -31,65 -5,87 33,112 45,30 z"
       id="path3065" />
    <path
       inkscape:connector-curvature="0"
       d="m 2030,4526 c 0,-8 8,-17 18,-20 28,-9 192,-4 199,7 11,17 -17,23 -117,25 -82,2 -100,0 -100,-12 z"
       id="path3067" />
    <path
       inkscape:connector-curvature="0"
       d="m 5448,4458 c -25,-17 -42,-58 -20,-44 5,3 7,-17 4,-44 -6,-61 9,-84 50,-76 31,6 35,-1 14,-30 -13,-16 -18,-17 -35,-7 -22,14 -37,2 -27,-22 6,-16 53,-20 74,-7 7,5 21,24 31,43 22,40 56,187 47,197 -15,14 -40,-16 -51,-61 -10,-41 -49,-97 -59,-86 -2,2 1,35 6,72 6,39 7,72 2,77 -5,5 -21,0 -36,-12 z"
       id="path3069" />
    <path
       inkscape:connector-curvature="0"
       d="m 5172,4440 c -12,-16 -18,-31 -13,-34 5,-4 12,-2 16,4 3,5 13,10 21,10 20,0 20,-79 -1,-85 -8,-3 -22,-7 -30,-10 -17,-5 -9,-35 10,-35 7,0 18,7 25,15 11,13 15,12 38,-5 l 25,-20 23,21 c 26,24 24,40 -5,32 -14,-4 -19,2 -23,25 -5,38 2,56 27,60 31,6 38,18 19,36 -15,16 -18,16 -35,0 -16,-15 -20,-15 -41,0 -29,20 -29,20 -56,-14 z"
       id="path3071" />
    <path
       inkscape:connector-curvature="0"
       d="m 5718,4445 c -20,-26 -23,-45 -8,-45 6,0 10,5 10,10 0,6 11,10 25,10 35,0 31,-18 -16,-69 -35,-38 -38,-46 -24,-53 10,-6 21,-5 31,3 12,9 20,9 38,-1 13,-6 33,-9 45,-5 21,6 38,46 27,64 -9,14 -38,1 -32,-14 3,-8 -4,-10 -20,-7 -33,6 -30,18 16,73 22,26 40,49 40,51 0,2 -26,4 -57,5 -50,1 -60,-2 -75,-22 z"
       id="path3073" />
    <path
       inkscape:connector-curvature="0"
       d="m 5620,4327 c 0,-7 5,-18 12,-25 9,-9 7,-16 -7,-32 -30,-33 -7,-36 26,-3 28,27 30,32 18,52 -15,23 -49,29 -49,8 z"
       id="path3075" />
    <path
       inkscape:connector-curvature="0"
       d="m 5337,4324 c -4,-4 0,-15 8,-24 14,-16 14,-19 0,-34 -14,-14 -14,-16 -1,-16 23,0 47,30 44,54 -3,21 -37,34 -51,20 z"
       id="path3077" />
    <path
       inkscape:connector-curvature="0"
       d="m 2728,4255 c -15,-8 -29,-24 -33,-35 -9,-27 3,-60 21,-60 21,0 17,-30 -7,-56 -35,-37 -20,-50 47,-44 47,4 60,9 62,24 6,28 -12,40 -38,26 -23,-12 -43,-4 -22,9 18,11 51,75 48,94 -2,17 -35,57 -45,57 -3,-1 -18,-7 -33,-15 z m 26,-31 c 19,-7 21,-35 5,-51 -9,-9 -17,-6 -31,12 -27,34 -13,54 26,39 z"
       id="path3079" />
    <path
       inkscape:connector-curvature="0"
       d="m 2340,4105 c -21,-22 -20,-53 1,-40 11,7 11,-22 0,-50 -10,-25 -3,-45 15,-45 7,0 18,19 24,43 6,23 12,46 14,52 1,5 11,10 22,10 21,0 31,32 15,48 -8,8 -14,8 -23,-1 -7,-7 -17,-8 -28,-2 -13,7 -23,3 -40,-15 z"
       id="path3081" />
    <path
       inkscape:connector-curvature="0"
       d="m 2474,4050 c -28,-11 -48,-71 -40,-115 8,-42 57,-86 87,-78 13,4 30,24 43,53 15,32 27,46 39,44 20,-3 21,5 7,40 -5,14 -5,28 -1,31 15,8 41,-6 41,-22 0,-16 -33,-66 -62,-95 -35,-35 0,-59 72,-48 23,3 36,11 38,24 5,22 -18,48 -25,29 -3,-7 -13,-13 -24,-13 -12,0 -16,5 -13,15 4,8 12,15 19,15 6,0 19,18 27,39 12,31 13,44 4,63 -17,35 -60,36 -91,2 l -26,-28 -25,27 c -26,29 -36,31 -70,17 z m 46,-46 c 21,-55 7,-123 -23,-111 -15,6 -25,60 -19,110 4,34 29,36 42,1 z"
       id="path3083" />
    <path
       inkscape:connector-curvature="0"
       d="m 6384,3885 c -17,-37 -13,-58 8,-37 16,16 38,15 59,-4 27,-24 31,0 6,37 -31,47 -52,48 -73,4 z"
       id="path3085" />
    <path
       inkscape:connector-curvature="0"
       d="m 5857,3853 c -4,-3 -7,-28 -7,-55 l 0,-48 -54,0 c -30,0 -57,-4 -60,-8 -11,-19 14,-34 60,-36 l 49,-1 3,-58 c 3,-49 6,-58 20,-55 13,2 18,16 20,56 3,55 3,55 63,52 37,-1 66,20 54,40 -3,5 -31,10 -62,10 l -55,0 4,55 c 4,46 2,55 -12,55 -9,0 -20,-3 -23,-7 z"
       id="path3087" />
    <path
       inkscape:connector-curvature="0"
       d="m 6163,3850 c -23,-9 -43,-39 -43,-63 0,-8 9,-25 19,-38 18,-22 20,-22 26,-6 5,11 1,25 -9,36 -14,16 -15,20 -2,30 8,7 23,11 33,9 25,-5 23,-72 -3,-97 -57,-56 -76,-83 -67,-92 6,-6 39,-9 73,-7 63,3 64,3 72,37 11,39 2,53 -17,28 -9,-12 -23,-17 -41,-15 l -29,3 37,40 c 38,42 46,67 35,101 -6,16 -48,47 -60,43 -1,0 -12,-4 -24,-9 z"
       id="path3089" />
    <path
       inkscape:connector-curvature="0"
       d="m 6357,3783 c -3,-3 -2,-16 4,-30 5,-14 5,-40 0,-63 -10,-45 0,-60 39,-60 26,0 27,1 22,55 -4,46 -2,54 10,50 19,-8 45,22 31,36 -11,11 -98,21 -106,12 z"
       id="path3091" />
    <path
       inkscape:connector-curvature="0"
       d="m 6529,3721 c -18,-14 -23,-31 -27,-77 -4,-53 -1,-62 22,-86 41,-45 75,-34 104,35 16,37 15,58 -4,96 -15,29 -41,51 -62,51 -5,0 -20,-8 -33,-19 z m 59,-65 c 4,-61 -4,-96 -22,-96 -16,0 -26,30 -26,82 0,49 9,70 29,66 12,-2 17,-17 19,-52 z"
       id="path3093" />
    <path
       inkscape:connector-curvature="0"
       d="m 6666,3721 c -4,-5 -2,-12 4,-16 5,-3 10,-33 10,-65 0,-47 -4,-63 -21,-79 -24,-22 -15,-31 34,-33 45,-2 64,10 42,26 -12,9 -17,31 -18,91 -2,74 -4,80 -24,83 -11,2 -24,-1 -27,-7 z"
       id="path3095" />
    <path
       inkscape:connector-curvature="0"
       d="m 5102,3593 c -12,-33 -8,-256 6,-260 8,-3 12,9 12,41 0,34 4,46 15,47 8,1 20,3 25,4 6,1 18,4 28,5 9,1 -1,8 -23,14 -37,12 -40,15 -43,54 -4,51 12,82 41,82 12,1 36,7 52,15 29,13 28,13 -38,14 -56,1 -69,-2 -75,-16 z"
       id="path3097" />
    <path
       inkscape:connector-curvature="0"
       d="m 5331,3529 c -38,-15 -12,-31 34,-21 46,9 60,32 18,31 -15,0 -39,-5 -52,-10 z"
       id="path3099" />
    <path
       inkscape:connector-curvature="0"
       d="m 6726,3513 c -3,-3 -242,-7 -532,-9 -290,-2 -529,-6 -531,-8 -24,-23 39,-26 571,-26 498,1 604,5 585,24 -8,8 -88,24 -93,19 z"
       id="path3101" />
    <path
       inkscape:connector-curvature="0"
       d="m 6440,3430 c -21,-29 -21,-32 -6,-55 9,-14 21,-25 26,-25 13,0 13,27 0,35 -20,12 -10,35 15,35 40,0 33,-44 -15,-101 -22,-26 -40,-51 -40,-56 0,-11 101,-11 118,0 14,9 17,67 3,67 -5,0 -14,-7 -21,-15 -7,-8 -20,-15 -29,-15 -12,1 -9,7 12,25 15,13 30,38 34,55 14,75 -54,110 -97,50 z"
       id="path3103" />
    <path
       inkscape:connector-curvature="0"
       d="m 5323,3443 c -37,-7 -26,-23 16,-23 22,0 44,6 51,15 11,13 8,15 -16,14 -16,-1 -39,-4 -51,-6 z"
       id="path3105" />
    <path
       inkscape:connector-curvature="0"
       d="m 6177,3269 c -9,-6 -26,-7 -37,-4 -14,5 -26,-1 -40,-17 -22,-26 -26,-53 -7,-45 8,3 12,-9 12,-42 0,-63 26,-64 40,-1 12,53 23,73 36,65 11,-7 22,18 17,39 -2,11 -7,12 -21,5 z"
       id="path3107" />
    <path
       inkscape:connector-curvature="0"
       d="m 6252,3199 c -13,-5 -30,-26 -39,-46 -13,-32 -14,-46 -4,-83 13,-49 33,-70 68,-70 32,0 55,41 56,101 0,43 -4,55 -29,79 -23,23 -33,26 -52,19 z m 48,-92 c 0,-59 -11,-83 -33,-74 -20,8 -32,84 -18,120 9,24 14,26 31,17 16,-9 20,-21 20,-63 z"
       id="path3109" />
    <path
       inkscape:connector-curvature="0"
       d="m 6370,3190 c -13,-9 -13,-12 3,-21 13,-8 17,-24 17,-75 0,-57 -3,-67 -20,-71 -33,-9 -12,-23 35,-23 49,0 66,14 36,30 -17,9 -21,22 -23,88 -3,80 -13,95 -48,72 z"
       id="path3111" />
    <path
       inkscape:connector-curvature="0"
       d="m 3033,2890 c -27,-33 -30,-52 -7,-43 12,5 15,1 11,-13 -17,-55 -19,-94 -6,-94 27,0 40,17 45,55 5,45 19,65 44,65 22,0 34,28 19,46 -7,9 -17,11 -28,4 -10,-5 -23,-5 -32,1 -20,12 -21,12 -46,-21 z"
       id="path3113" />
    <path
       inkscape:connector-curvature="0"
       d="m 3203,2817 c -49,-22 -59,-117 -17,-166 32,-38 56,-39 83,-5 15,20 21,41 21,80 0,30 -4,54 -9,54 -5,0 -11,8 -14,18 -5,23 -35,32 -64,19 z m 50,-112 c -7,-52 -20,-66 -39,-41 -21,29 -19,112 4,125 24,14 43,-31 35,-84 z"
       id="path3115" />
    <path
       inkscape:connector-curvature="0"
       d="m 3326,2811 c -4,-5 -2,-12 4,-16 5,-3 10,-38 10,-76 0,-53 -4,-71 -15,-75 -30,-12 -14,-24 29,-24 48,0 67,13 40,28 -14,8 -17,26 -18,88 -1,73 -3,79 -23,82 -11,2 -24,-1 -27,-7 z"
       id="path3117" />
    <path
       inkscape:connector-curvature="0"
       d="m 157,1638 c -17,-26 -23,-44 -16,-47 6,-2 16,2 22,8 14,14 50,14 65,-1 6,-6 15,-9 19,-5 10,10 -30,81 -48,85 -8,1 -27,-17 -42,-40 z"
       id="path3119" />
    <path
       inkscape:connector-curvature="0"
       d="m 130,1525 c 0,-8 5,-17 10,-20 15,-9 12,-66 -5,-99 -9,-16 -14,-30 -13,-31 2,-2 25,-5 51,-7 46,-5 72,7 49,21 -12,7 -16,30 -14,69 1,14 8,22 20,22 23,0 42,19 42,41 0,14 -11,17 -70,17 -53,1 -70,-2 -70,-13 z"
       id="path3121" />
    <path
       inkscape:connector-curvature="0"
       d="m 303,1423 c -25,-33 -28,-44 -23,-79 13,-87 63,-119 110,-69 31,33 38,111 12,141 -16,19 -53,44 -66,44 -2,0 -17,-17 -33,-37 z m 68,-31 c 14,-36 2,-112 -17,-112 -20,0 -32,37 -29,87 6,69 25,80 46,25 z"
       id="path3123" />
    <path
       inkscape:connector-curvature="0"
       d="m 444,1438 c -4,-6 -2,-14 4,-16 8,-2 12,-29 12,-73 0,-56 -3,-69 -16,-69 -9,0 -14,-6 -12,-12 6,-16 98,-24 98,-8 0,6 -7,13 -15,16 -12,5 -15,25 -15,90 0,82 0,84 -24,84 -14,0 -28,-5 -32,-12 z"
       id="path3125" />
    <path
       inkscape:connector-curvature="0"
       d="m 718,1306 c -70,-23 -131,-45 -134,-49 -4,-4 -16,-7 -27,-7 -10,0 -17,-3 -15,-7 2,-5 10,-20 17,-35 13,-25 12,-30 -5,-49 -10,-12 -31,-27 -46,-35 -15,-8 -44,-30 -65,-49 -21,-19 -41,-35 -46,-35 -4,0 -20,-11 -35,-25 -15,-14 -64,-52 -107,-85 -65,-48 -86,-59 -115,-58 -47,2 -78,-20 -91,-63 -15,-49 8,-95 53,-107 44,-11 108,19 108,51 1,27 25,57 77,94 22,15 88,66 147,113 59,47 128,100 154,118 l 47,32 21,-26 22,-27 28,44 c 54,87 74,114 99,141 14,15 25,33 25,39 0,7 8,21 17,31 34,38 -2,37 -129,-6 z"
       id="path3127" />
    <path
       inkscape:connector-curvature="0"
       d="m 1061,584 c -35,-15 -54,-53 -45,-90 5,-21 30,-44 48,-44 13,0 5,48 -9,54 -13,5 -14,10 -5,26 13,24 48,24 63,-1 16,-26 1,-60 -53,-118 -73,-79 -66,-94 37,-85 79,7 83,9 83,48 0,40 -19,58 -27,27 -4,-16 -13,-21 -40,-21 -40,0 -41,-4 24,74 37,45 40,66 16,106 -20,34 -50,42 -92,24 z"
       id="path3129" />
    <path
       inkscape:connector-curvature="0"
       d="m 777,584 c -4,-4 -7,-29 -7,-55 0,-52 -8,-59 -69,-59 -45,0 -54,-7 -40,-31 7,-15 21,-19 59,-19 l 50,0 0,-49 c 0,-54 12,-70 36,-50 10,9 14,25 11,56 -4,47 -4,47 66,44 26,-1 39,4 44,15 9,25 -13,38 -61,35 l -45,-2 -3,58 c -2,43 -7,59 -18,61 -9,1 -19,0 -23,-4 z"
       id="path3131" />
    <path
       inkscape:connector-curvature="0"
       d="m 348,522 c -50,-2 -68,-7 -68,-17 0,-24 18,-27 146,-30 96,-2 127,1 136,12 6,8 7,17 2,23 -11,10 -120,16 -216,12 z"
       id="path3133" />
    <path
       inkscape:connector-curvature="0"
       d="m 1467,492 c -25,-26 -26,-29 -11,-51 9,-12 27,-26 40,-31 14,-6 24,-18 24,-30 0,-23 -17,-26 -39,-6 -24,21 -53,22 -83,2 -34,-22 -71,-7 -66,27 3,19 10,22 46,23 59,1 72,16 45,51 -36,50 -108,41 -138,-17 -32,-62 16,-138 79,-124 17,3 40,15 52,25 25,24 36,24 32,2 -3,-15 5,-18 47,-18 42,0 51,3 61,24 16,32 0,67 -37,80 -32,11 -38,28 -13,38 10,4 22,-1 30,-11 16,-22 34,-13 27,13 -4,17 -30,30 -59,31 -5,0 -22,-13 -37,-28 z m -89,-25 c 3,-12 -3,-17 -22,-17 -28,0 -29,1 -20,25 8,20 38,15 42,-8 z"
       id="path3135" />
    <path
       inkscape:connector-curvature="0"
       d="m 0,375 c 0,-136 11,-168 26,-78 10,63 11,67 13,73 4,8 8,30 16,78 5,28 4,42 -4,43 -20,3 -26,4 -38,12 C 3,509 0,482 0,375 z"
       id="path3137" />
    <path
       inkscape:connector-curvature="0"
       d="m 1590,500 c -10,-7 -12,-12 -4,-17 6,-5 14,-37 18,-72 3,-36 12,-68 19,-73 14,-9 119,-4 137,7 8,5 9,10 1,18 -6,6 -11,39 -11,74 l 0,63 -36,0 c -31,0 -35,-2 -24,-15 15,-18 15,-104 1,-118 -21,-21 -41,2 -43,50 -1,26 -2,57 -2,68 -1,23 -32,31 -56,15 z"
       id="path3139" />
    <path
       inkscape:connector-curvature="0"
       d="m 320,422 c -42,-4 -52,-12 -40,-32 7,-12 33,-15 122,-16 128,-1 162,5 166,29 2,9 0,17 -5,17 -66,3 -216,4 -243,2 z"
       id="path3141" />
    <path
       inkscape:connector-curvature="0"
       d="m 87,354 c -4,-4 -2,-13 5,-21 6,-8 12,-41 14,-74 2,-50 -1,-61 -17,-70 -11,-5 -17,-14 -14,-20 8,-12 92,-12 100,1 6,10 -19,43 -26,35 -2,-2 -4,31 -4,73 0,75 -1,77 -25,80 -14,2 -29,0 -33,-4 z"
       id="path3143" />
  </g>
  <rect
     style="fill:#b9b9b9;fill-opacity:1;stroke:none"
     id="rect3404"
     width="49.135342"
     height="11.000449"
     x="-5.1335406"
     y="165.33273" />
  <text
     xml:space="preserve"
     style="font-size:8px;font-style:normal;font-variant:normal;font-weight:normal;font-stretch:normal;text-indent:0;text-align:start;text-decoration:none;line-height:125%;letter-spacing:0px;word-spacing:0px;text-transform:none;direction:ltr;block-progression:tb;writing-mode:lr-tb;text-anchor:start;baseline-shift:baseline;color:#000000;fill:#000000;fill-opacity:1;fill-rule:nonzero;stroke:none;stroke-width:0.99999994px;marker:none;visibility:visible;display:inline;overflow:visible;enable-background:accumulate;font-family:Sans;-inkscape-font-specification:Sans"
     x="-3.6668169"
     y="172.17746"
     id="text3394"
     sodipodi:linespacing="125%"><tspan
       sodipodi:role="line"
       id="tspan3396"
       x="-3.6668169"
       y="172.17746"
       style="font-size:8.64000034px;font-style:normal;font-variant:normal;font-weight:bold;font-stretch:normal;font-family:Linux Libertine O;-inkscape-font-specification:Linux Libertine O Bold"><tspan
   style="font-style:italic;-inkscape-font-specification:Linux Libertine O Bold Italic"
   id="tspan3402">q</tspan><tspan
   style="font-size:7.20000036px;font-style:normal;font-variant:normal;font-weight:bold;font-stretch:normal;baseline-shift:sub;font-family:Linux Libertine O;-inkscape-font-specification:Linux Libertine O Bold"
   id="tspan3400">1</tspan>=+2 esu</tspan></text>
  <rect
     style="fill:#b9b9b9;fill-opacity:1;stroke:none"
     id="rect3408"
     width="19.250786"
     height="21.69533"
     x="146.06151"
     y="110.10642"
     transform="matrix(0.80000004,0,0,0.80000004,0,-4.4878794e-6)" />
</svg>
