<?xml version="1.0" encoding="UTF-8" standalone="no"?>
<svg
   xmlns:dc="http://purl.org/dc/elements/1.1/"
   xmlns:cc="http://creativecommons.org/ns#"
   xmlns:rdf="http://www.w3.org/1999/02/22-rdf-syntax-ns#"
   xmlns:svg="http://www.w3.org/2000/svg"
   xmlns="http://www.w3.org/2000/svg"
   xmlns:sodipodi="http://sodipodi.sourceforge.net/DTD/sodipodi-0.dtd"
   xmlns:inkscape="http://www.inkscape.org/namespaces/inkscape"
   version="1.0"
   width="186.960000pt"
   height="166.320000pt"
   viewBox="0 0 186.960000 166.320000"
   preserveAspectRatio="xMidYMid meet"
   id="svg2"
   sodipodi:docname="gray.svg">
  <defs
     id="defs12" />
  <sodipodi:namedview
     pagecolor="#ffffff"
     bordercolor="#666666"
     borderopacity="1"
     objecttolerance="10"
     gridtolerance="10"
     guidetolerance="10"
     inkscape:pageopacity="0"
     inkscape:pageshadow="2"
     inkscape:window-width="1034"
     inkscape:window-height="771"
     id="namedview10"
     showgrid="false"
     inkscape:zoom="1.1351611"
     inkscape:cx="116.85001"
     inkscape:cy="103.95"
     inkscape:window-x="0"
     inkscape:window-y="0"
     inkscape:window-maximized="0"
     inkscape:current-layer="svg2" />
  <metadata
     id="metadata4">
Created by potrace 1.10, written by Peter Selinger 2001-2011
<rdf:RDF>
  <cc:Work
     rdf:about="">
    <dc:format>image/svg+xml</dc:format>
    <dc:type
       rdf:resource="http://purl.org/dc/dcmitype/StillImage" />
    <dc:title></dc:title>
  </cc:Work>
</rdf:RDF>
</metadata>
  <rect
     style="fill:#b9b9b9;fill-opacity:1;stroke:none"
     id="rect3352"
     width="222.51967"
     height="178.30067"
     x="-213.53796"
     y="-26.780338" />
  <g
     style="fill:#000000;stroke:none"
     transform="matrix(0.024,0,0,-0.024,-205.39439,141.46899)"
     id="g2993">
    <path
       inkscape:connector-curvature="0"
       d="m 7341,6074 c -41,-35 -57,-77 -41,-114 13,-32 39,-45 70,-35 18,6 19,3 14,-39 -6,-37 -4,-46 8,-46 23,0 34,19 47,80 20,96 22,105 27,125 3,11 7,27 10,35 3,12 -8,15 -52,16 -45,1 -61,-3 -83,-22 z m 79,-29 c 0,-44 -31,-95 -58,-95 -22,0 -23,3 -20,38 7,55 24,82 53,82 20,0 25,-5 25,-25 z"
       id="path2995" />
    <path
       inkscape:connector-curvature="0"
       d="m 7516,5941 c -3,-5 1,-11 9,-15 22,-8 21,-134 0,-142 -31,-12 -16,-34 24,-34 43,0 63,17 38,32 -14,7 -16,22 -12,88 l 5,80 -29,0 c -17,0 -32,-4 -35,-9 z"
       id="path2997" />
    <path
       inkscape:connector-curvature="0"
       d="m 5601,5922 c -8,-15 -7,-23 4,-32 21,-18 47,-4 43,22 -4,29 -34,35 -47,10 z"
       id="path2999" />
    <path
       inkscape:connector-curvature="0"
       d="m 7515,5655 c -17,-16 -25,-35 -25,-58 0,-31 -6,-38 -85,-91 -47,-32 -85,-61 -85,-66 0,-21 28,-13 80,22 32,21 62,38 68,38 6,0 15,8 21,17 8,15 12,16 35,3 29,-15 34,-55 15,-124 -6,-21 -8,-49 -4,-63 11,-45 31,-8 44,82 12,78 16,87 42,100 34,18 51,68 35,105 -25,62 -97,80 -141,35 z"
       id="path3001" />
    <path
       inkscape:connector-curvature="0"
       d="m 7220,5382 c -91,-54 -142,-94 -133,-103 6,-6 21,-4 39,3 37,16 164,109 164,120 0,15 -25,8 -70,-20 z"
       id="path3003" />
    <path
       inkscape:connector-curvature="0"
       d="m 7515,5238 c -25,-114 -24,-192 4,-162 9,9 31,124 31,162 0,29 -28,28 -35,0 z"
       id="path3005" />
    <path
       inkscape:connector-curvature="0"
       d="m 6965,5215 c -27,-19 -67,-46 -89,-60 -26,-18 -35,-30 -28,-37 12,-12 65,13 102,48 14,12 42,30 63,39 38,16 51,45 20,44 -10,0 -40,-16 -68,-34 z"
       id="path3007" />
    <path
       inkscape:connector-curvature="0"
       d="m 6698,5042 c -88,-62 -97,-70 -80,-81 9,-5 36,6 76,33 35,23 72,47 84,54 26,15 29,42 5,41 -10,0 -48,-22 -85,-47 z"
       id="path3009" />
    <path
       inkscape:connector-curvature="0"
       d="m 7481,4988 c -18,-48 -33,-190 -22,-201 19,-19 27,4 41,106 9,71 10,101 2,109 -8,8 -14,4 -21,-14 z"
       id="path3011" />
    <path
       inkscape:connector-curvature="0"
       d="m 6515,4919 c -22,-12 -53,-32 -69,-46 -15,-13 -42,-31 -58,-39 -23,-12 -27,-18 -18,-29 9,-10 24,-5 83,31 97,59 109,70 105,88 -3,14 -8,14 -43,-5 z"
       id="path3013" />
    <path
       inkscape:connector-curvature="0"
       d="m 6230,4731 c -76,-49 -123,-91 -101,-91 23,0 97,41 140,78 69,60 46,68 -39,13 z"
       id="path3015" />
    <path
       inkscape:connector-curvature="0"
       d="m 7432,4673 c -24,-124 -26,-163 -8,-163 8,0 18,10 21,23 10,43 24,181 19,189 -12,19 -22,4 -32,-49 z"
       id="path3017" />
    <path
       inkscape:connector-curvature="0"
       d="m 6015,4591 c -22,-15 -59,-40 -82,-56 -47,-30 -59,-61 -20,-49 12,4 40,20 62,36 22,16 55,38 73,49 32,21 44,49 20,49 -7,-1 -31,-13 -53,-29 z"
       id="path3019" />
    <path
       inkscape:connector-curvature="0"
       d="m 5790,4445 c -7,-8 -36,-29 -66,-46 -62,-35 -72,-47 -49,-55 10,-4 34,5 61,25 25,17 47,31 50,31 15,0 64,43 59,51 -9,14 -41,11 -55,-6 z"
       id="path3021" />
    <path
       inkscape:connector-curvature="0"
       d="m 7397,4453 c -2,-4 -8,-37 -12,-73 -4,-36 -11,-75 -16,-86 -5,-14 -3,-28 5,-39 18,-25 24,-11 41,92 12,74 12,90 1,101 -8,8 -16,10 -19,5 z"
       id="path3023" />
    <path
       inkscape:connector-curvature="0"
       d="m 4830,4407 c -21,-22 -26,-47 -11,-47 5,0 12,6 15,13 7,14 -1,-58 -10,-91 -6,-21 -4,-23 17,-20 20,2 26,12 38,61 11,49 17,58 32,54 24,-6 46,28 27,40 -28,17 -89,12 -108,-10 z"
       id="path3025" />
    <path
       inkscape:connector-curvature="0"
       d="m 4997,4322 c -15,-16 -15,-21 -2,-38 14,-19 15,-18 21,4 3,12 13,22 20,22 22,0 28,-29 11,-48 -15,-16 -15,-19 4,-30 27,-17 22,-56 -8,-60 -14,-2 -26,4 -33,17 -14,26 -30,27 -30,2 0,-22 35,-51 62,-51 9,0 30,11 45,24 l 28,25 -18,34 c -15,28 -17,39 -8,56 24,45 -57,82 -92,43 z"
       id="path3027" />
    <path
       inkscape:connector-curvature="0"
       d="m 5135,4330 c -3,-6 1,-13 9,-16 24,-9 23,-132 -1,-150 -26,-19 -12,-25 40,-18 43,6 67,24 32,24 -12,0 -15,16 -15,85 l 0,85 -29,0 c -17,0 -33,-5 -36,-10 z"
       id="path3029" />
    <path
       inkscape:connector-curvature="0"
       d="m 5565,4297 c -41,-23 -50,-29 -103,-73 -25,-20 -30,-29 -20,-35 7,-5 19,-2 29,7 8,7 23,14 31,14 9,0 18,4 20,8 2,4 24,23 51,42 26,18 47,37 47,41 0,18 -18,16 -55,-4 z"
       id="path3031" />
    <path
       inkscape:connector-curvature="0"
       d="m 7356,4178 c -9,-35 -26,-137 -26,-161 0,-33 17,-35 29,-4 16,41 25,177 12,177 -6,0 -13,-6 -15,-12 z"
       id="path3033" />
    <path
       inkscape:connector-curvature="0"
       d="m 5355,4158 c -11,-11 -29,-24 -40,-28 -36,-14 -105,-70 -105,-84 0,-10 13,-7 49,11 66,34 139,98 126,111 -7,6 -17,3 -30,-10 z"
       id="path3035" />
    <path
       inkscape:connector-curvature="0"
       d="m 5079,3975 c -24,-19 -48,-35 -53,-35 -17,0 -76,-51 -71,-61 8,-13 69,14 113,51 20,16 40,30 44,30 11,0 48,33 48,42 0,19 -41,5 -81,-27 z"
       id="path3037" />
    <path
       inkscape:connector-curvature="0"
       d="m 7315,3928 c -10,-43 -21,-143 -17,-160 5,-25 21,-22 27,5 7,30 25,149 25,165 0,21 -29,13 -35,-10 z"
       id="path3039" />
    <path
       inkscape:connector-curvature="0"
       d="m 4863,3841 c -17,-11 -34,-24 -37,-30 -4,-5 -31,-24 -61,-41 -30,-17 -55,-36 -55,-41 0,-21 46,-6 92,31 28,22 56,40 63,40 6,0 20,9 30,20 28,30 7,44 -32,21 z"
       id="path3041" />
    <path
       inkscape:connector-curvature="0"
       d="m 4639,3687 c -43,-20 -149,-101 -149,-114 0,-7 2,-13 5,-13 17,0 175,113 175,125 0,8 -1,15 -2,14 -2,0 -15,-6 -29,-12 z"
       id="path3043" />
    <path
       inkscape:connector-curvature="0"
       d="m 7269,3623 c -17,-100 -12,-131 15,-102 8,8 17,49 21,97 6,68 5,82 -8,82 -10,0 -18,-22 -28,-77 z"
       id="path3045" />
    <path
       inkscape:connector-curvature="0"
       d="m 4388,3522 c -21,-15 -63,-43 -93,-62 -48,-31 -71,-60 -47,-60 12,0 123,70 163,102 48,38 27,56 -23,20 z"
       id="path3047" />
    <path
       inkscape:connector-curvature="0"
       d="m 7246,3448 c -4,-12 -24,-139 -30,-185 -3,-23 22,-41 29,-20 6,19 25,166 25,192 0,26 -18,35 -24,13 z"
       id="path3049" />
    <path
       inkscape:connector-curvature="0"
       d="m 4139,3359 c -24,-17 -61,-39 -81,-50 -41,-21 -51,-49 -18,-49 16,0 96,57 148,105 29,27 -7,22 -49,-6 z"
       id="path3051" />
    <path
       inkscape:connector-curvature="0"
       d="m 3950,3243 c -8,-3 -17,-9 -20,-13 -9,-12 -110,-79 -130,-85 -20,-6 -17,-35 4,-35 7,0 35,17 63,38 28,20 65,45 82,54 43,24 43,57 1,41 z"
       id="path3053" />
    <path
       inkscape:connector-curvature="0"
       d="m 7201,3157 c -5,-12 -12,-58 -16,-101 -6,-63 -5,-78 6,-74 16,5 26,42 35,130 5,48 3,68 -5,68 -6,0 -15,-10 -20,-23 z"
       id="path3055" />
    <path
       inkscape:connector-curvature="0"
       d="m 3695,3078 c -11,-6 -24,-15 -30,-20 -5,-5 -31,-24 -57,-44 -46,-34 -60,-54 -37,-54 6,0 28,14 49,30 21,17 44,30 51,30 17,1 69,45 69,60 0,13 -20,12 -45,-2 z"
       id="path3057" />
    <path
       inkscape:connector-curvature="0"
       d="m 3424,2898 c -76,-52 -100,-78 -71,-78 18,0 159,100 165,118 7,22 -14,13 -94,-40 z"
       id="path3059" />
    <path
       inkscape:connector-curvature="0"
       d="m 7165,2908 c -16,-73 -25,-162 -16,-171 22,-22 33,15 44,162 3,31 -21,39 -28,9 z"
       id="path3061" />
    <path
       inkscape:connector-curvature="0"
       d="m 3213,2762 c -28,-20 -65,-45 -82,-54 -31,-17 -43,-48 -18,-48 12,0 77,43 150,100 15,12 25,26 21,31 -8,14 -15,11 -71,-29 z"
       id="path3063" />
    <path
       inkscape:connector-curvature="0"
       d="m 2219,2708 c -39,-14 -64,-57 -63,-107 1,-47 25,-77 54,-65 31,12 35,8 32,-33 -2,-33 1,-43 12,-43 19,0 32,24 40,72 3,21 10,57 16,80 5,24 10,57 10,73 0,28 -2,30 -39,30 -21,1 -49,-3 -62,-7 z m 61,-38 c 0,-31 -30,-98 -47,-104 -27,-11 -44,13 -37,53 8,45 30,71 61,71 16,0 23,-6 23,-20 z"
       id="path3065" />
    <path
       inkscape:connector-curvature="0"
       d="m 7122,2613 c -18,-98 -19,-138 -2,-138 11,0 19,22 28,83 8,45 11,89 8,97 -11,30 -24,14 -34,-42 z"
       id="path3067" />
    <path
       inkscape:connector-curvature="0"
       d="m 3004,2627 c -11,-7 -36,-24 -56,-39 -19,-16 -40,-28 -46,-28 -13,0 -16,-22 -6,-33 4,-4 19,2 34,13 16,11 33,20 40,20 14,0 90,60 90,72 0,12 -32,9 -56,-5 z"
       id="path3069" />
    <path
       inkscape:connector-curvature="0"
       d="m 2388,2579 c -22,-12 -24,-49 -3,-49 8,0 15,7 15,16 0,22 34,13 38,-10 2,-10 -2,-22 -9,-27 -10,-6 -9,-12 5,-28 25,-27 17,-55 -16,-59 -20,-2 -27,2 -30,18 -4,28 -23,26 -23,-2 0,-30 48,-54 84,-42 20,7 27,17 29,42 2,18 -2,40 -9,48 -9,12 -9,20 1,39 12,22 11,27 -5,45 -20,22 -50,25 -77,9 z"
       id="path3071" />
    <path
       inkscape:connector-curvature="0"
       d="m 2770,2473 c -78,-46 -100,-64 -94,-74 11,-19 43,-7 98,35 31,25 57,47 57,51 1,20 -12,17 -61,-12 z"
       id="path3073" />
    <path
       inkscape:connector-curvature="0"
       d="m 7095,2396 c -3,-9 -8,-24 -11,-33 -10,-26 -16,-134 -9,-151 3,-9 9,-12 15,-6 9,9 32,126 34,173 1,28 -21,41 -29,17 z"
       id="path3075" />
    <path
       inkscape:connector-curvature="0"
       d="m 2573,2337 c -53,-32 -69,-58 -35,-56 21,0 105,60 104,74 -1,18 -17,14 -69,-18 z"
       id="path3077" />
    <path
       inkscape:connector-curvature="0"
       d="m 2404,2318 c 3,-10 -5,-30 -20,-48 -19,-22 -24,-37 -20,-57 5,-20 -1,-41 -19,-73 -14,-25 -30,-57 -36,-72 -6,-16 -14,-28 -18,-28 -4,0 -15,-15 -24,-32 -10,-18 -27,-49 -40,-69 -54,-89 -115,-186 -152,-243 -22,-33 -46,-72 -52,-86 -7,-14 -33,-56 -57,-95 -25,-38 -64,-101 -87,-140 -42,-71 -48,-80 -135,-217 -43,-67 -102,-162 -167,-268 -11,-19 -42,-71 -69,-114 -26,-44 -48,-81 -48,-83 0,-2 -5,-9 -10,-16 -6,-7 -25,-34 -42,-62 -17,-27 -39,-62 -49,-77 -11,-15 -19,-34 -19,-43 0,-19 -24,-20 -40,0 -31,37 -45,14 -80,-135 -4,-19 -18,-68 -29,-109 -12,-40 -20,-76 -17,-78 6,-6 82,37 111,62 13,11 57,47 98,79 66,51 75,62 66,78 -6,11 -17,22 -24,25 -11,4 -7,17 18,56 18,29 36,59 40,67 4,8 20,35 36,60 16,25 42,68 56,95 15,28 35,59 44,70 10,11 23,31 29,45 21,42 38,69 55,88 10,10 17,24 17,30 0,6 15,32 33,58 40,58 75,114 84,134 3,8 15,25 26,38 12,12 22,30 23,39 2,9 10,20 18,25 9,5 16,15 16,23 0,7 18,41 40,74 22,33 40,63 40,66 0,4 16,30 35,59 19,29 35,58 35,63 0,5 9,18 20,28 11,10 20,22 20,26 0,11 71,122 82,130 6,3 9,10 7,14 -1,4 3,14 9,24 7,9 26,39 43,66 18,28 39,61 48,75 9,14 23,37 30,53 8,15 18,27 23,27 4,0 8,5 8,11 0,6 14,30 30,54 17,24 30,48 30,54 0,5 22,33 49,62 l 49,52 73,-8 c 106,-11 113,-11 119,0 3,6 -11,13 -30,17 -144,29 -150,31 -156,55 -7,25 -50,53 -83,53 -11,0 -25,8 -31,18 -11,16 -11,16 -6,0 z"
       id="path3079" />
    <path
       inkscape:connector-curvature="0"
       d="m 2755,2170 c -9,-14 28,-26 113,-37 56,-7 75,-6 83,3 8,10 2,14 -28,19 -21,3 -60,11 -86,16 -61,12 -74,11 -82,-1 z"
       id="path3081" />
    <path
       inkscape:connector-curvature="0"
       d="m 3026,2126 c 3,-9 35,-18 87,-25 45,-7 90,-14 99,-16 10,-2 20,0 23,5 9,15 -21,28 -92,39 -98,15 -124,14 -117,-3 z"
       id="path3083" />
    <path
       inkscape:connector-curvature="0"
       d="m 7046,2088 c -4,-29 -9,-70 -12,-90 -3,-21 -2,-38 3,-38 23,1 31,22 37,98 6,69 5,82 -7,82 -11,0 -17,-16 -21,-52 z"
       id="path3085" />
    <path
       inkscape:connector-curvature="0"
       d="m 3287,2093 c -14,-13 17,-33 53,-33 20,0 61,-5 91,-10 35,-7 56,-7 63,0 15,15 3,21 -76,36 -80,15 -121,18 -131,7 z"
       id="path3087" />
    <path
       inkscape:connector-curvature="0"
       d="m 3560,2047 c 0,-13 50,-27 148,-42 34,-6 42,-4 42,9 0,17 -11,21 -110,36 -82,12 -80,13 -80,-3 z"
       id="path3089" />
    <path
       inkscape:connector-curvature="0"
       d="m 3810,2007 c 0,-11 13,-18 38,-22 20,-4 53,-11 72,-16 47,-12 87,-11 95,2 11,16 -1,22 -63,30 -31,4 -76,10 -99,14 -36,6 -43,5 -43,-8 z"
       id="path3091" />
    <path
       inkscape:connector-curvature="0"
       d="m 4060,1974 c 1,-24 23,-34 106,-45 89,-12 137,-8 118,11 -5,4 -43,14 -84,20 -41,6 -90,13 -107,17 -18,3 -33,1 -33,-3 z"
       id="path3093" />
    <path
       inkscape:connector-curvature="0"
       d="m 4356,1921 c -9,-14 42,-29 142,-42 68,-9 96,-9 104,-1 15,15 8,17 -111,36 -109,18 -128,19 -135,7 z"
       id="path3095" />
    <path
       inkscape:connector-curvature="0"
       d="m 7016,1878 c -13,-63 -13,-118 0,-118 18,0 21,7 29,78 6,53 5,62 -9,62 -9,0 -18,-10 -20,-22 z"
       id="path3097" />
    <path
       inkscape:connector-curvature="0"
       d="m 4670,1871 c 0,-17 31,-26 139,-42 52,-7 77,-7 84,0 16,16 9,19 -93,36 -110,17 -130,18 -130,6 z"
       id="path3099" />
    <path
       inkscape:connector-curvature="0"
       d="m 4956,1832 c -11,-18 20,-31 113,-47 66,-11 97,-13 104,-6 18,18 -3,27 -93,40 -47,7 -92,14 -102,17 -9,3 -19,1 -22,-4 z"
       id="path3101" />
    <path
       inkscape:connector-curvature="0"
       d="m 5242,1773 c 2,-9 14,-17 28,-19 14,-2 43,-6 65,-9 99,-15 123,-16 129,-6 11,17 -24,28 -119,40 -113,14 -107,14 -103,-6 z"
       id="path3103" />
    <path
       inkscape:connector-curvature="0"
       d="m 5510,1736 c 0,-19 29,-28 141,-44 62,-9 79,-6 79,13 0,9 -17,16 -47,20 -27,4 -72,11 -102,16 -70,12 -71,12 -71,-5 z"
       id="path3105" />
    <path
       inkscape:connector-curvature="0"
       d="m 5792,1689 c 5,-16 66,-33 156,-43 52,-6 62,-5 62,8 0,16 -13,20 -90,31 -25,3 -65,9 -89,12 -35,5 -43,3 -39,-8 z"
       id="path3107" />
    <path
       inkscape:connector-curvature="0"
       d="m 6985,1663 c -11,-66 -16,-73 -50,-87 -18,-8 -36,-24 -40,-35 -4,-12 -11,-18 -17,-14 -13,7 -161,32 -195,33 -43,0 -25,-28 25,-39 55,-12 139,-24 165,-23 10,0 17,-6 17,-17 0,-23 44,-64 72,-68 68,-11 117,62 84,125 -9,18 -21,32 -26,32 -5,0 -8,28 -7,62 2,71 -18,93 -28,31 z"
       id="path3109" />
    <path
       inkscape:connector-curvature="0"
       d="m 4676,1649 c -29,-23 -36,-55 -10,-45 14,5 15,1 10,-21 -18,-72 -18,-83 -3,-83 21,0 36,21 43,61 9,44 20,58 43,52 12,-3 20,2 23,15 8,30 -6,46 -28,34 -11,-6 -25,-7 -35,-1 -12,6 -25,2 -43,-12 z"
       id="path3111" />
    <path
       inkscape:connector-curvature="0"
       d="m 6085,1651 c -20,-19 7,-30 117,-45 83,-12 122,-7 105,11 -10,9 -215,41 -222,34 z"
       id="path3113" />
    <path
       inkscape:connector-curvature="0"
       d="m 6370,1599 c 0,-24 14,-34 45,-35 17,-1 63,-6 104,-13 40,-6 76,-9 79,-7 16,17 -15,33 -84,44 -44,7 -94,16 -111,19 -24,4 -33,1 -33,-8 z"
       id="path3115" />
    <path
       inkscape:connector-curvature="0"
       d="m 4820,1560 c -16,-29 -6,-57 15,-40 8,7 12,17 8,23 -4,7 0,8 11,4 10,-4 20,-7 22,-7 9,0 3,-37 -8,-49 -11,-10 -10,-14 5,-22 9,-6 17,-21 17,-34 0,-21 -5,-25 -30,-25 -23,0 -30,4 -30,20 0,11 -7,20 -15,20 -21,0 -19,-33 3,-53 25,-23 64,-21 90,3 22,21 30,64 13,74 -5,3 -7,20 -5,38 6,43 -5,58 -48,65 -30,4 -38,2 -48,-17 z"
       id="path3117" />
    <path
       inkscape:connector-curvature="0"
       d="m 4982,1557 c -27,-28 -28,-49 -4,-70 24,-22 34,-12 19,20 -8,19 -8,26 3,33 7,4 19,6 27,3 24,-9 13,-48 -27,-91 -57,-61 -53,-72 20,-72 56,0 60,2 66,26 9,34 -8,50 -30,29 -9,-9 -23,-15 -32,-13 -14,2 -11,9 14,36 41,43 47,67 28,97 -21,32 -56,32 -84,2 z"
       id="path3119" />
    <path
       inkscape:connector-curvature="0"
       d="m 6894,1258 c -38,-40 -48,-75 -33,-117 9,-27 16,-31 45,-31 34,0 35,-1 29,-34 -8,-42 11,-58 35,-29 9,12 27,61 39,109 13,49 25,97 28,106 3,13 -2,18 -19,18 -13,0 -39,2 -58,6 -30,5 -39,1 -66,-28 z m 83,-36 c -8,-46 -33,-82 -57,-82 -16,0 -20,7 -20,30 0,35 23,86 42,93 28,9 40,-5 35,-41 z"
       id="path3121" />
    <path
       inkscape:connector-curvature="0"
       d="m 7104,1162 c -25,-4 -47,-46 -39,-73 6,-17 17,-23 38,-20 18,3 4,-33 -23,-61 -17,-17 -29,-33 -26,-35 10,-10 112,-10 124,-1 17,14 15,58 -2,58 -8,0 -16,-5 -18,-11 -2,-6 -15,-9 -28,-7 -25,3 -25,3 13,37 64,58 40,126 -39,113 z m 36,-56 c 0,-36 -20,-43 -41,-15 -21,28 -16,39 17,39 19,0 24,-5 24,-24 z"
       id="path3123" />
    <path
       inkscape:connector-curvature="0"
       d="m 1869,656 c -2,-2 -44,-7 -94,-11 -97,-7 -109,-11 -82,-26 14,-8 17,-25 17,-103 0,-71 -4,-97 -15,-106 -8,-7 -12,-16 -9,-21 9,-15 110,-11 123,5 9,11 7,15 -7,18 -20,6 -33,47 -25,78 6,24 39,15 47,-13 10,-39 27,-3 24,48 -3,46 -28,79 -28,37 0,-20 -25,-36 -41,-26 -5,3 -9,23 -9,45 0,39 0,39 40,39 31,0 43,-5 56,-25 20,-30 34,-24 34,14 0,26 -21,57 -31,47 z"
       id="path3125" />
    <path
       inkscape:connector-curvature="0"
       d="m 1975,482 c -28,-20 -37,-42 -25,-57 19,-22 30,-18 30,11 0,19 5,25 18,22 22,-4 30,-48 8,-48 -23,0 -20,-31 4,-37 24,-6 27,-48 4,-57 -26,-10 -34,-7 -46,19 -12,27 -28,24 -28,-5 0,-24 28,-40 69,-40 53,0 80,53 45,91 -13,14 -13,20 -2,38 11,18 10,23 -7,40 -24,23 -56,33 -70,23 z"
       id="path3127" />
  </g>
</svg>
