<?xml version="1.0" encoding="UTF-8" standalone="no"?>
<!-- Generator: Adobe Illustrator 11 Build 196, SVG Export Plug-In . SVG Version: 6.0.0 Build 78)  -->

<svg
   xmlns:dc="http://purl.org/dc/elements/1.1/"
   xmlns:cc="http://creativecommons.org/ns#"
   xmlns:rdf="http://www.w3.org/1999/02/22-rdf-syntax-ns#"
   xmlns:svg="http://www.w3.org/2000/svg"
   xmlns="http://www.w3.org/2000/svg"
   xmlns:sodipodi="http://sodipodi.sourceforge.net/DTD/sodipodi-0.dtd"
   xmlns:inkscape="http://www.inkscape.org/namespaces/inkscape"
   width="147.384"
   height="13.029"
   viewBox="0 0 147.384 13.029"
   style="overflow:visible;enable-background:new 0 0 147.384 13.029"
   xml:space="preserve"
   id="svg2"
   version="1.1"
   inkscape:version="0.48.4 r9939"
   sodipodi:docname="ac-emf-source.svg"><defs
     id="defs33" /><sodipodi:namedview
     pagecolor="#ffffff"
     bordercolor="#666666"
     borderopacity="1"
     objecttolerance="10"
     gridtolerance="10"
     guidetolerance="10"
     inkscape:pageopacity="0"
     inkscape:pageshadow="2"
     inkscape:window-width="1280"
     inkscape:window-height="996"
     id="namedview31"
     showgrid="false"
     inkscape:zoom="16.118461"
     inkscape:cx="77.311264"
     inkscape:cy="-21.538225"
     inkscape:window-x="0"
     inkscape:window-y="0"
     inkscape:window-maximized="1"
     inkscape:current-layer="svg2" /><metadata
     id="metadata4"><rdf:RDF><cc:Work
         rdf:about=""><dc:format>image/svg+xml</dc:format><dc:type
           rdf:resource="http://purl.org/dc/dcmitype/StillImage" /></cc:Work></rdf:RDF></metadata><g
     id="g3759"><path
       transform="matrix(0.94355751,0,0,0.94355751,-10.074926,-20.856738)"
       sodipodi:open="true"
       sodipodi:end="10.995574"
       sodipodi:start="4.712389"
       d="m 104.06087,49.457364 a 6.0007963,6.0007963 0 1 1 0,0"
       sodipodi:ry="6.0007963"
       sodipodi:rx="6.0007963"
       sodipodi:cy="55.45816"
       sodipodi:cx="104.06087"
       id="path2993"
       style="fill:none;stroke:#000000;stroke-width:0.92734144;stroke-miterlimit:4;stroke-opacity:1;stroke-dasharray:none"
       sodipodi:type="arc" /><path
       inkscape:connector-curvature="0"
       id="path3765"
       d="m 82.229156,31.471225 -3.082636,0"
       style="color:#000000;fill:none;stroke:#000000;stroke-width:0.87499998;stroke-linecap:butt;stroke-linejoin:miter;stroke-miterlimit:4;stroke-opacity:1;stroke-dasharray:none;stroke-dashoffset:0;marker:none;visibility:visible;display:inline;overflow:visible;enable-background:accumulate" /><path
       inkscape:connector-curvature="0"
       id="path3765-3"
       d="m 97.078446,31.471225 -3.082646,0"
       style="color:#000000;fill:none;stroke:#000000;stroke-width:0.87499998;stroke-linecap:butt;stroke-linejoin:miter;stroke-miterlimit:4;stroke-opacity:1;stroke-dasharray:none;stroke-dashoffset:0;marker:none;visibility:visible;display:inline;overflow:visible;enable-background:accumulate" /></g><g
     id="g3941"
     transform="translate(-0.561417,-7.1784563)"><path
       style="fill:none;stroke:#000000;stroke-width:1.125;stroke-miterlimit:4;stroke-dasharray:none;overflow:visible"
       d="m 84.511121,38.665095 c 0.704829,-1.621907 0.947296,-2.030119 1.166786,-2.391869 0.21949,-0.361747 0.358157,-0.443242 0.450466,-0.524984 0.09231,-0.08174 0.311799,-0.198269 0.473444,-0.186836 0.161639,0.01169 0.33477,0.05838 0.461952,0.186836 0.127186,0.128205 0.323697,0.326717 0.461955,0.54834 0.138671,0.221621 0.26544,0.408213 0.461955,0.828346 0.196516,0.420134 0.150158,0.233299 0.692932,1.540167"
       id="path15"
       inkscape:connector-curvature="0" /><path
       style="fill:none;stroke:#000000;stroke-width:1.125;stroke-miterlimit:4;stroke-dasharray:none;overflow:visible"
       d="m 92.836679,38.634269 c -0.704829,1.621907 -0.947296,2.030119 -1.166786,2.391869 -0.21949,0.361747 -0.358157,0.443242 -0.450466,0.524984 -0.09231,0.08174 -0.311799,0.198269 -0.473444,0.186836 -0.161639,-0.01169 -0.33477,-0.05838 -0.461952,-0.186836 -0.127186,-0.128205 -0.323697,-0.326717 -0.461955,-0.54834 -0.138671,-0.221621 -0.26544,-0.408213 -0.461955,-0.828346 -0.196516,-0.420134 -0.150158,-0.233299 -0.692932,-1.540167"
       id="path15-2"
       inkscape:connector-curvature="0" /></g></svg>