<?xml version="1.0" encoding="UTF-8" standalone="no"?>
<svg
   xmlns:dc="http://purl.org/dc/elements/1.1/"
   xmlns:cc="http://creativecommons.org/ns#"
   xmlns:rdf="http://www.w3.org/1999/02/22-rdf-syntax-ns#"
   xmlns:svg="http://www.w3.org/2000/svg"
   xmlns="http://www.w3.org/2000/svg"
   xmlns:xlink="http://www.w3.org/1999/xlink"
   xmlns:sodipodi="http://sodipodi.sourceforge.net/DTD/sodipodi-0.dtd"
   xmlns:inkscape="http://www.inkscape.org/namespaces/inkscape"
   version="1.0"
   width="187.200000pt"
   height="397.440000pt"
   viewBox="0 0 187.200000 397.440000"
   preserveAspectRatio="xMidYMid meet"
   id="svg3387"
   inkscape:version="0.48.4 r9939"
   sodipodi:docname="as-crooked-as-you-like.svg">
  <defs
     id="defs3521" />
  <sodipodi:namedview
     pagecolor="#ffffff"
     bordercolor="#666666"
     borderopacity="1"
     objecttolerance="10"
     gridtolerance="10"
     guidetolerance="10"
     inkscape:pageopacity="0"
     inkscape:pageshadow="2"
     inkscape:window-width="1280"
     inkscape:window-height="996"
     id="namedview3519"
     showgrid="false"
     inkscape:zoom="0.49756279"
     inkscape:cx="-268.34023"
     inkscape:cy="473.74057"
     inkscape:window-x="0"
     inkscape:window-y="0"
     inkscape:window-maximized="1"
     inkscape:current-layer="svg3387" />
  <metadata
     id="metadata3389">
Created by potrace 1.10, written by Peter Selinger 2001-2011
<rdf:RDF>
  <cc:Work
     rdf:about="">
    <dc:format>image/svg+xml</dc:format>
    <dc:type
       rdf:resource="http://purl.org/dc/dcmitype/StillImage" />
    <dc:title />
  </cc:Work>
</rdf:RDF>
</metadata>
  <rect
     style="fill:none;fill-opacity:1;stroke:none"
     id="rect3109"
     width="222.51968"
     height="56.274307"
     x="-56.770157"
     y="133.74245" />
  <g
     id="g3044"
     transform="translate(-39.673722,-36.815928)">
    <image
       sodipodi:absref="/home/bcrowell/Documents/writing/books/purcell/ch02/figs/as-crooked-as-you-like-shaded.jpg"
       xlink:href="as-crooked-as-you-like-shaded.jpg"
       width="187.2"
       height="397.44"
       id="image3531"
       x="0.56340909"
       y="-0.024477581" />
    <path
       d="M 68.568,8.4 C 59.424,9.36 50.04,11.664 42.6,14.76 33.84,18.408 24.048,24.504 14.76,32.088 7.128,38.328 3.096,45 3.072,51.48 c -0.024,3.72 0.936,6.336 3.576,9.696 0.768,0.984 2.256,2.472 3.312,3.336 1.056,0.84 2.112,1.68 2.352,1.872 2.568,2.064 8.088,5.016 12.408,6.624 3.528,1.32 11.544,3.552 12.72,3.552 1.2,0 6.192,1.488 9.48,2.808 4.128,1.656 6.552,2.928 10.44,5.496 9.384,6.144 17.88,9.312 26.04,9.624 6.528,0.264 13.176,-0.696 18.912,-2.712 l 1.656,-0.576 0.72,0.6 c 0.888,0.744 1.176,0.744 2.04,0.024 0.552,-0.456 1.224,-0.624 3.792,-0.96 1.728,-0.216 5.016,-0.648 7.32,-0.984 2.304,-0.336 9.168,-1.296 15.216,-2.136 6.072,-0.864 11.112,-1.512 11.208,-1.44 0.12,0.072 0.312,0.552 0.456,1.08 l 0.264,0.96 0.888,-0.528 c 0.48,-0.288 1.872,-1.08 3.072,-1.776 2.952,-1.68 3.384,-1.992 2.952,-2.136 -0.192,-0.048 -1.224,-0.168 -2.328,-0.24 -1.104,-0.096 -2.76,-0.312 -3.72,-0.528 -1.896,-0.384 -2.16,-0.264 -1.848,0.888 0.264,0.888 1.536,0.624 -12.84,2.592 -3.816,0.528 -9.384,1.296 -12.336,1.704 -2.952,0.408 -5.52,0.72 -5.736,0.672 -0.192,-0.048 0.552,-0.432 1.656,-0.888 1.104,-0.456 2.568,-1.056 3.216,-1.368 2.496,-1.128 4.752,-2.016 5.16,-2.016 0.216,0 0.504,0.216 0.624,0.48 0.216,0.48 0.288,0.456 1.44,-0.528 0.672,-0.576 1.776,-1.464 2.472,-1.992 0.696,-0.528 1.536,-1.2 1.896,-1.512 l 0.648,-0.576 -0.96,0.144 c -0.528,0.096 -2.136,0.216 -3.552,0.312 -2.256,0.12 -2.568,0.096 -2.448,-0.216 0.48,-1.248 11.952,-5.808 20.04,-7.992 3.576,-0.936 9.24,-2.856 11.88,-3.984 5.928,-2.544 10.944,-6.408 13.68,-10.536 1.728,-2.64 2.16,-3.984 2.136,-6.72 -0.024,-3.648 -1.104,-6.792 -3.48,-9.96 -3.456,-4.704 -7.92,-8.208 -15.816,-12.432 -0.984,-0.528 -2.328,-1.248 -3,-1.608 -5.256,-2.808 -18.072,-7.728 -28.8,-11.04 C 105.12,12 95.616,9.816 85.44,8.64 82.416,8.28 71.232,8.136 68.568,8.4 z m 14.544,0.72 c 8.112,0.744 14.856,1.992 23.568,4.296 4.848,1.296 14.328,4.128 18.96,5.664 1.464,0.504 2.76,0.912 2.88,0.936 0.144,0.024 0.648,0.24 1.176,0.456 0.504,0.216 0.984,0.408 1.08,0.408 0.072,0 0.96,0.312 1.944,0.696 0.984,0.384 2.616,1.008 3.6,1.368 0.984,0.36 2.328,0.912 2.976,1.224 0.672,0.288 1.272,0.552 1.392,0.552 0.264,0 3.864,1.68 7.392,3.456 9.936,5.016 14.544,8.28 18.504,13.128 1.104,1.368 3.024,5.016 3.384,6.432 0.384,1.536 0.408,4.968 0.048,6.264 -0.864,3.264 -3.456,6.768 -6.816,9.312 -1.944,1.464 -1.92,1.464 -4.392,2.928 -3.048,1.848 -9.12,4.176 -13.848,5.304 -1.128,0.264 -2.256,0.576 -2.52,0.672 -0.264,0.096 -2.088,0.72 -4.08,1.368 -8.232,2.664 -15.816,6.048 -18.6,8.304 -0.456,0.36 -0.96,0.672 -1.104,0.672 -0.168,0 -0.336,0.096 -0.384,0.192 -0.168,0.456 -4.128,2.856 -7.608,4.632 -2.928,1.512 -3.912,1.896 -4.728,1.896 -0.792,0 -1.224,0.168 -1.824,0.696 -1.248,1.056 -5.856,2.472 -10.392,3.144 C 87.6,94.056 81.984,94.008 77.04,92.976 73.704,92.28 67.896,90.24 65.4,88.896 65.016,88.68 64.08,88.176 63.36,87.792 61.776,86.952 61.8,86.976 58.368,84.72 c -1.488,-0.984 -3.12,-2.016 -3.6,-2.304 -2.328,-1.32 -4.32,-2.328 -5.352,-2.736 -0.6,-0.24 -1.584,-0.672 -2.16,-0.936 C 44.808,77.64 39.36,76.08 36.576,75.696 35.928,75.624 35.304,75.48 35.16,75.408 35.04,75.312 34.824,75.24 34.68,75.216 33.672,75.024 29.688,73.944 29.16,73.704 28.68,73.488 26.736,72.936 26.52,72.96 c -0.072,0 -0.72,-0.264 -1.44,-0.6 -0.744,-0.312 -1.392,-0.576 -1.44,-0.6 -0.384,-0.048 -6.408,-2.88 -6.6,-3.12 C 16.968,68.568 16.392,68.232 15.768,67.92 15.12,67.584 14.112,66.84 13.488,66.288 12.864,65.712 11.976,64.992 11.496,64.68 9.888,63.648 6.696,60.168 5.544,58.2 4.224,55.992 3.84,54.696 3.672,51.84 3.528,49.512 3.96,47.64 5.424,44.448 c 0.864,-1.896 2.64,-4.752 3.312,-5.304 0.216,-0.168 0.384,-0.456 0.384,-0.6 0,-0.312 3.576,-3.84 5.16,-5.112 0.528,-0.408 1.176,-0.96 1.44,-1.2 0.552,-0.528 3.216,-2.544 6.336,-4.8 1.128,-0.84 2.376,-1.752 2.76,-2.04 0.384,-0.312 1.128,-0.792 1.632,-1.08 0.504,-0.288 1.56,-0.96 2.304,-1.464 0.744,-0.528 1.92,-1.272 2.568,-1.704 C 32.784,20.208 42.168,15.528 43.68,15 54.024,11.28 59.28,10.056 68.4,9.168 71.496,8.856 80.064,8.832 83.112,9.12 z m 39.096,72.888 c 0.6,0.552 0.528,0.96 -0.24,1.368 -0.696,0.36 -6.024,2.544 -6.216,2.544 -0.312,0 0.384,-0.6 1.8,-1.512 0.888,-0.576 1.776,-1.2 1.968,-1.392 0.336,-0.312 1.896,-1.344 2.136,-1.392 0.072,-0.024 0.312,0.144 0.552,0.384 z"
       id="path3393"
       inkscape:connector-curvature="0"
       style="fill:#000000;stroke:none" />
    <path
       d="m 75.12,147.768 c -6.336,0.312 -12.816,1.176 -17.04,2.232 -9.144,2.304 -19.824,7.152 -27.84,12.672 -3.048,2.112 -6.456,4.656 -8.52,6.36 -0.912,0.768 -2.208,1.848 -2.88,2.4 -2.232,1.848 -6,5.808 -7.128,7.488 -2.952,4.416 -5.016,10.44 -5.016,14.76 0,2.616 0.648,5.496 1.584,7.104 2.04,3.48 7.656,7.632 13.56,10.032 1.512,0.624 5.472,1.608 9.6,2.424 2.736,0.528 7.944,1.968 10.128,2.808 0.36,0.144 0.72,0.48 0.816,0.768 0.384,1.272 1.656,1.752 2.52,0.96 0.408,-0.36 0.6,-0.336 2.544,0.456 4.464,1.8 11.472,5.28 14.616,7.272 4.992,3.144 12.552,6.24 17.856,7.296 3.768,0.744 6.048,0.912 9.624,0.696 5.568,-0.312 10.2,-1.512 14.976,-3.84 3.792,-1.848 5.16,-2.64 8.568,-5.04 1.584,-1.104 3.072,-2.136 3.336,-2.28 0.264,-0.144 0.768,-0.552 1.128,-0.864 1.992,-1.824 6.816,-4.968 10.536,-6.864 4.728,-2.424 11.4,-4.8 16.92,-6.048 3.816,-0.864 6.672,-1.728 9.192,-2.76 9.528,-3.936 16.224,-9.312 18.624,-14.952 0.768,-1.776 0.792,-1.968 0.816,-5.088 0,-3.168 -0.024,-3.264 -0.792,-4.92 -1.272,-2.688 -2.376,-4.152 -5.064,-6.84 -5.28,-5.256 -15,-10.512 -27.744,-15.024 -2.376,-0.84 -4.44,-1.536 -4.608,-1.536 -0.144,0 -0.48,-0.384 -0.768,-0.84 -0.504,-0.888 -1.272,-1.08 -2.184,-0.6 -0.36,0.192 -1.752,-0.12 -5.928,-1.296 -9.024,-2.544 -17.376,-4.152 -29.952,-5.784 -8.496,-1.104 -15.456,-1.464 -21.48,-1.152 z m 12.288,0.816 c 1.944,0.12 4.872,0.36 6.48,0.576 1.632,0.192 3.432,0.432 4.032,0.504 0.6,0.072 2.112,0.288 3.36,0.456 1.248,0.192 3.36,0.528 4.68,0.72 1.32,0.216 2.568,0.432 2.76,0.48 0.192,0.072 1.872,0.384 3.72,0.72 4.392,0.816 12.12,2.616 14.88,3.504 4.248,1.32 4.32,1.368 4.392,1.944 0.072,0.504 -0.192,0.696 -2.28,1.656 -4.68,2.208 -5.856,2.616 -12.144,4.152 -5.28,1.296 -7.032,1.68 -10.008,2.208 -1.248,0.216 -3.24,0.624 -4.44,0.888 -1.176,0.264 -2.472,0.528 -2.88,0.576 -3.288,0.528 -12.744,3.648 -16.68,5.52 -5.736,2.712 -12.336,8.4 -16.488,14.184 -0.816,1.152 -2.352,3.696 -3.384,5.688 -1.752,3.312 -5.088,8.784 -5.928,9.72 -0.192,0.216 -0.36,0.504 -0.36,0.648 0,0.144 -0.384,0.72 -0.84,1.296 -0.456,0.576 -0.84,1.152 -0.84,1.248 0,0.12 -0.144,0.336 -0.312,0.504 -0.168,0.192 -0.792,0.888 -1.392,1.584 -2.76,3.312 -3.576,4.152 -5.256,5.448 -2.544,1.992 -3.504,2.544 -4.104,2.352 -0.264,-0.096 -0.792,-0.048 -1.176,0.12 -0.576,0.24 -1.032,0.168 -3.144,-0.48 -1.368,-0.408 -2.664,-0.792 -2.856,-0.84 -0.192,-0.048 -1.152,-0.312 -2.088,-0.576 -0.96,-0.24 -1.752,-0.408 -1.752,-0.36 0,0.048 -0.288,-0.024 -0.648,-0.168 -0.336,-0.12 -0.912,-0.264 -1.248,-0.312 -2.736,-0.36 -5.88,-1.128 -7.584,-1.824 -0.264,-0.12 -0.72,-0.288 -1.032,-0.36 -0.72,-0.216 -4.152,-1.848 -5.808,-2.808 -2.136,-1.2 -4.824,-3.288 -6.408,-4.968 -2.016,-2.112 -2.808,-3.84 -3.192,-6.816 -0.384,-2.952 -0.288,-4.056 0.72,-7.92 1.464,-5.616 5.544,-11.28 11.88,-16.512 1.32,-1.08 2.904,-2.376 3.504,-2.88 0.6,-0.504 1.512,-1.224 2.04,-1.56 0.504,-0.36 1.272,-0.912 1.704,-1.272 0.408,-0.336 1.272,-0.984 1.92,-1.416 0.624,-0.432 1.536,-1.032 1.992,-1.344 1.032,-0.696 5.448,-3.384 7.08,-4.272 1.296,-0.72 6.576,-3.312 6.744,-3.312 0.048,0 0.552,-0.216 1.128,-0.48 3.144,-1.44 10.488,-3.864 13.728,-4.512 4.656,-0.936 5.328,-1.056 9.72,-1.488 4.752,-0.456 11.688,-0.552 17.808,-0.216 z m 55.752,12.336 c 0.936,0.36 2.16,0.864 2.76,1.128 0.6,0.264 1.464,0.624 1.92,0.792 0.456,0.168 1.392,0.576 2.088,0.888 0.672,0.336 1.512,0.672 1.848,0.768 0.336,0.072 0.624,0.264 0.624,0.384 0,0.144 0.192,0.24 0.432,0.24 0.24,0 0.528,0.096 0.672,0.216 0.12,0.144 1.2,0.744 2.376,1.344 1.2,0.6 2.64,1.416 3.24,1.8 0.6,0.384 1.344,0.84 1.68,1.008 2.208,1.08 5.976,4.248 8.496,7.152 0.888,1.008 2.544,3.504 2.544,3.816 0,0.12 0.288,0.792 0.672,1.488 0.888,1.728 1.032,4.488 0.336,6.72 -0.432,1.344 -1.56,3.696 -1.944,4.056 -0.096,0.072 -0.288,0.408 -0.48,0.768 -0.576,1.128 -2.928,3.384 -6.576,6.336 -3.576,2.904 -13.464,7.104 -18.432,7.896 -1.752,0.264 -7.536,1.968 -9.456,2.784 -0.264,0.096 -1.344,0.528 -2.4,0.96 -1.056,0.408 -2.592,1.056 -3.432,1.44 -0.816,0.384 -1.536,0.696 -1.584,0.696 -0.624,0 -9.36,5.424 -10.824,6.72 -0.264,0.24 -1.008,0.816 -1.68,1.248 -0.648,0.456 -2.28,1.584 -3.6,2.496 -3.744,2.592 -7.128,4.488 -11.04,6.216 -2.76,1.224 -7.368,2.208 -12.384,2.64 -2.304,0.216 -8.448,-0.528 -11.376,-1.344 -2.472,-0.696 -5.544,-1.776 -7.248,-2.52 -0.408,-0.192 -1.44,-0.624 -2.28,-1.008 -1.32,-0.552 -4.848,-2.496 -7.824,-4.296 -0.48,-0.312 -1.2,-0.72 -1.608,-0.912 -0.384,-0.192 -0.888,-0.48 -1.08,-0.6 -0.864,-0.576 -10.536,-5.016 -11.688,-5.376 -0.96,-0.312 -0.576,-0.888 1.32,-1.992 1.68,-0.96 6.432,-5.856 8.376,-8.592 1.968,-2.784 6.912,-10.728 7.752,-12.48 0.312,-0.672 0.72,-1.368 0.864,-1.56 0.168,-0.192 0.648,-1.008 1.08,-1.8 2.376,-4.416 6.624,-9.336 10.776,-12.528 4.56,-3.48 7.152,-4.968 11.712,-6.648 6.888,-2.544 13.872,-4.32 21.408,-5.424 0.984,-0.144 2.184,-0.36 2.64,-0.48 0.456,-0.12 3.12,-0.816 5.88,-1.536 6.816,-1.8 8.352,-2.328 12.336,-4.272 1.512,-0.744 2.28,-0.984 3,-0.936 0.552,0.024 1.2,-0.12 1.44,-0.288 0.408,-0.312 0.84,-0.216 3.72,0.792 1.8,0.624 4.032,1.44 4.944,1.8 z"
       id="path3415"
       inkscape:connector-curvature="0"
       style="fill:#000000;stroke:none" />
    <path
       d="m 81.936,151.2 c -0.264,0.12 -1.104,0.264 -1.848,0.36 -0.768,0.096 -1.368,0.24 -1.368,0.336 0,0.072 0.84,0.432 1.848,0.792 1.296,0.48 1.896,0.576 2.016,0.384 0.168,-0.264 2.904,-0.192 7.488,0.192 1.272,0.12 1.848,0.096 1.848,-0.096 0,-0.312 -0.696,-0.456 -4.08,-0.792 -5.16,-0.504 -5.064,-0.504 -5.232,-0.936 -0.12,-0.312 -0.288,-0.36 -0.672,-0.24 z"
       id="path3417"
       inkscape:connector-curvature="0"
       style="fill:#000000;stroke:none" />
    <path
       d="m 63.648,152.784 c -2.16,0.936 -2.28,1.056 -1.104,1.056 0.504,0 1.512,0.072 2.232,0.168 0.888,0.096 1.248,0.048 1.128,-0.12 -0.288,-0.48 -0.048,-0.528 3.936,-1.008 1.128,-0.12 2.712,-0.24 3.552,-0.24 1.224,0 1.488,-0.072 1.488,-0.384 0,-0.36 -0.336,-0.384 -3.288,-0.24 -1.8,0.096 -3.84,0.288 -4.512,0.408 -0.912,0.168 -1.248,0.144 -1.44,-0.096 -0.192,-0.24 -0.576,-0.168 -1.992,0.456 z"
       id="path3419"
       inkscape:connector-curvature="0"
       style="fill:#000000;stroke:none" />
    <path
       d="m 95.52,153.24 c -1.128,0.216 -1.44,0.336 -1.08,0.456 0.264,0.096 1.104,0.432 1.848,0.744 1.176,0.48 1.368,0.504 1.488,0.192 0.12,-0.312 0.456,-0.336 1.968,-0.216 2.088,0.192 6.744,0.816 7.344,1.008 0.432,0.12 0.816,-0.264 0.456,-0.504 -0.12,-0.072 -1.248,-0.288 -2.472,-0.48 -1.224,-0.216 -2.808,-0.48 -3.528,-0.6 -0.72,-0.144 -1.704,-0.24 -2.184,-0.24 -0.504,0 -1.032,-0.168 -1.2,-0.36 -0.336,-0.408 -0.456,-0.408 -2.64,0 z"
       id="path3421"
       inkscape:connector-curvature="0"
       style="fill:#000000;stroke:none" />
    <path
       d="m 55.584,155.664 c -1.872,0.6 -2.688,0.744 -2.904,0.576 -0.216,-0.192 -0.648,-0.048 -1.584,0.504 -2.52,1.464 -2.496,1.44 -0.096,1.344 1.56,-0.048 2.16,-0.168 2.16,-0.384 0,-0.336 1.92,-1.152 4.632,-1.944 0.936,-0.288 1.728,-0.624 1.728,-0.744 0,-0.408 -1.32,-0.192 -3.936,0.648 z"
       id="path3423"
       inkscape:connector-curvature="0"
       style="fill:#000000;stroke:none" />
    <path
       d="m 111.312,154.992 c -1.032,0.048 -1.872,0.144 -1.872,0.24 0,0.096 0.744,0.552 1.632,1.032 1.32,0.72 1.656,0.816 1.896,0.552 0.264,-0.264 0.6,-0.216 2.016,0.168 3.12,0.864 3.696,1.416 2.448,2.328 -0.888,0.648 -0.528,0.936 0.432,0.384 1.848,-1.08 1.416,-2.088 -1.272,-3.048 -0.96,-0.336 -2.064,-0.672 -2.424,-0.744 -0.36,-0.096 -0.744,-0.336 -0.84,-0.576 -0.144,-0.336 -0.456,-0.408 -2.016,-0.336 z"
       id="path3425"
       inkscape:connector-curvature="0"
       style="fill:#000000;stroke:none" />
    <path
       d="m 45.84,159.528 c -0.192,0.072 -1.896,0.888 -3.744,1.776 -1.872,0.912 -3.504,1.656 -3.648,1.656 -0.12,0 -0.36,0.168 -0.552,0.384 -0.192,0.24 -0.528,0.336 -0.936,0.264 -0.504,-0.12 -0.864,0.12 -2.04,1.296 l -1.44,1.416 0.84,-0.144 c 0.456,-0.096 0.936,-0.264 1.056,-0.36 0.144,-0.12 0.48,-0.216 0.768,-0.216 0.84,0 1.296,-0.264 1.296,-0.744 0,-0.312 1.032,-0.936 4.272,-2.496 5.16,-2.496 4.896,-2.352 4.896,-2.64 -0.024,-0.288 -0.312,-0.36 -0.768,-0.192 z"
       id="path3427"
       inkscape:connector-curvature="0"
       style="fill:#000000;stroke:none" />
    <path
       d="m 111.192,160.2 c 0.168,0.384 0.048,0.408 -1.992,0.816 -3.24,0.648 -4.944,1.056 -5.16,1.272 -0.288,0.288 0.696,0.192 4.272,-0.408 1.992,-0.336 2.712,-0.384 3.048,-0.168 0.36,0.216 0.768,0.096 2.136,-0.6 0.96,-0.456 1.704,-0.888 1.656,-0.912 -0.048,-0.024 -0.984,-0.12 -2.088,-0.216 -1.728,-0.144 -1.992,-0.12 -1.872,0.216 z"
       id="path3429"
       inkscape:connector-curvature="0"
       style="fill:#000000;stroke:none" />
    <path
       d="m 98.232,162.504 c -0.096,0.288 -0.408,0.48 -1.008,0.576 -1.176,0.216 -4.728,0.984 -7.272,1.608 -1.32,0.336 -2.112,0.648 -2.112,0.84 0,0.408 0,0.408 2.016,-0.144 2.16,-0.576 4.632,-1.128 6.624,-1.464 1.248,-0.24 1.584,-0.216 1.8,0.048 0.192,0.264 0.552,0.168 1.992,-0.576 l 1.752,-0.912 -0.912,0 c -0.504,0 -1.32,-0.12 -1.848,-0.216 -0.792,-0.192 -0.936,-0.168 -1.032,0.24 z"
       id="path3431"
       inkscape:connector-curvature="0"
       style="fill:#000000;stroke:none" />
    <path
       d="m 85.176,166.416 c -0.048,0.048 -0.744,0.144 -1.536,0.216 -0.792,0.096 -1.464,0.144 -1.464,0.168 -0.024,0 -0.024,0.168 0,0.384 0.024,0.24 -0.456,0.576 -1.296,0.936 -2.76,1.176 -8.4,4.656 -8.4,5.184 0,0.432 0.528,0.192 2.232,-0.96 3.504,-2.352 7.56,-4.296 8.04,-3.816 0.192,0.192 0.6,-0.024 1.44,-0.672 0.672,-0.528 1.392,-1.056 1.632,-1.224 0.432,-0.264 0.432,-0.288 -0.048,-0.288 -0.264,-0.024 -0.552,0.024 -0.6,0.072 z"
       id="path3433"
       inkscape:connector-curvature="0"
       style="fill:#000000;stroke:none" />
    <path
       d="m 28.656,169.272 c -0.648,0.408 -2.112,1.584 -3.24,2.568 -3,2.664 -4.032,3.48 -4.416,3.48 -0.336,0 -2.4,3.192 -2.208,3.408 0.048,0.048 0.72,-0.288 1.488,-0.768 0.792,-0.456 1.512,-0.84 1.632,-0.84 0.096,0 0.144,-0.192 0.048,-0.432 -0.096,-0.336 0.336,-0.912 1.752,-2.256 2.016,-1.92 5.088,-4.44 6.288,-5.136 0.384,-0.24 0.72,-0.528 0.72,-0.624 0,-0.408 -0.888,-0.144 -2.064,0.6 z"
       id="path3435"
       inkscape:connector-curvature="0"
       style="fill:#000000;stroke:none" />
    <path
       d="m 69.24,175.68 c -0.264,0.288 -0.864,0.744 -1.368,1.008 -0.648,0.384 -0.888,0.648 -0.792,0.936 0.12,0.384 -0.096,0.696 -2.472,3.576 -0.912,1.104 -3.864,5.52 -4.752,7.128 -0.36,0.696 -0.6,1.344 -0.48,1.44 0.24,0.24 0.48,-0.096 2.376,-3.168 2.976,-4.848 5.664,-8.16 6.432,-7.92 0.288,0.096 0.456,0.024 0.456,-0.168 0,-0.168 0.336,-0.96 0.72,-1.728 0.408,-0.768 0.72,-1.44 0.72,-1.488 0,-0.264 -0.456,-0.048 -0.84,0.384 z"
       id="path3437"
       inkscape:connector-curvature="0"
       style="fill:#000000;stroke:none" />
    <path
       d="m 16.08,181.128 c -0.552,0.648 -1.392,1.992 -1.872,3 -0.504,1.032 -1.032,1.872 -1.176,1.872 -0.192,0 -0.312,0.312 -0.312,0.72 0,0.384 -0.12,1.248 -0.264,1.92 -0.144,0.672 -0.216,1.272 -0.144,1.344 0.048,0.048 0.384,-0.312 0.72,-0.792 0.336,-0.504 0.888,-1.224 1.224,-1.608 0.528,-0.6 0.576,-0.744 0.264,-0.96 -0.288,-0.216 -0.216,-0.552 0.576,-2.184 0.504,-1.056 1.296,-2.424 1.776,-3.072 0.984,-1.272 1.032,-1.368 0.552,-1.368 -0.192,0 -0.792,0.504 -1.344,1.128 z"
       id="path3439"
       inkscape:connector-curvature="0"
       style="fill:#000000;stroke:none" />
    <path
       d="m 11.664,192.264 c -0.456,2.328 0,4.632 1.296,6.456 0.264,0.36 0.48,0.84 0.48,1.032 0,0.216 0.36,0.6 0.792,0.864 0.456,0.264 1.224,0.816 1.728,1.224 0.504,0.408 0.96,0.672 1.008,0.624 0.048,-0.048 -0.216,-0.624 -0.6,-1.248 -0.384,-0.648 -0.768,-1.464 -0.84,-1.824 -0.12,-0.456 -0.288,-0.6 -0.6,-0.504 -0.552,0.144 -1.608,-1.056 -2.256,-2.52 -0.36,-0.792 -0.504,-1.632 -0.504,-2.976 -0.024,-1.944 -0.24,-2.424 -0.504,-1.128 z"
       id="path3441"
       inkscape:connector-curvature="0"
       style="fill:#000000;stroke:none" />
    <path
       d="m 56.904,193.392 c -0.816,0.816 -1.2,1.344 -1.032,1.464 0.312,0.192 -2.496,4.992 -4.392,7.584 -1.152,1.584 -1.248,1.8 -0.72,1.8 0.288,0 4.728,-6.408 5.616,-8.112 0.144,-0.288 0.48,-0.528 0.696,-0.528 0.312,0 0.528,-0.408 0.864,-1.704 0.24,-0.936 0.384,-1.704 0.336,-1.752 -0.024,-0.024 -0.648,0.552 -1.368,1.248 z"
       id="path3443"
       inkscape:connector-curvature="0"
       style="fill:#000000;stroke:none" />
    <path
       d="m 18.048,203.328 c 0.144,0.432 2.328,1.632 4.944,2.712 1.56,0.648 2.208,1.032 2.208,1.32 0,0.336 0.336,0.432 1.968,0.552 1.08,0.096 1.992,0.12 2.064,0.072 0.048,-0.072 -0.288,-0.288 -0.744,-0.504 -0.456,-0.216 -1.152,-0.72 -1.584,-1.128 -0.576,-0.576 -0.816,-0.672 -1.08,-0.456 -0.384,0.312 -2.496,-0.408 -5.52,-1.92 -2.04,-1.008 -2.4,-1.104 -2.256,-0.648 z"
       id="path3445"
       inkscape:connector-curvature="0"
       style="fill:#000000;stroke:none" />
    <path
       d="m 32.16,209.016 c 0,0.264 1.032,0.624 3.24,1.104 2.424,0.552 2.64,0.576 5.28,0.6 1.464,0.024 2.472,0.144 2.568,0.312 0.12,0.192 0.312,0.192 0.72,0 1.44,-0.696 2.856,-1.272 3.072,-1.272 0.12,0 0.24,-0.12 0.24,-0.24 0,-0.144 -0.072,-0.216 -0.168,-0.192 -0.168,0.048 -2.544,-0.24 -3.48,-0.408 -0.216,-0.048 -0.432,0.12 -0.504,0.384 -0.096,0.312 -0.36,0.48 -0.864,0.504 -0.408,0.024 -1.104,0.072 -1.512,0.096 -1.392,0.096 -4.728,-0.336 -6.576,-0.84 -1.152,-0.312 -2.016,-0.336 -2.016,-0.048 z"
       id="path3447"
       inkscape:connector-curvature="0"
       style="fill:#000000;stroke:none" />
    <path
       d="m 139.776,165.744 c 1.128,0.744 1.704,1.008 1.824,0.816 0.192,-0.312 0.936,-0.168 2.88,0.528 0.72,0.264 1.488,0.504 1.68,0.552 0.336,0.072 1.872,0.624 3,1.08 0.264,0.096 0.96,0.384 1.56,0.6 0.6,0.24 1.224,0.456 1.392,0.528 0.144,0.072 0.288,0 0.288,-0.168 0,-0.384 -2.88,-1.656 -6.48,-2.88 -3.528,-1.2 -3.84,-1.344 -3.84,-1.8 0,-0.288 -0.408,-0.36 -1.968,-0.36 l -1.992,0 1.656,1.104 z"
       id="path3449"
       inkscape:connector-curvature="0"
       style="fill:#000000;stroke:none" />
    <path
       d="m 129.576,165.36 c -0.216,0.12 -1.032,0.408 -1.8,0.6 -0.792,0.216 -1.992,0.552 -2.712,0.744 -0.984,0.264 -1.344,0.288 -1.488,0.072 -0.096,-0.192 -0.696,0.096 -1.848,0.888 -0.936,0.648 -1.656,1.2 -1.632,1.248 0.048,0.024 0.96,0 2.016,-0.096 1.512,-0.12 1.944,-0.24 2.04,-0.576 0.096,-0.384 1.8,-1.104 4.128,-1.68 0.672,-0.168 1.32,-0.384 1.44,-0.48 0.144,-0.096 0.528,-0.24 0.912,-0.336 0.36,-0.072 0.648,-0.264 0.648,-0.384 0,-0.312 -1.2,-0.288 -1.704,0 z"
       id="path3451"
       inkscape:connector-curvature="0"
       style="fill:#000000;stroke:none" />
    <path
       d="m 115.08,169.464 c -0.912,0.24 -3.168,0.744 -4.992,1.104 -2.76,0.528 -3.36,0.6 -3.528,0.312 -0.168,-0.264 -0.504,-0.168 -1.728,0.48 -2.112,1.104 -2.16,1.2 -0.528,1.2 0.768,0 1.656,0.072 1.968,0.144 0.384,0.12 0.528,0.048 0.528,-0.24 0,-0.456 0.624,-0.72 2.232,-0.96 1.44,-0.216 1.32,-0.192 4.848,-0.96 3.24,-0.72 4.056,-1.008 3.84,-1.344 -0.192,-0.312 -0.6,-0.264 -2.64,0.264 z"
       id="path3453"
       inkscape:connector-curvature="0"
       style="fill:#000000;stroke:none" />
    <path
       d="m 156.192,172.608 c 1.152,1.176 1.536,1.44 1.704,1.176 0.648,-1.032 7.44,4.32 8.808,6.96 0.36,0.72 0.816,0.936 0.816,0.384 0,-1.032 -4.632,-5.736 -7.152,-7.272 -1.008,-0.624 -1.584,-1.128 -1.536,-1.368 0.072,-0.384 -0.24,-0.528 -1.512,-0.744 -0.384,-0.072 -1.104,-0.24 -1.56,-0.384 -0.456,-0.12 -0.888,-0.24 -0.96,-0.24 -0.072,0 0.552,0.672 1.392,1.488 z"
       id="path3455"
       inkscape:connector-curvature="0"
       style="fill:#000000;stroke:none" />
    <path
       d="m 97.92,172.944 c -1.128,0.312 -2.952,0.864 -4.056,1.2 -1.488,0.456 -2.04,0.552 -2.184,0.336 -0.12,-0.192 -0.648,0.024 -1.752,0.768 -1.704,1.104 -1.992,1.512 -0.936,1.296 0.36,-0.096 1.2,-0.168 1.896,-0.168 0.984,-0.024 1.248,-0.12 1.344,-0.48 0.168,-0.648 1.104,-0.984 7.56,-2.76 1.272,-0.36 1.704,-0.84 0.72,-0.792 -0.312,0.024 -1.464,0.288 -2.592,0.6 z"
       id="path3457"
       inkscape:connector-curvature="0"
       style="fill:#000000;stroke:none" />
    <path
       d="m 83.16,178.872 c -2.736,1.464 -3.96,2.256 -4.944,3.216 -0.648,0.6 -1.008,0.792 -1.368,0.696 -0.312,-0.12 -0.504,-0.024 -0.6,0.264 -0.192,0.528 -0.96,1.848 -1.368,2.352 -0.504,0.6 -0.096,0.696 0.672,0.168 0.36,-0.264 1.128,-0.672 1.68,-0.888 0.816,-0.336 0.96,-0.48 0.744,-0.744 -0.144,-0.168 -0.192,-0.408 -0.12,-0.552 0.336,-0.552 3.816,-2.928 5.832,-4.008 1.224,-0.648 2.232,-1.248 2.232,-1.368 0,-0.384 -0.936,-0.096 -2.76,0.864 z"
       id="path3459"
       inkscape:connector-curvature="0"
       style="fill:#000000;stroke:none" />
    <path
       d="m 167.664,186.888 c -0.792,1.008 -1.056,1.512 -0.96,1.92 0.24,0.96 -1.248,3.312 -3.432,5.328 -1.968,1.848 -2.232,2.184 -1.752,2.184 0.384,0 2.64,-1.728 3.504,-2.664 0.864,-0.936 2.016,-2.664 2.448,-3.648 0.192,-0.456 0.432,-0.648 0.648,-0.552 0.24,0.096 0.36,-0.024 0.36,-0.336 0,-0.264 0.024,-0.528 0.024,-0.6 0.024,-0.048 0.12,-0.576 0.24,-1.128 0.096,-0.576 0.264,-1.224 0.336,-1.464 0.336,-0.84 -0.36,-0.384 -1.416,0.96 z"
       id="path3461"
       inkscape:connector-curvature="0"
       style="fill:#000000;stroke:none" />
    <path
       d="m 71.376,189.672 c -0.648,0.72 -1.776,2.16 -2.496,3.24 -0.744,1.104 -1.488,1.944 -1.728,1.968 -0.264,0 -0.528,0.48 -0.888,1.656 -0.288,0.912 -0.504,1.8 -0.504,1.968 0,0.168 0.6,-0.264 1.32,-0.984 0.888,-0.888 1.272,-1.44 1.2,-1.704 -0.12,-0.36 0.264,-1.032 2.448,-4.296 0.216,-0.336 0.744,-0.984 1.152,-1.44 1.296,-1.464 1.44,-1.68 1.008,-1.68 -0.192,0 -0.888,0.576 -1.512,1.272 z"
       id="path3463"
       inkscape:connector-curvature="0"
       style="fill:#000000;stroke:none" />
    <path
       d="m 155.376,197.928 c -1.32,0.264 -1.704,0.456 -1.68,0.744 0.024,0.528 -1.2,1.128 -4.752,2.352 -2.64,0.888 -3.744,1.536 -2.616,1.536 0.576,0 3.744,-0.96 5.928,-1.8 0.912,-0.336 1.8,-0.576 1.992,-0.504 0.168,0.072 0.504,-0.048 0.744,-0.288 0.24,-0.216 0.936,-0.864 1.584,-1.44 1.272,-1.104 1.272,-1.104 -1.2,-0.6 z"
       id="path3467"
       inkscape:connector-curvature="0"
       style="fill:#000000;stroke:none" />
    <path
       d="m 62.736,202.8 c -1.344,2.016 -3.96,6.408 -4.416,7.368 -0.24,0.576 -0.624,1.032 -0.84,1.032 -0.192,0 -0.36,0.048 -0.36,0.096 0,0.048 -0.168,0.936 -0.36,1.968 -0.192,1.032 -0.312,1.896 -0.264,1.968 0.048,0.048 0.552,-0.48 1.104,-1.2 0.552,-0.696 1.104,-1.32 1.224,-1.344 0.12,-0.048 0.168,-0.432 0.072,-0.864 -0.144,-0.888 0.168,-1.536 3.24,-6.576 1.056,-1.776 1.944,-3.24 1.944,-3.312 0,-0.048 -0.168,-0.096 -0.36,-0.096 -0.192,0 -0.648,0.432 -0.984,0.96 z"
       id="path3469"
       inkscape:connector-curvature="0"
       style="fill:#000000;stroke:none" />
    <path
       d="m 141.072,203.16 c -0.12,0.12 -1.848,0.312 -3.24,0.336 -0.36,0.024 -0.48,0.144 -0.408,0.432 0.096,0.36 -0.336,0.576 -2.472,1.224 -1.44,0.456 -2.856,0.912 -3.192,1.056 -0.336,0.144 -0.816,0.336 -1.08,0.432 -2.064,0.792 -3.336,1.392 -3.432,1.632 -0.144,0.456 0.432,0.336 3.072,-0.696 1.392,-0.552 2.688,-1.008 2.88,-1.056 0.192,-0.048 1.2,-0.36 2.256,-0.696 2.184,-0.72 2.544,-0.768 2.544,-0.264 0,0.24 0.456,0 1.32,-0.72 0.744,-0.6 1.488,-1.08 1.68,-1.08 0.192,0 0.36,-0.168 0.36,-0.36 0,-0.384 -0.072,-0.432 -0.288,-0.24 z"
       id="path3471"
       inkscape:connector-curvature="0"
       style="fill:#000000;stroke:none" />
    <path
       d="m 123.24,210.168 c -0.648,0.168 -1.56,0.336 -1.968,0.36 -0.432,0.024 -0.768,0.168 -0.768,0.312 0.072,0.552 -0.048,0.792 -0.432,0.912 -0.24,0.096 -1.08,0.528 -1.872,0.984 -0.792,0.48 -1.92,1.104 -2.52,1.416 -1.68,0.888 -5.28,3.288 -5.28,3.528 0,0.528 0.528,0.384 2.184,-0.648 0.984,-0.6 1.944,-1.224 2.136,-1.416 0.216,-0.168 1.344,-0.816 2.52,-1.44 1.2,-0.624 2.376,-1.272 2.64,-1.44 0.528,-0.384 1.488,-0.456 1.608,-0.12 0.048,0.12 0.768,-0.432 1.608,-1.2 0.84,-0.792 1.488,-1.464 1.44,-1.488 -0.048,-0.048 -0.624,0.072 -1.296,0.24 z"
       id="path3473"
       inkscape:connector-curvature="0"
       style="fill:#000000;stroke:none" />
    <path
       d="m 58.32,217.44 c -0.24,0.144 -0.12,0.432 0.576,1.272 1.056,1.296 3.336,2.88 6.216,4.272 1.368,0.696 2.088,1.176 2.088,1.44 0,0.312 0.336,0.432 1.632,0.576 0.888,0.096 1.728,0.264 1.896,0.384 0.168,0.168 0.312,0.144 0.408,0 0.096,-0.144 -0.144,-0.432 -0.504,-0.648 -0.36,-0.24 -1.128,-0.792 -1.68,-1.248 -0.576,-0.432 -1.032,-0.696 -1.032,-0.552 0,0.552 -1.248,0.072 -5.16,-1.968 -0.888,-0.48 -3.24,-2.664 -3.24,-3.024 0,-0.384 -0.816,-0.744 -1.2,-0.504 z"
       id="path3475"
       inkscape:connector-curvature="0"
       style="fill:#000000;stroke:none" />
    <path
       d="m 107.64,219.312 c -0.384,0.192 -1.2,0.48 -1.8,0.648 -0.792,0.216 -1.056,0.384 -1.008,0.672 0.048,0.264 -0.384,0.696 -1.2,1.224 -1.728,1.08 -6.312,3.384 -7.56,3.792 -0.936,0.288 -1.44,0.912 -0.72,0.912 0.72,0 6.216,-2.376 6.648,-2.856 0.12,-0.144 0.96,-0.624 2.616,-1.512 0.576,-0.288 0.888,-0.336 1.008,-0.168 0.096,0.168 0.624,-0.24 1.32,-1.008 0.648,-0.672 1.32,-1.392 1.488,-1.56 0.456,-0.456 0.024,-0.528 -0.792,-0.144 z"
       id="path3477"
       inkscape:connector-curvature="0"
       style="fill:#000000;stroke:none" />
    <path
       d="m 89.28,226.44 c 0,0.192 -0.144,0.36 -0.288,0.384 -0.168,0 -0.528,0.072 -0.792,0.144 -1.056,0.312 -8.64,0.144 -10.392,-0.216 -1.728,-0.36 -2.28,-0.264 -1.632,0.264 0.792,0.648 4.056,1.008 8.64,0.936 3.312,-0.048 4.584,0.024 4.632,0.216 0.072,0.192 0.672,0 1.752,-0.552 0.912,-0.456 1.776,-0.816 1.944,-0.816 0.168,0 0.24,-0.072 0.144,-0.144 -0.072,-0.072 -0.768,-0.192 -1.536,-0.24 -0.768,-0.048 -1.632,-0.144 -1.92,-0.216 -0.384,-0.096 -0.552,-0.024 -0.552,0.24 z"
       id="path3479"
       inkscape:connector-curvature="0"
       style="fill:#000000;stroke:none" />
    <path
       d="m 73.08,287.184 c -12.6,1.272 -21.456,4.272 -33.456,11.256 -2.544,1.488 -9.432,6.24 -10.536,7.272 -0.192,0.168 -0.72,0.6 -1.2,0.936 -2.136,1.608 -6.552,5.4 -9.36,8.112 -4.128,3.96 -7.008,8.112 -8.568,12.384 -0.84,2.304 -1.08,4.392 -0.84,7.656 0.192,2.376 0.312,2.856 1.128,4.512 0.504,1.008 1.08,2.016 1.272,2.232 0.192,0.192 0.912,0.96 1.584,1.68 2.928,3.12 7.296,6.288 10.512,7.632 0.936,0.384 2.352,1.032 3.144,1.416 3.648,1.776 11.616,4.176 16.44,4.944 2.448,0.408 6.6,1.488 8.616,2.304 2.112,0.816 9.192,4.416 10.68,5.424 2.328,1.56 5.208,3.216 6.984,4.056 2.208,1.056 6.432,2.544 7.8,2.76 5.928,0.984 6.384,1.008 10.68,0.888 9.288,-0.288 15.264,-1.848 24,-6.216 3.528,-1.752 7.272,-4.056 8.736,-5.376 0.6,-0.528 2.184,-1.632 3.504,-2.448 1.32,-0.792 3.312,-2.04 4.416,-2.784 4.776,-3.168 12.312,-6.336 18.576,-7.848 3.984,-0.96 10.2,-3.216 14.208,-5.136 2.616,-1.272 6.456,-3.816 8.64,-5.76 2.208,-1.968 4.08,-4.416 5.184,-6.768 0.792,-1.752 0.936,-2.304 1.08,-4.464 0.144,-2.376 0.12,-2.544 -0.552,-4.152 -0.384,-0.912 -1.176,-2.376 -1.752,-3.216 -1.152,-1.728 -4.8,-5.472 -6.48,-6.648 -4.704,-3.312 -11.28,-6.72 -18,-9.36 -4.824,-1.872 -7.248,-2.712 -7.488,-2.568 -0.288,0.168 0.24,0.816 0.672,0.816 0.264,0 2.88,0.96 4.536,1.656 0.264,0.12 1.296,0.504 2.28,0.864 2.76,1.032 10.752,4.776 11.64,5.472 0.432,0.336 0.384,0.408 -1.344,1.512 -3.816,2.496 -9.24,4.824 -14.736,6.312 -1.584,0.432 -3.48,1.008 -4.2,1.272 -2.232,0.792 -2.184,0.816 -3.744,-0.432 -0.768,-0.648 -1.68,-1.416 -2.016,-1.728 -0.84,-0.768 -4.56,-3 -4.728,-2.832 -0.24,0.24 0.432,0.84 1.776,1.656 0.696,0.408 1.272,0.84 1.272,0.936 0,0.12 0.12,0.192 0.264,0.192 0.144,0 1.032,0.624 1.968,1.392 0.96,0.768 2.064,1.584 2.448,1.848 2.28,1.464 6.192,2.904 10.728,3.96 1.272,0.288 2.448,0.624 2.592,0.72 0.216,0.12 -0.264,0.84 -1.488,2.304 -1.8,2.16 -4.032,5.448 -4.032,5.976 0,0.624 -1.008,2.544 -1.752,3.336 -2.088,2.232 -7.608,4.608 -7.608,3.288 0,-0.24 -1.752,-3.24 -3.672,-6.264 -2.904,-4.56 -6.12,-8.352 -8.784,-10.32 -0.792,-0.6 -1.464,-1.224 -1.464,-1.368 0,-0.288 1.68,-2.4 3.696,-4.632 0.552,-0.6 1.584,-1.776 2.304,-2.64 2.064,-2.424 3.216,-3.72 3.408,-3.792 0.096,-0.048 0.72,-0.744 1.368,-1.56 0.648,-0.816 1.44,-1.776 1.752,-2.112 0.288,-0.336 1.152,-1.32 1.872,-2.136 0.72,-0.84 1.44,-1.632 1.56,-1.776 1.632,-1.824 2.544,-2.88 3.24,-3.768 0.456,-0.576 1.224,-1.464 1.704,-1.992 l 0.84,-0.936 0.672,0.432 c 0.384,0.264 0.744,0.336 0.864,0.216 0.12,-0.12 0.528,-1.08 0.912,-2.136 0.408,-1.056 1.056,-2.688 1.44,-3.6 0.408,-0.936 0.624,-1.704 0.504,-1.752 -0.12,-0.048 -0.672,0.288 -1.224,0.72 -0.576,0.456 -1.776,1.296 -2.712,1.872 -0.912,0.576 -1.968,1.296 -2.328,1.584 l -0.648,0.528 0.6,0.552 c 0.312,0.288 0.576,0.648 0.576,0.768 0,0.12 -0.84,1.176 -1.848,2.352 -1.032,1.176 -2.472,2.832 -3.192,3.672 -4.08,4.704 -6.96,8.016 -7.488,8.544 -0.312,0.336 -1.584,1.776 -2.832,3.24 -1.248,1.44 -2.448,2.808 -2.64,3.024 -0.192,0.192 -1.152,1.32 -2.136,2.448 -0.984,1.152 -1.824,2.088 -1.848,2.088 -0.096,0 -2.904,-1.224 -3.288,-1.44 -0.576,-0.336 -5.088,-1.392 -7.728,-1.824 -1.176,-0.168 -4.104,-0.48 -6.48,-0.672 -8.424,-0.696 -8.904,-0.744 -13.008,-1.488 -1.464,-0.24 -2.472,-0.528 -2.472,-0.696 0,-0.384 4.272,-2.328 9,-4.08 3.24,-1.2 10.2,-2.952 13.44,-3.384 1.464,-0.192 3.216,-0.432 3.936,-0.552 l 1.296,-0.192 1.296,1.176 c 2.616,2.376 5.808,4.08 8.352,4.512 0.672,0.12 1.392,0.288 1.632,0.36 0.312,0.12 0.384,0.072 0.264,-0.192 -0.144,-0.432 -0.456,-0.576 -2.184,-1.032 -2.04,-0.528 -4.296,-1.68 -6.192,-3.096 -1.752,-1.296 -2.184,-1.728 -1.992,-1.92 0.048,-0.072 1.392,-0.384 2.976,-0.72 3.984,-0.864 9.96,-2.28 10.536,-2.496 0.264,-0.12 1.128,-0.384 1.92,-0.624 3.36,-0.96 5.4,-1.968 5.4,-2.664 0,-0.36 -0.888,-0.648 -8.616,-2.832 -15.36,-4.368 -25.152,-6.672 -33.864,-7.944 -7.104,-1.056 -16.008,-1.344 -22.2,-0.696 z m 13.152,0.504 c 0.36,0.072 0.648,0.24 0.648,0.36 0,0.48 -7.08,8.472 -9.768,11.016 -2.568,2.448 -7.008,6.096 -9.216,7.536 l -2.376,1.56 -1.608,-0.24 c -2.52,-0.36 -5.04,-0.288 -8.04,0.24 -1.488,0.264 -2.928,0.528 -3.192,0.6 -0.408,0.096 -0.672,-0.216 -1.632,-1.92 -1.536,-2.712 -2.976,-4.608 -5.544,-7.272 -1.296,-1.32 -2.064,-2.304 -1.92,-2.424 0.504,-0.504 4.056,-2.232 8.856,-4.344 4.056,-1.776 11.208,-3.744 15.72,-4.32 1.248,-0.168 2.904,-0.36 3.672,-0.456 0.768,-0.12 2.232,-0.216 3.24,-0.24 1.008,-0.024 1.896,-0.12 1.944,-0.168 0.168,-0.144 8.376,-0.096 9.216,0.072 z M 90.816,288 c 7.536,0.864 14.592,2.256 24.024,4.704 1.2,0.288 4.104,1.056 6.48,1.656 2.376,0.6 5.016,1.296 5.88,1.56 0.864,0.24 3.312,0.96 5.472,1.584 2.136,0.624 3.864,1.224 3.84,1.344 -0.12,0.312 -2.976,1.536 -4.704,1.992 -7.872,2.184 -15.744,3.888 -20.688,4.44 -1.248,0.168 -3.456,0.552 -4.872,0.864 l -2.616,0.6 -1.176,-0.744 c -0.648,-0.384 -1.248,-0.72 -1.32,-0.72 -0.072,0 -1.056,-0.432 -2.136,-0.96 -4.368,-2.112 -11.208,-4.056 -16.896,-4.8 -2.04,-0.264 -3.744,-0.528 -3.816,-0.576 -0.048,-0.072 0.312,-0.528 0.816,-1.056 3.048,-3.12 4.584,-4.8 6.672,-7.32 1.296,-1.536 2.472,-2.808 2.616,-2.808 0.144,0 1.224,0.12 2.424,0.24 z m -45.744,12.168 c 2.208,2.208 4.152,4.728 5.64,7.32 0.36,0.624 0.648,1.224 0.648,1.344 0,0.144 -0.792,0.528 -1.728,0.888 -0.96,0.36 -2.928,1.224 -4.392,1.944 -7.128,3.456 -10.704,4.752 -16.032,5.856 -4.728,0.96 -12.648,1.296 -12.648,0.528 0,-0.24 2.952,-3.288 4.344,-4.488 0.6,-0.528 1.68,-1.44 2.4,-2.04 0.72,-0.6 1.896,-1.632 2.616,-2.304 1.44,-1.32 7.68,-6.096 9.24,-7.056 0.528,-0.312 1.08,-0.672 1.2,-0.768 1.008,-0.816 5.664,-3.552 6.048,-3.552 0.168,0 1.368,1.056 2.664,2.328 z M 80.88,300.12 c 4.2,0.48 6.576,0.96 10.416,2.088 4.368,1.272 10.656,3.984 10.776,4.632 0.024,0.12 -1.728,0.816 -3.912,1.56 -3.96,1.368 -6.816,2.544 -10.08,4.2 l -1.752,0.888 -2.664,-0.648 c -1.464,-0.336 -3.408,-0.888 -4.344,-1.2 -4.8,-1.584 -9.96,-3 -10.968,-3 -0.312,0 -0.768,-0.144 -1.008,-0.312 -0.408,-0.288 -0.24,-0.48 1.92,-1.968 2.112,-1.44 5.088,-3.84 5.736,-4.608 0.504,-0.576 2.328,-1.992 2.616,-1.992 0.144,0 1.608,0.168 3.264,0.36 z m -15.096,8.64 c 2.928,0.432 3.984,0.672 6.936,1.488 2.784,0.744 4.92,1.44 5.76,1.848 0.336,0.168 1.92,0.672 3.552,1.104 1.608,0.456 2.928,0.864 2.928,0.936 -0.024,0.192 -1.68,1.344 -3.24,2.256 -4.08,2.424 -11.304,10.248 -12.744,13.848 -0.24,0.576 -0.864,1.824 -1.368,2.76 -0.528,0.912 -1.344,2.4 -1.824,3.288 C 65.28,337.2 64.56,338.4 64.128,339 l -0.744,1.08 -1.512,-0.144 c -7.296,-0.648 -18,-2.88 -24.528,-5.136 -1.464,-0.504 -3.192,-1.104 -3.864,-1.32 -1.728,-0.6 -1.8,-0.72 -1.392,-3.192 0.672,-4.392 2.4,-8.424 4.992,-11.784 2.424,-3.12 2.856,-3.456 8.616,-6.144 4.248,-1.992 7.512,-3.048 11.904,-3.792 1.44,-0.24 5.952,-0.144 8.184,0.192 z m 97.968,1.368 c 0.432,0.312 1.008,0.672 1.296,0.84 1.272,0.672 4.2,3.072 5.88,4.824 2.904,3.048 4.776,6.336 4.944,8.712 0.216,3.024 -1.56,7.152 -4.392,10.152 -1.32,1.392 -1.368,1.44 -2.088,1.152 -2.328,-0.864 -4.344,-2.544 -7.608,-6.264 -3.984,-4.56 -6.816,-6.048 -15.504,-8.16 -2.4,-0.6 -6.168,-1.992 -6.288,-2.328 -0.12,-0.36 0.768,-0.72 3.936,-1.512 4.8,-1.2 8.328,-2.496 12.912,-4.728 1.056,-0.528 2.064,-1.08 2.28,-1.224 0.84,-0.696 3.024,-1.944 3.432,-1.968 0.264,-0.024 0.792,0.216 1.2,0.504 z m -68.472,5.568 c 0.6,0.072 2.544,0.24 4.32,0.384 5.544,0.408 9.816,0.936 11.016,1.344 0.24,0.072 -0.096,0.576 -1.104,1.608 -1.56,1.608 -2.976,3.336 -3.384,4.152 -0.6,1.128 -1.08,4.392 -1.104,7.272 -0.048,2.88 -0.048,2.976 -0.6,3.192 -1.584,0.576 -9.288,1.44 -14.088,1.56 -5.928,0.168 -9.864,-0.144 -15.216,-1.152 -4.896,-0.936 -6.096,-1.272 -6.192,-1.704 -0.168,-0.888 3.048,-5.856 5.448,-8.448 3.6,-3.816 5.688,-5.592 9.84,-8.256 l 2.184,-1.416 3.888,0.672 c 2.16,0.36 4.392,0.72 4.992,0.792 z m -56.4,-0.336 c 0,0.12 -0.216,0.36 -0.504,0.528 -1.824,1.104 -5.52,7.44 -6.312,10.872 -0.216,0.912 -0.504,2.064 -0.624,2.52 -0.12,0.456 -0.288,1.488 -0.36,2.28 -0.096,0.792 -0.312,1.608 -0.48,1.8 -1.752,2.112 -3.528,5.52 -4.8,9.24 -1.056,3.096 -2.064,5.088 -3,6 l -0.672,0.624 -0.792,-0.432 c -1.032,-0.552 -3.96,-2.616 -4.896,-3.456 -2.736,-2.448 -3.48,-3.192 -3.48,-3.456 0,-0.192 -0.144,-0.36 -0.288,-0.432 -0.192,-0.048 0,-0.264 0.408,-0.48 l 0.72,-0.384 -0.768,0.144 c -1.056,0.192 -1.416,-0.168 -2.424,-2.328 -0.84,-1.8 -0.84,-1.824 -0.864,-5.28 0,-3.216 0.048,-3.648 0.672,-5.52 0.648,-1.944 2.64,-5.616 3.336,-6.216 0.192,-0.144 0.648,-0.768 1.032,-1.368 0.648,-1.032 0.744,-1.08 1.536,-0.96 1.488,0.24 7.248,0.192 9.12,-0.096 4.8,-0.672 9.816,-1.992 11.808,-3.096 1.416,-0.792 1.632,-0.864 1.632,-0.504 z m 78.24,3.528 c 2.256,0.792 3.12,1.224 3.12,1.536 0,0.192 -2.184,2.928 -2.88,3.576 -0.072,0.072 -0.864,0.96 -1.752,1.992 -1.368,1.584 -1.584,1.944 -1.368,2.328 0.408,0.744 0.84,0.576 1.944,-0.792 0.576,-0.672 1.104,-1.296 1.176,-1.368 0.072,-0.072 1.08,-1.224 2.256,-2.592 1.152,-1.344 2.208,-2.448 2.304,-2.448 0.408,0 3.072,2.184 4.632,3.792 l 1.608,1.68 -0.768,1.176 c -1.152,1.728 -1.152,1.704 -2.832,3.36 -1.824,1.8 -2.784,2.496 -5.544,4.08 -2.256,1.296 -6.528,3.048 -6.984,2.88 -0.192,-0.072 0.192,-0.6 1.008,-1.368 1.056,-1.032 1.2,-1.248 0.72,-1.128 -0.336,0.096 -0.96,0.168 -1.392,0.168 -0.432,0 -0.744,0.096 -0.648,0.216 0.144,0.264 -0.192,0.528 -1.32,0.912 -1.68,0.6 -2.16,0.384 -2.592,-1.128 l -0.24,-0.84 -0.024,0.792 c -0.048,1.68 0.984,2.28 2.832,1.608 0.576,-0.192 1.128,-0.36 1.248,-0.36 0.384,0 0.24,0.864 -0.192,1.272 -0.72,0.624 -6.792,2.016 -6.792,1.536 0,-0.096 0.264,-1.08 0.6,-2.208 0.528,-1.848 0.6,-2.496 0.576,-6.192 -0.024,-5.04 0.36,-7.128 1.608,-9 0.96,-1.44 3.792,-4.32 4.536,-4.608 0.576,-0.216 2.712,0.264 5.16,1.128 z m 37.392,5.784 c 0.744,0.36 2.064,1.128 2.928,1.704 1.536,1.056 5.184,4.608 5.928,5.784 0.6,0.96 3.384,3.264 4.656,3.888 0.648,0.288 1.176,0.624 1.176,0.72 0,0.312 -2.616,2.28 -4.824,3.648 -3.096,1.944 -5.28,2.904 -11.256,4.968 -4.464,1.56 -4.008,1.488 -5.256,0.912 -0.6,-0.288 -1.32,-0.6 -1.584,-0.696 -2.304,-0.84 -5.832,-3.048 -7.608,-4.752 -1.008,-0.96 -1.152,-1.488 -0.408,-1.488 0.432,0 3,-1.152 4.536,-2.04 1.584,-0.912 3.192,-3.192 3.96,-5.664 0.504,-1.584 5.304,-7.656 6.048,-7.656 0.168,0 0.936,0.288 1.704,0.672 z m -24.984,3.696 c 0.408,0.432 1.248,1.608 1.872,2.592 0.624,0.984 1.32,2.088 1.584,2.424 0.24,0.36 0.816,1.392 1.296,2.28 0.48,0.912 0.984,1.776 1.128,1.944 0.12,0.168 0.192,0.408 0.144,0.576 -0.072,0.24 -3.96,2.76 -5.232,3.384 -0.336,0.168 -0.744,0.432 -0.912,0.6 -0.144,0.144 -1.128,0.744 -2.136,1.296 -1.032,0.576 -2.4,1.32 -3.072,1.704 -0.648,0.36 -2.112,1.128 -3.24,1.68 -1.128,0.576 -2.088,1.104 -2.16,1.176 -0.072,0.072 -1.08,0.624 -2.28,1.224 -1.176,0.6 -2.472,1.272 -2.88,1.488 -0.384,0.216 -1.272,0.648 -1.944,0.936 l -1.224,0.576 -1.416,-0.432 c -2.568,-0.816 -5.256,-1.392 -7.896,-1.68 -1.464,-0.144 -2.688,-0.312 -2.736,-0.36 -0.048,-0.048 0.456,-0.744 1.104,-1.584 1.536,-1.992 2.424,-3.336 3.408,-5.232 0.432,-0.864 0.936,-1.68 1.08,-1.824 0.144,-0.144 1.608,-0.576 3.264,-0.912 4.968,-1.08 9.144,-2.592 12.24,-4.416 3.216,-1.896 6.36,-4.56 7.896,-6.696 0.6,-0.816 1.152,-1.512 1.224,-1.512 0.096,0 0.48,0.36 0.888,0.768 z m -57.84,5.712 c 1.584,0.384 4.008,0.888 5.376,1.104 1.368,0.216 2.568,0.48 2.664,0.552 0.24,0.216 -0.624,3.696 -1.464,5.808 -2.376,6.12 -6.12,11.616 -11.52,16.968 -1.776,1.776 -3.696,3.6 -4.248,4.056 l -1.032,0.816 -3.672,-1.776 c -4.8,-2.352 -5.448,-2.64 -7.8,-3.408 C 48.888,357.84 48,357.48 48,357.384 c 0,-0.072 0.48,-0.36 1.032,-0.6 2.088,-0.936 4.44,-2.712 6.912,-5.184 1.416,-1.416 2.808,-2.928 3.12,-3.408 3.192,-4.728 4.992,-7.56 6.12,-9.624 2.136,-3.864 2.976,-5.208 3.312,-5.208 0.168,0 1.608,0.312 3.192,0.72 z m -38.16,0.12 c 8.184,3.072 18.552,5.424 27.384,6.264 0.96,0.096 1.8,0.264 1.872,0.384 0.12,0.192 -1.2,2.472 -2.376,4.032 -0.24,0.336 -1.128,1.536 -1.968,2.688 -0.864,1.128 -2.112,2.664 -2.808,3.36 -3.072,3.12 -8.28,6.264 -10.032,6.024 -0.456,-0.048 -1.008,-0.168 -1.2,-0.24 -0.528,-0.216 -0.48,-0.192 -1.92,-0.408 -0.72,-0.096 -2.184,-0.408 -3.24,-0.672 -1.056,-0.264 -2.088,-0.504 -2.28,-0.552 -0.192,-0.048 -0.36,-0.096 -0.36,-0.12 0,-0.024 -0.216,-0.072 -0.48,-0.12 -0.624,-0.12 -5.592,-1.728 -6.288,-2.04 -0.312,-0.144 -0.792,-0.336 -1.08,-0.456 -0.312,-0.12 -1.704,-0.768 -3.12,-1.44 L 23.064,349.656 24,348.312 c 0.888,-1.224 2.4,-4.68 2.4,-5.4 0,-0.456 1.488,-3.84 2.64,-5.928 1.104,-2.04 2.112,-3.384 2.568,-3.384 0.144,0 1.032,0.264 1.92,0.6 z m 71.592,0.672 c 0,1.128 -0.96,4.272 -1.92,6.264 -0.864,1.824 -3.36,5.784 -4.848,7.68 -2.112,2.712 -8.136,8.28 -10.536,9.72 -1.056,0.648 -8.736,8.28 -9.48,9.432 -0.936,1.44 -2.04,2.592 -2.52,2.592 -0.384,0 -1.44,-0.336 -2.976,-0.96 -0.264,-0.096 -1.128,-0.432 -1.92,-0.72 -1.752,-0.648 -6.648,-3.384 -7.752,-4.296 -0.456,-0.408 -0.72,-0.816 -0.648,-1.008 0.096,-0.192 0.72,-0.816 1.44,-1.392 1.704,-1.392 4.2,-3.96 6.6,-6.744 4.632,-5.4 8.616,-12.84 9.696,-18.096 l 0.288,-1.416 6.84,-0.048 c 6.744,-0.024 10.512,-0.312 15.096,-1.176 2.568,-0.48 2.64,-0.48 2.64,0.168 z m 31.8,5.136 c 1.296,1.944 4.848,4.584 8.352,6.24 0.744,0.36 1.368,0.72 1.368,0.816 0,0.096 -0.936,0.48 -2.088,0.816 -2.256,0.672 -4.368,1.392 -5.352,1.848 -0.336,0.144 -0.816,0.336 -1.08,0.432 -2.184,0.84 -6.24,2.808 -8.208,4.008 -0.96,0.552 -1.8,1.032 -1.872,1.032 -0.096,0 -0.504,0.264 -0.936,0.6 -0.744,0.576 -1.8,0.792 -2.136,0.432 -0.096,-0.072 -0.408,-0.168 -0.696,-0.216 -0.312,-0.024 -1.296,-0.24 -2.232,-0.456 -7.416,-1.728 -9.984,-2.472 -10.128,-2.904 -0.048,-0.12 1.368,-0.936 3.12,-1.848 2.952,-1.488 4.92,-2.52 10.008,-5.256 1.128,-0.576 2.592,-1.416 3.264,-1.824 0.672,-0.432 1.32,-0.768 1.416,-0.768 0.096,0 0.48,-0.264 0.888,-0.6 0.384,-0.336 0.84,-0.6 1.032,-0.6 0.168,0 0.432,-0.168 0.6,-0.36 0.384,-0.456 3.384,-2.208 3.888,-2.256 0.096,-0.024 0.456,0.384 0.792,0.864 z m -34.032,11.136 c 2.184,0.288 7.128,1.656 7.872,2.16 0.48,0.336 5.88,1.896 9.696,2.832 2.16,0.528 3.96,1.008 4.032,1.08 0.192,0.192 -0.168,0.624 -0.528,0.624 -0.192,0 -0.648,0.288 -1.008,0.624 -0.36,0.336 -0.984,0.792 -1.392,0.984 -0.384,0.192 -1.104,0.72 -1.56,1.152 -0.864,0.816 -2.592,1.92 -6.36,4.056 -3.72,2.136 -4.176,2.304 -5.4,2.064 -1.8,-0.336 -1.728,-0.312 -7.2,-2.952 -4.488,-2.184 -8.064,-3.6 -10.536,-4.224 -0.864,-0.216 -1.584,-0.504 -1.632,-0.648 -0.048,-0.144 0.696,-0.864 1.656,-1.608 0.96,-0.744 2.88,-2.472 4.272,-3.864 l 2.52,-2.544 1.848,0 c 1.008,0 2.688,0.12 3.72,0.264 z m -13.512,8.832 c 5.064,1.512 5.952,1.872 12.216,4.944 2.064,1.008 4.152,1.968 4.656,2.136 0.84,0.288 1.368,0.864 0.792,0.864 -0.144,0 -0.84,0.264 -1.512,0.576 -1.176,0.528 -3.912,1.536 -4.728,1.704 -0.192,0.048 -1.152,0.264 -2.136,0.456 -0.96,0.216 -1.824,0.432 -1.92,0.48 -0.12,0.072 -0.984,0.192 -4.224,0.552 -2.736,0.312 -11.016,0.168 -12.936,-0.24 -1.032,-0.216 -1.944,-0.456 -1.992,-0.504 -0.36,-0.36 3.6,-5.208 6.816,-8.328 3.048,-2.952 3.36,-3.12 4.968,-2.64 z"
       id="path3497"
       inkscape:connector-curvature="0"
       style="fill:#000000;stroke:none" />
    <path
       d="m 112.2,320.616 c -0.672,0.384 -1.368,0.864 -1.536,1.08 -0.456,0.552 -0.696,0.48 -0.792,-0.288 -0.072,-0.408 -0.144,-0.504 -0.216,-0.288 -0.552,1.512 -1.176,3.528 -1.176,3.696 0,0.144 0.36,-0.096 0.792,-0.504 0.408,-0.408 1.152,-0.96 1.608,-1.248 0.528,-0.312 0.696,-0.504 0.432,-0.504 -0.6,0 -0.528,-0.288 0.144,-0.936 0.864,-0.816 2.208,-1.176 3.84,-1.056 1.824,0.12 1.344,-0.288 -0.576,-0.504 -1.176,-0.144 -1.464,-0.072 -2.52,0.552 z"
       id="path3499"
       inkscape:connector-curvature="0"
       style="fill:#000000;stroke:none" />
    <path
       d="m 121.824,324.048 c 0.24,0.288 0.648,0.744 0.888,1.008 0.216,0.264 0.408,0.672 0.408,0.888 0,0.24 0.12,0.504 0.24,0.576 0.168,0.096 0.216,-0.048 0.096,-0.456 -0.192,-0.84 0.216,-0.792 0.84,0.072 0.624,0.864 0.624,1.128 0,2.28 -0.6,1.152 -0.408,1.44 0.24,0.36 0.744,-1.224 0.744,-2.112 0,-3.168 -0.384,-0.528 -0.408,-0.648 -0.096,-0.648 0.744,0 0.312,-0.384 -1.032,-0.912 -1.8,-0.696 -2.184,-0.696 -1.584,0 z"
       id="path3501"
       inkscape:connector-curvature="0"
       style="fill:#000000;stroke:none" />
    <path
       d="m 107.904,327.288 c -0.072,0.24 -0.192,0.936 -0.288,1.56 -0.096,0.792 -0.264,1.152 -0.504,1.152 -0.24,0 -0.312,0.144 -0.216,0.384 0.096,0.216 0.264,0.864 0.408,1.44 0.312,1.248 0.576,1.2 0.792,-0.168 0.096,-0.552 0.312,-1.224 0.504,-1.488 0.552,-0.768 0.408,-1.08 -0.168,-0.408 l -0.504,0.6 0.144,-1.752 c 0.144,-1.704 0.072,-2.136 -0.168,-1.32 z"
       id="path3503"
       inkscape:connector-curvature="0"
       style="fill:#000000;stroke:none" />
    <path
       d="m 120.72,331.344 c -0.72,0.312 -1.512,0.552 -1.728,0.576 -0.24,0 -0.432,0.12 -0.432,0.24 0,0.144 0.264,0.192 0.6,0.096 1.032,-0.264 0.48,0.432 -1.08,1.32 -0.792,0.456 -1.44,0.912 -1.44,1.032 0,0.312 0.24,0.24 1.68,-0.648 1.488,-0.912 1.992,-1.032 1.776,-0.48 -0.096,0.192 -0.024,0.36 0.12,0.36 0.144,0 0.264,-0.096 0.264,-0.216 0,-0.12 0.384,-0.768 0.864,-1.464 0.456,-0.672 0.816,-1.272 0.768,-1.296 -0.048,-0.048 -0.672,0.168 -1.392,0.48 z"
       id="path3505"
       inkscape:connector-curvature="0"
       style="fill:#000000;stroke:none" />
    <text
       sodipodi:linespacing="125%"
       id="text3551"
       y="85.708549"
       x="38.026161"
       style="font-size:8.64000034px;font-style:normal;font-variant:normal;font-weight:bold;font-stretch:normal;text-indent:0;text-align:start;text-decoration:none;line-height:125%;letter-spacing:0px;word-spacing:0px;text-transform:none;direction:ltr;block-progression:tb;writing-mode:lr-tb;text-anchor:start;baseline-shift:baseline;color:#000000;fill:#000000;fill-opacity:1;fill-rule:nonzero;stroke:none;stroke-width:1.24999988px;marker:none;visibility:visible;display:inline;overflow:visible;enable-background:accumulate;font-family:Linux Libertine O;-inkscape-font-specification:Sans"
       xml:space="preserve"><tspan
         y="85.708549"
         x="38.026161"
         id="tspan3553"
         sodipodi:role="line">C</tspan></text>
    <text
       sodipodi:linespacing="125%"
       id="text3555"
       y="83.154953"
       x="107.77793"
       style="font-size:8.64000034px;font-style:normal;font-variant:normal;font-weight:bold;font-stretch:normal;text-indent:0;text-align:start;text-decoration:none;line-height:125%;letter-spacing:0px;word-spacing:0px;text-transform:none;direction:ltr;block-progression:tb;writing-mode:lr-tb;text-anchor:start;baseline-shift:baseline;color:#000000;fill:#000000;fill-opacity:1;fill-rule:nonzero;stroke:none;stroke-width:1.24999988px;marker:none;visibility:visible;display:inline;overflow:visible;enable-background:accumulate;font-family:Linux Libertine O;-inkscape-font-specification:Sans"
       xml:space="preserve"><tspan
         y="83.154953"
         x="107.77793"
         id="tspan3557"
         sodipodi:role="line">d<tspan
   id="tspan3597"
   style="font-style:italic;-inkscape-font-specification:Linux Libertine O Bold Italic">s</tspan></tspan></text>
    <text
       sodipodi:linespacing="125%"
       id="text3559"
       y="93.95414"
       x="147.9774"
       style="font-size:8.64000034px;font-style:normal;font-variant:normal;font-weight:bold;font-stretch:normal;text-indent:0;text-align:start;text-decoration:none;line-height:125%;letter-spacing:0px;word-spacing:0px;text-transform:none;direction:ltr;block-progression:tb;writing-mode:lr-tb;text-anchor:start;baseline-shift:baseline;color:#000000;fill:#000000;fill-opacity:1;fill-rule:nonzero;stroke:none;stroke-width:1.24999988px;marker:none;visibility:visible;display:inline;overflow:visible;enable-background:accumulate;font-family:Linux Libertine O;-inkscape-font-specification:Sans"
       xml:space="preserve"><tspan
         y="93.95414"
         x="147.9774"
         id="tspan3561"
         sodipodi:role="line">F</tspan></text>
    <text
       sodipodi:linespacing="125%"
       id="text3563"
       y="112.33638"
       x="84.437057"
       style="font-size:8.64000034px;font-style:normal;font-variant:normal;font-weight:bold;font-stretch:normal;text-indent:0;text-align:start;text-decoration:none;line-height:125%;letter-spacing:0px;word-spacing:0px;text-transform:none;direction:ltr;block-progression:tb;writing-mode:lr-tb;text-anchor:start;baseline-shift:baseline;color:#000000;fill:#000000;fill-opacity:1;fill-rule:nonzero;stroke:none;stroke-width:1.24999988px;marker:none;visibility:visible;display:inline;overflow:visible;enable-background:accumulate;font-family:Linux Libertine O;-inkscape-font-specification:Sans"
       xml:space="preserve"><tspan
         y="112.33638"
         x="84.437057"
         id="tspan3565"
         sodipodi:role="line">(a)</tspan></text>
    <text
       sodipodi:linespacing="125%"
       id="text3567"
       y="156.00154"
       x="24.142057"
       style="font-size:8.64000034px;font-style:normal;font-variant:normal;font-weight:bold;font-stretch:normal;text-indent:0;text-align:start;text-decoration:none;line-height:125%;letter-spacing:0px;word-spacing:0px;text-transform:none;direction:ltr;block-progression:tb;writing-mode:lr-tb;text-anchor:start;baseline-shift:baseline;color:#000000;fill:#000000;fill-opacity:1;fill-rule:nonzero;stroke:none;stroke-width:1.24999988px;marker:none;visibility:visible;display:inline;overflow:visible;enable-background:accumulate;font-family:Linux Libertine O;-inkscape-font-specification:Sans"
       xml:space="preserve"><tspan
         y="156.00154"
         x="24.142057"
         id="tspan3569"
         sodipodi:role="line">C<tspan
   id="tspan3595"
   style="font-size:7.20000029px;baseline-shift:sub">1</tspan></tspan></text>
    <text
       sodipodi:linespacing="125%"
       id="text3571"
       y="195.93312"
       x="84.993622"
       style="font-size:8.64000034px;font-style:normal;font-variant:normal;font-weight:bold;font-stretch:normal;text-indent:0;text-align:start;text-decoration:none;line-height:125%;letter-spacing:0px;word-spacing:0px;text-transform:none;direction:ltr;block-progression:tb;writing-mode:lr-tb;text-anchor:start;baseline-shift:baseline;color:#000000;fill:#000000;fill-opacity:1;fill-rule:nonzero;stroke:none;stroke-width:1.24999988px;marker:none;visibility:visible;display:inline;overflow:visible;enable-background:accumulate;font-family:Linux Libertine O;-inkscape-font-specification:Sans"
       xml:space="preserve"><tspan
         y="195.93312"
         x="84.993622"
         id="tspan3573"
         sodipodi:role="line">B</tspan></text>
    <text
       sodipodi:linespacing="125%"
       id="text3575"
       y="221.89742"
       x="131.06532"
       style="font-size:8.64000034px;font-style:normal;font-variant:normal;font-weight:bold;font-stretch:normal;text-indent:0;text-align:start;text-decoration:none;line-height:125%;letter-spacing:0px;word-spacing:0px;text-transform:none;direction:ltr;block-progression:tb;writing-mode:lr-tb;text-anchor:start;baseline-shift:baseline;color:#000000;fill:#000000;fill-opacity:1;fill-rule:nonzero;stroke:none;stroke-width:1.24999988px;marker:none;visibility:visible;display:inline;overflow:visible;enable-background:accumulate;font-family:Linux Libertine O;-inkscape-font-specification:Sans"
       xml:space="preserve"><tspan
         y="221.89742"
         x="131.06532"
         id="tspan3577"
         sodipodi:role="line">C<tspan
   id="tspan3593"
   style="font-size:7.20000029px;baseline-shift:sub">2</tspan></tspan></text>
    <text
       sodipodi:linespacing="125%"
       id="text3579"
       y="249.36159"
       x="86.152824"
       style="font-size:8.64000034px;font-style:normal;font-variant:normal;font-weight:bold;font-stretch:normal;text-indent:0;text-align:start;text-decoration:none;line-height:125%;letter-spacing:0px;word-spacing:0px;text-transform:none;direction:ltr;block-progression:tb;writing-mode:lr-tb;text-anchor:start;baseline-shift:baseline;color:#000000;fill:#000000;fill-opacity:1;fill-rule:nonzero;stroke:none;stroke-width:1.24999988px;marker:none;visibility:visible;display:inline;overflow:visible;enable-background:accumulate;font-family:Linux Libertine O;-inkscape-font-specification:Sans"
       xml:space="preserve"><tspan
         y="249.36159"
         x="86.152824"
         id="tspan3581"
         sodipodi:role="line">(b)</tspan></text>
    <text
       sodipodi:linespacing="125%"
       id="text3583"
       y="295.02478"
       x="150.38097"
       style="font-size:8.64000034px;font-style:normal;font-variant:normal;font-weight:bold;font-stretch:normal;text-indent:0;text-align:start;text-decoration:none;line-height:125%;letter-spacing:0px;word-spacing:0px;text-transform:none;direction:ltr;block-progression:tb;writing-mode:lr-tb;text-anchor:start;baseline-shift:baseline;color:#000000;fill:#000000;fill-opacity:1;fill-rule:nonzero;stroke:none;stroke-width:1.24999988px;marker:none;visibility:visible;display:inline;overflow:visible;enable-background:accumulate;font-family:Linux Libertine O;-inkscape-font-specification:Sans"
       xml:space="preserve"><tspan
         y="295.02478"
         x="150.38097"
         id="tspan3585"
         sodipodi:role="line">a<tspan
   id="tspan3591"
   style="font-size:7.20000029px;baseline-shift:sub">i</tspan></tspan></text>
    <text
       sodipodi:linespacing="125%"
       id="text3587"
       y="387.81537"
       x="89.251106"
       style="font-size:8.64000034px;font-style:normal;font-variant:normal;font-weight:bold;font-stretch:normal;text-indent:0;text-align:start;text-decoration:none;line-height:125%;letter-spacing:0px;word-spacing:0px;text-transform:none;direction:ltr;block-progression:tb;writing-mode:lr-tb;text-anchor:start;baseline-shift:baseline;color:#000000;fill:#000000;fill-opacity:1;fill-rule:nonzero;stroke:none;stroke-width:1.24999988px;marker:none;visibility:visible;display:inline;overflow:visible;enable-background:accumulate;font-family:Linux Libertine O;-inkscape-font-specification:Sans"
       xml:space="preserve"><tspan
         y="387.81537"
         x="89.251106"
         id="tspan3589"
         sodipodi:role="line">(c)</tspan></text>
  </g>
</svg>
