<?xml version="1.0" encoding="UTF-8" standalone="no"?>
<svg
   xmlns:dc="http://purl.org/dc/elements/1.1/"
   xmlns:cc="http://creativecommons.org/ns#"
   xmlns:rdf="http://www.w3.org/1999/02/22-rdf-syntax-ns#"
   xmlns:svg="http://www.w3.org/2000/svg"
   xmlns="http://www.w3.org/2000/svg"
   xmlns:sodipodi="http://sodipodi.sourceforge.net/DTD/sodipodi-0.dtd"
   xmlns:inkscape="http://www.inkscape.org/namespaces/inkscape"
   version="1.0"
   width="199.680000pt"
   height="601.920000pt"
   viewBox="0 0 199.680000 601.920000"
   preserveAspectRatio="xMidYMid meet"
   id="svg3243"
   inkscape:version="0.48.4 r9939"
   sodipodi:docname="change-in-field-only-depends-on-sigma.svg">
  <defs
     id="defs3839" />
  <sodipodi:namedview
     pagecolor="#ffffff"
     bordercolor="#666666"
     borderopacity="1"
     objecttolerance="10"
     gridtolerance="10"
     guidetolerance="10"
     inkscape:pageopacity="0"
     inkscape:pageshadow="2"
     inkscape:window-width="1280"
     inkscape:window-height="996"
     id="namedview3837"
     showgrid="false"
     inkscape:zoom="0.92649716"
     inkscape:cx="96.064399"
     inkscape:cy="351.91909"
     inkscape:window-x="0"
     inkscape:window-y="0"
     inkscape:window-maximized="1"
     inkscape:current-layer="svg3243" />
  <metadata
     id="metadata3245">
Created by potrace 1.10, written by Peter Selinger 2001-2011
<rdf:RDF>
  <cc:Work
     rdf:about="">
    <dc:format>image/svg+xml</dc:format>
    <dc:type
       rdf:resource="http://purl.org/dc/dcmitype/StillImage" />
    <dc:title />
  </cc:Work>
</rdf:RDF>
</metadata>
  <g
     id="g4207"
     transform="translate(-5.7152508,0)">
    <rect
       y="-0.035742819"
       x="-17.103649"
       height="143.71057"
       width="47.402134"
       id="rect3405"
       style="fill:#b9b9b9;fill-opacity:1;stroke:none" />
    <rect
       y="152.51088"
       x="-17.103649"
       height="154.74043"
       width="47.402134"
       id="rect3405-5"
       style="fill:#b9b9b9;fill-opacity:1;stroke:none" />
    <rect
       y="315.89307"
       x="-17.103649"
       height="143.5088"
       width="47.402134"
       id="rect3405-4"
       style="fill:#b9b9b9;fill-opacity:1;stroke:none" />
    <rect
       y="468.43863"
       x="-17.103649"
       height="133.48778"
       width="47.402134"
       id="rect3405-0"
       style="fill:#b9b9b9;fill-opacity:1;stroke:none" />
  </g>
  <g
     style="fill:#b9b9b9;stroke:none"
     transform="matrix(0.024,0,0,-0.024,0.00753215,601.92313)"
     id="g6">
    <path
       inkscape:connector-curvature="0"
       d="m 0,23024 c 1,-1609 3,-2053 13,-2047 9,5 9,3 0,-8 -10,-12 -13,-228 -13,-946 0,-878 1,-930 18,-931 82,-8 1393,-1 1414,7 14,5 29,7 32,4 3,-4 118,-7 254,-8 213,-1 291,2 397,18 11,1 22,-1 25,-5 3,-4 61,-10 128,-14 90,-4 127,-3 137,6 9,8 15,8 15,2 0,-7 234,-9 743,-6 408,2 753,3 767,3 41,-2 53,-2 95,0 22,1 75,-1 118,-3 49,-4 77,-2 77,4 0,7 6,7 19,0 25,-13 98,-13 106,0 5,8 11,8 20,0 9,-7 36,-9 77,-4 34,3 77,6 93,5 128,-4 1388,-5 1391,0 2,3 29,2 61,-2 91,-13 211,-9 227,7 12,11 16,11 26,0 9,-12 153,-14 895,-13 486,1 886,4 889,7 3,3 41,3 86,-1 44,-4 93,-4 108,0 15,4 42,3 60,-2 l 32,-10 0,-183 0,-183 -485,2 c -318,1 -485,-1 -485,-8 0,-6 -3,-6 -8,0 -9,13 -92,16 -92,3 0,-5 -9,-4 -19,2 -21,11 -845,13 -1291,4 -124,-3 -231,-4 -237,-3 -15,2 -249,3 -313,1 -25,-1 -88,-1 -141,0 -52,1 -101,-2 -107,-6 -7,-4 -12,-3 -12,1 0,5 -182,8 -407,7 -225,-1 -520,-3 -658,-3 -137,0 -295,-1 -350,-1 -55,0 -129,0 -165,0 -36,1 -256,1 -490,1 -234,1 -607,1 -830,2 -327,0 -1161,-3 -1575,-7 -44,0 -83,-5 -87,-11 -5,-7 -8,-6 -8,1 0,8 -47,12 -157,13 -87,1 -211,3 -275,5 l -118,3 0,-3223 0,-3224 63,-1 c 34,-1 66,-1 71,0 28,6 1004,1 1019,-5 11,-4 17,-1 17,7 0,12 2,12 9,0 5,-8 14,-10 21,-6 7,4 1610,10 3561,12 l 3549,3 0,-185 0,-185 -132,-2 c -73,-1 -155,-2 -183,-3 -27,-1 -126,-2 -220,-2 -93,1 -548,0 -1010,0 -462,-1 -867,-1 -900,0 -80,2 -1626,0 -1645,-2 -8,-1 -78,0 -155,2 -81,2 -147,-1 -157,-7 -11,-7 -24,-6 -40,0 -26,12 -287,12 -305,1 -6,-4 -14,-3 -17,2 -8,12 -335,12 -358,0 -11,-6 -19,-5 -24,2 -4,8 -143,9 -478,4 -259,-3 -475,-6 -481,-5 -5,1 -365,3 -800,6 -434,3 -798,7 -808,10 -12,4 -17,0 -17,-13 0,-14 -2,-15 -9,-4 -6,10 -19,12 -40,8 -18,-4 -52,-1 -76,5 -32,9 -61,9 -105,2 -33,-6 -60,-6 -60,-1 0,4 -8,6 -18,3 -9,-3 -74,-7 -144,-8 l -126,-3 -1,-253 c 0,-193 3,-251 12,-245 9,5 9,3 1,-8 -17,-20 -17,-322 -1,-313 8,5 8,2 0,-7 -18,-18 -18,-163 -1,-153 10,6 10,4 1,-7 -17,-17 -17,-91 0,-108 8,-9 8,-12 0,-7 -17,9 -18,-801 0,-823 9,-12 9,-13 -1,-7 C 2,9990 0,9584 0,7966 l 1,-2026 67,-1 c 561,-6 1292,-5 1309,2 15,6 23,5 23,-2 0,-8 15,-9 44,-5 24,4 170,7 323,7 629,-1 1461,-1 1813,0 206,0 399,0 428,0 28,0 60,0 70,0 9,0 222,0 472,0 250,0 496,2 545,4 123,5 234,5 475,0 198,-4 577,-5 1615,-2 270,1 517,1 550,0 33,-2 69,-3 80,-2 11,0 127,0 258,-1 l 237,0 0,-190 0,-190 -107,0 c -60,0 -450,-1 -868,-2 -418,-1 -809,-1 -870,0 -60,2 -299,3 -530,3 -340,0 -4447,0 -4590,-1 -22,0 -334,2 -692,3 L 0,5566 0,2783 0,0 l 4160,0 4160,0 0,12539 0,12538 -331,2 c -265,1 -329,-1 -323,-11 6,-11 5,-11 -8,0 -22,17 -2142,16 -2131,-1 5,-8 2,-8 -8,0 -13,10 -594,13 -2767,13 l -2752,0 0,-2056 z m 3746,1775 c 253,1 264,1 264,-18 0,-10 7,-24 15,-31 23,-19 67,3 63,32 -2,11 2,23 7,25 6,2 10,-27 10,-74 1,-43 2,-89 3,-103 1,-14 1,-83 0,-155 -1,-71 -1,-173 1,-225 1,-52 2,-165 2,-250 0,-85 2,-279 5,-430 3,-151 5,-360 5,-465 -1,-530 -3,-703 -8,-733 -5,-30 -8,-33 -35,-30 -39,4 -62,-26 -35,-46 9,-7 28,-11 41,-9 27,5 34,-14 35,-94 1,-42 0,-43 -32,-43 -36,0 -57,15 -57,41 0,23 -39,36 -51,18 -5,-8 -9,-21 -9,-30 0,-19 -20,-29 -56,-29 -19,0 -26,6 -30,30 -13,62 -58,63 -68,2 l -5,-37 -138,2 c -162,3 -183,7 -183,32 0,10 -7,24 -15,31 -18,15 -40,1 -50,-31 -4,-12 -16,-19 -31,-19 -23,0 -24,2 -24,83 -1,142 -7,261 -15,290 -4,15 -3,27 1,27 9,0 9,254 0,276 -3,8 11,20 35,31 47,20 52,56 9,61 -14,2 -29,7 -33,11 -4,5 -8,83 -8,175 0,114 -4,174 -12,188 -9,16 -9,22 1,25 14,5 16,42 2,63 -5,9 -5,19 1,26 6,8 9,60 7,128 l -3,115 38,15 c 31,12 38,19 35,38 -2,17 -11,24 -33,28 -29,5 -30,7 -35,75 -8,111 -4,125 36,125 56,0 56,54 1,62 -35,5 -51,51 -38,104 6,25 9,50 5,56 -8,13 -16,237 -9,259 3,9 17,20 30,23 35,9 33,43 -2,59 l -28,12 1,125 c 1,154 5,168 43,162 16,-2 32,1 35,7 5,8 13,8 27,0 14,-7 113,-10 285,-10 z m -84,-6641 c -2,-32 1,-36 25,-43 15,-3 33,-15 41,-26 7,-10 24,-19 38,-19 20,0 24,5 24,30 0,19 -5,30 -14,30 -7,0 -19,7 -26,15 -7,8 -17,12 -22,9 -5,-4 -8,4 -6,17 3,21 9,24 43,24 37,0 40,-2 43,-29 3,-26 6,-28 36,-23 18,3 38,2 44,-2 9,-5 12,-50 11,-147 0,-76 -1,-154 0,-171 1,-18 -4,-33 -10,-33 -6,0 -8,7 -5,15 8,21 -41,40 -60,24 -8,-6 -14,-17 -14,-25 0,-16 30,-33 48,-27 7,3 20,-1 28,-8 12,-10 15,-34 14,-113 0,-56 1,-118 2,-138 3,-38 3,-38 -34,-38 -33,0 -38,-3 -38,-24 0,-24 16,-36 51,-36 12,0 19,-7 19,-19 0,-11 3,-26 6,-35 8,-20 -70,-60 -114,-59 -21,1 -41,-6 -53,-18 -20,-20 -20,-20 1,-46 11,-14 20,-35 20,-45 0,-17 -5,-19 -26,-14 -56,14 -95,-30 -48,-55 18,-9 24,-21 24,-46 0,-28 4,-33 23,-33 24,0 65,35 54,46 -6,6 16,34 27,34 3,0 6,-10 6,-23 0,-40 23,-61 58,-54 l 31,6 -2,-65 c -3,-71 -12,-84 -60,-84 -23,0 -28,-4 -25,-21 5,-33 32,-46 53,-26 9,9 21,17 26,17 7,0 15,-144 10,-187 -1,-6 3,-15 9,-18 8,-5 5,-13 -6,-27 -14,-14 -16,-23 -8,-36 8,-11 8,-28 2,-51 -6,-19 -8,-43 -6,-55 4,-19 -1,-21 -44,-23 l -48,-2 0,39 c 0,36 4,41 40,60 36,18 55,50 30,50 -5,0 -10,19 -10,43 0,24 -5,48 -12,55 -15,15 -48,16 -48,2 0,-5 -4,-10 -10,-10 -5,0 -7,13 -4,30 9,45 -20,73 -54,52 -9,-6 -10,-20 -3,-55 6,-33 5,-47 -3,-47 -11,0 -23,-22 -45,-82 -6,-16 -14,-28 -19,-28 -4,0 -7,-15 -5,-32 4,-40 -22,-82 -37,-58 -5,8 -21,14 -36,15 -42,0 -41,23 3,41 47,20 45,18 37,38 -4,9 -22,23 -40,31 -33,13 -34,16 -34,69 0,53 1,56 25,56 19,0 29,-9 41,-37 14,-31 18,-34 21,-18 3,11 12,26 21,33 14,11 13,12 -6,12 -17,0 -22,6 -22,28 -1,38 -25,69 -43,53 -21,-17 -49,-3 -45,23 4,24 36,34 50,14 7,-10 11,-10 15,0 6,15 55,16 71,0 9,-9 16,-8 29,5 28,28 6,53 -45,49 -22,-2 -43,1 -47,8 -4,6 -20,8 -39,4 -38,-7 -50,10 -40,53 4,14 7,44 8,66 1,32 6,44 23,53 13,6 32,19 43,29 l 21,19 -23,13 c -13,7 -31,12 -40,13 -28,0 -40,34 -29,82 5,23 8,45 5,49 -2,4 3,10 12,13 24,9 34,7 34,-6 0,-7 11,-26 24,-43 22,-28 25,-29 50,-16 35,19 33,27 -10,43 -32,11 -35,16 -32,46 4,34 2,35 -57,44 -17,3 -21,14 -27,68 -9,77 1,125 25,124 9,0 34,-1 56,-2 29,-2 40,-7 44,-22 3,-13 17,-22 36,-26 20,-4 31,-13 31,-23 0,-22 19,-41 41,-41 44,0 27,54 -20,65 -23,5 -31,13 -33,33 -3,24 -7,27 -40,26 -29,-1 -38,4 -47,23 -15,33 -14,60 3,70 19,11 4,48 -26,64 -13,6 -20,8 -15,4 4,-5 0,-16 -9,-26 -10,-11 -12,-19 -5,-24 13,-8 15,-65 2,-65 -5,0 -17,-3 -27,-7 -12,-4 -15,-3 -10,5 4,6 2,20 -4,31 -5,11 -6,22 -2,25 5,3 7,30 5,61 -3,49 -1,55 16,55 25,0 51,26 51,51 0,15 -7,19 -35,19 -32,0 -35,2 -35,31 0,24 6,32 30,40 26,10 30,16 30,49 0,21 7,43 15,50 19,16 19,22 -4,48 -21,25 -31,28 -31,8 0,-8 -6,-16 -14,-19 -9,-4 -12,-15 -9,-34 4,-21 3,-25 -6,-17 -7,6 -11,30 -9,55 3,40 6,44 31,47 15,2 27,7 27,12 0,28 22,61 38,58 13,-3 16,-12 14,-40 z m 236,-903 c 6,-5 7,-135 2,-135 -3,0 -14,-3 -26,-6 -17,-5 -22,0 -27,25 -4,18 -18,43 -32,57 -14,14 -25,36 -25,50 0,25 1,26 53,19 28,-4 53,-9 55,-10 z m -130,-123 c 2,-7 -2,-10 -12,-6 -9,3 -16,11 -16,16 0,13 23,5 28,-10 z m 32,-499 c 0,-61 -10,-75 -46,-71 -23,2 -30,8 -32,32 -2,15 2,41 8,57 10,23 19,29 41,29 28,0 29,-2 29,-47 z m -50,-138 c 0,-31 3,-35 25,-35 14,0 33,-9 43,-20 9,-11 34,-23 54,-27 40,-6 54,-33 17,-33 -24,0 -49,-22 -49,-44 0,-9 -8,-16 -18,-16 -11,0 -24,-12 -30,-26 -9,-18 -17,-24 -31,-19 -27,8 -62,-25 -55,-52 8,-28 30,-30 46,-3 18,28 61,26 77,-4 8,-13 10,-29 6,-35 -9,-16 13,-41 30,-34 19,7 45,-20 45,-46 0,-19 -2,-19 -45,-4 -25,8 -43,19 -40,23 20,33 -42,54 -72,25 -13,-14 -12,-17 9,-35 12,-11 31,-19 41,-20 10,0 16,-4 13,-9 -15,-23 7,-41 49,-41 l 43,0 -2,-42 -2,-43 -42,4 c -36,2 -42,0 -42,-17 0,-25 24,-45 47,-38 27,8 41,-5 44,-44 l 4,-35 -47,-3 c -61,-4 -97,20 -98,63 -1,50 -12,59 -44,34 l -27,-21 27,-23 c 38,-32 30,-68 -16,-75 -55,-9 -63,-18 -40,-42 11,-12 17,-24 15,-28 -2,-4 7,-5 20,-2 21,4 25,1 25,-22 0,-24 -4,-26 -38,-26 -43,0 -65,18 -76,63 -5,20 -3,27 9,27 17,0 20,16 4,25 -6,4 -8,13 -5,21 4,10 -3,14 -25,14 -33,0 -44,17 -35,55 8,33 42,34 50,1 4,-15 15,-25 31,-28 13,-3 23,-2 20,1 -2,4 0,13 5,21 6,9 1,20 -14,34 -36,32 -40,56 -11,56 13,0 27,5 30,10 9,15 65,12 71,-4 10,-25 54,5 54,37 0,30 -14,34 -54,16 -30,-14 -116,8 -116,29 0,14 -24,42 -36,42 -4,0 -16,7 -25,16 -14,12 -16,21 -9,35 6,10 9,43 7,73 -4,55 -3,56 24,56 16,0 32,7 37,16 6,12 18,15 35,12 15,-3 24,-2 22,2 -3,4 2,13 10,20 18,15 19,34 3,61 -10,17 -10,23 -1,26 9,3 9,9 1,22 -6,11 -8,33 -4,54 6,31 11,37 31,37 22,0 25,-5 25,-35 z m -88,-90 c -5,-39 -19,-52 -64,-60 l -38,-7 0,40 c 0,35 4,42 28,51 15,5 38,9 52,8 22,-2 25,-6 22,-32 z m 240,-135 c 4,-29 -6,-40 -38,-40 -9,0 -14,11 -14,35 0,30 3,35 24,35 19,0 25,-6 28,-30 z m -282,-249 c 0,-9 -23,-21 -41,-21 -4,0 -6,7 -3,15 7,16 44,21 44,6 z m 203,-259 c 8,-7 29,-9 50,-5 35,5 37,4 37,-21 0,-15 5,-36 10,-47 7,-12 7,-19 1,-19 -6,0 -9,-32 -8,-78 1,-87 -4,-102 -33,-95 -19,5 -19,7 -6,22 13,14 13,19 0,35 -18,26 -18,71 1,89 13,14 10,17 -24,34 -29,13 -41,25 -43,43 -2,20 -9,26 -35,28 -30,3 -40,11 -29,23 9,8 65,2 79,-9 z m -230,-38 c 3,-16 0,-24 -9,-24 -8,0 -14,3 -14,8 0,4 -3,17 -6,30 -5,17 -3,21 9,16 8,-3 17,-16 20,-30 z m 203,-62 c 6,-4 14,-22 17,-41 6,-30 5,-32 -9,-20 -9,7 -26,13 -38,14 -15,0 -22,7 -24,28 -3,23 0,27 20,27 13,0 28,-4 34,-8 z m -156,-22 c 33,-1 95,-52 87,-72 -3,-9 -22,-18 -42,-20 -31,-4 -38,-1 -46,19 -5,13 -14,23 -21,24 -7,1 -22,2 -33,3 -27,2 -34,52 -8,58 10,3 22,1 28,-4 5,-4 20,-8 35,-8 z m 180,-107 c 0,-5 3,-19 6,-33 6,-21 4,-23 -7,-12 -7,6 -28,12 -46,12 -33,0 -47,23 -20,33 19,8 67,8 67,0 z m -170,-25 c 0,-20 -22,-36 -28,-20 -5,16 -49,15 -55,0 -3,-7 -6,-2 -6,12 -1,24 2,26 44,25 35,0 45,-4 45,-17 z M 4041,5265 c 8,-3 28,-1 42,4 25,10 27,8 27,-14 0,-18 -5,-23 -22,-22 -13,0 -26,6 -30,11 -5,7 -13,3 -22,-9 -20,-26 -20,-39 0,-56 12,-10 20,-10 35,-1 10,7 28,12 40,12 17,0 20,-5 17,-31 -3,-34 7,-43 55,-54 27,-5 27,-6 23,-73 -2,-37 -4,-113 -5,-169 l -1,-103 -50,0 c -27,0 -50,5 -50,10 0,6 -13,10 -30,10 -27,0 -30,-3 -30,-30 0,-22 5,-30 18,-30 12,0 17,-8 17,-25 0,-17 -4,-24 -13,-20 -8,3 -18,5 -23,5 -5,0 -9,7 -9,16 0,11 -8,14 -27,12 -22,-2 -28,-8 -28,-28 0,-22 4,-25 38,-26 23,-1 43,-8 51,-19 7,-9 21,-15 32,-13 16,3 19,12 17,52 -1,36 1,46 10,37 6,-6 23,-11 38,-11 15,0 31,-6 36,-12 4,-7 8,-72 10,-145 2,-146 1,-148 -64,-144 -36,3 -43,-12 -20,-43 10,-14 17,-15 40,-7 16,6 30,11 33,11 9,0 4,-129 -6,-135 -17,-10 -56,6 -65,28 -12,27 -34,32 -58,15 -26,-20 -12,-48 24,-48 26,0 29,-4 29,-30 0,-23 -6,-33 -25,-40 -37,-14 -35,-21 35,-107 8,-10 15,-10 30,0 25,15 26,43 2,49 -13,4 -19,15 -20,37 -1,27 3,31 24,31 14,0 27,-6 29,-12 10,-30 22,-1534 12,-1544 -10,-11 -150,-11 -164,-1 -7,5 -13,20 -13,32 0,12 -7,28 -15,35 -21,18 -45,-4 -45,-41 0,-28 -2,-29 -48,-29 l -48,0 4,34 c 2,18 -1,37 -7,40 -20,13 -51,-4 -51,-27 0,-37 -14,-49 -56,-45 -34,3 -39,6 -45,36 -8,41 -13,45 -38,37 -13,-4 -21,-15 -21,-29 0,-39 -21,-47 -111,-44 l -84,3 -5,30 c -4,23 -11,30 -30,31 -14,1 -31,2 -37,3 -9,1 -13,23 -13,76 0,53 4,75 13,76 6,1 23,2 37,3 18,1 26,7 28,24 3,22 -3,26 -45,23 -27,-3 -32,29 -32,189 1,151 7,190 29,190 10,0 23,7 30,15 16,19 -3,45 -31,45 -11,0 -20,6 -21,13 -2,15 -6,406 -10,997 l -3,455 37,0 c 42,1 64,16 55,39 -4,11 -19,16 -45,16 -37,0 -40,2 -45,33 -4,27 -3,314 2,384 0,12 9,23 19,26 27,6 625,0 643,-8 z m 167,-18 c 6,-32 -7,-67 -26,-67 -13,0 -18,10 -20,46 -3,42 -1,45 20,42 13,-2 24,-11 26,-21 z"
       id="path8" />
    <path
       inkscape:connector-curvature="0"
       d="m 3728,24760 c -22,-20 -23,-46 -3,-54 37,-14 58,21 32,55 -11,14 -14,14 -29,-1 z"
       id="path10" />
    <path
       inkscape:connector-curvature="0"
       d="m 3564,24745 c -8,-21 2,-45 19,-45 21,0 38,25 31,44 -8,20 -43,21 -50,1 z"
       id="path12" />
    <path
       inkscape:connector-curvature="0"
       d="m 3391,24724 c -11,-13 -10,-17 5,-29 24,-18 39,-18 53,-1 29,34 -28,64 -58,30 z"
       id="path14" />
    <path
       inkscape:connector-curvature="0"
       d="m 3864,24705 c -4,-9 0,-23 9,-32 21,-21 49,-9 45,19 -4,28 -45,38 -54,13 z"
       id="path16" />
    <path
       inkscape:connector-curvature="0"
       d="m 3674,24634 c -8,-32 10,-53 33,-38 24,15 26,29 8,48 -23,23 -34,20 -41,-10 z"
       id="path18" />
    <path
       inkscape:connector-curvature="0"
       d="m 3528,24629 c -10,-6 -18,-19 -18,-29 0,-11 -4,-20 -10,-20 -5,0 -10,-6 -10,-14 0,-8 -7,-17 -16,-20 -21,-8 -14,-50 10,-54 22,-5 36,14 36,49 0,18 6,28 20,32 26,7 36,35 19,52 -10,10 -19,11 -31,4 z"
       id="path20" />
    <path
       inkscape:connector-curvature="0"
       d="m 3984,24595 c -9,-23 3,-45 25,-45 23,0 35,28 20,46 -15,18 -38,18 -45,-1 z"
       id="path22" />
    <path
       inkscape:connector-curvature="0"
       d="m 3817,24553 c -13,-12 -7,-41 10,-47 21,-8 48,17 40,38 -6,16 -38,22 -50,9 z"
       id="path24" />
    <path
       inkscape:connector-curvature="0"
       d="m 3592,24481 c -20,-12 -10,-46 14,-49 25,-4 40,24 23,44 -13,16 -19,17 -37,5 z"
       id="path26" />
    <path
       inkscape:connector-curvature="0"
       d="m 3711,24471 c -8,-14 -6,-23 10,-37 18,-16 21,-16 35,-2 13,12 14,20 5,37 -14,26 -37,27 -50,2 z"
       id="path28" />
    <path
       inkscape:connector-curvature="0"
       d="m 3982,24438 c -16,-16 -15,-33 3,-48 12,-10 18,-10 30,0 20,17 19,37 -3,49 -13,7 -23,6 -30,-1 z"
       id="path30" />
    <path
       inkscape:connector-curvature="0"
       d="m 3420,24375 c -15,-18 -7,-43 16,-52 16,-6 34,11 34,34 0,22 -36,35 -50,18 z"
       id="path32" />
    <path
       inkscape:connector-curvature="0"
       d="m 3838,24369 c -24,-14 -22,-36 4,-50 18,-9 24,-8 34,6 9,13 10,23 3,36 -11,21 -17,23 -41,8 z"
       id="path34" />
    <path
       inkscape:connector-curvature="0"
       d="m 3571,24289 c -20,-22 -20,-23 -2,-36 38,-26 72,17 37,46 -11,10 -19,7 -35,-10 z"
       id="path36" />
    <path
       inkscape:connector-curvature="0"
       d="m 3465,24269 c -5,-14 -1,-27 10,-38 15,-15 18,-14 36,8 l 20,25 -23,12 c -31,18 -36,17 -43,-7 z"
       id="path38" />
    <path
       inkscape:connector-curvature="0"
       d="m 3721,24277 c -17,-21 -3,-47 26,-47 21,0 24,4 21,27 -3,31 -29,41 -47,20 z"
       id="path40" />
    <path
       inkscape:connector-curvature="0"
       d="m 3940,24255 c -10,-12 -10,-18 0,-30 7,-8 18,-15 25,-15 7,0 18,7 25,15 10,12 10,18 0,30 -7,8 -18,15 -25,15 -7,0 -18,-7 -25,-15 z"
       id="path42" />
    <path
       inkscape:connector-curvature="0"
       d="m 3846,24184 c -16,-15 -16,-18 -1,-35 18,-19 40,-16 49,6 2,7 -4,21 -13,30 -17,15 -20,15 -35,-1 z"
       id="path44" />
    <path
       inkscape:connector-curvature="0"
       d="m 3545,24159 c -5,-14 -2,-25 6,-30 32,-20 55,-3 44,31 -8,26 -42,26 -50,-1 z"
       id="path46" />
    <path
       inkscape:connector-curvature="0"
       d="m 3398,24153 c -26,-7 -22,-38 6,-51 31,-14 56,9 40,36 -12,18 -22,21 -46,15 z"
       id="path48" />
    <path
       inkscape:connector-curvature="0"
       d="m 4010,24125 c -7,-8 -10,-22 -6,-30 9,-25 36,-29 51,-9 12,16 11,21 -2,37 -20,21 -27,21 -43,2 z"
       id="path50" />
    <path
       inkscape:connector-curvature="0"
       d="m 3671,24032 c -11,-21 3,-52 24,-52 25,0 37,36 19,54 -20,21 -31,20 -43,-2 z"
       id="path52" />
    <path
       inkscape:connector-curvature="0"
       d="m 3510,24015 c -10,-12 -10,-18 0,-30 25,-30 67,-7 49,27 -12,22 -32,23 -49,3 z"
       id="path54" />
    <path
       inkscape:connector-curvature="0"
       d="m 3852,24008 c -17,-17 -15,-45 4,-52 22,-8 22,-8 33,13 14,24 -18,58 -37,39 z"
       id="path56" />
    <path
       inkscape:connector-curvature="0"
       d="m 3747,23929 c -22,-13 -22,-36 1,-48 32,-17 57,24 29,47 -8,7 -18,7 -30,1 z"
       id="path58" />
    <path
       inkscape:connector-curvature="0"
       d="m 3990,23895 c -16,-19 -6,-45 18,-45 31,0 46,25 27,44 -20,20 -29,20 -45,1 z"
       id="path60" />
    <path
       inkscape:connector-curvature="0"
       d="m 3652,23838 c -13,-13 2,-48 21,-48 23,0 37,22 26,42 -11,21 -30,23 -47,6 z"
       id="path62" />
    <path
       inkscape:connector-curvature="0"
       d="m 3540,23825 c -17,-21 -5,-45 24,-45 27,0 42,26 25,46 -15,18 -33,18 -49,-1 z"
       id="path64" />
    <path
       inkscape:connector-curvature="0"
       d="m 3822,23808 c -19,-19 -15,-58 7,-58 27,0 47,28 35,48 -14,21 -27,25 -42,10 z"
       id="path66" />
    <path
       inkscape:connector-curvature="0"
       d="m 3996,23764 c -7,-19 10,-44 30,-44 16,0 33,30 27,48 -7,18 -50,15 -57,-4 z"
       id="path68" />
    <path
       inkscape:connector-curvature="0"
       d="m 3736,23731 c -20,-22 -20,-35 -2,-50 12,-10 19,-8 35,8 12,12 21,27 21,35 0,21 -37,26 -54,7 z"
       id="path70" />
    <path
       inkscape:connector-curvature="0"
       d="m 3502,23688 c -17,-17 -15,-36 7,-47 25,-14 50,13 35,37 -14,21 -27,25 -42,10 z"
       id="path72" />
    <path
       inkscape:connector-curvature="0"
       d="m 3872,23688 c -14,-14 2,-48 23,-48 19,0 27,16 20,40 -7,22 -25,26 -43,8 z"
       id="path74" />
    <path
       inkscape:connector-curvature="0"
       d="m 4002,23618 c -16,-16 -15,-23 3,-42 19,-18 45,-11 45,13 0,17 -18,41 -30,41 -3,0 -11,-5 -18,-12 z"
       id="path76" />
    <path
       inkscape:connector-curvature="0"
       d="m 3560,23566 c 0,-28 22,-39 45,-23 22,17 9,47 -21,47 -19,0 -24,-5 -24,-24 z"
       id="path78" />
    <path
       inkscape:connector-curvature="0"
       d="m 3701,23553 c -22,-19 -61,-150 -61,-205 0,-37 28,-38 32,0 3,25 8,28 61,36 33,5 57,13 57,20 0,14 38,96 45,96 2,0 15,-5 29,-11 20,-9 29,-9 41,1 19,16 19,25 -1,44 -11,12 -20,13 -34,6 -29,-15 -55,-12 -75,10 -22,25 -66,26 -94,3 z m 75,-37 c 3,-13 0,-42 -6,-65 -9,-36 -14,-41 -39,-41 -21,0 -30,6 -35,23 -17,63 1,107 44,107 23,0 31,-5 36,-24 z"
       id="path80" />
    <path
       inkscape:connector-curvature="0"
       d="m 3398,23486 c -25,-19 -22,-35 9,-42 19,-5 30,-2 40,12 12,16 11,20 -4,31 -21,16 -24,16 -45,-1 z"
       id="path82" />
    <path
       inkscape:connector-curvature="0"
       d="m 3547,23463 c -4,-3 -7,-17 -7,-30 0,-18 6,-23 24,-23 28,0 37,17 24,43 -9,17 -29,23 -41,10 z"
       id="path84" />
    <path
       inkscape:connector-curvature="0"
       d="m 3956,23413 c -5,-11 -1,-22 10,-30 23,-17 29,-16 44,2 10,12 10,18 0,30 -17,20 -46,19 -54,-2 z"
       id="path86" />
    <path
       inkscape:connector-curvature="0"
       d="m 3806,23358 c 11,-38 34,-47 54,-23 19,23 4,45 -30,45 -28,0 -31,-2 -24,-22 z"
       id="path88" />
    <path
       inkscape:connector-curvature="0"
       d="m 3423,23314 c -3,-8 2,-23 11,-32 15,-15 17,-15 32,0 21,21 11,48 -16,48 -11,0 -23,-7 -27,-16 z"
       id="path90" />
    <path
       inkscape:connector-curvature="0"
       d="m 3678,23279 c 4,-30 37,-48 54,-31 18,18 4,46 -28,52 -28,6 -30,5 -26,-21 z"
       id="path92" />
    <path
       inkscape:connector-curvature="0"
       d="m 3951,23291 c -10,-7 -11,-13 -1,-30 15,-29 45,-23 45,9 0,26 -20,36 -44,21 z"
       id="path94" />
    <path
       inkscape:connector-curvature="0"
       d="m 3824,23175 c -9,-23 3,-45 26,-45 25,0 37,25 20,45 -16,19 -39,19 -46,0 z"
       id="path96" />
    <path
       inkscape:connector-curvature="0"
       d="m 4001,23176 c -9,-11 -8,-18 4,-30 21,-21 32,-20 44,2 18,33 -24,57 -48,28 z"
       id="path98" />
    <path
       inkscape:connector-curvature="0"
       d="m 3551,23152 c -7,-13 -6,-23 1,-30 26,-26 64,-2 47,30 -5,10 -16,18 -24,18 -8,0 -19,-8 -24,-18 z"
       id="path100" />
    <path
       inkscape:connector-curvature="0"
       d="m 3410,23131 c -7,-15 -6,-23 6,-35 8,-9 17,-16 19,-16 2,0 11,7 19,16 18,18 6,54 -19,54 -8,0 -19,-9 -25,-19 z"
       id="path102" />
    <path
       inkscape:connector-curvature="0"
       d="m 3701,23116 c -17,-20 -3,-46 25,-46 19,0 24,5 24,24 0,13 -7,27 -16,30 -21,8 -20,8 -33,-8 z"
       id="path104" />
    <path
       inkscape:connector-curvature="0"
       d="m 4007,23034 c -14,-15 -6,-43 14,-49 25,-8 42,6 37,31 -3,19 -38,31 -51,18 z"
       id="path106" />
    <path
       inkscape:connector-curvature="0"
       d="m 3872,22998 c -14,-14 2,-48 23,-48 17,0 34,30 28,48 -6,15 -35,16 -51,0 z"
       id="path108" />
    <path
       inkscape:connector-curvature="0"
       d="m 3523,22974 c -8,-20 21,-49 41,-41 21,8 21,43 0,51 -25,9 -34,7 -41,-10 z"
       id="path110" />
    <path
       inkscape:connector-curvature="0"
       d="m 3717,22943 c -13,-12 -7,-41 10,-47 21,-8 48,17 40,38 -6,16 -38,22 -50,9 z"
       id="path112" />
    <path
       inkscape:connector-curvature="0"
       d="m 3572,22828 c -16,-16 -15,-33 4,-48 22,-19 54,12 38,37 -14,22 -27,26 -42,11 z"
       id="path114" />
    <path
       inkscape:connector-curvature="0"
       d="m 3994,22806 c -10,-26 4,-48 28,-44 17,2 23,10 23,28 0,18 -6,26 -23,28 -13,2 -25,-3 -28,-12 z"
       id="path116" />
    <path
       inkscape:connector-curvature="0"
       d="m 3855,22794 c -18,-19 -4,-44 25,-44 23,0 34,28 19,46 -15,18 -24,18 -44,-2 z"
       id="path118" />
    <path
       inkscape:connector-curvature="0"
       d="m 3411,22726 c -10,-12 -8,-19 9,-36 19,-19 22,-20 37,-4 12,12 14,20 6,33 -14,22 -37,25 -52,7 z"
       id="path120" />
    <path
       inkscape:connector-curvature="0"
       d="m 3939,22678 c -10,-18 -8,-24 7,-35 24,-18 31,-17 44,8 9,15 8,24 -1,35 -17,20 -37,17 -50,-8 z"
       id="path122" />
    <path
       inkscape:connector-curvature="0"
       d="m 3754,22679 c -3,-6 -19,-9 -35,-7 -35,5 -53,-13 -44,-42 7,-21 29,-27 40,-10 3,6 26,10 50,10 44,0 60,15 49,45 -7,17 -50,20 -60,4 z"
       id="path124" />
    <path
       inkscape:connector-curvature="0"
       d="m 3516,22594 c -4,-10 -1,-24 7,-31 19,-19 49,-5 45,21 -4,27 -43,34 -52,10 z"
       id="path126" />
    <path
       inkscape:connector-curvature="0"
       d="m 3407,22582 c -19,-21 -6,-42 24,-42 23,0 32,15 24,40 -8,25 -27,26 -48,2 z"
       id="path128" />
    <path
       inkscape:connector-curvature="0"
       d="m 4036,22554 c -21,-21 -20,-31 4,-44 14,-8 25,-7 40,2 25,16 25,27 3,44 -23,17 -28,17 -47,-2 z"
       id="path130" />
    <path
       inkscape:connector-curvature="0"
       d="m 3882,22528 c -17,-17 -15,-36 7,-47 25,-14 54,16 40,42 -12,20 -30,22 -47,5 z"
       id="path132" />
    <path
       inkscape:connector-curvature="0"
       d="m 3632,22508 c -7,-7 -8,-17 -1,-30 12,-22 32,-23 49,-3 23,28 -21,60 -48,33 z"
       id="path134" />
    <path
       inkscape:connector-curvature="0"
       d="m 3407,22466 c -16,-13 -16,-15 2,-37 19,-23 20,-23 38,-6 13,13 15,21 7,34 -14,23 -26,25 -47,9 z"
       id="path136" />
    <path
       inkscape:connector-curvature="0"
       d="m 3564,22396 c -12,-9 -15,-19 -9,-32 4,-10 7,-25 6,-31 -3,-21 12,-15 36,13 33,38 7,79 -33,50 z"
       id="path138" />
    <path
       inkscape:connector-curvature="0"
       d="m 3759,22391 c -20,-16 -22,-23 -13,-38 24,-39 67,-18 48,25 -4,9 -6,20 -6,25 3,11 -4,9 -29,-12 z"
       id="path140" />
    <path
       inkscape:connector-curvature="0"
       d="m 3894,22365 c -8,-20 2,-45 18,-45 26,0 40,17 33,39 -7,24 -43,29 -51,6 z"
       id="path142" />
    <path
       inkscape:connector-curvature="0"
       d="m 3430,22345 c -10,-12 -10,-18 0,-30 7,-8 18,-15 25,-15 7,0 18,7 25,15 10,12 10,18 0,30 -7,8 -18,15 -25,15 -7,0 -18,-7 -25,-15 z"
       id="path144" />
    <path
       inkscape:connector-curvature="0"
       d="m 3647,22253 c -12,-11 -7,-41 7,-46 8,-3 22,0 32,8 15,11 16,15 5,29 -14,17 -33,21 -44,9 z"
       id="path146" />
    <path
       inkscape:connector-curvature="0"
       d="m 3800,18046 c 0,-33 32,-52 51,-30 16,20 1,48 -30,52 -17,3 -21,-2 -21,-22 z"
       id="path148" />
    <path
       inkscape:connector-curvature="0"
       d="m 3674,17995 c -4,-8 -4,-24 -1,-34 3,-12 -4,-27 -19,-40 -28,-25 -32,-61 -6,-61 32,0 45,16 40,50 -4,26 -1,34 13,37 20,6 34,37 24,53 -10,15 -45,12 -51,-5 z"
       id="path150" />
    <path
       inkscape:connector-curvature="0"
       d="m 3782,17938 c -17,-17 -15,-36 7,-47 25,-14 50,13 35,37 -14,21 -27,25 -42,10 z"
       id="path152" />
    <path
       inkscape:connector-curvature="0"
       d="m 3717,17819 c -21,-12 -22,-32 -1,-49 12,-11 18,-10 35,6 19,19 19,21 2,36 -13,12 -23,14 -36,7 z"
       id="path154" />
    <path
       inkscape:connector-curvature="0"
       d="m 3806,17714 c -20,-20 -20,-24 2,-40 23,-18 30,-17 42,7 9,15 8,24 -1,35 -15,18 -24,18 -43,-2 z"
       id="path156" />
    <path
       inkscape:connector-curvature="0"
       d="m 3693,17692 c -8,-5 -7,-13 6,-30 18,-25 45,-22 56,5 9,26 -33,43 -62,25 z"
       id="path158" />
    <path
       inkscape:connector-curvature="0"
       d="m 3814,17604 c -8,-33 6,-47 40,-38 34,8 34,37 1,52 -34,16 -34,16 -41,-14 z"
       id="path160" />
    <path
       inkscape:connector-curvature="0"
       d="m 3574,17485 c -19,-15 -19,-15 0,-30 25,-19 66,-20 66,-1 0,45 -29,59 -66,31 z"
       id="path162" />
    <path
       inkscape:connector-curvature="0"
       d="m 3658,17401 c -3,-21 2,-35 21,-52 16,-16 26,-20 28,-11 5,14 43,17 43,2 0,-21 27,-8 44,21 11,18 14,29 7,25 -14,-9 -14,-1 -1,25 8,15 7,19 -5,19 -8,0 -15,-4 -15,-10 0,-5 -15,-10 -34,-10 -19,0 -38,5 -41,10 -14,22 -43,10 -47,-19 z"
       id="path164" />
    <path
       inkscape:connector-curvature="0"
       d="m 3624,17035 c -7,-18 12,-45 31,-45 7,0 18,14 24,30 10,29 9,30 -20,30 -17,0 -32,-6 -35,-15 z"
       id="path166" />
    <path
       inkscape:connector-curvature="0"
       d="m 3772,16998 c -7,-7 -12,-18 -12,-25 0,-13 30,-33 49,-33 18,0 13,57 -5,64 -20,8 -18,8 -32,-6 z"
       id="path168" />
    <path
       inkscape:connector-curvature="0"
       d="m 3735,16409 c -4,-22 -5,-42 -3,-43 10,-9 68,-14 63,-6 -3,6 -1,10 4,10 6,0 11,12 11,26 0,17 -6,28 -20,31 -11,3 -20,9 -20,14 0,5 -6,9 -14,9 -9,0 -17,-16 -21,-41 z"
       id="path170" />
    <path
       inkscape:connector-curvature="0"
       d="m 3598,16223 c -11,-3 -18,-14 -18,-28 0,-18 7,-25 31,-30 18,-4 35,-16 41,-31 11,-24 33,-30 56,-16 18,12 -2,62 -24,62 -9,0 -25,11 -36,25 -11,14 -22,24 -26,24 -4,-1 -15,-3 -24,-6 z"
       id="path172" />
    <path
       inkscape:connector-curvature="0"
       d="m 3797,5206 c -3,-8 1,-22 8,-33 13,-16 15,-17 30,-2 9,9 13,23 9,32 -8,21 -40,22 -47,3 z"
       id="path174" />
    <path
       inkscape:connector-curvature="0"
       d="m 3451,5186 c -15,-18 2,-56 25,-56 19,0 30,29 17,48 -14,22 -28,25 -42,8 z"
       id="path176" />
    <path
       inkscape:connector-curvature="0"
       d="m 3927,5169 c -21,-12 -22,-45 -2,-53 22,-8 45,4 45,24 0,26 -22,40 -43,29 z"
       id="path178" />
    <path
       inkscape:connector-curvature="0"
       d="m 3652,5108 c -7,-7 -8,-17 -1,-30 12,-22 32,-23 49,-3 23,28 -21,60 -48,33 z"
       id="path180" />
    <path
       inkscape:connector-curvature="0"
       d="m 4039,5044 c -19,-23 6,-44 46,-37 26,4 36,2 41,-10 5,-14 8,-14 27,4 16,14 19,24 12,35 -13,21 -110,27 -126,8 z"
       id="path182" />
    <path
       inkscape:connector-curvature="0"
       d="m 3926,4993 c -9,-23 14,-44 42,-37 24,7 28,24 10,42 -17,17 -45,15 -52,-5 z"
       id="path184" />
    <path
       inkscape:connector-curvature="0"
       d="m 4130,4961 c 0,-5 -7,-17 -17,-26 -13,-13 -14,-18 -3,-25 8,-5 11,-20 7,-42 -7,-46 4,-62 37,-54 17,4 26,13 26,26 0,11 -4,20 -10,20 -5,0 -10,11 -10,25 0,14 5,25 10,25 6,0 10,7 10,15 0,8 -4,15 -9,15 -5,0 -17,7 -25,16 -9,8 -16,11 -16,5 z"
       id="path186" />
    <path
       inkscape:connector-curvature="0"
       d="m 4015,4900 c 5,-34 3,-50 -4,-50 -19,0 -12,-39 8,-50 11,-5 22,-10 24,-10 9,0 13,47 6,67 -5,15 -2,27 13,43 19,21 19,22 2,35 -11,8 -27,15 -37,15 -17,0 -18,-6 -12,-50 z"
       id="path188" />
    <path
       inkscape:connector-curvature="0"
       d="m 3862,4888 c -18,-18 -15,-36 7,-48 12,-6 21,-23 23,-43 2,-27 7,-32 28,-32 33,0 42,44 11,52 -15,4 -21,13 -21,32 0,25 -15,51 -30,51 -3,0 -11,-5 -18,-12 z"
       id="path190" />
    <path
       inkscape:connector-curvature="0"
       d="m 3633,4883 c -7,-3 -13,-16 -13,-29 0,-19 5,-24 25,-24 20,0 25,5 25,24 0,25 -15,36 -37,29 z"
       id="path192" />
    <path
       inkscape:connector-curvature="0"
       d="m 3574,4615 c -8,-19 3,-35 25,-35 23,0 41,19 34,36 -7,18 -52,18 -59,-1 z"
       id="path194" />
    <path
       inkscape:connector-curvature="0"
       d="m 3807,4593 c -14,-14 -6,-42 14,-48 30,-10 57,18 39,39 -13,16 -42,21 -53,9 z"
       id="path196" />
    <path
       inkscape:connector-curvature="0"
       d="m 3956,4577 c -10,-7 -15,-19 -11,-29 10,-25 31,-29 49,-9 15,16 15,19 -2,34 -15,14 -21,15 -36,4 z"
       id="path198" />
    <path
       inkscape:connector-curvature="0"
       d="m 4107,4554 c -13,-13 -7,-54 7,-54 19,0 48,29 43,44 -4,13 -40,20 -50,10 z"
       id="path200" />
    <path
       inkscape:connector-curvature="0"
       d="m 4052,4468 c -18,-18 -15,-36 7,-48 32,-17 41,-12 41,25 0,27 -4,35 -18,35 -10,0 -23,-5 -30,-12 z"
       id="path202" />
    <path
       inkscape:connector-curvature="0"
       d="m 3884,4415 c -7,-18 12,-45 32,-45 15,0 28,35 19,50 -9,15 -45,12 -51,-5 z"
       id="path204" />
    <path
       inkscape:connector-curvature="0"
       d="m 3600,4305 c -17,-20 -5,-45 20,-45 11,0 23,7 26,15 6,15 -11,45 -26,45 -4,0 -13,-7 -20,-15 z"
       id="path206" />
    <path
       inkscape:connector-curvature="0"
       d="m 3976,4302 c -10,-16 7,-122 21,-134 12,-10 18,-9 29,7 16,22 19,55 4,55 -13,0 -13,27 0,32 14,4 -18,48 -35,48 -8,0 -16,-4 -19,-8 z"
       id="path208" />
    <path
       inkscape:connector-curvature="0"
       d="m 3854,4265 c -8,-21 2,-45 19,-45 8,0 20,7 27,15 10,12 10,18 0,30 -7,8 -19,15 -27,15 -7,0 -16,-7 -19,-15 z"
       id="path210" />
    <path
       inkscape:connector-curvature="0"
       d="m 3436,4205 c -8,-22 4,-45 24,-45 10,0 23,7 30,15 15,18 -2,45 -30,45 -10,0 -20,-7 -24,-15 z"
       id="path212" />
    <path
       inkscape:connector-curvature="0"
       d="m 3812,4127 c -9,-10 -8,-18 2,-32 18,-25 48,-13 44,17 -4,27 -30,35 -46,15 z"
       id="path214" />
    <path
       inkscape:connector-curvature="0"
       d="m 3933,4094 c -4,-11 1,-22 12,-31 16,-11 21,-11 33,1 8,8 12,22 9,30 -8,21 -46,21 -54,0 z"
       id="path216" />
    <path
       inkscape:connector-curvature="0"
       d="m 3697,4013 c -13,-12 -7,-32 12,-43 26,-14 58,15 40,36 -12,15 -41,19 -52,7 z"
       id="path218" />
    <path
       inkscape:connector-curvature="0"
       d="m 4062,3988 c -7,-7 -12,-27 -12,-45 0,-19 -6,-36 -16,-41 -25,-14 -1,-52 34,-52 39,0 55,-31 47,-91 -6,-43 -5,-49 12,-49 10,0 27,7 37,15 19,14 19,15 0,32 -19,18 -23,44 -9,76 10,24 -12,47 -46,47 -24,0 -29,4 -29,24 0,13 7,29 15,36 20,17 19,37 -3,49 -13,7 -23,6 -30,-1 z"
       id="path220" />
    <path
       inkscape:connector-curvature="0"
       d="m 3940,3955 c -17,-20 -5,-45 20,-45 11,0 23,7 26,15 6,15 -11,45 -26,45 -4,0 -13,-7 -20,-15 z"
       id="path222" />
    <path
       inkscape:connector-curvature="0"
       d="m 3424,3945 c -4,-9 0,-23 9,-32 21,-21 49,-9 45,19 -4,28 -45,38 -54,13 z"
       id="path224" />
    <path
       inkscape:connector-curvature="0"
       d="m 3976,3794 c -9,-22 17,-49 39,-40 10,3 15,15 13,28 -4,29 -42,37 -52,12 z"
       id="path226" />
    <path
       inkscape:connector-curvature="0"
       d="m 3504,3715 c -8,-21 2,-45 19,-45 8,0 20,7 27,15 10,12 10,18 0,30 -7,8 -19,15 -27,15 -7,0 -16,-7 -19,-15 z"
       id="path228" />
    <path
       inkscape:connector-curvature="0"
       d="m 4082,3693 c -12,-3 -28,-13 -35,-24 -6,-10 -17,-19 -23,-19 -20,0 -36,-28 -29,-50 9,-27 31,-25 50,4 9,13 27,27 41,30 19,5 24,13 24,36 0,17 -1,29 -2,29 -2,-1 -13,-4 -26,-6 z"
       id="path230" />
    <path
       inkscape:connector-curvature="0"
       d="m 3900,3665 c -17,-20 -5,-45 20,-45 11,0 23,7 26,15 6,15 -11,45 -26,45 -4,0 -13,-7 -20,-15 z"
       id="path232" />
    <path
       inkscape:connector-curvature="0"
       d="m 4095,3530 c -6,-26 -11,-30 -40,-30 -18,0 -38,7 -45,15 -16,19 -25,19 -45,-1 -15,-16 -15,-18 7,-39 13,-12 31,-20 40,-17 10,2 25,-3 33,-12 9,-9 23,-16 31,-16 8,0 19,-11 24,-25 10,-25 43,-34 55,-15 12,20 -6,50 -31,50 -20,0 -24,5 -24,30 0,23 5,30 19,30 10,0 24,6 30,14 16,20 3,46 -24,46 -18,0 -25,-7 -30,-30 z"
       id="path234" />
    <path
       inkscape:connector-curvature="0"
       d="m 3830,3515 c -11,-13 -11,-19 3,-32 21,-21 49,-9 45,19 -4,28 -30,35 -48,13 z"
       id="path236" />
    <path
       inkscape:connector-curvature="0"
       d="m 4001,3376 c -17,-20 -2,-48 23,-44 24,3 34,37 14,49 -18,12 -24,11 -37,-5 z"
       id="path238" />
    <path
       inkscape:connector-curvature="0"
       d="m 4113,3323 c -18,-6 -16,-42 2,-49 16,-6 45,12 45,27 0,12 -33,27 -47,22 z"
       id="path240" />
    <path
       inkscape:connector-curvature="0"
       d="m 3872,3287 c -9,-10 -8,-18 1,-32 19,-25 59,-12 55,18 -4,26 -39,35 -56,14 z"
       id="path242" />
    <path
       inkscape:connector-curvature="0"
       d="m 3676,3255 c -8,-9 -13,-22 -10,-30 8,-20 50,-19 58,1 8,22 8,22 -13,34 -15,7 -23,6 -35,-5 z"
       id="path244" />
    <path
       inkscape:connector-curvature="0"
       d="m 3997,3223 c -13,-12 -7,-32 11,-42 25,-13 46,2 37,28 -6,20 -34,28 -48,14 z"
       id="path246" />
    <path
       inkscape:connector-curvature="0"
       d="m 4093,3163 c -19,-7 -16,-31 6,-50 16,-13 17,-21 10,-41 -13,-33 -5,-52 21,-52 24,0 38,26 21,43 -6,6 -11,27 -11,47 0,20 -5,41 -12,48 -13,13 -16,13 -35,5 z"
       id="path248" />
    <path
       inkscape:connector-curvature="0"
       d="m 3986,3071 c -16,-17 -16,-20 -1,-35 20,-20 20,-20 39,0 21,20 20,31 -3,43 -14,8 -22,6 -35,-8 z"
       id="path250" />
    <path
       inkscape:connector-curvature="0"
       d="m 3894,3005 c -18,-13 -18,-15 -2,-31 18,-18 48,-13 48,9 0,26 -25,38 -46,22 z"
       id="path252" />
    <path
       inkscape:connector-curvature="0"
       d="m 4000,2946 c -15,-15 -12,-34 8,-45 13,-7 22,-7 29,0 6,6 21,9 34,7 20,-2 25,-10 27,-43 4,-49 14,-60 41,-46 24,14 27,34 7,51 -8,6 -16,28 -18,48 l -3,37 -58,0 c -32,0 -62,-4 -67,-9 z"
       id="path254" />
    <path
       inkscape:connector-curvature="0"
       d="m 3713,2924 c -3,-8 1,-22 9,-30 12,-12 17,-12 33,-1 23,17 14,47 -15,47 -11,0 -23,-7 -27,-16 z"
       id="path256" />
    <path
       inkscape:connector-curvature="0"
       d="m 3836,2834 c -4,-10 -1,-24 7,-31 19,-19 49,-5 45,21 -4,27 -43,34 -52,10 z"
       id="path258" />
    <path
       inkscape:connector-curvature="0"
       d="m 3967,2829 c -22,-13 -22,-35 -1,-47 26,-14 53,-3 47,19 -8,28 -25,39 -46,28 z"
       id="path260" />
    <path
       inkscape:connector-curvature="0"
       d="m 4067,2783 c -26,-7 -18,-45 13,-60 14,-7 27,-23 30,-35 8,-31 54,-32 58,-2 2,16 -4,24 -27,32 -26,9 -31,16 -31,41 0,31 -5,34 -43,24 z"
       id="path262" />
  </g>
  <g
     transform="translate(0.000000,601.920000) scale(0.024000,-0.024000)"
     fill="#000000"
     stroke="none"
     id="g3247">
    <path
       d="M4026 24794 c-21 -20 -20 -41 1 -53 37 -20 71 27 41 57 -16 16 -23 15 -42 -4z"
       id="path3249" />
    <path
       d="M3714 24756 c-15 -12 -17 -18 -8 -33 25 -41 80 -20 63 25 -10 25 -27 28 -55 8z"
       id="path3251" />
    <path
       d="M3556 24744 c-9 -22 12 -46 38 -42 15 2 21 10 21 28 0 20 -6 26 -26 28 -18 2 -29 -3 -33 -14z"
       id="path3253" />
    <path
       d="M3405 24736 c-24 -17 -15 -50 14 -54 39 -6 56 39 22 57 -13 7 -23 6 -36 -3z"
       id="path3255" />
    <path
       d="M3864 24705 c-9 -23 3 -45 24 -45 28 0 43 20 31 42 -12 22 -47 24 -55 3z"
       id="path3257" />
    <path
       d="M3669 24644 c-17 -21 0 -49 32 -49 27 0 37 28 19 50 -16 19 -34 19 -51 -1z"
       id="path3259" />
    <path
       d="M3521 24626 c-20 -24 -9 -51 19 -51 21 0 25 5 25 30 0 34 -24 45 -44 21z"
       id="path3261" />
    <path
       d="M3975 24600 c-10 -17 4 -47 25 -53 23 -6 43 15 38 40 -4 20 -52 31 -63 13z"
       id="path3263" />
    <path
       d="M3815 24554 c-9 -9 -14 -21 -12 -27 6 -18 33 -31 51 -24 21 8 21 53 0 61 -21 8 -20 8 -39 -10z"
       id="path3265" />
    <path
       d="M3464 24536 c-10 -26 4 -48 28 -44 17 2 23 10 23 28 0 18 -6 26 -23 28 -13 2 -25 -3 -28 -12z"
       id="path3267" />
    <path
       d="M3358 24498 c-21 -17 -7 -58 20 -58 37 0 49 41 18 62 -15 10 -20 10 -38 -4z"
       id="path3269" />
    <path
       d="M3582 24478 c-16 -16 -15 -23 4 -42 21 -22 56 -3 52 27 -3 25 -37 34 -56 15z"
       id="path3271" />
    <path
       d="M3709 24474 c-15 -19 -2 -47 26 -52 25 -5 38 13 31 42 -7 30 -36 35 -57 10z"
       id="path3273" />
    <path
       d="M3978 24438 c-24 -19 -6 -60 24 -56 27 3 38 46 16 59 -17 12 -21 11 -40 -3z"
       id="path3275" />
    <path
       d="M3422 24381 c-8 -4 -12 -19 -10 -32 2 -18 9 -24 28 -24 28 0 39 27 20 50 -14 17 -20 18 -38 6z"
       id="path3277" />
    <path
       d="M3830 24365 c-18 -22 -1 -50 31 -50 20 0 24 5 24 30 0 23 -5 31 -21 33 -11 2 -27 -4 -34 -13z"
       id="path3279" />
    <path
       d="M4934 24288 c-10 -24 -24 -49 -31 -56 -7 -8 -11 -17 -8 -22 3 -4 -2 -13 -10 -20 -8 -7 -15 -16 -15 -21 0 -4 -5 -20 -11 -36 -6 -15 -11 -30 -11 -33 0 -3 -4 -13 -9 -22 -6 -11 -5 -19 2 -24 19 -11 230 -10 239 1 9 10 -8 77 -23 91 -4 4 -7 13 -7 20 0 26 -70 164 -83 164 -8 0 -22 -19 -33 -42z m58 -113 c15 -37 28 -70 28 -72 0 -2 -31 -2 -70 -1 -38 1 -70 4 -70 7 0 4 27 65 53 119 16 34 28 23 59 -53z"
       id="path3281" />
    <path
       d="M3570 24295 c-24 -29 15 -70 44 -46 17 14 15 39 -5 52 -19 12 -25 11 -39 -6z"
       id="path3283" />
    <path
       d="M3472 24278 c-17 -17 -15 -45 4 -52 25 -10 33 -7 44 13 7 15 6 23 -6 35 -19 19 -26 20 -42 4z"
       id="path3285" />
    <path
       d="M3717 24283 c-13 -12 -7 -42 10 -52 23 -12 52 4 48 26 -2 10 -4 21 -4 26 -1 9 -45 9 -54 0z"
       id="path3287" />
    <path
       d="M3934 24255 c-10 -25 4 -45 30 -45 25 0 44 30 31 50 -10 15 -55 12 -61 -5z"
       id="path3289" />
    <path
       d="M3136 24237 c3 -8 19 -20 36 -28 29 -14 23 -15 -98 -16 -158 -2 -149 -1 -140 -10 4 -5 67 -10 139 -13 l132 -5 -37 -17 c-21 -9 -38 -20 -38 -23 0 -8 70 -2 76 6 4 8 68 21 137 28 4 1 7 7 7 14 0 8 -30 20 -80 31 -44 10 -85 25 -91 32 -15 18 -50 19 -43 1z"
       id="path3291" />
    <path
       d="M4285 24233 c-11 -2 -27 -7 -35 -10 -21 -8 -42 -14 -62 -17 -10 -1 -21 -5 -24 -9 -4 -4 -16 -7 -26 -7 -39 0 -11 -23 33 -27 24 -2 51 -6 59 -10 20 -8 28 -11 73 -22 29 -7 37 -6 37 5 0 8 -4 15 -10 15 -5 1 -14 2 -19 3 -5 0 -12 4 -15 7 -4 3 84 6 195 7 186 1 220 4 208 17 -3 2 -100 5 -217 5 -198 1 -252 10 -167 26 19 3 32 10 29 15 -5 9 -24 10 -59 2z"
       id="path3293" />
    <path
       d="M5211 24194 c-12 -15 -21 -31 -21 -35 0 -13 18 -11 24 4 3 6 3 -6 0 -28 -11 -67 -10 -79 9 -83 11 -2 17 3 17 16 0 10 3 22 7 26 4 4 8 13 8 19 3 38 18 64 34 60 21 -5 37 25 22 40 -7 7 -17 5 -30 -7 -16 -15 -19 -15 -24 -1 -9 22 -23 19 -46 -11z"
       id="path3295" />
    <path
       d="M3840 24186 c-27 -33 18 -72 48 -42 13 13 14 20 6 34 -15 23 -38 26 -54 8z"
       id="path3297" />
    <path
       d="M3547 24174 c-23 -23 7 -69 37 -58 25 10 17 58 -9 62 -12 2 -24 0 -28 -4z"
       id="path3299" />
    <path
       d="M3397 24153 c-16 -15 -6 -52 15 -59 28 -9 52 20 37 47 -10 19 -39 25 -52 12z"
       id="path3301" />
    <path
       d="M4007 24134 c-15 -16 -7 -53 14 -59 30 -10 58 19 43 43 -12 18 -45 28 -57 16z"
       id="path3303" />
    <path
       d="M3669 24034 c-16 -20 -1 -48 29 -52 25 -4 39 32 22 53 -16 19 -34 19 -51 -1z"
       id="path3305" />
    <path
       d="M3503 24014 c-6 -17 6 -45 23 -51 5 -2 19 3 29 11 16 12 18 18 9 33 -15 24 -52 29 -61 7z"
       id="path3307" />
    <path
       d="M3844 24006 c-15 -12 -17 -18 -8 -33 17 -28 50 -28 57 -2 6 22 -7 49 -22 49 -4 0 -16 -6 -27 -14z"
       id="path3309" />
    <path
       d="M3371 23986 c-10 -12 -8 -19 8 -35 12 -12 24 -21 29 -21 19 1 33 20 30 41 -4 29 -48 38 -67 15z"
       id="path3311" />
    <path
       d="M3737 23934 c-11 -11 -8 -52 3 -59 6 -3 19 -3 31 0 28 9 23 59 -6 63 -12 2 -24 0 -28 -4z"
       id="path3313" />
    <path
       d="M3992 23901 c-18 -11 -12 -41 10 -55 14 -8 22 -7 35 7 29 29 -10 71 -45 48z"
       id="path3315" />
    <path
       d="M3644 23835 c-8 -20 13 -45 38 -45 24 0 34 26 18 45 -16 19 -49 19 -56 0z"
       id="path3317" />
    <path
       d="M3533 23824 c-8 -22 10 -49 32 -49 10 0 22 7 28 16 15 24 1 49 -28 49 -15 0 -28 -7 -32 -16z"
       id="path3319" />
    <path
       d="M3814 23796 c-7 -31 1 -46 26 -46 25 0 41 30 29 53 -15 26 -48 21 -55 -7z"
       id="path3321" />
    <path
       d="M4005 23776 c-27 -20 -15 -51 20 -51 23 0 31 5 33 22 4 29 -28 47 -53 29z"
       id="path3323" />
    <path
       d="M3730 23735 c-15 -18 -5 -65 14 -65 16 0 46 26 46 40 0 11 -29 40 -39 40 -5 0 -14 -7 -21 -15z"
       id="path3325" />
    <path
       d="M3370 23721 c-7 -15 -6 -23 6 -35 23 -23 44 -17 56 15 14 36 -43 54 -62 20z"
       id="path3327" />
    <path
       d="M3497 23693 c-12 -11 -8 -40 7 -52 28 -23 68 17 45 45 -12 15 -41 19 -52 7z"
       id="path3329" />
    <path
       d="M3864 23685 c-10 -25 4 -45 30 -45 28 0 37 17 24 43 -11 21 -46 23 -54 2z"
       id="path3331" />
    <path
       d="M3994 23615 c-14 -37 26 -69 53 -43 12 12 13 20 4 37 -13 24 -49 28 -57 6z"
       id="path3333" />
    <path
       d="M3568 23589 c-35 -20 -8 -67 32 -54 22 7 27 34 8 53 -14 14 -18 14 -40 1z"
       id="path3335" />
    <path
       d="M3723 23570 c-12 -5 -30 -21 -40 -36 -19 -30 -53 -181 -46 -201 8 -21 33 -15 33 8 0 11 5 29 10 40 9 15 14 17 29 7 42 -26 111 37 111 101 0 33 -20 68 -47 80 -13 6 -25 11 -26 10 -1 0 -12 -4 -24 -9z m48 -44 c15 -32 -8 -109 -34 -114 -44 -9 -59 40 -33 103 18 42 51 47 67 11z"
       id="path3337" />
    <path
       d="M3860 23535 c-18 -21 -3 -55 25 -55 15 0 26 7 30 20 7 23 -10 50 -30 50 -7 0 -18 -7 -25 -15z"
       id="path3339" />
    <path
       d="M3397 23493 c-12 -11 -8 -40 7 -52 28 -23 68 17 45 45 -12 15 -41 19 -52 7z"
       id="path3341" />
    <path
       d="M3541 23456 c-17 -20 -2 -46 25 -46 29 0 41 24 24 45 -16 19 -34 19 -49 1z"
       id="path3343" />
    <path
       d="M3954 23415 c-10 -25 4 -45 30 -45 25 0 44 30 31 50 -10 15 -55 12 -61 -5z"
       id="path3345" />
    <path
       d="M3829 23383 c-22 -5 -31 -39 -13 -53 7 -7 22 -9 34 -5 37 12 17 67 -21 58z"
       id="path3347" />
    <path
       d="M3433 23333 c-18 -7 -16 -50 3 -57 25 -10 33 -7 45 16 10 18 8 24 -7 35 -19 14 -22 14 -41 6z"
       id="path3349" />
    <path
       d="M3684 23285 c-9 -23 3 -45 24 -45 28 0 43 20 31 42 -12 22 -47 24 -55 3z"
       id="path3351" />
    <path
       d="M3944 23285 c-10 -25 4 -45 31 -45 21 0 25 5 25 30 0 25 -4 30 -25 30 -14 0 -28 -7 -31 -15z"
       id="path3353" />
    <path
       d="M3999 23184 c-16 -20 -1 -48 29 -52 25 -4 39 32 22 53 -16 19 -34 19 -51 -1z"
       id="path3355" />
    <path
       d="M3827 23184 c-4 -4 -7 -18 -7 -31 0 -19 5 -23 31 -23 27 0 30 3 27 28 -3 26 -34 43 -51 26z"
       id="path3357" />
    <path
       d="M3552 23161 c-25 -16 -10 -46 23 -46 25 0 30 4 30 25 0 27 -28 38 -53 21z"
       id="path3359" />
    <path
       d="M3404 23128 c-7 -22 19 -52 40 -45 17 6 29 34 23 51 -10 24 -54 21 -63 -6z"
       id="path3361" />
    <path
       d="M3697 23123 c-13 -13 -7 -42 11 -52 33 -18 61 17 39 47 -10 13 -39 16 -50 5z"
       id="path3363" />
    <path
       d="M4013 23042 c-18 -11 -19 -43 -2 -55 33 -21 74 18 49 48 -14 16 -29 19 -47 7z"
       id="path3365" />
    <path
       d="M3875 23006 c-24 -17 -15 -50 14 -54 39 -6 56 39 22 57 -13 7 -23 6 -36 -3z"
       id="path3367" />
    <path
       d="M3520 22967 c0 -34 23 -52 49 -38 28 16 13 55 -23 59 -22 3 -26 -1 -26 -21z"
       id="path3369" />
    <path
       d="M3730 22953 c-23 -9 -30 -25 -19 -45 13 -24 46 -23 59 1 7 15 6 23 -6 35 -8 9 -16 16 -17 15 -1 0 -9 -3 -17 -6z"
       id="path3371" />
    <path
       d="M3375 22924 c-18 -19 -16 -33 8 -48 23 -14 53 5 49 30 -7 34 -32 42 -57 18z"
       id="path3373" />
    <path
       d="M3573 22833 c-22 -8 -15 -51 8 -58 27 -9 42 6 37 36 -3 24 -21 32 -45 22z"
       id="path3375" />
    <path
       d="M3990 22809 c-9 -15 -8 -24 1 -35 12 -14 58 -20 60 -6 0 4 2 15 4 25 3 16 -21 37 -44 37 -6 0 -15 -9 -21 -21z"
       id="path3377" />
    <path
       d="M3844 22788 c-7 -22 19 -52 40 -45 17 6 29 34 23 51 -10 24 -54 21 -63 -6z"
       id="path3379" />
    <path
       d="M3404 22718 c-9 -28 20 -52 47 -37 23 12 25 45 3 53 -28 11 -43 6 -50 -16z"
       id="path3381" />
    <path
       d="M3935 22679 c-10 -30 18 -58 43 -43 9 6 17 22 17 35 0 34 -50 41 -60 8z"
       id="path3383" />
    <path
       d="M3750 22680 c-8 -5 -27 -7 -42 -4 -20 4 -29 0 -38 -16 -21 -39 22 -67 54 -35 11 11 21 13 39 6 31 -12 61 7 56 35 -5 22 -45 30 -69 14z"
       id="path3385" />
    <path
       d="M3515 22600 c-10 -17 5 -50 24 -50 24 0 40 18 34 41 -6 20 -47 27 -58 9z"
       id="path3387" />
    <path
       d="M3407 22593 c-4 -3 -7 -17 -7 -30 0 -19 5 -23 29 -23 32 0 43 16 29 43 -9 17 -39 23 -51 10z"
       id="path3389" />
    <path
       d="M4030 22555 c-18 -22 -1 -50 31 -50 20 0 24 5 24 30 0 23 -5 31 -21 33 -11 2 -27 -4 -34 -13z"
       id="path3391" />
    <path
       d="M3871 22522 c-11 -20 8 -52 31 -52 23 0 41 26 33 50 -8 25 -50 27 -64 2z"
       id="path3393" />
    <path
       d="M3632 22518 c-26 -26 1 -65 38 -53 32 10 20 65 -15 65 -6 0 -16 -5 -23 -12z"
       id="path3395" />
    <path
       d="M3404 22466 c-11 -29 0 -51 26 -51 21 0 25 5 25 30 0 24 -5 31 -23 33 -13 2 -24 -3 -28 -12z"
       id="path3397" />
    <path
       d="M3563 22403 c-7 -2 -13 -15 -13 -28 0 -31 36 -43 58 -21 27 27 -8 65 -45 49z"
       id="path3399" />
    <path
       d="M3744 22386 c-10 -25 0 -51 20 -54 27 -6 48 25 35 49 -12 22 -47 25 -55 5z"
       id="path3401" />
    <path
       d="M3895 22374 c-18 -18 -16 -33 7 -47 35 -22 66 21 36 51 -16 16 -23 15 -43 -4z"
       id="path3403" />
    <path
       d="M3427 22354 c-13 -14 -7 -43 12 -53 24 -13 55 8 50 35 -4 19 -48 32 -62 18z"
       id="path3405" />
    <path
       d="M4037 22343 c-22 -21 0 -63 33 -63 18 0 32 40 19 56 -12 15 -41 19 -52 7z"
       id="path3407" />
    <path
       d="M3636 22244 c-10 -26 19 -52 42 -38 9 6 17 20 17 30 0 26 -50 32 -59 8z"
       id="path3409" />
    <path
       d="M3824 22216 c-16 -42 19 -71 50 -41 12 12 13 21 6 36 -12 22 -48 25 -56 5z"
       id="path3411" />
    <path
       d="M3438 22209 c-39 -22 -12 -74 30 -58 18 7 23 15 20 36 -3 30 -23 39 -50 22z"
       id="path3413" />
    <path
       d="M3977 22213 c-16 -15 -6 -52 15 -59 28 -9 52 20 37 47 -10 19 -39 25 -52 12z"
       id="path3415" />
    <path
       d="M1088 21935 c-3 -4 5 -27 19 -52 31 -59 40 -128 22 -179 -7 -22 -14 -45 -15 -52 -1 -8 -10 -22 -20 -33 -22 -25 -10 -38 15 -15 51 46 68 224 26 275 -12 14 -26 34 -31 44 -6 10 -13 15 -16 12z"
       id="path3417" />
    <path
       d="M755 21875 c-18 -38 -26 -72 -26 -112 -1 -70 1 -78 29 -123 12 -19 22 -38 22 -42 0 -5 7 -8 16 -8 14 0 14 2 3 16 -18 22 -39 86 -32 97 3 6 1 7 -5 3 -9 -5 -12 10 -12 53 0 33 5 63 10 66 6 4 8 11 4 16 -3 5 -2 15 3 22 17 23 33 67 24 67 -5 0 -21 -25 -36 -55z"
       id="path3419" />
    <path
       d="M923 21820 c-28 -12 -60 -76 -57 -115 4 -41 30 -59 57 -40 14 10 25 11 33 5 16 -14 42 -2 56 24 10 18 9 19 -4 8 -14 -11 -16 -9 -13 15 1 15 6 47 10 71 l8 42 -34 -1 c-19 0 -44 -4 -56 -9z m47 -28 c0 -24 -24 -90 -37 -103 -28 -28 -42 18 -21 68 24 57 58 78 58 35z"
       id="path3421" />
    <path
       d="M5210 21641 c0 -14 4 -20 12 -15 8 5 9 -8 4 -49 -11 -99 -27 -157 -42 -157 -8 0 -14 -4 -14 -10 0 -6 40 -10 99 -10 105 0 111 3 111 53 0 20 -1 19 -28 -6 -20 -19 -39 -27 -65 -27 -36 0 -37 1 -37 38 0 26 7 45 19 56 18 16 20 16 35 -6 12 -17 21 -15 15 5 0 1 4 14 10 30 12 31 9 33 -24 11 -31 -21 -47 -11 -35 21 5 14 7 25 4 25 -4 0 -1 7 6 15 15 19 70 13 82 -9 13 -24 25 -11 21 21 -4 26 -8 28 -46 26 -23 -2 -55 -4 -72 -7 -16 -2 -36 1 -42 6 -10 8 -13 5 -13 -11z"
       id="path3423" />
    <path
       d="M6005 21565 c-31 -47 -54 -89 -51 -92 4 -4 23 -6 43 -5 48 4 74 -30 33 -43 -37 -12 -20 -23 35 -23 30 1 55 4 55 7 0 4 -9 14 -20 24 -12 10 -18 22 -14 28 4 8 9 8 14 -1 5 -8 9 -6 14 6 5 12 1 23 -11 32 -14 10 -18 27 -18 79 -1 38 -6 68 -12 70 -5 2 -36 -35 -68 -82z m40 -32 c-1 -35 -4 -38 -34 -41 -36 -4 -36 -4 2 55 26 39 34 35 32 -14z"
       id="path3425" />
    <path
       d="M6230 21607 c-30 -8 -63 -44 -54 -59 3 -5 14 -2 23 6 41 37 58 12 32 -46 -24 -55 -31 -87 -20 -93 12 -8 49 32 49 53 0 10 3 22 7 26 8 7 9 12 11 54 1 13 9 22 18 22 13 0 15 -6 10 -32 -17 -82 -18 -115 -3 -121 25 -9 36 14 39 83 l3 65 35 5 c34 5 58 39 28 41 -62 4 -153 3 -178 -4z"
       id="path3427" />
    <path
       d="M5585 21602 c-49 -5 -59 -10 -46 -26 11 -13 54 -14 249 -7 12 1 22 7 22 16 0 12 -14 15 -62 16 -35 0 -79 2 -98 2 -19 1 -48 1 -65 -1z"
       id="path3429" />
    <path
       d="M6545 21598 c-110 -28 -122 -188 -15 -188 41 0 80 29 80 60 0 10 5 22 10 25 7 4 7 12 0 25 -12 22 -13 53 -2 47 13 -8 52 12 52 27 0 16 -70 19 -125 4z m24 -42 c24 -29 -21 -134 -53 -123 -35 12 -5 137 33 137 5 0 14 -6 20 -14z"
       id="path3431" />
    <path
       d="M4101 21510 c-11 -25 -36 -79 -54 -120 -58 -127 -88 -193 -114 -250 -14 -30 -33 -73 -43 -95 -10 -22 -36 -80 -59 -128 -22 -49 -41 -90 -41 -92 0 -2 -25 -56 -55 -120 -30 -63 -55 -118 -55 -120 0 -3 -16 -40 -36 -82 -73 -158 -97 -209 -124 -268 -16 -33 -49 -107 -75 -165 -63 -141 -106 -230 -114 -231 -42 -9 -95 -10 -351 -9 -124 0 -299 1 -390 0 l-165 0 -1 -25 c-1 -17 4 -26 15 -27 53 -5 147 -6 515 -7 l410 -1 23 27 c12 16 22 35 23 44 0 9 7 22 15 29 8 7 13 16 10 20 -2 3 3 18 13 31 9 13 18 33 20 43 1 11 6 23 10 26 4 3 13 23 21 45 8 22 22 52 33 68 11 15 17 27 14 27 -3 0 7 24 21 53 15 28 28 58 29 65 1 7 8 20 15 28 7 9 14 23 15 32 2 25 115 266 125 270 5 2 7 7 4 12 -7 12 21 61 30 52 5 -4 5 -2 2 4 -7 12 109 275 125 285 5 3 9 9 8 13 -3 12 33 96 41 96 5 0 6 6 3 13 -2 7 4 22 15 34 11 11 17 23 15 26 -6 6 92 218 104 227 4 3 7 10 7 15 0 6 13 39 29 75 l29 66 373 2 c297 2 374 0 374 -10 0 -9 3 -10 8 -2 4 6 34 10 67 10 78 -1 97 6 86 35 l-8 22 -470 1 -471 1 -21 -45z"
       id="path3433" />
    <path
       d="M5533 21497 c-3 -5 0 -14 6 -20 14 -14 264 -13 269 2 2 6 4 14 5 18 3 11 -273 11 -280 0z"
       id="path3435" />
    <path
       d="M5018 20068 c-36 -55 -118 -242 -111 -249 5 -5 63 -10 128 -11 l120 -3 -3 29 c-4 32 -102 256 -112 256 -4 0 -14 -10 -22 -22z m34 -103 c11 -28 24 -62 28 -77 8 -28 8 -28 -38 -29 -26 -1 -58 -2 -72 -3 -20 -1 -24 3 -22 19 2 11 10 27 18 36 8 8 14 22 14 30 0 8 6 21 13 28 6 6 13 16 13 22 1 5 2 14 3 20 3 24 25 0 43 -46z"
       id="path3437" />
    <path
       d="M6008 20012 c-17 -2 -39 -17 -58 -40 -39 -47 -41 -102 -5 -137 33 -33 65 -31 101 6 24 25 29 39 29 80 0 47 13 67 35 54 5 -3 14 4 20 15 6 11 7 21 3 22 -15 3 -98 3 -125 0z m28 -83 c-7 -53 -23 -79 -46 -79 -11 0 -21 3 -21 8 -6 35 -5 60 5 82 14 32 24 39 48 32 16 -4 19 -11 14 -43z"
       id="path3439" />
    <path
       d="M4761 19999 c-24 -9 -60 -80 -68 -133 -2 -17 -8 -47 -14 -66 -5 -19 -9 -40 -9 -45 0 -11 39 -16 41 -5 10 76 15 83 43 65 29 -19 46 -12 87 32 21 22 27 37 26 73 -2 69 -45 101 -106 79z m55 -79 c-2 -52 -18 -80 -47 -80 -22 0 -33 31 -24 73 9 42 31 66 55 60 15 -4 18 -13 16 -53z"
       id="path3441" />
    <path
       d="M5505 20000 c-4 -6 -5 -13 -3 -16 3 -2 65 -5 139 -6 110 -1 134 1 134 13 0 11 -26 15 -132 17 -87 2 -134 -1 -138 -8z"
       id="path3443" />
    <path
       d="M5328 19977 c-9 -10 -20 -12 -29 -7 -9 6 -20 3 -32 -8 -27 -24 -39 -50 -27 -57 6 -3 15 4 20 17 7 17 8 6 4 -39 -4 -33 -3 -66 1 -73 11 -17 30 4 33 37 4 57 18 88 38 88 20 0 32 31 16 47 -6 6 -15 4 -24 -5z"
       id="path3445" />
    <path
       d="M1466 19939 c3 -5 11 -9 18 -9 15 0 14 -12 -11 -128 -9 -41 -21 -76 -29 -79 -37 -14 -5 -23 85 -23 l99 0 6 32 c8 42 2 45 -25 14 -28 -32 -83 -36 -98 -7 -6 10 -8 21 -5 24 5 5 11 28 13 50 2 15 31 6 41 -14 14 -26 17 -24 28 29 10 43 -4 74 -15 33 -3 -12 -13 -21 -24 -21 -14 0 -17 6 -15 28 2 15 4 35 5 45 2 29 59 22 87 -10 l24 -28 -2 37 -3 37 -92 -1 c-51 0 -90 -4 -87 -9z"
       id="path3447" />
    <path
       d="M2259 19922 c-46 -32 -61 -112 -33 -182 28 -68 74 -79 120 -27 27 29 30 39 31 99 0 62 -2 69 -31 96 -34 33 -56 36 -87 14z m65 -27 c33 -50 11 -195 -29 -195 -14 0 -33 37 -34 65 -5 100 7 155 35 155 6 0 19 -11 28 -25z"
       id="path3449" />
    <path
       d="M5503 19908 c-13 -22 18 -28 135 -28 126 0 169 8 141 26 -17 11 -269 12 -276 2z"
       id="path3451" />
    <path
       d="M1810 19890 c-4 -3 -10 -11 -12 -18 -2 -10 29 -13 135 -16 127 -2 137 -1 137 16 0 16 -10 18 -87 19 -49 0 -105 2 -126 3 -21 1 -42 -1 -47 -4z"
       id="path3453" />
    <path
       d="M1790 19785 c0 -7 4 -16 8 -19 4 -2 66 -6 137 -7 116 -3 130 -2 133 14 2 9 0 17 -5 18 -4 0 -68 3 -140 5 -110 3 -133 1 -133 -11z"
       id="path3455" />
    <path
       d="M3563 18193 c-20 -8 -15 -41 8 -54 28 -15 54 9 44 40 -6 20 -25 25 -52 14z"
       id="path3457" />
    <path
       d="M3817 18194 c-13 -14 -7 -43 12 -53 24 -13 55 8 50 35 -4 19 -48 32 -62 18z"
       id="path3459" />
    <path
       d="M3672 18178 c-25 -25 -7 -68 29 -68 9 0 19 -9 22 -21 4 -16 12 -20 34 -17 22 2 28 8 28 28 0 20 -6 26 -27 28 -16 2 -28 9 -28 17 0 14 -26 45 -39 45 -4 0 -12 -5 -19 -12z"
       id="path3461" />
    <path
       d="M3583 18088 c-14 -19 -10 -39 8 -51 36 -22 67 21 37 51 -15 15 -33 15 -45 0z"
       id="path3463" />
    <path
       d="M3801 18051 c-9 -15 -7 -23 5 -36 25 -25 49 -15 49 20 0 23 -5 31 -22 33 -14 2 -26 -4 -32 -17z"
       id="path3465" />
    <path
       d="M3685 18006 c-25 -18 -15 -51 15 -51 20 0 26 6 28 26 4 31 -18 44 -43 25z"
       id="path3467" />
    <path
       d="M3551 17996 c-9 -11 -10 -20 -1 -36 16 -29 54 -23 58 9 6 37 -34 55 -57 27z"
       id="path3469" />
    <path
       d="M3773 17934 c-8 -22 9 -49 33 -49 30 0 27 59 -4 63 -14 2 -25 -3 -29 -14z"
       id="path3471" />
    <path
       d="M3640 17916 c-27 -33 18 -72 48 -42 13 13 14 20 6 34 -15 23 -38 26 -54 8z"
       id="path3473" />
    <path
       d="M3555 17854 c-18 -19 -16 -33 8 -48 18 -11 47 0 54 21 4 12 -23 43 -37 43 -5 0 -16 -7 -25 -16z"
       id="path3475" />
    <path
       d="M3823 17833 c-17 -6 -16 -38 1 -52 28 -23 68 17 45 45 -12 14 -24 16 -46 7z"
       id="path3477" />
    <path
       d="M3713 17823 c-21 -8 -15 -51 7 -58 27 -8 40 1 40 30 0 17 -21 40 -33 34 -1 0 -8 -3 -14 -6z"
       id="path3479" />
    <path
       d="M3596 17724 c-22 -21 -3 -56 27 -52 37 5 33 67 -5 68 -4 0 -14 -7 -22 -16z"
       id="path3481" />
    <path
       d="M3807 17724 c-23 -23 7 -69 37 -58 25 10 17 58 -9 62 -12 2 -24 0 -28 -4z"
       id="path3483" />
    <path
       d="M3705 17696 c-22 -16 -11 -56 14 -56 24 0 43 23 35 43 -8 22 -29 28 -49 13z"
       id="path3485" />
    <path
       d="M3587 17623 c-4 -3 -7 -17 -7 -30 0 -19 5 -23 29 -23 34 0 45 12 36 40 -6 19 -44 28 -58 13z"
       id="path3487" />
    <path
       d="M3812 17607 c-16 -19 8 -50 34 -45 28 5 26 52 -2 56 -11 2 -26 -3 -32 -11z"
       id="path3489" />
    <path
       d="M3671 17576 c-10 -12 -8 -19 9 -36 17 -17 24 -19 36 -9 21 17 13 53 -12 57 -11 2 -26 -4 -33 -12z"
       id="path3491" />
    <path
       d="M3756 17517 c-26 -19 -17 -52 14 -52 18 0 26 6 28 21 4 30 -20 47 -42 31z"
       id="path3493" />
    <path
       d="M4668 17444 c-21 -36 -38 -71 -38 -78 0 -7 -5 -17 -10 -22 -6 -6 -19 -28 -30 -49 -30 -59 -19 -65 121 -65 120 0 128 3 110 38 -10 18 -75 183 -76 192 -1 12 -26 50 -33 50 -4 0 -24 -30 -44 -66z m42 -22 c0 -10 3 -22 7 -25 5 -6 43 -105 43 -114 0 -2 -34 -3 -75 -3 -75 0 -88 7 -60 30 8 7 15 18 15 25 0 18 50 105 61 105 5 0 9 -8 9 -18z"
       id="path3495" />
    <path
       d="M3577 17486 c-11 -27 4 -46 35 -46 26 0 29 3 26 28 -2 21 -9 28 -29 30 -17 2 -29 -3 -32 -12z"
       id="path3497" />
    <path
       d="M3840 17461 c-8 -16 -6 -23 12 -36 22 -15 24 -14 41 6 13 17 15 25 6 35 -16 20 -47 17 -59 -5z"
       id="path3499" />
    <path
       d="M3672 17421 c-8 -4 -12 -19 -10 -32 2 -18 11 -25 38 -30 19 -4 44 -10 56 -14 29 -9 49 17 34 45 -8 15 -18 20 -33 16 -12 -2 -31 2 -41 10 -23 16 -26 17 -44 5z"
       id="path3501" />
    <path
       d="M4070 17394 c-19 -9 -55 -17 -80 -19 -25 -2 -53 -6 -62 -10 -18 -7 -25 -24 -10 -26 4 -1 19 -3 33 -4 14 -2 54 -11 88 -20 67 -17 82 -15 61 10 -12 14 3 16 151 15 220 -1 223 -1 215 7 -4 4 -80 8 -169 9 -208 2 -207 2 -207 13 0 5 9 11 21 14 12 3 18 10 14 16 -8 14 -13 13 -55 -5z"
       id="path3503" />
    <path
       d="M3310 17391 c0 -6 5 -11 10 -11 6 0 10 -5 10 -11 0 -6 -29 -10 -77 -9 -154 3 -223 0 -223 -9 0 -8 114 -13 298 -13 39 0 41 -5 6 -18 -37 -14 -21 -31 19 -18 17 5 51 13 75 17 23 5 45 9 47 9 3 1 16 2 30 2 14 0 25 5 25 10 0 6 -7 10 -15 10 -8 0 -15 4 -15 8 0 4 -12 8 -27 7 -16 0 -44 6 -63 13 -48 20 -100 26 -100 13z"
       id="path3505" />
    <path
       d="M4917 17379 c-9 -10 -17 -27 -16 -37 0 -10 3 -12 6 -4 2 6 9 12 14 12 8 0 4 -66 -7 -102 -4 -13 0 -18 14 -18 15 0 22 10 28 38 9 46 11 54 12 70 1 6 13 12 27 12 18 0 25 5 25 19 0 26 -17 36 -35 21 -10 -8 -19 -8 -33 -1 -14 8 -22 5 -35 -10z"
       id="path3507" />
    <path
       d="M3577 17374 c-23 -23 7 -69 37 -58 25 10 17 58 -9 62 -12 2 -24 0 -28 -4z"
       id="path3509" />
    <path
       d="M3836 17317 c-26 -19 -17 -51 16 -55 31 -4 48 29 28 53 -15 18 -21 19 -44 2z"
       id="path3511" />
    <path
       d="M3624 17278 c-7 -22 19 -52 40 -45 21 7 30 35 17 51 -19 23 -48 20 -57 -6z"
       id="path3513" />
    <path
       d="M3737 17293 c-22 -21 0 -63 33 -63 18 0 32 40 19 56 -12 15 -41 19 -52 7z"
       id="path3515" />
    <path
       d="M3782 17198 c-30 -30 2 -74 37 -51 17 12 16 44 -2 55 -16 10 -21 10 -35 -4z"
       id="path3517" />
    <path
       d="M3674 17176 c-11 -29 0 -51 26 -51 21 0 25 5 25 30 0 24 -5 31 -23 33 -13 2 -24 -3 -28 -12z"
       id="path3519" />
    <path
       d="M3563 17154 c-15 -39 38 -67 60 -32 8 12 7 21 -2 32 -17 21 -50 20 -58 0z"
       id="path3521" />
    <path
       d="M3724 17106 c-15 -12 -17 -18 -8 -33 15 -24 58 -24 62 0 4 18 -14 47 -27 47 -4 0 -16 -6 -27 -14z"
       id="path3523" />
    <path
       d="M3835 17100 c-14 -16 -15 -22 -5 -35 28 -34 77 -4 53 33 -15 24 -28 24 -48 2z"
       id="path3525" />
    <path
       d="M3632 17051 c-8 -4 -12 -19 -10 -32 2 -18 9 -24 28 -24 19 0 26 6 28 24 3 20 -11 41 -28 41 -3 0 -11 -4 -18 -9z"
       id="path3527" />
    <path
       d="M3772 17001 c-18 -11 -12 -41 10 -55 27 -16 54 14 39 43 -12 22 -27 26 -49 12z"
       id="path3529" />
    <path
       d="M3575 16909 c-14 -43 45 -66 61 -24 8 19 -13 45 -37 45 -10 0 -21 -10 -24 -21z"
       id="path3531" />
    <path
       d="M3672 16908 c-16 -16 -15 -33 3 -48 21 -18 55 -3 55 25 0 32 -35 46 -58 23z"
       id="path3533" />
    <path
       d="M3826 16904 c-22 -21 -3 -56 27 -52 30 4 35 43 8 57 -15 8 -23 7 -35 -5z"
       id="path3535" />
    <path
       d="M3574 16796 c-8 -32 2 -46 31 -46 25 0 39 23 30 51 -10 29 -53 25 -61 -5z"
       id="path3537" />
    <path
       d="M3742 16801 c-25 -16 -10 -46 23 -46 25 0 30 4 30 25 0 27 -28 38 -53 21z"
       id="path3539" />
    <path
       d="M3827 16734 c-3 -3 -3 -13 0 -21 5 -13 3 -13 -16 -4 -35 19 -84 -2 -104 -44 -22 -47 -58 -185 -51 -197 10 -16 26 -3 38 32 8 23 17 34 26 31 55 -15 67 -12 95 21 15 18 32 33 36 33 17 0 31 24 25 42 -6 15 -8 15 -16 3 -7 -11 -10 -8 -10 13 0 15 4 27 9 27 16 0 23 40 11 55 -13 16 -32 19 -43 9z m-26 -67 c12 -27 -7 -95 -32 -110 -28 -18 -49 -1 -49 38 0 76 56 126 81 72z"
       id="path3541" />
    <path
       d="M3578 16619 c-27 -15 -22 -47 6 -55 14 -3 30 -3 35 1 17 10 13 52 -5 59 -19 7 -15 8 -36 -5z"
       id="path3543" />
    <path
       d="M3581 16493 c-22 -18 -22 -19 -4 -41 25 -32 55 -21 47 17 -10 39 -18 44 -43 24z"
       id="path3545" />
    <path
       d="M3848 16482 c-23 -4 -24 -48 -2 -56 26 -10 42 -7 48 9 12 32 -11 55 -46 47z"
       id="path3547" />
    <path
       d="M3742 16407 c-16 -19 8 -50 34 -45 28 5 26 52 -2 56 -11 2 -26 -3 -32 -11z"
       id="path3549" />
    <path
       d="M3652 16368 c-16 -16 -15 -33 2 -47 28 -23 68 17 45 45 -14 17 -31 18 -47 2z"
       id="path3551" />
    <path
       d="M3851 16356 c-27 -32 25 -68 53 -37 12 13 12 19 2 34 -16 20 -39 22 -55 3z"
       id="path3553" />
    <path
       d="M3566 16324 c-8 -21 11 -44 35 -44 25 0 46 39 28 51 -23 14 -56 10 -63 -7z"
       id="path3555" />
    <path
       d="M3795 16304 c-19 -19 -16 -43 7 -57 33 -21 65 32 36 61 -16 16 -23 15 -43 -4z"
       id="path3557" />
    <path
       d="M3712 16261 c-20 -12 -10 -45 14 -49 29 -4 51 23 34 43 -14 17 -29 19 -48 6z"
       id="path3559" />
    <path
       d="M3603 16223 c-7 -2 -13 -16 -13 -29 0 -19 7 -26 29 -30 20 -4 31 -14 35 -30 7 -25 34 -32 53 -13 6 6 8 19 6 30 -5 18 -10 21 -42 23 -8 1 -15 10 -17 20 -4 28 -25 40 -51 29z"
       id="path3561" />
    <path
       d="M3841 16207 c-22 -27 10 -64 45 -50 23 9 14 57 -12 61 -11 2 -26 -3 -33 -11z"
       id="path3563" />
    <path
       d="M3754 16138 c-12 -40 45 -60 60 -21 4 9 1 22 -5 29 -17 21 -47 17 -55 -8z"
       id="path3565" />
    <path
       d="M3554 16086 c-11 -28 4 -48 33 -44 22 2 28 8 28 28 0 20 -6 26 -28 28 -18 2 -29 -2 -33 -12z"
       id="path3567" />
    <path
       d="M3832 16088 c-18 -18 -15 -36 9 -49 29 -15 59 12 43 39 -14 22 -36 26 -52 10z"
       id="path3569" />
    <path
       d="M3642 16028 c-16 -16 -15 -33 2 -47 28 -23 68 17 45 45 -14 17 -31 18 -47 2z"
       id="path3571" />
    <path
       d="M3742 16028 c-18 -18 -15 -36 9 -48 26 -14 51 4 47 34 -3 24 -37 33 -56 14z"
       id="path3573" />
    <path
       d="M3554 15976 c-11 -28 1 -51 27 -54 31 -4 44 19 29 49 -12 22 -48 25 -56 5z"
       id="path3575" />
    <path
       d="M3825 15940 c-8 -27 1 -40 30 -40 27 0 41 26 24 46 -17 20 -47 17 -54 -6z"
       id="path3577" />
    <path
       d="M3717 15924 c-24 -24 13 -72 42 -55 20 13 9 56 -14 59 -12 2 -24 0 -28 -4z"
       id="path3579" />
    <path
       d="M3612 15893 c2 -22 8 -28 28 -28 20 0 25 5 25 25 0 20 -6 26 -28 28 -26 3 -28 1 -25 -25z"
       id="path3581" />
    <path
       d="M3757 15843 c-4 -3 -7 -17 -7 -30 0 -27 25 -41 48 -27 11 7 21 4 38 -13 29 -29 56 -21 52 16 -2 22 -8 26 -34 27 -18 0 -39 8 -49 17 -17 18 -37 22 -48 10z"
       id="path3583" />
    <path
       d="M3572 15818 c-30 -30 11 -85 44 -57 25 21 11 69 -21 69 -6 0 -16 -5 -23 -12z"
       id="path3585" />
    <path
       d="M3671 15786 c-9 -11 -10 -20 -1 -35 19 -36 64 -20 58 20 -4 28 -39 37 -57 15z"
       id="path3587" />
    <path
       d="M3744 15716 c-8 -32 1 -46 32 -46 46 0 42 61 -4 68 -16 2 -23 -3 -28 -22z"
       id="path3589" />
    <path
       d="M3594 15700 c-16 -16 -6 -48 18 -56 26 -8 41 7 36 37 -3 26 -36 37 -54 19z"
       id="path3591" />
    <path
       d="M3683 15673 c-18 -7 -16 -50 3 -57 25 -10 33 -7 44 13 7 15 6 23 -6 35 -16 17 -21 18 -41 9z"
       id="path3593" />
    <path
       d="M3807 15668 c-7 -20 12 -48 32 -48 24 0 43 23 35 44 -7 19 -60 22 -67 4z"
       id="path3595" />
    <path
       d="M3752 15598 c-28 -28 -3 -71 32 -59 13 5 26 1 38 -11 14 -14 23 -16 38 -8 11 6 20 17 20 24 0 21 -28 39 -50 33 -11 -3 -22 -1 -26 4 -11 19 -41 28 -52 17z"
       id="path3597" />
    <path
       d="M3581 15586 c-19 -23 -4 -56 25 -56 28 0 42 25 27 49 -14 22 -37 25 -52 7z"
       id="path3599" />
    <path
       d="M3673 15543 c-19 -7 -16 -51 4 -62 25 -13 53 4 53 33 0 29 -25 42 -57 29z"
       id="path3601" />
    <path
       d="M805 15466 c-37 -80 -44 -139 -25 -197 19 -56 59 -114 60 -85 0 11 -6 27 -13 35 -41 49 -42 161 -3 243 10 21 16 43 13 50 -2 7 -17 -14 -32 -46z"
       id="path3603" />
    <path
       d="M945 15500 c-3 -5 1 -10 9 -10 20 0 21 10 -10 -120 -14 -60 -24 -115 -22 -122 2 -6 22 -13 44 -15 53 -5 104 29 117 76 19 75 -19 110 -75 70 l-31 -23 7 30 c5 16 10 39 12 51 2 12 9 34 14 48 9 24 8 25 -25 25 -18 0 -37 -4 -40 -10z m105 -153 c-1 -43 -33 -92 -62 -95 -24 -3 -26 -1 -23 27 5 39 20 66 47 85 26 18 38 13 38 -17z"
       id="path3605" />
    <path
       d="M1160 15502 c0 -4 7 -17 15 -30 47 -65 48 -168 3 -253 -24 -47 -18 -62 10 -22 41 60 68 202 40 219 -4 3 -8 12 -8 20 0 17 -40 74 -52 74 -4 0 -8 -3 -8 -8z"
       id="path3607" />
    <path
       d="M4977 15022 l22 -17 -21 -90 c-11 -49 -27 -95 -34 -101 -8 -6 -14 -14 -14 -18 0 -3 44 -6 99 -6 l99 0 6 31 c10 51 7 53 -23 21 -23 -23 -37 -30 -63 -29 -27 2 -33 6 -36 28 -5 42 14 78 38 72 11 -3 19 -11 18 -19 -2 -7 2 -12 7 -11 6 1 9 5 8 8 -1 3 2 22 7 42 8 38 -4 52 -15 17 -4 -13 -15 -20 -31 -20 -16 0 -23 4 -18 11 4 7 8 21 9 33 1 11 3 26 4 32 0 7 13 14 28 17 19 3 33 -2 50 -19 13 -13 25 -24 27 -24 3 0 1 29 -3 53 0 4 -43 7 -93 7 -90 0 -92 -1 -71 -18z"
       id="path3609" />
    <path
       d="M5798 15019 c-9 -9 -19 -25 -22 -36 -4 -10 -24 -38 -46 -61 -53 -58 -52 -72 4 -72 25 0 47 -4 50 -9 9 -14 -4 -41 -20 -41 -8 0 -14 -4 -14 -10 0 -13 97 -13 105 -1 3 5 -2 11 -12 13 -24 5 -25 48 0 48 10 0 17 5 14 13 -2 6 -11 11 -20 9 -13 -2 -15 10 -12 78 1 44 0 82 -4 84 -3 1 -13 -5 -23 -15z m-12 -101 c-1 -41 -3 -43 -34 -46 l-32 -3 27 45 c15 25 30 46 34 46 3 0 5 -19 5 -42z"
       id="path3611" />
    <path
       d="M5306 14981 c-9 -10 -13 -22 -8 -25 5 -3 51 -6 103 -7 151 -2 169 0 169 15 0 20 -13 22 -130 21 -58 -1 -108 3 -111 7 -3 5 -13 0 -23 -11z"
       id="path3613" />
    <path
       d="M5956 14973 c-27 -14 -41 -42 -28 -55 6 -6 16 -3 25 6 19 19 37 21 37 4 0 -17 -24 -86 -33 -94 -11 -11 -8 -42 4 -49 12 -8 45 19 46 38 3 43 17 94 30 107 16 16 16 18 -1 -98 -2 -13 3 -30 12 -38 24 -24 37 0 37 69 l0 62 31 0 c17 0 39 7 48 14 15 13 15 16 2 30 -20 19 -176 22 -210 4z"
       id="path3615" />
    <path
       d="M6263 14945 c-52 -53 -57 -93 -14 -135 23 -24 36 -29 58 -26 31 6 72 47 74 74 2 26 2 25 -4 60 -6 30 -5 32 23 32 23 0 30 5 30 19 0 18 -7 19 -64 18 -60 -2 -66 -4 -103 -42z m78 -20 c8 -31 0 -59 -26 -90 -23 -25 -25 -26 -41 -11 -18 19 -14 65 11 102 17 27 48 26 56 -1z"
       id="path3617" />
    <path
       d="M3908 14962 c-10 -2 -19 -11 -22 -20 -7 -26 -47 -213 -53 -247 -2 -16 -8 -46 -13 -65 -8 -30 -53 -256 -66 -330 -3 -14 -18 -88 -34 -165 -47 -230 -51 -247 -66 -325 -8 -41 -19 -91 -24 -110 -10 -40 -48 -230 -55 -275 -8 -55 -17 -90 -26 -100 -4 -6 -9 -32 -10 -58 -2 -26 -8 -51 -13 -56 -6 -5 -207 -9 -446 -9 -239 0 -446 -1 -460 -1 -20 -1 -26 -7 -28 -25 -1 -22 2 -24 51 -28 28 -2 246 -5 483 -7 371 -2 433 0 446 12 13 14 53 170 64 256 3 19 9 55 15 80 13 56 9 37 54 256 21 99 41 200 46 225 4 25 15 79 24 120 9 41 18 93 22 115 3 22 9 42 14 43 5 2 7 7 5 10 -2 4 2 39 10 77 8 39 16 84 19 100 4 29 20 105 30 151 18 78 48 224 52 249 2 17 9 39 14 50 10 20 16 20 449 17 389 -4 441 -2 446 11 3 9 1 23 -4 33 -9 16 -46 17 -458 18 -247 1 -457 0 -466 -2z"
       id="path3619" />
    <path
       d="M5310 14890 c-5 -3 -10 -11 -12 -19 -2 -11 23 -14 135 -16 76 -1 140 1 142 5 2 3 0 12 -5 20 -6 10 -38 14 -130 14 -67 1 -126 -1 -130 -4z"
       id="path3621" />
    <path
       d="M1523 13328 c-17 -6 -17 -7 0 -7 20 -1 21 -23 6 -91 -11 -53 -16 -79 -18 -101 0 -9 -11 -19 -23 -22 -45 -12 -4 -21 89 -20 52 1 97 4 99 6 2 2 7 19 10 38 l6 34 -30 -31 c-20 -20 -38 -30 -54 -28 -12 1 -31 3 -42 3 -16 1 -17 6 -11 39 4 20 11 43 17 50 17 19 38 14 38 -10 0 -36 21 -6 27 38 l5 39 -26 -24 c-33 -31 -40 -24 -37 41 2 47 82 51 101 5 8 -19 9 -17 9 14 l1 36 -75 -1 c-41 0 -82 -4 -92 -8z"
       id="path3623" />
    <path
       d="M2311 13311 c-53 -40 -66 -124 -30 -198 19 -39 24 -43 58 -43 28 0 43 7 61 28 21 23 24 38 25 98 0 79 -13 104 -64 122 -21 8 -33 6 -50 -7z m60 -17 c8 -10 13 -44 13 -94 0 -81 -12 -110 -44 -110 -38 0 -48 146 -13 195 21 29 26 30 44 9z"
       id="path3625" />
    <path
       d="M1840 13272 c0 -22 33 -29 153 -31 120 -3 129 -2 125 16 -3 16 -17 18 -141 21 -79 2 -137 -1 -137 -6z"
       id="path3627" />
    <path
       d="M1851 13173 c-28 -22 1 -28 133 -27 124 1 149 5 130 24 -15 15 -243 18 -263 3z"
       id="path3629" />
    <path
       d="M3758 11572 c-15 -3 -18 -15 -19 -70 -1 -37 -1 -70 0 -74 0 -4 1 -508 1 -1120 -1 -1217 0 -1333 4 -1363 2 -14 13 -22 39 -26 20 -3 41 -3 48 1 8 6 11 143 11 516 -1 1784 -3 2124 -13 2130 -13 8 -49 11 -71 6z"
       id="path3631" />
    <path
       d="M856 8609 c-43 -100 -31 -220 28 -269 12 -9 9 3 -9 41 -37 81 -33 175 13 256 14 26 15 33 3 33 -4 0 -20 -27 -35 -61z"
       id="path3633" />
    <path
       d="M1188 8664 c-4 -6 5 -34 19 -64 30 -62 29 -138 -2 -205 -33 -71 -34 -75 -26 -75 9 0 64 98 67 120 12 85 10 99 -20 166 -18 38 -35 64 -38 58z"
       id="path3635" />
    <path
       d="M5070 8570 c-62 -4 -72 -7 -56 -16 18 -11 19 -16 8 -65 -6 -30 -14 -66 -16 -82 -8 -50 -17 -67 -34 -67 -11 0 -13 -3 -6 -10 7 -7 49 -10 105 -8 l94 3 3 35 4 35 -22 -28 c-17 -21 -30 -27 -60 -27 -43 0 -50 9 -42 60 7 50 35 67 47 29 9 -28 22 -13 30 36 l7 40 -22 -23 c-12 -13 -27 -21 -33 -19 -15 5 -11 78 4 87 20 13 63 1 81 -22 l18 -23 0 27 c0 37 -21 44 -110 38z"
       id="path3637" />
    <path
       d="M1039 8552 c-48 -24 -74 -80 -59 -127 10 -30 16 -35 44 -35 23 0 41 9 61 30 33 34 26 40 -12 10 -39 -30 -63 -26 -63 10 0 35 22 94 40 105 7 5 21 -3 34 -20 25 -31 45 -20 27 14 -15 28 -35 31 -72 13z"
       id="path3639" />
    <path
       d="M5842 8545 c-12 -14 -19 -25 -16 -25 3 0 -4 -12 -16 -27 -29 -39 -70 -101 -70 -108 0 -3 21 -5 48 -3 41 3 47 0 50 -18 2 -13 -5 -24 -20 -32 -20 -9 -14 -11 37 -11 49 0 57 2 44 12 -19 15 -21 47 -2 47 7 0 13 7 13 15 0 8 -7 15 -15 15 -12 0 -15 16 -15 80 0 44 -4 80 -8 80 -5 0 -18 -11 -30 -25z m-9 -125 c-14 -13 -53 -22 -53 -12 0 6 12 29 28 52 l27 43 3 -38 c2 -21 0 -41 -5 -45z"
       id="path3641" />
    <path
       d="M5330 8503 c0 -16 13 -18 132 -18 118 0 133 2 136 18 3 15 -8 17 -132 17 -123 0 -136 -2 -136 -17z"
       id="path3643" />
    <path
       d="M6032 8512 c-35 -3 -45 -8 -57 -33 -18 -33 -15 -35 24 -14 16 8 31 11 35 8 7 -7 -3 -53 -14 -68 -5 -5 -11 -27 -15 -48 -7 -36 -6 -39 15 -35 20 2 26 13 39 72 22 98 40 98 34 1 -5 -76 -5 -77 18 -73 23 3 24 7 24 73 0 68 1 70 26 71 35 1 51 12 47 32 -3 14 -16 17 -68 17 -36 0 -84 -1 -108 -3z"
       id="path3645" />
    <path
       d="M6312 8475 c-53 -51 -58 -100 -15 -147 21 -23 75 -23 95 0 30 33 46 77 41 110 -4 25 -2 33 8 32 35 -5 50 1 47 18 -3 14 -15 17 -74 17 -65 0 -74 -2 -102 -30z m78 -44 c0 -22 -6 -44 -15 -51 -8 -7 -15 -18 -15 -24 0 -18 -40 -17 -47 0 -5 13 10 79 24 107 2 4 15 7 29 7 21 0 24 -4 24 -39z"
       id="path3647" />
    <path
       d="M3805 8490 l-40 -5 3 -874 c2 -701 0 -876 -10 -883 -7 -4 -195 -7 -418 -7 -223 0 -421 0 -442 -1 -34 0 -36 -2 -29 -26 l6 -25 188 -3 c102 -1 189 -4 191 -7 3 -3 31 -2 63 1 32 3 77 2 101 -1 24 -3 45 -2 48 3 3 5 9 6 15 3 17 -11 342 -7 349 5 3 5 5 187 3 403 -2 373 -4 953 -3 1231 l0 129 468 -4 467 -4 3 28 c2 17 -2 27 -10 28 -7 0 -168 3 -358 5 -190 2 -392 5 -450 7 -58 1 -123 0 -145 -3z"
       id="path3649" />
    <path
       d="M5418 8422 c-69 -2 -88 -6 -88 -17 0 -12 18 -15 93 -16 50 0 109 -2 131 -3 35 -1 59 15 43 30 -7 8 -71 10 -179 6z"
       id="path3651" />
    <path
       d="M1840 6818 c11 -11 18 -24 14 -29 -3 -6 -7 -20 -9 -32 -7 -66 -29 -143 -44 -154 -14 -11 -11 -13 19 -13 43 -2 164 1 166 3 1 1 5 18 9 37 l7 35 -27 -28 c-22 -23 -34 -28 -68 -25 -38 3 -42 5 -39 28 7 60 12 70 38 70 19 0 25 -4 20 -15 -3 -8 -2 -15 3 -15 10 0 21 34 21 64 0 18 -1 18 -18 3 -34 -31 -49 -22 -43 26 6 40 8 42 43 45 28 2 40 -2 52 -20 l16 -22 0 31 0 32 -90 -1 c-90 -1 -91 -1 -70 -20z"
       id="path3653" />
    <path
       d="M2623 6827 c-31 -13 -52 -67 -48 -123 3 -64 21 -100 56 -114 63 -27 104 21 104 122 0 56 -4 70 -23 91 -27 29 -59 37 -89 24z m64 -37 c17 -34 11 -156 -8 -176 -36 -35 -63 9 -62 101 2 95 39 136 70 75z"
       id="path3655" />
    <path
       d="M2162 6765 c3 -17 9 -20 43 -17 22 2 81 4 130 5 72 2 90 5 90 17 0 12 -22 15 -133 15 -127 0 -133 -1 -130 -20z"
       id="path3657" />
    <path
       d="M2237 6692 c-66 -2 -78 -5 -75 -19 3 -14 20 -16 121 -16 153 2 147 1 147 17 0 16 -68 23 -193 18z"
       id="path3659" />
    <path
       d="M4102 5234 c-8 -14 -12 -14 -30 -3 -17 10 -23 10 -36 0 -9 -8 -16 -22 -16 -32 0 -25 37 -35 60 -14 14 13 23 14 39 6 27 -15 29 -14 41 10 21 38 -37 71 -58 33z"
       id="path3661" />
    <path
       d="M3794 5206 c-10 -26 4 -48 28 -44 17 2 23 10 23 28 0 18 -6 26 -23 28 -13 2 -25 -3 -28 -12z"
       id="path3663" />
    <path
       d="M3451 5186 c-19 -23 -4 -56 25 -56 28 0 42 25 27 49 -14 22 -37 25 -52 7z"
       id="path3665" />
    <path
       d="M3916 5161 c-16 -17 -17 -23 -6 -36 7 -9 23 -15 34 -13 16 2 21 10 21 33 0 37 -24 44 -49 16z"
       id="path3667" />
    <path
       d="M4124 5155 c-10 -25 4 -45 31 -45 30 0 43 24 25 45 -16 19 -49 19 -56 0z"
       id="path3669" />
    <path
       d="M3652 5108 c-19 -19 -14 -37 14 -44 33 -8 53 10 38 34 -14 22 -36 26 -52 10z"
       id="path3671" />
    <path
       d="M4047 5059 c-9 -6 -17 -18 -17 -29 0 -22 37 -37 52 -22 7 7 18 6 33 -4 29 -19 55 -8 55 22 0 30 -21 40 -50 24 -17 -9 -25 -9 -38 3 -12 11 -22 13 -35 6z"
       id="path3673" />
    <path
       d="M3932 5008 c-31 -31 10 -75 43 -48 21 17 19 37 -4 50 -24 13 -24 13 -39 -2z"
       id="path3675" />
    <path
       d="M4122 4948 c-27 -27 5 -73 38 -53 16 10 12 52 -6 59 -20 8 -18 8 -32 -6z"
       id="path3677" />
    <path
       d="M4014 4936 c-10 -26 4 -48 28 -44 17 2 23 10 23 28 0 18 -6 26 -23 28 -13 2 -25 -3 -28 -12z"
       id="path3679" />
    <path
       d="M3851 4882 c-8 -15 -6 -23 9 -37 16 -15 22 -16 35 -5 9 7 15 23 13 34 -4 28 -43 34 -57 8z"
       id="path3681" />
    <path
       d="M3625 4876 c-14 -10 -15 -16 -6 -34 18 -34 51 -25 57 16 4 21 -31 33 -51 18z"
       id="path3683" />
    <path
       d="M4114 4855 c-10 -25 4 -45 30 -45 26 0 41 31 23 49 -16 16 -47 13 -53 -4z"
       id="path3685" />
    <path
       d="M4000 4841 c-12 -23 12 -54 35 -45 17 7 29 39 20 54 -10 17 -44 11 -55 -9z"
       id="path3687" />
    <path
       d="M3417 4833 c-26 -7 -19 -57 9 -61 28 -4 51 24 38 46 -12 18 -22 21 -47 15z"
       id="path3689" />
    <path
       d="M3892 4793 c2 -22 9 -29 31 -31 26 -3 28 -1 25 25 -2 22 -9 29 -31 31 -26 3 -28 1 -25 -25z"
       id="path3691" />
    <path
       d="M4044 4758 c-7 -22 19 -52 40 -45 17 6 29 34 23 51 -10 24 -54 21 -63 -6z"
       id="path3693" />
    <path
       d="M4134 4756 c-15 -12 -17 -18 -8 -33 14 -23 41 -28 59 -13 19 16 19 25 -1 44 -19 20 -25 20 -50 2z"
       id="path3695" />
    <path
       d="M3967 4696 c-11 -28 4 -47 32 -44 20 2 26 8 26 28 0 20 -6 26 -26 28 -17 2 -29 -3 -32 -12z"
       id="path3697" />
    <path
       d="M4067 4674 c-13 -13 -7 -52 8 -58 27 -10 46 5 43 33 -3 26 -35 41 -51 25z"
       id="path3699" />
    <path
       d="M3593 4632 c-26 -4 -31 -33 -8 -52 17 -15 43 -7 52 16 8 21 -16 41 -44 36z"
       id="path3701" />
    <path
       d="M3802 4573 c4 -36 52 -46 63 -14 9 29 -1 41 -36 41 -27 0 -30 -3 -27 -27z"
       id="path3703" />
    <path
       d="M3952 4581 c-18 -11 -12 -41 10 -55 14 -8 22 -7 35 7 29 29 -10 71 -45 48z"
       id="path3705" />
    <path
       d="M4106 4554 c-12 -12 -13 -20 -6 -35 11 -20 19 -23 44 -13 30 12 14 64 -19 64 -2 0 -11 -7 -19 -16z"
       id="path3707" />
    <path
       d="M4047 4474 c-23 -23 7 -69 37 -58 25 10 17 58 -9 62 -12 2 -24 0 -28 -4z"
       id="path3709" />
    <path
       d="M3891 4431 c-20 -13 -6 -61 19 -61 29 0 44 34 24 54 -18 18 -24 19 -43 7z"
       id="path3711" />
    <path
       d="M4124 4395 c-15 -11 -17 -17 -8 -32 21 -34 63 -25 64 14 0 22 -35 34 -56 18z"
       id="path3713" />
    <path
       d="M3597 4314 c-13 -13 -7 -55 8 -60 21 -9 47 15 43 40 -3 21 -37 34 -51 20z"
       id="path3715" />
    <path
       d="M3975 4304 c-18 -18 -16 -33 7 -47 21 -14 48 -2 48 22 0 30 -34 45 -55 25z"
       id="path3717" />
    <path
       d="M3844 4258 c-7 -22 19 -52 40 -45 17 6 29 34 23 51 -10 24 -54 21 -63 -6z"
       id="path3719" />
    <path
       d="M4065 4270 c-14 -23 6 -50 36 -50 27 0 30 3 27 28 -2 21 -9 28 -30 30 -14 2 -29 -2 -33 -8z"
       id="path3721" />
    <path
       d="M3982 4213 c-13 -24 3 -53 29 -53 24 0 36 27 22 49 -15 23 -40 25 -51 4z"
       id="path3723" />
    <path
       d="M4131 4216 c-17 -20 3 -56 30 -56 24 0 36 27 22 49 -14 22 -37 25 -52 7z"
       id="path3725" />
    <path
       d="M3434 4206 c-11 -28 4 -48 33 -44 22 2 28 8 28 28 0 20 -6 26 -28 28 -18 2 -29 -2 -33 -12z"
       id="path3727" />
    <path
       d="M4083 4153 c-21 -8 -16 -54 7 -60 11 -3 20 -13 20 -22 0 -20 19 -41 37 -41 7 0 18 10 24 22 10 18 8 24 -10 39 -11 9 -21 24 -21 33 0 13 -30 38 -42 35 -2 0 -9 -3 -15 -6z"
       id="path3729" />
    <path
       d="M3805 4130 c-9 -14 3 -47 20 -54 19 -7 44 19 41 41 -3 20 -50 30 -61 13z"
       id="path3731" />
    <path
       d="M3942 4108 c-18 -18 -15 -36 9 -48 15 -9 24 -8 35 1 18 15 18 24 -2 43 -19 19 -26 20 -42 4z"
       id="path3733" />
    <path
       d="M3703 4023 c-7 -2 -13 -15 -13 -28 0 -28 34 -43 55 -25 19 16 19 25 -1 44 -16 17 -21 18 -41 9z"
       id="path3735" />
    <path
       d="M4054 3986 c-11 -29 1 -51 26 -51 19 0 26 6 28 24 5 35 -42 58 -54 27z"
       id="path3737" />
    <path
       d="M3437 3963 c-27 -7 -19 -57 10 -61 30 -4 49 31 27 52 -8 9 -16 15 -17 15 -1 -1 -10 -3 -20 -6z"
       id="path3739" />
    <path
       d="M3937 3964 c-13 -13 -7 -52 9 -58 22 -9 46 13 42 38 -3 21 -37 34 -51 20z"
       id="path3741" />
    <path
       d="M4030 3905 c-19 -23 0 -51 33 -48 17 1 28 -6 36 -23 17 -38 56 -30 56 11 0 27 -3 30 -31 29 -22 -1 -33 4 -40 20 -12 27 -37 32 -54 11z"
       id="path3743" />
    <path
       d="M3986 3807 c-26 -19 -17 -51 15 -55 32 -4 46 30 22 53 -18 18 -15 18 -37 2z"
       id="path3745" />
    <path
       d="M4111 3758 c-10 -27 3 -48 31 -48 23 0 35 27 21 49 -16 25 -42 25 -52 -1z"
       id="path3747" />
    <path
       d="M3495 3720 c-3 -5 -3 -19 0 -31 10 -31 60 -23 60 11 0 20 -6 26 -27 28 -14 2 -29 -2 -33 -8z"
       id="path3749" />
    <path
       d="M4056 3684 c-9 -8 -16 -19 -16 -24 0 -5 -10 -10 -22 -12 -18 -2 -23 -10 -23 -33 0 -41 39 -49 57 -11 6 14 19 26 29 26 28 0 43 35 23 54 -19 20 -29 20 -48 0z"
       id="path3751" />
    <path
       d="M3893 3664 c-7 -18 6 -45 24 -51 6 -2 18 3 27 12 12 12 13 21 6 36 -13 23 -48 25 -57 3z"
       id="path3753" />
    <path
       d="M4106 3554 c-10 -9 -15 -23 -12 -31 3 -8 6 -17 6 -19 0 -2 11 -4 25 -4 29 0 43 25 28 48 -14 23 -29 25 -47 6z"
       id="path3755" />
    <path
       d="M3824 3515 c-10 -25 4 -45 30 -45 26 0 41 31 23 49 -16 16 -47 13 -53 -4z"
       id="path3757" />
    <path
       d="M3961 3516 c-21 -25 0 -52 38 -46 7 1 24 -8 36 -20 28 -26 59 -23 63 6 4 29 -22 54 -49 47 -14 -4 -25 0 -31 11 -11 20 -41 21 -57 2z"
       id="path3759" />
    <path
       d="M4107 3434 c-23 -23 7 -69 37 -58 25 10 17 58 -9 62 -12 2 -24 0 -28 -4z"
       id="path3761" />
    <path
       d="M3994 3376 c-10 -26 4 -46 31 -46 23 0 26 4 23 28 -3 31 -44 45 -54 18z"
       id="path3763" />
    <path
       d="M4102 3317 c-9 -10 -8 -19 4 -35 12 -18 19 -20 35 -11 26 14 22 53 -7 57 -11 2 -26 -3 -32 -11z"
       id="path3765" />
    <path
       d="M3392 3301 c-25 -16 -10 -46 23 -46 25 0 30 4 30 25 0 27 -28 38 -53 21z"
       id="path3767" />
    <path
       d="M3882 3299 c-26 -10 -26 -36 -1 -52 24 -15 49 -1 49 27 0 28 -16 37 -48 25z"
       id="path3769" />
    <path
       d="M3670 3255 c-14 -17 -7 -43 15 -51 19 -8 45 13 45 36 0 16 -18 30 -40 30 -4 0 -13 -7 -20 -15z"
       id="path3771" />
    <path
       d="M3996 3224 c-20 -19 -20 -28 -1 -44 19 -16 55 -3 55 20 0 29 -35 44 -54 24z"
       id="path3773" />
    <path
       d="M4093 3163 c-20 -7 -15 -41 6 -53 28 -14 55 13 41 41 -11 19 -23 22 -47 12z"
       id="path3775" />
    <path
       d="M3979 3074 c-16 -20 -1 -48 29 -52 16 -3 23 3 28 23 10 41 -30 61 -57 29z"
       id="path3777" />
    <path
       d="M4104 3066 c-10 -26 4 -46 31 -46 23 0 26 4 23 28 -3 31 -44 45 -54 18z"
       id="path3779" />
    <path
       d="M3893 3013 c-20 -7 -15 -41 6 -53 27 -14 30 -13 40 13 13 35 -10 55 -46 40z"
       id="path3781" />
    <path
       d="M3997 2954 c-23 -23 7 -69 37 -58 25 10 17 58 -9 62 -12 2 -24 0 -28 -4z"
       id="path3783" />
    <path
       d="M4083 2954 c-18 -8 -16 -39 3 -55 21 -17 49 0 49 32 0 24 -24 34 -52 23z"
       id="path3785" />
    <path
       d="M3716 2934 c-12 -12 -13 -20 -6 -35 11 -20 19 -23 44 -13 30 12 14 64 -19 64 -2 0 -11 -7 -19 -16z"
       id="path3787" />
    <path
       d="M3410 2865 c-17 -21 -2 -50 26 -50 14 0 19 7 19 30 0 34 -24 45 -45 20z"
       id="path3789" />
    <path
       d="M4107 2874 c-13 -13 -7 -52 9 -58 22 -9 46 13 42 38 -3 21 -37 34 -51 20z"
       id="path3791" />
    <path
       d="M3845 2846 c-22 -16 -12 -56 14 -56 20 0 41 19 41 37 0 21 -35 34 -55 19z"
       id="path3793" />
    <path
       d="M3954 2826 c-16 -43 15 -69 51 -42 16 12 18 18 9 33 -14 23 -52 29 -60 9z"
       id="path3795" />
    <path
       d="M916 2753 c-48 -99 -45 -190 11 -257 l24 -29 -7 29 c-4 16 -13 39 -21 51 -29 44 -16 151 28 235 11 22 11 28 1 28 -4 0 -20 -25 -36 -57z"
       id="path3797" />
    <path
       d="M1167 2803 c-16 -4 -17 -6 -3 -16 13 -10 14 -19 5 -49 -8 -31 -14 -38 -35 -38 -31 0 -81 -28 -90 -49 -21 -50 -22 -81 -3 -105 18 -23 21 -24 49 -9 27 13 32 13 46 -2 15 -15 19 -14 45 11 16 15 26 31 23 36 -3 5 -14 -2 -24 -14 -26 -31 -26 -11 1 77 38 132 41 148 27 156 -7 5 -15 8 -18 8 -3 -1 -13 -3 -23 -6z m-26 -135 c1 -7 0 -17 -1 -23 -1 -5 -2 -18 -3 -28 -2 -21 -41 -67 -57 -67 -30 0 -14 101 19 120 23 13 41 12 42 -2z"
       id="path3799" />
    <path
       d="M1297 2749 c33 -68 29 -159 -9 -236 -26 -53 -25 -72 1 -30 66 102 75 176 34 257 -36 69 -59 78 -26 9z"
       id="path3801" />
    <path
       d="M4057 2783 c-11 -10 -8 -51 3 -58 20 -12 50 6 50 30 0 27 -35 46 -53 28z"
       id="path3803" />
    <path
       d="M4114 2705 c-10 -25 4 -45 30 -45 28 0 37 17 24 43 -11 21 -46 23 -54 2z"
       id="path3805" />
    <path
       d="M3835 2676 c-22 -16 -15 -50 11 -54 25 -4 47 19 38 41 -8 22 -29 28 -49 13z"
       id="path3807" />
    <path
       d="M3667 2674 c-12 -13 -8 -52 7 -57 21 -8 49 16 44 39 -3 19 -38 31 -51 18z"
       id="path3809" />
    <path
       d="M3972 2664 c-23 -41 22 -78 53 -44 13 15 14 23 5 39 -13 25 -45 28 -58 5z"
       id="path3811" />
    <path
       d="M3403 2654 c-8 -22 9 -49 33 -49 30 0 27 59 -4 63 -14 2 -25 -3 -29 -14z"
       id="path3813" />
    <path
       d="M5405 2220 c-16 -4 -56 -4 -87 -2 -58 4 -74 -2 -40 -16 18 -7 18 -10 -1 -109 -13 -72 -23 -103 -33 -103 -8 0 -14 -5 -14 -10 0 -7 35 -10 97 -8 96 3 98 3 107 30 14 39 0 46 -25 15 -25 -33 -95 -39 -101 -9 -6 30 4 70 18 76 18 7 45 -4 38 -15 -3 -5 -1 -9 5 -9 6 0 13 12 17 28 3 15 7 32 9 39 7 22 -11 23 -29 2 -30 -36 -46 -15 -31 41 2 8 4 18 4 23 1 4 16 7 35 7 24 0 39 -7 49 -21 18 -25 29 -12 19 22 -6 21 -11 24 -37 19z"
       id="path3815" />
    <path
       d="M6098 2190 c-9 -10 -21 -27 -27 -38 -5 -10 -26 -38 -46 -61 -48 -58 -46 -71 11 -71 41 0 45 -2 42 -22 -2 -13 -9 -22 -16 -20 -6 1 -12 -4 -12 -11 0 -8 17 -12 53 -11 28 0 51 4 50 10 -2 5 -9 9 -15 9 -7 0 -15 11 -16 24 -3 18 0 22 11 18 9 -3 18 1 21 10 4 9 -1 17 -14 20 -18 5 -19 12 -16 79 4 80 -1 94 -26 64z m-14 -97 c-1 -21 -3 -41 -3 -45 -1 -4 -13 -5 -28 -3 -27 3 -34 25 -12 33 5 2 9 9 9 16 0 12 19 36 30 36 3 0 5 -17 4 -37z"
       id="path3817" />
    <path
       d="M6273 2160 c-21 -9 -49 -47 -40 -56 2 -2 17 2 33 11 44 23 51 4 21 -64 -22 -51 -24 -61 -11 -71 24 -21 43 6 50 71 6 54 26 91 41 76 3 -4 0 -34 -7 -67 -11 -54 -11 -63 3 -77 23 -23 39 -6 36 41 -4 87 -1 96 29 96 35 0 56 14 50 32 -7 17 -169 23 -205 8z"
       id="path3819" />
    <path
       d="M6627 2160 c-37 -7 -83 -52 -90 -89 -4 -17 -2 -43 4 -60 12 -35 55 -49 98 -31 34 14 64 73 59 116 -3 25 1 29 25 32 15 2 27 8 27 13 0 5 1 12 3 16 2 8 -87 10 -126 3z m29 -56 c5 -30 -35 -104 -56 -104 -35 0 -36 73 -2 112 19 22 54 17 58 -8z"
       id="path3821" />
    <path
       d="M5596 2145 c-5 -13 13 -15 124 -15 72 0 133 -1 138 -2 4 -1 8 6 10 15 3 15 -11 17 -131 17 -111 0 -136 -3 -141 -15z"
       id="path3823" />
    <path
       d="M4169 2116 c-11 -7 -28 -72 -53 -191 -48 -241 -62 -302 -77 -355 -7 -25 -13 -47 -14 -50 -1 -4 -23 -99 -31 -135 -1 -5 -12 -44 -24 -85 -12 -41 -26 -91 -31 -110 -6 -19 -14 -44 -19 -55 -9 -22 -19 -52 -20 -60 0 -6 -38 -113 -50 -140 -4 -11 -16 -40 -25 -65 -38 -103 -88 -203 -125 -255 -16 -22 -41 -57 -55 -77 -28 -42 -114 -109 -169 -132 -20 -8 -36 -13 -36 -10 0 3 -10 -1 -22 -7 -14 -7 -72 -11 -167 -10 -80 2 -299 3 -486 4 l-340 2 -3 -24 c-4 -28 14 -42 46 -36 13 2 44 0 68 -4 24 -5 46 -6 48 -2 2 3 172 4 378 1 357 -5 469 -1 513 19 11 5 40 17 65 27 65 27 186 152 230 237 19 38 41 73 47 79 7 6 13 19 13 29 0 10 5 21 10 24 6 3 10 13 10 22 0 9 6 24 13 32 8 9 47 117 87 241 40 124 75 232 78 240 3 8 6 20 7 25 14 58 37 143 42 155 3 8 7 22 8 30 1 8 12 58 25 110 12 52 24 104 26 115 2 11 8 40 14 65 13 52 18 74 26 115 3 17 9 48 14 70 5 22 10 55 10 73 0 18 6 33 13 34 6 1 212 2 456 2 l444 1 4 28 4 27 -193 1 c-106 0 -317 2 -468 4 -197 2 -280 0 -291 -9z"
       id="path3825" />
    <path
       d="M5590 2055 c0 -8 1 -15 3 -15 1 -1 64 -3 140 -7 118 -5 137 -3 137 10 0 22 -12 24 -152 26 -110 2 -128 0 -128 -14z"
       id="path3827" />
    <path
       d="M1393 528 c-4 -8 4 -12 20 -9 10 1 8 -46 -4 -99 -16 -68 -17 -74 -18 -92 -1 -10 -8 -18 -16 -18 -8 0 -15 -5 -15 -10 0 -7 35 -10 97 -8 95 3 97 3 104 30 10 37 0 42 -23 13 -15 -19 -29 -25 -58 -25 -45 0 -53 14 -39 64 11 41 35 47 48 14 9 -22 9 -22 16 -3 4 11 10 30 15 42 12 30 1 35 -28 12 -34 -27 -46 -12 -32 40 9 36 14 41 40 41 29 0 60 -22 60 -43 0 -8 3 -8 9 1 4 7 6 24 4 37 -5 22 -8 23 -90 21 -47 0 -87 -4 -90 -8z"
       id="path3829" />
    <path
       d="M2202 519 c-33 -12 -62 -67 -62 -117 0 -96 69 -155 129 -108 40 31 48 145 13 192 -26 36 -48 45 -80 33z m49 -31 c18 -34 14 -156 -6 -178 -22 -24 -41 -16 -54 22 -13 35 -15 121 -3 132 4 4 8 12 8 17 1 5 2 14 3 19 2 19 40 10 52 -12z"
       id="path3831" />
    <path
       d="M1720 465 c0 -18 -8 -17 143 -19 119 -1 145 3 133 22 -4 6 -60 11 -141 11 -114 1 -135 -1 -135 -14z"
       id="path3833" />
    <path
       d="M1726 383 c-3 -3 -6 -12 -6 -20 0 -10 29 -13 134 -13 80 0 137 4 141 10 3 6 0 12 -7 14 -24 8 -255 16 -262 9z"
       id="path3835" />
  </g>
</svg>
