<?xml version="1.0" encoding="UTF-8" standalone="no"?>
<svg
   xmlns:dc="http://purl.org/dc/elements/1.1/"
   xmlns:cc="http://creativecommons.org/ns#"
   xmlns:rdf="http://www.w3.org/1999/02/22-rdf-syntax-ns#"
   xmlns:svg="http://www.w3.org/2000/svg"
   xmlns="http://www.w3.org/2000/svg"
   xmlns:xlink="http://www.w3.org/1999/xlink"
   xmlns:sodipodi="http://sodipodi.sourceforge.net/DTD/sodipodi-0.dtd"
   xmlns:inkscape="http://www.inkscape.org/namespaces/inkscape"
   version="1.0"
   width="200.880000pt"
   height="138.240000pt"
   viewBox="0 0 200.880000 138.240000"
   preserveAspectRatio="xMidYMid meet"
   id="svg3011"
   sodipodi:docname="black.svg">
  <defs
     id="defs3141">
    <marker
       inkscape:stockid="Arrow2Mend"
       orient="auto"
       refY="0.0"
       refX="0.0"
       id="Arrow2Mend"
       style="overflow:visible;">
      <path
         id="path4148"
         style="fill-rule:evenodd;stroke-width:0.62500000;stroke-linejoin:round;"
         d="M 8.7185878,4.0337352 L -2.2072895,0.016013256 L 8.7185884,-4.0017078 C 6.9730900,-1.6296469 6.9831476,1.6157441 8.7185878,4.0337352 z "
         transform="scale(0.6) rotate(180) translate(0,0)" />
    </marker>
    <marker
       inkscape:stockid="Arrow2Mend"
       orient="auto"
       refY="0"
       refX="0"
       id="Arrow2Mend-3"
       style="overflow:visible">
      <path
         inkscape:connector-curvature="0"
         id="path4148-1"
         style="fill-rule:evenodd;stroke-width:0.625;stroke-linejoin:round"
         d="M 8.7185878,4.0337352 -2.2072895,0.01601326 8.7185884,-4.0017078 c -1.7454984,2.3720609 -1.7354408,5.6174519 -6e-7,8.035443 z"
         transform="scale(-0.6,-0.6)" />
    </marker>
    <marker
       inkscape:stockid="Arrow2Mend"
       orient="auto"
       refY="0"
       refX="0"
       id="Arrow2Mend-8"
       style="overflow:visible">
      <path
         inkscape:connector-curvature="0"
         id="path4148-5"
         style="fill-rule:evenodd;stroke-width:0.625;stroke-linejoin:round"
         d="M 8.7185878,4.0337352 -2.2072895,0.01601326 8.7185884,-4.0017078 c -1.7454984,2.3720609 -1.7354408,5.6174519 -6e-7,8.035443 z"
         transform="scale(-0.6,-0.6)" />
    </marker>
  </defs>
  <sodipodi:namedview
     pagecolor="#ffffff"
     bordercolor="#666666"
     borderopacity="1"
     objecttolerance="10"
     gridtolerance="10"
     guidetolerance="10"
     inkscape:pageopacity="0"
     inkscape:pageshadow="2"
     inkscape:window-width="1280"
     inkscape:window-height="996"
     id="namedview3139"
     showgrid="false"
     inkscape:zoom="1.9488285"
     inkscape:cx="138.41532"
     inkscape:cy="74.264875"
     inkscape:window-x="0"
     inkscape:window-y="0"
     inkscape:window-maximized="1"
     inkscape:current-layer="svg3011" />
  <metadata
     id="metadata3013">
Created by potrace 1.10, written by Peter Selinger 2001-2011
<rdf:RDF>
  <cc:Work
     rdf:about="">
    <dc:format>image/svg+xml</dc:format>
    <dc:type
       rdf:resource="http://purl.org/dc/dcmitype/StillImage" />
  </cc:Work>
</rdf:RDF>
</metadata>
  <rect
     style="fill:#b9b9b9;fill-opacity:1;stroke:none"
     id="rect4812"
     width="222.51968"
     height="157.09981"
     x="0.00011971665"
     y="-0.011302148" />
  <image
     width="200.87999"
     height="138.23999"
     xlink:href="charged-balloon-shaded.jpg"
     id="image3151"
     x="-6.6757201e-07"
     y="9.7656248e-06" />
  <path
     style="fill:#b9b9b9;stroke:none"
     d="m -6.6757204e-7,-0.0100001 0,69.1249991 L 0.02499933,138.24 100.45,138.24 l 100.425,0 0,-69.125001 0,-69.1249991 -100.425,0 -100.45000066757204,0 z M 108.4,26.04 c 0.8415,0.02925 2.697,0.198 4.875,0.45 4.104,0.48 4.245,0.515 7.725,1.475 1.704,0.48 3.179,0.797 3.275,0.725 0.12,-0.072 0.516,0.164 0.9,0.5 0.36,0.312 0.782,0.575 0.95,0.575 0.144,0 1.146,0.422 2.25,0.95 1.08,0.528 2.105,0.95 2.225,0.95 0.144,0 0.384,0.184 0.6,0.4 0.216,0.192 0.532,0.297 0.7,0.225 0.192,-0.072 0.35,0.033 0.35,0.225 0,0.192 0.08,0.35 0.2,0.35 0.24,0 4.046,2.521 4.55,3.025 0.168,0.191999 0.43,0.349999 0.55,0.349999 0.12,0 0.41,0.184 0.65,0.4 1.824,1.776 4.422,3.934 4.95,4.15 0.36,0.12 0.625,0.411 0.625,0.675 0,0.264 0.21,0.687 0.45,0.975 0.264,0.288 0.819,0.998 1.275,1.55 0.432,0.552 1.143,1.369 1.575,1.825 0.408,0.456 0.775,0.957 0.775,1.125 0,0.168 0.132,0.457 0.3,0.625 0.168,0.168 0.774,1.116 1.35,2.1 0.576,0.984 1.26,2.09 1.5,2.45 0.264,0.36 0.45,0.728 0.45,0.8 0,0.048 0.606,1.548 1.35,3.3 1.248,2.904 2.611,7.174 2.875,8.95 0.048,0.384 0.259,1.886 0.475,3.35 0.216,1.44 0.481,2.835 0.625,3.075 0.12,0.216 0.146,0.532 0.05,0.7 -0.096,0.144 -0.149,1.488 -0.125,3 0.024,1.824 -0.058,2.884 -0.25,3.1 -0.168,0.192 -0.169,0.325 -0.025,0.325 0.24,0 0.239,1.728 -0.025,2.4 -0.24,0.648 -1.296,7.082 -1.2,7.25 0.072,0.12 0.02,0.2 -0.1,0.2 -0.12,0 -0.332,0.448 -0.5,1 -0.168,0.576 -0.641,1.867 -1.025,2.875 -0.384,1.032 -0.726,2.139 -0.75,2.475 -0.024,0.336 -0.129,0.6 -0.225,0.6 -0.12,0 -0.305,0.264 -0.425,0.600001 -0.12,0.312 -0.648,1.34 -1.2,2.3 -0.528,0.936 -0.975,1.805 -0.975,1.925 0,0.096 -0.948,1.542 -2.1,3.15 -1.176,1.632 -2.335,3.317 -2.575,3.725 -0.264,0.432 -0.555,0.775 -0.675,0.775 -0.24,0 -3.275,3.185 -3.275,3.425 0,0.096 -0.42,0.438 -0.9,0.75 -0.504,0.312 -1.164,0.812 -1.5,1.1 -0.336,0.288 -1.073,0.867 -1.625,1.275 -0.576,0.408 -1.025,0.882 -1.025,1.05 0,0.24 -1.367,1.05 -1.775,1.05 -0.072,0 -0.521,0.289 -1.025,0.625 -0.504,0.336 -1.662,0.969 -2.55,1.425 -0.912,0.456 -1.731,1.063 -1.875,1.375 -0.192,0.408 -0.486,0.552 -1.35,0.6 -1.104,0.048 -4.601,1.264 -6.425,2.2 -0.504,0.264 -1.16,0.422 -1.4,0.35 -0.6,-0.192 -5.019,0.616 -5.475,1 -0.264,0.24 -0.796,0.297 -1.9,0.225 -3.192,-0.264 -5.174,-0.291 -5.75,-0.075 -0.624,0.24 -0.779,0.287 -2.075,0.575 -0.624,0.12 -0.8,0.064 -0.8,-0.2 0,-0.432 -4.320002,-1.186 -8.400002,-1.45 -0.336,-0.024 -0.758,-0.234 -0.95,-0.45 -0.36,-0.408 -2.986,-1.356 -5.65,-2.1 -0.792,-0.216 -1.819,-0.664 -2.275,-1 -0.456,-0.36 -1.298,-0.862 -1.85,-1.15 -0.576,-0.288 -1.55,-0.841 -2.15,-1.225 -0.624,-0.384 -1.204,-0.647 -1.3,-0.575 -0.36,0.216 -1.9,-0.692 -1.9,-1.1 0,-0.24 -0.473,-0.767 -1.025,-1.175 -0.576,-0.408 -1.658,-1.33 -2.45,-2.05 -0.792,-0.744 -1.661,-1.428 -1.925,-1.5 -0.696,-0.24 -1.746,-1.138 -1.65,-1.45 0.072,-0.216 -0.429,-0.9 -2.925,-3.9 -0.264,-0.312 -0.661,-0.734 -0.925,-0.95 -0.984,-0.84 -1.35,-1.346 -1.35,-1.85 0,-0.312 -0.081,-0.628 -0.225,-0.7 -0.12,-0.072 -0.619999,-0.887 -1.099999,-1.775 -0.48,-0.912 -1.06,-1.861 -1.3,-2.125 -0.672,-0.696 -2.696,-6.158001 -2.6,-6.950001 0.072,-0.672 0.105,-0.678 2.025,-0.75 1.728,-0.048 1.979,-0.117 2.075,-0.525 0.168,-0.624 0.649999,-0.624 0.649999,0 0,0.264 0.105,0.475 0.225,0.475 0.096,0 0.596,0.999 1.1,2.175 1.128,2.712 3.617,7.045001 4.625,8.125001 0.168,0.192 0.509,0.639 0.725,0.975 0.672,1.032 1.25,1.676 3.65,4.1 -4.867016,-4.94431 -8.567824,-11.042897 -10.699999,-17.825001 0.01416,0.117992 0.025,0.230272 0.025,0.35 0,0.528 -0.142,0.675 -0.55,0.675 -0.288,0 -0.553,-0.157 -0.625,-0.325 -0.072,-0.192 -0.242,-0.135 -0.65,0.225 -1.632,1.392 -2.942,1.71 -3.35,0.75 -0.12,-0.288 -0.489,-1.604 -0.825,-2.9 -0.312,-1.32 -0.732,-2.48 -0.9,-2.6 -0.168,-0.096 -0.221,-0.2 -0.125,-0.2 0.096,0 0.069,-0.212 -0.075,-0.5 -0.192,-0.336 -0.193,-0.584 -0.025,-0.8 0.384,-0.48 -0.145,-5.19 -0.625,-5.55 -0.312,-0.192 -0.291,-0.367 -0.075,-0.775 0.144,-0.288 0.196,-0.525 0.1,-0.525 -0.072,0 -0.019,-0.157 0.125,-0.325 0.264,-0.336 0.439,-6.893 0.175,-7.325 -0.096,-0.12 0.008,-0.33 0.2,-0.45 0.288,-0.168 1.423,-4.711 1.375,-5.575 0,-0.456 0.368,-1.815 0.8,-2.775 0.168,-0.408 0.562,-1.488 0.85,-2.4 0.576,-1.8 0.575,-1.765 2.375,-5.125 0.672,-1.248 1.225,-2.538 1.225,-2.85 0,-0.336 0.186,-0.605 0.45,-0.725 0.407999,-0.144 3.149999,-3.69 3.149999,-4.05 0,-0.168 0.151,-0.328 2.575,-2.8 1.08,-1.104 1.975,-2.078 1.975,-2.15 0,-0.24 1.077,-1.239 1.725,-1.575 0.336,-0.192 0.863,-0.562 1.175,-0.85 0.312,-0.288 0.969,-0.788 1.425,-1.099999 0.456,-0.336 1.063,-0.836 1.375,-1.1 0.624,-0.528 2.475,-1.626 4.875,-2.85 0.864,-0.456 1.707,-0.984 1.875,-1.2 0.192,-0.216 0.509,-0.375 0.725,-0.375 0.24,0 1.717,-0.475 3.325,-1.075 1.608,-0.6 3.188,-1.1 3.5,-1.1 0.312,0 0.631,-0.08 0.775,-0.2 0.192,-0.192 3.878,-1.087 5.750002,-1.375 0.408,-0.072 2.227,-0.203 4.075,-0.275 1.848,-0.072 3.376,-0.126 3.4,-0.15 0.03,-0.024 0.19449,-0.03475 0.475,-0.025 z M 64.374999,72.189999 c -0.06298,0.08339 -0.06363,0.799698 -0.05,1.725 0.01011,-0.573866 0.0183,-1.156646 0.05,-1.725 z m 0.25,7.825 c 0.05685,0.652744 0.114688,1.24588 0.175,1.625 0.0909,0.5734 0.247352,1.283864 0.4,2 -0.24408,-1.1928 -0.428712,-2.399432 -0.575,-3.625 z m 0.575,3.625 c 0.163224,0.765744 0.332192,1.490712 0.5,2.15 -0.182424,-0.709024 -0.3522,-1.427728 -0.5,-2.15 z m 0.5,2.15 c 0.16212,0.636928 0.296184,1.093104 0.4,1.375 -0.13416,-0.458856 -0.280392,-0.91012 -0.4,-1.375 z M 78.824998,107.565 c 1.89032,1.79651 3.294856,2.91501 5.175,4.125 0.6,0.384 1.364,0.885 1.7,1.125 0.912,0.624 3.667,1.965 5.875,2.925 2.554712,1.08903 5.307248,1.90414 8.15,2.45 -7.944992,-1.62579 -15.120248,-5.37185 -20.9,-10.625 z m 20.9,10.625 c 0.645222,0.12389 1.296812,0.22987 1.950002,0.325 -0.64951,-0.10307 -1.31021,-0.19408 -1.950002,-0.325 z"
     id="path8"
     inkscape:connector-curvature="0" />
  <path
     style="fill:#000000;stroke:none"
     inkscape:connector-curvature="0"
     id="path3017"
     d="m 141.648,22.392 c -0.288,0.312 -0.528,0.648 -0.528,0.792 0,0.12 -0.384,0.696 -0.84,1.272 -0.456,0.576 -0.84,1.176 -0.84,1.344 0,0.144 -0.36,0.696 -0.816,1.224 -0.432,0.504 -1.032,1.392 -1.296,1.944 -0.768,1.512 -1.104,1.584 -0.936,0.216 0.096,-0.72 0.072,-1.08 -0.072,-0.984 -0.144,0.072 -0.24,0.264 -0.24,0.432 0,0.408 -1.152,4.08 -1.416,4.464 -0.192,0.288 -0.36,0.264 -1.152,-0.096 -0.504,-0.24 -0.984,-0.48 -1.08,-0.528 -0.12,-0.048 -0.192,0 -0.192,0.12 0,0.12 0.288,0.36 0.672,0.552 0.36,0.168 1.32,0.792 2.16,1.368 0.84,0.576 1.584,0.984 1.68,0.888 0.192,-0.168 -0.888,-1.056 -1.32,-1.08 -0.552,0 -0.576,-0.504 -0.096,-1.272 0.264,-0.408 0.672,-0.936 0.912,-1.128 1.272,-1.056 1.824,-1.416 2.016,-1.296 0.12,0.072 0.216,-0.048 0.216,-0.264 0,-0.336 -0.072,-0.336 -0.72,0 -0.384,0.216 -0.72,0.312 -0.72,0.24 0,-0.168 0.456,-0.936 3.288,-5.4 2.112,-3.312 2.4,-3.96 1.32,-2.808 z" />
  <path
     style="fill:#000000;stroke:none"
     inkscape:connector-curvature="0"
     id="path3019"
     d="m 102.912,25.872 c -0.384,0.048 -0.672,0.168 -0.672,0.264 0,0.264 5.592,0.024 5.88,-0.264 0.216,-0.216 -3.48,-0.216 -5.208,0 z" />
  <path
     style="fill:#000000;stroke:none"
     inkscape:connector-curvature="0"
     id="path3021"
     d="m 109.92,25.872 c 0,0.216 0.672,0.312 4.32,0.672 1.656,0.144 1.128,-0.264 -0.6,-0.48 -2.856,-0.36 -3.72,-0.384 -3.72,-0.192 z" />
  <path
     style="fill:#000000;stroke:none"
     inkscape:connector-curvature="0"
     id="path3023"
     d="m 98.04,26.568 c -1.056,0.192 -2.232,0.528 -2.64,0.72 l -0.72,0.336 0.72,-0.096 c 2.208,-0.336 4.92,-0.96 4.92,-1.152 0,-0.264 0.144,-0.264 -2.28,0.192 z" />
  <path
     style="fill:#000000;stroke:none"
     inkscape:connector-curvature="0"
     id="path3025"
     d="m 117.12,26.832 c 0,0.216 5.808,1.776 5.952,1.608 0.216,-0.216 -0.096,-0.36 -2.136,-0.96 -2.184,-0.624 -3.816,-0.912 -3.816,-0.648 z" />
  <path
     style="fill:#000000;stroke:none"
     inkscape:connector-curvature="0"
     id="path3027"
     d="m 143.4,27.864 c -0.408,0.144 -0.408,0.192 -0.048,0.192 0.48,0.024 0.48,0 0.144,1.368 -0.264,1.008 -0.312,1.056 -1.152,1.056 -1.224,0 -2.424,1.2 -2.424,2.424 0,0.456 0.12,0.96 0.288,1.128 0.36,0.36 1.488,0.384 1.272,0.048 -0.096,-0.144 -0.24,-0.192 -0.36,-0.12 -0.264,0.168 -0.552,-0.744 -0.36,-1.08 0.072,-0.12 0.192,-0.48 0.24,-0.744 0.144,-0.744 0.84,-1.416 1.464,-1.416 0.624,0 0.624,0.432 0.024,2.088 -0.264,0.816 -0.288,1.104 -0.048,1.416 0.336,0.48 1.44,0.312 1.656,-0.264 0.12,-0.312 0.048,-0.336 -0.36,-0.096 -0.48,0.24 -0.504,0.216 -0.336,-0.768 0.096,-0.576 0.36,-1.632 0.6,-2.376 0.744,-2.304 0.792,-2.808 0.312,-2.928 -0.24,-0.072 -0.648,-0.024 -0.912,0.072 z" />
  <path
     style="fill:#000000;stroke:none"
     inkscape:connector-curvature="0"
     id="path3029"
     d="m 92.52,28.104 c -0.096,0.144 -0.312,0.192 -0.48,0.12 -0.168,-0.048 -0.384,-0.024 -0.504,0.096 -0.12,0.096 -0.648,0.312 -1.176,0.48 -1.176,0.384 -2.832,1.2 -2.712,1.344 0.072,0.048 0.816,-0.216 1.656,-0.576 0.84,-0.384 2.04,-0.84 2.688,-1.008 0.624,-0.168 1.128,-0.408 1.128,-0.504 0,-0.312 -0.408,-0.264 -0.6,0.048 z" />
  <path
     style="fill:#000000;stroke:none"
     inkscape:connector-curvature="0"
     id="path3031"
     d="m 125.28,29.256 c 0,0.096 0.504,0.384 1.152,0.672 0.624,0.264 1.752,0.768 2.52,1.128 0.744,0.336 1.368,0.504 1.368,0.36 0,-0.144 -0.84,-0.624 -1.848,-1.104 -2.064,-0.96 -3.192,-1.32 -3.192,-1.056 z" />
  <path
     style="fill:#000000;stroke:none"
     inkscape:connector-curvature="0"
     id="path3033"
     d="m 84.6,31.272 c -0.792,0.432 -1.488,0.84 -1.56,0.912 -0.072,0.072 -0.504,0.336 -0.96,0.576 -0.456,0.24 -0.696,0.48 -0.552,0.528 0.168,0.072 0.984,-0.312 1.8,-0.816 0.84,-0.504 1.824,-1.032 2.208,-1.152 0.384,-0.144 0.744,-0.384 0.816,-0.552 0.144,-0.432 -0.144,-0.336 -1.752,0.504 z" />
  <path
     style="fill:#000000;stroke:none"
     inkscape:connector-curvature="0"
     id="path3035"
     d="m 145.128,31.224 c -0.264,0.288 -0.312,0.504 -0.12,0.6 0.12,0.096 0.336,0 0.456,-0.168 0.312,-0.48 0.288,0.168 -0.048,1.224 -0.456,1.536 -0.456,1.704 -0.048,1.632 0.216,-0.048 0.576,-0.552 0.792,-1.152 0.504,-1.44 0.96,-2.136 1.104,-1.728 0.192,0.384 0.576,0.12 0.576,-0.408 0,-0.624 -2.184,-0.624 -2.712,0 z" />
  <path
     style="fill:#000000;stroke:none"
     inkscape:connector-curvature="0"
     id="path3037"
     d="m 103.8,31.704 c -8.16,0.6 -16.872,4.104 -23.304,9.36 -8.016,6.552 -13.224,15.264 -15.36,25.704 -0.576,2.832 -0.672,3.744 -0.672,7.992 0,2.76 0.12,5.568 0.288,6.6 0.432,2.688 1.32,6.24 1.536,6.24 0.288,0 0.24,-0.48 -0.144,-1.824 -1.272,-4.464 -1.608,-12.144 -0.768,-17.904 0.192,-1.272 1.416,-5.856 1.872,-7.032 0.264,-0.672 0.504,-1.392 0.552,-1.608 0.192,-0.912 2.76,-5.952 3.048,-5.952 0.168,0 0.768,0.48 1.344,1.08 0.576,0.6 1.08,1.08 1.152,1.08 0.072,0 0.408,0.336 0.744,0.72 0.336,0.408 0.672,0.696 0.72,0.624 0.072,-0.072 -0.168,-0.48 -0.528,-0.912 -0.792,-0.936 -0.504,-1.128 0.696,-0.432 0.48,0.264 1.272,0.696 1.776,0.984 0.48,0.264 0.984,0.6 1.128,0.72 0.288,0.288 0.6,0.264 0.6,-0.024 0,-0.144 -0.12,-0.24 -0.264,-0.24 -0.144,0 -0.744,-0.336 -1.344,-0.72 -0.576,-0.408 -1.128,-0.72 -1.224,-0.72 -0.096,0 -0.552,-0.336 -1.008,-0.72 L 73.8,54 l 1.032,0.096 c 0.552,0.048 1.008,0 1.008,-0.12 0,-0.12 -0.144,-0.216 -0.288,-0.24 -2.112,-0.12 -4.416,-0.96 -4.176,-1.536 0.264,-0.696 2.496,-3.864 3.744,-5.28 2.568,-2.976 6.288,-6.24 9.48,-8.328 1.128,-0.72 3.936,-2.352 4.08,-2.352 0.072,0 0.672,-0.264 1.368,-0.576 1.488,-0.696 4.392,-1.728 5.808,-2.088 2.904,-0.72 4.056,-0.96 5.904,-1.2 2.52,-0.336 8.544,-0.432 10.176,-0.168 0.672,0.096 1.656,0.24 2.16,0.312 2.424,0.288 7.392,1.584 7.92,2.064 0.144,0.12 0.432,0.216 0.672,0.216 0.24,0 1.152,0.336 2.04,0.744 0.912,0.408 1.896,0.888 2.232,1.032 1.176,0.528 3.36,1.944 3.36,2.184 0,0.12 -0.792,1.008 -1.728,1.968 -1.032,1.056 -1.584,1.752 -1.344,1.752 0.192,0 0.504,-0.168 0.672,-0.36 0.168,-0.192 0.456,-0.36 0.648,-0.36 0.24,0 0.216,0.144 -0.12,0.648 -0.528,0.792 -1.752,2.616 -2.088,3.168 -0.12,0.216 -0.552,0.84 -0.912,1.416 -0.384,0.552 -0.648,1.152 -0.6,1.296 0.12,0.312 0.696,-0.48 2.832,-3.816 1.392,-2.136 1.92,-2.76 1.92,-2.256 0,0.144 0.12,0.264 0.24,0.264 0.144,0 0.24,-0.192 0.24,-0.432 0,-0.72 1.176,-2.976 1.464,-2.808 0.144,0.096 1.032,0.744 1.968,1.464 1.8,1.368 2.496,1.68 1.56,0.744 -1.512,-1.536 -5.544,-4.056 -9.408,-5.904 -6.384,-3.024 -14.28,-4.416 -21.864,-3.84 z" />
  <path
     style="fill:#000000;stroke:none"
     inkscape:connector-curvature="0"
     id="path3039"
     d="m 78.792,34.92 c -0.432,0.288 -1.176,0.864 -1.68,1.296 -0.504,0.408 -1.128,0.888 -1.392,1.08 -0.408,0.312 -0.408,0.36 -0.096,0.384 0.216,0 0.528,-0.168 0.72,-0.384 0.168,-0.216 0.792,-0.72 1.392,-1.104 1.128,-0.768 2.064,-1.608 1.92,-1.728 -0.048,-0.048 -0.432,0.168 -0.864,0.456 z" />
  <path
     style="fill:#000000;stroke:none"
     inkscape:connector-curvature="0"
     id="path3041"
     d="m 138.528,36.912 c 0.12,0.312 3.984,3.648 4.2,3.648 0.24,0 -3.816,-3.84 -4.08,-3.84 -0.12,0 -0.168,0.096 -0.12,0.192 z" />
  <path
     style="fill:#000000;stroke:none"
     inkscape:connector-curvature="0"
     id="path3043"
     d="m 144,41.928 c 0,0.336 2.904,4.104 3.192,4.128 0.432,0.048 0.096,-0.6 -0.84,-1.68 -0.576,-0.648 -1.32,-1.512 -1.68,-1.944 C 144.312,42 144,41.784 144,41.928 z" />
  <path
     style="fill:#000000;stroke:none"
     inkscape:connector-curvature="0"
     id="path3047"
     d="m 67.896,45.768 c -0.648,0.696 -1.272,1.968 -1.08,2.16 0.048,0.072 0.288,-0.24 0.504,-0.672 0.24,-0.408 0.624,-0.984 0.864,-1.248 0.408,-0.432 0.6,-0.888 0.384,-0.888 -0.048,0 -0.36,0.288 -0.672,0.648 z" />
  <path
     style="fill:#000000;stroke:none"
     inkscape:connector-curvature="0"
     id="path3049"
     d="m 148.608,48.288 c 0.192,0.312 0.816,1.344 1.392,2.328 0.576,0.984 1.104,1.656 1.152,1.512 0.12,-0.36 -2.304,-4.368 -2.64,-4.368 -0.144,0 -0.096,0.216 0.096,0.528 z" />
  <path
     style="fill:#000000;stroke:none"
     inkscape:connector-curvature="0"
     id="path3051"
     d="m 64.92,50.544 c -0.72,1.2 -1.56,2.784 -1.56,2.904 0,0.048 0.072,0.072 0.192,0.072 0.096,0 0.456,-0.504 0.768,-1.152 0.336,-0.624 0.792,-1.416 1.032,-1.8 0.24,-0.36 0.408,-0.768 0.36,-0.936 -0.048,-0.144 -0.408,0.264 -0.792,0.912 z" />
  <path
     style="fill:#000000;stroke:none"
     inkscape:connector-curvature="0"
     id="path3055"
     d="m 151.68,53.856 c 0.12,0.336 0.48,1.104 0.792,1.752 0.312,0.624 0.72,1.56 0.864,2.04 0.168,0.504 0.408,0.912 0.504,0.912 0.216,0 -0.216,-1.488 -0.816,-2.76 -0.192,-0.408 -0.528,-1.128 -0.744,-1.632 -0.432,-0.984 -0.96,-1.272 -0.6,-0.312 z" />
  <path
     style="fill:#000000;stroke:none"
     inkscape:connector-curvature="0"
     id="path3057"
     d="m 62.16,56.16 c -0.192,0.456 -0.36,0.888 -0.36,0.96 -0.024,0.072 -0.216,0.528 -0.432,1.056 -0.456,1.032 -0.504,1.344 -0.192,1.344 0.12,0 0.288,-0.288 0.384,-0.648 0.072,-0.36 0.36,-1.128 0.624,-1.704 0.264,-0.576 0.456,-1.224 0.408,-1.44 -0.048,-0.264 -0.192,-0.12 -0.432,0.432 z" />
  <path
     style="fill:#000000;stroke:none"
     inkscape:connector-curvature="0"
     id="path3063"
     d="m 154.56,60.768 c 0.024,0.504 0.864,3.528 1.032,3.696 0.312,0.336 0.168,-0.816 -0.312,-2.4 -0.48,-1.488 -0.72,-1.968 -0.72,-1.296 z" />
  <path
     style="fill:#000000;stroke:none"
     inkscape:connector-curvature="0"
     id="path3069"
     d="m 60,62.064 c 0,0.264 -0.168,1.104 -0.36,1.848 -0.552,2.112 -0.72,3.96 -0.36,3.6 0.168,-0.168 0.384,-0.744 0.504,-1.32 0.096,-0.576 0.312,-1.704 0.456,-2.544 0.216,-1.128 0.216,-1.608 0.024,-1.8 C 60.072,61.656 60,61.704 60,62.064 z" />
  <path
     style="fill:#000000;stroke:none"
     inkscape:connector-curvature="0"
     id="path3079"
     d="m 156,66.96 c 0,0.912 0.576,4.56 0.696,4.56 0.192,0 0.168,-0.48 -0.096,-2.88 -0.096,-0.864 -0.264,-1.656 -0.384,-1.8 C 156.072,66.72 156,66.744 156,66.96 z" />
  <path
     style="fill:#000000;stroke:none"
     inkscape:connector-curvature="0"
     id="path3083"
     d="m 58.728,70.176 c -0.072,0.192 -0.216,1.488 -0.312,2.88 -0.12,1.872 -0.096,2.544 0.12,2.544 0.408,0 0.456,-0.312 0.576,-3.072 0.072,-2.28 -0.072,-3.192 -0.384,-2.352 z" />
  <path
     style="fill:#000000;stroke:none"
     inkscape:connector-curvature="0"
     id="path3089"
     d="m 156.72,76.464 c 0,1.416 0.048,2.52 0.12,2.448 0.216,-0.216 0.312,-4.752 0.096,-4.896 -0.12,-0.072 -0.216,1.032 -0.216,2.448 z" />
  <path
     style="fill:#000000;stroke:none"
     inkscape:connector-curvature="0"
     id="path3093"
     d="m 58.632,79.344 c 0.168,2.832 0.264,3.36 0.552,3.264 0.264,-0.072 0.264,-0.312 0,-3.12 -0.288,-3.096 -0.744,-3.216 -0.552,-0.144 z" />
  <path
     style="fill:#000000;stroke:none"
     inkscape:connector-curvature="0"
     id="path3099"
     d="m 156.36,81.408 c -0.168,0.528 -0.84,4.056 -0.84,4.416 0,0.192 0.096,0.336 0.216,0.336 0.216,0 0.72,-2.448 0.84,-4.176 0.072,-0.864 -0.024,-1.128 -0.216,-0.576 z" />
  <path
     style="fill:#000000;stroke:none"
     inkscape:connector-curvature="0"
     id="path3103"
     d="m 59.4,84.888 c 0.144,0.792 0.864,3.696 1.416,5.592 0.384,1.392 1.752,4.824 2.232,5.64 0.144,0.264 0.36,0.408 0.456,0.312 0.144,-0.168 -0.384,-1.68 -1.488,-4.224 -0.672,-1.536 -0.456,-1.728 2.016,-1.752 1.056,0 1.44,-0.072 1.128,-0.192 -0.432,-0.192 -0.384,-0.24 0.36,-0.576 0.456,-0.192 1.392,-0.528 2.04,-0.744 2.832,-0.864 11.256,-3.792 11.616,-4.008 0.6,-0.384 -0.552,-0.12 -2.256,0.504 -0.792,0.288 -1.608,0.552 -1.8,0.6 -0.192,0.048 -1.608,0.504 -3.12,1.032 -1.512,0.504 -3.24,1.08 -3.84,1.248 -0.6,0.192 -1.2,0.408 -1.32,0.504 -0.144,0.096 -0.72,0.288 -1.296,0.432 -0.984,0.216 -1.008,0.216 -0.6,-0.24 0.624,-0.672 0.216,-0.552 -1.128,0.36 -1.344,0.96 -2.112,1.248 -2.376,0.936 -0.168,-0.192 -1.344,-4.488 -1.488,-5.448 -0.048,-0.264 -0.216,-0.504 -0.384,-0.576 -0.216,-0.072 -0.264,0.096 -0.168,0.6 z" />
  <path
     style="fill:#000000;stroke:none"
     inkscape:connector-curvature="0"
     id="path3107"
     d="m 154.104,90.768 c -1.056,3 -1.08,3.072 -0.768,3.072 0.144,0 0.336,-0.288 0.408,-0.672 0.096,-0.36 0.24,-0.768 0.336,-0.888 0.168,-0.24 1.2,-3.312 1.2,-3.6 0,-0.072 -0.096,-0.12 -0.192,-0.12 -0.096,0 -0.552,1.008 -0.984,2.208 z" />
  <path
     style="fill:#000000;stroke:none"
     inkscape:connector-curvature="0"
     id="path3109"
     d="m 66.96,90.216 c 0,0.504 2.496,5.664 3.648,7.56 2.4,3.936 5.664,7.752 9.552,11.184 1.32,1.152 5.448,3.912 7.56,5.016 4.344,2.328 10.56,4.272 15.288,4.8 5.904,0.672 12.648,-0.048 18.432,-1.92 2.28,-0.744 6.84,-2.88 8.88,-4.176 3.528,-2.208 7.848,-5.928 10.128,-8.688 2.112,-2.568 2.208,-2.712 1.944,-2.712 -0.12,0 -0.912,0.84 -1.752,1.848 -2.328,2.832 -5.4,5.736 -7.608,7.224 -0.504,0.336 -0.936,0.696 -0.984,0.816 -0.048,0.096 -0.192,0.192 -0.336,0.192 -0.12,0 -0.528,0.216 -0.912,0.48 -1.44,1.032 -7.2,3.816 -9.36,4.536 -2.376,0.768 -5.664,1.536 -8.064,1.872 -2.544,0.336 -9.84,0.216 -12.576,-0.24 -6.576,-1.104 -12.552,-3.696 -18.72,-8.088 -0.84,-0.624 -1.776,-1.44 -4.416,-3.96 -1.68,-1.608 -5.184,-5.712 -5.184,-6.072 0,-0.144 -0.264,-0.552 -0.576,-0.936 -0.744,-0.888 -2.856,-4.92 -3.72,-7.08 -0.6,-1.536 -1.224,-2.376 -1.224,-1.656 z" />
  <path
     style="fill:#000000;stroke:none"
     inkscape:connector-curvature="0"
     id="path3111"
     d="m 151.224,97.752 c -0.696,1.296 -1.224,2.472 -1.152,2.64 0.096,0.288 0.6,-0.528 1.92,-3.144 1.2,-2.328 0.528,-1.896 -0.768,0.504 z" />
  <path
     style="fill:#000000;stroke:none"
     inkscape:connector-curvature="0"
     id="path3113"
     d="m 64.008,97.824 c -0.096,0.12 1.296,2.712 2.496,4.584 0.336,0.576 0.696,0.72 0.696,0.312 0,-0.288 -2.64,-4.776 -2.88,-4.92 -0.096,-0.048 -0.24,-0.048 -0.312,0.024 z" />
  <path
     style="fill:#000000;stroke:none"
     inkscape:connector-curvature="0"
     id="path3115"
     d="m 147.72,103.632 c -1.848,2.64 -1.872,2.688 -1.584,2.688 0.144,0 0.792,-0.792 1.464,-1.752 0.672,-0.936 1.392,-1.92 1.584,-2.184 0.216,-0.24 0.288,-0.528 0.168,-0.624 -0.096,-0.12 -0.84,0.72 -1.632,1.872 z" />
  <path
     style="fill:#000000;stroke:none"
     inkscape:connector-curvature="0"
     id="path3117"
     d="m 68.328,104.784 c -0.144,0.168 0.36,0.816 2.64,3.408 1.152,1.32 1.728,1.2 0.6,-0.144 -0.432,-0.48 -1.224,-1.44 -1.752,-2.088 -1.056,-1.272 -1.224,-1.416 -1.488,-1.176 z" />
  <path
     style="fill:#000000;stroke:none"
     inkscape:connector-curvature="0"
     id="path3119"
     d="m 142.944,109.416 c -0.768,0.768 -1.344,1.56 -1.296,1.728 0.096,0.288 3.072,-2.568 3.072,-2.976 0,-0.408 -0.456,-0.096 -1.776,1.248 z" />
  <path
     style="fill:#000000;stroke:none"
     inkscape:connector-curvature="0"
     id="path3121"
     d="m 74.16,111.336 c 0,0.336 4.68,4.344 5.064,4.344 0.504,0 0.144,-0.504 -1.032,-1.464 -0.696,-0.576 -1.8,-1.512 -2.448,-2.064 -1.128,-1.008 -1.584,-1.248 -1.584,-0.816 z" />
  <path
     style="fill:#000000;stroke:none"
     inkscape:connector-curvature="0"
     id="path3123"
     d="m 138.36,113.664 c -1.776,1.416 -2.328,2.016 -1.92,2.016 0.312,0 4.008,-3.024 4.152,-3.408 0.192,-0.456 -0.408,-0.072 -2.232,1.392 z" />
  <path
     style="fill:#000000;stroke:none"
     inkscape:connector-curvature="0"
     id="path3125"
     d="m 81.24,116.88 c -0.072,0.144 0.192,0.432 0.6,0.672 0.432,0.216 1.104,0.624 1.536,0.888 1.248,0.84 3.048,1.632 3.216,1.44 0.096,-0.096 0,-0.264 -0.192,-0.384 -1.272,-0.792 -4.872,-2.856 -4.92,-2.856 -0.048,0 -0.168,0.12 -0.24,0.24 z" />
  <path
     style="fill:#000000;stroke:none"
     inkscape:connector-curvature="0"
     id="path3127"
     d="m 133.2,117.384 c -0.6,0.384 -1.752,1.056 -2.568,1.464 -1.392,0.72 -1.872,1.152 -1.272,1.152 0.12,0 1.128,-0.552 2.256,-1.2 1.128,-0.672 2.136,-1.2 2.256,-1.2 0.12,0 0.408,-0.216 0.648,-0.48 0.648,-0.72 -0.024,-0.6 -1.32,0.264 z" />
  <path
     style="fill:#000000;stroke:none"
     inkscape:connector-curvature="0"
     id="path3129"
     d="m 126.48,120.744 c -2.16,0.696 -4.44,1.632 -4.512,1.848 -0.144,0.432 1.8,-0.072 3.72,-0.936 0.576,-0.24 1.128,-0.456 1.248,-0.456 0.312,0 0.552,-0.432 0.336,-0.552 -0.12,-0.048 -0.456,-0.024 -0.792,0.096 z" />
  <path
     style="fill:#000000;stroke:none"
     inkscape:connector-curvature="0"
     id="path3131"
     d="m 88.8,121.056 c 0.408,0.384 5.424,2.136 5.76,2.016 0.528,-0.168 -0.288,-0.6 -2.784,-1.464 -2.928,-0.984 -3.528,-1.08 -2.976,-0.552 z" />
  <path
     style="fill:#000000;stroke:none"
     inkscape:connector-curvature="0"
     id="path3133"
     d="m 117.264,123.48 c -1.416,0.288 -2.424,0.624 -2.496,0.816 -0.096,0.264 0.096,0.288 0.816,0.144 0.528,-0.096 1.2,-0.216 1.512,-0.288 0.336,-0.048 0.672,-0.144 0.768,-0.192 0.096,-0.072 0.576,-0.168 1.08,-0.264 1.056,-0.168 1.248,-0.264 0.912,-0.528 -0.12,-0.12 -1.296,0.024 -2.592,0.312 z" />
  <path
     style="fill:#000000;stroke:none"
     inkscape:connector-curvature="0"
     id="path3135"
     d="m 97.2,123.576 c 0,0.336 0.72,0.528 3.792,0.984 1.608,0.24 2.76,0.312 2.832,0.192 0.072,-0.12 0.096,-0.264 0.048,-0.312 -0.096,-0.096 -5.952,-1.08 -6.432,-1.08 -0.12,0 -0.24,0.096 -0.24,0.216 z" />
  <path
     style="fill:#000000;stroke:none"
     inkscape:connector-curvature="0"
     id="path3137"
     d="m 108.192,124.488 c -1.32,0.072 -2.112,0.192 -2.112,0.36 0,0.36 6.144,0.144 6.528,-0.24 0.216,-0.216 -0.024,-0.288 -1.008,-0.24 -0.72,0.024 -2.256,0.096 -3.408,0.12 z" />
  <text
     xml:space="preserve"
     style="font-size:8.64000034px;font-style:normal;font-variant:normal;font-weight:bold;font-stretch:normal;text-indent:0;text-align:start;text-decoration:none;line-height:125%;letter-spacing:0px;word-spacing:0px;text-transform:none;direction:ltr;block-progression:tb;writing-mode:lr-tb;text-anchor:start;baseline-shift:baseline;color:#000000;fill:#000000;fill-opacity:1;fill-rule:nonzero;stroke:none;stroke-width:1.24999988px;marker:none;visibility:visible;display:inline;overflow:visible;enable-background:accumulate;font-family:Linux Libertine O;-inkscape-font-specification:Sans"
     x="98.075729"
     y="15.209782"
     id="text4069"
     sodipodi:linespacing="125%"
     transform="matrix(0.87953608,0.4758322,-0.4758322,0.87953608,0,0)"><tspan
       sodipodi:role="line"
       id="tspan4071"
       x="98.075729"
       y="15.209782"><tspan
   style="font-style:italic;-inkscape-font-specification:Linux Libertine O Bold Italic"
   id="tspan4077">r</tspan><tspan
   style="font-size:6.39999989px;baseline-shift:sub"
   id="tspan4073">0</tspan>−d<tspan
   style="font-style:italic;-inkscape-font-specification:Linux Libertine O Bold Italic"
   id="tspan4079">r</tspan></tspan></text>
  <text
     xml:space="preserve"
     style="font-size:8.64000034px;font-style:normal;font-variant:normal;font-weight:bold;font-stretch:normal;text-indent:0;text-align:start;text-decoration:none;line-height:125%;letter-spacing:0px;word-spacing:0px;text-transform:none;direction:ltr;block-progression:tb;writing-mode:lr-tb;text-anchor:start;baseline-shift:baseline;color:#000000;fill:#000000;fill-opacity:1;fill-rule:nonzero;stroke:none;stroke-width:1.24999988px;marker:none;visibility:visible;display:inline;overflow:visible;enable-background:accumulate;font-family:Linux Libertine O;-inkscape-font-specification:Sans"
     x="53.647579"
     y="106.15731"
     id="text4069-0"
     sodipodi:linespacing="125%"
     transform="matrix(0.95342782,-0.30162126,0.30162126,0.95342782,0,0)"><tspan
       sodipodi:role="line"
       id="tspan4071-7"
       x="53.647579"
       y="106.15731"><tspan
         style="font-style:italic;-inkscape-font-specification:Linux Libertine O Bold Italic"
         id="tspan4077-8">r</tspan><tspan
         style="font-size:6.39999991px;baseline-shift:sub"
         id="tspan4073-8">0</tspan></tspan></text>
  <path
     style="color:#000000;fill:#d8d8d8;stroke:none;stroke-width:1.25000000000000000;stroke-linecap:butt;stroke-linejoin:miter;stroke-miterlimit:4;stroke-opacity:1;stroke-dasharray:none;stroke-dashoffset:0;marker:none;visibility:visible;display:inline;overflow:visible;enable-background:accumulate;fill-opacity:1"
     d="m 93.911446,65.453513 -3.553472,5.184174 2.446055,1.837583 2.701612,-0.973554 -0.279897,-5.220682 z"
     id="path4561"
     inkscape:connector-curvature="0"
     transform="scale(0.79999999,0.79999999)" />
  <path
     style="color:#000000;fill:none;stroke:#000000;stroke-width:0.875;stroke-linecap:butt;stroke-linejoin:miter;stroke-miterlimit:4;stroke-opacity:1;stroke-dasharray:none;stroke-dashoffset:0;marker:none;marker-end:url(#Arrow2Mend);visibility:visible;display:inline;overflow:visible;enable-background:accumulate"
     d="M 99.929406,72.772623 89.34865,66.208632"
     id="path4113"
     inkscape:connector-curvature="0"
     transform="scale(0.79999999,0.79999999)"
     sodipodi:nodetypes="cc" />
  <path
     style="color:#000000;fill:#ffffff;fill-opacity:1;stroke:none;stroke-width:1.25;marker:none;visibility:visible;display:inline;overflow:visible;enable-background:accumulate"
     d="m 65.631557,86.807041 1.688634,5.868 -2.575166,0.323656 -1.73085,-5.924296 z"
     id="path4574"
     inkscape:connector-curvature="0" />
  <path
     style="color:#000000;fill:none;stroke:#000000;stroke-width:0.875;stroke-linecap:butt;stroke-linejoin:miter;stroke-miterlimit:4;stroke-opacity:1;stroke-dasharray:none;stroke-dashoffset:0;marker:none;marker-end:url(#Arrow2Mend);visibility:visible;display:inline;overflow:visible;enable-background:accumulate"
     d="m 102.92567,104.55497 -26.019212,8.67927"
     id="path4115"
     inkscape:connector-curvature="0"
     transform="scale(0.79999999,0.79999999)"
     sodipodi:nodetypes="cc" />
  <path
     style="color:#000000;fill:none;stroke:#000000;stroke-width:0.69999999;stroke-linecap:butt;stroke-linejoin:miter;stroke-miterlimit:4;stroke-opacity:1;stroke-dasharray:none;stroke-dashoffset:0;marker:none;visibility:visible;display:inline;overflow:visible;enable-background:accumulate"
     d="M 108.00186,75.060225 90.663259,81.060791"
     id="path4115-6"
     inkscape:connector-curvature="0"
     sodipodi:nodetypes="cc" />
  <path
     style="color:#000000;fill:none;stroke:#000000;stroke-width:0.69999999;stroke-linecap:butt;stroke-linejoin:miter;stroke-miterlimit:4;stroke-opacity:1;stroke-dasharray:none;stroke-dashoffset:0;marker:none;visibility:visible;display:inline;overflow:visible;enable-background:accumulate"
     d="M 107.7702,75.035438 99.3056,69.784245"
     id="path4113-3"
     inkscape:connector-curvature="0"
     sodipodi:nodetypes="cc" />
  <path
     style="color:#000000;fill:none;stroke:#000000;stroke-width:0.625;stroke-linecap:butt;stroke-linejoin:miter;stroke-miterlimit:4;stroke-opacity:1;stroke-dasharray:none;stroke-dashoffset:0;marker:none;visibility:visible;display:inline;overflow:visible;enable-background:accumulate"
     d="m 91.397899,49.575715 -3.220081,3.781724"
     id="path4810"
     inkscape:connector-curvature="0"
     transform="scale(0.79999999,0.79999999)" />
  <rect
     style="fill:#b9b9b9;fill-opacity:1;stroke:none"
     id="rect4812-5"
     width="24.245989"
     height="157.09981"
     x="185.31572"
     y="-0.02465724" />
  <path
     sodipodi:type="arc"
     style="fill:none;stroke:#000000;stroke-opacity:1"
     id="path4832"
     sodipodi:cx="137.02979"
     sodipodi:cy="95.071281"
     sodipodi:rx="54.451672"
     sodipodi:ry="54.451672"
     d="m 137.02979,40.61961 a 54.451672,54.451672 0 1 1 -2e-5,0"
     transform="matrix(0.79735886,0,0,0.79735886,-1.2584725,-0.5670654)"
     sodipodi:start="4.712389"
     sodipodi:end="10.995574"
     sodipodi:open="true" />
</svg>
