<?xml version="1.0" encoding="UTF-8" standalone="no"?>
<svg
   xmlns:dc="http://purl.org/dc/elements/1.1/"
   xmlns:cc="http://creativecommons.org/ns#"
   xmlns:rdf="http://www.w3.org/1999/02/22-rdf-syntax-ns#"
   xmlns:svg="http://www.w3.org/2000/svg"
   xmlns="http://www.w3.org/2000/svg"
   xmlns:sodipodi="http://sodipodi.sourceforge.net/DTD/sodipodi-0.dtd"
   xmlns:inkscape="http://www.inkscape.org/namespaces/inkscape"
   version="1.0"
   width="199.680000pt"
   height="170.880000pt"
   viewBox="0 0 199.680000 170.880000"
   preserveAspectRatio="xMidYMid meet"
   id="svg3025"
   inkscape:version="0.48.4 r9939"
   sodipodi:docname="charged-disk-potential-on-axis.svg">
  <defs
     id="defs3109" />
  <sodipodi:namedview
     pagecolor="#ffffff"
     bordercolor="#666666"
     borderopacity="1"
     objecttolerance="10"
     gridtolerance="10"
     guidetolerance="10"
     inkscape:pageopacity="0"
     inkscape:pageshadow="2"
     inkscape:window-width="1280"
     inkscape:window-height="996"
     id="namedview3107"
     showgrid="false"
     inkscape:zoom="1.0008893"
     inkscape:cx="120.39184"
     inkscape:cy="109.51027"
     inkscape:window-x="0"
     inkscape:window-y="0"
     inkscape:window-maximized="1"
     inkscape:current-layer="svg3025" />
  <metadata
     id="metadata3027">
Created by potrace 1.10, written by Peter Selinger 2001-2011
<rdf:RDF>
  <cc:Work
     rdf:about="">
    <dc:format>image/svg+xml</dc:format>
    <dc:type
       rdf:resource="http://purl.org/dc/dcmitype/StillImage" />
    <dc:title></dc:title>
  </cc:Work>
</rdf:RDF>
</metadata>
  <rect
     style="fill:#b9b9b9;fill-opacity:1;stroke:none"
     id="rect4188"
     width="89.984329"
     height="170.87527"
     x="132.53537"
     y="0.004730917" />
  <path
     style="fill:#b9b9b9;fill-opacity:1;stroke:none"
     d="m 97.611418,80.688833 c -9.886944,-4.196759 -23.205132,4.95337 -29.768802,20.416407 -6.56367,15.46304 -3.884364,31.37654 6.002581,35.5733 9.886945,4.19676 23.218381,-4.92059 29.782053,-20.38362 6.56367,-15.46304 3.87111,-31.409328 -6.015832,-35.606087 z m -2.754654,6.489559 c 7.844716,3.329883 10.129456,15.677758 5.088464,27.553598 -5.040995,11.87584 -15.500664,18.78687 -23.345377,15.45699 C 68.755139,126.8591 66.483641,114.544 71.524635,102.66817 76.565629,90.792327 87.012051,83.848509 94.856764,87.178392 z"
     id="path4026-6"
     inkscape:connector-curvature="0" />
  <path
     style="fill:#b9b9b9;stroke:none"
     d="M -4.1034591e-7,0.00499731 -1.7977479e-6,85.430003 7.8022771e-7,170.88 99.85,170.88001 l 99.82501,0 0,-85.450008 0,-85.42500408 -99.825007,-3.2e-7 -99.8500034103459,-2.9e-7 z M 94.525004,64.105 c 1.935471,-0.06914 4.069999,0.05 5.374999,0.35 2.831997,0.648 5.718997,1.985001 7.374997,3.425001 0.336,0.288 0.838,0.761 1.15,1.025 0.32536,0.282535 0.51939,0.560201 0.55,0.875001 L 109.85,71.03 c 0.60787,0.05079 1.45659,1.254759 2.9,3.85 0.96,1.704 2.35,5.873 2.95,8.824999 0.45342,2.188234 0.79412,8.509388 0.67499,10.725 L 116.525,94.98 l -0.45,2.825001 c 0.0489,0.05103 0.075,0.115996 0.075,0.200003 0,1.631998 -1.19,8.200996 -2.15,11.824986 -0.408,1.48801 -0.725,2.91101 -0.725,3.17501 0,0.312 -0.15999,0.50001 -0.4,0.49999 -0.336,10e-6 -0.42601,0.22801 -0.45003,0.9 -0.0236,1.41299 -1.27934,4.70378 -1.825,4.85 l -0.37505,0.67497 c 0.0279,0.13353 -0.02,0.28402 -0.05,0.5 -0.096,0.57601 -2.848,6.18101 -4,8.12501 -1.39199,2.304 -4.543,7.143 -4.97499,7.575 -0.168,0.168 -0.69601,0.827 -1.200006,1.47499 -1.559991,2.064 -5.511999,6.19701 -7.599999,7.92501 -3.239998,2.712 -7.853999,5.58899 -8.549997,5.325 -0.1921,-0.0718 -0.534001,0.085 -0.749998,0.325 -1.296003,1.32 -7.173001,2.58999 -10.725004,2.35 -6.935999,-0.48 -12.532997,-4.31701 -15.724998,-10.725 -1.656,-3.28801 -2.968999,-8.29701 -3.425001,-13.025 l -0.075,-0.9 -0.09998,-0.05 -0.1,-2.075 -0.200003,-3.85 0.349997,-0.975 c -0.02285,-0.32608 -0.01092,-0.7533 0.05,-1.525 1.152,-14.376 7.294,-29.437998 16.75,-41.149999 0.768001,-0.936 2.664001,-2.964 4.200001,-4.499999 2.64,-2.616 2.833,-2.797001 3.624999,-2.725 0.09295,0.007 0.171574,0.037 0.250001,0.05 l 0.525,-0.35 c -0.189628,-0.07397 -0.1395,-0.229505 0.075,-0.675 0.599999,-1.152 5.73,-4.326 7.049999,-4.350001 l 0.55,0 0.875,-0.424999 c 0.0405,-0.263626 0.09,-0.407999 0.150003,-0.449999 0.384,-0.336 2.403001,-0.992 4.275,-1.4 0.801,-0.171 1.888721,-0.283512 3.050002,-0.325 z M 71.225001,137.48 c 0.43507,0.36131 1.62404,0.93799 2.250003,1.07499 L 71.225001,137.48 z"
     id="path8"
     inkscape:connector-curvature="0" />
  <path
     style="fill:#000000;stroke:none"
     inkscape:connector-curvature="0"
     id="path3031"
     d="m 86.064,23.951999 c -0.12,0.191999 -0.072,7.632 0.215999,32.688 0.072,5.999999 10e-7,8.591999 -0.168,8.831999 -0.144,0.168 -1.032,0.696 -1.968,1.152001 -2.4,1.175999 -3.479999,1.871999 -7.223999,4.727999 -1.872001,1.416001 -7.248,7.152 -8.832001,9.408 -0.384,0.528001 -1.032,1.44 -1.487999,2.04 -1.104001,1.512001 -3.719999,5.663997 -3.720001,5.952001 2e-6,0.120001 -0.144011,0.359999 -0.335999,0.527999 -0.312,0.24 -3.648001,6.816001 -4.224001,8.280001 -0.912,2.327997 -2.232001,6.072001 -2.903999,8.280001 -0.263999,0.864 -0.576,1.896 -0.72,2.304 -0.120001,0.408 -0.216001,0.912 -0.216001,1.128 2e-6,0.216 -0.119996,0.408 -0.263996,0.408 -0.120004,10e-6 -0.192,0.096 -0.119999,0.21601 0.07201,0.096 -0.024,0.79199 -0.192,1.48799 -0.191998,0.72 -0.407999,1.728 -0.479999,2.256 -0.096,0.552 -0.192001,1.22401 -0.263998,1.512 -0.120003,0.624 -0.576,4.752 -0.672003,6.264 -0.072,0.792 -0.215998,1.104 -0.647995,1.344 -0.600001,0.31201 -1.176002,1.20001 -1.2,1.824 -2e-6,0.43201 -0.744001,1.17601 -1.151998,1.176 -0.168022,5e-5 -0.864001,0.288 -1.560002,0.624 -0.671999,0.336 -2.424001,1.08001 -3.863999,1.68 -1.416,0.6 -2.784,1.176 -3.000002,1.272 -0.983998,0.48 -2.231998,1.032 -4.344,1.94401 -1.247996,0.52799 -2.567998,1.12799 -2.927997,1.34399 -0.384,0.192 -0.672001,0.288 -0.672001,0.192 1.2e-5,-0.072 -0.264002,0.024 -0.599999,0.24 -0.312002,0.216 -0.72,0.384 -0.912,0.384 -0.168023,5e-5 -0.528001,0.144 -0.792001,0.336 -0.408001,0.312 -0.408,0.36 -0.072,0.504 0.215992,0.072 1.080002,-0.168 1.919999,-0.55199 0.840001,-0.38401 2.448002,-1.08001 3.576004,-1.56001 1.127998,-0.456 2.735999,-1.152 3.599995,-1.55999 0.864002,-0.38401 2.760002,-1.22401 4.200004,-1.82401 4.968,-2.136 5.424,-2.328 6.191997,-2.712 0.576001,-0.312 0.719999,-0.28799 1.367999,0.096 0.479983,0.28804 0.720004,0.62399 0.744003,1.03199 0,0.336 0.048,0.912 0.096,1.32 0.048,0.384 0.144,1.2 0.191999,1.80001 0.072,0.59999 0.240003,1.82399 0.408002,2.75999 0.143998,0.912 0.311998,1.94401 0.36,2.28 0.119999,0.864 1.511999,5.04 1.919998,5.808 0.192001,0.336 0.359999,0.79201 0.360002,0.984 -2e-6,0.192 0.168,0.48 0.359998,0.64801 0.19201,0.16797 0.360002,0.43199 0.359999,0.6 3e-6,0.83999 4.824003,6.83999 5.496002,6.83999 0.120006,-1e-5 0.528004,0.264 0.912002,0.576 1.079997,0.91201 3.359999,1.968 5.712,2.664 1.823997,0.552 2.615995,0.648 5.087998,0.648 1.608,0 3.143994,-0.072 3.408003,-0.168 0.576,-0.16799 1.464,-0.384 1.944002,-0.456 0.215998,-0.024 0.479995,-0.12 0.599995,-0.19199 0.143999,-0.072 0.648004,-0.21601 1.175999,-0.28801 0.504007,-0.096 1.104005,-0.264 1.320005,-0.384 0.215999,-0.12 1.679995,-0.84 3.263991,-1.56 1.584003,-0.74399 3.144008,-1.60799 3.479999,-1.896 0.336011,-0.312 1.080008,-0.864 1.656009,-1.22399 1.655998,-1.032 7.56,-6.69601 9.215996,-8.83201 0.816002,-1.056 1.896002,-2.448 2.400002,-3.096 0.48,-0.64799 1.152,-1.56 1.488,-2.064 0.31196,-0.48002 0.88799,-1.32 1.272,-1.848 0.36,-0.528 0.84,-1.296 1.056,-1.68 0.35995,-0.72002 1.512,-2.784 2.52,-4.55999 0.288,-0.528 0.624,-1.12801 0.696,-1.32001 0.0718,-0.1921 0.40798,-0.91201 0.69597,-1.56001 0.74401,-1.63199 0.86402,-1.99199 0.6,-2.15999 -0.12,-0.072 -0.984,1.36799 -1.896,3.21599 -4.272,8.52 -8.711996,14.544 -15.047996,20.424 -5.976007,5.544 -13.752005,9.12 -19.776003,9.12 -3.480001,0 -7.415999,-1.176 -10.176001,-3 -5.807997,-3.84 -9.671999,-12.024 -10.367998,-21.84 -0.168002,-2.136 -0.144002,-2.16 0.455999,-2.496 0.624002,-0.336 1.128001,-1.176 1.127999,-1.896 2e-6,-0.288 0.960002,-0.816 3.432,-1.92 1.872001,-0.816 3.960003,-1.704 4.608,-1.944 0.672003,-0.24 2.424,-1.008 3.912001,-1.68 6.792,-3.096 8.424002,-3.816 13.608002,-6.072 3.047998,-1.32 5.807996,-2.51999 6.143998,-2.664 0.648001,-0.264 1.680003,0.072 5.015998,1.584 0.719987,0.33604 2.016001,0.88801 2.879997,1.24802 3.144002,1.29598 5.399987,2.35201 5.567997,2.616 0.09598,0.14405 0.191997,0.192 0.191987,0.096 0,-0.26399 10.56,4.05601 10.56,4.344 -4e-5,0.072 0.43199,0.28799 0.936,0.43197 0.52802,0.16796 1.53603,0.57596 2.23201,0.888 0.69602,0.31196 1.92,0.83998 2.71198,1.17605 1.15189,0.48026 7.72801,3.31196 9.84001,4.22398 1.48799,0.64802 2.37599,1.03202 4.32001,1.82396 1.19999,0.48004 2.85599,1.22403 3.72002,1.60795 0.86399,0.38402 2.47198,1.10405 3.59998,1.56005 2.64001,1.07998 3.24,1.34401 4.68001,2.01598 0.67182,0.28843 1.24799,0.55201 1.32002,0.57596 0.648,0.144 3.91199,1.536 7.36798,3.14403 0.67201,0.31198 1.29601,0.57598 1.36789,0.57629 0.14401,-3e-5 1.248,0.47999 3.62399,1.56002 1.536,0.72 2.23198,0.98403 2.736,1.05599 0.12,-1e-5 0.264,0.33599 0.336,0.744 0.312,1.464 2.016,2.208 3.16799,1.344 0.48001,-0.336 0.67201,-0.312 2.52001,0.504 0.45583,0.1924 1.12799,0.504 1.512,0.69601 0.35998,0.21603 0.648,0.28799 0.64802,0.19196 2e-5,-0.096 0.21599,0.024 0.45601,0.23995 0.264,0.24001 0.576,0.36001 0.69606,0.28786 0.11997,-0.072 0.36,0.024 0.52782,0.21644 0.16799,0.19199 0.504,0.36 0.74399,0.36002 0.24001,-2e-5 0.50401,0.11997 0.57594,0.24013 0.072,0.11997 0.33602,0.23997 0.57595,0.24013 0.24001,-2e-5 0.57599,0.144 0.74399,0.33601 0.144,0.192 0.408,0.312 0.57595,0.24013 0.168,-0.072 0.45599,0.048 0.624,0.24 0.168,0.21599 0.384,0.33599 0.47998,0.26403 0.16801,-0.12001 0.768,0.12 4.51201,1.82398 0.83999,0.38404 1.56001,0.69597 1.632,0.696 0.096,2e-5 1.368,0.552 3.40801,1.464 0.55209,0.23978 1.05604,0.45587 1.128,0.43198 0.072,4e-5 0.43201,0.16796 0.79201,0.35998 0.35999,0.19203 1.24799,0.57602 1.9681,0.83976 0.72,0.26401 1.65602,0.62396 2.04002,0.81596 0.672,0.33598 2.44801,1.10397 3.60002,1.58396 0.26412,0.11971 0.95998,0.43204 1.56001,0.69597 2.06401,0.93598 3.096,1.24801 3.24,0.98399 0.096,-0.11999 -0.576,-0.55199 -1.48801,-0.95999 -0.88779,-0.38446 -1.84798,-0.81604 -2.11198,-0.93603 -0.26412,-0.11972 -2.30382,-0.98443 -4.55989,-1.94425 -2.23199,-0.93602 -4.46399,-1.87204 -4.92001,-2.06398 -0.45583,-0.1924 -1.05606,-0.45587 -1.32014,-0.55167 -0.26401,-0.096 -1.19998,-0.52805 -2.06401,-0.93598 -0.86399,-0.40803 -1.82398,-0.79205 -2.13601,-0.86399 -0.31198,-0.048 -0.67198,-0.21604 -0.81601,-0.35996 -0.11999,-0.12002 -0.43201,-0.23998 -0.64802,-0.23997 -0.24,2e-5 -0.45599,-0.12002 -0.50398,-0.26402 -0.048,-0.12 -0.24001,-0.264 -0.43201,-0.312 -0.86399,-0.144 -2.16,-0.67199 -2.16001,-0.88797 -3e-5,-0.14402 -0.096,-0.192 -0.23984,-0.0964 -0.11998,0.072 -0.408,0.024 -0.648,-0.096 -0.67201,-0.33598 -3.192,-1.464 -3.31201,-1.46398 -0.072,-4e-5 -0.64802,-0.21597 -1.27201,-0.50398 -0.624,-0.28801 -1.34398,-0.60004 -1.60799,-0.69602 -0.26401,-0.096 -1.00792,-0.43219 -1.68001,-0.74398 -0.648,-0.31199 -1.29589,-0.55224 -1.43999,-0.55203 -0.12,-0.024 -0.26399,-0.432 -0.312,-0.912 -0.048,-0.64801 -0.288,-1.056 -0.792,-1.512 -0.816,-0.672 -1.55999,-0.76799 -2.28,-0.24 -0.45599,0.312 -0.648,0.26399 -2.03999,-0.384 -0.84002,-0.40796 -1.56,-0.84 -1.60801,-0.96 -0.048,-0.12 -0.288,-0.216 -0.52781,-0.21644 -0.24001,3e-5 -0.52798,-0.12004 -0.6,-0.24001 -0.096,-0.14396 -0.50399,-0.408 -0.91199,-0.60001 -0.43198,-0.19205 -1.41601,-0.71999 -2.208,-1.176 -0.792,-0.47999 -1.752,-1.032 -2.16001,-1.22399 -0.38399,-0.21601 -1.46399,-0.816 -2.39999,-1.344 -0.912,-0.50401 -1.99201,-1.10401 -2.4,-1.296 -0.384,-0.21601 -1.032,-0.576 -1.44,-0.84 -0.38399,-0.24002 -1.104,-0.648 -1.56,-0.88801 -2.28001,-1.224 -4.22401,-2.30399 -4.44001,-2.47199 -0.11999,-0.096 -1.32,-0.744 -2.63999,-1.44001 -1.32001,-0.69599 -2.56801,-1.39199 -2.78401,-1.58399 -0.19199,-0.192 -0.55199,-0.336 -0.76807,-0.33581 -0.21601,0 -0.456,-0.12001 -0.55201,-0.26397 -0.072,-0.144 -0.50401,-0.408 -0.91201,-0.6 -0.40801,-0.19198 -1.12798,-0.57603 -1.584,-0.864 -1.272,-0.768 -2.64,-1.536 -3.96,-2.232 -0.648,-0.336 -1.632,-0.888 -2.16,-1.2 -0.528,-0.31201 -1.368,-0.74401 -1.848,-0.96 -0.504,-0.24001 -0.912,-0.504 -0.912,-0.648 -1e-5,-0.12 -0.096,-0.168 -0.21599,-0.072 -0.11997,0.072 -0.36,-0.024 -0.55198,-0.19204 -0.16801,-0.192 -0.72,-0.528 -1.224,-0.768 -0.47999,-0.21602 -0.88801,-0.50399 -0.88801,-0.62399 -1e-5,-0.12001 -0.19199,-0.216 -0.45598,-0.21604 -0.24001,2e-5 -0.57599,-0.16802 -0.74399,-0.36002 -0.168,-0.192 -0.456,-0.36001 -0.67201,-0.36 -0.19198,-1e-5 -0.55198,-0.16803 -0.768,-0.36 -0.19199,-0.19199 -0.816,-0.504 -1.31999,-0.72 l -0.95999,-0.38402 0.6,0.48 c 0.336,0.264 1.248,0.816 2.04,1.248 0.792,0.40799 1.56,0.864 1.72799,0.984 0.144,0.12001 0.84,0.528 1.56001,0.888 2.64,1.416 6.624,3.648 7.63199,4.29599 0.33602,0.21597 0.74399,0.40804 0.91201,0.432 0.16802,0.0239 0.45599,0.16802 0.648,0.336 0.168,0.14399 0.88801,0.552 1.608,0.936 2.04,1.056 4.128,2.23201 4.464,2.496 0.16801,0.11998 0.888,0.528 1.608,0.888 0.72002,0.35995 1.44,0.768 1.608,0.912 0.16801,0.11998 1.176,0.696 2.232,1.248 1.056,0.55199 2.352,1.272 2.88,1.584 0.528,0.312 1.296,0.72 1.68,0.912 0.888,0.43202 4.536,2.496 6.24,3.52799 0.40801,0.24001 1.36801,0.76801 2.16,1.17601 0.792,0.40799 1.872,1.008 2.4,1.344 0.528,0.312 1.248,0.696 1.608,0.84 0.33611,0.14375 0.696,0.408 0.768,0.576 0.12,0.336 -0.096,0.264 -2.976,-1.008 -0.45583,-0.1924 -1.05605,-0.45587 -1.32014,-0.55167 -0.264,-0.096 -1.00792,-0.43218 -1.68001,-0.74398 -0.648,-0.31199 -1.24799,-0.55201 -1.32002,-0.57596 -0.19199,-0.024 -1.70399,-0.64801 -3.31202,-1.36795 -0.81601,-0.35996 -1.56001,-0.67197 -1.60811,-0.67174 -0.048,4e-5 -0.81618,-0.33558 -1.68013,-0.71969 -0.86399,-0.38402 -1.632,-0.72001 -1.68013,-0.71969 -0.072,-4e-5 -0.67201,-0.26396 -1.36799,-0.60002 -0.67201,-0.33598 -1.32001,-0.59996 -1.39216,-0.59962 -0.096,-3e-5 -0.91202,-0.33597 -1.8241,-0.76777 -0.91201,-0.40798 -1.70398,-0.76806 -1.776,-0.792 -0.36,-0.12 -1.27201,-0.47997 -2.92801,-1.22396 -1.03201,-0.45599 -1.92001,-0.81601 -1.992,-0.81601 -0.072,-4e-5 -0.64802,-0.21597 -1.27202,-0.50398 -0.62399,-0.28801 -1.34397,-0.60003 -1.60799,-0.69602 -0.264,-0.096 -1.0799,-0.45622 -1.8,-0.79198 -0.71996,-0.31212 -1.80001,-0.79197 -2.40001,-1.03199 -0.59999,-0.21601 -1.68001,-0.69596 -2.40004,-1.0079 -0.71999,-0.33603 -1.44001,-0.62396 -1.584,-0.672 -0.26401,-0.048 -2.20799,-0.88802 -5.73602,-2.49595 -0.792,-0.35998 -1.72799,-0.72002 -2.08799,-0.79201 -0.84001,-0.216 -6.864,-2.784 -8.71202,-3.71997 -0.792,-0.408 -2.08798,-0.93605 -2.880149,-1.22364 -1.631998,-0.52801 -8.256005,-3.36 -10.05608,-4.27181 -0.672006,-0.33599 -1.079999,-0.672 -0.959999,-0.792 0.119994,-0.12 1.847998,-0.936 3.816003,-1.8 3.119995,-1.368 4.391994,-2.04001 3.935992,-2.04 -0.07201,-4e-5 -1.895996,0.744 -4.079998,1.68 -2.159999,0.912 -3.959998,1.68 -4.031997,1.67999 -0.04801,5e-5 -0.024,-0.21599 0.048,-0.504 0.096,-0.38399 0.072,-0.432 -0.192004,-0.21599 -0.479997,0.408 -0.599996,-0.21601 -0.648,-3.792 l -0.048,-3.288 -0.072,3.12 c -0.096,3.576 -0.144,3.912 -0.672001,3.48 -0.456,-0.384 -0.455998,0 2e-6,0.624 0.840001,1.10399 1.463998,0.744 -12.576001,6.84 -2.688,1.176 -4.992,2.136 -5.112001,2.136 -0.120005,1e-5 -0.839999,0.312 -1.583997,0.672 -0.768002,0.384 -1.512003,0.648 -1.68,0.576 -0.144008,-0.048 -0.287999,0.024 -0.288004,0.144 5e-6,0.24 -1.031997,0.696 -1.103998,0.504 -0.02401,-0.048 -0.24,0.072 -0.479999,0.264 -0.456001,0.384 -1.080001,0.672 -6.071999,2.87999 l -2.736001,1.20001 -0.840001,-0.624 c -0.815999,-0.648 -0.815999,-0.648 -0.671997,-2.11201 1.103998,-10.41599 3.575997,-19.07999 7.943998,-27.623992 4.056,-7.968 8.135999,-13.679999 13.368,-18.719999 3.359999,-3.24 6.48,-5.592 9.672,-7.224 l 2.159999,-1.104 0.168001,1.296 c 0.096,0.696 0.168,7.152 0.168,14.352 -0.024,12.047999 0.096,15.768004 0.431998,16.080002 0.07202,0.07196 0.048,-7.080002 -0.024,-15.912002 L 86.832,65.999998 87.743999,65.615999 c 1.968,-0.816001 4.608,-1.344001 7.416,-1.464 3.552,-0.168001 5.856001,0.336 9.120001,1.967999 2.208,1.080001 4.92,3.24 4.92,3.864001 -2e-5,0.191992 -0.672,1.008001 -1.488,1.776001 -1.464,1.415998 -1.632,1.704 -0.624,1.175998 0.432,-0.240001 0.456,-0.192 0.312,0.312002 -0.14397,0.504009 -0.12004,0.527982 0.192,0.119998 0.48,-0.576 0.72,-0.503998 0.552,0.167999 -0.072,0.335996 -0.048,0.648 0.072,0.719999 0.12,0.072 0.264,-0.263996 0.36,-0.768 0.216,-1.247999 1.056,-3.000001 1.344,-2.807998 0.408,0.264005 2.064,2.808001 2.952,4.559998 2.28,4.536001 3.576,10.992002 3.504,17.448001 -0.024,2.184003 -0.144,3.672 -0.312,3.888002 -0.264,0.36 -4.056,2.064 -9.624,4.344001 -3.456,1.392 -7.872005,3.48 -7.751999,3.624 0.119991,0.096 2.495999,-0.744 3.119999,-1.104 0.24,-0.14401 0.528,-0.24 0.672,-0.24 0.12,-1e-5 1.584,-0.648 3.24,-1.44 3.552,-1.728 9.648,-4.32 10.104,-4.320001 0.216,-2e-6 0.336,0.263999 0.336,0.695997 0,1.320001 -1.2,7.824004 -2.04,10.992004 -0.456,1.752 -0.768,3.36 -0.672,3.576 0.192,0.528 0.552,-0.456 1.512,-4.104 0.624,-2.376 0.792,-3.192 1.08,-4.8 0.048,-0.26401 0.096,-0.48001 0.12,-0.48 0.024,-2e-5 0.072,-0.336 0.12,-0.72 0.024,-0.408 0.144,-1.32 0.24,-2.04 0.144,-1.152002 0.264,-2.160003 0.336,-3.312001 0.0241,-0.167981 0.384,-0.456 0.81599,-0.648003 0.40801,-0.167998 1.41601,-0.624 2.20801,-0.959998 1.632,-0.744 2.112,-0.936001 4.8,-2.064002 1.056,-0.431998 2.04,-0.863998 2.16,-0.959998 0.384,-0.264001 3.336,-1.416 3.504,-1.368 0.072,0.04799 0.312,-0.12 0.55199,-0.360002 0.24001,-0.215998 0.60001,-0.407998 0.81601,-0.407998 0.552,-0.024 1.608,-0.864 1.32,-1.032001 -0.144,-0.096 -0.672,0.048 -1.176,0.288001 -0.528,0.240001 -2.112,0.936001 -3.576,1.559998 -1.44,0.624001 -2.952,1.296002 -3.312,1.488002 -0.38401,0.191998 -0.816,0.335998 -1.008,0.336002 -0.168,-5e-6 -0.432,0.167997 -0.6,0.359999 -0.16797,0.19201 -0.456,0.359999 -0.648,0.359998 -0.168,0 -1.512,0.527999 -2.952,1.200001 -1.44,0.648002 -2.664,1.199999 -2.736,1.199998 -0.048,-1.1e-5 -0.072,-1.583998 -0.048,-3.552 0.048,-3.527997 -0.36,-7.439999 -1.176,-11.207997 -0.504,-2.4 -2.76,-7.68 -3.84,-9 -0.144,-0.192003 -0.336,-0.528002 -0.408,-0.720003 -0.264,-0.72 -2.592,-3.312 -3.84,-4.247998 -1.992,-1.488 -5.184,-3.000001 -7.872,-3.696001 -1.392,-0.36 -6.744,-0.455999 -7.152001,-0.143999 -0.167999,0.12 -0.36,0.168 -0.431999,0.12 -0.072,-0.072 -0.744,0.024 -1.488001,0.215999 -0.744,0.192001 -1.463999,0.384 -1.607999,0.408001 -0.12,0.024 -0.336,0.096 -0.480001,0.167999 -0.455999,0.288 -1.56,0.456 -1.584,0.288 -0.096,-0.407999 -0.167999,-5.783999 -0.312,-22.872 -0.096,-9.84 -0.264,-17.975999 -0.383999,-18.071999 -0.096,-0.12 -0.239998,-0.120005 -0.336,0.024 z" />
  <path
     style="fill:#000000;stroke:none"
     inkscape:connector-curvature="0"
     id="path3033"
     d="m 91.343999,24.167999 c -0.096,0.12 -0.624,0.192 -1.152,0.192 -0.72,-10e-7 -1.056,0.119999 -1.319999,0.527999 -0.336001,0.504 -0.336001,0.504 0.623999,0.384 0.552,-0.072 0.984001,-0.048 0.984001,0.072 2e-6,0.120001 -0.480001,0.695999 -1.080001,1.296 -1.296,1.32 -1.512,2.255999 -0.288,1.344 0.384001,-0.288 0.528,-0.288001 1.128001,0.048 0.647999,0.360002 0.719998,0.360005 1.175999,-0.048 0.576,-0.527999 0.672003,-1.343998 0.144,-1.343999 -0.191999,0 -0.359999,0.216 -0.359999,0.48 0,0.576 -0.311999,0.624 -0.816,0.096 -0.528001,-0.527999 -0.504001,-0.647999 0.575999,-1.68 0.528001,-0.528 0.96,-1.079999 0.960001,-1.247999 0,-0.312001 -0.312001,-0.384001 -0.576001,-0.12 z" />
  <path
     style="fill:#000000;stroke:none"
     inkscape:connector-curvature="0"
     id="path3045"
     d="m 79.56,80.615998 c 0.096,0.624 0.048,0.768 -0.240003,0.648 -0.503999,-0.192002 -0.432,0.048 0.24,1.176 0.336,0.528 0.6,1.152 0.600001,1.392 -5e-6,0.239997 0.12,0.36 0.24,0.288 0.144,-0.072 0.215999,-0.936001 0.215999,-1.872 -0.024,-0.96 -0.072,-1.536 -0.144,-1.32 -0.167999,0.648 -0.456,0.504 -0.743999,-0.360002 l -0.288,-0.768 0.120001,0.816 z" />
  <path
     style="fill:#000000;stroke:none"
     inkscape:connector-curvature="0"
     id="path3047"
     d="m 101.04,84.647998 c -0.31203,0.503989 -0.888,1.512002 -1.272,2.232001 -0.383957,0.720018 -0.815997,1.488001 -0.984002,1.679999 -0.215981,0.312008 -0.599998,1.032 -1.319999,2.520001 -0.048,0.119998 0.120002,0.024 0.408005,-0.215999 0.287997,-0.264 0.527997,-0.552001 0.527995,-0.672002 -1.2e-5,-0.120004 0.407996,-0.960001 0.936001,-1.823999 1.53599,-2.640002 2.448,-4.415999 2.352,-4.536001 -0.072,-0.04799 -0.36,0.312002 -0.648,0.816 z" />
  <path
     style="fill:#000000;stroke:none"
     inkscape:connector-curvature="0"
     id="path3049"
     d="m 82.343999,92.399999 c 0.024,0.983999 0.072,1.608 0.144001,1.367999 0.144,-0.6 0.407999,-0.504 0.743998,0.240003 0.264,0.648001 0.264,0.648001 0.144001,-0.168 -0.120001,-0.696 -0.096,-0.792 0.167998,-0.552 0.672,0.648 0.648,0.264 -0.048,-0.96 -1.104,-1.896 -1.176,-1.896 -1.152,0.072 z" />
  <path
     style="fill:#000000;stroke:none"
     inkscape:connector-curvature="0"
     id="path3053"
     d="m 101.064,107.496 c 0.36,0.26399 0.88799,0.6 1.2,0.744 0.31202,0.14396 1.00799,0.52802 1.536,0.84 1.128,0.648 1.488,0.744 1.08,0.24 -0.168,-0.192 -0.408,-0.36 -0.528,-0.36 -0.12,1e-5 -0.79201,-0.35998 -1.488,-0.816 -0.696,-0.432 -1.512,-0.888 -1.848,-0.984 -0.576,-0.16802 -0.576,-0.16802 0.048,0.336 z" />
  <path
     style="fill:#000000;stroke:none"
     inkscape:connector-curvature="0"
     id="path3055"
     d="m 112.392,115.00799 c -0.456,0.744 -1.224,3.31201 -1.008,3.45601 0.19201,0.11996 1.104,-1.608 1.512,-2.952 0.19202,-0.57599 -0.192,-0.96 -0.504,-0.50401 z" />
  <path
     style="fill:#000000;stroke:none"
     inkscape:connector-curvature="0"
     id="path3057"
     d="m 44.04,115.392 c -0.04799,0.072 0.048,0.24 0.264001,0.384 0.336013,0.23996 0.311998,0.504 -0.096,2.424 -0.239999,1.2 -0.527998,2.352 -0.623999,2.568 -0.167997,0.35999 -0.072,0.432 0.48,0.456 0.384,0 0.936,0.048 1.248002,0.072 0.287981,0.048 0.527997,-0.024 0.528,-0.14401 1.2e-5,-0.096 -0.168001,-0.19199 -0.35999,-0.19202 -0.263998,0 -0.36,-0.288 -0.36,-1.08 1e-6,-0.864 0.096,-1.128 0.552003,-1.34399 0.288001,-0.16801 0.552,-0.28801 0.600002,-0.26401 0.383998,0.288 1.631998,-0.936 1.775999,-1.752 0.191998,-0.95999 -0.456002,-1.34399 -2.279998,-1.296 -0.888004,0.024 -1.656001,0.096 -1.728001,0.168 z m 2.951999,1.08 c 0.072,0.624 -0.791996,1.704 -1.271998,1.53599 -0.239841,-0.0964 -0.240002,-1.03199 -3e-6,-2.01599 0.096,-0.432 0.216003,-0.50401 0.671999,-0.336 0.311983,0.12005 0.552003,0.432 0.600002,0.816 z" />
  <path
     style="fill:#000000;stroke:none"
     inkscape:connector-curvature="0"
     id="path3059"
     d="m 47.088001,120.83999 c -0.264003,0.33601 -0.456002,0.79201 -0.407999,1.03201 0.048,0.216 0.096,0.48 0.096,0.57599 0.024,0.12001 0.191998,0.19201 0.383998,0.19201 0.408001,0 0.503999,-0.624 0.096,-0.768 -0.455992,-0.14402 0.072,-0.936 0.599999,-0.864 0.863998,0.12 0.744002,1.128 -0.311999,2.47199 -0.528002,0.64801 -0.888003,1.27201 -0.840002,1.36801 0.07201,0.11997 0.52798,0.14405 1.008002,0.096 0.48,-0.072 1.079999,-0.12 1.320001,-0.12001 0.287999,-0.024 0.407997,-0.21599 0.383994,-0.696 0,-0.35999 -0.072,-0.50399 -0.144002,-0.35999 -0.048,0.168 -0.456,0.312 -0.864001,0.312 l -0.719997,0 0.48,-0.55201 c 1.055999,-1.15199 1.319998,-2.25599 0.648,-2.904 -0.552002,-0.55199 -1.199986,-0.48003 -1.727999,0.216 z" />
  <path
     style="fill:#000000;stroke:none"
     inkscape:connector-curvature="0"
     id="path3061"
     d="m 157.776,128.808 c -0.072,0.24 -0.23997,0.64801 -0.35997,0.91201 -1.07994,2.47202 -1.07999,4.15201 0.024,5.90401 0.98401,1.512 1.39201,1.53599 0.62401,0.024 -0.792,-1.584 -0.936,-3 -0.48001,-4.608 0.19201,-0.72 0.38401,-1.43999 0.40801,-1.56 0.048,-0.14401 0.1441,-0.35996 0.23998,-0.528 0.096,-0.144 0.072,-0.336 -0.072,-0.43201 -0.144,-0.072 -0.312,0.048 -0.384,0.28801 z" />
  <path
     style="fill:#000000;stroke:none"
     inkscape:connector-curvature="0"
     id="path3063"
     d="m 179.16,128.808 c 1.032,2.352 1.272,4.584 0.624,5.76 -0.31197,0.57602 -0.55199,1.272 -0.64801,1.872 -0.096,0.43198 -0.024,0.408 0.38401,-0.12001 1.464,-1.82399 1.75198,-4.272 0.744,-6.43199 -0.312,-0.672 -0.744,-1.296 -0.936,-1.368 -0.24,-0.096 -0.288,-0.024 -0.16799,0.288 z" />
  <path
     style="fill:#000000;stroke:none"
     inkscape:connector-curvature="0"
     id="path3065"
     d="m 161.112,129.36 c -1.752,0.696 -1.656,5.35199 0.12,6.02399 0.81598,0.31204 1.752,-0.096 2.256,-0.93599 0.28804,-0.47998 0.38405,-1.15198 0.336,-2.28001 -0.048,-1.36799 -0.144,-1.70399 -0.648,-2.18399 -0.696,-0.696 -1.368,-0.888 -2.064,-0.624 z m 1.392,1.08 c 0.312,1.128 0.384,3.312 0.14401,3.888 -0.23979,0.55209 -0.79201,0.88799 -1.12801,0.672 -0.696,-0.432 -0.816,-4.77601 -0.144,-5.208 0.48,-0.33601 0.936,-0.072 1.128,0.648 z" />
  <path
     style="fill:#000000;stroke:none"
     inkscape:connector-curvature="0"
     id="path3067"
     d="m 174.48,129.84 c -0.84,0.888 -1.056,1.8 -0.84,3.36 0.12,0.888 0.33599,1.32 0.768,1.68 1.08,0.84 2.28,0.6 2.856,-0.60001 0.38397,-0.81601 0.6,-2.95199 0.336,-3.11999 -0.096,-0.072 -0.24,-0.432 -0.312,-0.816 -0.096,-0.504 -0.36,-0.768 -0.912,-0.96 -1.08,-0.36 -1.152,-0.36 -1.896,0.456 z m 1.944,0.408 c 0.144,0.36 0.216,1.008 0.16799,1.44 -0.024,0.408 0.024,0.84 0.096,0.912 0.096,0.096 0.048,0.432 -0.072,0.768 -0.12002,0.33599 -0.168,0.672 -0.096,0.792 0.048,0.096 -0.096,0.36 -0.36005,0.59997 -0.456,0.40801 -0.50399,0.40801 -0.91199,0.048 -0.50401,-0.456 -0.50401,-0.408 -0.55201,-2.64 -0.024,-1.248 0.048,-1.728 0.38401,-2.088 0.59999,-0.648 1.05599,-0.6 1.344,0.168 z" />
  <path
     style="fill:#000000;stroke:none"
     inkscape:connector-curvature="0"
     id="path3069"
     d="m 94.871998,130.968 c -0.072,0.24 -0.191973,0.52801 -0.26396,0.67201 -0.07201,0.12 0.09587,0.0483 0.383993,-0.19199 0.696007,-0.62401 1.296003,-0.43201 1.776,0.552 0.432007,0.81599 0.432007,0.81599 0.287979,0.12006 -0.215998,-0.96 -0.768,-1.56 -1.463999,-1.56 -0.312003,0 -0.624007,0.168 -0.720003,0.408 z" />
  <path
     style="fill:#000000;stroke:none"
     inkscape:connector-curvature="0"
     id="path3071"
     d="m 167.16,131.52 c -0.312,0.336 -0.36,0.576 -0.192,0.744 0.11999,0.12002 0.192,0.744 0.12,1.368 -0.12,1.344 0.312,1.944 1.104,1.512 0.768,-0.408 1.032,0.216 0.408,1.032 -0.312,0.408 -0.36,0.408 -0.744,0.048 -0.528,-0.52799 -1.056,-0.11999 -0.57601,0.45601 0.48001,0.576 1.34401,0.432 1.99201,-0.336 0.744,-0.888 1.776,-4.8 1.344,-5.088 -0.456,-0.288 -0.816,-0.024 -0.84,0.648 -0.048,0.792 -1.08,2.736 -1.464,2.736 -0.384,0 -0.384,-0.31201 0.024,-1.848 0.456,-1.68 -0.192,-2.352 -1.176,-1.272 z" />
  <path
     style="fill:#000000;stroke:none"
     inkscape:connector-curvature="0"
     id="path3073"
     d="m 97.871996,133.248 c -0.648,0.69599 -0.887999,1.392 -0.479995,1.392 0.09603,2e-5 0.479997,-0.384 0.863997,-0.86401 C 99.096003,132.72 98.759995,132.24 97.871996,133.248 z" />
  <path
     style="fill:#000000;stroke:none"
     inkscape:connector-curvature="0"
     id="path3075"
     d="m 164.952,134.544 c -0.0964,0.23984 -0.048,0.456 0.12,0.528 0.40802,0.11996 0.36,0.552 -0.12,0.88799 -0.24,0.168 -0.288,0.336 -0.14404,0.43199 0.43201,0.26399 1.488,-0.744 1.344,-1.272 -0.192,-0.72 -0.984,-1.104 -1.20001,-0.57597 z" />
  <path
     style="fill:#000000;stroke:none"
     inkscape:connector-curvature="0"
     id="path3077"
     d="m 171.816,134.424 c -0.288,0.168 -0.288,0.288 0,0.71999 0.288,0.48001 0.264,0.57601 -0.072,0.81601 -0.576,0.432 -0.45601,0.648 0.168,0.31199 0.696,-0.40799 0.888,-0.672 0.88799,-1.29599 1e-5,-0.6 -0.47999,-0.86401 -0.98399,-0.552 z" />
  <path
     style="fill:#000000;stroke:none"
     inkscape:connector-curvature="0"
     id="path3079"
     d="m 94.511998,135.864 c -0.239994,0.12 -0.431996,0.432 -0.431995,0.648 0.024,0.384 0.024,0.384 0.263997,-0.024 0.120032,-0.21598 0.384001,-0.40799 0.528001,-0.40799 0.383996,0 2.088,1.728 2.088001,2.112 -3e-6,0.384 0.359995,0.36 0.719998,-0.072 0.239999,-0.288 0.096,-0.528 -0.864,-1.416 -1.224004,-1.128 -1.607997,-1.272 -2.304002,-0.84 z" />
  <path
     style="fill:#000000;stroke:none"
     inkscape:connector-curvature="0"
     id="path3081"
     d="m 30.143999,136.776 c -0.360002,0.384 -0.552,0.768 -0.431997,0.84 0.144004,0.072 0.312,-0.024 0.383999,-0.24 0.168001,-0.432 0.672,-0.336 0.768002,0.168 0.024,0.168 0.072,0.432 0.120001,0.576 0.167999,0.576 -0.312003,1.32 -0.864,1.32 -0.432003,0 -0.551999,0.12 -0.528001,0.48 0.048,0.624 0.672,0.6 1.224,-0.048 l 0.456,-0.528 0.191998,0.528 c 0.240001,0.648 0.960003,0.672 1.536001,0.048 0.480001,-0.528 0.312007,-0.96 -0.191998,-0.528 -0.264,0.216 -0.408,0.168 -0.623999,-0.264 -0.480003,-0.888 -0.240002,-1.92 0.431999,-2.088 0.72,-0.168 0.935999,-0.672 0.359998,-0.888 -0.264007,-0.096 -0.552003,0.024 -0.816003,0.336 -0.383998,0.48 -0.407999,0.48 -0.671997,0.048 C 31.104001,135.936 30.935999,135.96 30.143999,136.776 z" />
  <path
     style="fill:#000000;stroke:none"
     inkscape:connector-curvature="0"
     id="path3083"
     d="m 92.975995,137.64 c -0.431996,0.336 -0.431996,0.336 0.168005,0.35999 0.624003,1e-5 2.135995,1.32001 2.136001,1.87201 -7e-6,0.432 0.359994,0.36 0.839996,-0.192 0.359997,-0.408 0.384,-0.48001 0.07201,-0.48 -0.216002,0 -0.767997,-0.43203 -1.248008,-0.96 -0.935996,-1.056 -1.247998,-1.152 -1.968,-0.6 z" />
  <path
     style="fill:#000000;stroke:none"
     inkscape:connector-curvature="0"
     id="path3085"
     d="m 91.799999,138.98399 c -0.551997,0.528 -0.623995,0.69601 -0.311955,0.69602 0.528001,1e-5 2.040003,1.32001 2.232001,1.944 0.168001,0.45601 0.191999,0.48001 0.624003,0.072 0.527991,-0.48 0.600003,-0.816 0.143991,-0.816 -0.455998,0 -1.799989,-1.464 -1.895992,-2.064 -0.072,-0.48 -0.096,-0.48 -0.792002,0.16799 z" />
  <path
     style="fill:#000000;stroke:none"
     inkscape:connector-curvature="0"
     id="path3087"
     d="m 62.327998,141.432 c -1.008,0.936 -1.128001,1.728 -0.455999,2.592 0.840002,1.00799 3.071999,0.48 3.696,-0.888 0.264,-0.552 0.384,-0.576 1.223999,-0.432 0.720001,0.12 0.912,0.072 0.84,-0.168 -0.191999,-0.552 -2.352,-1.704 -3.408,-1.824 -0.911997,-0.12001 -1.103998,-0.024 -1.896,0.72 z M 65.136,141.72 c 0.191997,0.528 -0.024,0.936 -0.767999,1.488 -0.936004,0.672 -1.512,0.84 -1.872002,0.528 -0.503999,-0.408 -0.407998,-0.84 0.407998,-1.632 0.792001,-0.816 1.992002,-1.008 2.232003,-0.384 z" />
  <path
     style="fill:#000000;stroke:none"
     inkscape:connector-curvature="0"
     id="path3089"
     d="m 84.336,141.192 c -0.07202,0.21599 -0.048,1.824 0.072,3.552 0.143999,2.352 0.288004,3.216 0.528001,3.288 0.264003,0.096 0.312006,-0.456 0.144006,-3.336 -0.144002,-3.264 -0.384003,-4.39201 -0.744004,-3.504 z" />
  <path
     style="fill:#000000;stroke:none"
     inkscape:connector-curvature="0"
     id="path3091"
     d="m 88.608001,141.43199 c -0.792007,0.84001 -0.600004,2.20801 0.407996,2.97601 0.576005,0.456 1.823998,0.384 2.255999,-0.12 0.576006,-0.624 0.504008,-0.864 -0.119995,-0.432 -0.720004,0.504 -0.984003,0.48 -1.727998,-0.216 -0.432003,-0.408 -0.62401,-0.816 -0.623999,-1.416 -2e-6,-1.00801 0.335998,-1.272 1.103997,-0.84 0.599983,0.31203 0.984001,0.192 0.695994,-0.24001 -0.263996,-0.45599 -1.463993,-0.28799 -1.991994,0.288 z" />
  <path
     style="fill:#000000;stroke:none"
     inkscape:connector-curvature="0"
     id="path3093"
     d="m 159.192,144.288 c -0.0961,0.19198 -0.048,0.24 0.47999,0.28804 0.16797,0.024 0.26399,0.28801 0.21599,0.624 -0.144,1.08 -1.032,4.20001 -1.272,4.44 -0.408,0.40801 -0.24003,0.47999 0.98398,0.50404 1.20001,0 1.56001,-0.192 0.816,-0.48 -0.264,-0.096 -0.336,-0.312 -0.24,-0.696 0.096,-0.28801 0.19196,-0.64801 0.24002,-0.81599 0.072,-0.38402 0.33602,-0.62399 0.69599,-0.696 0.16799,-0.024 0.672,-0.192 1.152,-0.408 0.64801,-0.264 0.91201,-0.52801 1.008,-1.10401 0.21601,-1.00799 0.024,-1.392 -0.864,-1.67999 -0.84,-0.264 -3.024,-0.24 -3.216,0.024 z m 3.04799,0.552 c 0.43201,0.528 0.096,1.488 -0.69597,1.872 -0.408,0.19201 -0.768,0.312 -0.816,0.24001 -0.096,-0.096 0.144,-1.248 0.432,-2.18401 0.14397,-0.40801 0.72,-0.35999 1.07999,0.072 z" />
  <path
     style="fill:#000000;stroke:none"
     inkscape:connector-curvature="0"
     id="path3095"
     d="m 70.872001,145.43999 c -1.896003,0.76801 -1.392,3.648 0.624,3.576 0.671998,-0.024 0.719999,-0.072 0.263998,-0.14399 -0.864002,-0.168 -1.199981,-0.52805 -1.2,-1.296 0,-0.6 0.096,-0.696 0.671999,-0.72 0.384002,-0.024 0.480001,-0.072 0.24,-0.144 -0.240003,-0.048 -0.432,-0.312 -0.432001,-0.552 3e-6,-0.264 0.192007,-0.576 0.432002,-0.696 0.504001,-0.312 0.119999,-0.31201 -0.599998,-0.024 z" />
  <path
     style="fill:#000000;stroke:none"
     inkscape:connector-curvature="0"
     id="path3097"
     d="m 80.688001,145.368 c -0.216003,0.096 -0.239999,0.192 -0.048,0.43199 0.143996,0.16802 0.311997,0.84001 0.407997,1.51201 0.119996,1.056 0.072,1.224 -0.383994,1.488 -0.744005,0.384 -1.152007,-1e-5 -1.344001,-1.272 -0.240005,-1.608 -0.360006,-1.84801 -0.864003,-1.848 -0.455998,-1e-5 -0.623999,0.36 -0.24013,0.57595 0.09599,0.072 0.263998,0.67199 0.359998,1.34399 0.191999,1.44 0.888,1.96801 1.944,1.488 0.336003,-0.168 0.888001,-0.288 1.200004,-0.288 0.623997,0 0.768,-0.216 0.360032,-0.62398 -0.119982,-0.12003 -0.311998,-0.816 -0.408001,-1.512 -0.191993,-1.296 -0.383991,-1.536 -0.983994,-1.296 z" />
  <path
     style="fill:#000000;stroke:none"
     inkscape:connector-curvature="0"
     id="path3099"
     d="m 72.503998,145.968 c 0.240001,0.432 0.192,0.576 -0.168001,0.84 -0.24,0.168 -0.311998,0.312 -0.168003,0.312 0.144013,-3e-5 0.431999,0.072 0.648003,0.14399 0.287972,0.12007 0.383999,-0.024 0.384,-0.552 -3e-6,-0.67199 -0.360003,-1.27199 -0.768,-1.272 -0.120005,1e-5 -0.072,0.24001 0.072,0.52801 z" />
  <path
     style="fill:#000000;stroke:none"
     inkscape:connector-curvature="0"
     id="path3101"
     d="m 74.903999,146.448 c -0.26401,0.71999 -0.143997,0.984 0.696001,1.488 0.767988,0.43202 0.959996,1.272 0.360003,1.512 -0.216002,0.072 -0.600003,-0.072 -0.840002,-0.28801 -0.408001,-0.384 -0.479994,-0.384 -0.479999,-0.048 -4e-6,0.48001 1.247996,0.76801 1.896004,0.40801 0.791996,-0.408 0.623971,-1.32001 -0.359999,-2.064 -0.576009,-0.456 -0.816001,-0.792 -0.743999,-1.104 0.167975,-0.62401 -0.28801,-0.528 -0.528005,0.096 z" />
  <path
     style="fill:#000000;stroke:none"
     inkscape:connector-curvature="0"
     id="path3103"
     d="m 162.24,149.232 c -4e-5,0.16798 0.12,0.24 0.23999,0.16803 0.14396,-0.096 0.264,0.31199 0.264,1.00799 0.024,0.62401 0.048,1.36801 0.072,1.632 0.024,0.264 -0.12,0.672 -0.31198,0.88802 -0.19203,0.23998 -0.28799,0.432 -0.23995,0.45602 0.048,-4e-5 0.504,0.048 1.008,0.072 1.032,0.048 1.344,-0.192 0.72001,-0.552 -0.36,-0.19203 -0.43201,-0.552 -0.43201,-2.112 l 0,-1.87201 -0.648,1e-5 c -0.408,-0.024 -0.672,0.096 -0.672,0.312 z" />
  <path
     style="fill:#000000;stroke:none"
     inkscape:connector-curvature="0"
     id="path3105"
     d="m 192.912,158.664 c -0.456,0.264 -0.6,0.936 -0.19201,0.936 0.14402,-3e-5 0.192,0.264 0.096,0.648 -0.216,0.96 -0.144,2.04 0.144,2.232 0.14399,0.096 0.52798,0.12005 0.864,0.048 0.67199,-0.12 0.76801,0.31199 0.24,1.056 -0.36,0.456 -0.36,0.456 -0.72001,-0.024 -0.26399,-0.384 -0.40799,-0.408 -0.64801,-0.19196 -0.24,0.23999 -0.21603,0.35999 0.024,0.672 0.6,0.71999 1.848,0.19199 2.52,-1.05601 0.38401,-0.768 1.368,-4.36799 1.224,-4.53599 -0.24,-0.21601 -1.104,0.50399 -1.104,0.936 0,0.552 -0.84,2.27999 -1.224,2.51999 -0.504,0.28801 -0.64799,-0.408 -0.312,-1.53599 0.192,-0.60001 0.336,-1.27201 0.336,-1.536 1e-5,-0.48001 -0.576,-0.576 -1.24799,-0.16801 z" />
  <path
     style="color:#000000;fill:none;stroke:#000000;stroke-width:0.70000005;stroke-linecap:butt;stroke-linejoin:miter;stroke-miterlimit:4;stroke-opacity:1;stroke-dasharray:none;stroke-dashoffset:0;marker:none;visibility:visible;display:inline;overflow:visible;enable-background:accumulate"
     d="M 159.57005,140.06483 77.874008,93.961506 81.418529,99.558103"
     id="path3186"
     inkscape:connector-curvature="0"
     sodipodi:nodetypes="ccc" />
  <path
     style="color:#000000;fill:none;stroke:#000000;stroke-width:0.70000005;stroke-linecap:butt;stroke-linejoin:miter;stroke-miterlimit:4;stroke-opacity:1;stroke-dasharray:none;stroke-dashoffset:0;marker:none;visibility:visible;display:inline;overflow:visible;enable-background:accumulate"
     d="m 84.54325,104.97716 2.670897,4.33965"
     id="path3188"
     inkscape:connector-curvature="0"
     sodipodi:nodetypes="cc" />
  <rect
     style="fill:#ffffff;fill-opacity:1;stroke:none"
     id="rect3996"
     width="3.7732804"
     height="4.1259232"
     x="81.072632"
     y="100.4572" />
  <text
     xml:space="preserve"
     style="font-size:8.64000034px;font-style:italic;font-variant:normal;font-weight:bold;font-stretch:normal;text-indent:0;text-align:start;text-decoration:none;line-height:125%;letter-spacing:0px;word-spacing:0px;text-transform:none;direction:ltr;block-progression:tb;writing-mode:lr-tb;text-anchor:start;baseline-shift:baseline;color:#000000;fill:#000000;fill-opacity:1;fill-rule:nonzero;stroke:none;stroke-width:0.99999994px;marker:none;visibility:visible;display:inline;overflow:visible;enable-background:accumulate;font-family:Linux Libertine O;-inkscape-font-specification:Linux Libertine O Bold Italic"
     x="80.93158"
     y="104.05415"
     id="text3998"
     sodipodi:linespacing="125%"><tspan
       sodipodi:role="line"
       id="tspan4000"
       x="80.93158"
       y="104.05415">s</tspan></text>
  <text
     xml:space="preserve"
     style="font-size:15.20000076px;font-style:normal;font-variant:normal;font-weight:bold;font-stretch:normal;text-indent:0;text-align:start;text-decoration:none;line-height:125%;letter-spacing:0px;word-spacing:0px;text-transform:none;direction:ltr;block-progression:tb;writing-mode:lr-tb;text-anchor:start;baseline-shift:baseline;color:#000000;fill:#000000;fill-opacity:1;fill-rule:nonzero;stroke:none;stroke-width:0.99999994px;marker:none;visibility:visible;display:inline;overflow:visible;enable-background:accumulate;font-family:Linux Libertine O;-inkscape-font-specification:Sans"
     x="74.392189"
     y="79.179092"
     id="text4137"
     sodipodi:linespacing="125%"><tspan
       sodipodi:role="line"
       id="tspan4139"
       x="74.392189"
       y="79.179092"
       style="font-size:8.64000034px">d<tspan
   style="font-style:italic;-inkscape-font-specification:Linux Libertine O Bold Italic"
   id="tspan4141">s</tspan></tspan></text>
  <text
     xml:space="preserve"
     style="font-size:8.64000034px;font-style:normal;font-variant:normal;font-weight:bold;font-stretch:normal;text-indent:0;text-align:start;text-decoration:none;line-height:125%;letter-spacing:0px;word-spacing:0px;text-transform:none;direction:ltr;block-progression:tb;writing-mode:lr-tb;text-anchor:start;baseline-shift:baseline;color:#000000;fill:#000000;fill-opacity:1;fill-rule:nonzero;stroke:none;stroke-width:1.24999988px;marker:none;visibility:visible;display:inline;overflow:visible;enable-background:accumulate;font-family:Linux Libertine O;-inkscape-font-specification:Sans"
     x="102.51003"
     y="79.461685"
     id="text4143"
     sodipodi:linespacing="125%"><tspan
       sodipodi:role="line"
       id="tspan4145"
       x="102.51003"
       y="79.461685"
       style="font-style:italic;-inkscape-font-specification:Linux Libertine O Bold Italic">a</tspan></text>
  <path
     style="color:#000000;fill:none;stroke:#000000;stroke-width:0.875;stroke-linecap:butt;stroke-linejoin:miter;stroke-miterlimit:4;stroke-opacity:1;stroke-dasharray:none;stroke-dashoffset:0;marker:none;visibility:visible;display:inline;overflow:visible;enable-background:accumulate"
     d="m 129.37388,101.005 -14.21789,25.34491"
     id="path4147"
     inkscape:connector-curvature="0"
     transform="matrix(0.80000003,0,0,0.80000003,0,-5.575327e-6)"
     sodipodi:nodetypes="cc" />
  <path
     style="color:#000000;fill:none;stroke:#000000;stroke-width:0.875;stroke-linecap:butt;stroke-linejoin:miter;stroke-miterlimit:4;stroke-opacity:1;stroke-dasharray:none;stroke-dashoffset:0;marker:none;visibility:visible;display:inline;overflow:visible;enable-background:accumulate"
     d="m 114.09628,128.0278 -4.76873,8.30112"
     id="path4149"
     inkscape:connector-curvature="0"
     transform="matrix(0.80000003,0,0,0.80000003,0,-5.575327e-6)"
     sodipodi:nodetypes="cc" />
  <path
     style="color:#000000;fill:none;stroke:#000000;stroke-width:0.70000005;stroke-linecap:butt;stroke-linejoin:miter;stroke-miterlimit:4;stroke-opacity:1;stroke-dasharray:none;stroke-dashoffset:0;marker:none;visibility:visible;display:inline;overflow:visible;enable-background:accumulate"
     d="m 108.58574,71.761071 -1.83684,3.320447"
     id="path4149-2"
     inkscape:connector-curvature="0"
     sodipodi:nodetypes="cc" />
</svg>
