<?xml version="1.0" encoding="UTF-8" standalone="no"?>
<svg
   xmlns:dc="http://purl.org/dc/elements/1.1/"
   xmlns:cc="http://creativecommons.org/ns#"
   xmlns:rdf="http://www.w3.org/1999/02/22-rdf-syntax-ns#"
   xmlns:svg="http://www.w3.org/2000/svg"
   xmlns="http://www.w3.org/2000/svg"
   xmlns:sodipodi="http://sodipodi.sourceforge.net/DTD/sodipodi-0.dtd"
   xmlns:inkscape="http://www.inkscape.org/namespaces/inkscape"
   version="1.0"
   width="375.360000pt"
   height="225.600000pt"
   viewBox="0 0 375.360000 225.600000"
   preserveAspectRatio="xMidYMid meet"
   id="svg2989"
   inkscape:version="0.48.4 r9939"
   sodipodi:docname="black.svg">
  <defs
     id="defs3103" />
  <sodipodi:namedview
     pagecolor="#ffffff"
     bordercolor="#666666"
     borderopacity="1"
     objecttolerance="10"
     gridtolerance="10"
     guidetolerance="10"
     inkscape:pageopacity="0"
     inkscape:pageshadow="2"
     inkscape:window-width="1280"
     inkscape:window-height="996"
     id="namedview3101"
     showgrid="false"
     inkscape:zoom="2.0636485"
     inkscape:cx="260.42074"
     inkscape:cy="127.6283"
     inkscape:window-x="0"
     inkscape:window-y="0"
     inkscape:window-maximized="1"
     inkscape:current-layer="svg2989" />
  <metadata
     id="metadata2991">
Created by potrace 1.10, written by Peter Selinger 2001-2011
<rdf:RDF>
  <cc:Work
     rdf:about="">
    <dc:format>image/svg+xml</dc:format>
    <dc:type
       rdf:resource="http://purl.org/dc/dcmitype/StillImage" />
    <dc:title></dc:title>
  </cc:Work>
</rdf:RDF>
</metadata>
  <g
     style="fill:#b9b9b9;stroke:none"
     transform="matrix(0.024,0,0,-0.024,0,225.6)"
     id="g6">
    <path
       inkscape:connector-curvature="0"
       d="M 0,4700 0,0 l 7820,0 7820,0 0,4700 0,4700 -7820,0 -7820,0 0,-4700 z"
       id="path8" />
  </g>
  <g
     transform="translate(0.000000,225.600000) scale(0.024000,-0.024000)"
     fill="#000000"
     stroke="none"
     id="g2993">
    <path
       d="M8382 8615 c-16 -13 -37 -46 -47 -72 -22 -61 -30 -69 -50 -53 -22 18 -19 77 5 103 12 13 16 23 10 25 -6 2 -25 -10 -42 -28 -27 -29 -30 -37 -25 -78 3 -26 10 -48 16 -50 6 -2 21 -12 33 -22 19 -15 21 -21 11 -31 -18 -19 -16 -29 6 -29 14 0 21 8 23 27 2 23 9 29 39 34 51 8 94 42 113 89 21 52 20 62 -4 88 -27 29 -52 28 -88 -3z m62 -31 c44 -17 -8 -95 -71 -109 -27 -5 -33 -4 -33 11 0 37 41 86 87 103 1 1 8 -2 17 -5z"
       id="path2995" />
    <path
       d="M8349 8266 c-4 -5 -4 -4 6 -1199 7 -902 9 -858 -35 -939 -20 -36 -29 -54 -50 -98 -29 -63 -73 -144 -81 -150 -3 -3 -17 -25 -29 -50 -12 -25 -25 -47 -29 -50 -3 -3 -17 -25 -30 -50 -13 -25 -44 -76 -69 -115 -25 -38 -55 -86 -67 -105 -82 -131 -105 -166 -113 -176 -5 -5 -15 -21 -22 -34 -7 -13 -17 -29 -22 -34 -17 -21 -57 -82 -74 -111 -9 -16 -20 -32 -24 -35 -4 -3 -16 -19 -26 -35 -11 -17 -72 -100 -136 -185 -168 -222 -206 -271 -241 -310 -18 -19 -50 -57 -72 -86 -52 -66 -194 -221 -324 -353 -57 -58 -111 -115 -120 -126 -43 -52 -420 -381 -517 -450 -15 -11 -50 -38 -78 -61 -28 -22 -68 -51 -89 -63 -21 -13 -46 -31 -55 -41 -19 -19 -269 -184 -372 -246 -36 -21 -67 -42 -70 -45 -3 -4 -25 -16 -50 -29 -25 -12 -52 -28 -60 -35 -8 -7 -40 -25 -70 -41 -30 -16 -68 -38 -85 -50 -35 -25 -497 -254 -571 -283 -28 -11 -73 -30 -100 -42 -124 -55 -389 -159 -406 -159 -8 0 -18 -4 -24 -8 -5 -5 -29 -15 -54 -22 -25 -8 -49 -17 -55 -20 -5 -4 -19 -10 -30 -13 -11 -3 -85 -29 -165 -57 -80 -29 -172 -59 -205 -69 -33 -9 -64 -19 -70 -22 -5 -4 -23 -10 -40 -14 -16 -5 -34 -10 -40 -11 -264 -83 -394 -122 -500 -149 -49 -13 -130 -35 -180 -49 -202 -59 -375 -106 -455 -127 -47 -11 -92 -23 -100 -25 -19 -5 -239 -62 -265 -69 -147 -37 -515 -124 -596 -140 -139 -28 -151 -33 -147 -63 2 -15 8 -26 14 -25 6 1 32 4 59 8 26 3 51 7 54 10 4 2 18 6 32 9 13 2 58 12 99 21 41 9 84 18 95 20 70 15 123 28 140 35 17 7 42 13 115 27 8 1 40 9 70 18 30 9 63 18 73 20 9 2 45 11 80 20 34 9 73 18 87 21 25 4 112 27 225 59 33 9 85 23 115 30 30 8 89 23 130 35 110 31 207 57 275 75 33 9 67 19 75 22 8 3 22 7 31 9 8 2 87 26 175 53 87 27 193 59 234 71 93 28 315 98 352 112 15 6 30 10 32 9 3 0 26 8 52 19 25 11 50 18 55 14 5 -3 9 -1 9 4 0 9 76 37 98 35 6 0 12 2 12 6 0 7 90 37 103 33 4 -1 7 2 7 7 0 5 12 12 27 16 29 7 378 144 448 175 238 108 384 176 455 213 47 25 114 60 150 79 35 18 80 43 98 55 19 13 38 20 43 17 5 -3 9 -1 9 4 0 5 17 17 37 28 21 10 55 31 77 47 21 15 42 27 46 27 4 0 42 24 85 53 91 61 95 64 115 71 8 3 76 49 150 101 74 52 164 115 200 139 36 25 82 61 104 80 21 19 57 48 80 63 49 34 65 47 230 194 175 155 438 416 566 563 58 65 129 145 158 177 28 32 52 62 52 66 0 5 13 22 28 38 49 53 153 188 279 363 104 144 104 144 166 237 32 48 65 94 73 102 8 8 14 19 14 25 0 5 9 22 21 36 23 31 38 54 139 217 87 139 91 146 120 202 12 23 31 57 43 76 12 18 33 53 46 78 30 57 49 84 56 77 3 -2 7 -290 10 -639 2 -349 7 -1068 11 -1599 10 -1454 11 -1658 13 -2394 1 -374 -2 -683 -7 -688 -8 -8 -386 -9 -2165 -8 l-737 0 2 105 c1 69 -2 109 -9 116 -17 17 -22 -18 -20 -124 1 -49 -1 -91 -4 -93 -9 -5 -2866 -7 -2876 -1 -4 3 -9 58 -11 124 -2 65 -7 122 -13 127 -11 12 -10 22 -12 -134 l-2 -124 -320 1 c-176 1 -436 3 -578 4 -183 1 -261 -1 -270 -10 -6 -6 -7 -12 -2 -13 6 -1 3130 -2 6943 -3 5658 -1 6932 1 6932 12 0 10 -102 13 -521 12 -286 0 -522 1 -524 3 -2 2 -14 200 -15 251 0 4 -5 7 -11 7 -8 0 -10 -37 -6 -125 2 -73 0 -128 -5 -131 -15 -10 -2819 -7 -2828 2 -5 5 -10 57 -12 117 -4 147 -23 141 -23 -8 l0 -115 -200 0 c-1464 -1 -2669 0 -2671 2 -4 5 -17 1606 -29 3628 -8 1406 -8 1720 1 1718 12 -2 37 -35 63 -83 11 -22 31 -57 43 -77 13 -20 45 -74 72 -120 58 -98 83 -138 202 -317 49 -73 103 -154 119 -180 17 -26 47 -69 68 -97 67 -87 169 -228 179 -248 6 -11 23 -33 38 -50 15 -17 58 -71 96 -121 200 -266 741 -833 939 -985 22 -17 50 -41 61 -53 12 -12 34 -31 49 -42 16 -11 45 -35 66 -53 20 -18 53 -45 72 -60 20 -15 61 -47 93 -72 95 -75 274 -198 429 -298 11 -7 32 -20 47 -30 23 -15 81 -52 128 -81 74 -47 230 -137 295 -171 188 -99 537 -270 551 -270 2 0 37 -15 77 -34 108 -50 127 -59 312 -132 94 -37 232 -89 309 -115 76 -27 141 -51 144 -54 3 -3 14 -5 24 -5 10 0 18 -5 18 -11 0 -5 3 -8 8 -5 6 4 64 -13 122 -37 18 -7 367 -117 395 -124 11 -3 72 -21 135 -40 198 -60 350 -103 485 -139 72 -19 137 -37 145 -40 8 -4 22 -8 30 -9 8 -1 42 -10 75 -19 33 -10 67 -20 75 -22 8 -2 83 -21 165 -41 83 -21 152 -41 153 -45 2 -5 7 -6 11 -3 5 2 80 -14 167 -36 87 -23 202 -51 254 -64 52 -12 105 -25 116 -29 25 -8 36 10 27 44 -4 13 -16 23 -35 27 -15 3 -31 10 -34 14 -3 5 -9 7 -13 5 -4 -3 -64 8 -132 25 -68 17 -180 43 -249 59 -69 16 -174 42 -235 59 -60 16 -200 52 -310 81 -110 29 -207 56 -216 61 -9 4 -19 6 -22 3 -3 -3 -14 -1 -25 5 -10 5 -30 12 -43 15 -13 2 -76 20 -139 39 -63 20 -142 42 -176 51 -34 9 -96 27 -138 41 -42 15 -86 28 -98 30 -23 5 -287 90 -323 105 -11 4 -94 33 -185 63 -244 81 -434 152 -502 188 -10 5 -23 9 -29 9 -6 0 -46 15 -88 34 -42 18 -116 51 -166 71 -172 72 -717 346 -756 381 -8 8 -18 14 -21 14 -7 0 -116 65 -193 115 -27 17 -77 49 -110 70 -127 81 -303 202 -340 233 -11 9 -38 30 -60 46 -22 17 -42 32 -45 36 -3 3 -23 18 -45 34 -22 16 -56 43 -76 60 -20 17 -71 60 -114 96 -209 175 -273 236 -578 549 -173 179 -427 473 -480 558 -14 22 -32 46 -39 54 -30 30 -251 335 -354 489 -37 54 -167 257 -199 310 -12 19 -34 54 -49 77 -27 41 -35 55 -85 145 -13 23 -27 45 -30 48 -4 3 -37 60 -73 126 l-67 121 -1 669 c0 368 -2 723 -5 789 -2 66 -4 227 -5 358 0 208 -4 250 -21 233z"
       id="path2997" />
    <path
       d="M9350 7223 c0 -41 125 -491 145 -524 12 -18 27 -9 22 14 -2 12 -26 96 -52 187 -25 91 -56 203 -68 249 -12 47 -28 86 -34 89 -7 2 -13 -4 -13 -15z"
       id="path2999" />
    <path
       d="M7250 7204 c0 -20 -95 -482 -110 -534 -13 -46 -13 -50 5 -50 8 0 19 16 25 38 37 133 110 518 102 541 -4 11 -22 16 -22 5z"
       id="path3001" />
    <path
       d="M9526 6621 c-6 -9 28 -130 47 -166 5 -11 16 -40 23 -65 16 -56 82 -241 89 -248 3 -3 11 0 17 6 9 9 9 17 0 34 -6 13 -16 41 -23 63 -7 22 -16 45 -19 50 -4 6 -31 83 -60 173 -30 89 -57 162 -61 162 -4 0 -10 -4 -13 -9z"
       id="path3003" />
    <path
       d="M7089 6463 c-6 -15 -26 -84 -45 -152 -18 -68 -48 -167 -66 -220 -18 -53 -33 -98 -33 -101 -1 -3 -5 -13 -10 -23 -10 -23 8 -43 22 -25 11 15 73 200 109 328 13 47 28 99 33 115 18 58 22 93 12 100 -6 3 -16 -6 -22 -22z"
       id="path3005" />
    <path
       d="M9740 5996 c0 -13 5 -28 10 -31 6 -3 10 -16 10 -29 0 -12 4 -26 9 -31 4 -6 34 -73 66 -150 79 -192 123 -285 135 -285 22 0 14 22 -69 203 -17 37 -31 72 -31 76 0 5 -6 22 -14 38 -8 15 -20 42 -26 58 -7 17 -16 39 -21 50 -5 11 -17 42 -26 69 -20 55 -43 72 -43 32z"
       id="path3007" />
    <path
       d="M6867 5783 c-3 -5 -23 -55 -46 -113 -23 -58 -85 -194 -139 -302 -54 -109 -95 -202 -92 -208 14 -23 44 30 189 335 29 61 56 119 61 130 19 45 60 156 60 160 0 8 -28 6 -33 -2z"
       id="path3009" />
    <path
       d="M11745 5430 c-3 -5 3 -10 13 -10 53 0 48 -49 -12 -114 -20 -22 -36 -43 -36 -48 0 -4 26 -7 57 -5 52 2 57 4 64 30 5 20 4 27 -7 27 -8 0 -13 -6 -11 -12 1 -8 -11 -14 -30 -16 -42 -4 -41 6 2 48 30 29 35 41 33 72 -2 36 -4 38 -34 38 -18 0 -36 -4 -39 -10z"
       id="path3011" />
    <path
       d="M10010 5383 c0 -10 17 -50 37 -88 78 -146 100 -186 151 -278 54 -98 82 -133 82 -104 0 9 -11 35 -23 59 -53 97 -153 284 -198 369 -6 13 -15 30 -19 38 -10 23 -30 25 -30 4z"
       id="path3013" />
    <path
       d="M11352 5311 c-72 -5 -86 -9 -103 -30 -33 -40 -25 -52 17 -25 38 26 46 7 23 -60 -25 -77 -24 -88 4 -84 12 2 22 8 23 13 3 43 17 124 24 135 14 23 32 0 25 -34 -17 -82 -14 -106 16 -106 16 0 18 8 17 63 -2 78 5 91 43 83 29 -5 30 -5 33 36 1 14 -19 15 -122 9z"
       id="path3015" />
    <path
       d="M11994 5284 c-33 -11 -54 -29 -73 -64 -7 -13 -7 -37 -2 -88 1 -17 58 -41 81 -35 10 3 30 18 46 34 21 22 28 39 29 76 1 42 4 48 22 46 19 -2 51 22 42 31 -11 11 -113 11 -145 0z m43 -64 c-8 -73 -66 -122 -82 -69 -15 47 20 109 62 109 23 0 25 -3 20 -40z"
       id="path3017" />
    <path
       d="M11542 5239 c-59 -58 -45 -153 17 -119 12 6 22 5 30 -3 8 -8 18 -4 39 18 15 16 18 22 8 14 -19 -14 -19 -12 -13 49 4 34 3 63 -1 63 -39 7 -55 3 -80 -22z m54 -29 c-10 -66 -45 -104 -59 -66 -12 31 23 106 50 106 13 0 14 -8 9 -40z"
       id="path3019" />
    <path
       d="M6530 5068 c-8 -13 -19 -32 -25 -43 -28 -50 -89 -154 -115 -195 -16 -25 -39 -61 -50 -80 -33 -57 -43 -73 -72 -111 -16 -20 -28 -44 -28 -53 0 -22 29 -20 37 2 3 9 18 35 33 57 42 62 95 146 116 185 10 19 25 41 32 48 6 7 12 18 12 24 0 5 8 22 19 36 18 26 81 141 81 148 0 13 -28 0 -40 -18z"
       id="path3021" />
    <path
       d="M10840 4989 c-43 -38 -81 -69 -84 -69 -8 0 -7 1 -135 -109 -29 -25 -37 -26 -45 -4 -6 15 -9 14 -24 -9 -25 -37 -101 -118 -111 -118 -5 0 -22 20 -38 45 -60 97 -68 109 -82 113 -30 10 -1 -53 76 -166 18 -26 42 -65 54 -86 11 -21 30 -48 40 -60 11 -11 31 -40 46 -65 44 -75 73 -101 73 -63 0 9 -24 50 -53 89 -28 40 -64 92 -79 115 l-27 43 22 17 c12 10 52 30 88 45 64 27 66 28 52 50 -13 20 -12 23 14 40 15 9 30 20 33 23 22 23 176 153 198 167 15 9 37 25 49 36 18 16 36 19 104 19 104 -1 95 11 -12 14 l-80 2 -79 -69z"
       id="path3023" />
    <path
       d="M11180 5050 c-8 -5 -13 -10 -10 -11 26 -6 970 -5 970 1 0 4 -7 10 -15 14 -27 10 -929 6 -945 -4z"
       id="path3025" />
    <path
       d="M11622 4993 c-7 -2 -17 -14 -23 -25 -9 -16 -8 -19 2 -13 9 6 10 0 4 -26 -16 -72 -2 -100 40 -81 30 14 32 5 9 -44 -18 -39 -22 -40 -38 -18 -11 14 -13 14 -25 1 -10 -13 -9 -17 8 -26 46 -25 86 23 112 134 7 28 15 54 20 59 4 5 5 15 2 22 -10 27 -29 13 -40 -29 -13 -47 -46 -92 -62 -83 -6 4 -4 26 5 59 20 77 19 84 -14 70z"
       id="path3027" />
    <path
       d="M6131 4444 c-12 -15 -21 -30 -21 -35 0 -4 -6 -14 -13 -21 -7 -7 -30 -35 -51 -63 -21 -27 -50 -63 -65 -80 -14 -16 -40 -48 -56 -69 -17 -22 -45 -56 -62 -75 -35 -38 -40 -51 -21 -51 12 0 99 89 141 144 12 16 38 47 57 70 20 23 49 60 65 83 17 24 40 57 53 74 12 18 22 36 22 40 0 18 -29 8 -49 -17z"
       id="path3029" />
    <path
       d="M10670 4272 c0 -33 417 -492 447 -492 22 0 15 17 -24 57 -89 93 -246 265 -318 348 -72 83 -105 110 -105 87z"
       id="path3031" />
    <path
       d="M5713 3938 c-39 -40 -123 -124 -187 -187 -64 -62 -116 -117 -116 -121 0 -44 79 26 323 287 43 45 77 84 77 87 0 21 -36 -4 -97 -66z"
       id="path3033" />
    <path
       d="M11220 3676 c0 -7 30 -40 67 -72 38 -32 102 -90 143 -129 153 -142 237 -208 253 -198 10 6 -25 46 -74 82 -55 41 -162 137 -266 239 -90 88 -123 109 -123 78z"
       id="path3035" />
    <path
       d="M5240 3484 c-88 -79 -199 -171 -284 -237 -20 -16 -34 -33 -30 -38 8 -14 72 25 150 93 38 33 94 79 124 102 48 35 109 88 156 134 15 15 10 32 -9 31 -7 0 -55 -39 -107 -85z"
       id="path3037" />
    <path
       d="M11810 3186 c0 -15 76 -72 231 -173 19 -13 41 -27 49 -33 80 -54 106 -70 114 -70 5 0 18 -8 28 -17 13 -11 22 -13 29 -6 7 7 -1 18 -25 36 -19 15 -39 27 -43 27 -5 0 -18 8 -29 18 -11 11 -32 25 -46 33 -40 22 -167 107 -231 155 -60 46 -77 53 -77 30z"
       id="path3039" />
    <path
       d="M4792 3130 c-27 -22 -54 -40 -59 -40 -5 0 -28 -16 -50 -35 -23 -19 -44 -35 -48 -35 -4 0 -34 -18 -66 -40 -32 -22 -63 -40 -68 -40 -4 0 -25 -13 -46 -30 -21 -16 -42 -30 -48 -30 -19 0 -79 -52 -70 -61 10 -10 59 14 148 72 33 21 78 48 100 60 22 12 42 25 45 29 3 4 37 28 75 53 134 89 165 112 165 124 0 23 -26 14 -78 -27z"
       id="path3041" />
    <path
       d="M12400 2813 c0 -11 18 -28 43 -42 118 -68 379 -205 423 -221 18 -7 24 -6 24 4 0 8 -59 44 -132 81 -73 37 -138 71 -144 76 -6 5 -35 21 -65 37 -30 15 -75 40 -101 55 -42 24 -48 26 -48 10z"
       id="path3043" />
    <path
       d="M4215 2771 c-9 -9 -31 -22 -152 -87 -27 -14 -52 -30 -58 -35 -5 -5 -14 -9 -20 -9 -6 0 -53 -22 -105 -50 -52 -27 -100 -50 -106 -50 -20 0 -27 -20 -10 -26 15 -6 168 66 336 156 116 62 149 84 150 98 0 14 -22 16 -35 3z"
       id="path3045" />
    <path
       d="M11606 2722 c-16 -26 -38 -57 -49 -69 -16 -18 -18 -25 -8 -37 15 -18 10 -36 -34 -131 -18 -38 -44 -96 -58 -127 l-27 -58 -65 0 c-80 0 -79 -16 1 -19 58 -2 94 16 94 45 0 7 11 34 25 61 13 26 38 79 54 118 25 59 38 77 69 92 4 1 42 151 42 164 0 21 -17 6 -44 -39z"
       id="path3047" />
    <path
       d="M12960 2515 c0 -8 15 -20 33 -28 17 -8 55 -25 82 -37 28 -12 51 -22 53 -20 2 1 13 -5 25 -13 12 -7 55 -26 95 -42 39 -15 72 -32 72 -37 0 -5 3 -7 8 -4 4 2 32 -6 62 -20 61 -26 94 -30 88 -11 -4 10 -83 46 -239 108 -14 5 -79 34 -145 64 -65 30 -122 55 -126 55 -4 0 -8 -7 -8 -15z"
       id="path3049" />
    <path
       d="M3570 2445 c-25 -13 -51 -24 -58 -24 -7 -1 -24 -8 -37 -17 -14 -9 -25 -13 -25 -9 0 4 -6 3 -12 -3 -13 -11 -252 -111 -278 -117 -33 -7 -70 -25 -70 -34 0 -19 26 -17 78 5 28 13 52 20 52 17 0 -3 11 2 25 11 14 9 25 14 25 12 0 -3 27 9 61 25 33 17 63 28 67 25 3 -3 13 1 22 9 9 8 26 16 38 18 12 2 28 9 34 15 7 7 17 12 23 12 6 0 40 14 75 31 48 23 60 33 49 40 -18 11 -15 12 -69 -16z"
       id="path3051" />
    <path
       d="M9944 2377 c-16 -14 -38 -48 -49 -77 -23 -60 -30 -67 -51 -49 -20 16 -13 73 12 100 16 18 16 19 0 19 -38 0 -77 -70 -65 -114 8 -28 40 -66 56 -66 5 0 9 -12 8 -27 0 -36 23 -42 27 -6 2 19 9 29 23 31 69 10 134 68 143 127 4 27 -17 75 -33 75 -8 0 -20 2 -28 6 -8 3 -27 -6 -43 -19z m74 -63 c4 -27 -59 -84 -93 -84 -36 0 -32 33 8 75 37 41 80 45 85 9z"
       id="path3053" />
    <path
       d="M10722 2372 c-10 -3 -8 -10 9 -28 23 -25 20 -60 -6 -51 -8 4 -28 -7 -45 -23 -26 -25 -29 -32 -20 -50 11 -21 54 -28 65 -10 3 6 -3 10 -14 10 -24 0 -29 28 -9 48 21 21 38 13 38 -17 0 -35 22 -55 50 -46 23 7 27 25 5 25 -11 0 -15 12 -15 49 0 38 -5 56 -22 74 -13 13 -29 22 -36 19z"
       id="path3055" />
    <path
       d="M10843 2363 c-8 -3 -5 -11 7 -23 34 -34 36 -68 6 -99 -31 -33 -32 -36 -6 -38 13 -1 20 4 20 15 0 9 6 25 13 34 12 15 14 15 25 -3 7 -11 10 -24 7 -29 -4 -6 -3 -10 2 -11 4 0 18 -2 31 -5 28 -5 28 -1 -3 44 -31 46 -31 53 0 82 13 12 22 26 19 31 -7 12 -45 6 -40 -7 6 -17 -10 -38 -24 -29 -6 4 -10 15 -7 25 4 17 -20 24 -50 13z"
       id="path3057" />
    <path
       d="M11006 2362 c-3 -5 -1 -14 5 -22 12 -21 11 -120 -2 -120 -5 0 -7 -4 -4 -10 3 -5 22 -10 42 -10 32 0 34 2 22 16 -8 10 -14 42 -14 77 -1 52 -4 61 -23 68 -12 5 -23 5 -26 1z"
       id="path3059" />
    <path
       d="M11116 2354 c-26 -25 -19 -53 19 -75 42 -25 48 -59 10 -59 -13 0 -29 8 -34 18 -9 15 -10 14 -11 -8 0 -21 5 -25 31 -27 46 -3 69 13 69 48 0 23 -7 34 -35 50 -19 12 -35 27 -35 35 0 22 31 30 45 11 16 -23 25 -21 25 3 0 16 -7 20 -34 20 -19 0 -42 -7 -50 -16z"
       id="path3061" />
    <path
       d="M10202 2337 c-38 -40 -24 -124 23 -145 30 -14 91 2 105 28 5 10 10 37 10 59 0 31 -6 44 -26 60 -36 28 -85 27 -112 -2z m83 -7 c22 -25 24 -95 2 -117 -33 -33 -81 16 -71 73 12 63 37 80 69 44z"
       id="path3063" />
    <path
       d="M10372 2353 c-10 -4 -10 -8 -2 -19 7 -8 10 -38 8 -74 l-3 -60 34 0 c32 0 33 1 19 18 -11 12 -14 34 -13 70 3 54 -12 76 -43 65z"
       id="path3065" />
    <path
       d="M10436 2352 c-2 -4 5 -9 16 -9 12 -1 25 -8 29 -15 12 -19 11 -102 -2 -115 -14 -14 19 -23 46 -12 11 4 14 8 8 8 -9 1 -13 19 -13 54 0 61 -20 97 -55 97 -13 0 -26 -4 -29 -8z"
       id="path3067" />
    <path
       d="M13555 2270 c-4 -6 -5 -13 -3 -15 9 -10 512 -185 529 -185 5 0 9 6 9 13 0 8 -57 33 -147 64 -174 60 -341 119 -364 128 -10 3 -20 1 -24 -5z"
       id="path3069" />
    <path
       d="M2705 2110 c-217 -74 -290 -98 -325 -104 -8 -2 -22 -6 -30 -9 -23 -9 -111 -35 -150 -45 -41 -10 -50 -39 -10 -34 25 4 375 109 460 139 25 9 52 17 60 18 17 3 37 9 105 37 27 11 54 21 60 22 38 7 85 30 85 42 0 8 -6 14 -12 13 -7 -1 -116 -36 -243 -79z"
       id="path3071" />
    <path
       d="M14163 2052 c9 -10 40 -24 69 -31 29 -7 62 -16 73 -21 11 -5 63 -21 115 -35 52 -15 130 -36 172 -48 72 -20 104 -19 82 3 -5 5 -52 21 -104 36 -52 14 -135 39 -185 54 -148 45 -201 60 -220 60 -17 0 -17 -1 -2 -18z"
       id="path3073" />
    <path
       d="M1975 1885 c-22 -8 -69 -21 -105 -30 -36 -9 -72 -18 -80 -20 -8 -3 -69 -19 -135 -35 -66 -17 -127 -33 -135 -35 -8 -3 -49 -13 -90 -23 -51 -12 -75 -22 -75 -32 0 -9 8 -14 20 -12 27 5 242 57 335 82 41 11 84 22 95 25 28 6 162 43 208 57 21 6 36 16 34 22 -5 17 -28 17 -72 1z"
       id="path3075" />
    <path
       d="M14760 1891 c0 -14 23 -28 57 -36 18 -3 35 -6 38 -6 3 1 20 -5 38 -12 17 -8 50 -18 72 -22 51 -10 43 -8 157 -39 113 -31 120 -31 116 -9 -3 15 -70 37 -174 57 -35 7 -187 48 -232 62 -49 16 -72 18 -72 5z"
       id="path3077" />
    <path
       d="M15357 742 c-21 -23 -21 -32 -3 -32 11 0 12 -9 4 -46 -11 -51 4 -80 35 -68 14 5 14 8 3 20 -11 10 -12 23 -5 51 23 94 23 93 2 93 -11 0 -27 -8 -36 -18z"
       id="path3079" />
    <path
       d="M15470 734 c-6 -14 -10 -29 -10 -34 0 -5 -9 -25 -19 -44 -11 -18 -16 -38 -11 -42 10 -11 -15 -74 -29 -74 -5 0 -13 5 -16 10 -10 16 -35 12 -35 -5 0 -9 12 -20 26 -26 21 -8 31 -6 46 8 27 24 47 64 54 108 3 20 11 50 18 68 14 33 11 57 -5 57 -5 0 -14 -12 -19 -26z"
       id="path3081" />
    <path
       d="M2587 552 c-10 -11 -17 -36 -17 -60 0 -35 3 -42 20 -42 24 0 26 25 3 38 -36 21 22 70 60 50 22 -11 22 -56 1 -88 -10 -14 -37 -46 -62 -72 -53 -55 -50 -58 53 -55 l70 2 3 38 c1 24 -1 36 -8 32 -5 -3 -10 -13 -10 -22 0 -11 -7 -14 -25 -11 -14 3 -28 2 -30 -2 -5 -8 -45 -2 -45 6 0 2 25 28 56 58 52 50 56 57 50 87 -3 18 -11 38 -17 46 -17 20 -83 16 -102 -5z"
       id="path3083" />
    <path
       d="M8359 551 c-64 -68 -46 -214 29 -235 30 -8 36 -6 67 24 32 31 35 39 35 95 0 48 -5 68 -26 98 -21 32 -30 37 -58 35 -18 -1 -39 -9 -47 -17z m71 -13 c18 -20 21 -33 18 -96 -2 -74 -17 -112 -43 -112 -49 0 -57 188 -10 222 13 10 11 11 35 -14z"
       id="path3085" />
    <path
       d="M14092 547 c-25 -11 -35 -40 -30 -83 4 -32 25 -44 35 -18 4 10 0 22 -11 29 -15 11 -14 43 3 46 93 19 95 -53 4 -151 -43 -47 -51 -60 -37 -61 23 -2 124 -2 142 0 7 1 12 15 11 39 0 34 -1 35 -11 15 -9 -19 -19 -23 -54 -23 -53 0 -63 13 -27 35 16 9 41 34 57 56 22 32 27 47 22 74 -9 44 -56 64 -104 42z"
       id="path3087" />
    <path
       d="M2810 487 c-34 -12 -62 -52 -70 -98 -9 -51 7 -64 79 -64 46 -1 58 3 68 20 17 28 16 40 -2 25 -24 -20 -25 -9 -9 54 8 32 13 60 10 63 -9 9 -51 9 -76 0z m40 -38 c0 -15 -5 -31 -10 -34 -6 -4 -8 -11 -5 -16 7 -10 -38 -59 -55 -59 -21 0 0 89 30 125 18 22 40 13 40 -16z"
       id="path3089" />
    <path
       d="M5651 475 c-60 -50 -71 -66 -71 -111 0 -37 4 -46 23 -53 12 -5 29 -5 37 -1 8 5 27 6 40 3 27 -5 70 30 56 44 -4 4 -11 1 -15 -6 -17 -26 -20 7 -6 60 8 30 15 57 15 60 0 12 -66 15 -79 4z m39 -38 c-1 -41 -37 -107 -60 -107 -24 0 -26 25 -6 73 26 63 66 83 66 34z"
       id="path3091" />
    <path
       d="M11315 468 c-36 -9 -53 -31 -64 -80 -15 -64 3 -86 66 -83 26 2 50 4 53 4 3 1 11 11 19 24 13 21 13 21 -4 7 -20 -16 -20 -23 1 102 6 34 5 36 -20 35 -14 -1 -37 -5 -51 -9z m45 -14 c0 -23 -26 -102 -38 -116 -18 -21 -42 -24 -43 -5 -3 28 4 62 12 65 5 2 9 11 9 21 0 9 5 22 12 29 12 12 48 17 48 6z"
       id="path3093" />
    <path
       d="M14271 449 c-17 -17 -34 -41 -37 -54 -15 -60 16 -112 54 -89 12 8 22 8 34 1 18 -12 41 2 59 35 9 18 8 18 -10 8 -25 -13 -25 -11 -6 59 8 30 12 57 10 61 -2 3 -19 7 -38 8 -28 2 -42 -4 -66 -29z m69 -11 c-1 -33 -44 -112 -63 -116 -20 -4 -23 31 -6 75 22 57 69 86 69 41z"
       id="path3095" />
    <path
       d="M2242 422 c-32 -2 -52 -7 -50 -14 2 -6 48 -11 122 -12 106 -2 139 4 122 21 -7 7 -114 10 -194 5z"
       id="path3097" />
    <path
       d="M5220 401 c0 -15 21 -18 134 -17 78 1 111 5 113 14 4 9 -25 12 -121 12 -69 0 -126 -4 -126 -9z"
       id="path3099" />
  </g>
</svg>
