<?xml version="1.0" encoding="UTF-8" standalone="no"?>
<svg
   xmlns:dc="http://purl.org/dc/elements/1.1/"
   xmlns:cc="http://creativecommons.org/ns#"
   xmlns:rdf="http://www.w3.org/1999/02/22-rdf-syntax-ns#"
   xmlns:svg="http://www.w3.org/2000/svg"
   xmlns="http://www.w3.org/2000/svg"
   xmlns:sodipodi="http://sodipodi.sourceforge.net/DTD/sodipodi-0.dtd"
   xmlns:inkscape="http://www.inkscape.org/namespaces/inkscape"
   version="1.0"
   width="185.040000pt"
   height="177.600000pt"
   viewBox="0 0 185.040000 177.600000"
   preserveAspectRatio="xMidYMid meet"
   id="svg3091"
   inkscape:version="0.48.4 r9939"
   sodipodi:docname="charged-cylinder.svg">
  <defs
     id="defs3209" />
  <sodipodi:namedview
     pagecolor="#ffffff"
     bordercolor="#666666"
     borderopacity="1"
     objecttolerance="10"
     gridtolerance="10"
     guidetolerance="10"
     inkscape:pageopacity="0"
     inkscape:pageshadow="2"
     inkscape:window-width="1280"
     inkscape:window-height="996"
     id="namedview3207"
     showgrid="false"
     inkscape:zoom="1.0165129"
     inkscape:cx="-105.18591"
     inkscape:cy="86.139385"
     inkscape:window-x="0"
     inkscape:window-y="0"
     inkscape:window-maximized="1"
     inkscape:current-layer="svg3091"
     showguides="true"
     inkscape:guide-bbox="true" />
  <metadata
     id="metadata3093">
Created by potrace 1.10, written by Peter Selinger 2001-2011
<rdf:RDF>
  <cc:Work
     rdf:about="">
    <dc:format>image/svg+xml</dc:format>
    <dc:type
       rdf:resource="http://purl.org/dc/dcmitype/StillImage" />
  </cc:Work>
</rdf:RDF>
</metadata>
  <g
     id="g3028"
     transform="translate(-13.177834,0)">
    <path
       sodipodi:open="true"
       sodipodi:end="10.995574"
       sodipodi:start="4.712389"
       transform="matrix(0.86356658,0,0,0.86873324,-0.82417222,-6.8820404)"
       d="m 63.317319,78.666286 c 29.743025,10e-7 53.854511,24.111484 53.854511,53.854514 0,29.74302 -24.111488,53.85451 -53.854513,53.85451 -29.743025,0 -53.8545109,-24.11149 -53.8545103,-53.85451 6e-7,-29.74302 24.1114773,-53.854505 53.8544953,-53.854514"
       sodipodi:ry="53.854511"
       sodipodi:rx="53.854511"
       sodipodi:cy="132.5208"
       sodipodi:cx="63.317318"
       id="path3132"
       style="fill:#b9b9b9;fill-opacity:1;stroke:none"
       sodipodi:type="arc" />
    <path
       d="m 53.28,8.76 c -0.024,1.32 -0.024,13.608 0,27.288 l 0.024,24.864 -1.272,0.144 c -7.224,0.696 -8.424,0.912 -13.08,2.448 -12.12,4.032 -21.936,12.696 -27.48,24.264 -3.096,6.456 -4.584,13.104 -4.584,20.472 0,20.184 13.104,38.376 32.112,44.616 3.312,1.08 6.432,1.776 9.816,2.208 2.904,0.36 9.36,0.168 12.576,-0.384 11.16,-1.848 21.336,-7.824 28.512,-16.68 6,-7.44 9.624,-16.776 10.368,-26.76 l 0.168,-2.4 37.56,-0.072 c 24.552,-0.024 37.632,-0.144 37.776,-0.288 0.168,-0.168 -7.512,-0.24 -22.848,-0.24 l -23.088,0 -0.048,-2.832 -0.024,-2.808 -0.168,2.64 c -0.096,1.44 -0.192,2.712 -0.216,2.832 0,0.096 -6.528,0.144 -14.472,0.12 l -14.472,-0.072 -0.048,-1.2 C 100.056,100.392 98.424,93.768 95.76,88.152 L 94.368,85.2 94.992,84.768 c 0.36,-0.264 1.44,-0.912 2.4,-1.464 0.936,-0.552 1.728,-1.056 1.728,-1.128 0,-0.144 -0.504,0.12 -2.904,1.488 -1.008,0.576 -1.896,1.056 -1.992,1.056 -0.072,0 -0.552,-0.624 -1.032,-1.392 C 86.712,73.104 76.704,65.712 65.28,62.664 62.112,61.824 58.2,61.2 55.896,61.2 54.864,61.2 54.216,61.08 54.024,60.888 53.856,60.648 53.76,52.944 53.76,34.296 53.736,19.848 53.64,7.656 53.52,7.2 53.376,6.552 53.328,6.912 53.28,8.76 z m 6.48,53.28 c 0.456,0.096 1.224,0.216 1.68,0.264 0.456,0.072 1.032,0.168 1.248,0.24 0.216,0.072 0.6,0.144 0.84,0.192 1.272,0.264 4.44,1.176 5.592,1.608 5.136,1.92 10.824,5.304 14.64,8.712 1.656,1.488 5.088,5.088 6.048,6.384 0.552,0.72 1.296,1.728 1.68,2.208 0.36,0.48 0.672,0.984 0.672,1.104 0,0.12 0.264,0.528 0.6,0.912 0.816,0.936 0.744,1.32 -0.312,1.992 -0.48,0.312 -1.152,0.744 -1.488,0.96 -0.336,0.216 -1.176,0.696 -1.896,1.08 -0.696,0.384 -2.592,1.488 -4.2,2.448 -1.584,0.984 -3.336,1.992 -3.864,2.256 -0.528,0.264 -1.392,0.744 -1.92,1.08 -0.528,0.336 -1.296,0.768 -1.704,0.96 -0.408,0.192 -0.864,0.504 -1.056,0.696 -0.168,0.216 -0.432,0.384 -0.6,0.384 -0.168,0 -0.576,0.216 -0.912,0.48 -0.336,0.264 -0.768,0.48 -0.96,0.48 -0.192,0 -0.48,0.168 -0.648,0.384 -0.192,0.192 -0.648,0.528 -1.056,0.72 -0.408,0.192 -1.176,0.624 -1.704,0.936 -0.528,0.336 -1.224,0.72 -1.56,0.888 -0.336,0.144 -0.768,0.432 -0.96,0.6 -0.216,0.168 -0.888,0.552 -1.488,0.888 -0.984,0.528 -1.128,0.552 -1.2,0.192 -0.072,-0.216 -0.096,-2.424 -0.072,-4.872 l 0.024,-4.488 0.768,-0.648 c 0.816,-0.696 1.008,-1.632 0.504,-2.568 -0.216,-0.384 -0.168,-0.624 0.24,-1.176 0.288,-0.36 0.504,-0.744 0.504,-0.816 0,-0.312 4.752,-8.472 5.208,-8.952 0.36,-0.36 0.84,-0.384 1.224,0 0.36,0.36 0.36,0.336 1.104,-3.408 0.84,-4.128 0.864,-4.32 0.576,-4.32 -0.144,0 -0.792,0.576 -1.44,1.248 -0.648,0.696 -1.776,1.872 -2.496,2.616 -0.72,0.72 -1.296,1.44 -1.296,1.56 0,0.12 0.216,0.408 0.48,0.648 0.48,0.408 0.48,0.408 -0.192,1.656 -0.672,1.272 -3.192,5.688 -4.44,7.824 -0.36,0.624 -0.72,1.32 -0.792,1.536 -0.072,0.216 -0.456,0.528 -0.84,0.696 -1.296,0.528 -1.824,1.992 -1.128,3.072 0.24,0.384 0.168,0.672 -0.408,1.752 -0.384,0.696 -0.744,1.32 -0.816,1.392 -0.072,0.072 -0.504,0.816 -0.96,1.68 -0.456,0.864 -0.888,1.608 -0.96,1.68 -0.096,0.072 -0.288,0.384 -0.432,0.72 -0.288,0.6 -1.152,2.112 -2.328,4.08 -0.36,0.6 -0.792,1.392 -1.008,1.8 -0.672,1.344 -1.656,2.832 -1.968,2.952 C 54.072,106.824 54,101.808 54,84.312 c 0,-12.408 0.048,-22.608 0.096,-22.656 0.144,-0.144 4.488,0.168 5.664,0.384 z m -6.456,10.968 c 0.048,23.064 0,34.56 -0.12,34.68 -0.072,0.072 -0.264,0.024 -0.432,-0.096 -0.168,-0.144 -1.056,-0.648 -1.992,-1.128 -1.92,-1.008 -2.352,-1.248 -3.408,-1.992 -0.408,-0.312 -0.84,-0.552 -0.936,-0.552 -0.072,0 -0.816,-0.408 -1.632,-0.888 -0.792,-0.504 -1.776,-1.08 -2.184,-1.296 -0.696,-0.36 -5.448,-3.144 -7.272,-4.224 -0.48,-0.288 -1.104,-0.624 -1.392,-0.768 -0.48,-0.216 -1.848,-1.08 -2.928,-1.848 -0.312,-0.192 -1.224,-0.72 -2.04,-1.152 C 27.72,93.096 25.68,91.92 20.64,88.968 20.184,88.704 19.488,88.296 19.08,88.08 c -1.896,-1.008 -2.256,-1.44 -1.2,-1.44 0.336,0 0.6,-0.12 0.6,-0.24 0,-0.144 -0.312,-0.24 -0.72,-0.24 -0.816,0 -3.336,-0.864 -3.816,-1.32 -0.288,-0.288 -0.216,-0.504 0.408,-1.488 1.896,-2.904 3.696,-5.136 6.384,-7.848 2.616,-2.664 6.504,-5.904 7.08,-5.904 0.096,0 0.336,-0.168 0.504,-0.36 0.336,-0.408 2.328,-1.56 4.68,-2.712 0.936,-0.456 1.872,-0.912 2.112,-1.032 0.504,-0.264 3.408,-1.392 4.368,-1.704 3.864,-1.224 8.088,-1.992 11.472,-2.064 l 2.328,-0.072 0.024,11.352 z M 14.76,86.184 c 0.6,0.432 1.344,1.176 1.704,1.68 0.72,1.056 1.584,1.368 0.912,0.336 -0.408,-0.624 -0.12,-0.816 0.432,-0.312 0.168,0.168 0.432,0.336 0.552,0.36 0.24,0.024 2.832,1.536 3.384,1.92 0.12,0.096 0.72,0.456 1.32,0.768 0.576,0.312 1.44,0.792 1.896,1.08 1.848,1.2 2.328,1.464 3.192,1.896 0.48,0.264 0.888,0.552 0.888,0.696 0,0.12 0.096,0.168 0.216,0.096 0.12,-0.072 0.456,0.048 0.768,0.288 0.312,0.24 0.912,0.624 1.296,0.816 0.408,0.192 2.064,1.152 3.72,2.112 1.656,0.96 4.224,2.472 5.712,3.336 1.512,0.864 3.408,1.968 4.248,2.424 0.84,0.456 1.608,0.936 1.728,1.032 0.096,0.12 0.528,0.36 0.912,0.552 0.408,0.168 1.152,0.6 1.68,0.912 0.528,0.336 1.368,0.84 1.872,1.104 0.48,0.264 0.888,0.576 0.888,0.696 0,0.096 -2.496,0.168 -5.544,0.168 -3.048,-0.024 -5.664,0.048 -5.808,0.144 -0.648,0.408 1.008,0.528 6.504,0.504 5.016,0 5.88,0.048 5.976,0.36 0.096,0.192 0.168,2.304 0.168,4.68 0.024,3.24 0.096,4.344 0.336,4.416 0.216,0.096 0.288,-0.912 0.288,-4.464 0,-4.104 0.048,-4.584 0.432,-4.776 0.24,-0.144 9.768,-0.24 22.8,-0.264 20.208,-0.024 22.392,0 22.512,0.336 0.192,0.504 -0.288,5.64 -0.72,7.752 -0.192,0.888 -0.408,1.896 -0.48,2.208 -0.168,0.912 -0.864,3.432 -1.032,3.84 -0.072,0.192 -0.168,0.48 -0.192,0.6 -0.096,0.408 -1.104,2.832 -1.464,3.528 -0.192,0.336 -0.336,0.792 -0.336,1.008 0,0.216 -0.096,0.384 -0.24,0.384 -0.12,0 -0.24,0.144 -0.24,0.336 0,0.192 -0.384,1.032 -0.864,1.872 -0.48,0.816 -1.008,1.728 -1.152,1.992 -0.144,0.264 -0.528,0.864 -0.864,1.32 -0.336,0.456 -0.768,1.128 -0.96,1.488 -0.192,0.36 -0.744,1.056 -1.2,1.56 -0.456,0.504 -1.056,1.224 -1.296,1.632 -1.992,3.096 -9.696,9.048 -14.784,11.448 -3.048,1.44 -3.528,1.632 -6.168,2.496 -6.72,2.232 -14.136,2.76 -21.792,1.56 -2.136,-0.336 -7.104,-1.632 -7.416,-1.944 -0.144,-0.144 -0.384,-0.24 -0.552,-0.24 -0.192,0 -0.72,-0.168 -1.224,-0.384 -0.48,-0.24 -1.008,-0.432 -1.176,-0.456 -0.144,-0.048 -1.176,-0.504 -2.28,-1.032 -1.824,-0.888 -2.976,-1.56 -4.848,-2.832 -0.36,-0.24 -1.032,-0.672 -1.464,-0.936 -0.432,-0.264 -1.296,-0.936 -1.944,-1.464 -0.648,-0.552 -1.848,-1.536 -2.664,-2.208 -2.232,-1.872 -6.312,-6.84 -7.944,-9.744 -0.312,-0.528 -0.648,-1.032 -0.72,-1.104 -0.24,-0.168 -2.304,-4.44 -2.928,-6 -1.416,-3.552 -2.688,-8.256 -3.024,-11.136 -0.072,-0.552 -0.168,-1.248 -0.216,-1.584 -0.144,-0.744 -0.168,-9.312 -0.024,-9.552 0.048,-0.096 0.168,-0.84 0.24,-1.656 0.144,-1.344 0.264,-2.04 0.768,-4.392 0.48,-2.352 2.04,-7.008 2.52,-7.584 0.144,-0.192 0.216,-0.336 0.144,-0.336 -0.144,0 1.272,-2.856 1.824,-3.792 0.288,-0.432 0.6,-0.36 1.728,0.456 z m 80.52,1.992 c 1.368,2.904 3.168,8.184 3.504,10.344 0.048,0.264 0.24,1.392 0.456,2.472 0.552,3.096 0.744,6.912 0.336,7.056 -0.288,0.096 -33.888,0.072 -34.32,-0.024 -0.072,0 -0.12,-1.32 -0.096,-2.904 l 0.024,-2.856 0.84,-0.576 c 0.456,-0.312 1.152,-0.72 1.536,-0.912 1.344,-0.696 2.64,-1.464 3,-1.776 0.192,-0.192 0.432,-0.336 0.528,-0.36 0.24,-0.024 1.512,-0.72 2.448,-1.32 0.408,-0.288 2.616,-1.584 4.896,-2.88 2.28,-1.32 4.536,-2.64 5.04,-2.928 0.48,-0.288 1.296,-0.744 1.776,-1.008 0.48,-0.288 0.936,-0.6 1.032,-0.744 0.072,-0.12 0.336,-0.24 0.576,-0.24 0.24,0 0.576,-0.168 0.768,-0.384 0.168,-0.216 0.696,-0.576 1.152,-0.816 0.48,-0.264 1.2,-0.624 1.584,-0.84 0.408,-0.216 1.32,-0.744 2.04,-1.176 0.72,-0.456 1.416,-0.768 1.512,-0.696 0.12,0.072 0.744,1.224 1.368,2.568 z m -30.648,3.912 c 0.072,0.36 0.048,7.152 -0.048,9.36 -0.024,0.384 -0.624,0.864 -2.712,2.04 -1.464,0.816 -3.168,1.8 -3.768,2.184 -0.6,0.36 -1.32,0.768 -1.584,0.888 -0.264,0.144 -0.672,0.36 -0.888,0.528 -0.912,0.648 -0.72,0 0.768,-2.448 0.48,-0.816 2.04,-3.576 2.832,-5.04 0.456,-0.864 0.96,-1.728 1.128,-1.92 0.168,-0.192 0.48,-0.768 0.72,-1.272 0.216,-0.48 0.504,-0.888 0.624,-0.888 0.12,0 0.216,-0.168 0.216,-0.36 0,-0.216 0.264,-0.768 0.552,-1.272 0.312,-0.48 0.744,-1.176 0.984,-1.56 0.456,-0.744 1.032,-0.864 1.176,-0.24 z m 0.024,13.08 c -0.024,1.272 -0.072,2.448 -0.168,2.64 -0.096,0.288 -0.864,0.336 -4.536,0.312 -2.4,-0.024 -4.416,-0.072 -4.464,-0.096 -0.192,-0.072 1.368,-1.152 2.472,-1.704 0.672,-0.336 1.248,-0.672 1.32,-0.744 0.072,-0.072 0.864,-0.552 1.776,-1.08 0.912,-0.504 1.992,-1.128 2.4,-1.368 0.408,-0.216 0.84,-0.384 0.984,-0.336 0.12,0.048 0.216,1.08 0.216,2.376 z"
       id="path3097"
       inkscape:connector-curvature="0"
       style="fill:#000000;stroke:none" />
    <path
       d="m 152.352,49.176 c -1.824,0.504 -3.36,0.96 -3.456,1.032 -0.072,0.096 0,0.384 0.144,0.672 0.24,0.456 0.216,0.6 -0.144,0.96 -0.264,0.216 -2.832,1.8 -5.736,3.48 -2.904,1.68 -6.312,3.696 -7.56,4.44 -4.248,2.544 -4.944,2.88 -5.904,2.88 -1.344,0 -1.944,0.504 -2.136,1.776 -0.168,1.128 -0.312,1.224 -6.36,4.728 -0.6,0.336 -1.728,1.008 -2.52,1.464 -0.792,0.456 -3.816,2.232 -6.72,3.912 -2.904,1.68 -5.88,3.408 -6.6,3.84 -0.72,0.432 -2.28,1.344 -3.48,2.016 -1.176,0.696 -2.256,1.368 -2.4,1.512 -0.312,0.336 -0.672,0.552 6.48,-3.6 3.432,-1.968 6.624,-3.816 7.08,-4.056 0.456,-0.264 1.92,-1.128 3.24,-1.92 1.32,-0.792 4.44,-2.592 6.912,-4.008 l 4.536,-2.592 0.816,0.432 0.816,0.432 0.072,8.904 0.048,8.88 0.072,-8.88 0.048,-8.904 0.72,-0.408 c 0.408,-0.24 0.768,-0.72 0.864,-1.08 0.072,-0.36 0.192,-0.816 0.24,-1.032 0.048,-0.192 0.552,-0.624 1.128,-0.936 1.368,-0.744 5.688,-3.288 11.952,-7.008 2.856,-1.68 5.352,-3.072 5.544,-3.072 0.216,0 0.552,0.24 0.744,0.528 0.384,0.552 0.408,0.528 3.024,-2.208 1.464,-1.512 2.64,-2.832 2.664,-2.952 0,-0.288 -0.672,-0.168 -4.128,0.768 z"
       id="path3115"
       inkscape:connector-curvature="0"
       style="fill:#000000;stroke:none" />
    <path
       d="m 129.384,96.144 c 0.024,1.176 0.12,2.448 0.216,2.856 0.096,0.384 0.12,-0.504 0.096,-2.016 -0.048,-1.488 -0.144,-2.784 -0.216,-2.856 -0.072,-0.072 -0.096,0.84 -0.096,2.016 z"
       id="path3123"
       inkscape:connector-curvature="0"
       style="fill:#000000;stroke:none" />
    <path
       transform="matrix(0.80000004,0,0,0.80000004,0,-4.6864869e-6)"
       inkscape:connector-curvature="0"
       id="path3385"
       d="m 120.20029,104.78235 42.35345,-24.159365 0,54.284005"
       style="color:#000000;fill:none;stroke:#000000;stroke-width:1.25;stroke-linecap:butt;stroke-linejoin:miter;stroke-miterlimit:4;stroke-opacity:1;stroke-dasharray:none;stroke-dashoffset:0;marker:none;visibility:visible;display:inline;overflow:visible;enable-background:accumulate" />
    <text
       sodipodi:linespacing="125%"
       id="text3387"
       y="10.810912"
       x="54.641922"
       style="font-size:9.04000092px;font-style:italic;font-variant:normal;font-weight:bold;font-stretch:normal;text-indent:0;text-align:start;text-decoration:none;line-height:125%;letter-spacing:0px;word-spacing:0px;text-transform:none;direction:ltr;block-progression:tb;writing-mode:lr-tb;text-anchor:start;baseline-shift:baseline;color:#000000;fill:#000000;fill-opacity:1;fill-rule:nonzero;stroke:none;stroke-width:1.24999988px;marker:none;visibility:visible;display:inline;overflow:visible;enable-background:accumulate;font-family:Linux Libertine O;-inkscape-font-specification:Sans Italic"
       xml:space="preserve"><tspan
         y="10.810912"
         x="54.641922"
         id="tspan3389"
         sodipodi:role="line">y</tspan></text>
    <text
       sodipodi:linespacing="125%"
       id="text3391"
       y="110.78892"
       x="177.04936"
       style="font-size:9.04000092px;font-style:italic;font-variant:normal;font-weight:bold;font-stretch:normal;text-indent:0;text-align:start;text-decoration:none;line-height:125%;letter-spacing:0px;word-spacing:0px;text-transform:none;direction:ltr;block-progression:tb;writing-mode:lr-tb;text-anchor:start;baseline-shift:baseline;color:#000000;fill:#000000;fill-opacity:1;fill-rule:nonzero;stroke:none;stroke-width:1.24999988px;marker:none;visibility:visible;display:inline;overflow:visible;enable-background:accumulate;font-family:Linux Libertine O;-inkscape-font-specification:Sans Italic"
       xml:space="preserve"><tspan
         y="110.78892"
         x="177.04936"
         id="tspan3393"
         sodipodi:role="line">x</tspan></text>
    <text
       sodipodi:linespacing="125%"
       id="text3395"
       y="113.65226"
       x="60.129974"
       style="font-size:9.04000092px;font-style:italic;font-variant:normal;font-weight:bold;font-stretch:normal;text-indent:0;text-align:start;text-decoration:none;line-height:125%;letter-spacing:0px;word-spacing:0px;text-transform:none;direction:ltr;block-progression:tb;writing-mode:lr-tb;text-anchor:start;baseline-shift:baseline;color:#000000;fill:#000000;fill-opacity:1;fill-rule:nonzero;stroke:none;stroke-width:1.24999988px;marker:none;visibility:visible;display:inline;overflow:visible;enable-background:accumulate;font-family:Linux Libertine O;-inkscape-font-specification:Sans Italic"
       xml:space="preserve"><tspan
         y="113.65226"
         x="60.129974"
         id="tspan3397"
         sodipodi:role="line">x</tspan></text>
    <text
       sodipodi:linespacing="125%"
       id="text3399"
       y="96.710869"
       x="65.856636"
       style="font-size:9.04000092px;font-style:italic;font-variant:normal;font-weight:bold;font-stretch:normal;text-indent:0;text-align:start;text-decoration:none;line-height:125%;letter-spacing:0px;word-spacing:0px;text-transform:none;direction:ltr;block-progression:tb;writing-mode:lr-tb;text-anchor:start;baseline-shift:baseline;color:#000000;fill:#000000;fill-opacity:1;fill-rule:nonzero;stroke:none;stroke-width:1.24999988px;marker:none;visibility:visible;display:inline;overflow:visible;enable-background:accumulate;font-family:Linux Libertine O;-inkscape-font-specification:Sans Italic"
       xml:space="preserve"><tspan
         y="96.710869"
         x="65.856636"
         id="tspan3401"
         sodipodi:role="line">y</tspan></text>
    <text
       sodipodi:linespacing="125%"
       id="text3403"
       y="115.56114"
       x="119.78273"
       style="font-size:9.04000092px;font-style:italic;font-variant:normal;font-weight:bold;font-stretch:normal;text-indent:0;text-align:start;text-decoration:none;line-height:125%;letter-spacing:0px;word-spacing:0px;text-transform:none;direction:ltr;block-progression:tb;writing-mode:lr-tb;text-anchor:start;baseline-shift:baseline;color:#000000;fill:#000000;fill-opacity:1;fill-rule:nonzero;stroke:none;stroke-width:1.24999988px;marker:none;visibility:visible;display:inline;overflow:visible;enable-background:accumulate;font-family:Linux Libertine O;-inkscape-font-specification:Sans Italic"
       xml:space="preserve"><tspan
         y="115.56114"
         x="119.78273"
         id="tspan3405"
         sodipodi:role="line">x</tspan></text>
    <text
       sodipodi:linespacing="125%"
       id="text3407"
       y="86.927826"
       x="130.75883"
       style="font-size:9.04000092px;font-style:italic;font-variant:normal;font-weight:bold;font-stretch:normal;text-indent:0;text-align:start;text-decoration:none;line-height:125%;letter-spacing:0px;word-spacing:0px;text-transform:none;direction:ltr;block-progression:tb;writing-mode:lr-tb;text-anchor:start;baseline-shift:baseline;color:#000000;fill:#000000;fill-opacity:1;fill-rule:nonzero;stroke:none;stroke-width:1.24999988px;marker:none;visibility:visible;display:inline;overflow:visible;enable-background:accumulate;font-family:Linux Libertine O;-inkscape-font-specification:Sans Italic"
       xml:space="preserve"><tspan
         y="86.927826"
         x="130.75883"
         id="tspan3409"
         sodipodi:role="line">y</tspan></text>
    <text
       sodipodi:linespacing="125%"
       id="text3411"
       y="78.099213"
       x="99.023567"
       style="font-size:9.04000092px;font-style:italic;font-variant:normal;font-weight:bold;font-stretch:normal;text-indent:0;text-align:start;text-decoration:none;line-height:125%;letter-spacing:0px;word-spacing:0px;text-transform:none;direction:ltr;block-progression:tb;writing-mode:lr-tb;text-anchor:start;baseline-shift:baseline;color:#000000;fill:#000000;fill-opacity:1;fill-rule:nonzero;stroke:none;stroke-width:1.24999988px;marker:none;visibility:visible;display:inline;overflow:visible;enable-background:accumulate;font-family:Linux Libertine O;-inkscape-font-specification:Sans Italic"
       xml:space="preserve"><tspan
         y="78.099213"
         x="99.023567"
         id="tspan3413"
         sodipodi:role="line">r</tspan></text>
    <text
       sodipodi:linespacing="125%"
       id="text3415"
       y="93.847542"
       x="31.496655"
       style="font-size:9.04000092px;font-style:italic;font-variant:normal;font-weight:bold;font-stretch:normal;text-indent:0;text-align:start;text-decoration:none;line-height:125%;letter-spacing:0px;word-spacing:0px;text-transform:none;direction:ltr;block-progression:tb;writing-mode:lr-tb;text-anchor:start;baseline-shift:baseline;color:#000000;fill:#000000;fill-opacity:1;fill-rule:nonzero;stroke:none;stroke-width:1.24999988px;marker:none;visibility:visible;display:inline;overflow:visible;enable-background:accumulate;font-family:Linux Libertine O;-inkscape-font-specification:Sans Italic"
       xml:space="preserve"><tspan
         y="93.847542"
         x="31.496655"
         id="tspan3417"
         sodipodi:role="line">a</tspan></text>
    <text
       sodipodi:linespacing="125%"
       id="text3419"
       y="80.72393"
       x="60.845806"
       style="font-size:9.04000092px;font-style:normal;font-variant:normal;font-weight:bold;font-stretch:normal;text-indent:0;text-align:start;text-decoration:none;line-height:125%;letter-spacing:0px;word-spacing:0px;text-transform:none;direction:ltr;block-progression:tb;writing-mode:lr-tb;text-anchor:start;baseline-shift:baseline;color:#000000;fill:#000000;fill-opacity:1;fill-rule:nonzero;stroke:none;stroke-width:1.24999988px;marker:none;visibility:visible;display:inline;overflow:visible;enable-background:accumulate;font-family:Linux Libertine O;-inkscape-font-specification:Sans"
       xml:space="preserve"><tspan
         y="80.72393"
         x="60.845806"
         id="tspan3421"
         sodipodi:role="line">E</tspan></text>
    <text
       sodipodi:linespacing="125%"
       id="text3423"
       y="129.40057"
       x="31.496653"
       style="font-size:9.04000092px;font-style:italic;font-variant:normal;font-weight:bold;font-stretch:normal;text-indent:0;text-align:start;text-decoration:none;line-height:125%;letter-spacing:0px;word-spacing:0px;text-transform:none;direction:ltr;block-progression:tb;writing-mode:lr-tb;text-anchor:start;baseline-shift:baseline;color:#000000;fill:#000000;fill-opacity:1;fill-rule:nonzero;stroke:none;stroke-width:1.24999988px;marker:none;visibility:visible;display:inline;overflow:visible;enable-background:accumulate;font-family:Linux Libertine O;-inkscape-font-specification:Sans Italic"
       xml:space="preserve"><tspan
         y="129.40057"
         x="31.496653"
         id="tspan3425"
         sodipodi:role="line">ρ</tspan></text>
    <text
       sodipodi:linespacing="125%"
       id="text3419-0"
       y="52.390335"
       x="136.51122"
       style="font-size:9.04000092px;font-style:normal;font-variant:normal;font-weight:bold;font-stretch:normal;text-indent:0;text-align:start;text-decoration:none;line-height:125%;letter-spacing:0px;word-spacing:0px;text-transform:none;direction:ltr;block-progression:tb;writing-mode:lr-tb;text-anchor:start;baseline-shift:baseline;color:#000000;fill:#000000;fill-opacity:1;fill-rule:nonzero;stroke:none;stroke-width:1.24999988px;marker:none;visibility:visible;display:inline;overflow:visible;enable-background:accumulate;font-family:Linux Libertine O;-inkscape-font-specification:Sans"
       xml:space="preserve"><tspan
         y="52.390335"
         x="136.51122"
         id="tspan3421-6"
         sodipodi:role="line">E</tspan></text>
    <rect
       transform="matrix(0.80000004,0,0,0.80000004,0,-4.6864869e-6)"
       y="167.716"
       x="118.11244"
       height="45.634354"
       width="102.30447"
       id="rect3556"
       style="fill:#ffffff;fill-opacity:1;stroke:none" />
    <rect
       transform="matrix(0.80000004,0,0,0.80000004,0,-4.6864869e-6)"
       y="158.46982"
       x="132.42911"
       height="18.194088"
       width="68.004135"
       id="rect4326"
       style="fill:#ffffff;fill-opacity:1;stroke:none" />
    <text
       sodipodi:linespacing="125%"
       id="text3427"
       y="139.18362"
       x="115.72634"
       style="font-size:9.04000092px;font-style:italic;font-variant:normal;font-weight:bold;font-stretch:normal;text-indent:0;text-align:start;text-decoration:none;line-height:125%;letter-spacing:0px;word-spacing:0px;text-transform:none;direction:ltr;block-progression:tb;writing-mode:lr-tb;text-anchor:start;baseline-shift:baseline;color:#000000;fill:#000000;fill-opacity:1;fill-rule:nonzero;stroke:none;stroke-width:1.24999988px;marker:none;visibility:visible;display:inline;overflow:visible;enable-background:accumulate;font-family:Linux Libertine O;-inkscape-font-specification:Sans Italic"
       xml:space="preserve"><tspan
         y="139.18362"
         x="115.72634"
         id="tspan3429"
         sodipodi:role="line"><tspan
   id="tspan3458"
   style="font-style:normal;-inkscape-font-specification:Linux Libertine O Bold">2</tspan>πρa<tspan
   id="tspan3464"
   style="font-size:7.20000029px;baseline-shift:super">2</tspan></tspan></text>
    <text
       sodipodi:linespacing="125%"
       id="text3431"
       y="147.53502"
       x="122.64608"
       style="font-size:9.04000092px;font-style:italic;font-variant:normal;font-weight:bold;font-stretch:normal;text-indent:0;text-align:start;text-decoration:none;line-height:125%;letter-spacing:0px;word-spacing:0px;text-transform:none;direction:ltr;block-progression:tb;writing-mode:lr-tb;text-anchor:start;baseline-shift:baseline;color:#000000;fill:#000000;fill-opacity:1;fill-rule:nonzero;stroke:none;stroke-width:1.24999988px;marker:none;visibility:visible;display:inline;overflow:visible;enable-background:accumulate;font-family:Linux Libertine O;-inkscape-font-specification:Sans Italic"
       xml:space="preserve"><tspan
         y="147.53502"
         x="122.64608"
         id="tspan3433"
         sodipodi:role="line">r</tspan></text>
    <text
       sodipodi:linespacing="125%"
       id="text3427-6"
       y="161.78844"
       x="101.32483"
       style="font-size:9.04000092px;font-style:italic;font-variant:normal;font-weight:bold;font-stretch:normal;text-indent:0;text-align:start;text-decoration:none;line-height:125%;letter-spacing:0px;word-spacing:0px;text-transform:none;direction:ltr;block-progression:tb;writing-mode:lr-tb;text-anchor:start;baseline-shift:baseline;color:#000000;fill:#000000;fill-opacity:1;fill-rule:nonzero;stroke:none;stroke-width:1.24999988px;marker:none;visibility:visible;display:inline;overflow:visible;enable-background:accumulate;font-family:Linux Libertine O;-inkscape-font-specification:Sans Italic"
       xml:space="preserve"><tspan
         y="161.78844"
         x="101.32483"
         id="tspan3429-0"
         sodipodi:role="line"><tspan
   id="tspan3456"
   style="font-style:normal;-inkscape-font-specification:Linux Libertine O Bold"><tspan
   id="tspan3462"
   style="font-style:italic;-inkscape-font-specification:Linux Libertine O Bold Italic">E = </tspan>2</tspan>πρr</tspan></text>
    <text
       sodipodi:linespacing="125%"
       id="text3468"
       y="142.76279"
       x="144.12105"
       style="font-size:8.64000034px;font-style:normal;font-variant:normal;font-weight:bold;font-stretch:normal;text-indent:0;text-align:start;text-decoration:none;line-height:125%;letter-spacing:0px;word-spacing:0px;text-transform:none;direction:ltr;block-progression:tb;writing-mode:lr-tb;text-anchor:start;baseline-shift:baseline;color:#000000;fill:#000000;fill-opacity:1;fill-rule:nonzero;stroke:none;stroke-width:1.24999988px;marker:none;visibility:visible;display:inline;overflow:visible;enable-background:accumulate;font-family:Linux Libertine O;-inkscape-font-specification:Sans"
       xml:space="preserve"><tspan
         y="142.76279"
         x="144.12105"
         id="tspan3470"
         sodipodi:role="line">outside</tspan></text>
    <text
       sodipodi:linespacing="125%"
       id="text3472"
       y="160.89722"
       x="144.12105"
       style="font-size:8.64000034px;font-style:normal;font-variant:normal;font-weight:bold;font-stretch:normal;text-indent:0;text-align:start;text-decoration:none;line-height:125%;letter-spacing:0px;word-spacing:0px;text-transform:none;direction:ltr;block-progression:tb;writing-mode:lr-tb;text-anchor:start;baseline-shift:baseline;color:#000000;fill:#000000;fill-opacity:1;fill-rule:nonzero;stroke:none;stroke-width:1.24999988px;marker:none;visibility:visible;display:inline;overflow:visible;enable-background:accumulate;font-family:Linux Libertine O;-inkscape-font-specification:Sans"
       xml:space="preserve"><tspan
         y="160.89722"
         x="144.12105"
         id="tspan3474"
         sodipodi:role="line">inside</tspan></text>
    <text
       sodipodi:linespacing="125%"
       id="text3552"
       y="143.47862"
       x="101.17106"
       style="font-size:8.64000034px;font-style:normal;font-variant:normal;font-weight:bold;font-stretch:normal;text-indent:0;text-align:start;text-decoration:none;line-height:125%;letter-spacing:0px;word-spacing:0px;text-transform:none;direction:ltr;block-progression:tb;writing-mode:lr-tb;text-anchor:start;baseline-shift:baseline;color:#000000;fill:#000000;fill-opacity:1;fill-rule:nonzero;stroke:none;stroke-width:1.24999988px;marker:none;visibility:visible;display:inline;overflow:visible;enable-background:accumulate;font-family:Linux Libertine O;-inkscape-font-specification:Sans"
       xml:space="preserve"><tspan
         y="143.47862"
         x="101.17106"
         id="tspan3554"
         sodipodi:role="line"><tspan
   id="tspan4330"
   style="font-style:italic;-inkscape-font-specification:Linux Libertine O Bold Italic">E</tspan> = </tspan></text>
    <path
       inkscape:connector-curvature="0"
       id="path4328"
       d="m 115.24912,141.09252 22.90666,0"
       style="color:#000000;fill:none;stroke:#000000;stroke-width:0.70000005;stroke-linecap:butt;stroke-linejoin:miter;stroke-miterlimit:4;stroke-opacity:1;stroke-dasharray:none;stroke-dashoffset:0;marker:none;visibility:visible;display:inline;overflow:visible;enable-background:accumulate" />
  </g>
  <rect
     style="fill:none;stroke:none"
     id="rect3077"
     width="222.5197"
     height="34.628189"
     x="-29.906162"
     y="76.863449" />
</svg>
