<?xml version="1.0" encoding="UTF-8" standalone="no"?>
<svg
   xmlns:dc="http://purl.org/dc/elements/1.1/"
   xmlns:cc="http://creativecommons.org/ns#"
   xmlns:rdf="http://www.w3.org/1999/02/22-rdf-syntax-ns#"
   xmlns:svg="http://www.w3.org/2000/svg"
   xmlns="http://www.w3.org/2000/svg"
   xmlns:sodipodi="http://sodipodi.sourceforge.net/DTD/sodipodi-0.dtd"
   xmlns:inkscape="http://www.inkscape.org/namespaces/inkscape"
   version="1.0"
   width="202.560000pt"
   height="148.320000pt"
   viewBox="0 0 202.560000 148.320000"
   preserveAspectRatio="xMidYMid meet"
   id="svg3029"
   inkscape:version="0.48.4 r9939"
   sodipodi:docname="black.svg">
  <defs
     id="defs3075">
    <marker
       inkscape:stockid="Arrow2Mstart"
       orient="auto"
       refY="0.0"
       refX="0.0"
       id="Arrow2Mstart"
       style="overflow:visible">
      <path
         id="path3983"
         style="fill-rule:evenodd;stroke-width:0.62500000;stroke-linejoin:round"
         d="M 8.7185878,4.0337352 L -2.2072895,0.016013256 L 8.7185884,-4.0017078 C 6.9730900,-1.6296469 6.9831476,1.6157441 8.7185878,4.0337352 z "
         transform="scale(0.6) translate(0,0)" />
    </marker>
    <marker
       inkscape:stockid="Arrow2Mend"
       orient="auto"
       refY="0.0"
       refX="0.0"
       id="Arrow2Mend"
       style="overflow:visible;">
      <path
         id="path3986"
         style="fill-rule:evenodd;stroke-width:0.62500000;stroke-linejoin:round;"
         d="M 8.7185878,4.0337352 L -2.2072895,0.016013256 L 8.7185884,-4.0017078 C 6.9730900,-1.6296469 6.9831476,1.6157441 8.7185878,4.0337352 z "
         transform="scale(0.6) rotate(180) translate(0,0)" />
    </marker>
    <marker
       inkscape:stockid="Arrow2Mend"
       orient="auto"
       refY="0"
       refX="0"
       id="Arrow2Mend-8"
       style="overflow:visible">
      <path
         inkscape:connector-curvature="0"
         id="path3986-3"
         style="fill-rule:evenodd;stroke-width:0.625;stroke-linejoin:round"
         d="M 8.7185878,4.0337352 -2.2072895,0.01601326 8.7185884,-4.0017078 c -1.7454984,2.3720609 -1.7354408,5.6174519 -6e-7,8.035443 z"
         transform="scale(-0.6,-0.6)" />
    </marker>
  </defs>
  <sodipodi:namedview
     pagecolor="#ffffff"
     bordercolor="#666666"
     borderopacity="1"
     objecttolerance="10"
     gridtolerance="10"
     guidetolerance="10"
     inkscape:pageopacity="0"
     inkscape:pageshadow="2"
     inkscape:window-width="1280"
     inkscape:window-height="996"
     id="namedview3073"
     showgrid="false"
     inkscape:zoom="1.4233829"
     inkscape:cx="147.9201"
     inkscape:cy="98.206064"
     inkscape:window-x="0"
     inkscape:window-y="0"
     inkscape:window-maximized="1"
     inkscape:current-layer="svg3029" />
  <metadata
     id="metadata3031">
Created by potrace 1.10, written by Peter Selinger 2001-2011
<rdf:RDF>
  <cc:Work
     rdf:about="">
    <dc:format>image/svg+xml</dc:format>
    <dc:type
       rdf:resource="http://purl.org/dc/dcmitype/StillImage" />
    <dc:title></dc:title>
  </cc:Work>
</rdf:RDF>
</metadata>
  <path
     style="fill:#b9b9b9;stroke:none"
     id="path8"
     d="m 0,74.16 0,74.16 101.28,0 101.28,0 0,-74.16 0,-74.136 L 101.28,0 0,0 0,74.16 z M 119.4,28.8 c 8.568,0.768 18.888,5.04 26.544,11.016 1.56,1.224 9.288,9.144 9.744,9.984 0.216,0.384 0.792,1.2 1.296,1.776 1.392,1.584 3.672,5.568 5.4,9.48 2.448,5.472 4.32,13.056 4.584,18.432 l 0.144,3.072 -0.576,0 c -0.336,0 -0.72,-0.12 -0.888,-0.288 -0.216,-0.216 -0.288,-0.144 -0.288,0.336 0,0.552 -0.12,0.648 -0.768,0.744 -0.432,0.048 -0.072,0.12 0.84,0.12 l 1.608,0.048 0,2.64 c 0,1.44 -0.096,2.64 -0.192,2.64 -0.12,0 -0.168,0.288 -0.12,0.648 0.072,0.384 -0.12,2.064 -0.384,3.744 -1.248,7.68 -4.176,14.976 -8.616,21.552 -0.936,1.368 -1.896,2.712 -2.136,2.976 -0.24,0.264 -0.816,0.96 -1.296,1.56 -2.328,2.88 -6.456,6.672 -10.344,9.528 -6.144,4.488 -14.16,7.704 -22.992,9.24 -2.52,0.432 -13.848,0.432 -16.488,-0.024 -1.104,-0.168 -2.064,-0.432 -2.184,-0.6 -0.288,-0.36 -0.528,-1.368 -0.312,-1.224 0.216,0.12 0.696,-0.336 4.848,-4.608 1.8,-1.824 3.504,-3.768 3.768,-4.296 0.288,-0.504 1.008,-1.464 1.608,-2.136 0.6,-0.648 1.08,-1.296 1.08,-1.44 0,-0.144 0.264,-0.576 0.6,-0.96 0.768,-0.912 2.664,-3.792 3.144,-4.776 0.192,-0.408 0.744,-1.44 1.2,-2.304 0.48,-0.864 1.344,-2.76 1.944,-4.2 0.6,-1.464 1.272,-3.024 1.512,-3.48 0.24,-0.456 0.6,-1.44 0.792,-2.16 0.216,-0.72 0.6,-2.136 0.888,-3.12 0.288,-0.984 0.624,-2.28 0.72,-2.88 1.392,-7.248 1.848,-10.656 1.968,-14.76 l 0.048,-1.44 1.104,-0.144 1.08,-0.144 -1.104,-0.024 -1.08,-0.048 -0.072,-1.272 c -0.024,-0.672 -0.144,-1.704 -0.288,-2.28 -0.12,-0.552 -0.168,-1.272 -0.096,-1.56 0.072,-0.288 0.024,-1.176 -0.12,-1.968 -0.144,-0.792 -0.288,-1.824 -0.36,-2.28 -0.36,-3.336 -2.952,-12.96 -3.504,-12.96 -0.096,0 -0.144,-0.168 -0.072,-0.36 0.072,-0.192 -0.216,-1.224 -0.648,-2.328 -0.408,-1.104 -0.84,-2.4 -0.936,-2.88 -0.192,-1.032 -0.12,-1.08 2.52,-1.296 2.424,-0.192 2.88,-0.312 2.544,-0.648 -0.144,-0.144 -0.264,-0.504 -0.264,-0.792 0,-0.48 -0.072,-0.504 -0.792,-0.336 -0.648,0.144 -0.864,0.096 -1.104,-0.264 -0.36,-0.576 -0.744,-0.576 -0.744,0 0,0.528 -1.944,2.184 -2.568,2.184 -0.312,0 -0.648,-0.432 -1.128,-1.488 -0.384,-0.816 -0.96,-1.752 -1.296,-2.088 -0.36,-0.336 -0.672,-0.864 -0.696,-1.152 -0.048,-0.288 -0.24,-0.816 -0.432,-1.2 -0.48,-0.912 -0.456,-1.104 0.096,-0.792 0.984,0.504 0.792,0.216 -0.432,-0.72 -0.72,-0.504 -1.44,-1.248 -1.632,-1.608 -0.192,-0.36 -0.696,-1.032 -1.128,-1.464 -0.456,-0.408 -1.008,-1.176 -1.224,-1.656 -0.24,-0.48 -0.912,-1.32 -1.488,-1.848 -0.6,-0.552 -1.248,-1.296 -1.44,-1.68 -0.384,-0.744 -5.76,-6.144 -6.12,-6.144 -0.36,0 -2.04,-1.824 -2.184,-2.376 -0.072,-0.312 0,-0.528 0.288,-0.6 0.384,-0.12 2.688,-0.528 3.864,-0.696 1.344,-0.216 12.288,-0.144 14.76,0.072 z M 93.048,32.448 92.904,33 93.36,32.448 c 0.576,-0.696 1.008,-0.672 2.208,0.12 0.528,0.384 1.224,0.84 1.536,1.056 0.312,0.216 0.504,0.456 0.408,0.528 -0.072,0.096 -0.048,0.168 0.072,0.168 0.552,0 3.936,3.024 3.936,3.504 0,0.168 0.456,0.72 1.008,1.224 1.56,1.416 2.376,2.28 2.952,3.192 0.288,0.48 1.104,1.464 1.776,2.208 0.672,0.744 1.224,1.44 1.224,1.536 0,0.12 0.36,0.672 0.816,1.224 0.432,0.552 0.936,1.344 1.104,1.752 0.192,0.456 0.48,0.72 0.816,0.744 0.264,0 0.36,0.072 0.216,0.144 -0.36,0.12 0.48,1.944 0.984,2.136 0.168,0.072 0.312,0.24 0.336,0.408 0.024,0.576 0.816,2.448 1.176,2.856 0.24,0.264 0.312,0.624 0.192,1.104 -0.144,0.672 -0.264,0.744 -1.656,1.008 -1.368,0.264 -1.512,0.336 -1.512,0.864 0,0.312 0.072,0.576 0.192,0.576 0.096,0 0.216,0.168 0.264,0.408 0.048,0.288 0.312,0.168 1.152,-0.6 1.128,-1.032 2.04,-1.464 2.4,-1.104 0.096,0.12 0.432,0.816 0.72,1.536 0.288,0.72 0.744,1.776 0.984,2.328 0.264,0.576 0.72,1.944 1.056,3.072 0.312,1.128 0.696,2.256 0.816,2.496 0.144,0.24 0.192,0.504 0.12,0.576 -0.168,0.144 0.576,3.096 0.816,3.288 0.096,0.072 0.168,0.432 0.192,0.84 0,0.384 0.144,1.632 0.312,2.76 0.168,1.128 0.432,3.528 0.6,5.352 0.336,3.816 0.552,3.48 -2.376,3.6 -1.536,0.072 -1.512,0.072 0.504,0.12 1.2,0.024 2.232,0.096 2.304,0.168 0.072,0.072 -0.024,0.744 -0.192,1.512 -0.192,0.744 -0.336,2.4 -0.336,3.648 0,1.248 -0.048,2.592 -0.12,3 -0.072,0.384 -0.216,1.416 -0.336,2.28 -0.264,1.728 -0.84,4.488 -1.2,5.688 -0.12,0.432 -0.168,0.792 -0.096,0.792 0.072,0 0,0.168 -0.168,0.36 -0.168,0.192 -0.24,0.576 -0.168,0.84 0.072,0.264 0.048,0.48 -0.048,0.48 -0.096,0 -0.312,0.456 -0.48,1.008 -0.168,0.576 -0.432,1.248 -0.552,1.512 -0.144,0.264 -0.504,1.224 -0.816,2.16 -0.288,0.912 -0.72,2.112 -0.936,2.64 -0.768,1.776 -3.312,6.72 -4.296,8.376 -0.336,0.528 -0.528,1.104 -0.456,1.32 0.096,0.312 0.072,0.336 -0.12,0.048 -0.216,-0.288 -0.336,-0.216 -0.696,0.432 -0.24,0.456 -0.72,1.152 -1.056,1.56 -0.336,0.408 -1.008,1.344 -1.464,2.064 -0.888,1.392 -2.64,3.216 -7.056,7.44 -3.408,3.24 -4.344,4.08 -4.488,3.936 -0.048,-0.048 -0.24,0.048 -0.408,0.264 -0.432,0.528 -1.2,0.456 -3.288,-0.384 -4.152,-1.632 -10.056,-5.112 -13.92,-8.232 -1.512,-1.2 -1.752,-1.512 -1.752,-2.16 0,-0.624 0.168,-0.864 0.984,-1.392 0.552,-0.36 1.296,-0.72 1.68,-0.792 0.384,-0.096 0.696,-0.24 0.696,-0.36 0,-0.336 -0.672,-0.48 -0.816,-0.168 -0.072,0.168 -0.048,-0.024 0.024,-0.408 0.12,-0.576 0.072,-0.672 -0.264,-0.552 -0.24,0.096 -0.384,0.024 -0.384,-0.192 0,-0.744 -0.384,-0.288 -1.224,1.392 -1.152,2.328 -1.56,2.376 -3.504,0.48 -1.104,-1.104 -4.632,-5.208 -5.544,-6.432 -5.112,-7.056 -8.784,-16.176 -10.008,-24.936 -0.192,-1.44 -0.36,-3.312 -0.36,-4.152 0,-1.44 0.048,-1.56 0.936,-2.472 0.504,-0.528 1.08,-0.96 1.248,-0.984 0.192,-0.024 0.072,-0.096 -0.264,-0.192 -0.456,-0.12 -0.624,-0.336 -0.672,-0.936 -0.072,-0.624 -0.192,-0.768 -0.648,-0.768 -0.816,0 -0.912,-0.768 -0.504,-4.272 0.576,-4.92 1.728,-9.672 3.36,-14.064 0.6,-1.584 3.048,-6.696 3.936,-8.184 3.504,-5.928 8.52,-11.544 14.208,-15.864 3.936,-3 11.28,-6.96 13.056,-7.032 0.6,-0.024 0.672,0.048 0.552,0.504 z"
     inkscape:connector-curvature="0" />
  <path
     style="fill:#b9b9b9;stroke:none"
     id="path14"
     d="m 130.416,83.328 c -0.192,0.288 0.216,0.312 2.544,0.192 l 2.28,-0.12 -2.352,-0.12 c -1.32,-0.072 -2.424,-0.048 -2.472,0.048 z"
     inkscape:connector-curvature="0" />
  <path
     style="fill:#b9b9b9;stroke:none"
     id="path16"
     d="m 139.92,83.28 -2.04,0.12 2.112,0.12 c 1.176,0.072 2.184,0.048 2.232,-0.048 0.168,-0.288 -0.216,-0.312 -2.304,-0.192 z"
     inkscape:connector-curvature="0" />
  <path
     style="fill:#b9b9b9;stroke:none"
     id="path18"
     d="m 146.64,83.28 -2.28,0.12 2.352,0.12 c 1.32,0.072 2.424,0.048 2.472,-0.048 0.192,-0.288 -0.216,-0.312 -2.544,-0.192 z"
     inkscape:connector-curvature="0" />
  <path
     style="fill:#b9b9b9;stroke:none"
     id="path20"
     d="m 157.776,83.328 c -0.192,0.288 0.216,0.312 2.544,0.192 l 2.28,-0.12 -2.352,-0.12 c -1.32,-0.072 -2.424,-0.048 -2.472,0.048 z"
     inkscape:connector-curvature="0" />
  <path
     style="fill:#b9b9b9;stroke:none"
     id="path22"
     d="m 152.712,83.448 c 0.624,0.048 1.608,0.048 2.16,0 0.552,-0.048 0.048,-0.072 -1.152,-0.072 -1.176,0 -1.632,0.024 -1.008,0.072 z"
     inkscape:connector-curvature="0" />
  <path
     style="fill:#b9b9b9;stroke:none"
     id="path28"
     d="m 73.032,61.368 -0.504,0.72 0.576,-0.12 c 0.72,-0.144 1.176,0.24 1.968,1.632 0.36,0.6 0.792,1.08 0.96,1.056 0.144,-0.024 0.408,-0.048 0.528,-0.072 0.144,0 0.24,-0.312 0.24,-0.696 0,-0.552 -0.216,-0.768 -1.536,-1.44 -1.032,-0.528 -1.584,-0.96 -1.632,-1.296 -0.072,-0.432 -0.12,-0.408 -0.6,0.216 z"
     inkscape:connector-curvature="0" />
  <path
     style="fill:#b9b9b9;stroke:none"
     id="path32"
     d="m 83.784,78.168 c 0,0.408 -0.12,0.792 -0.24,0.84 -0.144,0.024 -0.024,0.696 0.24,1.488 0.72,2.112 0.6,2.4 -0.984,2.568 -1.032,0.12 -0.84,0.144 0.96,0.144 1.248,0 1.968,-0.048 1.584,-0.096 -0.696,-0.12 -0.696,-0.12 -0.528,-1.464 0.072,-0.744 0.216,-1.728 0.288,-2.16 0.144,-0.696 0.096,-0.768 -0.456,-0.768 -0.48,0 -0.648,-0.144 -0.72,-0.672 -0.096,-0.624 -0.096,-0.624 -0.144,0.12 z"
     inkscape:connector-curvature="0" />
  <path
     style="fill:#b9b9b9;stroke:none"
     id="path34"
     d="m 96.048,83.016 c -0.24,0.144 -0.192,0.24 0.24,0.336 0.864,0.24 2.544,0.192 2.712,-0.072 0.096,-0.144 -0.264,-0.24 -0.936,-0.24 -0.576,0 -1.2,-0.048 -1.392,-0.12 -0.168,-0.072 -0.456,-0.024 -0.624,0.096 z"
     inkscape:connector-curvature="0" />
  <path
     style="fill:#b9b9b9;stroke:none"
     id="path36"
     d="m 113.016,83.064 c -0.168,0.12 -0.816,0.216 -1.416,0.24 -0.6,0.024 -0.888,0.072 -0.648,0.144 0.216,0.048 0.408,0.336 0.408,0.6 l 0,0.504 0.552,-0.504 c 0.312,-0.288 0.936,-0.528 1.488,-0.576 0.864,-0.072 0.912,-0.096 0.456,-0.36 -0.312,-0.168 -0.6,-0.192 -0.84,-0.048 z"
     inkscape:connector-curvature="0" />
  <path
     style="fill:#b9b9b9;stroke:none"
     id="path38"
     d="m 65.472,83.208 c 0.288,0.048 0.768,0.048 1.08,0 C 66.84,83.16 66.6,83.112 66,83.112 c -0.6,0 -0.84,0.048 -0.528,0.096 z"
     inkscape:connector-curvature="0" />
  <path
     style="fill:#b9b9b9;stroke:none"
     id="path40"
     d="m 70.032,83.208 c 0.552,0.048 1.416,0.048 1.92,0 0.48,-0.048 0.024,-0.096 -1.032,-0.096 -1.056,0 -1.464,0.048 -0.888,0.096 z"
     inkscape:connector-curvature="0" />
  <path
     style="fill:#b9b9b9;stroke:none"
     id="path42"
     d="m 88.992,83.208 c 0.408,0.048 1.128,0.048 1.56,0 0.408,-0.048 0.072,-0.096 -0.792,-0.096 -0.864,0 -1.2,0.048 -0.768,0.096 z"
     inkscape:connector-curvature="0" />
  <path
     style="fill:#b9b9b9;stroke:none"
     id="path44"
     d="m 102.792,83.208 c 0.624,0.048 1.632,0.048 2.28,0 0.624,-0.048 0.096,-0.072 -1.152,-0.072 -1.248,0 -1.776,0.024 -1.128,0.072 z"
     inkscape:connector-curvature="0" />
  <path
     style="fill:#b9b9b9;stroke:none"
     id="path46"
     d="m 94.776,100.824 c -0.792,0.864 -1.056,1.632 -0.84,2.496 0.144,0.552 0.264,0.6 1.416,0.6 0.888,-0.024 1.416,-0.144 1.848,-0.504 0.576,-0.48 0.576,-0.504 0.144,-0.816 -0.36,-0.288 -0.408,-0.528 -0.288,-1.416 l 0.168,-1.104 -0.864,0 c -0.672,0 -1.056,0.168 -1.584,0.744 z m 1.608,0.792 c -0.216,1.32 -0.552,1.824 -1.224,1.824 -0.504,0 -0.6,-0.12 -0.6,-0.72 0,-1.2 0.624,-2.16 1.344,-2.112 0.576,0.048 0.6,0.12 0.48,1.008 z"
     inkscape:connector-curvature="0" />
  <path
     style="fill:#b9b9b9;stroke:none"
     id="path48"
     d="m 82.32,116.76 c -0.312,0.336 -0.456,0.6 -0.312,0.6 0.288,0 1.152,-0.912 0.984,-1.08 -0.048,-0.072 -0.36,0.144 -0.672,0.48 z"
     inkscape:connector-curvature="0" />
  <path
     style="fill:#000000;stroke:none"
     inkscape:connector-curvature="0"
     id="path3035"
     d="m 110.88,27.768 c -4.704,0.144 -9.672,0.96 -14.352,2.328 -1.08,0.312 -2.016,0.576 -2.04,0.576 -0.24,0.048 -1.248,0.432 -2.376,0.888 -0.744,0.312 -1.392,0.528 -1.464,0.456 -0.048,-0.048 -0.24,0.048 -0.408,0.264 -0.168,0.192 -0.432,0.36 -0.576,0.36 -0.168,0 -1.296,0.552 -2.544,1.2 -1.248,0.672 -2.304,1.2 -2.352,1.2 -0.024,0 -0.288,0.168 -0.6,0.36 -0.288,0.216 -1.392,0.96 -2.448,1.632 -1.056,0.696 -2.496,1.68 -3.192,2.208 -1.728,1.296 -7.656,7.032 -8.568,8.256 -0.384,0.552 -1.2,1.608 -1.776,2.376 -1.56,2.04 -2.88,4.08 -3.72,5.688 -0.216,0.384 -0.48,0.888 -0.624,1.08 -0.12,0.192 -0.672,1.32 -1.224,2.52 -1.632,3.576 -1.92,4.272 -2.064,5.016 -0.048,0.24 -0.216,0.792 -0.408,1.2 -0.696,1.584 -1.92,6.744 -1.512,6.36 0.096,-0.072 0.432,-1.152 0.744,-2.4 1.344,-5.112 3.792,-10.992 6.312,-15.096 1.896,-3.096 4.944,-6.984 7.536,-9.624 4.416,-4.488 7.8,-7.056 13.224,-10.032 1.944,-1.056 6.288,-2.904 6.84,-2.904 0.36,0 0.408,0.384 0.072,0.6 -0.12,0.072 -0.24,0.288 -0.216,0.432 0,0.168 0.168,0.048 0.384,-0.264 0.504,-0.72 0.816,-0.672 2.088,0.312 1.176,0.888 1.344,0.96 1.344,0.624 0,-0.096 -0.48,-0.504 -1.08,-0.864 -0.576,-0.384 -1.104,-0.816 -1.176,-0.984 -0.216,-0.576 5.328,-2.136 9.816,-2.784 2.808,-0.384 12.6,-0.384 15.12,0 7.152,1.104 13.008,3.072 18.96,6.36 6.24,3.432 10.056,6.624 15.648,13.056 5.976,6.864 10.488,16.704 12.192,26.568 0.432,2.496 0.768,8.304 0.48,8.304 -0.096,0 -0.576,-0.288 -1.056,-0.648 L 165,81.768 l 0.576,0.624 0.576,0.648 -0.576,0.216 c -0.504,0.216 -0.456,0.24 0.432,0.24 0.552,0.024 1.032,0.12 1.08,0.264 0.168,0.528 -0.264,6.504 -0.624,8.64 -1.368,7.848 -3.528,13.68 -7.392,20.136 -3.912,6.456 -10.536,13.296 -16.872,17.352 -7.824,5.04 -16.008,7.752 -26.04,8.616 -9.984,0.84 -22.44,-2.232 -31.776,-7.872 -1.92,-1.176 -5.448,-3.792 -7.056,-5.232 l -1.272,-1.152 0.528,-0.576 c 0.312,-0.312 1.2,-0.888 1.992,-1.296 1.296,-0.672 1.32,-0.84 0.048,-0.312 -0.384,0.144 -0.432,0.096 -0.312,-0.216 0.096,-0.24 0.048,-0.408 -0.096,-0.408 -0.168,0 -0.216,-0.336 -0.12,-0.912 0.12,-0.768 0.024,-0.648 -0.672,0.792 -0.432,0.912 -1.032,1.872 -1.296,2.136 -0.504,0.432 -0.528,0.432 -1.416,-0.36 -1.2,-1.08 -4.464,-4.704 -5.64,-6.288 -2.376,-3.12 -4.944,-7.56 -6.768,-11.616 -2.256,-5.064 -4.344,-13.536 -4.488,-18.312 -0.048,-1.824 -0.048,-1.872 0.504,-2.04 0.264,-0.096 0.648,-0.456 0.84,-0.84 0.192,-0.384 0.552,-0.744 0.768,-0.792 0.336,-0.096 0.312,-0.12 -0.096,-0.144 -0.6,-0.024 -0.96,-0.912 -0.672,-1.632 0.12,-0.36 0.096,-0.384 -0.144,-0.144 -0.432,0.432 -1.104,0.384 -1.272,-0.048 -0.168,-0.456 0.288,-5.472 0.672,-7.632 C 58.584,72.72 58.632,72 58.512,72 c -0.096,0 -0.192,0.072 -0.192,0.168 0,0.12 -0.096,0.84 -0.24,1.632 -0.288,1.872 -0.408,2.808 -0.6,4.56 -0.264,2.784 -0.384,3.192 -0.864,3.312 -1.056,0.288 -1.056,2.832 0.024,3.168 0.456,0.144 0.6,0.624 0.816,2.64 0.24,2.232 0.432,4.08 0.504,4.56 0.192,1.296 1.152,5.376 1.416,6.12 0.192,0.456 0.336,0.936 0.36,1.08 0.12,0.816 0.648,2.352 1.608,4.608 0.624,1.44 1.104,2.736 1.128,2.88 0,0.168 0.096,0.312 0.192,0.312 0.144,0 0.48,0.672 0.576,1.2 0.024,0.144 0.84,1.584 1.68,3 0.312,0.528 0.768,1.272 0.984,1.68 0.216,0.384 0.72,1.104 1.08,1.584 0.384,0.48 0.696,0.96 0.696,1.056 0,0.6 7.272,8.664 8.784,9.72 0.288,0.192 0.984,0.768 1.56,1.248 1.296,1.104 4.272,3.312 4.464,3.312 0.072,0 0.48,0.24 0.888,0.552 0.408,0.288 1.008,0.672 1.344,0.84 0.336,0.168 1.032,0.576 1.56,0.888 0.528,0.336 1.176,0.696 1.44,0.816 0.264,0.12 1.344,0.6 2.4,1.104 2.976,1.368 3.24,1.464 5.04,2.04 0.936,0.288 1.896,0.624 2.16,0.744 0.696,0.288 3.096,0.864 4.92,1.176 0.864,0.144 2.208,0.384 3,0.504 0.792,0.144 1.872,0.312 2.4,0.36 1.344,0.12 8.928,0.096 10.08,-0.024 4.776,-0.504 9.864,-1.632 12.72,-2.76 0.264,-0.096 1.128,-0.432 1.92,-0.72 2.304,-0.864 8.928,-4.2 9.696,-4.896 0.24,-0.216 0.528,-0.384 0.648,-0.384 0.144,0 0.672,-0.36 1.2,-0.792 0.504,-0.432 1.224,-0.96 1.56,-1.176 0.984,-0.624 4.776,-3.96 6.312,-5.568 1.488,-1.56 4.344,-4.92 5.016,-5.904 2.28,-3.336 3.048,-4.536 4.224,-6.72 1.344,-2.448 2.688,-5.664 3.96,-9.36 2.496,-7.44 3.312,-17.784 1.944,-25.344 -0.192,-1.056 -0.408,-2.256 -0.48,-2.64 -0.24,-1.512 -0.936,-4.128 -1.944,-7.296 -0.84,-2.592 -4.656,-10.584 -5.496,-11.52 -0.192,-0.216 -0.36,-0.504 -0.36,-0.648 0,-0.144 -0.072,-0.312 -0.168,-0.36 -0.12,-0.048 -0.624,-0.72 -1.152,-1.512 -0.528,-0.792 -1.008,-1.488 -1.08,-1.56 -0.072,-0.072 -0.72,-0.816 -1.44,-1.68 -4.248,-5.04 -7.2,-7.752 -11.76,-10.728 -0.72,-0.48 -1.368,-0.936 -1.44,-1.008 -0.168,-0.192 -1.104,-0.744 -2.28,-1.296 -0.528,-0.264 -1.008,-0.552 -1.08,-0.648 -0.528,-0.768 -10.104,-4.416 -12.96,-4.944 -0.192,-0.048 -0.792,-0.168 -1.32,-0.312 -2.904,-0.696 -4.392,-0.912 -8.28,-1.128 -1.392,-0.072 -2.616,-0.144 -2.76,-0.168 -0.12,-0.024 -1.056,-0.024 -2.04,0 z" />
  <path
     style="fill:#000000;stroke:none"
     inkscape:connector-curvature="0"
     id="path3061"
     d="m 47.352,80.688 c -0.096,0.192 -0.048,0.24 0.48,0.288 0.36,0.024 0.36,0.024 -0.168,2.904 -0.24,1.32 -0.432,2.448 -0.408,2.52 0,0.072 0.456,0.12 0.96,0.12 0.888,0 0.912,-0.024 0.504,-0.408 -0.288,-0.264 -0.384,-0.6 -0.288,-1.08 0.168,-0.912 0.408,-1.2 1.248,-1.368 0.888,-0.168 1.656,-0.84 1.704,-1.488 0.096,-0.936 -0.024,-1.272 -0.552,-1.44 -0.744,-0.24 -3.336,-0.264 -3.48,-0.048 z m 3.144,0.576 c 0.072,0.216 0.144,0.528 0.144,0.72 0,0.456 -1.152,1.536 -1.632,1.536 -0.336,0 -0.336,-0.264 0.048,-1.68 0.072,-0.192 0.12,-0.504 0.12,-0.672 0.024,-0.432 1.152,-0.36 1.32,0.096 z" />
  <path
     style="fill:#000000;stroke:none"
     inkscape:connector-curvature="0"
     id="path3065"
     d="m 52.56,85.032 c -0.648,0.336 -0.96,1.464 -0.504,1.92 0.384,0.384 0.648,-0.048 0.312,-0.552 -0.384,-0.648 0.24,-1.32 0.936,-0.96 0.72,0.384 0.552,1.008 -0.648,2.4 -0.6,0.696 -0.984,1.344 -0.864,1.416 0.144,0.072 0.768,0.144 1.416,0.144 1.008,0 1.152,-0.072 1.224,-0.528 0.072,-0.48 0.024,-0.504 -0.648,-0.24 -0.552,0.192 -0.816,0.192 -1.008,0 -0.216,-0.216 -0.072,-0.456 0.576,-1.008 1.056,-0.936 1.248,-1.752 0.528,-2.424 -0.6,-0.576 -0.552,-0.552 -1.32,-0.168 z" />
  <path
     style="color:#000000;fill:none;stroke:#000000;stroke-width:0.875;stroke-linecap:butt;stroke-linejoin:miter;stroke-miterlimit:4;stroke-opacity:1;stroke-dasharray:5.25,0.875;stroke-dashoffset:0;marker:none;visibility:visible;display:inline;overflow:visible;enable-background:accumulate"
     d="m 72.52974,104.42503 135.86907,0 -90.41379,-64.829669"
     id="path3177"
     inkscape:connector-curvature="0"
     transform="matrix(0.80000001,0,0,0.80000001,0,-4.5559418e-6)" />
  <path
     style="color:#000000;fill:none;stroke:#000000;stroke-width:0.875;stroke-linecap:butt;stroke-linejoin:miter;stroke-miterlimit:4;stroke-opacity:1;stroke-dasharray:none;stroke-dashoffset:0;marker:none;visibility:visible;display:inline;overflow:visible;enable-background:accumulate"
     d="M 117.48825,39.595361 72.778129,103.18308"
     id="path3949"
     inkscape:connector-curvature="0"
     transform="matrix(0.80000001,0,0,0.80000001,0,-4.5559418e-6)"
     sodipodi:nodetypes="cc" />
  <path
     style="color:#000000;fill:none;stroke:#000000;stroke-width:0.875;stroke-linecap:butt;stroke-linejoin:miter;stroke-miterlimit:4;stroke-opacity:1;stroke-dasharray:none;stroke-dashoffset:0;marker:none;visibility:visible;display:inline;overflow:visible;enable-background:accumulate"
     d="M 143.81753,104.42503 97.368692,152.11581"
     id="path3951"
     inkscape:connector-curvature="0"
     transform="matrix(0.80000001,0,0,0.80000001,0,-4.5559418e-6)" />
  <path
     style="color:#000000;fill:none;stroke:#000000;stroke-width:0.87500000000000000;stroke-linecap:butt;stroke-linejoin:miter;stroke-miterlimit:4;stroke-opacity:1;stroke-dasharray:none;stroke-dashoffset:0;marker:none;visibility:visible;display:inline;overflow:visible;enable-background:accumulate;marker-end:url(#Arrow2Mend)"
     d="m 160.45963,63.440754 -9.68719,4.471012"
     id="path3953"
     inkscape:connector-curvature="0"
     transform="matrix(0.80000001,0,0,0.80000001,0,-4.5559418e-6)"
     sodipodi:nodetypes="cc" />
  <path
     style="color:#000000;fill:none;stroke:#000000;stroke-width:0.69999999;stroke-linecap:butt;stroke-linejoin:miter;stroke-miterlimit:4;stroke-opacity:1;stroke-dasharray:none;stroke-dashoffset:0;marker:none;marker-end:url(#Arrow2Mend);visibility:visible;display:inline;overflow:visible;enable-background:accumulate"
     d="m 105.37077,61.107903 7.74975,-3.576809"
     id="path3953-6"
     inkscape:connector-curvature="0"
     sodipodi:nodetypes="cc" />
  <path
     sodipodi:type="arc"
     style="fill:none;stroke:#000000;stroke-opacity:1;marker-start:url(#Arrow2Mstart);marker-end:url(#Arrow2Mend-8)"
     id="path4423"
     sodipodi:cx="70.542625"
     sodipodi:cy="103.92825"
     sodipodi:rx="35.519703"
     sodipodi:ry="35.519703"
     d="m 93.52862,76.848863 a 35.519703,35.519703 0 0 1 12.48553,25.229967"
     transform="matrix(0.80000001,0,0,0.80000001,0,-4.5807156e-6)"
     sodipodi:start="5.4162076"
     sodipodi:end="6.2310941"
     sodipodi:open="true" />
  <rect
     style="fill:#ffffff;stroke:none;stroke-width:0.87500000000000000;stroke-miterlimit:4;stroke-opacity:1;stroke-dasharray:none;stroke-dashoffset:0;fill-opacity:1"
     id="rect4820"
     width="8.9420223"
     height="6.7065172"
     x="115.50113"
     y="124.29619"
     transform="matrix(0.80000001,0,0,0.80000001,0,-4.5559418e-6)" />
  <text
     xml:space="preserve"
     style="font-size:8.64000034px;font-style:normal;font-variant:normal;font-weight:bold;font-stretch:normal;text-indent:0;text-align:start;text-decoration:none;line-height:125%;letter-spacing:0px;word-spacing:0px;text-transform:none;direction:ltr;block-progression:tb;writing-mode:lr-tb;text-anchor:start;baseline-shift:baseline;color:#000000;fill:#000000;fill-opacity:1;fill-rule:nonzero;stroke:none;stroke-width:1.24999988px;marker:none;visibility:visible;display:inline;overflow:visible;enable-background:accumulate;font-family:Linux Libertine O;-inkscape-font-specification:Sans"
     x="94.785446"
     y="103.60989"
     id="text4822"
     sodipodi:linespacing="125%"><tspan
       sodipodi:role="line"
       id="tspan4824"
       x="94.785446"
       y="103.60989">a</tspan></text>
  <rect
     style="fill:#ffffff;fill-opacity:1;stroke:none"
     id="rect4826"
     width="8.4452438"
     height="7.7000751"
     x="98.113861"
     y="85.547424"
     transform="matrix(0.80000001,0,0,0.80000001,0,-4.5559418e-6)" />
  <text
     xml:space="preserve"
     style="font-size:8.64000034px;font-style:normal;font-variant:normal;font-weight:bold;font-stretch:normal;text-indent:0;text-align:start;text-decoration:none;line-height:125%;letter-spacing:0px;word-spacing:0px;text-transform:none;direction:ltr;block-progression:tb;writing-mode:lr-tb;text-anchor:start;baseline-shift:baseline;color:#000000;fill:#000000;fill-opacity:1;fill-rule:nonzero;stroke:none;stroke-width:1.24999988px;marker:none;visibility:visible;display:inline;overflow:visible;enable-background:accumulate;font-family:Linux Libertine O;-inkscape-font-specification:Sans"
     x="79.683357"
     y="74.399284"
     id="text4828"
     sodipodi:linespacing="125%"><tspan
       sodipodi:role="line"
       id="tspan4830"
       x="79.683357"
       y="74.399284">θ</tspan></text>
  <text
     xml:space="preserve"
     style="font-size:8.64000034px;font-style:normal;font-variant:normal;font-weight:bold;font-stretch:normal;text-indent:0;text-align:start;text-decoration:none;line-height:125%;letter-spacing:0px;word-spacing:0px;text-transform:none;direction:ltr;block-progression:tb;writing-mode:lr-tb;text-anchor:start;baseline-shift:baseline;color:#000000;fill:#000000;fill-opacity:1;fill-rule:nonzero;stroke:none;stroke-width:1.24999988px;marker:none;visibility:visible;display:inline;overflow:visible;enable-background:accumulate;font-family:Linux Libertine O;-inkscape-font-specification:Sans"
     x="129.16255"
     y="51.348736"
     id="text4832"
     sodipodi:linespacing="125%"><tspan
       sodipodi:role="line"
       id="tspan4834"
       x="129.16255"
       y="51.348736">d<tspan
   style="font-style:italic;-inkscape-font-specification:Linux Libertine O Bold Italic"
   id="tspan4836">r</tspan></tspan></text>
  <text
     xml:space="preserve"
     style="font-size:8.64000034px;font-style:italic;font-variant:normal;font-weight:bold;font-stretch:normal;text-indent:0;text-align:start;text-decoration:none;line-height:125%;letter-spacing:0px;word-spacing:0px;text-transform:none;direction:ltr;block-progression:tb;writing-mode:lr-tb;text-anchor:start;baseline-shift:baseline;color:#000000;fill:#000000;fill-opacity:1;fill-rule:nonzero;stroke:none;stroke-width:1.24999988px;marker:none;visibility:visible;display:inline;overflow:visible;enable-background:accumulate;font-family:Linux Libertine O;-inkscape-font-specification:Linux Libertine O Bold Italic"
     x="82.862747"
     y="53.733273"
     id="text4859"
     sodipodi:linespacing="125%"><tspan
       sodipodi:role="line"
       id="tspan4861"
       x="82.862747"
       y="53.733273">r</tspan></text>
  <text
     xml:space="preserve"
     style="font-size:8.64000034px;font-style:normal;font-variant:normal;font-weight:bold;font-stretch:normal;text-indent:0;text-align:start;text-decoration:none;line-height:125%;letter-spacing:0px;word-spacing:0px;text-transform:none;direction:ltr;block-progression:tb;writing-mode:lr-tb;text-anchor:start;baseline-shift:baseline;color:#000000;fill:#000000;fill-opacity:1;fill-rule:nonzero;stroke:none;stroke-width:1.24999988px;marker:none;visibility:visible;display:inline;overflow:visible;enable-background:accumulate;font-family:Linux Libertine O;-inkscape-font-specification:Sans"
     x="134.13034"
     y="110.16737"
     id="text4863"
     sodipodi:linespacing="125%"><tspan
       sodipodi:role="line"
       id="tspan4865"
       x="134.13034"
       y="110.16737">σ</tspan></text>
</svg>
