<?xml version="1.0" encoding="UTF-8" standalone="no"?>
<svg
   xmlns:dc="http://purl.org/dc/elements/1.1/"
   xmlns:cc="http://creativecommons.org/ns#"
   xmlns:rdf="http://www.w3.org/1999/02/22-rdf-syntax-ns#"
   xmlns:svg="http://www.w3.org/2000/svg"
   xmlns="http://www.w3.org/2000/svg"
   xmlns:sodipodi="http://sodipodi.sourceforge.net/DTD/sodipodi-0.dtd"
   xmlns:inkscape="http://www.inkscape.org/namespaces/inkscape"
   version="1.0"
   width="201.600000pt"
   height="182.880000pt"
   viewBox="0 0 201.600000 182.880000"
   preserveAspectRatio="xMidYMid meet"
   id="svg2989"
   sodipodi:docname="black.svg">
  <defs
     id="defs3047" />
  <sodipodi:namedview
     pagecolor="#ffffff"
     bordercolor="#666666"
     borderopacity="1"
     objecttolerance="10"
     gridtolerance="10"
     guidetolerance="10"
     inkscape:pageopacity="0"
     inkscape:pageshadow="2"
     inkscape:window-width="1280"
     inkscape:window-height="996"
     id="namedview3045"
     showgrid="false"
     inkscape:zoom="1.0323709"
     inkscape:cx="-46.902971"
     inkscape:cy="114.3"
     inkscape:window-x="0"
     inkscape:window-y="0"
     inkscape:window-maximized="1"
     inkscape:current-layer="svg2989" />
  <metadata
     id="metadata2991">
Created by potrace 1.10, written by Peter Selinger 2001-2011
<rdf:RDF>
  <cc:Work
     rdf:about="">
    <dc:format>image/svg+xml</dc:format>
    <dc:type
       rdf:resource="http://purl.org/dc/dcmitype/StillImage" />
  </cc:Work>
</rdf:RDF>
</metadata>
  <rect
     style="fill:#b9b9b9;fill-opacity:1;stroke:none"
     id="rect3049"
     width="222.51968"
     height="181.33017"
     x="-2.3247457"
     y="1.5498281"
     ry="0.99765217" />
  <g
     transform="translate(0.000000,182.880000) scale(0.024000,-0.024000)"
     fill="#000000"
     stroke="none"
     id="g2993">
    <path
       d="M1247 6768 c-3 -13 -6 -178 -6 -368 -2 -2000 -2 -2700 4 -4175 3 -940 7 -1710 8 -1711 1 -1 533 -5 1182 -8 649 -3 1504 -8 1900 -11 2148 -14 3033 -16 3039 -7 10 16 -55 17 -1029 20 -506 1 -1192 4 -1525 7 -333 3 -1203 8 -1935 12 -731 3 -1364 7 -1405 8 -41 1 -105 3 -141 3 l-66 2 -1 348 c0 191 -3 1595 -6 3121 -4 1526 -8 2776 -10 2778 -2 2 -6 -6 -9 -19z"
       id="path2995" />
    <path
       d="M1378 6719 c-19 -11 -24 -35 -8 -41 5 -2 6 -18 2 -38 -16 -73 14 -108 57 -68 21 19 21 19 21 -10 0 -16 -8 -36 -19 -46 -16 -15 -19 -15 -31 -1 -18 22 -32 18 -28 -7 5 -34 47 -36 78 -3 24 26 76 198 64 216 -13 21 -34 8 -34 -21 0 -46 -47 -130 -73 -130 -5 0 -7 16 -3 38 19 117 19 122 5 122 -8 0 -22 -5 -31 -11z"
       id="path2997" />
    <path
       d="M4490 5494 c-90 -19 -99 -23 -80 -34 19 -11 144 -40 171 -40 10 0 19 7 19 15 0 13 22 15 134 15 79 0 137 4 141 10 5 8 -189 17 -241 11 -6 -1 -19 8 -29 19 -21 23 -27 23 -115 4z"
       id="path2999" />
    <path
       d="M6163 5327 c-24 -30 -123 -252 -119 -264 4 -10 34 -13 125 -13 66 0 122 4 126 9 8 14 -96 264 -114 275 -5 3 -13 0 -18 -7z m18 -94 c6 -16 12 -32 13 -38 1 -5 7 -20 14 -32 7 -12 12 -31 12 -42 0 -19 -6 -21 -70 -21 -38 0 -70 3 -70 6 0 17 72 154 80 154 6 0 15 -12 21 -27z"
       id="path3001" />
    <path
       d="M7557 5323 c-3 -5 -34 -65 -69 -135 -50 -99 -62 -130 -53 -138 8 -7 60 -10 131 -8 113 3 119 4 116 23 -3 22 -2 20 -63 158 -43 98 -53 114 -62 100z m23 -125 c7 -24 17 -47 22 -52 4 -6 8 -20 8 -33 0 -22 -4 -23 -70 -23 -38 0 -70 3 -70 6 0 3 17 41 37 84 41 87 50 90 73 18z"
       id="path3003" />
    <path
       d="M5240 5270 c-19 -43 -25 -72 -25 -130 0 -69 3 -81 32 -125 37 -57 44 -45 12 18 -30 59 -33 160 -8 218 11 23 18 50 17 58 -2 9 -14 -9 -28 -39z"
       id="path3005" />
    <path
       d="M5777 5313 c-4 -3 -7 -30 -7 -60 l0 -53 -54 0 c-54 0 -78 -12 -54 -26 7 -4 32 -8 57 -8 l46 -1 3 -50 c3 -48 17 -79 31 -70 4 2 7 23 5 47 -4 73 0 78 62 78 41 0 54 4 54 15 0 12 -13 15 -55 15 -36 0 -56 4 -57 13 0 6 -2 26 -3 42 -4 60 -5 65 -13 65 -5 0 -12 -3 -15 -7z"
       id="path3007" />
    <path
       d="M7149 5308 c-1 -7 -2 -33 -3 -58 l-1 -45 -55 0 c-42 0 -55 -4 -55 -15 0 -11 15 -16 55 -20 l55 -5 1 -45 c3 -69 3 -70 19 -70 12 0 15 13 15 60 l0 60 53 0 c57 0 68 5 61 24 -3 7 -22 11 -47 10 -56 -2 -67 9 -67 67 0 37 -4 49 -15 49 -8 0 -15 -6 -16 -12z"
       id="path3009" />
    <path
       d="M7986 5273 c38 -70 38 -159 1 -231 -28 -56 -34 -77 -17 -67 24 15 63 112 67 170 4 52 1 67 -24 114 -15 30 -34 56 -41 59 -7 2 -1 -17 14 -45z"
       id="path3011" />
    <path
       d="M6742 5214 c-21 -15 -30 -44 -14 -44 5 0 7 -24 4 -54 -3 -44 -1 -54 13 -60 10 -3 28 0 41 9 27 17 29 12 13 -34 -12 -34 -33 -41 -43 -14 -5 12 -10 13 -18 5 -15 -15 -4 -38 21 -45 29 -7 68 27 81 71 18 58 39 146 40 160 0 6 -9 12 -20 12 -15 0 -20 -7 -20 -25 0 -35 -48 -127 -63 -122 -14 5 -14 36 0 94 13 52 -1 71 -35 47z"
       id="path3013" />
    <path
       d="M4174 5209 c-4 -7 -8 -1087 -5 -1393 0 -10 4 -23 9 -28 9 -9 951 -12 961 -3 10 11 7 1406 -4 1415 -12 10 -955 18 -961 9z m837 -34 c101 1 105 0 103 -19 -1 -12 -3 -21 -4 -21 -1 0 -3 -19 -4 -42 -2 -24 0 -43 4 -43 9 0 6 -32 -4 -48 -4 -7 -2 -12 4 -12 6 0 8 -5 4 -12 -7 -10 -9 -66 -4 -85 1 -5 1 -12 0 -18 -3 -13 -1 -182 3 -222 2 -18 -1 -33 -6 -33 -4 0 -5 -5 -1 -12 12 -19 12 -118 0 -118 -7 0 -8 -3 -1 -8 13 -9 13 -205 0 -214 -7 -5 -7 -8 0 -8 6 0 9 -78 8 -217 0 -120 -2 -220 -2 -223 -1 -3 -205 -6 -454 -5 l-453 0 1 470 c0 258 4 476 9 484 6 9 5 12 -1 8 -13 -8 -11 192 1 212 6 9 5 12 -1 8 -6 -4 -9 27 -9 86 l1 92 332 0 c183 0 335 4 339 8 4 4 12 3 18 -1 6 -4 59 -7 117 -7z"
       id="path3015" />
    <path
       d="M5375 5190 c-16 -16 -24 -30 -17 -30 6 0 14 5 17 10 12 20 33 9 39 -21 8 -40 -8 -69 -39 -69 -16 0 -25 -6 -25 -15 0 -24 29 -29 51 -9 19 17 21 18 30 1 6 -9 18 -17 28 -17 22 0 56 36 42 44 -5 4 -13 1 -17 -5 -10 -17 -34 18 -34 50 0 32 14 56 28 47 15 -9 38 22 25 35 -8 8 -18 4 -33 -11 l-22 -22 -19 21 c-11 12 -21 21 -23 21 -1 0 -15 -13 -31 -30z"
       id="path3017" />
    <path
       d="M6380 5198 c-26 -28 -26 -47 0 -23 23 21 32 16 36 -22 3 -32 -11 -63 -31 -63 -20 0 -29 -20 -16 -33 8 -8 18 -4 36 13 l26 24 5 -21 c8 -30 28 -35 53 -12 27 25 26 29 -1 26 -17 -2 -23 5 -28 30 -8 34 13 79 31 68 14 -9 29 4 22 20 -7 19 -27 19 -44 -1 -11 -14 -13 -14 -21 0 -13 23 -44 20 -68 -6z"
       id="path3019" />
    <path
       d="M7737 5192 c-19 -20 -13 -34 9 -25 12 4 12 0 4 -22 -13 -35 -13 -88 1 -102 8 -8 18 -8 35 -1 29 14 32 28 4 21 -24 -6 -25 3 -5 76 8 30 12 58 9 63 -9 14 -40 9 -57 -10z"
       id="path3021" />
    <path
       d="M7845 5158 c-9 -29 -21 -58 -26 -64 -5 -6 -7 -19 -3 -28 6 -16 -13 -76 -24 -76 -3 0 -13 7 -23 16 -21 19 -39 11 -32 -15 7 -26 42 -34 70 -16 31 20 48 56 67 142 20 87 20 93 2 93 -8 0 -21 -23 -31 -52z"
       id="path3023" />
    <path
       d="M6546 5082 c-3 -5 1 -15 9 -22 14 -12 13 -16 -6 -37 -17 -18 -19 -23 -7 -23 23 0 50 36 46 62 -3 23 -31 37 -42 20z"
       id="path3025" />
    <path
       d="M3910 4611 c0 -136 -1 -143 -21 -148 -11 -3 -18 -11 -15 -18 2 -7 12 -51 22 -99 17 -90 29 -101 40 -38 3 20 12 59 20 85 14 51 10 77 -12 77 -11 0 -14 25 -13 131 1 85 -3 135 -10 142 -8 8 -11 -26 -11 -132z"
       id="path3027" />
    <path
       d="M5354 4636 c-16 -89 -16 -95 0 -111 14 -14 16 -37 15 -142 -1 -114 3 -145 16 -131 3 2 5 62 6 131 0 111 3 128 18 140 18 12 18 17 4 87 -8 41 -17 85 -19 98 -9 45 -22 20 -40 -72z"
       id="path3029" />
    <path
       d="M3410 3883 c-42 -101 -38 -192 13 -266 29 -43 30 -26 2 34 -29 63 -33 141 -9 197 8 20 15 39 16 42 0 3 3 10 5 17 3 7 3 17 1 24 -2 6 -15 -16 -28 -48z"
       id="path3031" />
    <path
       d="M4030 3926 c0 -4 12 -30 26 -58 22 -44 26 -61 21 -109 -3 -32 -17 -83 -31 -115 -30 -64 -30 -64 -16 -64 6 0 10 5 10 11 0 6 8 23 18 37 45 65 54 167 21 237 -19 40 -49 77 -49 61z"
       id="path3033" />
    <path
       d="M3632 3808 c-19 -19 -22 -20 -28 -5 -6 17 -35 23 -47 10 -4 -3 -1 -13 7 -22 22 -26 27 -65 10 -89 -8 -12 -20 -20 -25 -17 -14 9 -29 -4 -22 -20 8 -24 31 -17 47 13 l14 27 11 -27 c12 -33 31 -36 56 -8 14 16 15 19 4 15 -24 -9 -41 19 -37 62 3 33 7 38 31 41 30 4 34 14 14 30 -10 9 -19 6 -35 -10z"
       id="path3035" />
    <path
       d="M3813 3818 c-21 -27 -27 -41 -13 -33 10 6 11 -4 6 -49 -9 -69 2 -90 40 -75 14 5 27 9 30 9 10 0 2 -36 -11 -54 -14 -18 -16 -18 -33 -3 -24 22 -32 21 -32 -3 0 -47 77 -41 100 8 24 52 59 197 50 206 -17 17 -37 -3 -43 -43 -3 -22 -15 -54 -27 -71 -23 -33 -55 -42 -46 -12 5 17 14 70 19 107 2 23 -25 32 -40 13z"
       id="path3037" />
    <path
       d="M3710 3677 c0 -7 5 -18 12 -25 8 -8 5 -16 -13 -31 -26 -22 -20 -27 11 -11 30 16 44 48 29 66 -14 18 -39 18 -39 1z"
       id="path3039" />
    <path
       d="M4670 3570 c0 -17 -7 -20 -47 -20 -176 -2 -238 -6 -236 -15 2 -5 61 -9 140 -10 123 0 138 -2 141 -17 2 -10 8 -18 13 -18 30 0 198 45 192 51 -7 6 -179 49 -197 49 -3 0 -6 -9 -6 -20z"
       id="path3041" />
    <path
       d="M7477 552 c-24 -27 -22 -50 2 -28 23 21 36 7 33 -39 -2 -30 -28 -59 -43 -49 -5 3 -9 -4 -9 -15 0 -27 26 -27 41 0 l11 21 19 -21 c22 -24 40 -26 57 -9 18 18 15 27 -7 21 -14 -3 -21 3 -28 24 -13 40 -2 77 25 81 12 2 22 10 22 18 0 20 -27 18 -39 -3 -10 -17 -12 -17 -25 0 -17 22 -39 22 -59 -1z"
       id="path3043" />
  </g>
</svg>
