<?xml version="1.0" encoding="UTF-8" standalone="no"?>
<svg
   xmlns:dc="http://purl.org/dc/elements/1.1/"
   xmlns:cc="http://creativecommons.org/ns#"
   xmlns:rdf="http://www.w3.org/1999/02/22-rdf-syntax-ns#"
   xmlns:svg="http://www.w3.org/2000/svg"
   xmlns="http://www.w3.org/2000/svg"
   xmlns:sodipodi="http://sodipodi.sourceforge.net/DTD/sodipodi-0.dtd"
   xmlns:inkscape="http://www.inkscape.org/namespaces/inkscape"
   version="1.0"
   width="198.720000pt"
   height="209.520000pt"
   viewBox="0 0 198.720000 209.520000"
   preserveAspectRatio="xMidYMid meet"
   id="svg2989"
   sodipodi:docname="black.svg">
  <defs
     id="defs3061" />
  <sodipodi:namedview
     pagecolor="#ffffff"
     bordercolor="#666666"
     borderopacity="1"
     objecttolerance="10"
     gridtolerance="10"
     guidetolerance="10"
     inkscape:pageopacity="0"
     inkscape:pageshadow="2"
     inkscape:window-width="960"
     inkscape:window-height="995"
     id="namedview3059"
     showgrid="false"
     inkscape:zoom="2.4325205"
     inkscape:cx="156.07544"
     inkscape:cy="114.6259"
     inkscape:window-x="0"
     inkscape:window-y="0"
     inkscape:window-maximized="0"
     inkscape:current-layer="svg2989" />
  <metadata
     id="metadata2991">
Created by potrace 1.10, written by Peter Selinger 2001-2011
<rdf:RDF>
  <cc:Work
     rdf:about="">
    <dc:format>image/svg+xml</dc:format>
    <dc:type
       rdf:resource="http://purl.org/dc/dcmitype/StillImage" />
  </cc:Work>
</rdf:RDF>
</metadata>
  <rect
     style="fill:#b9b9b9;fill-opacity:1;stroke:none"
     id="rect3063"
     width="222.51968"
     height="212.87668"
     x="0.81875718"
     y="2.3746181"
     ry="1.2470652" />
  <path
     style="fill:#000000;stroke:none"
     inkscape:connector-curvature="0"
     id="path2995"
     d="m 171.936,19.848 c -0.072,0.384 -0.312,1.272 -0.504,1.992 -0.192,0.72 -0.408,1.536 -0.456,1.8 -0.24,1.296 -0.312,1.584 -0.408,1.752 -0.072,0.096 -0.192,0.576 -0.264,1.08 -0.144,0.936 -0.144,0.936 0.576,0.768 l 0.72,-0.168 0.048,3.816 c 0,2.088 0,4.032 -0.024,4.344 -0.024,0.288 0.12,0.6 0.336,0.672 0.336,0.144 0.336,0.216 -0.024,0.744 -0.336,0.552 -0.36,1.416 -0.264,7.608 0.048,3.864 0,7.248 -0.12,7.56 -0.144,0.384 -0.12,0.648 0.072,0.744 0.144,0.12 0.168,0.24 0.048,0.312 -0.264,0.168 -0.264,0.864 0,1.296 0.096,0.144 0.072,0.336 -0.072,0.432 -0.144,0.096 -0.168,0.312 -0.048,0.552 0.24,0.504 0.192,2.016 -0.072,2.448 -0.12,0.192 -0.096,0.264 0.048,0.168 0.144,-0.096 0.264,0.096 0.264,0.432 0,0.36 -0.12,0.528 -0.288,0.432 -0.144,-0.072 -0.048,0.072 0.216,0.336 0.48,0.48 0.552,0.456 1.512,-0.408 0.36,-0.312 0.408,-0.84 0.36,-3.84 -0.36,-23.808 -0.36,-28.32 -0.024,-28.32 0.192,0 0.528,-0.144 0.768,-0.312 0.408,-0.288 0.408,-0.384 -0.096,-1.728 -0.288,-0.792 -0.624,-1.824 -0.744,-2.28 -0.144,-0.456 -0.336,-1.056 -0.456,-1.32 -0.12,-0.264 -0.288,-0.72 -0.36,-1.032 -0.216,-0.72 -0.552,-0.672 -0.744,0.12 z" />
  <path
     style="fill:#000000;stroke:none"
     inkscape:connector-curvature="0"
     id="path2997"
     d="m 26.28,21.576 c -0.096,0.168 -0.504,0.216 -1.032,0.12 -0.72,-0.12 -0.984,-0.048 -1.368,0.408 L 23.4,22.632 24,22.488 c 0.336,-0.072 0.816,-0.048 1.056,0.048 0.432,0.168 0.36,0.288 -0.648,1.392 -1.2,1.272 -1.536,2.064 -0.6,1.416 0.504,-0.36 1.272,-0.192 1.656,0.384 0.192,0.312 1.176,-0.72 1.176,-1.248 0,-0.264 -0.096,-0.48 -0.24,-0.48 -0.12,0 -0.24,0.216 -0.24,0.48 0,0.576 -0.528,0.624 -1.056,0.096 -0.48,-0.48 -0.504,-0.432 0.24,-1.224 0.84,-0.888 1.392,-1.728 1.224,-1.896 -0.072,-0.072 -0.192,-0.024 -0.288,0.12 z" />
  <path
     style="fill:#000000;stroke:none"
     inkscape:connector-curvature="0"
     id="path2999"
     d="m 25.104,38.016 c 0.072,11.856 0.288,45.144 0.456,72.144 0.072,10.488 0.192,23.016 0.24,27.84 0.072,4.824 0.168,14.232 0.264,20.904 0.096,9.12 0.072,12.288 -0.144,12.696 -0.36,0.672 -0.288,0.72 1.248,0.96 0.696,0.096 2.4,0.408 3.792,0.72 1.392,0.288 2.784,0.576 3.12,0.624 2.856,0.528 4.56,0.84 5.16,0.912 0.408,0.072 1.536,0.288 2.52,0.504 0.984,0.216 2.136,0.432 2.52,0.504 0.408,0.048 1.272,0.192 1.92,0.336 0.672,0.144 1.584,0.312 2.04,0.36 0.456,0.072 1.032,0.192 1.248,0.264 0.24,0.072 0.72,0.168 1.08,0.24 0.384,0.048 1.44,0.264 2.352,0.432 0.936,0.192 2.064,0.408 2.52,0.48 0.456,0.072 1.104,0.192 1.44,0.264 0.336,0.072 1.08,0.192 1.68,0.264 0.576,0.072 1.128,0.168 1.224,0.24 0.096,0.048 0.624,0.144 1.176,0.216 0.576,0.072 1.104,0.192 1.2,0.24 0.096,0.048 0.84,0.216 1.704,0.336 0.84,0.144 1.8,0.312 2.136,0.384 0.336,0.072 1.152,0.24 1.8,0.36 0.672,0.12 2.112,0.384 3.24,0.6 1.128,0.192 2.616,0.48 3.312,0.6 0.72,0.12 1.464,0.288 1.68,0.336 0.24,0.072 1.656,0.36 3.168,0.624 1.512,0.288 3.528,0.648 4.44,0.816 3.936,0.768 8.232,1.536 9.432,1.704 0.432,0.072 1.512,0.264 2.4,0.456 0.888,0.192 3.12,0.648 4.968,0.984 1.848,0.36 4.224,0.816 5.28,1.008 1.056,0.216 2.088,0.408 2.28,0.408 0.216,0.024 0.504,0.12 0.672,0.24 0.144,0.096 0.288,0.12 0.288,0.072 0,-0.048 0.504,0 1.152,0.12 0.624,0.12 1.488,0.264 1.944,0.336 0.456,0.048 1.32,0.216 1.92,0.36 0.6,0.144 1.44,0.312 1.824,0.36 0.408,0.072 1.8,0.336 3.12,0.6 1.32,0.24 2.616,0.504 2.88,0.552 0.264,0.048 0.912,0.168 1.44,0.264 0.528,0.096 1.224,0.216 1.56,0.264 0.336,0.072 1.2,0.216 1.92,0.36 0.72,0.144 1.584,0.288 1.92,0.36 0.936,0.168 2.256,0.408 2.52,0.48 0.144,0.024 0.624,0.12 1.08,0.192 1.392,0.264 3.432,0.648 4.44,0.888 0.528,0.12 1.608,0.312 2.4,0.456 4.248,0.768 5.568,1.008 6.12,1.08 0.336,0.048 1.368,0.264 2.28,0.48 0.936,0.216 2.016,0.456 2.4,0.504 0.408,0.048 1.272,0.192 1.92,0.336 1.464,0.312 1.824,0.36 3.36,0.6 0.672,0.096 1.896,0.336 2.76,0.528 0.864,0.192 1.896,0.408 2.28,0.456 0.744,0.096 2.016,0.312 8.28,1.536 5.112,0.984 5.664,1.056 5.856,0.768 0.192,-0.312 -0.312,-0.48 -2.496,-0.888 -0.984,-0.192 -2.112,-0.408 -2.52,-0.48 -0.384,-0.072 -1.632,-0.312 -2.76,-0.504 -1.128,-0.192 -3.12,-0.576 -4.44,-0.84 -1.32,-0.264 -2.712,-0.528 -3.12,-0.576 -0.384,-0.072 -0.984,-0.192 -1.32,-0.24 -1.368,-0.288 -1.824,-0.36 -2.52,-0.48 -0.384,-0.072 -0.888,-0.192 -1.08,-0.24 -0.192,-0.048 -0.84,-0.168 -1.44,-0.24 -0.6,-0.072 -1.512,-0.264 -2.04,-0.408 -0.864,-0.216 -2.28,-0.456 -4.68,-0.816 -0.456,-0.072 -1.152,-0.216 -1.56,-0.36 -0.384,-0.12 -1.32,-0.288 -2.04,-0.36 -0.72,-0.072 -1.416,-0.192 -1.512,-0.264 -0.096,-0.048 -0.792,-0.216 -1.56,-0.336 -0.744,-0.12 -2.112,-0.384 -3.048,-0.576 -1.536,-0.336 -2.28,-0.48 -3.96,-0.696 -0.336,-0.048 -1.2,-0.216 -1.92,-0.36 -1.536,-0.312 -3.456,-0.696 -4.32,-0.84 -2.448,-0.432 -12.6,-2.352 -12.72,-2.424 -0.072,-0.024 -0.648,-0.12 -1.32,-0.216 -0.648,-0.072 -1.56,-0.24 -2.016,-0.36 -0.432,-0.144 -0.864,-0.24 -0.96,-0.216 -0.072,0 -0.192,0 -0.264,-0.048 -0.072,-0.024 -0.384,-0.072 -0.72,-0.12 -3.168,-0.432 -9.36,-1.704 -9.624,-1.968 -0.144,-0.144 0.36,-0.456 1.272,-0.84 0.816,-0.336 1.536,-0.72 1.584,-0.864 0.096,-0.336 -0.744,-0.096 -2.952,0.84 l -1.68,0.696 -3.6,-0.648 c -1.968,-0.384 -3.984,-0.744 -4.44,-0.816 -0.456,-0.096 -1.224,-0.24 -1.68,-0.36 -0.456,-0.12 -2.736,-0.552 -5.04,-0.96 -2.304,-0.408 -4.632,-0.84 -5.16,-0.984 -0.528,-0.12 -1.272,-0.264 -1.68,-0.312 -0.384,-0.048 -1.32,-0.192 -2.04,-0.36 -2.184,-0.456 -8.712,-1.728 -9.48,-1.824 -0.384,-0.072 -1.248,-0.216 -1.92,-0.36 -0.648,-0.144 -1.584,-0.312 -2.04,-0.384 -1.056,-0.144 -1.8,-0.288 -1.8,-0.336 0,-0.024 -0.384,-0.072 -0.84,-0.12 -0.456,-0.048 -1.056,-0.144 -1.32,-0.192 -1.08,-0.264 -4.344,-0.936 -4.8,-1.008 -0.264,-0.048 -2.04,-0.36 -3.96,-0.696 -1.92,-0.36 -4.008,-0.744 -4.68,-0.864 -0.648,-0.12 -2.112,-0.384 -3.24,-0.6 -1.128,-0.216 -2.424,-0.432 -2.88,-0.504 -0.456,-0.072 -1.008,-0.192 -1.2,-0.264 -0.192,-0.072 -0.624,-0.168 -0.96,-0.216 -0.336,-0.048 -1.08,-0.168 -1.68,-0.312 -0.6,-0.12 -1.752,-0.36 -2.592,-0.528 -0.816,-0.144 -1.56,-0.36 -1.608,-0.456 -0.072,-0.096 1.032,-0.648 2.472,-1.2 1.416,-0.552 2.904,-1.152 3.288,-1.32 0.408,-0.168 1.584,-0.648 2.64,-1.08 2.232,-0.864 5.112,-2.04 6.504,-2.688 0.528,-0.24 1.128,-0.432 1.32,-0.432 0.192,0 0.456,-0.096 0.6,-0.216 0.12,-0.12 1.512,-0.72 3.096,-1.344 1.584,-0.6 3.096,-1.2 3.36,-1.32 0.264,-0.096 1.728,-0.696 3.24,-1.32 1.512,-0.624 3.048,-1.272 3.408,-1.464 0.36,-0.192 0.696,-0.336 0.72,-0.336 0.072,0.024 0.456,-0.096 2.496,-0.912 0.696,-0.288 1.296,-0.456 1.344,-0.384 0.072,0.048 0.264,-0.048 0.432,-0.264 0.168,-0.192 0.432,-0.36 0.576,-0.36 0.168,0 2.16,-0.768 4.464,-1.68 3.6,-1.464 9.456,-3.792 19.2,-7.68 6.12,-2.424 9.768,-3.888 10.2,-4.08 0.264,-0.096 1.128,-0.432 1.92,-0.72 0.792,-0.288 1.656,-0.624 1.92,-0.72 0.264,-0.12 1.08,-0.456 1.8,-0.744 0.72,-0.288 1.656,-0.648 2.04,-0.816 0.408,-0.192 1.2,-0.504 1.8,-0.72 0.6,-0.24 1.632,-0.672 2.28,-0.96 0.672,-0.288 1.464,-0.624 1.8,-0.72 0.336,-0.096 1.032,-0.36 1.56,-0.6 0.528,-0.216 4.68,-1.896 9.24,-3.72 4.56,-1.8 8.736,-3.48 9.288,-3.744 0.576,-0.24 1.08,-0.456 1.128,-0.456 0.072,0 0.408,-0.12 0.792,-0.288 0.36,-0.144 1.152,-0.456 1.752,-0.672 2.064,-0.792 7.32,-2.928 8.088,-3.264 0.408,-0.216 0.912,-0.408 1.104,-0.432 0.48,-0.072 1.152,-0.648 1.008,-0.864 -0.12,-0.192 -0.912,0.072 -2.64,0.84 -0.528,0.216 -1.056,0.432 -1.2,0.48 -0.312,0.072 -1.44,0.504 -2.592,1.008 -0.504,0.216 -1.056,0.384 -1.248,0.384 -0.192,0 -0.36,0.096 -0.36,0.192 0,0.096 -0.24,0.264 -0.528,0.336 -0.48,0.144 -16.008,6.264 -17.352,6.84 -0.264,0.12 -1.08,0.48 -1.8,0.792 -0.744,0.336 -1.872,0.768 -2.52,1.008 -0.672,0.216 -2.448,0.912 -3.96,1.56 -2.736,1.128 -3.312,1.368 -3.672,1.392 -0.096,0.024 -0.48,0.192 -0.84,0.384 -0.36,0.192 -1.296,0.576 -2.088,0.888 -0.792,0.288 -1.656,0.6 -1.92,0.72 -2.832,1.2 -5.76,2.376 -5.928,2.376 -0.096,0 -0.648,0.192 -1.224,0.456 -0.552,0.24 -1.392,0.576 -1.848,0.744 -0.456,0.168 -1.152,0.432 -1.56,0.6 -0.384,0.168 -1.464,0.6 -2.4,0.96 -0.912,0.36 -1.872,0.744 -2.136,0.888 -0.24,0.12 -1.44,0.6 -2.64,1.056 -1.2,0.456 -2.424,0.936 -2.712,1.056 -0.312,0.144 -0.792,0.336 -1.08,0.456 -0.312,0.12 -1.464,0.6 -2.592,1.056 -1.128,0.456 -4.032,1.608 -6.48,2.568 -2.448,0.96 -4.872,1.92 -5.4,2.16 -0.528,0.24 -2.256,0.936 -3.84,1.56 -1.584,0.624 -3.096,1.2 -3.36,1.32 -3.024,1.176 -3.888,1.56 -4.128,1.728 -0.168,0.144 -0.384,0.168 -0.504,0.096 -0.144,-0.072 -0.36,0.024 -0.528,0.216 -0.168,0.192 -0.432,0.36 -0.624,0.36 -0.168,0 -1.416,0.48 -2.784,1.032 -1.368,0.576 -2.952,1.248 -3.552,1.464 -0.6,0.24 -1.392,0.552 -1.8,0.744 -1.872,0.792 -4.584,1.92 -4.68,1.944 -0.072,0 -0.336,0.096 -0.6,0.216 -0.72,0.312 -7.872,3.168 -10.272,4.128 -1.152,0.456 -2.256,0.768 -2.448,0.696 -0.288,-0.096 -0.336,-1.632 -0.36,-9.432 0,-5.112 -0.048,-11.736 -0.12,-14.712 C 26.472,143.904 26.376,131.808 26.28,120 26.208,108.192 26.088,91.872 26.016,83.76 25.92,71.616 25.704,35.76 25.68,29.736 c 0,-1.104 -0.096,-1.632 -0.312,-1.728 -0.264,-0.096 -0.312,1.8 -0.264,10.008 z" />
  <path
     style="fill:#000000;stroke:none"
     inkscape:connector-curvature="0"
     id="path3003"
     d="m 183.936,49.248 c -0.144,0.216 0,0.288 2.664,1.176 1.368,0.456 2.016,0.576 2.232,0.408 0.336,-0.288 1.776,-0.144 5.928,0.528 0.936,0.168 2.112,0.336 2.64,0.408 0.504,0.048 1.032,0.168 1.128,0.216 0.096,0.072 0.192,-0.024 0.192,-0.24 0,-0.312 -0.528,-0.48 -2.472,-0.744 -0.288,-0.048 -1.656,-0.264 -3.048,-0.48 -1.392,-0.216 -2.928,-0.456 -3.408,-0.528 -0.552,-0.072 -0.912,-0.288 -0.96,-0.528 -0.072,-0.312 -0.456,-0.384 -2.424,-0.384 -1.296,0 -2.424,0.072 -2.472,0.168 z" />
  <path
     style="fill:#000000;stroke:none"
     inkscape:connector-curvature="0"
     id="path3005"
     d="m 174.24,51.504 c 0,0.216 0.216,0.432 0.48,0.504 0.264,0.072 0.48,0.192 0.48,0.288 0,0.072 0.288,0.144 0.672,0.168 0.888,0.024 2.736,0.264 3.168,0.432 0.192,0.072 0.792,0.168 1.32,0.24 0.912,0.12 1.92,0.312 1.92,0.384 0,0.024 0.48,0.096 2.28,0.336 0.336,0.048 0.744,0.096 0.912,0.12 0.192,0.024 0.24,0.144 0.144,0.312 -0.144,0.24 -0.096,0.24 0.168,0 0.336,-0.312 0.792,-0.408 0.624,-0.12 -0.072,0.12 0.384,0.216 0.984,0.24 1.584,0.048 2.208,0.144 2.208,0.336 0,0.072 0.336,0.12 0.744,0.072 0.48,-0.072 0.672,0 0.552,0.192 -0.12,0.168 -0.072,0.192 0.12,0.096 0.168,-0.12 0.432,0 0.648,0.24 0.312,0.432 0.336,0.432 0.192,0.024 -0.12,-0.36 -0.048,-0.408 0.48,-0.312 0.336,0.072 0.864,0.192 1.152,0.288 0.312,0.096 0.96,0.192 1.464,0.192 0.504,0.024 1.032,0.216 1.152,0.408 0.144,0.24 0.216,0.264 0.216,0.024 0,-0.168 0.12,-0.24 0.24,-0.168 0.36,0.216 0.048,0.6 -0.48,0.6 -0.24,0 -0.6,0.144 -0.768,0.312 -0.288,0.312 -1.416,0.72 -2.016,0.768 -0.144,0 -0.456,0.144 -0.672,0.336 -0.216,0.192 -0.456,0.264 -0.552,0.192 -0.072,-0.096 -0.312,-0.024 -0.504,0.12 -0.336,0.288 -0.816,0.456 -1.536,0.504 -0.216,0.024 -0.36,0.096 -0.312,0.168 0.048,0.072 -0.216,0.264 -0.624,0.408 -0.528,0.216 -0.672,0.192 -0.552,0 0.096,-0.168 -0.072,-0.048 -0.384,0.264 -0.288,0.312 -0.696,0.504 -0.888,0.432 -0.192,-0.072 -0.288,-0.048 -0.216,0.072 0.144,0.216 -0.96,0.624 -1.392,0.528 -0.12,-0.024 -0.408,0.12 -0.624,0.336 -0.24,0.216 -0.6,0.408 -0.792,0.456 -0.192,0.024 -0.528,0.168 -0.72,0.336 -0.192,0.168 -0.456,0.288 -0.552,0.24 -0.12,-0.024 -0.624,0.144 -1.152,0.36 -0.504,0.216 -1.032,0.336 -1.176,0.24 -0.12,-0.072 -0.168,-0.048 -0.096,0.072 0.072,0.12 -0.528,0.48 -1.344,0.768 -0.816,0.312 -1.68,0.648 -1.896,0.792 -0.24,0.12 -0.552,0.216 -0.672,0.216 -0.144,0 -0.696,0.216 -1.248,0.48 -0.528,0.264 -1.08,0.408 -1.224,0.312 -0.144,-0.096 -0.168,-0.024 -0.048,0.168 0.144,0.24 0.096,0.288 -0.192,0.168 -0.216,-0.072 -0.408,-0.024 -0.456,0.096 -0.048,0.144 -0.24,0.264 -0.432,0.312 -0.192,0.024 -0.576,0.168 -0.84,0.288 -0.48,0.264 -2.328,0.216 -3,-0.072 -0.192,-0.072 -0.624,-0.168 -0.96,-0.168 -0.336,-0.024 -0.72,-0.12 -0.864,-0.192 -0.144,-0.096 -0.84,-0.24 -1.56,-0.312 -0.696,-0.096 -1.368,-0.264 -1.44,-0.408 -0.096,-0.168 -0.216,-0.168 -0.312,0 -0.144,0.264 -0.312,0.24 -1.272,-0.096 -0.24,-0.072 -0.816,-0.168 -1.272,-0.216 -0.456,-0.048 -1.056,-0.144 -1.32,-0.192 -0.264,-0.072 -0.792,-0.144 -1.152,-0.144 -0.384,-0.024 -0.624,-0.12 -0.552,-0.216 0.048,-0.096 -0.336,-0.168 -0.888,-0.168 -0.552,0 -1.272,-0.072 -1.608,-0.192 -0.336,-0.12 -1.032,-0.288 -1.56,-0.336 -0.528,-0.048 -1.008,-0.216 -1.032,-0.336 -0.048,-0.144 -0.264,-0.096 -0.48,0.072 -0.336,0.264 -0.36,0.24 -0.192,-0.168 0.144,-0.384 0.12,-0.432 -0.12,-0.192 -0.336,0.336 -0.792,0.432 -0.6,0.12 0.048,-0.096 -0.384,-0.168 -0.984,-0.168 -0.6,0.024 -1.2,-0.096 -1.368,-0.24 -0.144,-0.144 -0.552,-0.24 -0.912,-0.192 -0.384,0.024 -0.672,0 -0.672,-0.048 0,-0.192 1.728,-0.84 1.92,-0.72 0.096,0.048 0.36,-0.096 0.6,-0.36 0.48,-0.528 0.984,-0.648 0.696,-0.192 -0.12,0.168 0.096,0.072 0.456,-0.216 0.36,-0.288 0.912,-0.48 1.224,-0.456 0.408,0.048 0.552,-0.024 0.456,-0.24 -0.072,-0.216 0.048,-0.336 0.336,-0.336 0.264,0 0.912,-0.216 1.464,-0.48 0.576,-0.288 1.128,-0.432 1.248,-0.36 0.144,0.072 0.24,0.048 0.24,-0.096 0,-0.144 0.288,-0.336 0.672,-0.408 0.36,-0.096 0.888,-0.336 1.2,-0.528 0.288,-0.192 0.528,-0.264 0.528,-0.168 0,0.12 0.192,0.024 0.432,-0.168 0.216,-0.192 0.576,-0.36 0.768,-0.36 0.192,0 1.104,-0.336 1.992,-0.768 0.912,-0.408 1.752,-0.672 1.896,-0.6 0.144,0.096 0.192,0.048 0.12,-0.072 -0.096,-0.144 0.12,-0.336 0.504,-0.432 0.36,-0.096 0.672,-0.12 0.672,-0.072 0.024,0.048 0.24,-0.096 0.48,-0.312 0.624,-0.528 1.176,-0.816 0.984,-0.552 -0.072,0.12 0.072,0.24 0.312,0.24 0.24,0 0.384,-0.12 0.312,-0.288 -0.12,-0.336 0.312,-0.528 1.056,-0.456 0.288,0.024 0.48,-0.048 0.408,-0.144 -0.048,-0.096 0,-0.24 0.144,-0.336 0.12,-0.072 0.24,-0.024 0.24,0.096 0,0.144 0.264,0.024 0.6,-0.264 0.576,-0.504 0.816,-1.152 0.408,-1.152 -0.096,0 -1.368,0.504 -2.808,1.104 -1.464,0.6 -3.672,1.512 -4.92,2.016 -1.248,0.504 -3.024,1.248 -3.912,1.656 -0.912,0.408 -1.752,0.696 -1.872,0.624 -0.12,-0.096 -0.216,-0.048 -0.216,0.096 0,0.144 -0.36,0.336 -0.768,0.456 -0.672,0.192 -3.312,1.248 -5.832,2.328 -0.384,0.168 -1.536,0.624 -2.52,1.008 l -1.8,0.696 -0.072,3.408 c -0.048,2.208 0.024,3.408 0.192,3.408 0.144,0 0.24,-1.08 0.24,-2.88 l 0,-2.88 0.6,0 c 0.552,0 1.416,0.144 5.52,0.96 0.672,0.12 1.464,0.264 1.8,0.336 0.336,0.048 1.584,0.264 2.76,0.48 2.424,0.432 5.088,0.888 5.64,0.96 0.192,0.024 0.504,0.12 0.672,0.216 0.144,0.12 0.288,0.144 0.288,0.096 0,-0.048 1.368,0.144 3.072,0.456 5.112,0.96 4.896,0.984 7.608,-0.144 2.16,-0.912 3,-1.272 4.56,-1.944 0.264,-0.12 1.08,-0.432 1.8,-0.696 0.72,-0.264 1.536,-0.6 1.8,-0.696 1.104,-0.504 6.024,-2.496 6.24,-2.544 0.36,-0.072 1.416,-0.528 2.568,-1.08 0.552,-0.264 1.08,-0.48 1.2,-0.48 0.096,0 0.96,-0.36 1.92,-0.792 1.8,-0.84 3.336,-1.464 3.552,-1.488 0.528,-0.048 0.984,-0.6 0.912,-1.104 -0.048,-0.48 -0.24,-0.6 -1.152,-0.744 -1.704,-0.24 -4.176,-0.648 -6.432,-1.056 -1.152,-0.192 -2.736,-0.456 -3.528,-0.6 -0.792,-0.12 -1.704,-0.264 -2.04,-0.336 -0.336,-0.048 -1.296,-0.216 -2.16,-0.336 -0.864,-0.144 -2.16,-0.336 -2.88,-0.48 -0.72,-0.12 -2.232,-0.408 -3.36,-0.6 -2.568,-0.48 -2.88,-0.48 -2.88,0 z" />
  <path
     style="fill:#000000;stroke:none"
     inkscape:connector-curvature="0"
     id="path3007"
     d="m 161.52,51.84 c -0.624,0.36 -1.992,0.96 -2.208,0.96 -0.216,0 -2.136,0.816 -3.12,1.344 -0.36,0.192 -0.744,0.36 -0.84,0.384 -0.216,0.024 -0.936,0.288 -2.16,0.816 -0.936,0.432 -1.032,0.408 -1.032,-0.024 0,-0.528 -0.456,-0.336 -1.512,0.6 -0.504,0.456 -1.296,1.032 -1.776,1.32 -0.864,0.456 -1.464,1.296 -0.768,1.032 0.192,-0.072 1.224,-0.312 2.304,-0.552 1.08,-0.24 1.92,-0.504 1.872,-0.6 -0.264,-0.432 0.24,-0.96 1.272,-1.32 0.624,-0.216 1.32,-0.504 1.56,-0.624 0.24,-0.12 0.984,-0.456 1.68,-0.72 3.024,-1.176 5.664,-2.448 5.544,-2.64 -0.144,-0.264 -0.336,-0.264 -0.816,0.024 z" />
  <path
     style="fill:#000000;stroke:none"
     inkscape:connector-curvature="0"
     id="path3009"
     d="m 197.64,59.568 c -2.136,0.408 -2.76,0.672 -2.76,1.176 0,0.288 -0.24,0.552 -0.624,0.696 -0.336,0.144 -1.2,0.504 -1.944,0.864 -0.744,0.336 -2.808,1.2 -4.608,1.944 -1.8,0.72 -3.48,1.44 -3.744,1.584 -0.456,0.24 -0.456,0.24 -0.024,0.408 0.288,0.096 0.936,-0.072 1.68,-0.432 0.672,-0.336 1.44,-0.672 1.704,-0.792 1.968,-0.816 5.904,-2.472 6.552,-2.784 0.72,-0.336 0.816,-0.336 1.104,0.048 0.288,0.384 0.36,0.384 1.008,0.024 1.152,-0.624 2.784,-2.184 2.712,-2.568 -0.072,-0.288 -0.288,-0.336 -1.056,-0.168 z" />
  <path
     style="fill:#000000;stroke:none"
     inkscape:connector-curvature="0"
     id="path3011"
     d="m 148.368,67.248 c 0.096,0.288 8.304,2.16 8.64,1.968 0.096,-0.072 0.216,0 0.312,0.144 0.096,0.144 0.264,0.192 0.384,0.096 0.144,-0.072 0.312,0.072 0.384,0.36 0.12,0.456 0.288,0.504 2.376,0.504 1.248,0 2.256,-0.096 2.256,-0.192 0,-0.12 -0.456,-0.432 -1.008,-0.696 -0.576,-0.264 -1.512,-0.72 -2.088,-0.984 -1.104,-0.528 -1.464,-0.504 -1.464,0.096 0,0.192 -0.024,0.336 -0.072,0.336 -0.168,0 -5.232,-0.984 -7.368,-1.44 -1.248,-0.264 -2.304,-0.48 -2.352,-0.48 -0.048,0 -0.048,0.144 0,0.288 z" />
  <path
     style="fill:#000000;stroke:none"
     inkscape:connector-curvature="0"
     id="path3013"
     d="m 145.68,73.32 c 0,1.68 0.096,2.76 0.24,2.76 0.144,0 0.24,-1.08 0.24,-2.76 0,-1.68 -0.096,-2.76 -0.24,-2.76 -0.144,0 -0.24,1.08 -0.24,2.76 z" />
  <path
     style="fill:#000000;stroke:none"
     inkscape:connector-curvature="0"
     id="path3015"
     d="m 145.68,80.496 c 0,1.92 0.096,3.528 0.216,3.624 0.336,0.192 0.384,-0.768 0.312,-4.152 -0.096,-4.128 -0.528,-3.72 -0.528,0.528 z" />
  <path
     style="fill:#000000;stroke:none"
     inkscape:connector-curvature="0"
     id="path3017"
     d="m 145.824,86.64 c -0.168,1.104 -0.072,4.224 0.168,4.464 0.216,0.216 0.216,0.192 0.288,-2.304 0.048,-2.304 -0.216,-3.576 -0.456,-2.16 z" />
  <path
     style="fill:#000000;stroke:none"
     inkscape:connector-curvature="0"
     id="path3019"
     d="m 145.896,92.736 c -0.048,0.072 -0.072,1.224 -0.048,2.592 0.048,3.408 0.048,3.36 0.288,3.216 0.288,-0.192 0.336,-5.592 0.072,-5.76 -0.12,-0.072 -0.264,-0.096 -0.312,-0.048 z" />
  <path
     style="fill:#000000;stroke:none"
     inkscape:connector-curvature="0"
     id="path3021"
     d="m 146.112,100.92 c -0.24,0.624 -0.192,4.656 0.048,4.8 0.288,0.192 0.36,-0.816 0.24,-3.12 -0.072,-1.32 -0.192,-1.968 -0.288,-1.68 z" />
  <path
     style="fill:#000000;stroke:none"
     inkscape:connector-curvature="0"
     id="path3023"
     d="m 187.776,104.88 c -0.576,0.24 -0.96,0.96 -0.48,0.96 0.24,0 0.24,0.24 0.048,1.2 -0.192,1.008 -0.168,1.272 0.144,1.584 0.336,0.336 0.432,0.336 1.128,-0.024 l 0.768,-0.384 -0.384,0.912 c -0.48,1.152 -0.528,1.176 -1.056,0.696 -0.576,-0.528 -1.08,-0.312 -0.744,0.312 0.552,1.08 1.896,0.696 2.472,-0.672 0.528,-1.248 1.248,-4.296 1.08,-4.488 -0.336,-0.312 -0.912,0.144 -0.912,0.744 0,1.056 -1.392,3.12 -1.824,2.688 -0.072,-0.072 0.024,-0.84 0.216,-1.68 0.384,-1.728 0.288,-2.112 -0.456,-1.848 z" />
  <path
     style="fill:#000000;stroke:none"
     inkscape:connector-curvature="0"
     id="path3025"
     d="m 146.064,107.928 c -0.168,0.552 -0.024,5.328 0.192,5.52 0.168,0.168 0.168,0 0.168,-3.384 0,-2.352 -0.096,-2.976 -0.36,-2.136 z" />
  <path
     style="fill:#000000;stroke:none"
     inkscape:connector-curvature="0"
     id="path3027"
     d="m 183.792,108.36 c -0.072,0.072 -0.336,0.168 -0.576,0.216 -0.672,0.144 -3.048,1.104 -3.36,1.368 -0.168,0.12 -0.384,0.216 -0.48,0.192 -0.12,-0.048 -0.744,0.192 -1.416,0.504 -0.648,0.288 -1.44,0.648 -1.728,0.744 -0.312,0.12 -0.792,0.312 -1.08,0.456 -1.512,0.624 -3.504,1.392 -4.032,1.56 -0.336,0.096 -1.032,0.36 -1.56,0.6 -0.528,0.24 -3.768,1.56 -7.2,2.952 -3.432,1.392 -6.744,2.76 -7.368,3.024 -0.648,0.264 -1.152,0.432 -1.152,0.336 0,-0.072 -0.144,-0.024 -0.288,0.12 -0.264,0.192 -3.576,1.56 -5.04,2.04 -0.36,0.12 -0.648,0.888 -0.336,0.888 0.072,0 3.6,-1.416 7.872,-3.144 4.272,-1.728 8.736,-3.504 9.912,-3.984 2.64,-1.032 2.4,-0.936 6.48,-2.592 3.6,-1.464 3.6,-1.464 5.736,-2.4 0.768,-0.312 1.488,-0.528 1.608,-0.456 0.12,0.072 0.216,0.024 0.216,-0.12 0,-0.144 0.288,-0.336 0.672,-0.408 0.6,-0.144 1.992,-0.72 3.36,-1.368 0.288,-0.144 0.528,-0.336 0.528,-0.456 0,-0.216 -0.576,-0.264 -0.768,-0.072 z" />
  <path
     style="fill:#000000;stroke:none"
     inkscape:connector-curvature="0"
     id="path3029"
     d="m 146.16,117.576 c 0,1.608 0.072,2.88 0.192,2.808 0.216,-0.12 0.192,-5.376 -0.048,-5.592 -0.072,-0.072 -0.144,1.176 -0.144,2.784 z" />
  <path
     style="fill:#000000;stroke:none"
     inkscape:connector-curvature="0"
     id="path3031"
     d="m 146.16,124.68 c 0,3.24 0.408,3.744 0.528,0.648 0.096,-2.472 0,-3.408 -0.312,-3.408 -0.12,0 -0.216,1.2 -0.216,2.76 z" />
  <path
     style="fill:#000000;stroke:none"
     inkscape:connector-curvature="0"
     id="path3033"
     d="m 146.328,129.168 c -0.192,0.552 -0.12,4.992 0.096,4.992 0.264,0 0.264,-0.072 0.264,-2.856 -0.024,-2.208 -0.12,-2.76 -0.36,-2.136 z" />
  <path
     style="fill:#000000;stroke:none"
     inkscape:connector-curvature="0"
     id="path3035"
     d="m 146.376,135.84 c -0.12,1.104 0.096,4.704 0.288,4.92 0.288,0.288 0.24,-4.032 -0.048,-4.8 -0.12,-0.336 -0.192,-0.36 -0.24,-0.12 z" />
  <path
     style="fill:#000000;stroke:none"
     inkscape:connector-curvature="0"
     id="path3037"
     d="m 146.4,144.408 c 0,1.368 0.096,2.52 0.24,2.592 0.312,0.192 0.312,-4.2 0,-4.68 -0.168,-0.24 -0.24,0.408 -0.24,2.088 z" />
  <path
     style="fill:#000000;stroke:none"
     inkscape:connector-curvature="0"
     id="path3039"
     d="m 146.424,151.44 c 0,1.44 0.12,2.64 0.24,2.64 0.12,0 0.216,-1.2 0.216,-2.64 0,-1.632 -0.096,-2.64 -0.24,-2.64 -0.168,0 -0.24,0.984 -0.216,2.64 z" />
  <path
     style="fill:#000000;stroke:none"
     inkscape:connector-curvature="0"
     id="path3041"
     d="m 146.424,157.896 c -0.024,1.44 0.048,2.448 0.216,2.544 0.168,0.096 0.24,-0.648 0.24,-2.256 0,-1.32 -0.096,-2.448 -0.216,-2.52 -0.12,-0.072 -0.216,0.936 -0.24,2.232 z" />
  <path
     style="fill:#000000;stroke:none"
     inkscape:connector-curvature="0"
     id="path3043"
     d="m 146.64,161.64 c -0.072,0.264 -0.168,1.32 -0.216,2.424 -0.024,0.696 -0.144,0.792 -1.872,1.536 -1.032,0.408 -1.968,0.864 -2.088,0.984 -0.48,0.432 0.504,0.192 2.496,-0.6 l 2.04,-0.816 0,-1.32 c 0,-1.272 -0.24,-2.736 -0.36,-2.208 z" />
  <path
     style="fill:#000000;stroke:none"
     inkscape:connector-curvature="0"
     id="path3045"
     d="m 139.8,167.448 c -0.264,0.072 -0.576,0.192 -0.72,0.288 -0.12,0.096 -0.864,0.432 -1.608,0.744 -0.768,0.288 -1.392,0.624 -1.392,0.744 0,0.12 0.072,0.216 0.168,0.216 0.432,0 4.632,-1.776 4.632,-1.968 0,-0.192 -0.288,-0.216 -1.08,-0.024 z" />
  <path
     style="fill:#000000;stroke:none"
     inkscape:connector-curvature="0"
     id="path3047"
     d="m 132.72,170.376 c -1.872,0.696 -3.48,1.512 -3.192,1.632 0.144,0.048 1.056,-0.24 1.992,-0.624 0.96,-0.408 1.872,-0.744 2.016,-0.744 0.168,0 0.504,-0.168 0.768,-0.36 0.456,-0.336 0.456,-0.336 -0.024,-0.312 -0.264,0 -0.96,0.192 -1.56,0.408 z" />
  <path
     style="fill:#000000;stroke:none"
     inkscape:connector-curvature="0"
     id="path3049"
     d="m 127.32,172.536 c -0.264,0.096 -0.792,0.312 -1.2,0.48 -0.384,0.192 -1.2,0.552 -1.8,0.816 -1.752,0.768 -0.72,0.72 1.272,-0.072 0.984,-0.384 1.92,-0.72 2.064,-0.72 0.144,0 0.264,-0.168 0.264,-0.36 0,-0.192 -0.024,-0.36 -0.048,-0.336 -0.048,0.024 -0.288,0.096 -0.552,0.192 z" />
  <path
     style="fill:#000000;stroke:none"
     inkscape:connector-curvature="0"
     id="path3051"
     d="m 120.72,175.248 c -0.336,0.144 -0.816,0.336 -1.08,0.432 -1.608,0.624 -3.312,1.512 -3.072,1.608 0.24,0.096 1.416,-0.312 3.6,-1.272 0.408,-0.192 0.864,-0.336 0.984,-0.336 0.336,0 0.6,-0.408 0.36,-0.552 -0.12,-0.072 -0.456,0 -0.792,0.12 z" />
  <path
     style="fill:#000000;stroke:none"
     inkscape:connector-curvature="0"
     id="path3053"
     d="m 113.4,178.032 c -0.144,0.12 -1.032,0.528 -1.968,0.912 -1.56,0.624 -2.184,1.056 -1.512,1.056 0.48,0 4.56,-1.728 4.56,-1.944 0,-0.264 -0.792,-0.288 -1.08,-0.024 z" />
  <path
     style="fill:#000000;stroke:none"
     inkscape:connector-curvature="0"
     id="path3055"
     d="m 106.176,181.104 c -0.648,0.288 -1.632,0.72 -2.184,0.96 -0.576,0.24 -1.032,0.528 -1.032,0.648 0,0.264 0.72,0.048 2.376,-0.696 0.696,-0.312 1.416,-0.576 1.584,-0.576 0.144,0 0.456,-0.192 0.672,-0.432 0.552,-0.624 0.072,-0.576 -1.416,0.096 z" />
  <path
     style="fill:#000000;stroke:none"
     inkscape:connector-curvature="0"
     id="path3057"
     d="m 177.456,199.248 c -0.456,0.504 -0.456,0.504 0.072,0.384 0.456,-0.12 0.552,-0.024 0.696,0.672 0.192,1.056 0,1.488 -0.744,1.776 -0.36,0.144 -0.552,0.336 -0.48,0.48 0.24,0.384 0.6,0.288 1.08,-0.288 l 0.408,-0.528 0.168,0.504 c 0.216,0.696 0.696,0.816 1.368,0.36 l 0.552,-0.384 L 180,202.08 c -1.104,-0.264 -1.104,-2.4 0,-2.4 0.264,0 0.48,-0.144 0.48,-0.312 0,-0.6 -0.312,-0.648 -0.864,-0.144 l -0.528,0.504 -0.264,-0.504 c -0.36,-0.648 -0.792,-0.648 -1.368,0.024 z" />
  <text
     xml:space="preserve"
     style="font-size:8.64000034px;font-style:normal;font-variant:normal;font-weight:bold;font-stretch:normal;text-indent:0;text-align:start;text-decoration:none;line-height:125%;letter-spacing:0px;word-spacing:0px;text-transform:none;direction:ltr;block-progression:tb;writing-mode:lr-tb;text-anchor:start;baseline-shift:baseline;color:#000000;fill:#000000;fill-opacity:1;fill-rule:nonzero;stroke:none;stroke-width:1.24999988px;marker:none;visibility:visible;display:inline;overflow:visible;enable-background:accumulate;font-family:Linux Libertine O;-inkscape-font-specification:Sans"
     x="176.27808"
     y="37.517338"
     id="text3065"
     sodipodi:linespacing="125%"><tspan
       sodipodi:role="line"
       id="tspan3067"
       x="176.27808"
       y="37.517338">a</tspan></text>
</svg>
