<?xml version="1.0" encoding="UTF-8" standalone="no"?>
<svg
   xmlns:dc="http://purl.org/dc/elements/1.1/"
   xmlns:cc="http://creativecommons.org/ns#"
   xmlns:rdf="http://www.w3.org/1999/02/22-rdf-syntax-ns#"
   xmlns:svg="http://www.w3.org/2000/svg"
   xmlns="http://www.w3.org/2000/svg"
   xmlns:sodipodi="http://sodipodi.sourceforge.net/DTD/sodipodi-0.dtd"
   xmlns:inkscape="http://www.inkscape.org/namespaces/inkscape"
   version="1.0"
   width="308.160000pt"
   height="96.240000pt"
   viewBox="0 0 308.160000 96.240000"
   preserveAspectRatio="xMidYMid meet"
   id="svg2989"
   sodipodi:docname="black.svg">
  <defs
     id="defs3009" />
  <sodipodi:namedview
     pagecolor="#ffffff"
     bordercolor="#666666"
     borderopacity="1"
     objecttolerance="10"
     gridtolerance="10"
     guidetolerance="10"
     inkscape:pageopacity="0"
     inkscape:pageshadow="2"
     inkscape:window-width="640"
     inkscape:window-height="480"
     id="namedview3007"
     showgrid="false"
     inkscape:zoom="0.82554515"
     inkscape:cx="192.60001"
     inkscape:cy="60.149998"
     inkscape:window-x="318"
     inkscape:window-y="213"
     inkscape:window-maximized="0"
     inkscape:current-layer="svg2989" />
  <metadata
     id="metadata2991">
Created by potrace 1.10, written by Peter Selinger 2001-2011
<rdf:RDF>
  <cc:Work
     rdf:about="">
    <dc:format>image/svg+xml</dc:format>
    <dc:type
       rdf:resource="http://purl.org/dc/dcmitype/StillImage" />
  </cc:Work>
</rdf:RDF>
</metadata>
  <g
     style="fill:#b9b9b9;stroke:none"
     transform="matrix(0.024,0,0,-0.024,0,96.24)"
     id="g6">
    <path
       inkscape:connector-curvature="0"
       d="M 0,2005 0,0 l 6420,0 6420,0 0,2005 0,2005 -6405,0 c -5081,0 -6405,-3 -6399,-13 5,-9 4,-9 -7,1 -7,6 -17,12 -21,12 -4,0 -8,-902 -8,-2005 z"
       id="path8" />
  </g>
  <g
     transform="translate(0.000000,96.240000) scale(0.024000,-0.024000)"
     fill="#000000"
     stroke="none"
     id="g2993">
    <path
       d="M3559 3466 c-2 -2 -20 -7 -40 -10 -20 -3 -49 -11 -65 -17 -20 -8 -133 -11 -356 -10 l-328 2 0 -133 c-1 -165 1 -393 4 -562 2 -116 0 -132 -17 -149 -19 -19 -19 -22 -1 -97 13 -50 15 -179 19 -1073 2 -499 7 -912 10 -917 4 -6 136 -10 334 -10 314 0 329 -1 334 -19 4 -18 6 -18 83 0 69 16 120 19 402 19 l322 0 1 28 c0 15 1 204 1 420 1 381 1 392 20 392 18 0 19 5 13 43 -4 23 -13 56 -20 74 -10 23 -14 97 -15 260 -1 125 -3 563 -6 973 l-4 745 -335 3 c-282 2 -335 5 -335 17 0 14 -14 28 -21 21z m-735 -88 c-6 -10 -4 -10 7 0 16 15 33 16 23 0 -4 -7 -3 -8 5 -4 21 13 61 14 54 2 -4 -6 1 -5 11 3 14 12 22 12 37 3 11 -7 19 -8 19 -2 0 5 7 10 15 10 8 0 15 -5 15 -10 0 -6 8 -5 19 2 15 9 23 9 35 -1 11 -9 16 -10 16 -2 0 15 33 14 48 -1 9 -9 12 -9 12 1 0 8 7 10 19 6 20 -6 70 -7 161 -2 30 1 63 -1 74 -6 13 -6 16 -6 12 2 -5 8 0 8 18 1 14 -5 26 -6 26 -3 0 4 5 2 12 -5 7 -7 25 -12 41 -12 15 0 38 -5 49 -11 17 -9 24 -8 34 6 8 10 11 21 9 25 -2 4 13 7 35 7 26 0 37 -4 33 -11 -4 -7 -1 -6 8 1 18 14 58 14 78 -1 11 -8 13 -8 7 2 -4 6 -3 12 1 12 5 0 15 -6 22 -12 8 -8 11 -8 8 -2 -4 7 3 12 18 12 14 0 22 -5 18 -11 -4 -6 -1 -7 7 -2 19 12 52 13 74 2 12 -6 16 -6 12 2 -8 12 132 10 152 -2 6 -5 12 -4 12 1 0 13 109 11 117 -2 11 -17 12 -139 1 -160 -7 -13 -7 -16 1 -12 15 10 14 -7 -1 -23 -9 -9 -9 -12 -1 -7 15 8 15 5 14 -454 0 -157 1 -303 2 -325 2 -22 -1 -46 -6 -52 -6 -9 -5 -13 3 -13 10 0 10 -3 0 -15 -7 -8 -9 -15 -4 -15 5 0 9 -67 10 -149 0 -89 -3 -148 -9 -144 -5 3 -4 -4 3 -16 9 -18 9 -26 -2 -39 -7 -9 -8 -13 -2 -9 7 4 11 -12 11 -48 0 -36 -4 -52 -11 -48 -6 4 -5 -1 3 -10 8 -10 10 -24 6 -34 -11 -26 -13 -53 -3 -47 16 10 8 -274 -9 -315 -8 -20 -16 -45 -18 -56 -1 -11 -4 -27 -6 -35 -3 -9 4 -16 17 -18 19 -3 21 -9 21 -92 -1 -60 -4 -87 -11 -83 -6 4 -5 0 2 -9 13 -16 23 -113 13 -123 -3 -3 -4 -26 -2 -51 2 -36 0 -44 -11 -38 -11 6 -11 5 0 -8 10 -12 13 -55 12 -160 -1 -79 -1 -164 0 -189 l1 -46 -208 -1 c-114 -1 -215 -4 -224 -7 -10 -3 -20 -1 -23 4 -4 5 -18 6 -34 2 -32 -9 -97 -5 -132 8 -51 19 -128 34 -144 28 -9 -4 -13 -13 -10 -21 5 -13 -33 -15 -312 -15 -188 1 -311 5 -303 10 10 6 10 9 2 9 -19 0 -16 40 4 62 13 15 14 18 2 13 -13 -5 -15 15 -15 144 0 95 3 148 9 144 6 -4 7 -1 1 8 -13 20 -13 62 0 78 8 11 8 13 -1 7 -7 -4 -13 -3 -13 1 0 5 6 15 13 22 7 8 7 11 1 8 -7 -4 -12 3 -11 18 0 15 4 22 11 18 6 -3 2 4 -9 17 -19 22 -19 23 -1 16 17 -6 17 -4 5 10 -18 22 -18 45 1 68 9 11 10 16 3 12 -7 -4 -13 -3 -13 1 0 5 6 15 13 22 10 11 10 13 0 7 -17 -9 -18 27 -10 322 1 57 -1 106 -5 108 -3 2 -3 17 2 34 6 19 5 31 -3 34 -9 4 -8 8 2 12 11 5 11 8 0 16 -11 8 -11 11 -1 15 10 4 10 8 0 21 -11 14 -10 15 7 8 19 -7 19 -6 3 10 -16 17 -17 19 -1 36 13 14 13 17 2 13 -10 -4 -14 2 -15 20 -2 26 11 34 19 13 4 -10 6 -10 6 0 1 7 -5 15 -12 18 -10 3 -13 43 -12 172 0 92 5 173 9 181 6 9 5 12 -2 7 -6 -4 -10 1 -9 13 0 11 5 17 9 15 4 -3 8 -1 8 5 0 5 -4 13 -10 16 -15 9 -12 27 3 19 10 -6 10 -4 0 7 -7 7 -13 17 -13 22 0 4 6 5 13 1 10 -6 10 -4 0 7 -14 14 -18 33 -5 26 4 -3 7 14 6 36 0 23 3 51 7 62 4 11 11 29 15 40 12 34 11 53 -2 48 -13 -5 -27 12 -31 41 -2 14 1 17 14 12 15 -6 15 -5 2 11 -11 13 -15 41 -14 108 1 50 -3 96 -9 104 -9 12 -7 13 7 8 13 -5 16 -3 10 6 -12 18 -12 90 0 105 7 9 7 16 -1 24 -16 16 -15 31 1 22 9 -6 8 -3 -1 8 -11 13 -11 21 -2 39 7 13 8 19 2 15 -6 -4 -10 2 -9 13 0 11 5 17 9 15 4 -3 8 -1 8 5 0 5 -4 13 -10 16 -5 3 -10 12 -10 18 0 7 4 6 10 -3 6 -9 10 -10 10 -3 0 6 -4 15 -10 18 -15 9 -12 27 3 19 10 -6 10 -4 0 7 -7 7 -13 17 -13 22 0 4 6 5 13 1 9 -6 9 -5 0 7 -15 19 -16 169 -1 169 5 0 6 -6 2 -12z"
       id="path2995" />
    <path
       d="M10740 3449 c-66 -16 -111 -18 -390 -16 -173 2 -325 1 -338 -1 l-23 -5 4 -184 c2 -101 1 -186 -2 -188 -4 -2 -3 -52 1 -112 12 -180 6 -644 -9 -659 -10 -10 -128 -12 -543 -13 -529 0 -530 0 -530 21 0 17 -4 19 -27 13 -16 -4 -32 -8 -38 -9 -5 -2 -28 -8 -50 -14 -27 -7 -217 -11 -599 -11 -308 0 -563 -4 -568 -9 -8 -8 -10 -399 -4 -709 2 -103 1 -113 -16 -113 -23 0 -23 -22 2 -101 19 -58 20 -89 20 -389 0 -179 0 -329 1 -335 0 -5 1 -32 0 -60 0 -27 5 -52 10 -56 6 -3 442 -4 970 -2 l959 4 0 -22 c0 -24 11 -24 110 5 48 14 162 16 938 16 l883 0 -1 243 c-2 380 -2 380 15 374 24 -10 25 7 4 79 -24 83 -38 406 -18 430 9 12 112 14 574 14 l563 0 5 43 c2 23 4 178 3 344 -1 288 0 303 17 303 16 0 18 5 12 43 -4 23 -13 57 -21 75 -11 27 -14 107 -14 363 -1 180 -5 331 -9 334 -5 3 -261 6 -570 6 -506 2 -561 3 -565 18 -2 9 -5 70 -5 135 -1 66 -3 121 -4 123 -2 1 -146 3 -320 4 -249 1 -317 4 -317 14 0 10 -26 29 -33 24 -1 -1 -36 -9 -77 -20z m-562 -61 c13 -4 21 -4 18 1 -8 12 47 9 56 -4 5 -7 8 -6 8 1 0 11 412 13 440 2 8 -4 31 -9 50 -12 43 -7 70 -12 90 -17 9 -3 15 3 15 15 0 11 6 21 14 24 9 3 11 0 6 -8 -6 -10 -3 -10 11 -2 13 7 25 7 37 0 14 -7 17 -7 13 1 -10 15 7 14 23 -1 8 -7 11 -8 8 -2 -4 7 12 11 48 11 30 0 52 -3 50 -7 -3 -4 8 -5 23 -3 54 8 88 9 130 2 23 -3 42 -3 42 0 0 9 168 6 177 -3 8 -7 12 -73 13 -215 0 -40 3 -71 7 -68 3 4 14 2 24 -4 15 -8 17 -6 12 8 -6 17 -5 16 15 -1 17 -15 24 -16 36 -7 8 7 19 10 25 7 5 -3 12 0 14 6 4 10 8 10 15 -1 5 -7 12 -9 15 -4 8 13 42 10 61 -6 14 -12 16 -12 11 0 -8 21 333 19 346 -2 6 -10 9 -10 9 -1 0 6 12 12 26 12 21 0 25 -4 20 -17 -5 -16 -5 -16 7 -2 10 14 36 16 182 15 94 -1 176 2 183 7 8 6 12 5 12 -3 0 -10 3 -10 14 -1 11 9 15 9 20 -1 5 -11 7 -11 12 0 5 10 10 9 25 -4 16 -14 19 -15 14 -3 -4 12 0 15 17 14 23 -2 23 -3 26 -166 6 -369 5 -474 -8 -474 -2 0 -5 -18 -15 -80 -4 -22 -12 -46 -17 -52 -10 -13 -1 -17 28 -14 7 1 14 -4 17 -12 2 -7 5 -153 5 -325 -1 -257 -3 -312 -14 -308 -7 3 -15 2 -18 -3 -6 -9 -128 -7 -144 3 -7 4 -12 2 -12 -5 0 -10 -3 -10 -11 -2 -7 7 -20 8 -33 4 -20 -7 -465 -7 -781 0 l-140 3 -1 -199 c-1 -110 -2 -202 -3 -205 -1 -3 -4 -20 -7 -39 -2 -19 -9 -39 -14 -46 -5 -7 -7 -15 -3 -18 3 -4 2 -7 -4 -7 -6 0 -9 -12 -7 -26 3 -28 22 -47 36 -37 5 2 8 -122 7 -277 -2 -155 -6 -283 -10 -285 -7 -5 -125 -6 -264 -2 -49 2 -96 -1 -102 -6 -8 -6 -13 -6 -13 0 0 5 -14 8 -30 5 -17 -2 -38 2 -47 9 -9 8 -14 9 -10 3 4 -8 -11 -11 -51 -10 -31 1 -61 0 -65 -2 -7 -3 -354 -3 -673 0 -40 0 -77 -3 -83 -6 -6 -4 -11 -2 -11 5 0 8 -4 8 -15 -1 -8 -7 -15 -8 -15 -3 0 11 -36 11 -46 0 -4 -4 -13 -2 -21 4 -7 6 -13 7 -13 2 0 -11 -29 -11 -48 1 -6 4 -12 3 -12 -2 0 -11 -204 -7 -222 4 -7 5 -20 10 -29 11 -9 1 -29 8 -45 15 -39 16 -65 18 -63 4 4 -36 0 -37 -123 -37 -68 0 -136 1 -153 2 -111 5 -175 3 -175 -5 0 -6 -5 -5 -12 2 -8 8 -15 9 -25 1 -9 -8 -13 -8 -13 -1 0 6 -6 9 -12 7 -29 -11 -78 -12 -78 -2 0 7 -4 7 -12 -1 -9 -9 -16 -8 -30 5 -17 15 -18 15 -13 0 6 -14 2 -15 -24 -7 -17 5 -31 6 -31 2 0 -4 -48 -6 -107 -5 -324 8 -543 7 -543 -1 0 -5 -5 -5 -12 0 -11 8 -62 11 -78 4 -24 -10 -87 -4 -98 9 -10 14 -11 14 -7 1 4 -11 -2 -15 -21 -16 -19 -2 -24 2 -20 15 5 14 5 14 -6 1 -11 -13 -35 -15 -138 -13 -69 2 -133 4 -143 4 -16 0 -18 10 -17 92 1 51 1 94 0 97 -1 3 -3 38 -4 78 -2 47 1 72 8 72 8 0 8 3 0 8 -13 9 -13 271 0 291 6 10 5 12 -2 7 -8 -5 -11 10 -10 48 1 30 5 53 9 51 3 -3 5 7 3 21 -1 14 4 47 11 72 15 47 7 76 -18 66 -9 -3 -11 24 -10 103 4 158 4 195 0 223 -2 14 0 32 5 41 4 9 4 19 0 23 -10 11 -8 86 3 86 6 0 3 5 -5 10 -13 9 -13 11 0 20 10 6 11 10 3 10 -7 0 -13 5 -13 11 0 6 8 8 18 5 16 -6 16 -5 0 8 -10 7 -18 23 -18 36 0 13 8 29 18 36 16 13 16 14 0 8 -10 -3 -18 -3 -18 1 0 4 8 14 18 21 16 13 16 14 0 8 -10 -3 -18 -1 -18 5 0 6 6 11 13 11 8 0 7 4 -3 10 -13 9 -13 11 0 20 8 5 10 10 4 10 -6 0 -11 17 -12 38 -2 39 -2 39 38 39 26 0 37 -4 33 -11 -4 -6 1 -5 10 3 10 8 20 11 24 8 3 -4 12 -2 19 4 8 7 14 7 19 -1 3 -6 11 -8 16 -4 5 3 17 0 25 -7 12 -10 13 -9 8 7 -7 18 -6 18 16 -1 13 -11 20 -14 15 -6 -6 11 -4 13 7 8 9 -3 21 0 28 6 10 10 11 8 6 -7 -7 -19 -6 -19 13 -2 15 13 20 14 25 4 4 -9 8 -10 11 -2 7 13 42 7 64 -10 11 -8 13 -8 7 2 -4 6 -3 12 1 12 5 0 15 -6 22 -12 11 -10 13 -10 7 0 -5 8 1 12 19 12 18 0 24 -4 19 -12 -6 -10 -5 -10 7 -1 16 13 129 16 377 11 85 -2 156 -1 158 1 10 10 54 8 54 -2 0 -8 3 -7 9 2 5 8 11 9 15 3 3 -5 19 -8 36 -6 21 3 29 0 24 -8 -4 -6 -3 -8 3 -5 9 6 68 -6 103 -20 8 -4 26 -7 40 -9 14 -1 19 0 13 3 -7 2 -13 9 -13 15 0 6 8 7 18 3 14 -5 15 -4 4 7 -11 11 -16 10 -26 -4 -17 -23 -21 -23 -22 5 -1 19 4 22 38 23 32 1 38 -1 34 -15 -6 -14 -5 -14 6 0 11 13 38 15 188 12 96 -2 189 -3 205 -3 40 0 85 -1 110 -4 11 -1 30 1 43 6 15 5 21 4 17 -2 -4 -6 2 -7 18 -1 16 6 28 6 36 -2 8 -8 11 -8 11 2 0 10 3 11 14 2 11 -9 15 -9 19 1 4 10 8 10 16 -2 7 -10 11 -11 11 -2 0 6 5 12 11 12 6 0 8 -8 5 -17 -5 -16 -5 -16 6 -2 15 19 50 18 73 -1 15 -12 19 -12 30 3 16 22 29 22 21 0 -5 -16 -5 -16 7 -2 15 20 78 19 101 0 14 -12 16 -12 11 2 -5 12 3 15 54 13 49 -1 58 1 49 12 -10 12 -12 134 -5 455 1 43 -2 77 -7 77 -6 0 -5 5 1 11 7 7 8 21 2 41 -7 25 -6 29 8 23 15 -5 15 -4 0 13 -13 14 -14 21 -5 30 7 7 8 12 2 12 -7 0 -11 29 -10 75 0 70 7 92 19 63 4 -10 6 -10 6 0 1 7 -5 15 -12 18 -10 3 -13 38 -12 142 0 75 4 143 9 151 7 10 6 12 -4 6 -8 -5 -11 -3 -8 6 3 8 12 13 21 13 9 -1 14 3 11 8 -7 11 80 9 114 -4z"
       id="path2997" />
    <path
       d="M4860 3179 c-57 -13 -123 -18 -280 -19 -112 0 -207 -3 -210 -6 -3 -3 -5 -157 -5 -342 l0 -336 -23 -6 c-23 -5 -27 -16 -13 -35 5 -5 12 -23 16 -40 4 -16 10 -39 13 -50 4 -11 9 -173 12 -359 l5 -339 230 -1 c197 -1 230 -3 230 -16 1 -19 62 -18 122 3 32 11 91 14 243 13 193 -1 201 0 206 19 3 11 3 158 1 327 -3 300 -3 308 17 321 l20 14 -22 75 c-21 71 -22 95 -21 407 0 182 -2 335 -5 340 -3 5 -97 9 -208 9 -253 0 -241 -1 -235 16 9 23 -13 24 -93 5z m-77 -71 c-3 -7 -1 -8 6 -4 6 4 19 2 28 -6 12 -9 15 -9 9 -1 -5 9 -2 11 9 7 10 -4 14 -13 10 -22 -5 -14 -3 -13 13 1 14 13 21 14 30 5 6 -6 22 -13 34 -15 12 -2 25 -7 28 -12 3 -5 11 -3 18 5 7 8 9 14 3 14 -5 0 -11 7 -15 15 -4 13 -2 14 14 5 16 -9 18 -8 14 5 -8 20 6 19 22 -2 13 -17 14 -17 7 2 -6 17 -5 18 9 7 13 -10 17 -10 21 0 4 10 8 10 16 -2 7 -10 11 -11 11 -2 0 6 5 12 11 12 6 0 8 -8 5 -17 -5 -16 -5 -16 6 -2 16 18 80 18 102 0 14 -12 16 -12 11 1 -5 13 5 15 67 13 40 -2 76 -3 79 -4 7 -1 8 -29 10 -371 0 -150 -3 -251 -11 -280 -28 -111 -30 -146 -8 -142 11 2 18 -7 22 -25 7 -40 2 -586 -6 -598 -4 -7 -69 -10 -185 -9 -196 3 -226 6 -250 26 -9 7 -14 8 -10 2 5 -8 -5 -8 -30 1 -35 12 -38 11 -48 -9 -9 -18 -19 -21 -65 -21 -30 0 -63 3 -74 8 -13 7 -16 6 -11 -3 5 -9 1 -10 -14 -5 -20 6 -68 7 -161 4 -89 -3 -97 -1 -95 25 2 14 6 30 11 37 4 7 3 10 -3 6 -15 -10 -16 102 -1 121 10 12 10 14 1 8 -9 -5 -13 2 -13 23 0 17 5 31 11 31 8 0 8 4 1 13 -7 8 -10 79 -9 204 2 165 5 194 20 211 19 21 23 37 6 26 -12 -7 -12 -6 10 38 17 33 8 66 -13 49 -10 -9 -16 -9 -21 -1 -9 14 -12 320 -4 314 3 -2 4 9 2 24 -9 54 -9 167 0 186 5 11 5 16 0 13 -11 -7 -8 81 2 91 11 11 149 10 163 -1 7 -6 17 -6 25 0 18 14 59 14 51 0 -4 -7 0 -5 9 3 19 18 132 16 120 -2z"
       id="path2999" />
    <path
       d="M1465 2302 c-43 -18 -162 -21 -783 -22 l-293 -1 6 -419 5 -419 -22 -3 c-28 -4 -28 -19 -2 -103 16 -53 19 -105 22 -445 1 -211 5 -386 7 -389 3 -2 250 -4 551 -3 530 0 546 0 551 -19 6 -23 8 -23 118 0 53 11 117 17 155 15 103 -5 872 -5 877 0 3 2 5 185 5 406 -1 393 0 401 19 395 17 -6 19 -2 15 27 -2 18 -9 45 -15 61 -18 46 -24 159 -26 472 -1 165 -2 328 -3 362 l-2 63 -541 0 c-297 0 -544 2 -549 5 -5 3 -7 12 -3 20 7 20 -39 18 -92 -3z m-808 -64 c22 -2 39 0 36 5 -2 4 0 7 6 7 5 0 13 -4 16 -10 3 -5 12 -10 18 -10 7 0 6 4 -3 11 -12 9 -11 9 5 4 23 -9 285 -13 290 -5 6 10 380 -1 380 -11 0 -1 9 -3 20 -5 47 -7 69 -14 88 -31 11 -10 17 -12 13 -5 -6 9 -2 12 10 10 14 -2 19 3 18 20 -1 21 3 23 42 19 25 -2 41 0 37 6 -3 5 4 6 18 2 29 -10 379 -13 379 -4 0 4 15 5 33 2 44 -5 38 -5 247 -5 161 1 281 -2 301 -7 3 0 7 -128 8 -283 1 -156 2 -332 2 -393 1 -113 -18 -210 -43 -226 -11 -7 -11 -9 0 -9 7 0 12 -6 11 -12 -1 -7 -1 -20 0 -28 1 -13 2 -13 11 0 12 19 22 8 26 -30 3 -23 0 -29 -9 -24 -9 6 -9 5 0 -7 16 -20 16 -179 0 -179 -9 0 -9 -2 -1 -8 10 -6 11 -76 5 -422 -1 -30 -5 -61 -10 -68 -9 -15 15 -15 -531 -12 -212 0 -405 6 -430 11 -25 6 -53 11 -62 13 -10 1 -21 5 -24 9 -4 4 -20 7 -36 7 -22 0 -28 -4 -26 -17 3 -17 -28 -18 -519 -19 -287 0 -527 2 -533 6 -8 5 -10 39 -8 99 2 50 0 91 -3 91 -7 0 -3 79 4 86 3 3 1 19 -3 36 -8 25 -7 29 7 24 13 -6 14 -4 3 9 -20 25 -22 350 -3 435 8 36 17 72 21 80 8 22 10 49 3 48 -38 -4 -37 -8 -37 270 1 147 5 273 10 281 6 9 5 12 0 8 -6 -3 -10 40 -11 113 0 114 0 119 21 122 20 3 115 1 203 -4z"
       id="path3001" />
    <path
       d="M6332 1651 c-3 -7 0 -16 7 -20 19 -12 400 -11 407 1 17 27 -20 33 -213 33 -155 0 -197 -3 -201 -14z"
       id="path3003" />
    <path
       d="M6346 1562 c-10 -2 -16 -11 -14 -20 3 -15 27 -17 216 -20 207 -2 212 -2 212 18 0 14 -7 20 -22 21 -51 4 -376 4 -392 1z"
       id="path3005" />
  </g>
</svg>
