<?xml version="1.0" encoding="UTF-8" standalone="no"?>
<svg
   xmlns:dc="http://purl.org/dc/elements/1.1/"
   xmlns:cc="http://creativecommons.org/ns#"
   xmlns:rdf="http://www.w3.org/1999/02/22-rdf-syntax-ns#"
   xmlns:svg="http://www.w3.org/2000/svg"
   xmlns="http://www.w3.org/2000/svg"
   xmlns:sodipodi="http://sodipodi.sourceforge.net/DTD/sodipodi-0.dtd"
   xmlns:inkscape="http://www.inkscape.org/namespaces/inkscape"
   version="1.0"
   width="199.680000pt"
   height="329.280000pt"
   viewBox="0 0 199.680000 329.280000"
   preserveAspectRatio="xMidYMid meet"
   id="svg3043"
   inkscape:version="0.48.4 r9939"
   sodipodi:docname="curl-meter.svg">
  <defs
     id="defs3091" />
  <sodipodi:namedview
     pagecolor="#ffffff"
     bordercolor="#666666"
     borderopacity="1"
     objecttolerance="10"
     gridtolerance="10"
     guidetolerance="10"
     inkscape:pageopacity="0"
     inkscape:pageshadow="2"
     inkscape:window-width="1280"
     inkscape:window-height="996"
     id="namedview3089"
     showgrid="false"
     inkscape:zoom="0.73180607"
     inkscape:cx="221.45967"
     inkscape:cy="191.22424"
     inkscape:window-x="0"
     inkscape:window-y="0"
     inkscape:window-maximized="1"
     inkscape:current-layer="svg3043" />
  <metadata
     id="metadata3045">
Created by potrace 1.10, written by Peter Selinger 2001-2011
<rdf:RDF>
  <cc:Work
     rdf:about="">
    <dc:format>image/svg+xml</dc:format>
    <dc:type
       rdf:resource="http://purl.org/dc/dcmitype/StillImage" />
  </cc:Work>
</rdf:RDF>
</metadata>
  <rect
     style="fill:#b9b9b9;fill-opacity:1;stroke:none"
     id="rect3038-6"
     width="11.338584"
     height="329.28098"
     x="199.04993"
     y="-0.00096686144"
     ry="0" />
  <rect
     style="fill:#b9b9b9;fill-opacity:1;stroke:none"
     id="rect3038"
     width="11.338583"
     height="329.28094"
     x="-11.174296"
     y="-0.00093634386"
     ry="0" />
  <g
     style="fill:#b9b9b9;stroke:none"
     transform="matrix(0.024,0,0,-0.024,0,329.28001)"
     id="g6">
    <path
       inkscape:connector-curvature="0"
       d="M 7,13713 C 3,13710 0,12384 0,10768 0,8455 3,7831 13,7836 c 9,6 9,4 -1,-8 C 2,7816 0,7692 1,7256 l 1,-556 29,0 c 20,0 29,5 29,16 0,8 5,12 11,8 13,-8 89,15 89,28 0,4 11,8 23,8 13,0 27,3 31,7 8,9 77,33 94,33 6,0 21,9 32,20 11,11 33,20 51,20 17,0 37,7 45,15 9,8 28,15 43,15 16,0 40,9 53,20 14,10 45,24 69,29 56,13 62,13 54,1 -3,-5 -15,-10 -26,-10 -10,0 -19,-4 -19,-9 0,-6 -27,-18 -60,-28 -33,-9 -60,-23 -60,-30 0,-11 -4,-11 -21,-1 -17,11 -22,10 -33,-4 -7,-10 -22,-18 -34,-18 -11,0 -22,-7 -26,-15 -3,-8 -17,-15 -32,-15 -24,0 -57,-12 -129,-46 -16,-8 -45,-17 -63,-20 -17,-4 -32,-12 -32,-20 0,-8 -15,-14 -37,-16 -30,-2 -39,-8 -41,-25 -3,-18 7,-27 51,-47 30,-14 57,-26 61,-26 8,0 69,-25 98,-41 10,-5 23,-9 28,-9 6,0 30,-9 52,-20 23,-11 49,-20 59,-20 9,0 19,-6 22,-12 2,-7 26,-19 52,-27 45,-13 125,-48 125,-55 0,-8 -66,9 -77,20 -8,7 -20,11 -28,8 -8,-4 -15,-2 -15,4 0,6 -13,13 -30,17 -16,4 -30,11 -30,16 0,5 -13,9 -30,9 -17,0 -39,9 -51,21 -12,12 -29,19 -40,16 -10,-3 -19,-1 -19,3 0,5 -21,16 -47,25 -58,21 -92,34 -115,46 -10,5 -27,9 -38,9 -11,0 -20,7 -20,15 0,9 -9,15 -25,15 l -25,0 1,-142 c 0,-95 4,-147 12,-157 9,-12 9,-13 0,-7 C 3,6329 0,5674 0,3165 L 0,0 l 4160,0 4160,0 0,6860 0,6860 -4153,0 c -2285,0 -4157,-3 -4160,-7 z m 5673,-883 c 23,14 243,-40 293,-72 14,-10 33,-15 41,-12 10,4 16,1 16,-9 0,-9 9,-19 21,-22 31,-10 84,-49 87,-65 2,-8 29,-40 59,-72 31,-31 62,-70 68,-85 7,-15 19,-34 28,-41 9,-8 13,-20 10,-28 -3,-7 2,-17 10,-20 10,-3 16,-17 15,-32 0,-15 7,-52 16,-82 17,-54 28,-105 26,-125 -7,-104 -18,-204 -23,-212 -3,-5 -7,-26 -9,-46 -1,-21 -5,-37 -9,-37 -7,0 -33,-68 -31,-80 0,-3 -10,-19 -23,-36 -13,-17 -22,-34 -18,-37 7,-8 -22,-37 -36,-37 -9,0 -15,-14 -9,-22 3,-5 -63,-68 -81,-78 -10,-5 -29,-25 -42,-44 -13,-20 -28,-35 -34,-34 -20,4 -55,-14 -55,-28 0,-8 -3,-14 -7,-15 -45,-5 -66,-9 -113,-23 -80,-25 -202,-42 -238,-35 -43,9 -80,0 -85,-20 -2,-9 -4,-1 -4,17 0,18 -3,35 -6,39 -4,3 3,19 14,34 14,19 22,49 24,90 l 4,61 -34,14 c -88,36 -125,7 -140,-111 -2,-12 -12,-39 -24,-60 -12,-22 -21,-49 -21,-60 0,-25 -17,-52 -26,-42 -4,3 -2,12 3,19 6,7 14,27 17,44 7,29 4,34 -36,61 -24,16 -56,34 -73,41 -16,7 -41,28 -54,47 -13,19 -28,35 -34,35 -14,0 -105,99 -113,122 -3,10 -10,18 -15,18 -5,0 -8,3 -7,8 3,13 -21,87 -36,108 -38,54 -66,338 -38,391 5,10 13,38 17,63 11,64 111,263 135,268 8,1 40,29 70,61 30,33 74,69 98,80 24,12 45,28 48,36 4,8 16,14 27,13 12,0 45,6 72,15 108,35 151,43 197,37 26,-4 52,-4 58,0 z m -138,-1507 c 2,-10 -4,-39 -14,-64 -9,-26 -20,-70 -24,-98 -4,-29 -12,-51 -19,-51 -7,0 -10,11 -7,30 2,17 8,30 13,30 5,0 7,15 5,32 -2,19 2,37 10,43 7,5 15,29 16,52 3,44 14,57 20,26 z m -204,-75 c -9,-7 -18,-22 -21,-33 -3,-13 -5,-8 -6,13 -1,27 3,32 21,32 19,0 20,-1 6,-12 z m -38,-95 c 0,-10 -20,-40 -20,-31 0,3 -3,13 -6,22 -4,11 -1,16 10,16 9,0 16,-3 16,-7 z m -24,-88 c -3,-9 -10,-13 -16,-10 -6,4 -5,11 3,20 15,16 22,11 13,-10 z m 184,-45 c 0,-36 -16,-40 -22,-5 -4,20 0,28 20,34 1,1 2,-12 2,-29 z m -204,-26 c -4,-14 -9,-24 -12,-21 -3,2 -2,17 2,31 3,15 9,25 11,22 3,-3 2,-17 -1,-32 z m -25,-82 c -6,-2 -11,-18 -11,-36 0,-18 -7,-41 -15,-52 -14,-18 -14,-17 -5,9 5,16 10,37 10,47 0,10 5,31 12,47 10,24 12,25 16,8 2,-10 -1,-21 -7,-23 z m 145,-176 -13,-39 -5,36 c -3,27 0,37 12,40 21,5 21,6 6,-37 z m -221,-80 c -10,-14 -15,-35 -12,-46 3,-11 1,-20 -4,-20 -15,0 -10,40 8,71 9,15 19,27 21,25 2,-3 -4,-16 -13,-30 z m 195,-30 c 0,-21 -6,-36 -15,-40 -9,-3 -15,0 -15,9 0,8 5,15 11,15 7,0 9,10 5,25 -4,14 -2,25 4,25 5,0 10,-15 10,-34 z m -216,-108 c 7,-5 4,-8 -8,-8 -14,0 -17,-6 -14,-23 2,-13 -1,-29 -9,-35 -7,-7 -13,-26 -13,-42 0,-17 -4,-30 -9,-30 -5,0 -11,-21 -15,-47 -9,-66 -22,-85 -28,-39 -2,22 0,36 7,36 6,0 17,28 24,63 7,34 19,76 27,94 8,17 14,39 15,50 0,14 2,14 6,3 3,-8 11,-18 17,-22 z m 101,-285 c -8,-45 -9,-46 -14,-18 -4,17 -2,40 4,52 15,32 18,20 10,-34 z m -212,-78 c -7,-5 -16,-35 -20,-65 -3,-30 -12,-61 -20,-68 -7,-7 -14,-23 -15,-35 0,-12 -2,-28 -2,-36 -1,-8 -7,-16 -15,-19 -11,-4 -12,0 -6,14 4,11 10,34 13,52 2,17 8,32 13,32 5,0 7,18 5,40 -2,24 2,44 8,48 7,4 18,27 26,51 13,40 15,42 20,20 4,-14 1,-28 -7,-34 z m -3803,21 c 30,-3 72,-8 94,-10 21,-3 48,-14 60,-25 12,-12 31,-21 42,-21 10,0 25,-9 31,-19 7,-11 25,-22 42,-26 78,-17 218,-165 285,-300 34,-71 78,-221 81,-280 2,-27 6,-65 10,-83 4,-19 3,-50 -3,-70 -6,-21 -18,-71 -28,-112 -9,-41 -27,-96 -40,-122 -13,-26 -24,-54 -24,-61 0,-8 -6,-20 -14,-26 -8,-7 -12,-21 -8,-34 7,-26 67,-87 85,-87 15,0 51,-37 60,-61 3,-9 19,-23 36,-30 17,-8 31,-17 31,-21 0,-5 6,-8 13,-8 15,0 48,-36 66,-72 8,-16 17,-28 21,-28 9,0 41,-31 70,-68 14,-18 30,-32 35,-32 12,-1 60,-60 48,-60 -5,0 -49,40 -99,88 -50,49 -98,91 -107,95 -9,3 -17,13 -17,22 0,8 -7,15 -15,15 -8,0 -15,6 -15,14 0,14 -68,66 -86,66 -6,0 -19,9 -29,20 -10,11 -24,20 -32,20 -7,0 -13,9 -13,20 0,20 -52,80 -69,80 -6,0 -47,-35 -91,-77 -64,-62 -79,-82 -74,-98 9,-26 54,-65 77,-65 10,0 17,-8 17,-20 0,-11 12,-30 27,-43 66,-55 103,-90 103,-97 0,-4 -14,-5 -32,-1 -21,4 -36,16 -47,37 -8,16 -32,43 -53,59 -20,17 -37,34 -38,38 0,13 -58,65 -79,72 -11,3 -48,-9 -90,-30 -69,-35 -146,-62 -201,-73 -30,-5 -255,-6 -322,-1 -27,2 -48,7 -48,12 0,4 -5,7 -11,7 -27,0 -216,101 -243,129 -17,17 -34,31 -39,31 -5,0 -25,17 -44,38 -92,98 -156,211 -188,332 -21,78 -36,268 -23,293 5,10 5,24 0,34 -7,11 -5,21 4,31 8,7 14,30 14,51 0,20 4,41 8,47 5,5 16,29 25,54 9,25 37,77 62,115 25,39 43,75 40,82 -2,7 2,10 11,6 16,-6 144,120 144,143 0,10 7,13 25,8 14,-3 25,-2 25,4 0,12 94,58 140,67 19,4 41,11 50,16 49,28 176,33 340,15 z m 3962,-138 c -3,-18 -11,-42 -19,-53 -14,-19 -15,-18 -9,9 4,15 10,41 13,57 8,39 21,28 15,-13 z m -257,-194 c -15,-39 -15,-39 -10,-5 3,18 5,41 5,49 0,11 3,13 10,6 7,-7 5,-23 -5,-50 z m 210,39 c -4,-10 -10,-28 -12,-40 -3,-13 -9,-23 -14,-23 -5,0 -4,12 2,27 5,14 8,32 5,40 -3,7 1,13 10,13 12,0 14,-5 9,-17 z m -42,-160 c -3,-10 -10,-24 -16,-30 -5,-7 -7,-19 -4,-28 4,-8 1,-17 -4,-21 -6,-3 -9,-15 -6,-25 3,-10 1,-21 -3,-24 -9,-6 -26,-92 -22,-112 2,-7 -4,-13 -13,-13 -9,0 -15,-9 -15,-21 0,-30 -43,-193 -52,-197 -5,-2 -8,-24 -8,-48 0,-24 -4,-44 -10,-44 -5,0 -12,-22 -16,-50 -4,-27 -10,-50 -15,-50 -5,0 -11,-22 -15,-50 -4,-27 -10,-50 -14,-50 -5,0 -11,-24 -15,-52 -3,-29 -10,-62 -14,-73 -5,-11 -15,-40 -22,-65 -7,-25 -17,-51 -22,-58 -6,-7 -10,-40 -10,-73 0,-41 -4,-59 -13,-59 -7,0 -16,-16 -20,-35 -3,-19 -10,-38 -15,-41 -8,-4 -13,-53 -6,-55 29,-8 249,-7 297,1 79,13 81,13 154,1 38,-6 67,-6 84,0 14,6 66,10 114,11 57,0 88,5 88,12 0,7 4,6 9,-2 7,-12 78,-12 316,1 59,3 128,-4 120,-12 -6,-5 -104,-11 -218,-15 -115,-3 -217,-11 -228,-17 -11,-5 -24,-7 -30,-4 -5,4 -47,6 -92,5 -195,-3 -412,-9 -547,-15 -80,-4 -194,-8 -255,-10 -60,-3 -137,-7 -170,-9 -73,-5 -91,-6 -107,-5 -7,0 -24,0 -38,0 -14,-1 -34,-1 -45,1 -63,6 -175,-3 -188,-16 -7,-8 -33,-20 -55,-27 -23,-7 -42,-16 -42,-21 0,-4 -13,-8 -29,-8 -29,0 -57,-21 -44,-34 8,-7 405,2 623,15 177,10 155,9 215,9 56,-1 317,7 505,14 226,9 453,16 570,16 133,0 232,12 238,29 2,6 17,11 33,11 16,0 29,5 29,11 0,5 4,8 9,5 10,-7 101,42 101,54 0,4 -29,5 -64,3 -80,-7 -144,3 -127,20 7,7 66,12 166,14 85,1 163,6 174,12 25,14 35,-10 22,-53 -5,-17 -9,-38 -9,-46 -1,-8 -9,-58 -18,-110 -10,-52 -17,-110 -17,-127 1,-18 -2,-33 -7,-33 -5,0 -9,-17 -8,-37 2,-45 -19,-178 -31,-201 -5,-9 -11,-53 -15,-97 -4,-44 -12,-108 -18,-142 -10,-55 -15,-63 -34,-63 -24,0 -36,23 -55,105 -6,28 -17,64 -25,82 -8,17 -14,37 -14,45 0,8 -14,59 -30,114 -41,131 -89,294 -95,318 -7,29 -19,37 -65,43 -29,4 -45,2 -50,-7 -5,-8 -15,-10 -26,-5 -11,5 -23,7 -27,6 -4,-1 -99,-4 -210,-6 -111,-3 -272,-7 -357,-10 -85,-2 -238,-7 -340,-10 -244,-7 -403,-14 -408,-20 -2,-2 -7,-25 -9,-50 -3,-25 -10,-48 -14,-51 -5,-3 -9,-20 -9,-39 0,-18 -6,-40 -13,-47 -13,-13 -37,-99 -40,-145 -1,-13 -5,-23 -8,-23 -4,0 -9,-16 -11,-35 -4,-39 10,-58 39,-54 10,2 38,-7 62,-19 25,-12 46,-22 47,-22 9,0 46,143 47,182 1,26 7,50 14,52 6,3 14,23 18,45 4,23 10,43 15,46 4,3 16,34 25,70 10,36 21,65 25,65 10,0 0,-52 -12,-67 -6,-7 -8,-19 -5,-26 3,-8 -1,-27 -8,-43 -14,-31 -40,-138 -40,-167 0,-10 -5,-21 -11,-25 -6,-4 -21,-43 -33,-86 -21,-72 -22,-80 -7,-88 27,-15 66,-55 66,-67 0,-6 -7,-11 -15,-11 -8,0 -15,9 -15,20 0,14 -10,22 -39,30 -21,5 -42,17 -45,26 -3,8 -29,25 -58,38 -41,18 -68,23 -118,21 -81,-3 -150,-14 -150,-25 0,-4 -13,-10 -29,-13 -17,-4 -32,-14 -35,-25 -4,-12 -19,-22 -37,-26 -19,-4 -33,-13 -36,-26 -3,-11 -9,-20 -13,-20 -4,0 -11,-11 -14,-24 -3,-14 -14,-27 -25,-31 -23,-7 -71,-60 -71,-78 0,-8 -9,-24 -20,-37 -11,-13 -20,-31 -20,-42 0,-10 -4,-18 -9,-18 -11,0 -42,-86 -33,-94 3,-3 0,-6 -6,-6 -7,0 -12,-11 -12,-25 0,-14 -4,-25 -9,-25 -5,0 -11,-12 -14,-27 -2,-16 -19,-82 -36,-148 -18,-66 -33,-144 -35,-172 -2,-46 -14,-83 -17,-57 -8,58 -5,110 8,123 10,9 14,29 11,58 -2,23 0,43 4,43 5,0 8,20 8,45 0,31 5,47 15,51 8,4 15,13 15,21 0,8 7,29 14,46 8,18 25,64 37,102 12,39 28,74 35,78 8,4 14,17 14,27 0,11 4,20 8,20 5,0 14,16 22,35 7,19 23,43 34,54 34,32 46,49 46,66 0,8 7,15 15,15 8,0 15,9 15,19 0,11 9,21 23,25 13,3 39,19 58,36 19,17 47,38 64,47 28,15 28,17 10,24 -30,11 -223,11 -230,-1 -3,-5 -14,-10 -24,-10 -10,0 -24,-6 -30,-14 -6,-7 -25,-16 -41,-20 -18,-3 -30,-12 -30,-21 0,-21 -43,-39 -74,-31 -21,5 -25,13 -31,59 -10,77 -14,105 -25,182 -13,89 -15,110 -25,220 -7,79 -5,92 10,105 23,19 137,58 154,52 7,-2 16,0 20,5 13,19 61,43 86,43 14,0 25,5 25,10 0,6 11,10 24,10 13,0 29,7 36,15 7,8 26,17 44,20 43,7 305,17 399,15 l 77,-1 0,40 c 0,23 5,41 11,41 6,0 8,9 4,21 -4,12 -2,24 4,28 12,8 29,62 67,216 13,55 28,109 33,120 6,11 22,65 36,120 15,55 31,110 36,123 5,13 9,32 9,42 0,11 4,20 8,20 8,0 31,100 35,147 0,12 7,25 14,27 7,3 13,12 13,20 0,8 4,18 10,21 7,4 7,-3 0,-20 -6,-15 -10,-44 -10,-66 0,-21 -4,-39 -10,-39 -5,0 -10,-9 -10,-20 0,-10 -4,-29 -9,-42 -5,-13 -14,-43 -21,-68 -7,-25 -16,-54 -21,-65 -8,-19 -38,-123 -61,-212 -6,-24 -15,-43 -20,-43 -4,0 -8,-17 -8,-38 0,-21 -4,-42 -8,-47 -5,-6 -19,-57 -32,-115 -13,-58 -27,-107 -30,-110 -3,-3 -10,-24 -16,-48 -11,-41 -10,-44 12,-54 18,-8 29,-7 46,4 17,11 30,12 50,4 41,-15 75,7 81,53 16,111 20,132 28,137 5,3 9,17 9,31 0,14 6,39 14,56 31,73 36,89 36,117 0,17 5,30 11,30 6,0 9,8 7,18 -3,11 1,30 8,43 7,13 13,38 14,55 0,16 5,35 11,41 6,6 15,29 20,50 17,79 33,138 39,143 4,3 15,41 25,85 10,44 22,86 28,93 5,7 13,29 18,50 20,92 72,278 81,290 14,17 18,15 11,-5 z m -232,-110 c -9,-16 -10,-16 -11,4 0,12 3,30 7,40 7,16 8,16 11,-4 2,-12 -1,-30 -7,-40 z m -25,-108 c -5,-20 -9,-23 -19,-13 -11,9 -10,15 2,28 20,21 25,17 17,-15 z M 1838,8523 c 26,-17 132,-120 132,-129 0,-16 -28,4 -70,49 -27,29 -60,59 -74,67 -14,7 -26,17 -26,22 0,12 8,10 38,-9 z m 402,-23 c 0,-5 9,-10 20,-10 11,0 24,-8 27,-17 7,-19 37,-49 56,-56 7,-3 8,-8 3,-13 -5,-5 -11,-4 -13,4 -3,6 -11,12 -19,12 -8,0 -17,7 -20,15 -4,8 -12,15 -20,15 -16,0 -54,35 -54,50 0,6 5,10 10,10 6,0 10,-4 10,-10 z m -203,-175 c 18,-19 39,-35 48,-35 8,0 15,-5 15,-12 0,-6 7,-20 17,-30 19,-22 1,-25 -21,-3 -8,8 -19,15 -25,15 -6,0 -11,7 -11,15 0,9 -11,20 -24,26 -22,11 -54,59 -38,59 4,0 22,-16 39,-35 z m 419,-5 c 8,0 14,-6 14,-13 0,-7 9,-18 20,-25 11,-7 20,-20 20,-30 -1,-15 -3,-14 -18,4 -10,12 -28,25 -40,28 -12,4 -22,13 -22,19 0,7 -9,19 -20,27 -14,10 -16,16 -8,21 7,5 18,-1 26,-12 7,-10 20,-19 28,-19 z m 3967,-85 c 15,-4 30,-11 33,-16 3,-5 14,-9 25,-9 10,0 19,-6 19,-12 1,-17 38,-43 72,-52 30,-7 78,-53 78,-75 0,-8 7,-11 19,-8 14,3 17,0 14,-14 -4,-13 0,-19 11,-19 9,0 16,-6 16,-14 0,-22 33,-76 47,-76 11,0 35,-35 49,-72 3,-10 10,-18 15,-18 5,0 9,-7 9,-15 0,-8 5,-15 10,-15 6,0 10,-10 10,-23 0,-12 9,-28 20,-35 13,-8 20,-23 20,-42 0,-26 4,-30 28,-30 19,0 23,-3 13,-9 -10,-6 -11,-13 -2,-29 6,-11 11,-30 11,-42 0,-12 11,-46 25,-76 14,-30 25,-63 25,-74 0,-10 5,-22 10,-25 6,-3 10,-18 10,-33 0,-15 7,-49 15,-76 8,-27 15,-62 15,-78 0,-15 4,-28 9,-28 8,0 12,-19 31,-170 5,-41 13,-76 18,-78 5,-1 7,-24 5,-51 l -4,-48 118,4 c 65,2 123,4 128,3 42,-7 395,-15 652,-15 244,0 313,-3 313,-12 0,-16 36,-15 -455,-17 -225,-1 -419,-3 -430,-3 -11,-1 -51,0 -90,2 -38,1 -314,6 -611,10 l -542,7 -16,-33 c -9,-17 -16,-38 -16,-46 0,-7 -4,-13 -9,-13 -11,0 -36,-59 -28,-67 4,-3 2,-14 -4,-25 -5,-10 -10,-51 -10,-91 1,-39 1,-80 0,-89 -2,-63 0,-88 9,-127 5,-24 14,-46 19,-50 6,-3 16,-24 24,-46 19,-53 32,-66 71,-66 18,0 100,-4 183,-9 86,-5 154,-5 159,0 5,5 18,5 31,0 12,-4 89,-9 171,-10 82,-1 203,-3 269,-4 66,0 139,2 162,5 23,3 47,2 55,-2 12,-6 113,-10 718,-24 281,-7 340,-12 340,-31 0,-9 -5,-12 -10,-9 -9,5 -331,10 -1051,17 -42,0 -82,-2 -88,-6 -6,-4 -11,-2 -11,3 0,17 -28,13 -48,-7 -13,-13 -21,-48 -31,-142 -8,-73 -19,-135 -28,-149 -10,-15 -13,-36 -10,-57 3,-19 1,-36 -4,-39 -5,-4 -9,-15 -9,-26 0,-10 -4,-19 -9,-19 -5,0 -11,-18 -15,-40 -8,-49 -26,-53 -26,-5 0,19 4,35 9,35 5,0 12,27 16,60 4,33 11,60 16,60 5,0 9,20 9,45 0,26 5,45 11,45 7,0 8,11 4,30 -5,21 -2,39 10,56 12,18 14,29 6,37 -7,7 -7,16 0,29 6,11 8,22 5,25 -3,3 -1,14 5,25 25,46 -12,55 -276,63 -419,13 -514,14 -520,5 -4,-7 -13,-7 -25,0 -10,5 -28,10 -39,10 -10,0 -21,4 -23,8 -1,4 -18,18 -35,31 -18,12 -33,30 -33,40 0,10 -3,21 -7,24 -15,16 -40,107 -36,131 3,14 1,32 -4,39 -17,24 2,266 22,273 7,3 11,13 9,22 -8,31 49,122 75,122 6,0 11,5 11,11 0,8 21,9 68,5 98,-10 819,-12 828,-3 10,9 -11,165 -50,362 -17,90 -33,141 -53,170 -7,11 -13,36 -13,57 0,21 -4,38 -10,38 -5,0 -10,11 -10,25 0,14 -4,25 -10,25 -5,0 -10,8 -10,19 0,10 -7,32 -15,47 -8,16 -15,36 -15,45 0,9 -13,33 -30,54 -16,21 -30,46 -30,55 0,10 -7,23 -15,30 -8,7 -15,22 -15,34 -1,27 -23,56 -44,56 -9,0 -16,6 -16,13 0,22 -31,78 -46,84 -8,3 -14,11 -14,19 0,8 -7,14 -15,14 -8,0 -15,6 -15,13 0,7 -18,26 -40,43 -22,16 -40,34 -40,40 0,6 -13,17 -30,24 -16,7 -30,17 -30,22 0,6 -11,8 -24,6 -18,-4 -26,0 -29,14 -4,12 -14,18 -36,18 -17,0 -40,5 -51,12 -18,12 -18,13 -2,29 9,9 19,13 22,8 3,-4 18,-11 33,-14 z m -3870,-18 c 9,-3 17,-13 17,-22 0,-8 4,-15 9,-15 5,0 28,-23 51,-50 41,-49 41,-50 11,-33 -17,10 -31,23 -31,29 0,5 -20,29 -45,53 -25,24 -45,48 -45,54 0,8 3,9 8,1 4,-6 15,-13 25,-17 z m -316,-66 c 17,-19 29,-38 27,-41 -3,-3 -11,3 -18,13 -7,9 -17,17 -21,17 -7,0 -65,59 -65,66 0,12 49,-23 77,-55 z m 3701,22 c -2,-28 -9,-41 -25,-48 -13,-5 -23,-16 -23,-23 0,-7 -11,-17 -24,-22 -13,-5 -32,-23 -42,-39 -10,-17 -24,-31 -31,-31 -7,0 -13,-6 -13,-14 0,-7 -9,-16 -20,-19 -11,-3 -20,-2 -20,2 0,4 9,17 20,29 11,12 20,26 20,32 0,5 7,10 16,10 19,0 64,48 64,68 0,17 -37,15 -44,-3 -3,-8 -11,-15 -18,-15 -13,0 -68,-52 -68,-64 0,-3 -13,-18 -29,-33 -15,-16 -31,-38 -35,-50 -4,-11 -18,-28 -31,-37 -14,-9 -25,-24 -25,-34 0,-9 -12,-28 -25,-41 -14,-13 -25,-32 -25,-42 0,-10 -4,-19 -10,-19 -5,0 -13,-12 -16,-27 -4,-16 -12,-35 -19,-43 -7,-8 -16,-30 -20,-47 -3,-18 -10,-33 -15,-33 -4,0 -10,-17 -13,-38 -4,-21 -18,-60 -32,-87 -14,-28 -25,-65 -25,-82 0,-18 -4,-33 -10,-33 -5,0 -10,-15 -10,-34 0,-19 -4,-37 -9,-40 -4,-3 -11,-25 -14,-48 -4,-24 -11,-63 -18,-88 -6,-25 -12,-73 -14,-107 -2,-35 -7,-68 -11,-75 -12,-18 -31,-262 -23,-279 5,-9 4,-20 -1,-25 -13,-13 -13,-330 0,-429 6,-44 10,-91 10,-104 0,-14 6,-28 12,-33 8,-5 9,-8 2,-8 -7,0 -8,-15 -3,-47 4,-27 8,-67 8,-90 1,-24 5,-43 9,-43 4,0 8,-8 9,-17 3,-52 26,-155 43,-198 11,-26 22,-74 25,-107 1,-15 10,-34 19,-43 9,-9 16,-27 16,-41 0,-13 4,-24 9,-24 5,0 12,-15 16,-32 4,-18 16,-48 26,-66 10,-18 19,-44 19,-58 0,-15 6,-24 15,-24 10,0 15,-10 15,-29 0,-16 7,-34 15,-41 8,-7 15,-17 15,-22 0,-5 9,-19 20,-31 12,-12 23,-32 26,-44 4,-13 10,-23 15,-23 5,0 9,-6 9,-13 0,-16 33,-57 46,-57 4,0 30,-21 56,-47 26,-26 48,-42 48,-36 0,19 -74,122 -88,123 -7,0 -16,8 -19,18 -4,9 -13,23 -20,30 -7,7 -13,19 -13,27 0,7 -7,15 -15,19 -8,3 -15,14 -15,24 0,11 -9,31 -20,45 -11,14 -20,35 -20,46 0,12 -9,34 -19,49 -11,15 -32,65 -47,112 -16,47 -32,87 -35,90 -3,3 -17,52 -29,110 -13,58 -28,108 -33,111 -9,6 -18,61 -37,224 -5,50 -14,122 -19,160 -5,39 -7,82 -4,97 3,14 0,41 -6,60 -18,58 -20,168 -5,353 8,99 13,193 10,208 -3,16 -1,38 5,50 7,11 15,46 19,76 5,31 20,110 34,176 14,66 26,132 26,148 0,15 5,27 10,27 6,0 10,7 10,15 0,15 53,182 70,220 5,11 14,39 20,62 6,23 17,49 25,57 8,8 15,19 15,25 0,6 4,11 9,11 12,0 34,66 27,78 -3,5 6,14 19,20 17,8 25,20 25,37 0,15 6,25 14,25 7,0 21,10 29,23 l 16,22 0,-22 c 1,-13 -3,-23 -9,-23 -5,0 -10,-7 -10,-15 0,-8 -9,-19 -20,-25 -12,-6 -20,-21 -20,-35 0,-14 -8,-29 -20,-35 -11,-6 -20,-19 -20,-29 0,-10 -6,-24 -14,-30 -8,-7 -17,-27 -20,-46 -4,-19 -10,-35 -14,-35 -4,0 -12,-12 -18,-27 -30,-74 -35,-93 -29,-102 3,-6 -1,-11 -11,-11 -11,0 -15,-6 -11,-20 3,-11 1,-20 -4,-20 -9,0 -26,-58 -50,-163 -10,-45 -10,-60 -1,-66 9,-5 7,-13 -6,-27 -11,-12 -23,-50 -31,-99 -7,-44 -16,-98 -21,-120 -15,-68 -22,-144 -25,-290 -2,-77 -6,-174 -10,-215 -4,-54 -2,-82 8,-101 10,-18 11,-32 5,-43 -16,-29 8,-305 36,-416 4,-14 11,-59 17,-100 6,-41 23,-118 40,-170 16,-52 36,-121 45,-152 8,-32 19,-58 24,-58 4,0 6,-9 3,-20 -3,-12 1,-22 11,-26 9,-3 16,-14 16,-25 0,-10 14,-38 30,-62 17,-25 30,-54 30,-66 0,-12 6,-21 15,-21 8,0 15,-9 15,-20 0,-11 5,-20 10,-20 6,0 10,-10 10,-21 0,-12 10,-32 23,-44 31,-30 49,-55 71,-98 11,-20 25,-37 32,-37 7,0 23,-13 36,-30 12,-16 29,-30 39,-30 9,0 31,-16 48,-35 17,-19 39,-35 48,-35 10,0 27,-6 38,-13 33,-21 122,-49 152,-47 15,1 33,1 38,0 28,-5 120,3 123,11 2,5 17,9 33,9 16,0 29,5 29,10 0,6 7,10 16,10 9,0 28,12 42,27 18,20 33,27 54,24 26,-2 29,0 26,21 -2,18 2,24 22,26 23,3 42,24 75,84 5,10 15,18 21,18 18,0 64,51 64,71 0,11 7,19 15,19 8,0 15,7 15,15 0,8 7,15 16,15 9,0 14,7 13,18 -3,22 34,103 55,121 9,7 16,20 16,27 0,8 9,23 19,33 11,11 23,37 27,58 4,21 13,43 21,48 7,6 16,28 20,50 7,46 28,73 37,50 3,-8 0,-20 -7,-27 -16,-17 -40,-96 -32,-108 3,-5 -1,-12 -9,-17 -15,-9 -56,-89 -56,-111 0,-7 -7,-20 -15,-28 -8,-9 -15,-24 -15,-35 0,-10 -4,-19 -10,-19 -5,0 -10,-7 -10,-15 0,-8 -5,-15 -11,-15 -5,0 -15,-13 -20,-30 -6,-16 -15,-30 -20,-30 -5,0 -9,-7 -9,-15 0,-9 -7,-18 -15,-21 -8,-4 -15,-14 -15,-23 0,-10 -18,-34 -40,-55 -22,-20 -40,-40 -40,-45 0,-4 -10,-13 -23,-20 -13,-7 -28,-26 -34,-42 -8,-21 -18,-29 -35,-29 -13,0 -35,-11 -50,-25 -15,-14 -39,-25 -53,-25 -14,0 -25,-4 -25,-9 0,-16 -74,-34 -180,-45 -14,-1 -31,-5 -37,-9 -6,-4 -13,-2 -15,4 -5,15 -58,0 -58,-17 0,-8 8,-18 18,-21 18,-7 51,-43 52,-55 0,-13 43,-58 54,-58 6,0 16,-10 21,-22 6,-13 20,-27 33,-33 12,-5 25,-18 28,-27 3,-10 9,-18 13,-18 14,0 61,-45 61,-58 0,-7 4,-12 10,-12 5,0 17,-9 27,-19 10,-10 27,-20 38,-23 12,-2 21,-13 23,-26 2,-12 10,-22 18,-22 8,0 14,-5 14,-10 0,-6 11,-15 25,-20 13,-5 27,-20 31,-34 5,-23 9,-24 28,-14 11,6 25,17 29,24 4,8 14,14 21,14 7,0 24,8 37,18 13,10 51,26 84,36 33,10 71,23 85,28 14,6 74,12 134,14 60,2 114,9 121,14 10,8 18,6 32,-8 10,-11 29,-22 43,-25 45,-9 155,-52 180,-70 13,-9 29,-17 35,-17 7,0 22,-12 36,-26 13,-14 43,-37 67,-51 23,-14 42,-30 42,-37 0,-6 19,-34 43,-61 70,-82 122,-203 136,-315 11,-88 -2,-285 -23,-351 -22,-66 -62,-147 -88,-175 -11,-12 -20,-29 -22,-37 -3,-21 -135,-140 -174,-156 -17,-7 -32,-17 -32,-21 0,-7 -88,-45 -180,-76 -70,-23 -253,-24 -353,0 -38,9 -72,14 -77,11 -4,-3 -10,2 -14,10 -3,8 -14,15 -24,15 -11,0 -25,7 -32,15 -7,8 -18,15 -25,15 -7,0 -38,20 -68,45 -31,25 -60,45 -64,45 -24,0 -116,126 -165,226 -44,88 -93,305 -77,336 5,9 9,32 9,51 0,19 11,77 25,128 14,52 27,100 28,106 2,7 16,26 31,42 l 28,29 -25,16 c -13,9 -27,30 -31,46 -3,17 -11,30 -17,30 -6,0 -55,44 -108,97 -56,57 -105,98 -117,98 -25,2 -58,25 -62,45 -4,18 -91,105 -114,113 -10,4 -18,16 -18,27 0,11 -4,20 -10,20 -5,0 -10,7 -10,15 0,8 -7,15 -15,15 -8,0 -15,7 -15,15 0,8 -5,15 -11,15 -6,0 -28,15 -48,33 -65,56 -91,77 -98,77 -12,0 -103,101 -103,116 0,8 -5,14 -11,14 -16,0 -89,72 -89,87 0,8 -11,18 -24,23 -13,5 -45,29 -71,54 -26,25 -50,46 -54,46 -15,0 -91,83 -91,100 0,6 -7,10 -15,10 -8,0 -15,7 -15,15 0,9 -8,19 -17,22 -23,8 -62,45 -63,58 -1,6 -23,28 -50,49 -28,22 -50,47 -50,56 0,10 -16,24 -42,35 -76,31 -88,38 -88,51 0,7 -13,24 -30,37 -16,14 -30,32 -30,41 0,8 -9,18 -20,21 -25,8 -80,65 -80,83 0,6 -3,12 -7,12 -5,0 -18,3 -30,6 -20,5 -23,2 -23,-20 0,-15 -7,-29 -15,-32 -9,-4 -15,-19 -15,-35 0,-16 -4,-29 -10,-29 -17,0 -60,-43 -60,-60 0,-9 -15,-30 -32,-46 -18,-17 -45,-45 -60,-62 -14,-18 -36,-32 -47,-32 -12,0 -21,-4 -21,-8 0,-5 -24,-14 -52,-22 -29,-7 -56,-18 -60,-23 -5,-9 -315,-12 -443,-5 -38,3 -80,-2 -93,-10 -7,-5 -17,-37 -23,-73 -6,-35 -16,-73 -23,-84 -7,-11 -17,-36 -21,-55 -4,-19 -11,-39 -15,-45 -5,-5 -13,-43 -18,-83 -6,-40 -15,-79 -20,-85 -5,-7 -17,-48 -26,-92 -9,-44 -21,-84 -26,-89 -6,-6 -10,-20 -10,-33 0,-21 -9,-50 -33,-100 -5,-12 -7,-30 -5,-41 3,-10 -3,-36 -14,-58 -12,-25 -16,-49 -12,-66 3,-18 1,-28 -6,-28 -6,0 -8,-4 -5,-10 3,-5 0,-10 -8,-10 -10,0 -17,-16 -21,-45 -4,-25 -12,-45 -18,-45 -5,0 -7,8 -4,17 14,35 27,107 22,120 -3,7 1,13 8,13 14,0 26,42 26,91 0,16 4,29 9,29 5,0 15,33 21,73 7,39 19,82 26,94 8,12 11,29 8,37 -3,8 1,25 10,38 9,12 16,38 16,56 0,18 7,41 16,49 11,11 15,29 12,55 -2,22 1,38 7,38 9,0 29,66 55,185 5,22 18,67 29,99 12,33 21,70 21,84 0,13 7,36 16,50 19,33 5,82 -24,82 -10,0 -22,4 -27,9 -6,6 -29,7 -52,4 -39,-5 -42,-8 -53,-49 -7,-25 -17,-47 -21,-50 -5,-3 -9,-18 -9,-35 0,-16 -4,-29 -10,-29 -5,0 -10,-7 -10,-15 0,-21 -38,-156 -66,-235 -13,-36 -30,-99 -39,-140 -26,-118 -28,-125 -35,-130 -7,-5 -29,-85 -50,-185 -5,-22 -13,-59 -18,-82 -5,-23 -17,-49 -26,-59 -12,-11 -15,-25 -11,-41 3,-15 0,-29 -9,-38 -23,-24 -31,17 -10,60 9,19 14,48 12,65 -3,20 0,30 9,30 7,0 13,11 13,25 0,14 4,25 8,25 5,0 15,33 22,73 7,39 18,79 26,88 8,8 15,39 16,67 1,32 7,52 14,52 11,0 24,49 25,95 0,11 3,22 7,25 9,6 48,123 58,170 3,19 11,41 16,47 6,7 8,20 4,28 -3,8 -2,15 3,15 5,0 12,21 16,48 4,26 13,61 20,77 7,17 16,47 20,68 3,22 12,37 20,37 7,0 15,4 17,9 5,13 88,25 88,12 0,-6 7,-8 15,-5 9,4 27,-7 46,-27 28,-30 30,-36 23,-86 -5,-41 -3,-53 7,-54 97,-7 223,-2 227,9 2,7 -5,12 -15,12 -10,0 -27,14 -36,30 -10,17 -24,30 -32,30 -7,0 -22,16 -34,35 -11,19 -25,35 -30,35 -6,0 -16,12 -23,27 -7,15 -23,32 -35,39 -13,6 -20,14 -16,17 3,4 1,7 -5,7 -7,0 -15,18 -18,39 -4,22 -13,42 -20,45 -8,3 -14,17 -14,31 0,14 -5,25 -10,25 -6,0 -9,3 -8,8 4,21 -31,122 -42,122 -5,0 -14,26 -20,58 -7,31 -15,64 -18,72 -3,8 -4,19 -3,23 1,5 -5,28 -14,53 -8,25 -15,71 -15,104 0,32 -4,61 -9,65 -5,3 -7,21 -4,40 3,19 2,35 -3,35 -10,0 -10,3 -13,160 -3,127 7,306 18,348 4,14 7,-84 7,-218 -1,-215 8,-412 19,-431 2,-3 9,-37 15,-74 6,-38 17,-83 25,-100 7,-16 16,-43 20,-60 3,-16 10,-48 15,-70 4,-22 13,-41 19,-43 6,-2 11,-17 11,-33 0,-16 5,-29 10,-29 6,0 10,-9 10,-20 0,-10 6,-23 13,-27 17,-10 57,-89 57,-112 0,-10 18,-34 40,-54 22,-19 40,-40 40,-46 0,-6 4,-11 10,-11 15,0 50,-33 50,-47 0,-7 6,-13 14,-13 8,0 23,-10 33,-23 18,-22 60,-39 140,-56 48,-10 183,-2 183,10 0,5 9,9 20,9 11,0 20,5 20,10 0,6 8,10 18,10 9,0 23,9 30,20 7,11 18,20 25,20 7,0 18,9 25,20 7,11 19,20 27,20 8,0 15,6 15,13 1,16 35,57 48,57 6,0 16,16 22,36 7,19 20,40 31,47 10,6 19,22 19,34 0,12 6,28 13,35 6,7 19,33 28,58 31,83 64,150 78,155 17,7 8,-47 -19,-109 -21,-51 -21,-51 59,-133 28,-29 51,-60 51,-68 0,-8 8,-15 17,-15 20,0 53,-28 53,-47 0,-7 6,-13 13,-13 7,0 27,-15 44,-32 37,-40 59,-58 70,-58 13,0 93,-84 93,-98 0,-7 4,-12 10,-12 15,0 60,-42 60,-57 0,-7 5,-13 11,-13 6,0 29,-19 52,-41 23,-23 52,-48 65,-56 12,-9 22,-22 22,-29 0,-8 8,-14 17,-14 18,0 93,-67 93,-83 0,-11 26,-37 37,-37 11,0 73,-76 73,-89 0,-6 6,-11 13,-11 17,0 117,-92 117,-107 0,-7 9,-13 20,-13 19,0 110,-84 110,-101 0,-4 14,-16 30,-26 17,-9 30,-21 30,-26 0,-9 163,-167 186,-180 8,-4 14,-14 14,-22 0,-8 12,-18 27,-21 35,-9 93,-62 93,-86 0,-10 11,-23 24,-28 14,-5 40,-29 58,-54 18,-25 37,-45 42,-46 5,0 23,-14 40,-30 141,-137 177,-156 234,-126 21,11 34,27 41,52 13,47 4,63 -72,134 -32,30 -63,65 -68,78 -5,12 -15,22 -24,22 -8,0 -15,7 -15,15 0,9 -8,19 -17,22 -10,4 -38,28 -64,55 -25,26 -50,48 -57,48 -15,0 -122,100 -122,114 0,7 -13,20 -30,29 -16,10 -30,22 -30,27 0,12 -45,60 -55,60 -5,0 -29,23 -54,50 -25,28 -55,52 -66,54 -11,2 -40,12 -65,21 -25,9 -56,18 -70,20 -13,2 -33,15 -43,29 -10,14 -27,26 -37,26 -33,0 -48,11 -43,31 3,10 0,19 -6,19 -23,0 -121,89 -121,110 0,10 -13,30 -30,43 -16,14 -30,33 -30,41 0,9 -14,28 -31,43 -18,17 -28,34 -26,45 3,9 -4,27 -14,39 -10,12 -19,25 -19,29 0,4 -34,43 -75,86 -41,44 -74,84 -75,91 0,6 -10,13 -22,15 -13,2 -29,18 -41,41 -10,20 -24,37 -30,37 -16,0 -57,41 -57,57 0,7 -5,13 -11,13 -6,0 -37,26 -68,58 -31,32 -68,63 -84,70 -15,6 -32,23 -37,37 -5,14 -17,28 -25,31 -8,4 -15,14 -15,23 1,14 2,14 14,-1 7,-10 25,-22 39,-27 15,-6 39,-28 54,-50 19,-27 41,-44 67,-53 28,-9 44,-23 55,-45 9,-18 21,-33 28,-33 6,0 21,-12 32,-26 11,-14 25,-23 31,-19 5,3 10,-3 10,-14 0,-11 13,-30 30,-43 16,-12 32,-29 35,-38 3,-9 17,-22 31,-29 25,-11 26,-11 19,21 -4,18 -11,37 -16,42 -5,6 -9,21 -9,35 0,15 -7,39 -16,56 -8,16 -18,49 -21,73 -3,24 -12,46 -20,49 -12,5 -12,7 -2,14 10,6 11,13 2,31 -19,38 -27,71 -24,106 1,18 -2,38 -7,45 -10,13 -20,76 -27,171 -3,41 -9,62 -22,71 -30,22 -211,30 -242,11 -6,-4 -11,-27 -11,-51 0,-25 -6,-50 -15,-59 -8,-8 -15,-24 -15,-36 0,-11 -6,-23 -14,-26 -8,-3 -16,-14 -19,-25 -3,-11 -15,-23 -26,-26 -12,-3 -21,-10 -21,-16 0,-16 41,-57 57,-57 7,0 13,-9 13,-20 0,-25 -28,-27 -37,-2 -4,9 -14,24 -23,32 -8,8 -20,26 -26,39 -15,34 -91,53 -159,38 -28,-5 -62,-7 -76,-4 -47,12 -91,50 -105,92 -7,22 -21,45 -31,52 -9,7 -18,20 -19,29 -2,9 -8,29 -14,44 -11,27 -12,27 -105,25 -93,-2 -95,-2 -135,-39 -22,-20 -49,-36 -59,-36 -11,0 -27,-7 -36,-16 -9,-9 -31,-20 -48,-23 -23,-5 -33,-13 -35,-29 -3,-22 -34,-30 -58,-14 -15,9 -34,78 -34,124 0,29 6,41 24,53 23,15 26,15 45,-4 12,-12 30,-21 41,-21 27,0 70,29 70,46 0,8 7,17 15,20 19,8 20,48 1,66 -7,8 -17,39 -21,69 -4,30 -10,58 -13,63 -5,9 -4,53 3,156 7,104 19,167 36,192 11,14 19,30 19,34 0,4 7,16 17,26 21,24 113,26 113,3 0,-10 -11,-15 -35,-15 -33,0 -75,-30 -75,-54 0,-5 -6,-17 -14,-25 -19,-22 -46,-133 -46,-189 0,-79 35,-272 48,-272 11,0 42,60 42,79 0,9 6,25 14,36 16,25 36,171 37,278 0,15 4,27 9,27 6,0 10,13 10,29 0,17 5,33 10,36 6,3 10,14 10,23 0,10 11,34 25,54 14,20 25,44 25,52 0,23 41,62 84,80 43,18 172,22 178,6 2,-7 28,-4 71,6 63,16 71,16 102,1 31,-15 33,-15 38,4 3,10 -3,37 -14,59 -10,21 -19,49 -19,62 0,13 -7,36 -15,52 -8,15 -15,40 -15,55 0,14 -7,39 -15,55 -17,32 -20,70 -5,61 6,-3 10,-14 10,-24 0,-10 11,-29 24,-42 15,-16 27,-42 32,-74 4,-27 13,-65 21,-84 8,-18 15,-68 16,-110 1,-76 15,-111 44,-111 7,0 13,-6 13,-14 0,-24 17,-28 124,-33 55,-2 124,-5 153,-7 64,-4 69,5 78,128 3,50 11,98 16,107 5,10 9,31 9,48 0,16 5,33 11,37 6,3 9,22 7,43 -5,37 -4,42 26,99 13,24 15,36 7,46 -8,10 -7,17 4,26 8,6 17,28 21,49 4,20 10,38 15,41 4,3 9,25 12,50 3,32 9,46 20,48 10,2 17,13 17,28 0,13 4,24 8,24 5,0 20,27 33,60 13,33 27,60 31,60 3,0 10,15 14,32 3,18 15,39 25,46 11,7 30,38 44,68 14,29 29,54 35,54 5,0 10,8 10,18 0,19 80,102 99,102 6,0 11,11 11,25 0,18 4,23 16,18 8,-3 25,4 37,15 23,22 83,51 105,52 9,0 12,-12 10,-37 z M 2393,7995 c 66,-65 114,-105 126,-105 12,0 21,-5 21,-11 0,-6 20,-30 45,-55 25,-24 45,-48 45,-53 0,-6 11,-13 25,-17 14,-3 25,-9 25,-14 0,-4 16,-24 36,-46 19,-21 43,-47 51,-56 9,-10 14,-21 10,-24 -3,-3 -20,9 -37,27 -70,77 -94,99 -105,99 -7,0 -16,11 -19,25 -4,14 -13,25 -21,25 -7,0 -16,9 -20,20 -3,10 -23,29 -43,42 -20,12 -83,69 -140,125 -56,57 -107,103 -112,103 -6,0 -10,5 -10,10 0,22 22,5 123,-95 z m 352,25 c 65,-65 42,-65 -26,0 -29,28 -46,50 -38,50 8,0 36,-23 64,-50 z m 3634,-110 c -4,-9 -11,-53 -15,-99 -4,-55 -10,-78 -15,-68 -8,13 -7,48 4,217 1,19 7,38 12,42 12,9 24,-70 14,-92 z m -3502,9 c 10,-16 24,-29 31,-29 8,0 16,-9 19,-20 3,-11 12,-20 19,-20 8,0 14,-7 14,-16 0,-9 23,-38 52,-65 28,-27 48,-52 44,-56 -4,-5 -13,0 -20,10 -7,9 -18,17 -25,17 -6,0 -11,6 -11,13 0,13 -84,97 -97,97 -4,0 -19,12 -32,25 -13,14 -27,25 -31,25 -5,0 -15,13 -23,28 -13,28 -13,28 15,24 18,-3 34,-15 45,-33 z m 3648,-36 c -4,-16 -9,-48 -11,-73 -6,-69 -14,-100 -29,-100 -18,0 -27,52 -11,65 7,6 19,38 26,73 8,34 18,62 23,62 5,0 6,-12 2,-27 z m -575,-35 c 0,-32 27,-98 40,-98 4,0 7,-24 6,-52 0,-29 3,-66 7,-81 5,-19 4,-27 -3,-22 -5,3 -13,24 -16,46 -4,21 -10,39 -14,39 -12,0 -22,41 -20,80 1,23 -6,44 -19,59 -30,35 -27,76 5,64 8,-3 14,-19 14,-35 z m -2301,-57 c 10,-6 10,-10 1,-16 -6,-4 -14,-4 -17,-1 -4,3 -15,-2 -26,-11 -10,-10 -22,-17 -26,-17 -18,4 -101,-46 -140,-83 -24,-24 -49,-43 -55,-43 -6,1 4,13 22,29 17,15 32,31 32,35 0,12 23,30 63,48 20,10 37,22 37,28 0,5 13,10 29,10 16,0 31,6 35,15 6,17 24,19 45,6 z m 3023,-29 c -7,-2 -12,-13 -12,-25 0,-12 -7,-35 -15,-51 -8,-15 -15,-37 -15,-47 0,-11 -4,-19 -10,-19 -5,0 -10,-11 -10,-25 0,-14 -4,-25 -9,-25 -5,0 -11,-22 -15,-50 -4,-27 -8,-50 -11,-50 -2,0 -10,-3 -18,-6 -12,-4 -13,2 -4,40 6,25 14,46 19,46 4,0 8,14 8,30 0,17 5,30 10,30 6,0 10,9 10,19 0,11 5,21 11,23 5,2 13,22 16,46 3,23 10,42 14,42 5,0 9,9 9,20 0,14 5,18 17,13 11,-4 12,-8 5,-11 z m -842,-53 c 0,-11 5,-19 10,-19 6,0 10,-8 10,-18 0,-17 17,-60 41,-104 6,-13 5,-18 -4,-18 -12,0 -67,109 -67,134 0,8 -4,18 -10,21 -5,3 -10,15 -10,27 0,17 2,18 15,8 8,-7 15,-21 15,-31 z m -2703,-59 c 12,-14 22,-29 22,-35 0,-5 -4,-2 -10,8 -5,9 -15,17 -22,17 -7,0 -20,14 -30,32 -17,30 -17,31 0,17 10,-7 28,-25 40,-39 z m 1523,-49 c 0,-10 15,-31 33,-47 41,-37 62,-70 70,-111 7,-37 -2,-42 -23,-13 -8,11 -20,20 -26,20 -6,0 -9,10 -7,23 3,15 -9,43 -36,82 -44,65 -49,77 -26,69 8,-4 15,-14 15,-23 z m 1082,-11 c -3,-23 0,-30 12,-30 10,0 16,-9 16,-25 0,-15 6,-25 14,-25 8,0 17,-15 21,-36 7,-40 1,-57 -10,-25 -3,12 -13,21 -21,21 -8,0 -14,10 -14,26 0,14 -7,32 -15,40 -8,9 -15,24 -15,34 0,10 -5,22 -10,25 -13,8 -3,25 14,25 8,0 11,-10 8,-30 z m -2871,-20 c 11,0 19,-5 19,-11 0,-11 7,-19 114,-128 32,-34 54,-61 47,-61 -6,0 -30,19 -52,43 -22,23 -56,59 -76,80 -19,20 -41,37 -47,37 -7,0 -28,19 -47,43 -33,40 -33,41 -5,20 16,-13 37,-23 47,-23 z m 329,19 c 0,-5 11,-14 25,-19 14,-5 25,-16 25,-25 0,-8 4,-15 9,-15 5,0 31,-22 58,-49 26,-27 57,-51 67,-52 10,-2 24,-13 30,-24 17,-30 31,-43 52,-47 13,-2 18,-10 16,-26 -2,-14 2,-22 12,-22 18,0 39,-60 31,-91 -3,-13 -15,-35 -26,-49 l -21,-25 7,25 c 4,14 9,49 11,78 4,50 3,52 -21,52 -18,0 -26,7 -31,25 -3,14 -12,25 -20,25 -8,0 -14,7 -14,15 0,8 -7,15 -15,15 -9,0 -18,8 -22,18 -9,25 -70,82 -88,82 -8,0 -15,6 -15,14 0,8 -13,19 -30,25 -19,6 -30,17 -30,29 0,11 -9,22 -20,25 -11,3 -20,12 -20,21 0,10 6,13 15,10 8,-4 15,-10 15,-15 z m 170,-28 c 0,-10 -7,-22 -16,-25 -25,-10 -28,0 -7,22 23,26 23,26 23,3 z m 3418,2 c -2,-5 -10,-25 -18,-45 -8,-21 -18,-38 -22,-38 -4,0 -8,-9 -8,-20 0,-12 -7,-35 -16,-52 l -16,-32 -15,28 c -14,26 -13,30 6,47 12,11 21,26 21,35 0,8 7,17 15,20 8,4 15,12 15,20 0,8 5,14 10,14 6,0 10,7 10,15 0,8 5,15 11,15 6,0 9,-3 7,-7 z m -339,-102 c 23,-18 24,-20 11,-65 -11,-40 -10,-49 4,-70 9,-14 25,-30 36,-36 12,-6 20,-21 20,-35 0,-20 -5,-25 -27,-25 -14,0 -34,7 -44,16 -17,15 -18,15 -23,-7 -3,-13 -7,-35 -8,-49 -2,-19 -9,-25 -28,-25 -23,0 -25,4 -24,45 0,25 4,53 8,62 6,13 3,20 -10,25 -41,15 -84,56 -84,79 0,28 10,30 51,8 38,-19 64,-4 54,33 -3,13 -1,23 5,23 5,0 10,9 10,20 0,25 18,25 49,1 z m -4526,-56 c 4,-8 2,-17 -3,-20 -6,-4 -10,-17 -10,-30 0,-13 -5,-27 -11,-30 -6,-4 -8,-13 -5,-20 2,-7 -4,-21 -14,-30 -10,-9 -22,-30 -25,-46 -4,-16 -11,-29 -16,-29 -5,0 -12,-12 -15,-27 -4,-16 -26,-69 -50,-119 -24,-51 -44,-99 -44,-108 0,-30 46,-35 287,-34 455,2 809,-4 824,-13 9,-7 -27,-9 -106,-8 -66,1 -262,1 -435,1 -173,-1 -377,1 -453,3 l -137,4 -21,-44 c -12,-25 -26,-45 -33,-46 -78,-6 -157,-11 -291,-15 -88,-3 -170,-7 -182,-10 -31,-6 -38,-38 -37,-169 1,-120 18,-211 46,-236 10,-9 18,-24 18,-33 0,-9 8,-16 20,-16 11,0 20,-4 20,-10 0,-6 33,-10 79,-10 44,0 83,-4 86,-10 10,-16 -187,-4 -200,12 -5,8 -18,17 -27,21 -10,3 -18,15 -18,26 0,11 -4,22 -9,25 -5,3 -11,20 -14,38 -3,18 -10,51 -16,73 -16,60 -14,229 3,270 16,37 16,37 86,40 60,2 160,14 182,21 10,3 18,0 18,-6 0,-12 123,-3 128,9 1,4 19,5 41,3 34,-3 40,-1 57,30 11,18 26,49 33,68 25,66 29,75 66,155 21,44 41,89 46,100 16,44 19,51 28,65 24,40 49,116 40,125 -6,5 -13,5 -21,-3 -7,-7 -22,-12 -35,-12 -13,0 -23,-4 -23,-9 0,-5 -18,-12 -39,-16 -22,-4 -42,-13 -45,-21 -3,-8 -19,-14 -41,-14 -22,0 -38,-6 -41,-15 -3,-8 -26,-17 -50,-21 -24,-3 -47,-10 -50,-15 -3,-5 -14,-9 -25,-9 -11,0 -22,-7 -25,-15 -4,-8 -16,-15 -28,-15 -12,0 -26,-4 -32,-8 -5,-5 -29,-15 -54,-22 -25,-8 -49,-17 -55,-21 -5,-4 -64,-25 -130,-48 -66,-23 -124,-47 -130,-55 -5,-7 -16,-11 -23,-8 -15,5 -56,-13 -84,-36 -10,-8 -26,-12 -38,-9 -11,3 -20,1 -20,-4 0,-5 -9,-9 -19,-9 -11,0 -23,-4 -26,-10 -3,-5 -15,-10 -25,-10 -10,0 -23,-6 -27,-13 -4,-8 -24,-17 -43,-21 l -34,-6 22,20 c 11,11 26,20 31,20 6,0 26,9 46,20 20,11 44,20 54,20 10,0 24,6 30,14 6,7 38,19 70,25 32,6 68,20 80,30 12,11 30,17 41,14 11,-3 20,0 20,6 0,6 9,11 21,11 11,0 33,6 47,14 56,30 138,59 160,58 12,-1 25,5 28,13 4,8 14,15 23,15 9,0 39,12 66,25 28,14 58,25 68,25 9,0 17,4 17,9 0,5 18,11 39,15 22,3 46,13 55,21 8,8 24,15 35,15 12,0 21,5 21,10 0,6 13,10 29,10 16,0 34,7 41,15 7,8 19,15 26,15 8,0 14,5 14,10 0,6 10,10 23,11 12,0 38,6 57,13 47,18 57,18 63,1 z m 3767,0 c 0,-8 5,-15 10,-15 6,0 10,-7 10,-15 0,-8 7,-15 15,-15 8,0 15,-8 15,-18 0,-10 5,-23 12,-30 7,-7 8,-12 2,-12 -6,0 -23,18 -40,39 -16,22 -37,42 -46,44 -25,7 -23,37 2,37 11,0 20,-7 20,-15 z m 1154,-49 c -15,-60 -30,-92 -42,-88 -7,2 -20,-2 -28,-9 -13,-11 -14,-9 -8,17 4,16 13,36 20,45 8,8 14,21 14,27 0,11 27,31 43,32 4,0 5,-11 1,-24 z m -3739,-26 c 8,0 15,-4 15,-10 0,-5 14,-16 30,-25 17,-9 30,-22 30,-30 0,-7 9,-17 20,-20 11,-3 20,-10 20,-15 0,-5 10,-10 22,-12 13,-2 24,-11 27,-23 4,-23 29,-44 52,-45 9,0 19,-9 22,-20 6,-24 40,-26 77,-5 43,25 59,12 18,-15 -24,-15 -98,-21 -98,-8 0,5 -7,8 -15,8 -8,0 -15,4 -15,8 0,5 -20,23 -45,42 -25,19 -45,39 -45,45 0,13 -42,35 -65,35 -8,0 -17,11 -21,25 -4,18 -13,25 -29,25 -18,0 -22,4 -18,19 3,10 0,22 -6,25 -6,4 -11,13 -11,19 0,7 5,4 11,-5 5,-10 17,-18 24,-18 z m 2535,-100 c 11,-11 20,-24 20,-30 0,-5 4,-10 10,-10 17,0 51,-43 41,-53 -10,-10 -41,13 -41,30 0,4 -16,22 -35,38 -19,17 -35,33 -35,38 0,13 20,7 40,-13 z m 1254,-12 c -10,-13 -21,-25 -24,-28 -3,-3 -10,-14 -16,-24 -5,-11 -20,-26 -32,-34 -21,-14 -22,-13 -22,11 0,24 54,77 79,77 6,0 11,5 11,10 0,6 5,10 12,10 6,0 3,-10 -8,-22 z m -938,-51 c -4,-23 -11,-44 -16,-47 -5,-3 -16,-22 -25,-43 -8,-20 -19,-37 -23,-37 -5,0 -16,-16 -25,-35 -18,-37 -53,-48 -63,-20 -7,17 14,85 26,85 5,0 12,10 17,23 4,12 23,48 42,79 30,49 37,55 54,46 16,-8 18,-17 13,-51 z m -2766,5 c 0,-4 -11,-52 -25,-107 -13,-55 -27,-145 -30,-200 -3,-55 -10,-123 -16,-150 -6,-28 -9,-78 -8,-113 2,-34 1,-62 -3,-62 -10,0 -14,125 -6,195 4,33 12,103 17,155 6,52 15,109 20,127 5,18 12,61 16,97 5,46 12,66 21,66 8,0 14,-3 14,-8 z m 2400,-133 c 0,-5 9,-9 20,-9 10,0 32,-16 47,-35 15,-19 34,-35 41,-35 6,0 12,-7 12,-15 0,-8 -7,-15 -15,-15 -8,0 -15,4 -15,9 0,9 -60,37 -72,33 -5,-1 -8,4 -8,12 0,7 -13,19 -30,26 -38,16 -42,50 -5,42 14,-2 25,-8 25,-13 z M 2989,6901 c 41,-1 71,-4 68,-8 -12,-11 -179,-5 -191,7 -8,8 -4,10 19,6 17,-2 63,-5 104,-5 z m 2565,-46 c 3,-8 13,-15 23,-15 21,0 50,-17 42,-24 -3,-3 -30,3 -60,14 -29,11 -55,20 -56,20 -2,0 -3,5 -3,10 0,16 47,12 54,-5 z m 48,-176 c 29,-16 19,-19 -45,-12 -41,4 -57,10 -57,21 0,12 8,13 41,8 23,-4 50,-11 61,-17 z m -4,-136 c 3,-9 -12,-13 -52,-13 -52,0 -73,11 -43,24 22,9 90,1 95,-11 z M 3109,6418 c 1,-55 7,-110 12,-120 6,-11 9,-29 8,-41 -1,-12 1,-38 6,-57 4,-19 7,-47 7,-62 0,-16 3,-28 8,-28 4,0 10,-11 13,-25 3,-20 1,-25 -12,-23 -12,2 -18,21 -25,68 -4,36 -13,68 -18,71 -5,3 -11,59 -14,124 -3,65 -6,120 -7,124 -2,8 12,71 16,71 2,0 4,-46 6,-102 z M 660,6390 c 0,-5 7,-10 15,-10 8,0 15,-4 15,-9 0,-5 18,-12 40,-16 22,-4 42,-10 45,-15 3,-5 24,-11 48,-15 23,-4 53,-16 66,-26 28,-22 6,-26 -23,-4 -11,8 -29,15 -40,15 -12,0 -34,7 -50,15 -16,9 -36,13 -43,11 -7,-3 -13,-1 -13,4 0,6 -9,10 -19,10 -11,0 -26,7 -35,15 -8,8 -21,15 -28,15 -7,0 -20,5 -28,10 -11,7 -7,10 18,10 17,0 32,-4 32,-10 z m 4948,-9 c -7,-11 -15,-18 -18,-16 -3,2 -23,0 -43,-5 -21,-4 -39,-4 -43,1 -7,11 53,37 89,38 24,1 26,-1 15,-18 z m -3923,-80 c 50,0 97,4 104,9 9,5 22,5 33,-1 16,-8 70,-11 148,-8 8,0 33,-2 55,-6 36,-6 137,-10 359,-14 116,-2 86,-12 -38,-13 -72,0 -106,-4 -106,-12 0,-8 -2,-8 -8,1 -10,16 -282,15 -282,-1 0,-8 -2,-8 -8,1 -8,12 -126,22 -137,11 -11,-10 4,-46 31,-75 13,-14 24,-34 24,-44 0,-11 5,-19 10,-19 6,0 10,-5 10,-11 0,-6 13,-23 29,-38 17,-16 33,-41 37,-57 4,-16 18,-37 31,-47 13,-10 23,-29 23,-43 0,-14 6,-24 15,-24 16,0 32,-26 45,-71 11,-38 3,-41 -44,-18 -22,10 -46,19 -53,19 -7,0 -13,4 -13,9 0,5 -18,11 -40,15 -22,3 -40,10 -40,15 0,5 -15,13 -32,16 -18,4 -65,23 -105,41 -39,19 -78,34 -87,34 -9,0 -16,5 -16,11 0,6 -9,9 -20,6 -11,-3 -20,-2 -20,2 0,4 -19,15 -42,25 -24,10 -52,21 -63,26 -24,10 -68,20 -76,17 -4,-1 -16,7 -28,17 -12,11 -36,20 -55,21 -19,1 -44,12 -57,24 -13,12 -32,20 -41,18 -9,-3 -19,1 -22,9 -3,8 -13,14 -23,14 -10,0 -31,7 -47,15 -15,8 -37,15 -47,15 -11,0 -19,5 -19,10 0,6 -9,10 -20,10 -11,0 -20,5 -20,11 0,16 42,4 117,-32 35,-16 76,-32 93,-36 17,-3 33,-10 36,-14 3,-5 16,-9 30,-9 13,0 24,-4 24,-10 0,-5 12,-13 28,-16 15,-4 37,-14 49,-22 13,-8 41,-18 62,-23 35,-8 120,-42 172,-69 9,-5 33,-12 54,-16 20,-3 39,-13 42,-20 3,-8 18,-14 34,-14 16,0 29,-4 29,-10 0,-5 9,-10 20,-10 11,0 20,-4 20,-10 0,-5 16,-10 35,-10 19,0 35,-3 35,-7 0,-9 49,-33 67,-33 7,0 13,11 13,25 0,14 -4,25 -9,25 -18,0 -41,32 -41,56 0,13 -5,24 -12,24 -22,0 -48,33 -48,61 0,25 -32,69 -57,80 -4,2 -19,24 -32,49 -13,25 -37,57 -53,73 -30,29 -24,28 -206,31 -97,2 -110,17 -20,24 35,2 65,6 67,8 3,2 7,0 10,-5 4,-5 47,-10 96,-10 z m -685,-57 c 14,-15 13,-16 -10,-10 -14,4 -35,10 -47,13 -13,3 -23,11 -23,18 0,18 58,2 80,-21 z m 1620,24 c 0,-11 -108,-10 -114,0 -3,5 22,8 55,8 32,-1 59,-4 59,-8 z m 100,2 c 11,-7 3,-10 -30,-10 -33,0 -41,3 -30,10 8,5 22,10 30,10 8,0 22,-5 30,-10 z m 278,-6 c 34,-3 62,-10 62,-15 0,-6 -4,-8 -9,-5 -4,3 -64,8 -132,11 -68,3 -133,5 -144,6 -16,1 -15,2 5,8 25,7 102,6 218,-5 z m 176,-280 c 5,-41 22,-89 47,-136 5,-10 9,-25 9,-33 0,-8 5,-15 10,-15 6,0 10,-12 10,-27 0,-16 7,-37 15,-47 8,-11 15,-27 15,-37 0,-9 7,-19 15,-23 8,-3 15,-14 15,-25 0,-11 8,-25 18,-30 10,-5 27,-30 37,-55 10,-25 28,-49 42,-55 13,-6 23,-17 23,-24 0,-8 11,-19 25,-25 14,-6 25,-16 25,-22 0,-5 6,-10 14,-10 8,0 24,-11 37,-25 13,-13 32,-25 42,-25 9,0 17,-4 17,-10 0,-14 -51,8 -74,32 -14,15 -26,18 -47,14 -24,-5 -29,-2 -29,15 0,12 -12,27 -29,37 -17,9 -32,28 -35,43 -3,15 -12,34 -21,42 -8,9 -15,20 -15,26 0,6 -6,11 -14,11 -7,0 -16,13 -19,29 -3,16 -13,36 -22,44 -8,9 -15,25 -15,37 0,11 -13,33 -28,49 -21,20 -30,40 -34,75 -3,26 -12,55 -20,64 -9,9 -18,40 -21,67 -3,28 -9,58 -12,68 -4,9 -3,17 3,17 5,0 12,-21 16,-46 z m 3596,-151 c 0,-16 2,-37 4,-48 2,-11 1,-14 -1,-7 -7,18 -61,44 -68,32 -3,-6 -17,-10 -29,-10 -27,0 -41,-33 -25,-62 15,-28 37,-22 52,15 13,30 14,31 24,12 15,-29 23,-95 12,-95 -5,0 -9,5 -9,10 0,20 -48,11 -55,-10 -9,-29 4,-78 22,-89 24,-13 9,-38 -33,-56 -55,-23 -59,-20 -62,38 -4,85 -22,157 -42,169 -10,6 -16,18 -13,25 7,17 95,63 122,63 10,0 29,9 42,20 35,29 59,26 59,-7 z m 55,-153 c 3,-5 1,-10 -4,-10 -6,0 -11,-13 -11,-29 0,-23 -7,-33 -32,-45 -38,-20 -38,-20 -38,-1 0,8 7,15 15,15 8,0 15,7 15,15 0,8 7,15 16,15 9,0 14,8 13,18 -3,33 12,45 26,22 z m -383,-38 c -1,-18 -10,-45 -19,-59 -17,-25 -17,-26 25,-62 31,-26 42,-43 42,-63 0,-36 -21,-36 -64,-3 -28,22 -35,23 -45,11 -7,-8 -13,-25 -13,-38 -1,-13 -6,-29 -11,-35 -13,-18 -67,-17 -67,1 0,8 -2,21 -5,28 -3,8 3,25 15,38 29,33 25,62 -10,82 -21,12 -30,25 -30,42 0,13 -6,27 -12,29 -7,3 -1,6 13,6 14,1 34,-6 45,-14 31,-23 45,-18 61,25 15,38 32,50 63,46 11,-1 14,-12 12,-34 z m -259,-74 c 2,-7 0,-29 -5,-48 -5,-19 -9,-46 -9,-59 1,-13 -4,-30 -10,-37 -6,-7 -9,-28 -8,-46 3,-37 -9,-106 -21,-113 -4,-2 -26,15 -50,38 -24,23 -66,58 -93,77 -62,44 -76,64 -60,88 6,9 16,16 22,14 11,-2 157,72 176,89 14,13 53,11 58,-3 z M 3365,4363 c -15,-37 -35,-147 -30,-165 4,-10 2,-18 -3,-18 -12,0 -32,-54 -32,-86 0,-13 -4,-24 -10,-24 -5,0 -10,-11 -10,-24 0,-13 -9,-43 -20,-68 -10,-24 -22,-63 -26,-86 -4,-23 -11,-45 -17,-49 -18,-11 26,176 58,244 8,17 15,49 15,70 0,22 11,61 24,89 14,27 26,65 27,84 3,42 7,50 21,50 6,0 7,-7 3,-17 z m 174,-156 c -5,-17 -13,-41 -18,-52 -5,-11 -17,-57 -27,-102 -13,-62 -21,-83 -33,-83 -10,0 -12,3 -5,8 6,4 14,23 17,42 3,19 15,71 27,115 15,55 18,81 10,83 -7,3 -4,9 7,17 25,19 33,10 22,-28 z m -83,-289 c -3,-13 -11,-48 -18,-78 -7,-30 -13,-59 -13,-65 0,-5 -5,-14 -11,-20 -18,-16 -38,-109 -24,-113 7,-3 3,-10 -9,-19 -12,-8 -21,-21 -21,-29 0,-8 -4,-12 -10,-9 -6,4 -4,19 5,42 8,19 15,46 15,59 0,13 4,24 9,24 13,0 33,144 20,148 -14,5 10,32 28,32 8,0 13,8 12,18 -2,26 0,32 11,32 6,0 8,-10 6,-22 z m -254,-147 c -6,-3 -13,-27 -17,-53 -4,-27 -11,-48 -15,-48 -8,0 -31,-91 -33,-132 -1,-16 -5,-28 -9,-28 -5,0 -8,-8 -8,-19 0,-10 -7,-31 -15,-47 -7,-15 -17,-52 -21,-81 -3,-29 -10,-53 -14,-53 -5,0 -12,-15 -15,-32 -4,-18 -11,-37 -15,-43 -4,-5 -15,-47 -25,-92 -11,-46 -22,-83 -26,-83 -3,0 -2,21 3,48 6,26 11,56 12,67 0,11 4,22 8,25 3,3 8,21 10,40 1,19 9,41 16,49 8,8 12,25 9,38 -2,13 1,23 7,23 12,0 49,121 67,219 5,29 14,62 19,72 6,9 11,34 12,53 2,20 9,38 16,41 7,2 12,22 12,44 0,22 5,41 13,44 15,5 23,-43 9,-52 z m 148,-245 c 0,-27 -15,-42 -25,-26 -8,13 3,50 16,50 5,0 9,-11 9,-24 z m -47,-169 c -7,-4 -13,-21 -13,-37 0,-16 -5,-32 -11,-36 -6,-3 -8,-15 -6,-26 3,-11 0,-21 -8,-24 -7,-3 -16,-30 -20,-61 -4,-31 -12,-66 -17,-77 -28,-54 -29,-58 -18,-71 8,-10 7,-15 -4,-22 -16,-9 -50,-148 -40,-164 3,-5 -2,-9 -12,-9 -13,0 -15,-7 -12,-35 2,-19 1,-35 -3,-35 -7,0 -33,-79 -84,-256 -8,-28 -15,-63 -15,-77 0,-15 -4,-27 -9,-27 -5,0 -17,-40 -27,-90 -10,-49 -22,-90 -26,-90 -4,0 -8,-15 -8,-34 0,-19 -4,-37 -9,-41 -5,-3 -15,-31 -22,-63 -6,-31 -17,-70 -24,-87 -7,-16 -16,-51 -20,-77 -4,-27 -11,-48 -16,-48 -5,0 -9,-15 -9,-34 0,-19 -5,-36 -11,-38 -9,-3 -9,-10 0,-26 10,-18 9,-22 -4,-22 -31,0 -14,-28 30,-50 17,-8 38,-21 48,-29 9,-8 25,-15 35,-16 20,-1 182,-159 182,-177 0,-7 16,-24 34,-38 19,-14 32,-28 30,-32 -3,-4 6,-27 19,-50 13,-24 30,-63 36,-88 7,-25 17,-52 21,-61 5,-9 14,-58 21,-110 15,-115 1,-274 -32,-359 -30,-79 -76,-168 -100,-193 -12,-12 -24,-30 -27,-39 -11,-26 -112,-128 -127,-128 -8,0 -29,-13 -47,-29 -18,-15 -44,-32 -58,-36 -14,-4 -32,-13 -40,-20 -45,-36 -156,-57 -330,-62 -129,-4 -151,-2 -205,18 -33,11 -64,25 -70,30 -5,5 -17,9 -27,9 -10,0 -18,5 -18,11 0,7 -10,9 -24,7 -18,-4 -27,1 -36,17 -6,12 -26,27 -45,34 -57,20 -207,186 -246,271 -73,158 -68,144 -84,256 -24,166 7,361 75,474 9,14 20,33 25,42 6,9 29,44 53,78 23,33 42,63 42,66 0,9 55,53 67,54 12,0 29,13 78,60 12,11 30,20 42,20 12,0 26,7 31,15 4,9 19,17 33,20 13,3 29,11 34,18 6,8 15,12 21,10 7,-2 18,3 26,11 9,8 20,11 28,6 7,-5 23,-5 34,0 26,9 154,25 180,22 11,-1 30,9 43,24 l 23,27 6,-32 c 5,-21 12,-31 25,-31 19,0 124,-26 137,-34 18,-11 31,12 35,59 3,27 10,51 16,53 6,2 11,15 11,28 0,13 4,24 8,24 4,0 16,37 26,83 10,45 22,87 26,92 4,6 11,36 14,68 4,31 12,57 17,57 5,0 9,13 9,29 0,17 4,32 9,35 5,3 12,27 16,53 4,27 11,53 17,60 5,6 10,34 11,62 1,28 7,51 12,51 6,0 17,21 24,48 7,26 19,63 26,82 7,19 16,55 20,80 4,25 11,47 16,50 5,3 10,21 11,40 2,19 7,38 12,42 5,3 10,26 10,50 1,23 7,47 14,51 6,4 12,28 12,52 0,25 4,45 9,45 4,0 15,24 24,53 50,162 70,237 74,277 6,53 25,72 33,32 4,-16 1,-30 -7,-35 z m -309,-359 c 8,-6 8,-8 -1,-8 -14,0 -39,-51 -47,-95 -11,-67 -26,-129 -34,-139 -13,-18 -33,-88 -36,-131 -2,-22 -9,-40 -15,-40 -6,0 -11,5 -12,10 -2,19 34,160 42,170 5,5 9,18 9,29 0,11 6,38 14,61 8,22 25,75 38,119 15,53 24,71 27,55 1,-13 8,-27 15,-31 z m -148,-454 c -3,-9 -6,-20 -6,-26 0,-5 -7,-2 -17,7 -14,14 -14,18 -2,26 21,13 32,11 25,-7 z m -40,-134 c -11,-47 -24,-86 -28,-88 -5,-2 -8,-23 -8,-47 0,-27 -5,-45 -14,-48 -8,-3 -14,-20 -14,-42 0,-19 -4,-41 -10,-48 -5,-6 -17,-46 -27,-87 -10,-41 -21,-79 -25,-85 -4,-5 -13,-36 -20,-67 -7,-32 -17,-58 -22,-58 -12,0 -10,34 6,66 8,16 20,59 27,97 7,37 16,67 19,67 4,0 15,35 25,78 10,42 21,82 25,87 9,11 24,102 19,109 -2,2 4,13 13,23 10,11 21,42 24,69 6,40 21,71 30,61 1,-1 -8,-40 -20,-87 z"
       id="path8" />
    <path
       inkscape:connector-curvature="0"
       d="m 5820,12555 0,-54 -57,-3 c -77,-4 -86,-28 -10,-28 61,0 67,-7 67,-83 0,-23 4,-36 10,-32 6,3 10,28 10,55 l 0,49 52,3 c 71,4 76,26 6,30 l -53,3 -3,58 c -4,73 -22,75 -22,2 z"
       id="path10" />
    <path
       inkscape:connector-curvature="0"
       d="m 5460,12417 c 0,-14 -3,-39 -6,-56 -6,-30 -8,-31 -60,-31 -52,0 -71,-12 -38,-24 9,-3 33,-6 55,-6 l 39,0 0,-55 c 0,-70 18,-72 22,-2 l 3,52 58,3 c 31,2 57,7 57,11 0,11 -36,21 -77,21 -33,0 -33,0 -33,49 0,28 -4,53 -10,56 -6,3 -10,-4 -10,-18 z"
       id="path12" />
    <path
       inkscape:connector-curvature="0"
       d="m 5278,11988 -3,-53 -53,-3 c -68,-4 -65,-25 4,-32 l 49,-5 3,-52 c 2,-29 7,-53 12,-53 5,0 10,24 12,53 l 3,52 45,3 c 25,1 52,5 60,8 24,8 -8,22 -57,25 -37,3 -42,6 -47,32 -3,16 -6,40 -6,53 0,48 -19,23 -22,-28 z"
       id="path14" />
    <path
       inkscape:connector-curvature="0"
       d="m 5800,11885 c 0,-39 -4,-55 -12,-54 -46,6 -98,-2 -98,-15 0,-11 15,-16 53,-18 l 52,-3 3,-57 c 2,-32 7,-58 12,-58 5,0 10,26 12,58 l 3,57 54,1 c 65,1 86,24 22,24 -22,0 -43,5 -46,10 -4,6 -11,8 -16,4 -5,-3 -9,-2 -8,3 5,18 -14,103 -22,103 -5,0 -9,-25 -9,-55 z"
       id="path16" />
    <path
       inkscape:connector-curvature="0"
       d="m 1316,9878 c -3,-13 -6,-40 -6,-60 l 0,-37 -52,-3 c -73,-4 -77,-28 -5,-28 61,0 67,-6 67,-71 0,-58 18,-47 22,14 l 3,52 55,5 c 30,3 55,10 55,15 0,6 -25,12 -55,15 l -55,5 -3,50 c -4,56 -16,78 -26,43 z"
       id="path18" />
    <path
       inkscape:connector-curvature="0"
       d="m 706,9789 c -3,-13 -7,-40 -8,-59 -3,-35 -3,-35 -55,-38 -83,-5 -61,-31 28,-35 34,-2 34,-3 37,-54 3,-60 22,-73 22,-15 0,73 7,82 61,82 26,0 50,4 54,9 5,9 -22,16 -85,23 -22,3 -25,8 -28,48 -4,52 -18,74 -26,39 z"
       id="path20" />
    <path
       inkscape:connector-curvature="0"
       d="m 1387,9410 c -3,-8 -8,-35 -9,-60 l -3,-45 -52,-3 c -57,-3 -74,-22 -20,-22 68,0 77,-8 77,-61 0,-26 5,-51 10,-54 6,-4 10,13 10,42 0,27 5,54 12,61 7,7 34,12 60,12 26,0 48,5 48,10 0,6 -25,10 -55,10 -60,0 -61,1 -68,85 -2,24 -6,34 -10,25 z"
       id="path22" />
    <path
       inkscape:connector-curvature="0"
       d="m 878,9093 -3,-58 -52,-3 c -29,-2 -53,-7 -53,-12 0,-5 24,-10 53,-12 l 52,-3 3,-45 c 4,-72 16,-80 22,-15 l 5,60 58,3 c 31,2 57,7 57,12 0,5 -26,10 -57,12 l -58,3 -3,58 c -2,31 -7,57 -12,57 -5,0 -10,-26 -12,-57 z"
       id="path24" />
    <path
       inkscape:connector-curvature="0"
       d="m 6235,8426 c -63,-19 -125,-48 -125,-58 0,-5 -9,-6 -21,-3 -48,15 -106,-37 -79,-70 7,-8 10,-21 7,-28 -4,-11 24,-121 45,-177 4,-8 11,-33 16,-55 52,-199 84,-305 94,-305 12,0 30,41 24,56 -3,7 1,28 8,46 21,50 31,178 14,178 -9,0 -10,2 -2,8 7,4 18,27 25,52 13,48 16,65 22,145 2,28 9,60 15,72 7,12 12,32 12,45 0,13 2,41 3,62 2,45 -3,48 -58,32 z"
       id="path26" />
    <path
       inkscape:connector-curvature="0"
       d="m 4103,8242 c -34,-2 -66,-8 -71,-15 -13,-15 16,-299 31,-308 5,-4 7,-20 4,-37 -8,-41 15,-50 150,-55 l 112,-3 20,50 c 28,69 51,165 54,220 2,34 6,46 21,50 13,3 17,11 13,25 -3,12 -1,24 4,27 5,3 9,16 9,30 l 0,25 -142,-3 c -79,-2 -171,-4 -205,-6 z"
       id="path28" />
    <path
       inkscape:connector-curvature="0"
       d="m 3748,8232 c -41,-3 -63,-28 -47,-53 5,-7 9,-36 9,-62 0,-26 6,-63 14,-82 8,-18 12,-36 10,-38 -5,-5 12,-194 21,-234 6,-26 20,-29 41,-8 8,8 21,12 30,8 8,-3 22,3 32,13 21,24 75,45 127,52 44,5 56,17 50,47 -3,11 -7,58 -10,105 -3,47 -9,112 -14,145 -5,33 -7,63 -4,68 2,4 -2,13 -10,21 -14,14 -166,25 -249,18 z"
       id="path30" />
    <path
       inkscape:connector-curvature="0"
       d="m 4707,7001 c -4,-16 -13,-21 -37,-21 -37,0 -47,-9 -79,-73 -13,-27 -29,-51 -36,-53 -7,-3 -19,-35 -26,-72 -6,-37 -18,-77 -26,-88 -20,-31 -30,-278 -13,-299 8,-9 10,-29 7,-51 -4,-25 2,-59 18,-109 14,-41 25,-80 25,-88 0,-32 36,-75 91,-111 56,-36 58,-37 93,-22 56,23 45,48 -22,48 -20,0 -45,4 -55,10 -23,12 -57,67 -57,92 0,10 -7,24 -15,30 -30,23 -75,288 -54,326 4,8 11,59 14,113 4,53 11,97 16,97 5,0 9,15 9,34 0,19 7,41 15,50 8,8 18,29 22,47 3,19 13,34 25,36 10,3 18,12 18,19 0,8 7,14 15,14 9,0 18,7 21,15 8,20 86,30 115,14 13,-6 37,-25 53,-41 39,-37 58,-37 50,0 -10,47 -13,52 -29,52 -9,0 -28,9 -44,21 -15,11 -46,23 -68,26 -35,5 -41,2 -46,-16 z"
       id="path32" />
    <path
       inkscape:connector-curvature="0"
       d="m 4523,6999 c -50,-15 -143,-107 -143,-142 0,-15 -6,-30 -14,-33 -8,-3 -12,-12 -10,-19 3,-7 -1,-24 -9,-37 -8,-13 -17,-52 -21,-88 -3,-36 -11,-94 -16,-130 -6,-36 -13,-86 -16,-112 -4,-27 -10,-48 -15,-48 -5,0 -9,-7 -9,-15 0,-8 -4,-23 -9,-33 -5,-9 -14,-29 -20,-44 -6,-16 -17,-28 -25,-28 -7,0 -16,-9 -19,-20 -3,-11 -12,-20 -21,-20 -9,0 -16,-4 -16,-8 0,-13 -76,-52 -101,-52 -32,0 -53,-15 -44,-30 10,-16 126,-4 140,14 6,7 24,20 41,30 17,11 39,33 49,50 10,17 26,38 35,46 20,17 46,122 60,243 5,43 12,82 15,87 3,5 10,45 16,90 7,58 18,97 41,138 17,31 37,69 45,84 17,33 100,69 113,49 10,-17 50,-5 50,15 0,8 -6,14 -12,14 -7,0 -22,2 -33,4 -11,3 -35,0 -52,-5 z"
       id="path34" />
    <path
       inkscape:connector-curvature="0"
       d="m 4713,6933 c -18,-2 -33,-10 -33,-16 0,-7 -14,-25 -30,-41 -17,-16 -30,-35 -30,-43 0,-7 -4,-13 -8,-13 -11,0 -46,-119 -38,-127 3,-3 1,-12 -4,-18 -12,-14 -16,-234 -5,-320 7,-62 34,-145 48,-145 4,0 7,-5 7,-11 0,-44 56,-103 87,-92 14,5 7,60 -11,82 -6,8 -10,23 -8,33 2,11 -1,25 -6,31 -13,15 -18,162 -8,206 4,18 17,43 27,55 46,50 65,67 83,72 20,7 24,9 69,49 29,26 61,32 72,15 3,-5 7,-29 7,-52 1,-24 5,-45 8,-48 4,-3 1,-20 -7,-39 -13,-31 -17,-33 -50,-28 -69,12 -110,-40 -118,-148 -7,-98 2,-105 141,-105 60,0 116,0 124,0 8,-1 64,-4 123,-8 123,-8 142,-1 113,44 -11,16 -14,30 -8,37 5,7 9,132 8,281 l -1,269 -235,3 c -265,3 -354,10 -327,26 10,5 31,6 48,3 39,-9 63,9 48,36 -10,19 -20,20 -86,12 z m -49,-708 c 4,-11 -1,-15 -19,-15 -29,0 -34,16 -7,23 9,3 18,5 18,6 1,0 4,-6 8,-14 z"
       id="path36" />
    <path
       inkscape:connector-curvature="0"
       d="m 4527,6912 c -10,-10 -17,-23 -17,-28 0,-10 -47,-34 -68,-34 -9,0 -11,-7 -7,-20 4,-12 3,-26 -2,-33 -15,-21 -32,-80 -43,-152 -6,-38 -15,-92 -21,-120 -5,-27 -14,-79 -19,-114 -5,-36 -14,-67 -19,-70 -13,-8 -32,-84 -23,-92 4,-4 44,-10 90,-12 l 82,-5 0,29 c 0,17 -5,39 -11,51 -6,11 -12,78 -14,149 -1,72 -5,132 -8,135 -5,6 -3,13 24,65 5,11 7,33 4,49 -4,18 -2,31 7,37 14,9 34,56 48,112 5,18 13,38 19,44 6,6 11,15 11,19 0,14 -16,9 -33,-10 z"
       id="path38" />
    <path
       inkscape:connector-curvature="0"
       d="m 4854,6588 c -31,-8 -45,-18 -59,-44 -10,-19 -23,-34 -29,-34 -23,-1 -63,-48 -70,-81 -13,-60 -3,-189 14,-189 7,0 20,-36 25,-65 2,-13 15,-47 23,-61 64,-103 110,-136 162,-114 16,7 35,19 42,28 18,21 38,134 26,147 -14,15 -38,-23 -38,-62 0,-21 -6,-36 -15,-39 -8,-4 -15,-12 -15,-20 0,-9 -11,-14 -30,-14 -16,0 -30,5 -30,10 0,6 -11,10 -25,10 -29,0 -34,9 -70,115 -18,53 -24,90 -20,111 3,18 1,35 -5,39 -14,9 -12,62 3,107 16,46 44,78 68,78 10,0 21,5 24,10 3,6 14,10 23,10 23,1 62,35 62,54 0,18 -7,18 -66,4 z"
       id="path40" />
    <path
       inkscape:connector-curvature="0"
       d="m 4828,6203 c -29,-4 -39,-35 -18,-48 6,-4 18,-25 27,-47 14,-35 19,-39 42,-33 39,10 55,50 20,50 -10,0 -14,12 -14,40 0,42 -6,46 -57,38 z"
       id="path42" />
    <path
       inkscape:connector-curvature="0"
       d="m 5836,4928 c 8,-27 22,-38 47,-38 16,0 16,2 2,30 -19,37 -61,44 -49,8 z"
       id="path44" />
    <path
       inkscape:connector-curvature="0"
       d="m 6988,4234 c -4,-4 -5,-25 -1,-47 8,-50 -11,-67 -74,-67 -60,0 -54,-16 8,-22 58,-6 69,-17 69,-70 0,-58 19,-45 22,15 l 3,52 53,3 c 43,3 53,6 48,18 -3,9 -6,18 -6,20 0,2 -5,4 -11,4 -5,0 -7,-4 -4,-10 7,-11 -27,-13 -61,-4 -18,5 -24,17 -30,61 -5,30 -12,51 -16,47 z"
       id="path46" />
    <path
       inkscape:connector-curvature="0"
       d="m 7370,3812 c 0,-59 -12,-72 -67,-72 -32,0 -43,-4 -43,-15 0,-12 13,-15 55,-15 l 55,0 0,-49 c 0,-28 5,-53 10,-56 6,-4 10,11 10,37 0,57 8,66 58,74 32,5 42,3 42,-7 0,-11 2,-11 10,1 17,26 11,30 -44,30 -61,0 -66,6 -66,76 0,24 -4,44 -10,44 -5,0 -10,-22 -10,-48 z"
       id="path48" />
    <path
       inkscape:connector-curvature="0"
       d="m 6598,3623 -3,-58 -45,-3 c -25,-1 -52,-5 -60,-8 -25,-9 10,-24 56,-24 47,0 54,-9 54,-71 0,-21 5,-39 10,-39 6,0 10,25 10,55 l 0,54 55,3 c 68,4 73,22 8,26 -26,2 -51,9 -55,15 -4,7 -8,33 -8,60 0,67 -18,59 -22,-10 z"
       id="path50" />
    <path
       inkscape:connector-curvature="0"
       d="m 7235,3395 -6,-55 -55,0 c -40,0 -54,-4 -54,-14 0,-11 15,-16 53,-18 l 52,-3 3,-57 c 4,-70 22,-78 22,-9 0,59 14,73 70,69 28,-2 44,2 47,10 3,9 -11,12 -51,12 l -56,0 0,54 c 0,73 -16,80 -25,11 z"
       id="path52" />
    <path
       inkscape:connector-curvature="0"
       d="m 6073,5479 c -24,-10 -43,-22 -43,-26 0,-4 15,-26 33,-47 34,-40 64,-43 52,-5 -4,11 -2,19 4,19 12,0 15,49 3,66 -5,8 -19,6 -49,-7 z"
       id="path54" />
    <path
       inkscape:connector-curvature="0"
       d="m 2648,1478 -3,-53 -54,-5 c -73,-7 -82,-30 -12,-30 46,0 53,-3 61,-26 6,-14 10,-41 10,-60 0,-58 19,-38 22,24 l 3,57 58,3 c 38,2 57,7 55,14 -3,7 -18,12 -34,13 -89,3 -84,0 -84,60 0,70 -18,72 -22,3 z"
       id="path56" />
    <path
       inkscape:connector-curvature="0"
       d="m 2137,1273 c -4,-3 -7,-28 -7,-53 0,-45 -2,-48 -31,-54 -17,-3 -42,-6 -55,-6 -13,0 -24,-4 -24,-10 0,-5 19,-10 43,-10 58,0 69,-10 75,-69 6,-66 22,-56 22,15 l 0,54 55,0 c 30,0 55,5 55,10 0,6 -17,10 -38,10 -46,0 -72,24 -72,66 0,32 -13,58 -23,47 z"
       id="path58" />
    <path
       inkscape:connector-curvature="0"
       d="m 2838,944 c -5,-4 -8,-31 -8,-61 l 0,-53 -55,0 c -30,0 -55,-4 -55,-10 0,-5 25,-10 55,-10 l 55,0 0,-47 c 0,-54 13,-86 24,-58 3,9 6,37 6,61 l 0,44 55,0 c 30,0 55,5 55,10 0,6 -22,10 -49,10 -28,0 -53,5 -57,11 -3,6 -9,33 -13,61 -3,27 -9,46 -13,42 z"
       id="path60" />
    <path
       inkscape:connector-curvature="0"
       d="m 2260,733 c 0,-74 -7,-83 -61,-83 -66,0 -62,-16 6,-25 l 55,-6 0,-55 c 0,-69 16,-70 25,-1 4,28 13,55 19,59 6,4 30,8 54,8 63,0 51,19 -15,22 l -58,3 -3,58 c -3,63 -22,80 -22,20 z"
       id="path62" />
  </g>
  <g
     transform="translate(0.000000,329.280000) scale(0.024000,-0.024000)"
     fill="#000000"
     stroke="none"
     id="g3047">
    <path
       d="M5820 12520 c0 -21 -3 -21 -74 -24 -64 -2 -57 -26 8 -26 30 0 58 -5 62 -11 3 -6 6 -33 6 -60 0 -65 13 -63 16 2 3 64 8 72 41 66 33 -7 82 3 75 14 -3 5 -28 9 -55 9 -44 0 -51 3 -59 25 -11 30 -20 32 -20 5z"
       id="path3049" />
    <path
       d="M5456 12409 c-3 -17 -6 -42 -6 -55 0 -22 -4 -24 -56 -24 -73 0 -70 -24 4 -28 l52 -3 0 -55 c0 -29 5 -54 10 -54 6 0 10 11 10 24 0 13 3 37 6 54 6 29 9 31 58 34 67 4 66 22 -1 26 l-53 3 0 55 c0 59 -14 72 -24 23z"
       id="path3051" />
    <path
       d="M5280 11985 l0 -55 -55 0 c-42 0 -55 -3 -55 -15 0 -12 13 -15 55 -15 l55 0 0 -55 c0 -58 19 -78 21 -22 1 17 2 37 4 42 1 6 3 16 3 23 1 8 21 12 58 12 73 0 70 24 -4 28 l-51 3 -6 54 c-9 71 -25 71 -25 0z"
       id="path3053" />
    <path
       d="M5800 11887 l0 -57 -55 0 c-41 0 -55 -4 -55 -14 0 -11 15 -16 53 -18 l52 -3 3 -57 c2 -32 7 -58 12 -58 6 0 10 6 11 13 1 6 2 19 3 27 2 8 3 30 4 48 l2 32 55 0 c30 0 55 5 55 10 0 6 -22 10 -49 10 -52 0 -63 8 -68 50 -10 82 -23 91 -23 17z"
       id="path3055" />
    <path
       d="M4745 11642 c-36 -8 -64 -34 -76 -70 -24 -70 -5 -106 53 -100 38 4 39 3 32 -27 -10 -47 -10 -47 3 -52 17 -6 29 21 47 107 24 108 29 160 14 138 -10 -13 -15 -14 -32 -4 -12 7 -30 11 -41 8z m39 -35 c11 -42 -32 -117 -67 -117 -31 0 -22 83 14 126 15 18 47 13 53 -9z"
       id="path3057" />
    <path
       d="M1315 9877 c-4 -13 -5 -27 -4 -33 1 -5 1 -21 0 -36 -1 -25 -4 -27 -53 -30 -74 -4 -75 -26 -1 -30 l58 -3 3 -45 c4 -72 16 -80 22 -15 l5 60 35 3 c94 7 105 32 14 32 l-54 0 0 54 c0 58 -15 83 -25 43z"
       id="path3059" />
    <path
       d="M705 9788 c-4 -14 -6 -32 -5 -39 8 -53 2 -59 -56 -59 -40 0 -54 -3 -51 -12 2 -9 20 -12 55 -10 38 3 52 0 53 -10 3 -29 6 -54 7 -80 3 -51 22 -29 21 22 -1 28 2 55 7 60 5 5 30 10 57 12 62 4 56 23 -8 23 l-50 0 -3 50 c-4 58 -18 80 -27 43z"
       id="path3061" />
    <path
       d="M2065 9433 c-35 -9 -58 -43 -63 -94 -6 -63 9 -83 56 -75 37 6 36 9 16 -60 -4 -16 0 -23 15 -27 16 -4 22 0 26 19 3 13 7 35 10 49 3 14 5 26 4 27 0 2 4 15 10 31 6 15 13 38 16 50 3 12 8 34 11 49 5 23 3 26 -18 25 -12 -1 -32 2 -43 5 -11 3 -29 3 -40 1z m55 -66 c-11 -51 -27 -74 -54 -79 -14 -3 -28 -3 -31 0 -11 12 -4 53 15 84 36 59 84 56 70 -5z"
       id="path3063" />
    <path
       d="M1388 9414 c-5 -4 -8 -31 -8 -61 l0 -53 -56 0 c-40 0 -54 -3 -51 -12 2 -7 17 -13 33 -14 77 -1 74 1 74 -59 0 -30 4 -55 9 -55 13 0 21 27 21 71 0 42 1 42 64 43 64 1 58 26 -7 26 l-54 0 -9 61 c-5 34 -12 58 -16 53z"
       id="path3065" />
    <path
       d="M878 9093 c-3 -54 -5 -58 -28 -59 -63 -2 -80 -5 -80 -13 0 -6 24 -11 53 -13 l52 -3 3 -45 c4 -72 16 -80 22 -15 l5 60 58 3 c31 2 57 7 57 12 0 5 -26 10 -57 12 l-58 3 -3 58 c-2 31 -7 57 -12 57 -5 0 -10 -26 -12 -57z"
       id="path3067" />
    <path
       d="M6987 4234 c-4 -4 -7 -29 -7 -56 0 -31 -4 -48 -12 -49 -7 0 -31 -1 -53 -2 -28 -1 -40 -6 -40 -17 0 -11 12 -15 50 -15 l50 0 5 -55 c3 -30 10 -55 15 -55 6 0 12 25 15 55 l5 55 53 3 c39 2 52 7 52 18 0 13 -10 15 -52 12 l-53 -3 -3 50 c-3 50 -12 71 -25 59z"
       id="path3069" />
    <path
       d="M7368 3803 l-3 -58 -52 -3 c-38 -2 -53 -7 -53 -18 0 -10 14 -14 55 -14 l55 0 0 -55 c0 -42 3 -55 15 -55 11 0 15 13 15 54 l0 55 52 3 c74 4 77 28 4 28 -37 0 -57 4 -58 13 -2 20 -5 50 -7 80 -2 50 -20 28 -23 -30z"
       id="path3071" />
    <path
       d="M6598 3623 l-3 -58 -58 -3 c-74 -4 -73 -26 1 -30 l51 -3 3 -51 c4 -71 26 -75 30 -6 l3 53 58 3 c75 4 72 25 -4 32 l-54 5 0 54 c0 77 -23 81 -27 4z"
       id="path3073" />
    <path
       d="M7237 3444 c-4 -4 -7 -29 -7 -55 l0 -48 -55 -3 c-72 -4 -75 -22 -5 -28 l55 -5 3 -57 c4 -73 18 -75 27 -3 l7 54 51 3 c70 4 74 26 5 30 l-53 3 -3 50 c-3 50 -12 71 -25 59z"
       id="path3075" />
    <path
       d="M7044 2832 c-44 -20 -71 -94 -51 -139 10 -24 50 -36 66 -20 17 17 21 3 11 -33 -11 -38 -6 -50 18 -50 12 0 18 9 20 29 1 16 11 56 22 90 10 33 22 77 26 98 6 33 5 36 -8 26 -11 -10 -17 -10 -26 -1 -17 17 -44 17 -78 0z m61 -16 c15 -15 11 -45 -15 -91 -17 -32 -54 -45 -62 -23 -8 19 3 78 14 78 5 0 7 4 3 9 -3 5 5 17 17 25 27 19 26 19 43 2z"
       id="path3077" />
    <path
       d="M2649 1513 c-1 -10 -2 -34 -3 -53 -1 -35 -1 -35 -55 -40 -76 -7 -79 -28 -4 -32 l58 -3 3 -57 c2 -32 7 -58 12 -58 5 0 10 26 12 58 l3 57 58 3 c67 3 76 26 11 29 -21 1 -47 2 -56 2 -15 1 -18 11 -18 56 0 30 -4 55 -10 55 -5 0 -11 -8 -11 -17z"
       id="path3079" />
    <path
       d="M2130 1221 l0 -61 -56 0 c-71 0 -70 -23 2 -24 49 -1 49 -1 52 -36 7 -95 29 -110 34 -22 l3 57 45 3 c68 5 74 22 7 22 l-56 0 -3 57 c-4 81 -28 85 -28 4z"
       id="path3081" />
    <path
       d="M2835 938 c-2 -7 -6 -33 -7 -58 l-3 -45 -52 -3 c-29 -2 -53 -7 -53 -12 0 -5 24 -10 53 -12 l52 -3 5 -55 c6 -70 24 -67 28 5 l3 55 54 0 c30 0 55 5 55 10 0 6 -25 10 -55 10 l-55 0 0 34 c0 19 -5 38 -10 41 -8 5 -8 11 0 20 8 9 8 15 0 20 -5 3 -12 0 -15 -7z"
       id="path3083" />
    <path
       d="M3447 840 c-33 -26 -51 -87 -37 -125 9 -24 14 -27 51 -23 36 3 40 2 35 -17 -19 -65 -19 -65 1 -65 16 0 25 15 43 78 26 84 47 162 46 163 -1 0 -26 3 -57 5 -45 4 -60 1 -82 -16z m82 -4 c16 -19 3 -69 -25 -100 -28 -29 -26 -28 -48 -20 -21 8 -20 32 4 81 24 51 48 65 69 39z"
       id="path3085" />
    <path
       d="M2258 713 l-3 -58 -52 -3 c-40 -2 -53 -7 -53 -18 0 -11 9 -15 28 -14 81 6 82 5 82 -56 0 -40 3 -55 13 -51 7 2 12 22 13 49 1 62 8 70 62 66 29 -2 47 1 49 9 3 8 -14 13 -54 15 l-58 3 -3 58 c-2 31 -7 57 -12 57 -5 0 -10 -26 -12 -57z"
       id="path3087" />
  </g>
  <path
     style="color:#000000;fill:none;stroke:#ffffff;stroke-width:1.25;stroke-linecap:butt;stroke-linejoin:miter;stroke-miterlimit:4;stroke-opacity:1;stroke-dasharray:none;stroke-dashoffset:0;marker:none;visibility:visible;display:inline;overflow:visible;enable-background:accumulate"
     d="M 116.12409,248.5402 84.798429,360.45765"
     id="path3195"
     inkscape:connector-curvature="0"
     transform="matrix(0.80000003,0,0,0.80000003,0,-8.4803658e-6)"
     sodipodi:nodetypes="cc" />
  <path
     style="color:#000000;fill:none;stroke:#ffffff;stroke-width:1.25;stroke-linecap:butt;stroke-linejoin:miter;stroke-miterlimit:4;stroke-opacity:1;stroke-dasharray:none;stroke-dashoffset:0;marker:none;visibility:visible;display:inline;overflow:visible;enable-background:accumulate"
     d="M 110.62549,247.15516 78.449753,358.46878"
     id="path3197"
     inkscape:connector-curvature="0"
     transform="matrix(0.80000003,0,0,0.80000003,0,-8.4803658e-6)"
     sodipodi:nodetypes="cc" />
  <path
     style="color:#000000;fill:none;stroke:#ffffff;stroke-width:1.25;stroke-linecap:butt;stroke-linejoin:miter;stroke-miterlimit:4;stroke-opacity:1;stroke-dasharray:none;stroke-dashoffset:0;marker:none;visibility:visible;display:inline;overflow:visible;enable-background:accumulate"
     d="M 135.62051,159.00421 161.52143,66.651194"
     id="path3201"
     inkscape:connector-curvature="0"
     transform="matrix(0.80000003,0,0,0.80000003,0,-8.4803658e-6)"
     sodipodi:nodetypes="cc" />
  <path
     style="color:#000000;fill:none;stroke:#ffffff;stroke-width:1.25;stroke-linecap:butt;stroke-linejoin:miter;stroke-miterlimit:4;stroke-opacity:1;stroke-dasharray:none;stroke-dashoffset:0;marker:none;visibility:visible;display:inline;overflow:visible;enable-background:accumulate"
     d="M 141.81295,158.70007 167.10019,68.786505"
     id="path3203"
     inkscape:connector-curvature="0"
     transform="matrix(0.80000003,0,0,0.80000003,0,-8.4803658e-6)"
     sodipodi:nodetypes="cc" />
  <path
     style="color:#000000;fill:none;stroke:#ffffff;stroke-width:1.25;stroke-linecap:butt;stroke-linejoin:miter;stroke-miterlimit:4;stroke-opacity:1;stroke-dasharray:none;stroke-dashoffset:0;marker:none;visibility:visible;display:inline;overflow:visible;enable-background:accumulate"
     d="M 104.76217,192.72576 51.464047,141.77452"
     id="path3205"
     inkscape:connector-curvature="0"
     transform="matrix(0.80000003,0,0,0.80000003,0,-8.4803658e-6)"
     sodipodi:nodetypes="cc" />
  <path
     style="color:#000000;fill:none;stroke:#ffffff;stroke-width:1.25;stroke-linecap:butt;stroke-linejoin:miter;stroke-miterlimit:4;stroke-opacity:1;stroke-dasharray:none;stroke-dashoffset:0;marker:none;visibility:visible;display:inline;overflow:visible;enable-background:accumulate"
     d="M 98.895699,197.63366 46.24164,147.97103"
     id="path3207"
     inkscape:connector-curvature="0"
     transform="matrix(0.80000003,0,0,0.80000003,0,-8.4803658e-6)"
     sodipodi:nodetypes="cc" />
  <path
     style="color:#000000;fill:none;stroke:#ffffff;stroke-width:1.25;stroke-linecap:butt;stroke-linejoin:miter;stroke-miterlimit:4;stroke-opacity:1;stroke-dasharray:none;stroke-dashoffset:0;marker:none;visibility:visible;display:inline;overflow:visible;enable-background:accumulate"
     d="m 143.08311,239.67666 51.37276,48.66349"
     id="path3209"
     inkscape:connector-curvature="0"
     transform="matrix(0.80000003,0,0,0.80000003,0,-8.4803658e-6)"
     sodipodi:nodetypes="cc" />
  <rect
     style="fill:#b9b9b9;fill-opacity:1;stroke:none"
     id="rect3837"
     width="6.2737403"
     height="203.44843"
     x="-1.7924972"
     y="1.4169053"
     transform="matrix(0.80000003,0,0,0.80000003,0,-8.4803658e-6)" />
  <rect
     style="fill:#b9b9b9;fill-opacity:1;stroke:none"
     id="rect3837-7"
     width="5.0189924"
     height="152.72076"
     x="-1.7924972"
     y="175.72275" />
  <path
     style="color:#000000;fill:none;stroke:#ffffff;stroke-width:1.25000000000000000;stroke-linecap:butt;stroke-linejoin:miter;stroke-miterlimit:4;stroke-opacity:1;stroke-dasharray:none;stroke-dashoffset:0;marker:none;visibility:visible;display:inline;overflow:visible;enable-background:accumulate"
     d="m 34.635003,208.01774 14.309297,0 7.805071,-18.53705 -57.23718794,22.27698 62.76577994,25.36648 -9.593733,-14.14669 -15.772748,0"
     id="path3857"
     inkscape:connector-curvature="0"
     transform="matrix(0.80000003,0,0,0.80000003,0,-8.4803658e-6)" />
  <path
     style="color:#000000;fill:none;stroke:#ffffff;stroke-width:1.25000000000000000;stroke-linecap:butt;stroke-linejoin:miter;stroke-miterlimit:4;stroke-opacity:1;stroke-dasharray:none;stroke-dashoffset:0;marker:none;visibility:visible;display:inline;overflow:visible;enable-background:accumulate"
     d="m 186.24447,205.66822 76.0921,0.48312"
     id="path3859"
     inkscape:connector-curvature="0"
     transform="matrix(0.80000003,0,0,0.80000003,0,-8.4803658e-6)" />
  <path
     style="color:#000000;fill:none;stroke:#ffffff;stroke-width:1.25000000000000000;stroke-linecap:butt;stroke-linejoin:miter;stroke-miterlimit:4;stroke-opacity:1;stroke-dasharray:none;stroke-dashoffset:0;marker:none;visibility:visible;display:inline;overflow:visible;enable-background:accumulate"
     d="m 186.60681,226.08022 75.72976,2.05328"
     id="path3861"
     inkscape:connector-curvature="0"
     transform="matrix(0.80000003,0,0,0.80000003,0,-8.4803658e-6)" />
</svg>
