<?xml version="1.0" encoding="UTF-8" standalone="no"?>
<svg
   xmlns:dc="http://purl.org/dc/elements/1.1/"
   xmlns:cc="http://creativecommons.org/ns#"
   xmlns:rdf="http://www.w3.org/1999/02/22-rdf-syntax-ns#"
   xmlns:svg="http://www.w3.org/2000/svg"
   xmlns="http://www.w3.org/2000/svg"
   xmlns:sodipodi="http://sodipodi.sourceforge.net/DTD/sodipodi-0.dtd"
   xmlns:inkscape="http://www.inkscape.org/namespaces/inkscape"
   version="1.0"
   width="199.920000pt"
   height="203.040000pt"
   viewBox="0 0 199.920000 203.040000"
   preserveAspectRatio="xMidYMid meet"
   id="svg2989"
   sodipodi:docname="black.svg">
  <defs
     id="defs3105" />
  <sodipodi:namedview
     pagecolor="#ffffff"
     bordercolor="#666666"
     borderopacity="1"
     objecttolerance="10"
     gridtolerance="10"
     guidetolerance="10"
     inkscape:pageopacity="0"
     inkscape:pageshadow="2"
     inkscape:window-width="1280"
     inkscape:window-height="996"
     id="namedview3103"
     showgrid="false"
     inkscape:zoom="0.92986608"
     inkscape:cx="124.95"
     inkscape:cy="126.89999"
     inkscape:window-x="0"
     inkscape:window-y="0"
     inkscape:window-maximized="1"
     inkscape:current-layer="svg2989" />
  <metadata
     id="metadata2991">
Created by potrace 1.10, written by Peter Selinger 2001-2011
<rdf:RDF>
  <cc:Work
     rdf:about="">
    <dc:format>image/svg+xml</dc:format>
    <dc:type
       rdf:resource="http://purl.org/dc/dcmitype/StillImage" />
  </cc:Work>
</rdf:RDF>
</metadata>
  <rect
     style="fill:#b9b9b9;fill-opacity:1;stroke:none"
     id="rect3107"
     width="222.5197"
     height="208.20204"
     x="-19.7878"
     y="-2.5810168"
     ry="0.79812175" />
  <g
     transform="translate(0.000000,203.040000) scale(0.024000,-0.024000)"
     fill="#000000"
     stroke="none"
     id="g2993">
    <path
       d="M116 7661 c-22 -24 -22 -48 0 -26 14 14 47 13 63 -1 2 -2 -15 -23 -38 -46 -38 -40 -54 -78 -31 -78 6 0 10 7 10 15 0 19 19 19 44 0 11 -8 28 -15 38 -15 20 0 42 35 34 56 -9 22 -28 17 -21 -6 7 -23 -3 -25 -40 -8 -33 15 -32 20 9 56 19 16 39 38 44 48 9 17 5 19 -43 21 -40 1 -57 -3 -69 -16z"
       id="path2995" />
    <path
       d="M179 7349 c-1 -115 3 -1315 6 -1719 11 -1366 20 -2311 31 -3250 4 -289 7 -573 7 -632 1 -60 4 -108 7 -109 3 0 12 -2 20 -4 22 -5 77 -15 140 -26 189 -34 228 -41 255 -45 17 -2 41 -7 55 -10 29 -7 51 -11 105 -18 22 -3 67 -10 100 -16 33 -6 76 -13 95 -16 19 -3 51 -9 70 -14 19 -4 58 -12 85 -16 28 -4 52 -8 55 -9 3 0 32 -5 65 -10 61 -9 73 -11 78 -14 3 -3 60 -12 77 -13 8 0 31 -4 50 -8 19 -5 53 -11 75 -15 23 -3 52 -8 65 -10 14 -3 37 -7 53 -10 15 -3 39 -7 55 -10 15 -3 38 -7 52 -10 28 -6 140 -25 185 -31 17 -3 64 -11 105 -19 41 -7 95 -17 120 -20 25 -4 54 -9 65 -11 60 -12 205 -37 235 -41 19 -3 69 -11 110 -19 41 -8 91 -17 110 -20 35 -5 292 -51 450 -80 78 -15 133 -24 245 -40 34 -5 138 -24 210 -39 19 -4 198 -34 325 -55 64 -11 107 -18 136 -25 12 -3 39 -7 60 -10 21 -4 46 -8 54 -10 8 -3 33 -7 55 -10 22 -4 47 -8 55 -10 8 -3 33 -7 55 -10 22 -4 47 -8 55 -10 8 -3 33 -7 55 -10 22 -4 47 -8 55 -10 8 -3 33 -7 55 -10 22 -3 126 -21 230 -40 191 -34 468 -83 515 -90 14 -2 63 -11 110 -20 47 -9 99 -18 115 -21 17 -3 93 -16 170 -29 153 -27 197 -35 235 -41 14 -2 34 -6 46 -9 12 -3 39 -7 60 -10 21 -4 73 -13 114 -21 41 -9 87 -17 102 -19 15 -2 51 -8 80 -14 57 -12 617 -110 658 -116 14 -1 53 -9 88 -15 61 -12 86 -9 66 9 -5 5 -56 16 -114 25 -58 9 -114 18 -125 20 -39 7 -100 18 -125 22 -14 3 -63 11 -110 20 -46 9 -100 17 -120 20 -19 2 -42 7 -51 10 -10 2 -31 6 -49 9 -17 2 -43 6 -58 9 -15 3 -43 8 -62 11 -19 3 -42 8 -50 10 -8 3 -58 11 -110 19 -52 9 -122 20 -155 26 -33 6 -78 13 -100 16 -21 3 -43 8 -47 10 -4 3 -27 7 -50 10 -24 2 -63 9 -88 14 -25 5 -99 19 -165 30 -183 31 -289 52 -298 60 -5 4 18 18 50 30 32 13 64 28 71 33 28 22 0 15 -84 -22 l-89 -38 -80 13 c-44 7 -105 18 -135 23 -174 31 -302 53 -355 62 -33 5 -80 14 -105 19 -25 5 -56 12 -70 14 -14 2 -63 11 -110 19 -47 9 -98 18 -115 21 -16 2 -70 12 -120 21 -49 9 -103 19 -120 21 -16 3 -50 9 -75 14 -25 5 -108 19 -185 31 -77 13 -144 26 -149 31 -6 4 3 12 20 18 16 6 52 22 79 35 47 23 48 24 15 19 -19 -4 -39 -9 -45 -13 -5 -4 -36 -17 -67 -30 -57 -22 -58 -23 -150 -6 -51 9 -118 20 -148 25 -30 5 -80 13 -110 19 -30 5 -68 12 -85 15 -16 3 -84 15 -150 26 -66 12 -147 26 -180 31 -78 12 -162 26 -200 34 -40 9 -191 35 -235 41 -19 3 -69 12 -110 20 -41 9 -84 17 -95 18 -11 2 -52 9 -92 15 -39 7 -78 14 -87 15 -42 6 -26 18 73 57 13 5 21 12 17 16 -3 3 -16 2 -29 -4 -105 -51 -158 -59 -237 -38 -8 2 -35 7 -60 10 -25 4 -79 13 -120 22 -41 8 -88 17 -105 19 -16 2 -46 6 -65 9 -19 2 -53 9 -75 14 -22 6 -42 10 -45 10 -25 2 -103 14 -135 22 -22 5 -53 11 -70 13 -16 2 -46 6 -65 10 -55 10 -425 76 -520 92 -47 8 -104 17 -128 20 -23 3 -61 11 -83 17 -41 12 -41 13 -18 24 50 23 127 57 234 100 60 25 132 55 160 68 27 12 86 37 130 55 89 36 118 48 188 79 26 12 67 29 90 37 23 9 54 22 69 30 15 8 31 15 35 16 9 1 37 12 108 43 58 25 118 49 125 50 3 1 25 10 50 22 56 25 93 40 103 41 4 1 20 8 35 15 15 8 38 19 52 25 108 48 144 62 151 62 4 0 40 15 81 33 64 29 96 43 183 77 11 5 46 20 77 34 31 14 59 26 62 26 2 0 39 16 80 35 42 19 81 35 87 35 6 0 23 6 37 14 15 7 38 18 52 24 14 5 51 22 83 36 32 14 62 26 66 26 5 0 22 6 38 14 15 8 39 19 53 24 27 11 63 26 153 66 31 14 61 26 65 27 19 5 52 23 52 29 0 11 -39 5 -52 -8 -7 -7 -18 -12 -24 -12 -7 0 -54 -18 -103 -39 -50 -22 -91 -37 -91 -35 0 3 -7 -2 -16 -10 -8 -9 -24 -16 -34 -16 -10 0 -22 -4 -25 -10 -3 -6 -12 -10 -20 -10 -7 0 -42 -13 -77 -29 -98 -45 -162 -73 -173 -75 -15 -4 -46 -16 -90 -36 -22 -10 -65 -28 -95 -40 -30 -13 -59 -27 -64 -32 -6 -4 -20 -8 -32 -8 -12 0 -27 -7 -34 -15 -7 -8 -16 -13 -20 -10 -4 2 -16 -2 -26 -10 -10 -8 -24 -15 -31 -15 -6 0 -46 -16 -87 -35 -42 -19 -80 -35 -85 -35 -5 0 -22 -6 -38 -14 -15 -8 -39 -19 -53 -24 -14 -6 -50 -21 -80 -35 -30 -13 -73 -31 -95 -38 -22 -7 -44 -16 -50 -20 -5 -4 -113 -50 -240 -102 -126 -52 -250 -104 -275 -115 -24 -12 -47 -19 -51 -16 -4 2 -12 -3 -19 -11 -7 -8 -20 -15 -29 -15 -9 0 -21 -4 -27 -9 -5 -4 -67 -32 -139 -60 -71 -29 -137 -57 -146 -61 -9 -5 -56 -25 -105 -45 -49 -20 -102 -43 -119 -50 -51 -23 -104 -39 -110 -34 -10 10 -15 377 -30 1934 -3 319 -7 762 -10 985 -3 223 -7 783 -10 1245 -8 1161 -13 1556 -19 1563 -3 3 -6 -24 -7 -59z"
       id="path2997" />
    <path
       d="M6031 7153 c-6 -21 -11 -45 -11 -54 0 -9 -3 -19 -7 -23 -4 -4 -13 -26 -19 -49 -6 -23 -18 -66 -26 -94 -8 -29 -12 -54 -9 -55 3 0 17 -1 31 -2 l25 -1 3 -240 c1 -132 0 -250 -3 -262 -4 -18 -46 -42 -77 -43 -4 0 -28 -9 -54 -20 -56 -24 -80 -25 -88 -4 -6 15 -9 15 -24 2 -19 -16 -121 -78 -167 -101 -17 -8 -84 -33 -149 -55 -65 -23 -121 -44 -125 -49 -3 -4 -4 -35 0 -68 3 -33 6 -46 7 -30 5 77 5 77 101 70 47 -4 88 -9 91 -10 3 -2 41 -6 85 -9 44 -4 96 -9 115 -11 19 -3 60 -7 90 -10 72 -7 139 -14 198 -20 50 -6 65 -2 177 39 78 29 101 32 108 14 3 -10 9 -10 23 -1 89 56 165 94 254 126 58 21 125 48 150 59 55 25 43 34 -55 43 -39 3 -81 8 -95 10 -14 2 -95 11 -180 20 -85 9 -184 20 -220 25 -36 5 -68 6 -73 1 -16 -16 19 -30 88 -35 39 -3 88 -7 110 -10 22 -3 63 -8 90 -11 68 -7 120 -13 185 -22 30 -3 61 -5 68 -4 6 1 12 -3 12 -9 0 -5 -8 -10 -18 -10 -10 0 -46 -11 -80 -25 -34 -14 -96 -30 -138 -36 -96 -13 -121 -23 -129 -48 -3 -12 -18 -24 -33 -27 -15 -4 -33 -11 -39 -17 -7 -5 -13 -7 -13 -4 0 3 -26 -6 -57 -20 -57 -25 -139 -32 -213 -18 -13 3 -58 7 -99 11 -41 3 -89 7 -105 9 -17 3 -56 7 -86 10 -30 3 -82 8 -115 12 -33 4 -66 6 -72 4 -7 -1 -13 3 -13 9 0 10 13 14 36 11 6 -1 17 6 24 14 7 8 23 15 36 15 12 0 26 5 29 10 4 6 11 8 16 4 5 -3 16 -1 22 5 7 5 28 12 47 15 19 3 55 8 80 11 44 6 84 30 75 45 -4 7 6 11 60 26 6 1 36 12 68 24 32 11 63 18 68 14 6 -3 8 -26 6 -50 -3 -24 -3 -53 0 -64 6 -21 32 -27 49 -10 7 7 9 134 6 365 -4 311 -3 355 11 355 36 0 40 26 17 122 -33 145 -40 168 -50 168 -5 0 -14 -17 -19 -37z"
       id="path2999" />
    <path
       d="M5339 5598 c0 -24 -1 -74 -2 -111 -1 -38 1 -74 5 -80 4 -7 8 43 8 111 0 67 -2 122 -5 122 -3 0 -5 -19 -6 -42z"
       id="path3001" />
    <path
       d="M3046 5568 c-3 -7 -7 -89 -9 -183 -3 -93 -8 -181 -11 -195 -18 -77 -18 -82 -1 -94 13 -10 17 -35 19 -145 2 -99 6 -135 16 -141 8 -5 48 -12 90 -15 41 -4 93 -9 115 -11 53 -6 203 -22 290 -31 39 -4 92 -8 120 -8 l50 0 -2 108 c-1 59 3 122 7 140 19 72 21 110 5 127 -12 14 -15 50 -16 198 0 125 -4 184 -12 190 -7 5 -106 17 -222 26 -115 10 -226 19 -245 22 -19 2 -66 7 -105 10 -38 3 -73 8 -78 11 -4 2 -9 -2 -11 -9z m274 -53 c41 -4 91 -9 110 -11 34 -5 129 -13 202 -17 20 -1 40 -6 44 -10 5 -4 9 -80 10 -168 1 -144 -1 -162 -17 -178 -17 -16 -20 -54 -6 -78 19 -31 31 -258 13 -272 -6 -5 -33 -6 -66 -1 -77 12 -223 26 -317 31 -18 1 -31 5 -29 8 2 3 -19 6 -47 7 -78 1 -137 7 -138 13 -6 35 -2 181 5 181 5 0 4 6 -1 13 -13 16 -2 52 17 52 11 0 14 10 11 45 -1 25 -6 52 -11 60 -14 28 -24 114 -25 227 l-1 113 86 -5 c47 -2 119 -7 160 -10z"
       id="path3003" />
    <path
       d="M3647 5303 c-4 -3 -15 -7 -25 -8 -33 -2 -69 -35 -69 -61 0 -27 -2 -27 63 -11 25 6 41 28 42 57 1 32 -1 34 -11 23z"
       id="path3005" />
    <path
       d="M3478 5244 c-4 -3 -12 -7 -20 -8 -7 -1 -24 -8 -38 -16 -14 -7 -26 -13 -27 -12 -13 8 -19 -3 -15 -24 5 -29 28 -42 45 -25 6 6 20 11 32 11 32 0 65 28 65 56 0 17 -6 24 -18 24 -10 0 -21 -3 -24 -6z"
       id="path3007" />
    <path
       d="M6915 5512 c-6 -4 -37 -18 -70 -31 -33 -12 -67 -26 -76 -31 -8 -4 -74 -31 -145 -60 -71 -28 -139 -57 -152 -63 -22 -10 -22 -13 -20 -179 3 -148 1 -171 -13 -178 -14 -8 -15 -17 -7 -57 5 -27 11 -61 14 -78 3 -16 8 -95 10 -175 3 -79 7 -146 10 -149 5 -6 88 24 204 74 47 20 104 43 127 52 24 8 45 19 49 24 3 5 13 9 22 9 10 0 33 8 53 18 l35 18 -1 99 c0 82 -3 100 -15 100 -12 0 -15 -16 -15 -82 0 -45 -2 -83 -5 -86 -9 -9 -181 -87 -191 -87 -5 0 -17 -4 -27 -9 -9 -5 -33 -16 -52 -24 -19 -8 -60 -25 -90 -39 -30 -14 -59 -22 -63 -18 -9 8 -3 225 7 270 3 14 7 41 10 60 3 19 8 52 12 73 5 34 4 38 -13 35 -11 -2 -21 0 -21 5 -1 4 -2 71 -2 150 l0 142 48 21 c26 12 65 28 87 35 22 7 47 19 56 26 8 7 25 13 37 13 12 0 22 5 22 10 0 6 6 10 14 10 7 0 38 11 67 24 30 12 65 26 79 29 l25 6 -2 -75 c-1 -41 -7 -91 -12 -112 -6 -20 -13 -59 -17 -87 -3 -27 -8 -53 -11 -57 -8 -14 17 -47 31 -42 20 8 17 -45 -4 -56 -9 -5 -32 -7 -51 -5 -156 18 -170 15 -161 -30 2 -14 7 -27 11 -30 4 -2 90 -6 192 -9 279 -9 308 -13 319 -42 11 -28 11 -28 98 -10 37 8 93 19 125 26 34 7 57 16 54 23 -2 6 -50 27 -108 47 -57 20 -115 41 -129 47 -30 12 -51 7 -44 -12 9 -23 -17 -29 -116 -26 -140 3 -135 1 -138 49 -2 24 3 50 12 64 13 20 13 31 1 83 -7 33 -15 110 -18 171 -4 127 -13 151 -42 126z"
       id="path3009" />
    <path
       d="M4089 5456 c-2 -3 -48 -6 -102 -7 -54 -1 -100 -5 -102 -9 -3 -5 -6 -20 -7 -34 -2 -22 -12 -29 -65 -48 -60 -22 -79 -42 -64 -67 5 -8 24 -6 66 8 64 21 75 20 75 -10 0 -29 -6 -32 163 79 106 70 119 82 88 82 -10 0 -26 2 -33 5 -8 3 -16 3 -19 1z"
       id="path3011" />
    <path
       d="M5347 5323 c-4 -3 -7 -60 -7 -126 0 -66 2 -118 5 -115 5 4 14 248 9 248 0 0 -4 -3 -7 -7z"
       id="path3013" />
    <path
       d="M5349 4688 c-4 -118 -3 -262 3 -271 4 -7 8 57 8 141 0 83 -2 152 -5 152 -3 0 -5 -10 -6 -22z"
       id="path3015" />
    <path
       d="M3056 4335 c0 -63 4 -118 7 -122 4 -3 7 48 7 115 0 67 -3 122 -7 122 -5 0 -8 -52 -7 -115z"
       id="path3017" />
    <path
       d="M6460 4358 c0 -99 16 -88 19 13 1 43 -2 69 -8 69 -7 0 -11 -31 -11 -82z"
       id="path3019" />
    <path
       d="M5350 4205 c0 -76 2 -136 5 -133 8 7 9 257 2 265 -4 3 -7 -56 -7 -132z"
       id="path3021" />
    <path
       d="M6464 4114 c3 -58 7 -109 10 -112 3 -3 6 45 6 106 0 70 -4 112 -10 112 -7 0 -9 -37 -6 -106z"
       id="path3023" />
    <path
       d="M5955 4130 c-12 -13 -14 -20 -5 -20 9 0 11 -13 6 -53 -9 -66 8 -87 53 -70 l28 10 -10 -38 c-10 -42 -18 -47 -37 -24 -17 21 -30 19 -30 -4 0 -23 17 -31 52 -24 28 5 48 42 67 123 21 95 23 120 7 120 -9 0 -18 -11 -21 -25 -3 -14 -8 -37 -11 -52 -6 -33 -41 -73 -62 -73 -10 0 -13 7 -8 28 17 79 19 122 4 122 -8 0 -23 -9 -33 -20z"
       id="path3025" />
    <path
       d="M3060 4029 c0 -63 4 -109 8 -102 9 14 8 201 -2 210 -3 3 -6 -45 -6 -108z"
       id="path3027" />
    <path
       d="M5850 4013 c-34 -12 -328 -137 -369 -156 -25 -12 -47 -28 -49 -35 -3 -11 3 -10 27 2 17 9 32 16 33 15 3 -1 40 14 103 42 22 9 85 36 140 59 55 22 110 45 123 50 36 15 29 36 -8 23z"
       id="path3029" />
    <path
       d="M5350 3847 c0 -86 4 -158 9 -162 11 -6 9 301 -2 311 -4 4 -7 -63 -7 -149z"
       id="path3031" />
    <path
       d="M6468 3824 c-2 -58 0 -108 5 -111 4 -2 7 46 7 106 0 61 -2 111 -4 111 -3 0 -6 -48 -8 -106z"
       id="path3033" />
    <path
       d="M3060 3711 c0 -71 4 -120 9 -117 10 7 7 223 -3 233 -3 4 -6 -49 -6 -116z"
       id="path3035" />
    <path
       d="M5220 3750 c-8 -5 -31 -15 -50 -23 -19 -8 -88 -38 -153 -66 -64 -28 -121 -51 -125 -51 -5 0 -30 -11 -58 -23 -27 -13 -76 -34 -109 -47 -33 -13 -78 -31 -100 -41 -61 -28 -479 -200 -490 -203 -5 -1 -26 -9 -45 -18 -100 -44 -230 -98 -234 -98 -3 0 -29 -11 -58 -24 -29 -13 -109 -47 -178 -76 -69 -29 -139 -59 -156 -66 -103 -45 -195 -84 -202 -85 -4 -1 -23 -9 -42 -17 -19 -8 -45 -18 -57 -23 -13 -5 -23 -13 -23 -19 0 -13 1 -13 54 10 26 11 47 19 49 19 6 0 279 116 309 132 10 5 22 9 27 9 5 0 44 16 87 36 42 19 86 36 96 37 10 1 18 5 18 9 0 4 5 8 11 8 11 0 23 5 119 48 25 11 81 34 125 52 103 41 104 42 205 85 47 21 90 38 95 39 6 2 24 9 40 16 163 71 255 108 255 103 0 -3 6 -1 13 5 6 5 59 29 117 52 129 51 134 53 190 78 38 17 92 39 225 92 66 27 105 46 105 53 0 10 -42 8 -60 -3z"
       id="path3037" />
    <path
       d="M6470 3522 c0 -67 4 -122 9 -122 10 0 7 228 -3 237 -3 4 -6 -48 -6 -115z"
       id="path3039" />
    <path
       d="M5355 3579 c-9 -24 -1 -244 9 -239 9 5 9 240 1 249 -3 2 -7 -2 -10 -10z"
       id="path3041" />
    <path
       d="M3069 3503 c-4 -29 1 -216 5 -221 3 -3 6 47 6 111 0 65 -2 117 -5 117 -3 0 -5 -3 -6 -7z"
       id="path3043" />
    <path
       d="M6470 3194 c0 -66 4 -113 9 -110 13 8 14 226 1 226 -6 0 -10 -43 -10 -116z"
       id="path3045" />
    <path
       d="M5358 3183 c-2 -43 0 -103 3 -133 6 -56 6 -49 12 165 1 72 -12 44 -15 -32z"
       id="path3047" />
    <path
       d="M3069 3196 c-6 -6 -1 -218 6 -224 3 -3 5 47 5 111 0 112 -1 123 -11 113z"
       id="path3049" />
    <path
       d="M6479 2983 c-6 -41 -3 -215 3 -219 4 -3 8 47 8 110 0 64 -2 116 -5 116 -3 0 -5 -3 -6 -7z"
       id="path3051" />
    <path
       d="M5359 2932 c0 -7 -1 -30 -1 -52 0 -143 3 -181 12 -175 10 6 8 221 -3 232 -4 3 -7 1 -8 -5z"
       id="path3053" />
    <path
       d="M3070 2789 c1 -90 3 -119 11 -106 11 18 6 213 -5 224 -3 4 -6 -50 -6 -118z"
       id="path3055" />
    <path
       d="M6480 2560 c0 -68 3 -120 6 -117 8 8 6 228 -1 235 -3 3 -5 -50 -5 -118z"
       id="path3057" />
    <path
       d="M5361 2526 c-1 -70 2 -117 9 -121 7 -4 10 33 10 114 0 67 -4 121 -9 121 -5 0 -9 -51 -10 -114z"
       id="path3059" />
    <path
       d="M3078 2594 c-7 -7 0 -215 7 -222 3 -3 5 47 5 111 0 115 -1 123 -12 111z"
       id="path3061" />
    <path
       d="M6480 2253 c0 -72 4 -113 9 -104 12 18 11 210 0 217 -5 3 -9 -48 -9 -113z"
       id="path3063" />
    <path
       d="M5370 2215 c0 -71 3 -126 6 -122 8 7 7 238 -1 245 -3 3 -5 -52 -5 -123z"
       id="path3065" />
    <path
       d="M3077 2293 c-6 -12 0 -193 7 -200 3 -4 6 42 6 100 0 99 -3 119 -13 100z"
       id="path3067" />
    <path
       d="M6483 1955 c3 -58 7 -109 11 -112 3 -4 6 44 6 105 0 71 -4 112 -10 112 -7 0 -9 -37 -7 -105z"
       id="path3069" />
    <path
       d="M3080 1946 l0 -87 -37 -16 c-21 -8 -44 -16 -51 -17 -7 -1 -18 -8 -24 -14 -7 -7 -20 -12 -29 -12 -10 0 -21 -4 -24 -10 -10 -16 11 -12 69 15 30 14 59 25 63 25 5 0 18 8 29 19 18 16 20 28 16 97 -5 107 -12 107 -12 0z"
       id="path3071" />
    <path
       d="M5370 1930 l0 -100 -55 -25 c-30 -13 -55 -26 -55 -29 0 -6 51 9 76 22 10 6 27 13 36 16 15 4 17 19 16 110 -1 59 -5 106 -10 106 -4 0 -8 -45 -8 -100z"
       id="path3073" />
    <path
       d="M2812 1750 c-23 -11 -43 -19 -45 -19 -3 1 -55 -20 -86 -35 -17 -8 -20 -12 -9 -14 9 -2 40 8 69 22 29 15 56 26 61 26 4 0 22 9 40 20 41 25 27 25 -30 0z"
       id="path3075" />
    <path
       d="M5087 1713 c-59 -25 -106 -48 -104 -50 5 -4 97 27 122 42 11 7 39 18 63 25 23 7 42 17 42 22 0 13 -8 10 -123 -39z"
       id="path3077" />
    <path
       d="M6487 1664 c2 -116 13 -121 13 -6 0 51 -3 92 -7 92 -5 0 -7 -39 -6 -86z"
       id="path3079" />
    <path
       d="M2495 1618 c-38 -16 -81 -34 -94 -39 -13 -6 -21 -12 -18 -16 6 -5 207 75 207 83 0 9 -29 1 -95 -28z"
       id="path3081" />
    <path
       d="M4795 1593 c-60 -25 -112 -47 -114 -49 -11 -10 9 -14 26 -6 10 5 29 14 43 20 14 5 56 23 93 38 37 15 70 31 73 36 8 13 -6 9 -121 -39z"
       id="path3083" />
    <path
       d="M2270 1527 c-114 -51 -143 -66 -132 -66 16 -1 163 58 177 70 13 13 -15 10 -45 -4z"
       id="path3085" />
    <path
       d="M4500 1470 c-47 -21 -87 -38 -90 -38 -27 1 -33 -3 -23 -13 7 -7 17 -7 29 -1 11 5 33 15 49 22 17 6 43 18 58 26 16 8 34 14 40 14 7 0 21 7 31 15 34 26 -3 16 -94 -25z"
       id="path3087" />
    <path
       d="M6490 1395 c0 -94 6 -85 -75 -115 -41 -15 -75 -34 -70 -38 5 -5 43 8 113 39 l42 19 0 90 c0 50 -2 90 -5 90 -3 0 -5 -38 -5 -85z"
       id="path3089" />
    <path
       d="M4288 1385 c-3 -3 -43 -21 -89 -40 -46 -19 -85 -38 -87 -44 -2 -5 41 9 95 31 100 41 130 58 102 58 -9 0 -18 -2 -21 -5z"
       id="path3091" />
    <path
       d="M3975 1254 c-127 -54 -148 -64 -143 -69 5 -5 137 45 170 65 10 5 25 10 33 10 8 0 15 5 15 10 0 14 -7 12 -75 -16z"
       id="path3093" />
    <path
       d="M6190 1185 c-7 -8 -17 -15 -22 -15 -18 0 -148 -54 -148 -61 0 -7 38 5 140 46 53 21 65 30 52 39 -5 3 -15 -1 -22 -9z"
       id="path3095" />
    <path
       d="M5895 1060 c-22 -11 -44 -20 -50 -20 -18 -1 -98 -40 -93 -46 7 -6 178 62 193 77 16 16 -8 10 -50 -11z"
       id="path3097" />
    <path
       d="M5635 955 c-16 -8 -54 -24 -83 -36 -29 -12 -50 -24 -47 -27 7 -7 175 61 175 71 0 10 -10 8 -45 -8z"
       id="path3099" />
    <path
       d="M7302 472 c-10 -7 -10 -14 3 -38 8 -16 15 -38 15 -50 0 -32 23 -74 41 -74 9 0 23 8 30 17 8 10 9 14 2 10 -16 -10 -43 31 -43 64 0 26 20 52 36 47 5 -2 10 0 12 5 10 32 -21 38 -38 7 l-11 -21 -17 21 c-11 12 -22 17 -30 12z"
       id="path3101" />
  </g>
</svg>
