<?xml version="1.0" encoding="UTF-8" standalone="no"?>
<svg
   xmlns:dc="http://purl.org/dc/elements/1.1/"
   xmlns:cc="http://creativecommons.org/ns#"
   xmlns:rdf="http://www.w3.org/1999/02/22-rdf-syntax-ns#"
   xmlns:svg="http://www.w3.org/2000/svg"
   xmlns="http://www.w3.org/2000/svg"
   xmlns:sodipodi="http://sodipodi.sourceforge.net/DTD/sodipodi-0.dtd"
   xmlns:inkscape="http://www.inkscape.org/namespaces/inkscape"
   version="1.0"
   width="204.720000pt"
   height="194.880000pt"
   viewBox="0 0 204.720000 194.880000"
   preserveAspectRatio="xMidYMid meet"
   id="svg2989"
   inkscape:version="0.48.4 r9939"
   sodipodi:docname="curl-as-limit.svg">
  <defs
     id="defs3061">
    <marker
       inkscape:stockid="Arrow2Mend"
       orient="auto"
       refY="0.0"
       refX="0.0"
       id="Arrow2Mend"
       style="overflow:visible;">
      <path
         id="path4233"
         style="fill-rule:evenodd;stroke-width:0.62500000;stroke-linejoin:round;"
         d="M 8.7185878,4.0337352 L -2.2072895,0.016013256 L 8.7185884,-4.0017078 C 6.9730900,-1.6296469 6.9831476,1.6157441 8.7185878,4.0337352 z "
         transform="scale(0.6) rotate(180) translate(0,0)" />
    </marker>
  </defs>
  <sodipodi:namedview
     pagecolor="#ffffff"
     bordercolor="#666666"
     borderopacity="1"
     objecttolerance="10"
     gridtolerance="10"
     guidetolerance="10"
     inkscape:pageopacity="0"
     inkscape:pageshadow="2"
     inkscape:window-width="1280"
     inkscape:window-height="996"
     id="namedview3059"
     showgrid="false"
     inkscape:zoom="1.1091858"
     inkscape:cx="4.2564057"
     inkscape:cy="169.03424"
     inkscape:window-x="0"
     inkscape:window-y="0"
     inkscape:window-maximized="1"
     inkscape:current-layer="svg2989" />
  <metadata
     id="metadata2991">
Created by potrace 1.10, written by Peter Selinger 2001-2011
<rdf:RDF>
  <cc:Work
     rdf:about="">
    <dc:format>image/svg+xml</dc:format>
    <dc:type
       rdf:resource="http://purl.org/dc/dcmitype/StillImage" />
  </cc:Work>
</rdf:RDF>
</metadata>
  <rect
     style="fill:#b9b9b9;fill-opacity:1;stroke:none"
     id="rect3043"
     width="222.51968"
     height="198.34369"
     x="-10.097497"
     y="-0.57868683"
     ry="1.5168629" />
  <g
     id="g3012">
    <g
       transform="translate(-68.291985,37.053495)"
       id="g4009">
      <rect
         style="fill:#414141;fill-opacity:1;stroke:#000000;stroke-width:1.02840662;stroke-miterlimit:4;stroke-opacity:1;stroke-dasharray:3.08521999, 3.08521999;stroke-dashoffset:0"
         id="rect3075"
         width="38.381142"
         height="50.201305"
         x="174.6342"
         y="57.026516"
         ry="5.8971415"
         transform="matrix(0.94551899,-0.32556695,0,1,0,0)" />
      <rect
         style="fill:#7f7f7f;fill-opacity:1;stroke:#000000;stroke-width:1.02840662;stroke-miterlimit:4;stroke-opacity:1;stroke-dasharray:3.08521999, 3.08521999;stroke-dashoffset:0"
         id="rect3075-1"
         width="27.642475"
         height="36.155472"
         x="179.60373"
         y="64.44706"
         ry="4.247179"
         transform="matrix(0.94551899,-0.32556695,0,1,0,0)" />
      <rect
         style="fill:#676767;fill-opacity:1;stroke:#000000;stroke-width:1.02840662;stroke-miterlimit:4;stroke-opacity:1;stroke-dasharray:none;stroke-dashoffset:0"
         id="rect3075-1-6"
         width="12.340499"
         height="16.140976"
         x="186.02283"
         y="77.244873"
         ry="1.8960785"
         transform="matrix(0.94551899,-0.32556695,0,1,0,0)" />
      <path
         style="color:#000000;fill:#000000;fill-opacity:1;stroke:#000000;stroke-width:1;stroke-linecap:butt;stroke-linejoin:miter;stroke-miterlimit:4;stroke-opacity:1;stroke-dasharray:none;stroke-dashoffset:0;marker:none;visibility:visible;display:inline;overflow:visible;enable-background:accumulate"
         d="m 164.92837,26.434707 0.81516,-5.10677 -1.79815,0 z"
         id="path3892"
         inkscape:connector-curvature="0" />
      <path
         style="color:#000000;fill:#000000;fill-opacity:1;stroke:#000000;stroke-width:1;stroke-linecap:butt;stroke-linejoin:miter;stroke-miterlimit:4;stroke-opacity:1;stroke-dasharray:none;stroke-dashoffset:0;marker:none;visibility:visible;display:inline;overflow:visible;enable-background:accumulate"
         d="m 169.68968,27.664379 0.81516,-5.10677 -1.79815,0 z"
         id="path3892-5"
         inkscape:connector-curvature="0" />
      <path
         style="color:#000000;fill:#000000;fill-opacity:1;stroke:#000000;stroke-width:1;stroke-linecap:butt;stroke-linejoin:miter;stroke-miterlimit:4;stroke-opacity:1;stroke-dasharray:none;stroke-dashoffset:0;marker:none;visibility:visible;display:inline;overflow:visible;enable-background:accumulate"
         d="m 178.9203,15.620296 5.1453,-0.5191 -0.46025,-1.738251 z"
         id="path3892-4"
         inkscape:connector-curvature="0" />
      <text
         xml:space="preserve"
         style="font-size:8.64000034px;font-style:normal;font-variant:normal;font-weight:bold;font-stretch:normal;text-indent:0;text-align:start;text-decoration:none;line-height:125%;letter-spacing:0px;word-spacing:0px;text-transform:none;direction:ltr;block-progression:tb;writing-mode:lr-tb;text-anchor:start;baseline-shift:baseline;color:#000000;fill:#000000;fill-opacity:1;fill-rule:nonzero;stroke:none;stroke-width:1.24999988px;marker:none;visibility:visible;display:inline;overflow:visible;enable-background:accumulate;font-family:Linux Libertine O;-inkscape-font-specification:Sans"
         x="183.94926"
         y="10.087696"
         id="text3945"
         sodipodi:linespacing="125%"><tspan
           sodipodi:role="line"
           id="tspan3947"
           x="183.94926"
           y="10.087696">C<tspan
   style="font-size:7.20000029px;font-style:italic;baseline-shift:sub;-inkscape-font-specification:Linux Libertine O Bold Italic"
   id="tspan3965">i</tspan></tspan></text>
    </g>
    <path
       d="m 33.936,54.96 c 0.336,82.104 0.456,99.264 0.648,99.456 0.096,0.12 0.552,0.264 0.96,0.312 0.432,0.048 1.008,0.12 1.272,0.168 0.288,0.048 1.272,0.24 2.184,0.384 0.936,0.168 1.848,0.36 2.04,0.408 0.192,0.072 0.792,0.192 1.32,0.24 0.528,0.048 1.128,0.144 1.32,0.24 0.192,0.072 0.624,0.168 0.96,0.216 0.336,0.048 0.864,0.144 1.2,0.216 0.336,0.096 0.912,0.216 1.296,0.264 0.36,0.048 0.84,0.144 1.08,0.192 0.216,0.072 1.296,0.288 2.424,0.504 3.288,0.576 3.384,0.6 5.52,0.984 1.128,0.216 2.376,0.432 2.76,0.504 0.408,0.072 1.8,0.336 3.12,0.576 1.32,0.264 2.664,0.528 3,0.576 0.336,0.048 0.984,0.168 1.44,0.24 0.456,0.096 1.104,0.216 1.44,0.264 0.336,0.048 0.864,0.168 1.2,0.24 0.336,0.096 0.84,0.192 1.152,0.24 0.72,0.12 1.368,0.24 3.048,0.576 0.792,0.144 1.992,0.36 2.64,0.48 0.672,0.12 1.752,0.336 2.4,0.48 0.672,0.12 1.608,0.288 2.136,0.36 0.504,0.048 1.104,0.168 1.344,0.24 0.24,0.072 0.744,0.168 1.104,0.216 0.384,0.048 1.56,0.264 2.616,0.48 3.072,0.624 16.008,3.048 16.8,3.144 0.408,0.072 2.448,0.432 4.56,0.84 2.112,0.408 4.128,0.768 4.488,0.84 0.36,0.048 1.056,0.192 1.56,0.312 0.504,0.12 1.728,0.36 2.712,0.528 0.984,0.144 2.28,0.384 2.88,0.528 0.6,0.12 1.728,0.336 2.52,0.48 2.424,0.384 3.816,0.648 4.44,0.792 0.336,0.072 0.936,0.168 1.32,0.216 0.408,0.072 0.888,0.168 1.08,0.24 0.192,0.072 0.744,0.168 1.2,0.24 0.456,0.072 2.256,0.408 3.96,0.744 1.728,0.336 3.384,0.672 3.72,0.744 0.768,0.12 2.256,0.408 2.4,0.456 0.072,0 0.672,0.12 1.32,0.24 0.672,0.12 1.248,0.216 1.32,0.24 0.072,0.024 0.72,0.12 1.44,0.216 0.72,0.12 2.616,0.456 4.2,0.792 1.584,0.336 3.216,0.648 3.6,0.72 1.032,0.144 4.464,0.768 5.16,0.936 0.336,0.072 1.032,0.168 1.56,0.24 0.504,0.072 1.032,0.192 1.128,0.24 0.12,0.072 0.696,0.192 1.32,0.264 0.6,0.048 1.368,0.216 1.68,0.336 0.312,0.12 0.96,0.216 1.416,0.216 0.456,0 0.816,0.072 0.816,0.168 0,0.12 0.288,0.216 0.672,0.24 0.36,0.024 1.008,0.096 1.44,0.144 0.408,0.072 0.768,0.024 0.768,-0.072 0,-0.192 -1.584,-0.648 -3.048,-0.84 -0.504,-0.072 -1.176,-0.192 -1.512,-0.264 -0.336,-0.072 -0.864,-0.192 -1.2,-0.24 -0.648,-0.12 -2.496,-0.456 -4.44,-0.84 -0.648,-0.12 -1.44,-0.264 -1.704,-0.312 -0.288,-0.072 -0.936,-0.168 -1.44,-0.24 -0.528,-0.096 -1.536,-0.264 -2.256,-0.408 -1.8,-0.36 -1.848,-0.384 -3.36,-0.6 -0.72,-0.096 -1.392,-0.168 -1.488,-0.144 -0.12,0.024 -0.192,-0.072 -0.192,-0.216 0,-0.12 -0.096,-0.192 -0.192,-0.12 -0.096,0.072 -0.624,0.024 -1.152,-0.12 -0.504,-0.12 -1.416,-0.264 -2.016,-0.336 -0.6,-0.072 -1.392,-0.24 -1.8,-0.336 -0.384,-0.12 -1.536,-0.336 -2.52,-0.504 -0.984,-0.168 -2.832,-0.504 -4.08,-0.768 -1.248,-0.24 -3.744,-0.72 -5.52,-1.032 -1.776,-0.336 -4.488,-0.816 -6,-1.104 -1.512,-0.288 -3.024,-0.552 -3.36,-0.6 -0.336,-0.048 -1.128,-0.192 -1.8,-0.336 -3.888,-0.792 -10.464,-2.064 -12,-2.328 -0.816,-0.12 -5.208,-0.936 -6.12,-1.128 -0.912,-0.192 -4.824,-0.888 -5.64,-1.008 -0.384,-0.048 -1.152,-0.216 -1.68,-0.336 -0.528,-0.12 -2.424,-0.48 -4.2,-0.816 -1.776,-0.336 -4.104,-0.768 -5.16,-0.984 -1.056,-0.216 -2.4,-0.432 -3,-0.48 -0.6,-0.072 -1.248,-0.192 -1.44,-0.264 -0.192,-0.096 -0.624,-0.192 -0.96,-0.24 -1.632,-0.192 -2.64,-0.408 -2.64,-0.6 0,-0.096 0.432,-0.36 0.96,-0.6 0.528,-0.24 0.96,-0.504 0.96,-0.624 0,-0.288 -0.312,-0.216 -0.816,0.168 -0.264,0.192 -0.672,0.36 -0.912,0.36 -0.24,0 -0.432,0.096 -0.432,0.24 0,0.312 -2.568,0.312 -2.76,0 -0.096,-0.144 -0.24,-0.192 -0.336,-0.144 -0.096,0.072 -0.648,0 -1.248,-0.12 -0.576,-0.144 -1.32,-0.312 -1.656,-0.36 -0.336,-0.048 -1.08,-0.192 -1.68,-0.336 -0.6,-0.12 -2.112,-0.384 -3.36,-0.6 -1.248,-0.216 -3.312,-0.6 -4.56,-0.864 -1.248,-0.24 -2.904,-0.528 -3.672,-0.6 -0.768,-0.096 -1.44,-0.264 -1.512,-0.384 -0.072,-0.096 -0.216,-0.144 -0.312,-0.096 -0.096,0.072 -0.6,0 -1.128,-0.12 -0.504,-0.12 -1.32,-0.288 -1.776,-0.336 -0.456,-0.072 -1.224,-0.24 -1.68,-0.36 -0.456,-0.144 -1.2,-0.24 -1.608,-0.24 -0.432,0 -0.792,-0.096 -0.792,-0.192 0,-0.096 -0.192,-0.192 -0.408,-0.192 -0.648,-0.024 -2.328,-0.288 -4.248,-0.672 -0.936,-0.192 -2.136,-0.408 -2.664,-0.504 -0.528,-0.072 -1.176,-0.192 -1.44,-0.288 -0.552,-0.192 -0.768,-0.216 -1.512,-0.264 -0.336,-0.024 -0.48,-0.144 -0.384,-0.312 0.12,-0.216 1.992,-1.128 2.616,-1.272 0.288,-0.072 1.2,-0.456 2.88,-1.224 1.2,-0.552 5.64,-2.4 7.92,-3.288 0.672,-0.264 1.32,-0.552 1.44,-0.672 0.144,-0.096 0.504,-0.264 0.84,-0.36 0.336,-0.096 1.296,-0.504 2.16,-0.888 0.864,-0.384 1.776,-0.792 2.04,-0.912 0.264,-0.096 1.104,-0.48 1.872,-0.816 0.768,-0.336 1.536,-0.624 1.728,-0.624 0.168,0 0.384,-0.096 0.456,-0.216 0.072,-0.096 0.648,-0.384 1.272,-0.6 0.624,-0.24 1.488,-0.576 1.872,-0.768 2.064,-0.96 7.392,-3.216 7.584,-3.216 0.12,0 0.408,-0.096 0.648,-0.216 0.624,-0.36 3.12,-1.464 3.264,-1.464 0.072,0 1.008,-0.408 2.112,-0.912 1.104,-0.504 2.376,-1.056 2.832,-1.224 1.296,-0.48 2.016,-0.768 2.4,-1.008 0.192,-0.12 0.528,-0.288 0.72,-0.36 0.672,-0.264 5.16,-2.088 6.24,-2.568 0.6,-0.24 1.296,-0.552 1.56,-0.648 0.264,-0.12 1.128,-0.504 1.896,-0.84 0.768,-0.336 2.832,-1.2 4.56,-1.92 1.728,-0.696 3.96,-1.656 4.944,-2.112 0.984,-0.456 2.904,-1.272 4.248,-1.8 4.656,-1.896 7.464,-3.216 7.08,-3.336 -0.168,-0.072 -0.672,0.048 -1.104,0.264 -0.456,0.216 -0.888,0.384 -0.96,0.384 -0.072,0 -0.696,0.264 -1.392,0.576 -0.696,0.312 -1.968,0.864 -2.832,1.224 -1.584,0.672 -2.712,1.152 -4.992,2.184 -0.696,0.312 -1.32,0.576 -1.392,0.576 -0.072,0 -0.744,0.288 -1.488,0.624 -0.744,0.336 -1.632,0.72 -1.968,0.864 -0.336,0.12 -0.912,0.384 -1.32,0.552 -0.384,0.168 -1.32,0.552 -2.04,0.84 -2.064,0.816 -2.952,1.224 -3.648,1.584 -0.384,0.216 -0.672,0.288 -0.672,0.216 0,-0.072 -0.288,0 -0.648,0.216 -1.56,0.816 -7.464,3.264 -7.896,3.264 -0.192,0 -0.336,0.096 -0.336,0.216 0,0.12 -0.312,0.288 -0.72,0.384 -0.384,0.096 -0.768,0.264 -0.84,0.384 -0.096,0.12 -0.312,0.216 -0.528,0.216 -0.216,0 -0.576,0.144 -0.768,0.312 -0.216,0.168 -0.816,0.456 -1.344,0.624 -0.528,0.192 -1.728,0.696 -2.688,1.128 -0.96,0.456 -1.8,0.816 -1.896,0.816 -0.144,0 -0.624,0.216 -2.856,1.2 -0.648,0.288 -2.64,1.128 -4.416,1.848 -1.776,0.72 -3.384,1.392 -3.6,1.512 -0.216,0.096 -0.648,0.288 -0.984,0.432 -0.336,0.144 -1.248,0.552 -2.04,0.912 -0.792,0.36 -1.536,0.672 -1.68,0.696 -0.12,0.024 -0.672,0.216 -1.2,0.456 -0.528,0.24 -1.272,0.576 -1.68,0.744 -0.384,0.192 -1.368,0.624 -2.16,0.96 -0.792,0.36 -2.136,0.912 -3,1.248 -0.864,0.336 -1.992,0.816 -2.52,1.032 -1.968,0.888 -5.76,2.472 -6.024,2.496 -0.168,0.024 -0.456,0.192 -0.648,0.36 -0.216,0.168 -0.528,0.336 -0.696,0.36 -0.792,0.144 -2.112,0.672 -2.112,0.888 0,0.12 -0.264,0.216 -0.6,0.216 -0.6,0 -0.6,-0.024 -0.624,-2.232 0,-1.2 -0.048,-3.672 -0.096,-5.448 -0.048,-1.776 -0.144,-18.36 -0.216,-36.84 -0.336,-77.832 -0.408,-85.92 -0.648,-86.16 -0.168,-0.168 -0.216,9.936 -0.12,32.04 z"
       id="path2995"
       inkscape:connector-curvature="0"
       style="fill:#000000;stroke:none" />
    <path
       d="m 139.488,68.328 c -0.816,1.032 -0.696,1.32 0.288,0.648 0.552,-0.336 0.6,-0.336 0.96,0.168 0.456,0.648 0.84,0.384 0.432,-0.264 -0.168,-0.264 -0.288,-0.648 -0.288,-0.84 0,-0.576 -0.816,-0.408 -1.392,0.288 z"
       id="path3013"
       inkscape:connector-curvature="0"
       style="fill:#000000;stroke:none" />
    <path
       d="m 138.24,70.968 c -0.288,0.072 -0.36,0.384 -0.336,1.344 0.048,0.792 -0.072,1.44 -0.288,1.8 -0.456,0.672 -0.408,0.744 0.696,0.936 l 0.84,0.12 -0.12,-0.96 c -0.072,-0.552 -0.048,-1.176 0.048,-1.416 0.12,-0.24 0.192,-0.504 0.168,-0.6 -0.048,-0.216 0.912,-0.504 1.104,-0.336 0.264,0.288 0.024,2.424 -0.336,2.808 -0.408,0.456 -0.264,0.624 0.72,0.72 l 0.72,0.096 0.096,-1.848 c 0.072,-1.704 0.048,-1.848 -0.432,-2.112 -0.312,-0.168 -0.84,-0.216 -1.224,-0.144 -0.384,0.072 -0.696,0.048 -0.696,-0.072 0,-0.264 -0.504,-0.432 -0.96,-0.336 z"
       id="path3015"
       inkscape:connector-curvature="0"
       style="fill:#000000;stroke:none" />
    <path
       d="m 158.184,72.096 c -0.84,0.864 -0.744,1.32 0.168,0.72 0.576,-0.384 0.624,-0.36 1.032,0.168 0.552,0.744 0.744,0.528 0.456,-0.552 -0.336,-1.176 -0.768,-1.248 -1.656,-0.336 z"
       id="path3017"
       inkscape:connector-curvature="0"
       style="fill:#000000;stroke:none" />
    <path
       d="m 145.824,72.696 c -0.216,0.36 0.408,0.696 1.536,0.864 0.6,0.072 1.848,0.264 2.784,0.432 0.936,0.168 1.848,0.264 1.992,0.216 0.432,-0.144 0.312,-0.768 -0.144,-0.792 -0.768,-0.024 -3.432,-0.432 -5.4,-0.816 -0.36,-0.072 -0.696,-0.024 -0.768,0.096 z"
       id="path3019"
       inkscape:connector-curvature="0"
       style="fill:#000000;stroke:none" />
    <path
       d="m 156.96,74.784 c 0,0.072 0.24,0.552 0.552,1.08 l 0.528,0.96 -0.768,0.696 c -0.96,0.864 -0.96,0.96 -0.192,0.96 0.384,0 0.552,-0.096 0.456,-0.312 -0.072,-0.192 0.024,-0.456 0.216,-0.624 0.264,-0.216 0.408,-0.192 0.672,0.12 0.24,0.312 0.24,0.408 0,0.576 -0.168,0.096 -0.216,0.24 -0.12,0.312 0.312,0.168 1.776,0.456 1.776,0.336 0,-0.048 -0.24,-0.624 -0.504,-1.272 l -0.528,-1.152 0.744,-0.648 c 0.792,-0.696 0.768,-0.936 -0.096,-0.936 -0.384,0 -0.528,0.12 -0.432,0.336 0.072,0.192 0,0.408 -0.144,0.504 -0.36,0.216 -0.72,-0.312 -0.552,-0.768 0.096,-0.216 -0.12,-0.312 -0.744,-0.312 -0.48,0 -0.864,0.048 -0.864,0.144 z"
       id="path3021"
       inkscape:connector-curvature="0"
       style="fill:#000000;stroke:none" />
    <path
       d="m 145.44,75.216 c 0,0.24 0.384,0.408 1.152,0.528 0.624,0.096 2.04,0.336 3.168,0.576 1.728,0.336 2.064,0.336 2.112,0.048 0.12,-0.456 -0.024,-0.552 -0.96,-0.672 -0.432,-0.072 -1.584,-0.264 -2.568,-0.456 -2.232,-0.456 -2.904,-0.456 -2.904,-0.024 z"
       id="path3023"
       inkscape:connector-curvature="0"
       style="fill:#000000;stroke:none" />
    <path
       d="m 157.32,101.76 c -0.528,0.24 -2.52,1.104 -4.44,1.896 -1.92,0.816 -3.792,1.632 -4.152,1.824 -0.384,0.192 -0.768,0.36 -0.888,0.36 -0.12,0 -0.984,0.36 -1.968,0.816 -0.96,0.432 -2.448,1.08 -3.312,1.44 -0.864,0.36 -1.872,0.792 -2.28,0.96 -0.384,0.168 -0.984,0.432 -1.32,0.552 -0.336,0.144 -1.08,0.456 -1.68,0.744 -0.6,0.264 -1.68,0.72 -2.4,1.032 -0.72,0.288 -1.416,0.624 -1.56,0.744 -0.12,0.096 -0.456,0.192 -0.768,0.192 -0.312,0 -0.552,0.096 -0.552,0.216 0,0.12 -0.288,0.288 -0.648,0.384 -0.36,0.072 -1.44,0.528 -2.4,0.984 -0.96,0.456 -1.92,0.816 -2.112,0.816 -0.168,0 -0.384,0.096 -0.456,0.192 -0.12,0.192 -3.432,1.584 -3.792,1.608 -0.096,0 -0.312,0.144 -0.456,0.288 -0.168,0.168 -0.432,0.312 -0.6,0.312 -0.168,0 -0.6,0.144 -0.984,0.336 -0.768,0.408 -2.04,0.96 -3.912,1.728 -0.72,0.288 -1.344,0.648 -1.392,0.816 -0.12,0.36 0.456,0.192 2.592,-0.768 1.728,-0.792 2.472,-1.104 3.36,-1.464 0.336,-0.12 0.936,-0.384 1.32,-0.552 2.352,-1.008 3.936,-1.704 5.88,-2.568 0.456,-0.192 1.464,-0.648 2.208,-0.96 0.744,-0.336 1.416,-0.552 1.488,-0.456 0.072,0.072 0.144,0 0.144,-0.144 0,-0.168 0.144,-0.288 0.336,-0.288 0.168,0 0.96,-0.288 1.728,-0.624 0.792,-0.336 1.848,-0.816 2.376,-1.056 2.88,-1.272 6.168,-2.64 7.44,-3.12 0.792,-0.312 1.56,-0.624 1.68,-0.72 0.216,-0.168 10.56,-4.584 12.312,-5.28 0.768,-0.288 1.056,-0.72 0.48,-0.72 -0.168,0.024 -0.744,0.216 -1.272,0.48 z"
       id="path3033"
       inkscape:connector-curvature="0"
       style="fill:#000000;stroke:none" />
    <text
       sodipodi:linespacing="125%"
       id="text3949"
       y="47.784557"
       x="142.72595"
       style="font-size:8.64000034px;font-style:normal;font-variant:normal;font-weight:bold;font-stretch:normal;text-indent:0;text-align:start;text-decoration:none;line-height:125%;letter-spacing:0px;word-spacing:0px;text-transform:none;direction:ltr;block-progression:tb;writing-mode:lr-tb;text-anchor:start;baseline-shift:baseline;color:#000000;fill:#000000;fill-opacity:1;fill-rule:nonzero;stroke:none;stroke-width:1.24999988px;marker:none;visibility:visible;display:inline;overflow:visible;enable-background:accumulate;font-family:Linux Libertine O;-inkscape-font-specification:Sans"
       xml:space="preserve"><tspan
         y="47.784557"
         x="142.72595"
         id="tspan3951"
         sodipodi:role="line">P</tspan></text>
    <text
       sodipodi:linespacing="125%"
       id="text3953"
       y="184.98311"
       x="163.05536"
       style="font-size:8.64000034px;font-style:italic;font-variant:normal;font-weight:bold;font-stretch:normal;text-indent:0;text-align:start;text-decoration:none;line-height:125%;letter-spacing:0px;word-spacing:0px;text-transform:none;direction:ltr;block-progression:tb;writing-mode:lr-tb;text-anchor:start;baseline-shift:baseline;color:#000000;fill:#000000;fill-opacity:1;fill-rule:nonzero;stroke:none;stroke-width:1.24999988px;marker:none;visibility:visible;display:inline;overflow:visible;enable-background:accumulate;font-family:Linux Libertine O;-inkscape-font-specification:Sans Italic"
       xml:space="preserve"><tspan
         y="184.98311"
         x="163.05536"
         id="tspan3955"
         sodipodi:role="line">x</tspan></text>
    <text
       sodipodi:linespacing="125%"
       id="text3957"
       y="108.61625"
       x="155.24484"
       style="font-size:8.64000034px;font-style:italic;font-variant:normal;font-weight:bold;font-stretch:normal;text-indent:0;text-align:start;text-decoration:none;line-height:125%;letter-spacing:0px;word-spacing:0px;text-transform:none;direction:ltr;block-progression:tb;writing-mode:lr-tb;text-anchor:start;baseline-shift:baseline;color:#000000;fill:#000000;fill-opacity:1;fill-rule:nonzero;stroke:none;stroke-width:1.24999988px;marker:none;visibility:visible;display:inline;overflow:visible;enable-background:accumulate;font-family:Linux Libertine O;-inkscape-font-specification:Sans Italic"
       xml:space="preserve"><tspan
         y="108.61625"
         x="155.24484"
         id="tspan3959"
         sodipodi:role="line">y</tspan></text>
    <text
       sodipodi:linespacing="125%"
       id="text3961"
       y="25.433462"
       x="36.316982"
       style="font-size:8.64000034px;font-style:italic;font-variant:normal;font-weight:bold;font-stretch:normal;text-indent:0;text-align:start;text-decoration:none;line-height:125%;letter-spacing:0px;word-spacing:0px;text-transform:none;direction:ltr;block-progression:tb;writing-mode:lr-tb;text-anchor:start;baseline-shift:baseline;color:#000000;fill:#000000;fill-opacity:1;fill-rule:nonzero;stroke:none;stroke-width:1.24999988px;marker:none;visibility:visible;display:inline;overflow:visible;enable-background:accumulate;font-family:Linux Libertine O;-inkscape-font-specification:Sans Italic"
       xml:space="preserve"><tspan
         y="25.433462"
         x="36.316982"
         id="tspan3963"
         sodipodi:role="line">z</tspan></text>
    <path
       inkscape:connector-curvature="0"
       id="path3973"
       d="m 139.50102,44.966901 -3.3747,0 -19.63462,13.498801"
       style="color:#000000;fill:none;stroke:#000000;stroke-width:1;stroke-linecap:butt;stroke-linejoin:miter;stroke-miterlimit:4;stroke-opacity:1;stroke-dasharray:none;stroke-dashoffset:0;marker:none;marker-end:url(#Arrow2Mend);visibility:visible;display:inline;overflow:visible;enable-background:accumulate" />
    <path
       sodipodi:nodetypes="cc"
       transform="matrix(0.80000002,0,0,0.80000002,0,-4.7654648e-6)"
       inkscape:connector-curvature="0"
       id="path3975"
       d="m 142.2743,75.248479 74.32302,12.473514"
       style="color:#000000;fill:none;stroke:#000000;stroke-width:2.125;stroke-linecap:butt;stroke-linejoin:miter;stroke-miterlimit:4;stroke-opacity:1;stroke-dasharray:none;stroke-dashoffset:0;marker:none;marker-end:url(#Arrow2Mend);visibility:visible;display:inline;overflow:visible;enable-background:accumulate" />
    <path
       inkscape:connector-curvature="0"
       id="path4020"
       d="m 74.413556,161.00901 39.002974,-17.9619 0,-81.085115"
       style="color:#000000;fill:none;stroke:#000000;stroke-width:1;stroke-linecap:butt;stroke-linejoin:miter;stroke-miterlimit:4;stroke-opacity:1;stroke-dasharray:4.00000009, 4.00000009;stroke-dashoffset:0;marker:none;visibility:visible;display:inline;overflow:visible;enable-background:accumulate" />
  </g>
</svg>
