<?xml version="1.0" encoding="UTF-8" standalone="no"?>
<svg
   xmlns:dc="http://purl.org/dc/elements/1.1/"
   xmlns:cc="http://creativecommons.org/ns#"
   xmlns:rdf="http://www.w3.org/1999/02/22-rdf-syntax-ns#"
   xmlns:svg="http://www.w3.org/2000/svg"
   xmlns="http://www.w3.org/2000/svg"
   xmlns:sodipodi="http://sodipodi.sourceforge.net/DTD/sodipodi-0.dtd"
   xmlns:inkscape="http://www.inkscape.org/namespaces/inkscape"
   version="1.0"
   width="201.840000pt"
   height="125.520000pt"
   viewBox="0 0 201.840000 125.520000"
   preserveAspectRatio="xMidYMid meet"
   id="svg2989"
   sodipodi:docname="black.svg">
  <defs
     id="defs3011">
    <marker
       inkscape:stockid="Arrow2Mend"
       orient="auto"
       refY="0.0"
       refX="0.0"
       id="Arrow2Mend"
       style="overflow:visible;">
      <path
         id="path3910"
         style="fill-rule:evenodd;stroke-width:0.62500000;stroke-linejoin:round;"
         d="M 8.7185878,4.0337352 L -2.2072895,0.016013256 L 8.7185884,-4.0017078 C 6.9730900,-1.6296469 6.9831476,1.6157441 8.7185878,4.0337352 z "
         transform="scale(0.6) rotate(180) translate(0,0)" />
    </marker>
  </defs>
  <sodipodi:namedview
     pagecolor="#ffffff"
     bordercolor="#666666"
     borderopacity="1"
     objecttolerance="10"
     gridtolerance="10"
     guidetolerance="10"
     inkscape:pageopacity="0"
     inkscape:pageshadow="2"
     inkscape:window-width="1280"
     inkscape:window-height="996"
     id="namedview3009"
     showgrid="false"
     inkscape:zoom="1.8098406"
     inkscape:cx="129.47045"
     inkscape:cy="60.529497"
     inkscape:window-x="0"
     inkscape:window-y="0"
     inkscape:window-maximized="1"
     inkscape:current-layer="svg2989" />
  <metadata
     id="metadata2991">
Created by potrace 1.10, written by Peter Selinger 2001-2011
<rdf:RDF>
  <cc:Work
     rdf:about="">
    <dc:format>image/svg+xml</dc:format>
    <dc:type
       rdf:resource="http://purl.org/dc/dcmitype/StillImage" />
  </cc:Work>
</rdf:RDF>
</metadata>
  <rect
     style="fill:#b9b9b9;fill-opacity:1;stroke:none"
     id="rect3025"
     width="222.5197"
     height="128.32613"
     x="-2.538868"
     y="10.896736" />
  <g
     id="g3865"
     transform="translate(-15.259767,-108.80877)">
    <rect
       transform="matrix(0.62166433,0.78328377,-0.23450374,0.97211522,0,0)"
       ry="7.7354336"
       y="29.655479"
       x="161.26157"
       height="40.288715"
       width="55.890976"
       id="rect3834"
       style="fill:#707070;fill-opacity:1;stroke:#000000;stroke-width:1.91506016;stroke-miterlimit:4;stroke-opacity:1;stroke-dasharray:none" />
    <path
       sodipodi:nodetypes="cccc"
       inkscape:connector-curvature="0"
       id="path3838"
       d="m 87.155451,171.67639 0.116524,6.49623 4.10748,-4.98141 z"
       style="color:#000000;fill:#000000;fill-opacity:1;stroke:none;stroke-width:1.25;marker:none;visibility:visible;display:inline;overflow:visible;enable-background:accumulate" />
    <path
       sodipodi:nodetypes="cccc"
       inkscape:connector-curvature="0"
       id="path3838-5"
       d="m 125.10831,219.94098 -0.56863,-6.47235 -3.75061,5.25536 z"
       style="color:#000000;fill:#000000;fill-opacity:1;stroke:none;stroke-width:1.25;marker:none;visibility:visible;display:inline;overflow:visible;enable-background:accumulate" />
  </g>
  <path
     style="fill:#000000;stroke:none"
     inkscape:connector-curvature="0"
     id="path2997"
     d="m 154.512,39.768 c -0.216,0.24 -0.456,0.696 -0.552,0.984 -0.168,0.552 -0.168,0.552 0.456,0.168 0.576,-0.384 0.672,-0.384 1.2,-0.024 0.36,0.24 0.648,0.288 0.744,0.144 0.072,-0.144 0.048,-0.24 -0.072,-0.24 -0.12,0 -0.36,-0.336 -0.528,-0.72 -0.336,-0.816 -0.72,-0.912 -1.248,-0.312 z" />
  <path
     style="fill:#000000;stroke:none"
     inkscape:connector-curvature="0"
     id="path2999"
     d="m 155.064,43.176 c -0.168,0.12 -0.768,0.144 -1.32,0.096 -0.816,-0.12 -0.936,-0.072 -0.672,0.192 0.336,0.384 0.408,3.096 0.048,3.096 -0.12,0 -0.24,0.096 -0.24,0.216 0,0.24 1.344,0.48 1.608,0.288 0.12,-0.072 0.192,-0.84 0.192,-1.704 0,-1.44 0.048,-1.56 0.552,-1.632 0.312,-0.048 0.528,0.048 0.552,0.24 0.072,1.416 -0.024,2.472 -0.24,2.544 -0.648,0.216 -0.168,0.528 0.84,0.528 0.96,0 1.08,-0.048 0.936,-0.432 -0.12,-0.216 -0.192,-0.912 -0.216,-1.512 -0.024,-1.632 -1.008,-2.568 -2.04,-1.92 z" />
  <path
     style="fill:#000000;stroke:none"
     inkscape:connector-curvature="0"
     id="path3001"
     d="m 66.768,95.688 c -0.984,0.456 -1.272,0.768 -1.656,1.656 -0.408,0.888 -0.456,1.296 -0.264,2.088 0.12,0.552 0.384,1.176 0.576,1.392 0.504,0.552 1.824,0.768 2.952,0.456 0.96,-0.24 1.224,-0.6 1.224,-1.512 -0.024,-0.528 -0.024,-0.528 -0.384,-0.048 -0.192,0.264 -0.456,0.624 -0.552,0.792 -0.24,0.408 -1.368,0.6 -1.92,0.288 -1.104,-0.576 -1.032,-3.264 0.096,-4.32 1.056,-0.984 2.76,-0.744 2.76,0.408 0,0.792 0.456,0.672 0.624,-0.168 0.216,-1.008 0.192,-1.056 -1.104,-1.344 -1.032,-0.24 -1.296,-0.192 -2.352,0.312 z" />
  <path
     style="fill:#000000;stroke:none"
     inkscape:connector-curvature="0"
     id="path3003"
     d="m 98.04,99.288 c -0.264,0.072 -0.672,0.288 -0.888,0.48 -0.216,0.192 -0.504,0.288 -0.648,0.192 -0.168,-0.096 -0.192,0.024 -0.096,0.288 0.072,0.24 0.072,0.36 -0.048,0.264 -0.24,-0.24 -0.816,0.864 -0.888,1.68 -0.024,0.36 0.096,0.888 0.24,1.176 0.264,0.48 0.456,0.528 1.752,0.456 1.08,-0.048 1.584,-0.192 1.944,-0.552 0.504,-0.528 0.384,-1.152 -0.192,-0.936 -0.264,0.096 -0.312,-0.096 -0.216,-0.864 0.072,-0.552 0.24,-1.128 0.36,-1.272 0.312,-0.36 -0.192,-0.84 -0.672,-0.672 -0.24,0.096 -0.312,0.048 -0.192,-0.12 0.096,-0.168 0.144,-0.264 0.096,-0.264 -0.048,0.024 -0.288,0.096 -0.552,0.144 z m 0.12,1.368 c 0,0.336 -0.12,0.672 -0.24,0.744 -0.144,0.096 -0.192,0.24 -0.12,0.36 0.12,0.216 -0.768,1.44 -1.056,1.44 -0.12,0 -0.192,-0.264 -0.192,-0.6 0,-0.336 0.072,-0.6 0.168,-0.6 0.096,0 0.168,-0.144 0.144,-0.312 -0.024,-0.36 0.84,-1.608 1.104,-1.608 0.12,0 0.192,0.264 0.192,0.576 z" />
  <path
     style="fill:#000000;stroke:none"
     inkscape:connector-curvature="0"
     id="path3005"
     d="m 70.968,101.472 c -0.48,0.528 -0.528,0.792 -0.096,0.696 0.144,-0.024 0.24,0.12 0.192,0.312 -0.336,1.296 -0.312,1.68 0.144,1.68 0.24,0 0.576,-0.12 0.744,-0.288 0.336,-0.336 0.384,-1.008 0.048,-0.792 -0.12,0.072 -0.168,-0.288 -0.072,-0.96 0.144,-1.2 -0.24,-1.464 -0.96,-0.648 z" />
  <path
     style="fill:#000000;stroke:none"
     inkscape:connector-curvature="0"
     id="path3007"
     d="m 101.088,102.048 c -0.168,0.168 -0.288,0.48 -0.288,0.72 0,0.24 -0.096,0.432 -0.216,0.432 -0.264,0 -0.528,0.696 -0.432,1.08 0.024,0.12 0.12,0.216 0.24,0.168 0.264,-0.072 0.216,0.384 -0.072,0.552 -0.36,0.216 -0.288,0.984 0.096,1.296 0.288,0.24 0.456,0.192 0.816,-0.168 0.336,-0.336 0.432,-0.72 0.384,-1.608 -0.024,-0.624 -0.192,-1.224 -0.336,-1.32 -0.192,-0.12 -0.168,-0.216 0.096,-0.312 0.408,-0.168 0.528,-0.768 0.192,-0.984 -0.12,-0.072 -0.336,0 -0.48,0.144 z" />
  <path
     style="color:#000000;fill:none;stroke:#000000;stroke-width:1.875;stroke-linecap:butt;stroke-linejoin:miter;stroke-miterlimit:4;stroke-opacity:1;stroke-dasharray:none;stroke-dashoffset:0;marker:none;visibility:visible;display:inline;overflow:visible;enable-background:accumulate;marker-end:url(#Arrow2Mend)"
     d="M 114.79163,108.08056 199.56592,38.150027"
     id="path3877"
     inkscape:connector-curvature="0"
     transform="scale(0.80000004,0.80000004)" />
  <path
     style="color:#000000;fill:#707070;fill-opacity:1;stroke:#696969;stroke-width:0.80000000999999998;stroke-linecap:butt;stroke-linejoin:miter;stroke-miterlimit:4;stroke-opacity:1;stroke-dasharray:none;stroke-dashoffset:0;marker:none;visibility:visible;display:inline;overflow:visible;enable-background:accumulate"
     d="M 101.32834,77.112128 102.6958,75.99863"
     id="path4323"
     inkscape:connector-curvature="0"
     sodipodi:nodetypes="cc" />
  <path
     style="color:#000000;fill:#707070;fill-opacity:1;stroke:#696969;stroke-width:0.80000001;stroke-linecap:butt;stroke-linejoin:miter;stroke-miterlimit:4;stroke-opacity:1;stroke-dasharray:none;stroke-dashoffset:0;marker:none;visibility:visible;display:inline;overflow:visible;enable-background:accumulate"
     d="m 102.79347,78.899586 1.36746,-1.113498"
     id="path4323-1"
     inkscape:connector-curvature="0"
     sodipodi:nodetypes="cc" />
</svg>
