<?xml version="1.0" encoding="UTF-8" standalone="no"?>
<svg
   xmlns:dc="http://purl.org/dc/elements/1.1/"
   xmlns:cc="http://creativecommons.org/ns#"
   xmlns:rdf="http://www.w3.org/1999/02/22-rdf-syntax-ns#"
   xmlns:svg="http://www.w3.org/2000/svg"
   xmlns="http://www.w3.org/2000/svg"
   xmlns:sodipodi="http://sodipodi.sourceforge.net/DTD/sodipodi-0.dtd"
   xmlns:inkscape="http://www.inkscape.org/namespaces/inkscape"
   version="1.0"
   width="195.840000pt"
   height="348.000000pt"
   viewBox="0 0 195.840000 348.000000"
   preserveAspectRatio="xMidYMid meet"
   id="svg2989"
   inkscape:version="0.48.4 r9939"
   sodipodi:docname="black.svg">
  <defs
     id="defs3021" />
  <sodipodi:namedview
     pagecolor="#ffffff"
     bordercolor="#666666"
     borderopacity="1"
     objecttolerance="10"
     gridtolerance="10"
     guidetolerance="10"
     inkscape:pageopacity="0"
     inkscape:pageshadow="2"
     inkscape:window-width="1280"
     inkscape:window-height="996"
     id="namedview3019"
     showgrid="false"
     inkscape:zoom="1.4623871"
     inkscape:cx="45.971666"
     inkscape:cy="181.5572"
     inkscape:window-x="0"
     inkscape:window-y="0"
     inkscape:window-maximized="1"
     inkscape:current-layer="svg2989" />
  <metadata
     id="metadata2991">
Created by potrace 1.10, written by Peter Selinger 2001-2011
<rdf:RDF>
  <cc:Work
     rdf:about="">
    <dc:format>image/svg+xml</dc:format>
    <dc:type
       rdf:resource="http://purl.org/dc/dcmitype/StillImage" />
    <dc:title></dc:title>
  </cc:Work>
</rdf:RDF>
</metadata>
  <rect
     style="fill:#b9b9b9;fill-opacity:1;stroke:none"
     id="rect3044"
     width="27.352541"
     height="348.00003"
     x="-26.64567"
     y="-2.1841011e-05" />
  <g
     style="fill:#b9b9b9;stroke:none"
     transform="matrix(0.024,0,0,-0.024,0,348)"
     id="g6">
    <path
       inkscape:connector-curvature="0"
       d="M 0,7250 0,0 l 4080,0 4080,0 0,7250 0,7250 -4080,0 -4080,0 0,-7250 z m 2068,6656 c 63,-14 362,-72 602,-117 58,-11 148,-28 200,-39 52,-10 298,-58 545,-106 248,-47 456,-92 464,-99 22,-22 6,-42 -51,-63 -29,-11 -136,-57 -238,-102 -102,-45 -207,-90 -235,-102 -64,-25 -503,-211 -575,-243 -175,-77 -272,-115 -293,-115 -14,0 -69,9 -123,19 -91,18 -377,73 -634,122 -58,11 -148,29 -200,39 -52,11 -259,51 -460,90 -520,101 -513,99 -521,112 -18,28 -43,16 531,255 179,74 372,154 430,178 58,24 179,75 270,113 91,39 178,71 193,71 15,1 58,-5 95,-13 z m 1915,-428 c 5,-36 -2,-746 -8,-764 -2,-6 -41,-26 -87,-44 -45,-18 -102,-41 -125,-51 -24,-11 -47,-19 -51,-19 -5,0 -22,-6 -38,-14 -43,-21 -511,-206 -874,-346 -153,-59 -238,-89 -260,-92 l -25,-3 -3,360 c -1,198 0,369 3,381 4,17 69,48 327,158 178,76 332,141 343,147 159,74 747,318 766,318 23,1 27,-4 32,-31 z M 754,13230 c 138,-27 442,-86 676,-131 300,-58 429,-87 438,-98 9,-11 12,-30 8,-61 -4,-25 -6,-284 -6,-576 0,-292 -3,-534 -7,-538 -4,-4 -7,-73 -8,-154 l 0,-147 -40,-19 c -22,-10 -128,-55 -235,-99 -107,-44 -260,-106 -340,-139 -412,-169 -744,-298 -770,-298 l -30,0 0,465 c 0,256 3,465 8,465 4,0 6,174 4,386 -2,254 1,384 7,379 6,-3 6,6 -1,26 -7,20 -8,69 -4,138 4,58 6,184 6,279 -1,171 -1,172 21,172 12,0 135,-22 273,-50 z m 3567,-605 c 151,-31 319,-64 374,-75 55,-10 201,-39 325,-64 713,-143 928,-187 952,-197 23,-10 25,-13 15,-30 -7,-11 -21,-22 -32,-25 -11,-3 -45,-17 -75,-29 -30,-13 -183,-76 -340,-141 -157,-64 -331,-137 -388,-160 -57,-24 -107,-44 -113,-44 -5,0 -17,-4 -27,-10 -44,-24 -278,-113 -311,-117 -36,-5 -297,44 -1286,238 -620,122 -748,148 -758,158 -20,20 15,43 146,94 78,31 264,104 412,162 149,59 284,112 300,119 17,8 80,33 140,56 61,23 119,47 130,51 91,41 177,68 216,68 26,1 170,-24 320,-54 z m 1749,-617 c 0,-126 -3,-227 -7,-225 -5,3 -6,-70 -5,-161 2,-92 1,-352 -3,-578 l -7,-411 -102,-43 c -55,-23 -153,-64 -216,-90 -63,-26 -187,-78 -275,-115 -622,-262 -706,-295 -739,-295 l -26,0 0,495 c 0,284 4,495 9,495 5,0 5,16 0,38 -11,46 -12,122 -1,122 4,0 6,103 4,230 l -3,229 33,17 c 18,10 98,43 178,75 197,77 358,142 400,161 19,9 54,23 77,32 23,8 61,24 85,35 24,11 124,52 223,91 99,40 209,85 245,100 36,15 80,27 98,27 l 32,0 0,-229 z m -3541,33 c 0,-13 -2,-21 -6,-17 -4,4 -8,28 -9,54 -2,40 -1,42 6,17 4,-16 8,-41 9,-54 z m 391,8 c 140,-28 302,-59 360,-70 58,-10 170,-32 250,-49 80,-17 197,-39 260,-51 63,-11 129,-23 145,-28 l 30,-7 3,-376 c 2,-322 0,-378 -13,-391 -8,-8 -106,-51 -217,-96 -112,-44 -286,-115 -388,-156 -102,-42 -225,-92 -275,-111 -49,-20 -162,-64 -250,-99 -195,-76 -221,-85 -253,-85 l -25,0 6,780 c 3,430 9,786 13,792 9,14 51,8 354,-53 z m -393,-176 c -3,-10 -5,-2 -5,17 0,19 2,27 5,18 2,-10 2,-26 0,-35 z m -337,-431 285,-58 -2,-139 c -1,-77 -4,-270 -5,-430 l -3,-290 -50,1 c -27,1 -225,38 -440,83 -214,45 -565,118 -779,162 -214,43 -436,90 -495,103 -58,13 -122,26 -141,30 -29,5 -35,10 -35,30 0,22 16,31 180,96 99,40 288,117 420,172 132,55 256,106 275,114 19,7 69,27 110,45 176,74 347,138 370,138 14,0 153,-26 310,-57 z m 2115,-438 c 149,-30 290,-59 315,-62 l 45,-7 3,-400 c 1,-220 0,-414 -3,-430 -7,-42 -28,-42 -206,-5 -79,17 -166,35 -194,40 -64,11 -493,99 -706,144 -90,19 -254,53 -364,76 -110,22 -254,52 -320,66 -66,14 -145,30 -175,36 -65,13 -74,19 -66,45 4,14 52,37 169,83 188,74 579,231 922,370 133,55 256,99 275,99 19,1 157,-24 305,-55 z m -1785,-214 c 0,-33 -4,-60 -10,-60 -6,0 -10,27 -10,60 0,33 4,60 10,60 6,0 10,-27 10,-60 z M 2091,9051 c 101,-21 328,-69 504,-105 176,-37 505,-105 730,-152 226,-47 434,-90 463,-96 44,-9 52,-14 52,-33 0,-16 -9,-25 -32,-32 -18,-6 -159,-60 -313,-121 -611,-238 -725,-282 -858,-332 l -137,-51 -253,51 c -138,29 -315,65 -392,81 -77,16 -270,56 -430,89 -159,32 -344,70 -410,85 -66,14 -199,42 -295,61 -96,20 -178,38 -182,41 -5,2 -8,14 -8,27 0,27 -39,10 470,203 212,80 489,185 615,234 127,48 244,88 261,88 18,1 114,-17 215,-38 z m 1834,-794 c 0,-373 0,-379 -21,-396 -12,-9 -75,-36 -140,-60 -65,-24 -164,-61 -219,-81 -508,-192 -993,-370 -1007,-370 -17,0 -18,24 -18,373 0,204 4,377 8,383 4,6 72,37 152,69 188,74 854,335 990,387 58,22 125,48 150,59 25,10 59,18 75,16 l 30,-2 0,-378 z M 732,8469 c 134,-27 351,-72 483,-99 132,-27 306,-63 387,-80 81,-16 150,-30 153,-30 3,0 4,-222 2,-492 -2,-271 -4,-628 -5,-793 -1,-226 -5,-305 -14,-318 -12,-15 -235,-99 -798,-298 -124,-44 -287,-102 -363,-130 -76,-27 -152,-49 -169,-49 l -31,0 6,263 c 3,144 7,602 10,1017 3,415 5,824 6,908 l 2,152 44,0 c 24,0 154,-23 287,-51 z m 3453,-664 c 94,-20 256,-54 360,-75 105,-22 267,-55 360,-74 94,-19 271,-56 395,-81 124,-25 320,-66 437,-90 117,-25 215,-45 218,-45 3,0 4,-4 1,-9 -4,-5 -1,-11 4,-13 34,-11 -53,-49 -385,-168 -203,-73 -469,-168 -590,-212 -121,-44 -251,-91 -290,-105 -84,-30 -115,-29 -330,16 -82,17 -454,92 -825,167 -1036,207 -930,183 -930,210 0,18 10,26 53,42 28,11 131,50 227,87 96,36 254,95 350,131 96,35 186,69 200,75 14,6 111,43 215,81 105,39 210,79 235,89 56,23 80,20 295,-26 z m 1875,-887 c 0,-255 -3,-602 -7,-771 -5,-269 -8,-310 -22,-314 -9,-3 -77,-29 -151,-58 -175,-68 -757,-291 -835,-321 -33,-12 -132,-49 -220,-83 -88,-33 -171,-61 -184,-61 l -24,0 6,782 c 6,604 10,785 20,795 6,7 271,105 587,218 316,114 616,222 665,240 50,19 107,34 128,35 l 37,0 0,-462 z M 2140,6551 c 162,-34 329,-68 370,-76 41,-8 95,-19 120,-24 25,-6 254,-53 510,-105 256,-52 488,-99 515,-105 28,-6 160,-33 295,-61 135,-27 261,-54 280,-59 19,-6 110,-25 203,-43 l 167,-33 0,-355 c 0,-293 -3,-360 -14,-376 -14,-19 -24,-17 -433,65 -230,46 -600,122 -823,168 -223,46 -448,93 -500,103 -711,143 -1514,307 -1870,380 -162,34 -310,64 -327,67 -19,3 -30,10 -26,16 4,6 1,7 -6,3 -7,-5 -32,-5 -57,-1 -40,6 -44,9 -44,33 0,32 -49,12 755,302 444,160 473,169 530,166 33,-2 193,-32 355,-65 z m 895,-2305 c 77,-15 239,-47 360,-71 195,-39 872,-171 1075,-210 41,-8 359,-70 705,-138 347,-69 674,-133 728,-143 61,-11 97,-22 97,-30 0,-7 3,-19 6,-27 3,-10 -4,-18 -23,-25 -15,-6 -84,-34 -153,-62 -69,-28 -260,-106 -425,-172 -165,-65 -360,-144 -434,-174 -108,-44 -144,-54 -191,-54 -49,0 -666,112 -905,165 -38,8 -178,36 -310,61 -132,25 -246,52 -253,58 -7,7 -10,19 -7,28 3,8 107,56 238,108 128,51 236,97 242,102 5,5 5,12 -2,19 -10,10 -144,40 -263,58 -30,5 -163,32 -295,60 -132,28 -247,51 -256,51 -9,0 -214,-75 -455,-166 -642,-243 -979,-364 -1011,-364 -33,0 -105,13 -395,70 -215,43 -216,43 -220,70 -4,28 -2,29 281,143 346,140 775,315 1046,426 110,46 282,116 382,156 101,41 191,79 200,85 23,13 67,9 238,-24 z m 310,-493 c 187,-37 343,-71 347,-77 4,-6 3,-17 -1,-24 -5,-8 -116,-58 -247,-111 l -239,-96 3,-56 c 5,-81 -5,-86 -121,-64 -50,10 -98,22 -104,28 -10,7 -13,66 -13,232 0,122 3,225 7,228 10,11 13,11 368,-60 z m -402,43 c 3,-8 6,-107 7,-219 0,-223 0,-223 -57,-245 -204,-78 -648,-253 -663,-261 -11,-7 -14,-23 -12,-70 2,-33 -1,-61 -5,-61 -6,0 -6,-23 -2,-52 4,-29 4,-167 1,-306 l -5,-253 -151,-76 c -271,-136 -509,-243 -538,-243 l -30,0 4,314 c 2,173 6,312 9,310 3,-2 4,9 1,24 -2,15 -5,45 -4,67 2,576 2,554 20,564 9,5 123,48 252,96 265,98 834,312 1050,395 84,33 115,37 123,16 z m 3162,-381 0,-190 -45,-21 c -25,-12 -209,-88 -410,-169 -201,-81 -367,-149 -370,-152 -5,-5 -11,-204 -11,-354 l 0,-96 -196,-77 c -130,-52 -206,-76 -227,-74 l -31,3 -3,406 c -2,317 1,409 10,417 7,6 222,95 478,198 256,103 528,213 605,245 79,32 153,57 170,56 l 30,-2 0,-190 z m -4950,-58 310,-62 2,-550 c 2,-631 -2,-745 -26,-745 -9,0 -131,27 -271,60 -140,34 -281,67 -313,75 -96,22 -90,-2 -82,334 4,163 6,303 6,311 -4,54 1,626 5,632 9,14 56,8 369,-55 z m 2465,-23 c 301,-58 320,-61 635,-124 110,-21 272,-53 360,-70 88,-17 163,-34 168,-39 4,-4 6,-189 5,-412 l -3,-404 -27,-3 c -32,-4 -364,56 -390,70 -16,8 -18,28 -18,199 0,187 0,190 -22,198 -13,5 -264,56 -558,113 l -535,104 -3,204 c -1,113 0,211 3,218 7,18 23,16 385,-54 z M 2815,2191 c 275,-54 546,-107 603,-117 94,-17 102,-20 102,-41 0,-25 -4,-27 -185,-98 -60,-23 -220,-86 -355,-139 -702,-278 -724,-286 -780,-286 -26,0 -161,22 -301,49 -140,28 -339,66 -444,86 -104,20 -257,49 -340,65 -499,97 -881,170 -887,170 -5,0 -8,11 -8,25 0,27 32,50 56,41 8,-3 13,-2 10,3 -3,4 25,20 62,36 258,108 357,145 385,145 46,0 590,-124 699,-159 l 57,-18 93,46 c 51,26 147,72 213,103 66,31 185,89 265,128 138,67 148,70 200,65 30,-2 280,-49 555,-104 z m 789,-196 c -4,-8 -1,-15 4,-15 12,0 11,-294 -1,-306 -4,-4 -22,-13 -40,-19 -17,-7 -122,-48 -232,-92 -110,-45 -244,-98 -299,-119 l -98,-39 1,-215 c 2,-163 -1,-219 -11,-232 -12,-16 -62,-36 -318,-128 -265,-96 -335,-120 -352,-120 -17,0 -18,19 -18,385 l 0,385 33,15 c 17,8 154,62 302,121 444,174 794,313 895,354 103,42 143,50 134,25 z M 284,1845 c 77,-14 236,-44 351,-66 116,-22 289,-56 385,-74 96,-18 330,-63 520,-100 190,-36 417,-80 505,-98 l 160,-32 2,-382 3,-383 -23,0 c -13,0 -88,13 -168,29 -79,17 -288,57 -464,91 -176,34 -536,104 -800,156 -264,52 -493,97 -510,100 -70,12 -121,28 -132,42 -10,12 -13,102 -13,372 0,196 3,360 7,363 10,10 24,9 177,-18 z m 3581,-210 c 99,-20 380,-74 625,-121 452,-86 489,-97 447,-132 -27,-23 -554,-225 -597,-229 -47,-5 -168,16 -770,133 -184,36 -350,68 -367,71 -18,3 -31,8 -29,12 2,3 -19,7 -47,8 -52,2 -82,19 -72,44 3,8 38,26 78,41 82,30 375,147 457,183 30,13 64,24 75,24 11,1 101,-15 200,-34 z m -180,-390 c 336,-64 616,-121 623,-127 9,-8 12,-62 12,-209 l 0,-199 -27,0 c -16,0 -147,23 -293,50 -146,28 -326,62 -400,76 -74,14 -247,48 -385,75 -137,27 -251,49 -252,49 -2,0 -3,93 -3,206 l 0,206 58,-5 c 31,-2 332,-57 667,-122 z m 1343,-67 -3,-193 -305,-122 C 4551,795 4400,740 4382,740 l -32,0 2,192 3,192 95,39 c 219,91 527,207 553,207 l 27,0 -2,-192 z"
       id="path8" />
  </g>
  <path
     style="fill:#000000;stroke:none"
     inkscape:connector-curvature="0"
     id="path2995"
     d="m 46.488,13.344 c -0.216,0.216 -5.448,2.472 -5.448,2.352 0,-0.048 -0.24,0.048 -0.528,0.24 -0.312,0.192 -0.624,0.36 -0.72,0.384 -0.096,0.024 -0.648,0.216 -1.2,0.456 -1.176,0.504 -1.944,0.768 -2.112,0.768 -0.072,0 -0.336,0.144 -0.6,0.312 -0.264,0.168 -1.08,0.528 -1.848,0.816 -0.744,0.288 -1.872,0.744 -2.52,1.032 -0.624,0.264 -1.368,0.576 -1.632,0.696 -0.864,0.336 -1.68,0.648 -2.28,0.912 -0.336,0.144 -1.2,0.504 -1.92,0.768 -1.392,0.528 -2.256,0.888 -2.928,1.224 -0.24,0.12 -0.6,0.216 -0.792,0.216 -0.192,0 -0.36,0.096 -0.36,0.24 0,0.12 -0.144,0.24 -0.336,0.24 -0.312,0 -1.344,0.408 -5.616,2.256 -1.08,0.456 -2.064,0.864 -2.16,0.888 -0.384,0.072 -0.936,0.288 -1.872,0.72 -0.936,0.408 -1.008,0.504 -1.128,1.584 -0.048,0.624 -0.12,5.52 -0.144,10.872 0,5.352 -0.072,12.624 -0.144,16.2 -0.072,3.552 -0.168,11.688 -0.264,18.048 l -0.12,11.568 0.672,0.144 c 0.36,0.096 0.816,0.216 1.008,0.264 0.192,0.072 0.72,0.168 1.2,0.24 0.48,0.072 1.56,0.288 2.424,0.48 0.864,0.192 2.328,0.504 3.24,0.696 1.656,0.336 6.936,1.44 12.84,2.664 1.656,0.336 3.216,0.672 3.48,0.696 0.264,0.048 2.904,0.576 5.88,1.2 2.976,0.624 6.912,1.416 8.76,1.8 1.848,0.384 4.056,0.864 4.92,1.056 0.864,0.192 1.896,0.408 2.28,0.456 0.408,0.072 1.176,0.192 1.704,0.288 0.576,0.096 1.2,0.072 1.44,-0.072 0.36,-0.192 0.576,-0.144 0.936,0.192 0.552,0.504 1.152,0.672 6.36,1.704 2.04,0.408 4.968,1.008 6.48,1.32 1.512,0.336 3.312,0.696 3.96,0.816 0.672,0.12 2.496,0.504 4.08,0.84 1.584,0.336 3.648,0.768 4.56,0.96 0.936,0.192 4.056,0.84 6.96,1.44 8.208,1.704 11.136,2.304 12.96,2.664 0.936,0.168 2.688,0.528 3.936,0.792 l 2.256,0.48 2.784,-1.224 c 1.536,-0.648 3.984,-1.68 5.424,-2.28 1.464,-0.576 2.976,-1.224 3.36,-1.392 0.408,-0.168 1.152,-0.48 1.68,-0.672 0.528,-0.192 1.56,-0.624 2.28,-0.936 0.72,-0.336 2.136,-0.936 3.12,-1.32 3.288,-1.368 7.776,-3.24 9.096,-3.816 0.696,-0.312 1.368,-0.576 1.488,-0.576 0.12,0 0.696,-0.216 1.296,-0.48 0.6,-0.264 1.56,-0.696 2.16,-0.96 l 1.08,-0.48 0.024,-6.672 c 0,-3.648 0.048,-7.296 0.072,-8.088 0.168,-3.552 0.216,-25.032 0.072,-25.248 -0.096,-0.144 -0.624,-0.336 -1.2,-0.432 -0.552,-0.072 -1.32,-0.24 -1.728,-0.384 -0.384,-0.12 -1.416,-0.312 -2.28,-0.456 -0.864,-0.12 -2.808,-0.504 -4.32,-0.84 -1.512,-0.336 -3.144,-0.672 -3.6,-0.744 -0.456,-0.072 -1.584,-0.288 -2.52,-0.504 -0.912,-0.192 -2.424,-0.504 -3.36,-0.672 -0.912,-0.168 -2.76,-0.552 -4.08,-0.84 -1.32,-0.288 -2.664,-0.552 -3,-0.6 -0.336,-0.072 -1.128,-0.216 -1.8,-0.336 -0.648,-0.12 -2.112,-0.408 -3.216,-0.624 -1.104,-0.192 -2.088,-0.432 -2.184,-0.48 -0.096,-0.048 -0.624,-0.168 -1.176,-0.24 -0.552,-0.072 -1.776,-0.288 -2.736,-0.504 -0.96,-0.192 -2.376,-0.48 -3.168,-0.624 -1.248,-0.216 -1.608,-0.288 -2.16,-0.456 -0.048,-0.024 -0.84,-0.168 -1.728,-0.36 C 100.92,43.848 99.936,43.632 99.6,43.56 99.264,43.488 98.688,43.392 98.28,43.32 96.528,43.008 96.24,42.912 96.216,42.528 96.192,42.12 96.192,41.304 96.24,31.44 96.288,22.224 96.312,22.824 95.688,22.584 95.376,22.464 94.536,22.296 93.816,22.2 93.096,22.104 92.424,21.96 92.28,21.888 92.16,21.816 91.824,21.72 91.536,21.696 90.312,21.552 87.744,21.072 77.76,19.08 76.776,18.888 75.528,18.648 75,18.576 74.472,18.504 73.944,18.384 73.848,18.312 73.752,18.264 73.272,18.144 72.768,18.096 72.288,18.024 71.616,17.928 71.28,17.88 70.944,17.808 70.296,17.688 69.84,17.616 69.384,17.544 68.904,17.424 68.808,17.352 68.712,17.304 68.328,17.208 67.968,17.16 67.608,17.088 66.456,16.896 65.4,16.68 63.144,16.248 62.904,16.2 61.32,15.936 59.976,15.72 59.784,15.672 59.712,15.624 59.664,15.576 59.376,15.528 59.04,15.48 58.056,15.336 51.36,13.968 49.68,13.584 48.072,13.2 46.752,13.104 46.488,13.344 z m 7.992,1.872 c 3.624,0.72 9.192,1.824 12.36,2.424 3.168,0.624 9.048,1.752 13.08,2.544 4.032,0.792 8.832,1.728 10.656,2.088 1.848,0.36 3.384,0.768 3.432,0.888 0.024,0.144 -0.432,0.456 -1.08,0.696 -0.624,0.264 -4.056,1.752 -7.656,3.312 -3.6,1.56 -6.576,2.832 -6.648,2.832 -0.072,0 -1.512,0.6 -3.192,1.344 -4.776,2.088 -5.856,2.568 -10.872,4.68 l -4.68,1.968 -1.68,-0.288 c -3.576,-0.6 -44.28,-8.52 -45.288,-8.808 -0.816,-0.24 -0.432,-0.528 2.04,-1.56 1.344,-0.552 2.568,-1.104 2.688,-1.2 0.216,-0.144 3.672,-1.584 11.76,-4.896 1.056,-0.432 3.648,-1.512 5.76,-2.4 2.112,-0.888 4.968,-2.088 6.36,-2.64 1.392,-0.576 3.168,-1.32 3.96,-1.656 0.792,-0.336 1.656,-0.6 1.92,-0.624 0.288,0 3.456,0.576 7.08,1.296 z m 41.04,17.832 c 0,5.256 -0.096,9.672 -0.192,9.816 -0.192,0.264 -26.232,10.656 -32.88,13.104 l -1.536,0.576 -0.12,18.216 C 60.672,92.736 60.576,95.448 60.12,95.328 59.808,95.256 59.808,86.736 60.096,59.352 l 0.216,-20.904 0.624,-0.288 c 0.936,-0.432 19.2,-8.232 32.784,-14.016 0.792,-0.336 1.512,-0.6 1.632,-0.624 0.096,0 0.168,4.296 0.168,9.528 z M 18.048,30.456 c 3.336,0.672 8.352,1.632 11.112,2.16 2.784,0.528 7.416,1.44 10.32,2.016 l 5.28,1.032 -0.024,17.688 c 0,15.024 -0.072,17.76 -0.36,18.024 -0.192,0.192 -1.704,0.888 -3.384,1.536 -1.68,0.672 -4.32,1.752 -5.88,2.424 -5.736,2.424 -18.336,7.488 -23.4,9.432 -1.392,0.528 -1.464,0.36 -1.296,-3.96 0.072,-2.136 0.192,-10.104 0.264,-17.688 0.072,-7.584 0.192,-15.36 0.24,-17.28 0.072,-1.92 0.12,-6.432 0.12,-10.032 0,-6.312 0.024,-6.528 0.456,-6.528 0.264,0 3.216,0.528 6.552,1.176 z M 47.4,36.312 c 0.576,0.12 2.424,0.456 3.12,0.552 0.264,0.024 0.48,0.072 0.48,0.096 0,0.024 0.312,0.096 0.72,0.144 2.424,0.408 7.608,1.488 7.752,1.632 0.096,0.096 0.144,3.336 0.12,7.176 -0.024,3.864 -0.048,11.736 -0.072,17.496 l -0.048,10.512 -0.888,0 c -0.48,0 -2.424,-0.336 -4.344,-0.744 C 52.32,72.792 49.728,72.264 48.48,72 47.208,71.76 45.984,71.472 45.744,71.376 45.312,71.208 45.288,70.584 45.432,53.664 45.528,44.016 45.6,36.096 45.6,36.072 c 0,-0.072 1.104,0.072 1.8,0.24 z m 58.32,9.168 c 13.536,2.64 36.816,7.296 37.872,7.584 0.48,0.12 0.888,0.312 0.888,0.408 0,0.096 -2.448,1.176 -5.448,2.424 -3.024,1.224 -6.648,2.736 -8.112,3.336 -1.44,0.576 -3.336,1.368 -4.2,1.728 -0.864,0.36 -2.376,0.984 -3.36,1.392 -3.672,1.536 -9.888,3.912 -10.536,4.032 -0.36,0.072 -1.728,-0.072 -3.048,-0.36 C 108.48,65.76 105.072,65.088 102.24,64.56 92.736,62.736 90.864,62.376 83.64,60.96 79.68,60.168 73.632,58.992 70.2,58.32 66.768,57.648 63.72,57.048 63.432,57 62.136,56.712 62.304,56.64 74.04,52.08 c 2.784,-1.056 6.336,-2.472 7.92,-3.12 8.568,-3.504 13.776,-5.472 14.16,-5.376 0.144,0.048 4.464,0.888 9.6,1.896 z m 39.96,11.088 c 0,1.44 -0.12,10.08 -0.24,19.248 -0.168,13.032 -0.288,16.728 -0.528,16.968 -0.168,0.144 -1.44,0.744 -2.832,1.296 -2.64,1.056 -8.304,3.408 -18.24,7.56 -8.112,3.408 -11.016,4.536 -11.16,4.392 -0.336,-0.336 0,-38.52 0.336,-38.88 0.072,-0.096 2.688,-1.176 5.784,-2.424 7.776,-3.12 12.24,-4.968 12.96,-5.328 0.336,-0.168 3.144,-1.296 6.24,-2.52 3.096,-1.248 5.904,-2.376 6.24,-2.544 1.368,-0.72 1.44,-0.576 1.44,2.232 z m -69.936,3.408 c 6.576,1.32 13.488,2.664 15.336,3.024 1.848,0.336 3.552,0.672 3.792,0.744 0.384,0.12 0.408,0.768 0.408,9.192 l 0,9.072 -1.368,0.624 c -0.768,0.336 -3.168,1.32 -5.352,2.184 -2.184,0.864 -5.304,2.112 -6.96,2.784 -4.992,2.064 -18.288,7.344 -19.248,7.656 -0.504,0.168 -1.008,0.24 -1.104,0.168 -0.12,-0.072 -0.192,-3.072 -0.144,-6.672 0.048,-3.6 0.168,-12.144 0.24,-19.008 l 0.144,-12.432 1.152,0.144 c 0.624,0.072 6.504,1.224 13.104,2.52 z m 22.8,4.56 c 5.184,0.984 6.72,1.272 7.416,1.392 1.608,0.264 5.928,1.248 6.072,1.392 0.216,0.216 0.192,17.352 -0.024,17.568 -0.096,0.072 -1.608,-0.144 -3.36,-0.504 -1.728,-0.36 -3.432,-0.696 -3.768,-0.768 -0.336,-0.048 -2.448,-0.48 -4.728,-0.936 -2.256,-0.456 -4.176,-0.84 -4.248,-0.84 -0.072,0 -0.096,-3.384 -0.048,-7.512 0.12,-10.152 0.12,-10.248 0.24,-10.248 0.048,0 1.152,0.216 2.448,0.456 z m -45.552,8.976 c 3.456,0.72 6.36,1.344 6.432,1.416 C 59.472,75 59.472,79.608 59.376,85.2 59.232,94.104 59.16,95.352 58.824,95.472 58.488,95.592 54.72,94.872 39.36,91.704 36.912,91.2 31.896,90.168 28.2,89.4 18.768,87.48 11.928,85.944 11.688,85.704 11.472,85.488 11.928,85.296 19.2,82.344 21.768,81.312 27.504,78.984 31.92,77.16 45.192,71.688 44.4,72 45.6,72.12 c 0.6,0.048 3.912,0.672 7.392,1.392 z m 50.424,10.464 c 3.768,0.768 7.272,1.488 7.776,1.56 l 0.888,0.168 0,9.936 c 0,5.448 -0.072,10.08 -0.144,10.296 -0.072,0.216 -0.36,0.384 -0.624,0.384 -0.456,0 -11.28,-2.184 -23.472,-4.704 -2.832,-0.6 -9.312,-1.92 -14.4,-2.976 -5.088,-1.032 -9.648,-1.968 -10.152,-2.088 -0.504,-0.096 -0.936,-0.312 -0.936,-0.432 -0.024,-0.144 3.744,-1.728 8.352,-3.552 10.92,-4.344 12.6,-5.016 19.176,-7.704 3.048,-1.248 5.784,-2.256 6.096,-2.28 0.288,-0.024 3.648,0.6 7.44,1.392 z" />
  <path
     style="fill:#000000;stroke:none"
     inkscape:connector-curvature="0"
     id="path3003"
     d="m 44.52,129.144 c -0.264,0.12 -1.824,0.696 -3.48,1.32 -1.656,0.6 -3.192,1.2 -3.408,1.32 -0.24,0.12 -0.6,0.216 -0.792,0.216 -0.192,0 -0.36,0.12 -0.36,0.24 0,0.144 -0.144,0.24 -0.288,0.216 -0.288,-0.048 -0.648,0.072 -2.592,0.84 -0.456,0.192 -1.92,0.744 -3.24,1.224 -2.712,0.984 -3.12,1.152 -3.96,1.512 -0.504,0.216 -1.32,0.504 -1.92,0.648 -0.168,0.048 -0.96,0.36 -1.56,0.6 -0.264,0.096 -1.128,0.432 -1.92,0.72 -0.792,0.312 -1.752,0.696 -2.16,0.84 -0.384,0.168 -1.368,0.552 -2.16,0.84 -0.792,0.288 -1.656,0.624 -1.92,0.72 -0.264,0.096 -1.44,0.528 -2.64,0.96 -1.176,0.408 -2.4,0.864 -2.688,1.008 l -0.552,0.264 0,7.224 c -0.024,8.784 -0.192,25.704 -0.384,37.704 -0.192,12.936 -0.192,13.104 0.096,13.296 0.144,0.072 2.28,0.576 4.776,1.08 2.472,0.504 6.768,1.392 9.552,1.992 2.784,0.576 5.304,1.104 5.64,1.176 0.336,0.072 2.496,0.504 4.8,0.984 2.304,0.456 5.232,1.032 6.48,1.272 1.248,0.24 4.656,0.936 7.56,1.56 2.904,0.6 5.832,1.2 6.48,1.32 0.672,0.096 2.328,0.432 3.72,0.72 1.392,0.288 2.736,0.552 3,0.6 0.264,0.024 2.424,0.456 4.8,0.96 2.376,0.48 4.488,0.912 4.68,0.936 0.192,0.048 1.008,0.192 1.8,0.36 4.44,0.936 6.36,1.344 12.36,2.544 3.624,0.72 6.768,1.392 7.008,1.464 0.216,0.048 0.96,0.216 1.68,0.336 1.704,0.288 12.696,2.52 15.432,3.12 l 2.16,0.48 4.44,-1.704 c 2.448,-0.936 4.92,-1.848 5.52,-2.064 0.6,-0.192 1.416,-0.504 1.8,-0.672 0.408,-0.192 2.352,-0.936 4.32,-1.68 3.672,-1.392 4.272,-1.608 5.232,-2.04 0.288,-0.12 1.224,-0.48 2.088,-0.792 2.4,-0.888 6.288,-2.352 7.08,-2.688 0.408,-0.168 1.56,-0.6 2.568,-0.96 1.032,-0.36 1.968,-0.792 2.088,-0.936 0.12,-0.144 0.288,-8.328 0.384,-19.608 l 0.168,-19.344 -1.536,-0.144 c -0.816,-0.096 -1.824,-0.264 -2.232,-0.384 -0.384,-0.12 -1.848,-0.456 -3.24,-0.744 -2.016,-0.408 -15.624,-3.192 -17.04,-3.48 -0.192,-0.048 -0.624,-0.144 -0.96,-0.216 -0.336,-0.072 -0.864,-0.192 -1.2,-0.24 -1.392,-0.264 -5.712,-1.152 -10.08,-2.064 -2.568,-0.552 -5.064,-1.032 -5.52,-1.104 -0.456,-0.048 -1.152,-0.216 -1.56,-0.336 -0.696,-0.192 -2.472,-0.576 -4.2,-0.84 -1.008,-0.168 -2.832,-0.576 -3.432,-0.744 -0.408,-0.12 -0.432,-0.624 -0.408,-7.968 0.024,-12.768 0.096,-11.496 -0.648,-11.64 -1.68,-0.36 -4.32,-0.936 -4.752,-1.032 -0.264,-0.072 -0.744,-0.168 -1.08,-0.216 -0.336,-0.048 -2.16,-0.432 -4.08,-0.84 -1.92,-0.408 -3.744,-0.792 -4.08,-0.864 -0.336,-0.048 -1.344,-0.264 -2.256,-0.48 -1.872,-0.408 -4.944,-1.032 -6.024,-1.2 -0.384,-0.072 -1.416,-0.288 -2.28,-0.48 -1.656,-0.384 -5.784,-1.248 -6.6,-1.392 -0.264,-0.048 -1.08,-0.192 -1.8,-0.36 -0.72,-0.144 -1.536,-0.312 -1.8,-0.36 -0.408,-0.096 -6.72,-1.416 -8.16,-1.728 -3.12,-0.648 -4.296,-0.936 -5.424,-1.248 -0.456,-0.12 -1.032,-0.12 -1.296,-0.024 z m 4.128,1.32 c 1.56,0.336 5.904,1.248 9.672,2.04 3.768,0.792 9.168,1.92 12,2.52 2.832,0.576 7.704,1.608 10.8,2.256 9.912,2.064 11.76,2.472 11.76,2.64 0,0.144 -3.024,1.392 -9.72,3.984 -1.584,0.6 -5.904,2.304 -9.6,3.744 -3.696,1.464 -8.28,3.24 -10.176,3.936 l -3.456,1.32 -8.904,-1.824 c -13.968,-2.856 -18.864,-3.864 -23.904,-4.92 -2.568,-0.552 -6.672,-1.416 -9.12,-1.92 -7.176,-1.488 -7.104,-1.464 -6.312,-1.872 0.576,-0.312 5.16,-2.088 13.44,-5.184 3.672,-1.392 9.528,-3.6 13.032,-4.92 3.504,-1.32 6.648,-2.4 7.008,-2.424 0.336,0 1.92,0.288 3.48,0.624 z m 45.576,10.752 c 0.072,0.456 0.072,2.76 0,5.112 -0.072,2.352 -0.12,6.216 -0.144,8.592 l 0,4.32 -1.992,0.768 c -1.08,0.408 -6.6,2.496 -12.288,4.608 -5.664,2.112 -12.216,4.536 -14.52,5.424 -2.304,0.864 -4.344,1.56 -4.488,1.56 -0.456,0 -0.456,-17.496 0,-18.048 0.144,-0.216 1.848,-1.008 3.768,-1.752 8.256,-3.264 14.808,-5.808 21,-8.184 0.792,-0.312 2.952,-1.152 4.8,-1.872 1.848,-0.72 3.432,-1.32 3.528,-1.32 0.096,-0.024 0.24,0.336 0.336,0.792 z m -79.104,3 c 2.568,0.528 7.32,1.512 10.56,2.184 3.24,0.672 8.16,1.68 10.944,2.256 2.808,0.576 5.208,1.128 5.376,1.224 0.264,0.168 0.288,3.888 0.144,19.008 -0.096,10.344 -0.24,18.984 -0.312,19.176 -0.144,0.408 -0.888,0.744 -4.152,1.896 -1.248,0.456 -3.528,1.248 -5.04,1.8 -1.512,0.552 -4.224,1.512 -6,2.16 -1.776,0.624 -3.888,1.392 -4.68,1.68 -1.968,0.696 -10.056,3.552 -11.472,4.008 -0.624,0.216 -1.2,0.312 -1.272,0.24 -0.168,-0.168 -0.144,-13.272 0.024,-14.112 0.072,-0.312 0.144,-7.272 0.168,-15.456 0.096,-25.512 0.144,-27 0.624,-27 0.24,0 2.52,0.432 5.088,0.936 z M 45.6,150.6 c 0.984,0.216 2.064,0.408 2.4,0.456 0.336,0.072 1.824,0.384 3.336,0.72 1.488,0.336 2.976,0.624 3.264,0.624 0.288,0 0.6,0.072 0.696,0.168 0.072,0.096 0.336,0.168 0.576,0.192 1.8,0.168 3.888,0.72 3.96,1.056 0.024,0.216 0.024,4.56 -0.024,9.672 l -0.096,9.264 1.296,0.264 c 0.696,0.144 1.824,0.36 2.472,0.48 2.256,0.408 5.04,0.984 5.76,1.224 0.408,0.12 1.272,0.288 1.92,0.36 0.672,0.096 1.608,0.264 2.088,0.384 0.48,0.12 2.496,0.552 4.464,0.936 1.944,0.384 3.72,0.744 3.912,0.816 0.192,0.072 0.768,0.192 1.296,0.264 0.528,0.072 4.152,0.768 8.04,1.56 3.888,0.768 7.344,1.464 7.68,1.512 0.336,0.072 0.864,0.192 1.2,0.264 0.336,0.096 0.984,0.216 1.44,0.288 0.456,0.072 1.656,0.288 2.64,0.504 0.984,0.192 2.352,0.456 3,0.576 0.672,0.12 1.752,0.36 2.4,0.528 l 1.2,0.312 -0.072,9.456 c -0.048,5.208 -0.12,9.528 -0.168,9.624 -0.072,0.072 -0.744,0.024 -1.488,-0.168 -0.768,-0.168 -1.776,-0.36 -2.232,-0.432 -0.456,-0.072 -2.112,-0.408 -3.672,-0.744 -1.56,-0.336 -5.76,-1.2 -9.36,-1.944 -3.6,-0.72 -9.432,-1.92 -13.008,-2.64 -3.552,-0.72 -7.296,-1.464 -8.28,-1.656 -0.984,-0.192 -2.832,-0.576 -4.08,-0.84 -1.248,-0.288 -3.36,-0.72 -4.68,-0.96 -1.32,-0.264 -3.36,-0.672 -4.56,-0.936 -2.4,-0.504 -10.224,-2.16 -11.16,-2.328 -1.8,-0.36 -4.896,-1.056 -4.968,-1.152 -0.144,-0.144 -0.048,-25.176 0.144,-36.576 C 42.96,150 42.864,150.048 45.6,150.6 z m 56.76,10.536 c 3.576,0.744 9.672,1.992 13.56,2.784 3.888,0.816 10.224,2.088 14.04,2.88 14.304,2.88 15.048,3.072 13.776,3.552 -0.312,0.12 -3.768,1.368 -7.656,2.76 -8.688,3.096 -12.096,4.32 -17.52,6.288 -2.304,0.84 -5.088,1.824 -6.168,2.208 l -1.968,0.672 -4.512,-0.912 c -42.216,-8.424 -43.8,-8.76 -44.064,-9.024 -0.288,-0.288 0.12,-0.456 18.672,-7.344 6.6,-2.448 12.48,-4.656 13.08,-4.92 0.6,-0.24 1.344,-0.408 1.68,-0.36 0.336,0.048 3.528,0.696 7.08,1.416 z m 43.08,21.792 c 0,6.768 -0.072,15.144 -0.168,18.6 l -0.144,6.312 -1.944,0.72 c -1.08,0.408 -2.328,0.888 -2.784,1.08 -0.456,0.192 -3.168,1.224 -6,2.304 -2.832,1.056 -6.072,2.304 -7.2,2.736 -1.128,0.432 -4.368,1.68 -7.2,2.76 -2.832,1.08 -5.808,2.208 -6.6,2.52 -0.792,0.288 -1.704,0.624 -2.016,0.72 l -0.576,0.168 0.144,-18.672 c 0.072,-10.296 0.216,-18.864 0.288,-19.104 0.096,-0.216 0.936,-0.672 1.872,-1.032 2.592,-0.984 13.2,-4.824 20.088,-7.296 3.36,-1.224 7.248,-2.616 8.64,-3.144 1.392,-0.504 2.76,-0.936 3.072,-0.936 l 0.528,-0.024 0,12.288 z m -93.96,7.896 c 4.488,0.912 10.224,2.088 12.72,2.616 2.52,0.528 7.488,1.56 11.04,2.28 7.416,1.512 14.784,3.048 22.2,4.584 2.832,0.576 6.888,1.416 9,1.848 l 3.84,0.792 0.048,8.616 c 0.048,5.208 -0.024,8.784 -0.168,9 -0.24,0.408 1.248,0.672 -25.2,-4.704 -7.464,-1.512 -22.584,-4.584 -33.6,-6.816 -19.008,-3.84 -36.12,-7.344 -38.76,-7.92 -1.272,-0.264 -1.992,-0.6 -1.776,-0.816 0.144,-0.144 4.488,-1.752 12.216,-4.512 9.264,-3.288 12,-4.272 15.6,-5.616 2.232,-0.816 3.696,-1.224 4.08,-1.152 0.336,0.072 4.272,0.888 8.76,1.8 z" />
  <path
     style="fill:#000000;stroke:none"
     inkscape:connector-curvature="0"
     id="path3011"
     d="m 67.2,244.824 c -0.648,0.408 -6,2.616 -6.36,2.616 -0.168,0 -0.408,0.096 -0.48,0.24 -0.072,0.12 -0.312,0.24 -0.48,0.24 -0.192,0 -0.912,0.264 -1.608,0.576 -2.712,1.224 -3.552,1.56 -3.552,1.416 0,-0.072 -0.144,-0.024 -0.312,0.12 -0.168,0.144 -1.344,0.672 -2.592,1.152 -1.248,0.48 -3.384,1.344 -4.752,1.944 -1.368,0.6 -2.616,1.104 -2.76,1.152 -0.312,0.048 -1.056,0.336 -1.704,0.624 -1.944,0.84 -3.264,1.392 -3.36,1.392 -0.072,0 -0.432,0.168 -0.792,0.36 -0.384,0.192 -1.416,0.6 -2.352,0.936 -0.912,0.312 -2.136,0.792 -2.736,1.056 -1.392,0.648 -4.56,1.968 -4.632,1.968 -0.096,-0.024 -1.224,0.432 -3.456,1.368 -1.152,0.48 -2.208,0.888 -2.352,0.912 -0.12,0.024 -0.48,0.168 -0.744,0.336 -0.288,0.144 -0.576,0.192 -0.672,0.12 -0.072,-0.072 -0.144,-0.024 -0.144,0.12 0,0.168 -0.168,0.288 -0.36,0.288 -0.504,0 -3,1.128 -3,1.368 0,0.096 0,6.12 0,13.392 0,7.248 -0.072,14.136 -0.144,15.264 l -0.168,2.064 -0.864,0.288 c -0.48,0.168 -1.176,0.456 -1.584,0.624 -0.384,0.168 -1.632,0.696 -2.76,1.152 -1.128,0.456 -3,1.224 -4.2,1.728 -1.176,0.48 -3.024,1.2 -4.08,1.584 -1.056,0.384 -2.016,0.816 -2.136,0.936 -0.24,0.24 -0.528,18.168 -0.288,19.056 0.12,0.504 0.456,0.624 3.432,1.224 3.168,0.624 6.072,1.176 7.632,1.464 0.408,0.072 1.368,0.288 2.16,0.48 0.792,0.192 2.688,0.552 4.2,0.816 1.512,0.264 3.792,0.672 5.04,0.936 2.784,0.552 7.032,1.392 8.16,1.584 0.456,0.072 1.32,0.264 1.92,0.384 0.888,0.192 6.216,1.224 8.16,1.56 0.336,0.048 1.296,0.264 2.16,0.432 0.864,0.192 1.944,0.408 2.4,0.48 0.456,0.072 1.872,0.36 3.12,0.624 1.248,0.288 2.616,0.552 3.024,0.6 0.768,0.12 2.496,-0.456 12.408,-4.104 l 5.712,-2.088 3.528,0.648 c 1.944,0.36 4.824,0.936 6.408,1.248 1.584,0.336 3.168,0.648 3.552,0.696 0.744,0.12 6.144,1.152 13.248,2.544 2.616,0.504 5.088,0.936 5.472,0.936 0.36,0 1.152,-0.216 1.728,-0.48 0.96,-0.432 9.84,-4.008 13.56,-5.448 2.616,-1.008 2.496,-0.696 2.472,-6.672 0,-2.832 -0.072,-5.256 -0.168,-5.328 -0.144,-0.144 -8.952,-2.016 -10.944,-2.328 -0.816,-0.12 -5.016,-0.864 -5.76,-1.008 -0.336,-0.072 -1.128,-0.216 -1.8,-0.336 -0.648,-0.096 -1.68,-0.312 -2.28,-0.456 -0.912,-0.216 -2.328,-0.48 -8.04,-1.56 -2.448,-0.48 -4.344,-0.936 -4.56,-1.104 -0.192,-0.144 -0.264,-1.32 -0.216,-3.528 0.024,-1.824 0,-3.648 -0.072,-4.08 -0.12,-0.72 -0.192,-0.768 -1.704,-1.032 -1.752,-0.288 -5.448,-1.008 -8.088,-1.56 -0.912,-0.168 -2.928,-0.576 -4.44,-0.864 -1.512,-0.288 -4.32,-0.84 -6.24,-1.224 -1.92,-0.384 -3.744,-0.744 -4.08,-0.792 -0.336,-0.048 -1.344,-0.24 -2.28,-0.432 -0.912,-0.216 -2.64,-0.552 -3.84,-0.768 -3.384,-0.648 -3.048,0.408 -2.976,-9.12 0.024,-4.536 0.12,-8.352 0.192,-8.472 0.216,-0.312 1.416,-0.912 3.288,-1.608 0.912,-0.336 1.872,-0.696 2.136,-0.816 0.264,-0.096 0.744,-0.312 1.08,-0.432 0.336,-0.144 1.008,-0.432 1.512,-0.648 0.504,-0.216 1.56,-0.6 2.328,-0.864 0.792,-0.264 1.992,-0.744 2.688,-1.056 0.696,-0.312 1.896,-0.792 2.664,-1.056 1.392,-0.456 1.416,-0.456 3.6,0 1.992,0.432 2.784,0.6 3.36,0.648 0.096,0.024 0.168,1.8 0.168,3.96 0,2.472 0.096,4.008 0.24,4.104 0.144,0.096 0.6,0.216 1.032,0.264 0.432,0.048 3.792,0.696 7.488,1.416 3.696,0.744 7.056,1.392 7.44,1.44 0.72,0.12 2.688,0.504 3.6,0.72 0.72,0.168 1.32,0.288 2.52,0.48 0.6,0.072 1.416,0.24 1.8,0.36 0.408,0.12 1.152,0.288 1.656,0.36 0.528,0.072 1.008,0.192 1.08,0.264 0.096,0.096 0.264,5.856 0.264,8.928 0,0.6 0.264,0.696 3.6,1.272 1.512,0.264 3.96,0.744 5.448,1.08 l 2.664,0.6 4.056,-1.584 c 2.208,-0.888 4.824,-1.872 5.76,-2.232 l 1.752,-0.624 0.048,-5.376 0.072,-5.352 0.6,-0.336 c 0.96,-0.504 12.912,-5.376 13.56,-5.496 0.144,-0.024 0.72,-0.288 1.32,-0.552 1.152,-0.528 1.44,-0.648 3.12,-1.272 l 1.08,-0.384 0.072,-5.496 c 0.024,-3.432 -0.024,-5.568 -0.192,-5.736 -0.12,-0.12 -0.432,-0.264 -0.648,-0.288 -1.584,-0.24 -2.448,-0.408 -3.192,-0.576 -0.456,-0.12 -1.272,-0.288 -1.8,-0.36 -0.528,-0.096 -1.392,-0.24 -1.92,-0.36 -0.528,-0.12 -1.344,-0.264 -1.8,-0.36 -1.248,-0.192 -6.168,-1.152 -9.96,-1.944 -0.264,-0.048 -0.864,-0.168 -1.32,-0.24 -0.456,-0.072 -1.008,-0.192 -1.2,-0.264 -0.192,-0.072 -0.576,-0.168 -0.84,-0.216 -1.368,-0.192 -5.064,-0.912 -9.36,-1.776 -2.64,-0.552 -5.16,-1.032 -5.616,-1.104 -0.456,-0.048 -1.32,-0.216 -1.92,-0.36 -0.6,-0.144 -1.416,-0.312 -1.824,-0.36 -0.384,-0.072 -1.536,-0.288 -2.52,-0.48 -0.984,-0.216 -2.064,-0.432 -2.4,-0.48 -0.696,-0.12 -2.544,-0.48 -4.92,-0.936 -0.912,-0.192 -2.808,-0.552 -4.2,-0.816 -1.392,-0.264 -2.688,-0.528 -2.88,-0.6 -0.192,-0.072 -1.008,-0.24 -1.8,-0.36 -0.792,-0.12 -2.784,-0.504 -4.44,-0.864 -1.656,-0.336 -3.312,-0.696 -3.72,-0.744 -0.936,-0.168 -5.112,-0.96 -8.136,-1.536 -2.664,-0.528 -2.76,-0.552 -3.264,-0.216 z m 12,2.568 c 5.352,1.08 13.344,2.64 17.76,3.504 4.416,0.864 11.712,2.28 16.2,3.144 32.856,6.384 31.872,6.192 31.968,6.504 0.048,0.144 -1.824,1.032 -4.176,1.992 -2.352,0.984 -4.872,2.016 -5.592,2.328 -0.72,0.312 -5.4,2.184 -10.392,4.176 -10.152,4.032 -9.792,3.936 -13.8,3.144 -1.296,-0.264 -6.264,-1.248 -11.088,-2.184 -4.824,-0.936 -10.056,-1.944 -11.64,-2.28 -1.584,-0.312 -4.344,-0.84 -6.12,-1.2 -4.056,-0.768 -4.032,-0.768 -3.576,-1.176 0.192,-0.168 3,-1.392 6.264,-2.688 4.488,-1.776 5.952,-2.472 5.952,-2.784 0,-0.48 -0.12,-0.528 -3.72,-1.152 -1.584,-0.288 -3.624,-0.672 -4.56,-0.864 -5.304,-1.152 -10.968,-2.256 -11.472,-2.256 -0.504,0 -2.112,0.576 -10.608,3.84 -1.32,0.504 -3.48,1.32 -4.8,1.8 -1.32,0.504 -4.656,1.752 -7.44,2.808 -2.76,1.056 -6.072,2.256 -7.32,2.712 -1.248,0.456 -2.88,1.032 -3.6,1.296 l -1.344,0.48 L 28.464,267 c -8.136,-1.632 -8.304,-1.68 -8.304,-1.992 0,-0.24 1.272,-0.792 10.44,-4.488 13.92,-5.64 34.32,-13.92 36.48,-14.832 0.528,-0.216 1.296,-0.36 1.68,-0.312 0.408,0.048 5.088,0.96 10.44,2.016 z M 80.496,258 c 4.632,0.936 8.592,1.752 8.784,1.824 0.504,0.192 0.096,0.36 -6.648,3.12 l -5.832,2.352 0,1.632 c 0,1.272 -0.072,1.632 -0.36,1.632 -0.336,0 -2.016,-0.312 -4.008,-0.744 l -1.152,-0.264 0,-5.448 c 0,-3 0.072,-5.544 0.168,-5.616 0.24,-0.24 0.072,-0.288 9.048,1.512 z m -9.816,3.72 c 0,2.76 -0.072,5.208 -0.168,5.448 -0.096,0.24 -3.36,1.656 -8.832,3.84 l -8.688,3.432 0.072,4.68 c 0.048,2.568 0.072,6.552 0.048,8.832 l -0.072,4.152 -4.008,1.944 c -2.232,1.056 -5.592,2.688 -7.512,3.6 -5.376,2.616 -5.52,2.664 -5.688,2.184 -0.072,-0.192 -0.072,-4.824 0,-10.248 C 35.928,284.16 36,277.368 36,274.512 l 0,-5.232 0.912,-0.384 c 0.936,-0.384 4.68,-1.8 10.848,-4.056 5.808,-2.136 6.384,-2.352 14.4,-5.4 4.152,-1.56 7.776,-2.832 8.04,-2.808 0.456,0.048 0.48,0.216 0.48,5.088 z m 75.744,0.648 c 0.024,0.696 0.024,2.616 0,4.272 0,1.656 -0.024,3.24 -0.024,3.528 0,0.648 0.936,0.216 -10.56,4.848 -4.824,1.92 -8.88,3.6 -9.024,3.696 -0.192,0.12 -0.288,1.752 -0.312,5.376 -0.024,2.856 -0.096,5.28 -0.216,5.4 -0.192,0.168 -7.968,3.288 -9.456,3.768 -0.504,0.168 -1.008,0.24 -1.152,0.144 -0.264,-0.168 -0.312,-17.232 -0.048,-19.128 0.096,-0.864 0.12,-0.864 3.024,-2.064 1.584,-0.672 4.8,-1.968 7.104,-2.904 2.304,-0.912 7.776,-3.12 12.12,-4.896 4.368,-1.8 8.064,-3.264 8.232,-3.264 0.192,-0.024 0.288,0.384 0.312,1.224 z m -119.304,4.944 8.04,1.608 0.072,12.36 c 0.048,6.792 0,13.8 -0.072,15.528 -0.144,2.88 -0.216,3.192 -0.6,3.192 -0.96,0 -15.384,-3.552 -15.768,-3.888 -0.288,-0.216 -0.312,-2.832 -0.192,-15.048 0.144,-13.416 0.192,-15.408 0.408,-15.384 0.048,0.024 3.696,0.744 8.112,1.632 z m 55.8,-0.048 c 1.728,0.336 4.968,0.96 7.2,1.416 2.256,0.432 8.664,1.68 14.28,2.784 5.616,1.08 10.272,2.088 10.368,2.232 0.216,0.312 0.264,18.648 0.048,19.2 -0.216,0.552 -1.056,0.48 -5.976,-0.528 l -4.32,-0.888 -0.072,-4.728 c -0.048,-4.68 -0.072,-4.752 -0.6,-4.872 -0.648,-0.144 -5.112,-1.008 -16.608,-3.24 -4.872,-0.936 -9.072,-1.752 -9.288,-1.824 -0.384,-0.12 -0.432,-0.576 -0.432,-5.304 l 0,-5.16 1.152,0.168 c 0.624,0.072 2.544,0.432 4.248,0.744 z m -21.528,27 c 4.056,0.792 10.896,2.136 15.216,2.976 8.592,1.656 8.976,1.752 8.688,2.04 -0.24,0.216 -10.056,4.128 -28.272,11.28 -2.088,0.816 -3.432,1.2 -4.176,1.2 -1.008,0 -4.536,-0.6 -9.888,-1.68 -1.248,-0.264 -4.272,-0.84 -6.72,-1.296 -5.88,-1.104 -23.4,-4.488 -28.08,-5.424 -2.04,-0.408 -3.816,-0.84 -3.936,-0.96 -0.216,-0.216 -0.24,-0.216 5.376,-2.52 2.04,-0.84 4.536,-1.848 5.52,-2.256 0.984,-0.408 2.088,-0.744 2.472,-0.744 0.648,0 4.632,0.816 8.064,1.656 1.008,0.24 3.12,0.744 4.704,1.104 1.584,0.36 3.288,0.792 3.792,0.984 1.344,0.504 1.872,0.432 3.936,-0.576 1.032,-0.528 3.768,-1.848 6.072,-2.952 2.304,-1.104 5.232,-2.52 6.48,-3.144 1.248,-0.624 2.52,-1.128 2.832,-1.128 0.312,-0.024 3.864,0.624 7.92,1.44 z m 25.488,9.168 c 0,2.568 -0.096,3.792 -0.288,4.08 -0.168,0.24 -3.72,1.776 -7.872,3.432 -4.152,1.632 -7.704,3.072 -7.872,3.168 -0.264,0.144 -0.336,1.344 -0.36,5.568 l -0.048,5.4 -1.968,0.792 c -1.08,0.432 -3.024,1.152 -4.32,1.632 -8.64,3.144 -10.056,3.624 -10.224,3.48 -0.096,-0.096 -0.144,-4.32 -0.12,-9.36 l 0.072,-9.192 2.76,-1.08 c 1.512,-0.6 5.616,-2.232 9.12,-3.6 3.504,-1.392 8.952,-3.528 12.12,-4.776 3.168,-1.248 6.24,-2.472 6.84,-2.712 0.6,-0.264 1.32,-0.48 1.632,-0.48 0.528,-0.024 0.528,0 0.528,3.648 z M 5.64,303.48 c 1.2,0.216 4.656,0.864 7.68,1.44 3.048,0.576 8.448,1.608 12,2.28 3.576,0.672 7.776,1.488 9.36,1.8 1.584,0.312 6.312,1.224 10.512,2.064 7.392,1.44 7.656,1.512 7.872,2.112 0.24,0.6 0.264,15.96 0.048,17.16 -0.168,0.792 -0.336,0.792 -4.656,-0.072 -1.896,-0.408 -6.36,-1.272 -9.936,-1.944 -3.552,-0.672 -8.04,-1.536 -9.96,-1.944 -1.92,-0.384 -5.16,-1.008 -7.2,-1.416 -2.04,-0.384 -4.752,-0.912 -6,-1.176 -1.248,-0.24 -4.608,-0.912 -7.44,-1.464 -2.832,-0.552 -5.256,-1.104 -5.376,-1.224 -0.24,-0.216 -0.24,-17.4 0,-17.784 0.168,-0.264 0.624,-0.24 3.096,0.168 z M 93.576,309 c 3.12,0.6 8.808,1.704 12.624,2.424 11.592,2.16 13.344,2.544 13.248,2.832 -0.144,0.48 -14.616,6.144 -15.672,6.144 -0.6,0 -22.2,-4.056 -28.488,-5.352 -1.44,-0.288 -2.616,-0.624 -2.64,-0.768 -0.024,-0.12 3.216,-1.536 7.224,-3.144 3.984,-1.584 7.32,-2.976 7.416,-3.048 0.216,-0.24 0.144,-0.264 6.288,0.912 z m -11.928,7.896 c 19.608,3.744 21.864,4.2 22.08,4.512 0.12,0.168 0.168,1.272 0.096,2.448 -0.072,1.176 -0.144,3.264 -0.144,4.632 0,2.448 0,2.472 -0.576,2.472 -0.312,0 -3.312,-0.528 -6.648,-1.176 -3.36,-0.648 -7.656,-1.464 -9.576,-1.824 -7.2,-1.344 -15.384,-3 -15.6,-3.12 -0.144,-0.096 -0.24,-2.136 -0.24,-4.92 0,-4.824 0.072,-5.16 0.888,-4.92 0.168,0.048 4.536,0.912 9.72,1.896 z m 39,2.544 c 0.048,2.448 0,4.56 -0.12,4.704 -0.168,0.264 -14.28,5.928 -15.456,6.216 l -0.672,0.168 0,-4.656 0,-4.68 0.672,-0.288 c 0.36,-0.168 3.504,-1.44 7.008,-2.808 3.504,-1.392 6.696,-2.664 7.08,-2.856 1.44,-0.672 1.44,-0.672 1.488,4.2 z" />
  <text
     xml:space="preserve"
     style="font-size:8.64000034px;font-style:normal;font-variant:normal;font-weight:bold;font-stretch:normal;text-indent:0;text-align:start;text-decoration:none;line-height:125%;letter-spacing:0px;word-spacing:0px;text-transform:none;direction:ltr;block-progression:tb;writing-mode:lr-tb;text-anchor:start;baseline-shift:baseline;color:#000000;fill:#000000;fill-opacity:1;fill-rule:nonzero;stroke:none;stroke-width:1.24999988px;marker:none;visibility:visible;display:inline;overflow:visible;enable-background:accumulate;font-family:Linux Libertine O;-inkscape-font-specification:Sans"
     x="65.919617"
     y="111.12702"
     id="text3058"
     sodipodi:linespacing="125%"><tspan
       sodipodi:role="line"
       id="tspan3060"
       x="65.919617"
       y="111.12702">(a)</tspan></text>
  <text
     xml:space="preserve"
     style="font-size:8.64000034px;font-style:normal;font-variant:normal;font-weight:bold;font-stretch:normal;text-indent:0;text-align:start;text-decoration:none;line-height:125%;letter-spacing:0px;word-spacing:0px;text-transform:none;direction:ltr;block-progression:tb;writing-mode:lr-tb;text-anchor:start;baseline-shift:baseline;color:#000000;fill:#000000;fill-opacity:1;fill-rule:nonzero;stroke:none;stroke-width:1.24999988px;marker:none;visibility:visible;display:inline;overflow:visible;enable-background:accumulate;font-family:Linux Libertine O;-inkscape-font-specification:Sans"
     x="65.655624"
     y="224.36652"
     id="text3062"
     sodipodi:linespacing="125%"><tspan
       sodipodi:role="line"
       id="tspan3064"
       x="65.655624"
       y="224.36652">(b)</tspan></text>
  <text
     xml:space="preserve"
     style="font-size:8.64000034px;font-style:normal;font-variant:normal;font-weight:bold;font-stretch:normal;text-indent:0;text-align:start;text-decoration:none;line-height:125%;letter-spacing:0px;word-spacing:0px;text-transform:none;direction:ltr;block-progression:tb;writing-mode:lr-tb;text-anchor:start;baseline-shift:baseline;color:#000000;fill:#000000;fill-opacity:1;fill-rule:nonzero;stroke:none;stroke-width:1.24999988px;marker:none;visibility:visible;display:inline;overflow:visible;enable-background:accumulate;font-family:Linux Libertine O;-inkscape-font-specification:Sans"
     x="66.190826"
     y="339.24719"
     id="text3066"
     sodipodi:linespacing="125%"><tspan
       sodipodi:role="line"
       id="tspan3068"
       x="66.190826"
       y="339.24719">(c)</tspan></text>
</svg>
