<?xml version="1.0" encoding="UTF-8" standalone="no"?>
<svg
   xmlns:dc="http://purl.org/dc/elements/1.1/"
   xmlns:cc="http://creativecommons.org/ns#"
   xmlns:rdf="http://www.w3.org/1999/02/22-rdf-syntax-ns#"
   xmlns:svg="http://www.w3.org/2000/svg"
   xmlns="http://www.w3.org/2000/svg"
   xmlns:sodipodi="http://sodipodi.sourceforge.net/DTD/sodipodi-0.dtd"
   xmlns:inkscape="http://www.inkscape.org/namespaces/inkscape"
   version="1.0"
   width="190.800000pt"
   height="424.800000pt"
   viewBox="0 0 190.800000 424.800000"
   preserveAspectRatio="xMidYMid meet"
   id="svg3011"
   inkscape:version="0.48.4 r9939"
   sodipodi:docname="black.svg">
  <defs
     id="defs3231" />
  <sodipodi:namedview
     pagecolor="#ffffff"
     bordercolor="#666666"
     borderopacity="1"
     objecttolerance="10"
     gridtolerance="10"
     guidetolerance="10"
     inkscape:pageopacity="0"
     inkscape:pageshadow="2"
     inkscape:window-width="1280"
     inkscape:window-height="996"
     id="namedview3229"
     showgrid="false"
     inkscape:zoom="0.80932313"
     inkscape:cx="59.964381"
     inkscape:cy="102.84457"
     inkscape:window-x="0"
     inkscape:window-y="0"
     inkscape:window-maximized="1"
     inkscape:current-layer="svg3011" />
  <metadata
     id="metadata3013">
Created by potrace 1.10, written by Peter Selinger 2001-2011
<rdf:RDF>
  <cc:Work
     rdf:about="">
    <dc:format>image/svg+xml</dc:format>
    <dc:type
       rdf:resource="http://purl.org/dc/dcmitype/StillImage" />
    <dc:title></dc:title>
  </cc:Work>
</rdf:RDF>
</metadata>
  <rect
     style="fill:#b9b9b9;fill-opacity:1;stroke:none"
     id="rect4176"
     width="49.037075"
     height="424.79999"
     x="-31.719685"
     y="1.2207031e-05" />
  <path
     style="fill:#b9b9b9;stroke:none"
     d="M 0 0 L 0 265.5 L 0 531 L 119.25 531 L 238.5 531 L 238.5 265.5 L 238.5 0 L 119.25 0 L 0 0 z M 64.75 358.8125 C 65.35 358.8125 66.37 358.87875 67 358.96875 C 68.08 359.14875 68.0925 359.20625 68.0625 360.40625 C 68.0625 361.06625 67.83125 362.31625 67.53125 363.15625 C 66.99125 364.71625 66.545 365.0025 64.625 365.0625 C 63.545 365.0925 63.34125 364.71 63.28125 362.25 C 63.22125 360.93 63.17875 361.02 62.96875 363 C 62.84875 364.23 62.815 365.3475 62.875 365.4375 C 62.935 365.5575 62.67 365.92 62.25 366.25 C 61.38 366.94 61.25125 368.09 62.03125 368.75 C 63.89125 370.4 66.025 370.5675 68.125 369.1875 C 69.565 368.2275 69.7625 366.9925 68.5625 366.0625 C 67.4525 365.1925 67.62625 364.27 69.15625 362.5 C 69.93625 361.63 70.3675 360.87 70.1875 360.75 C 69.7075 360.45 69.835 359.17875 70.375 358.96875 C 70.645 358.84875 71.105 358.97875 71.375 359.21875 C 71.855 359.63875 77.1175 360.54 89.6875 362.25 C 98.0875 363.42 102.5525 364.13625 103.0625 364.40625 C 103.4525 364.64625 103.44625 364.77375 102.90625 365.34375 C 102.54625 365.70375 95.4325 369.39 87.0625 373.5 C 78.6925 377.64 71.61375 381.1625 71.34375 381.3125 C 71.04375 381.4925 70.48375 381.59375 70.09375 381.59375 C 68.92375 381.59375 63.1525 380.33125 63.0625 380.03125 C 63.0025 379.91125 62.47625 379.8125 61.90625 379.8125 C 61.33625 379.8125 58.73625 379.35125 56.15625 378.78125 C 53.57625 378.21125 48.7375 377.19 45.4375 376.5 C 38.3575 375.03 25.51 372.305 25 372.125 C 24.79 372.065 24.59375 371.70125 24.59375 371.28125 C 24.59375 370.62125 24.91 370.45875 28 369.46875 C 29.83 368.86875 31.96875 368.17625 32.71875 367.90625 C 33.49875 367.66625 34.45625 367.5675 34.90625 367.6875 C 35.47625 367.8075 35.6875 367.73625 35.6875 367.40625 C 35.6875 367.10625 36.68125 366.66125 38.78125 366.03125 C 45.29125 363.96125 53.43625 361.385 57.15625 360.125 C 61.59625 358.655 62.73 358.5475 63 359.6875 L 63.1875 360.4375 L 63.375 359.625 C 63.555 358.935 63.76 358.8125 64.75 358.8125 z M 104.9375 365.6875 L 105.90625 365.6875 L 105.96875 375.65625 C 106.02875 381.14625 106.03125 386.94 106.03125 388.5 C 106.00125 390.06 105.9675 394.43875 105.9375 398.21875 L 105.875 405.0625 L 104.375 404.9375 C 102.725 404.7575 102.02875 405.19875 103.46875 405.46875 C 104.21875 405.61875 104.40625 405.80875 104.40625 406.46875 C 104.40625 407.06875 104.08 407.5 103 408.25 C 100.84 409.72 99.48625 410.66625 99.15625 410.90625 C 99.00625 411.05625 98.25 411.5525 97.5 412.0625 C 96.75 412.5425 96.09 413.00375 96 413.09375 C 95.91 413.18375 94.92 413.87625 93.75 414.65625 C 91.65 416.03625 83.5075 421.55 82.9375 422 C 82.6375 422.24 81.3425 423.14 75.3125 427.25 C 72.4025 429.23 71.445 429.70375 70.875 429.34375 C 70.485 429.10375 70.29625 383.06875 70.65625 382.46875 C 70.77625 382.28875 78.31625 378.43625 87.40625 373.90625 C 98.56625 368.38625 104.2775 365.7175 104.9375 365.6875 z M 22.53125 372.625 C 23.27375 372.63625 24.26125 372.7425 25.28125 372.9375 C 26.21125 373.1475 26.9025 373.41125 26.8125 373.53125 C 26.7225 373.68125 26.88625 373.715 27.15625 373.625 C 27.75625 373.385 35.74125 375.04375 35.53125 375.34375 C 35.44125 375.49375 35.5725 375.49625 35.8125 375.40625 C 36.0525 375.31625 37.665 375.54625 39.375 375.90625 C 45.735 377.22625 56.6575 379.56625 60.4375 380.40625 C 62.5975 380.88625 65.56 381.51125 67 381.78125 L 69.65625 382.28125 L 69.53125 387.1875 C 69.47125 389.8575 69.535 391.96625 69.625 391.90625 C 69.715 391.84625 69.845 395.7625 69.875 400.5625 L 69.9375 409.28125 L 68.78125 409.03125 C 65.69125 408.37125 62.84625 409.03125 62.15625 410.53125 C 61.79625 411.34125 62.2575 412.33375 63.1875 412.84375 C 64.2675 413.41375 64.13375 414.72 62.84375 416.25 C 61.97375 417.33 61.85 417.6925 62 418.5625 C 62.15 419.6125 62.18875 419.60875 62.96875 419.21875 C 63.62875 418.88875 63.8325 418.47625 64.3125 416.40625 C 64.7925 414.21625 64.905 413.96375 65.625 413.84375 C 66.075 413.75375 66.93125 413.55625 67.53125 413.40625 C 68.13125 413.22625 68.92125 413.09375 69.28125 413.09375 C 69.91125 413.09375 69.90625 413.11625 69.90625 421.15625 C 69.90625 425.59625 69.80875 429.44875 69.71875 429.71875 C 69.41875 430.52875 68.70875 430.40875 60.96875 428.21875 C 60.09875 427.97875 59.4725 427.65 59.5625 427.5 C 59.6825 427.32 59.6525 426.9225 59.5625 426.5625 L 59.34375 425.96875 L 58.8125 426.5625 C 58.1825 427.3125 57.31 427.35 55 426.75 C 52.51 426.06 37.67375 422.24375 31.34375 420.59375 C 24.08375 418.73375 23.6875 418.57625 23.6875 417.40625 C 23.6875 416.83625 24.0125 416.5425 25.0625 416.0625 C 26.5925 415.3425 26.65625 414.95875 25.15625 415.46875 C 23.83625 415.91875 22.93125 415.8825 22.03125 415.3125 L 21.28125 414.8125 L 21.28125 403.96875 C 21.28125 397.99875 21.215 388.91 21.125 383.75 C 20.945 374.84 20.95875 374.32625 21.46875 373.90625 C 21.88875 373.57625 21.9275 373.4025 21.6875 373.3125 C 21.4775 373.2225 21.3125 373.025 21.3125 372.875 C 21.3125 372.695 21.78875 372.61375 22.53125 372.625 z "
     transform="scale(0.8,0.8)"
     id="path8" />
  <g
     id="g4164">
    <path
       sodipodi:nodetypes="cc"
       transform="scale(0.8,0.8)"
       inkscape:connector-curvature="0"
       id="path3287"
       d="M 46.901025,170.47576 C 73.41983,98.590081 143.77137,29.553526 143.77137,29.553526"
       style="color:#000000;fill:none;stroke:#ffffff;stroke-width:1.25000000000000000;stroke-linecap:butt;stroke-linejoin:miter;stroke-miterlimit:4;stroke-opacity:1;stroke-dasharray:none;stroke-dashoffset:0;marker:none;visibility:visible;display:inline;overflow:visible;enable-background:accumulate" />
    <path
       sodipodi:nodetypes="cc"
       transform="scale(0.8,0.8)"
       inkscape:connector-curvature="0"
       id="path3289"
       d="M 50.845971,179.46148 C 83.720519,104.72666 175.98843,34.375126 175.98843,34.375126"
       style="color:#000000;fill:none;stroke:#ffffff;stroke-width:1.25000000000000000;stroke-linecap:butt;stroke-linejoin:miter;stroke-miterlimit:4;stroke-opacity:1;stroke-dasharray:none;stroke-dashoffset:0;marker:none;visibility:visible;display:inline;overflow:visible;enable-background:accumulate" />
    <path
       sodipodi:nodetypes="cc"
       transform="scale(0.8,0.8)"
       inkscape:connector-curvature="0"
       id="path3291"
       d="M 59.612518,172.6674 C 100.37696,108.01412 185.63163,54.538184 185.63163,54.538184"
       style="color:#000000;fill:none;stroke:#ffffff;stroke-width:1.25000000000000000;stroke-linecap:butt;stroke-linejoin:miter;stroke-miterlimit:4;stroke-opacity:1;stroke-dasharray:none;stroke-dashoffset:0;marker:none;visibility:visible;display:inline;overflow:visible;enable-background:accumulate" />
    <path
       sodipodi:nodetypes="cc"
       transform="scale(0.8,0.8)"
       inkscape:connector-curvature="0"
       id="path3293"
       d="M 67.064083,172.22907 C 123.38914,102.31586 193.74068,65.715531 193.74068,65.715531"
       style="color:#000000;fill:none;stroke:#ffffff;stroke-width:1.25000000000000000;stroke-linecap:butt;stroke-linejoin:miter;stroke-miterlimit:4;stroke-opacity:1;stroke-dasharray:none;stroke-dashoffset:0;marker:none;visibility:visible;display:inline;overflow:visible;enable-background:accumulate" />
    <path
       sodipodi:nodetypes="cc"
       transform="scale(0.8,0.8)"
       inkscape:connector-curvature="0"
       id="path3295"
       d="M 65.310773,182.09144 C 105.85605,132.99878 195.93232,128.6155 195.93232,128.6155"
       style="color:#000000;fill:none;stroke:#ffffff;stroke-width:1.25000000000000000;stroke-linecap:butt;stroke-linejoin:miter;stroke-miterlimit:4;stroke-opacity:1;stroke-dasharray:none;stroke-dashoffset:0;marker:none;visibility:visible;display:inline;overflow:visible;enable-background:accumulate" />
    <path
       inkscape:connector-curvature="0"
       id="path4067"
       d="m 91.187079,49.755331 -7.599103,5.134526 4.107627,2.464573 z"
       style="color:#000000;fill:#ffffff;fill-opacity:1;stroke:none;stroke-width:1.25;marker:none;visibility:visible;display:inline;overflow:visible;enable-background:accumulate" />
    <path
       inkscape:connector-curvature="0"
       id="path4067-9"
       d="m 110.77471,53.229467 -7.91439,4.633804 3.94015,2.724328 z"
       style="color:#000000;fill:#ffffff;fill-opacity:1;stroke:none;stroke-width:1.25;marker:none;visibility:visible;display:inline;overflow:visible;enable-background:accumulate" />
    <path
       inkscape:connector-curvature="0"
       id="path4067-5"
       d="m 121.22307,62.958031 -8.4673,3.523456 3.5365,3.231093 z"
       style="color:#000000;fill:#ffffff;fill-opacity:1;stroke:none;stroke-width:1.25;marker:none;visibility:visible;display:inline;overflow:visible;enable-background:accumulate" />
    <path
       inkscape:connector-curvature="0"
       id="path4067-0"
       d="m 125.57641,71.288141 -8.55752,3.298265 3.44979,3.323502 z"
       style="color:#000000;fill:#ffffff;fill-opacity:1;stroke:none;stroke-width:1.25;marker:none;visibility:visible;display:inline;overflow:visible;enable-background:accumulate" />
    <path
       inkscape:connector-curvature="0"
       id="path4067-09"
       d="m 128.69262,106.65032 -9.17114,-0.0114 2.01833,4.34431 z"
       style="color:#000000;fill:#ffffff;fill-opacity:1;stroke:none;stroke-width:1.25;marker:none;visibility:visible;display:inline;overflow:visible;enable-background:accumulate" />
  </g>
  <path
     style="fill:#b9b9b9;stroke:none"
     id="path10"
     d="m 50.424,299.16 c 0,1.536 0.048,1.8 0.24,1.32 0.336,-0.816 0.336,-2.232 0,-2.784 -0.192,-0.36 -0.24,-0.024 -0.24,1.464 z"
     inkscape:connector-curvature="0" />
  <path
     style="fill:#b9b9b9;stroke:none"
     id="path12"
     d="m 57.984,319.176 c 0.144,0.168 0.672,0.336 1.2,0.432 1.272,0.192 0.792,-0.312 -0.504,-0.528 -0.72,-0.144 -0.888,-0.12 -0.696,0.096 z"
     inkscape:connector-curvature="0" />
  <path
     style="fill:#b9b9b9;stroke:none"
     id="path14"
     d="m 61.344,319.896 c 0.12,0.12 1.128,0.384 2.256,0.6 1.128,0.216 2.28,0.456 2.592,0.528 0.288,0.048 0.528,0 0.528,-0.096 0,-0.12 -1.08,-0.456 -2.4,-0.744 -2.664,-0.552 -3.336,-0.624 -2.976,-0.288 z"
     inkscape:connector-curvature="0" />
  <path
     style="fill:#b9b9b9;stroke:none"
     id="path16"
     d="m 68.304,321.336 c 0.12,0.096 1.2,0.384 2.376,0.6 1.2,0.24 2.424,0.48 2.76,0.552 0.48,0.096 0.528,0.072 0.312,-0.168 -0.144,-0.168 -1.224,-0.504 -2.4,-0.744 -2.328,-0.48 -3.408,-0.576 -3.048,-0.24 z"
     inkscape:connector-curvature="0" />
  <path
     style="fill:#b9b9b9;stroke:none"
     id="path18"
     d="m 75.984,322.8 c 0.24,0.24 4.704,1.224 4.872,1.056 0.216,-0.216 -0.216,-0.36 -2.376,-0.816 -2.592,-0.552 -2.832,-0.576 -2.496,-0.24 z"
     inkscape:connector-curvature="0" />
  <path
     style="fill:#b9b9b9;stroke:none"
     id="path20"
     d="m 50.4,311.256 c 0,1.296 0.096,2.184 0.24,2.184 0.144,0 0.24,-0.84 0.24,-2.016 0,-1.128 -0.096,-2.112 -0.24,-2.184 -0.144,-0.096 -0.24,0.648 -0.24,2.016 z"
     inkscape:connector-curvature="0" />
  <path
     style="fill:#b9b9b9;stroke:none"
     id="path22"
     d="m 50.4,316.416 c 0,1.104 -0.072,1.344 -0.48,1.464 -1.008,0.312 -0.408,0.48 1.776,0.48 1.248,0.024 2.232,-0.048 2.184,-0.144 -0.072,-0.072 -0.768,-0.288 -1.56,-0.432 l -1.44,-0.288 0,-1.2 c 0,-0.648 -0.096,-1.176 -0.24,-1.176 -0.12,0 -0.24,0.576 -0.24,1.296 z"
     inkscape:connector-curvature="0" />
  <path
     style="fill:#b9b9b9;stroke:none"
     id="path24"
     d="m 45.48,320.088 c -1.176,0.6 -2.04,1.152 -1.896,1.2 0.288,0.096 4.344,-1.752 4.536,-2.112 0.288,-0.456 -0.528,-0.168 -2.64,0.912 z"
     inkscape:connector-curvature="0" />
  <path
     style="fill:#b9b9b9;stroke:none"
     id="path26"
     d="m 39.48,322.992 c -2.544,1.2 -3,1.464 -3,1.728 0,0.192 3.672,-1.488 5.16,-2.352 1.128,-0.648 -0.36,-0.216 -2.16,0.624 z"
     inkscape:connector-curvature="0" />
  <path
     style="fill:#b9b9b9;stroke:none"
     id="path28"
     d="m 32.184,326.496 c -1.368,0.696 -2.4,1.32 -2.28,1.392 0.336,0.192 5.184,-2.184 5.016,-2.448 -0.072,-0.144 -0.168,-0.24 -0.192,-0.216 -0.024,0 -1.176,0.576 -2.544,1.272 z"
     inkscape:connector-curvature="0" />
  <path
     style="fill:#b9b9b9;stroke:none"
     id="path30"
     d="m 25.44,329.808 c -1.392,0.672 -2.4,1.272 -2.256,1.32 0.336,0.12 4.896,-2.088 4.896,-2.352 0,-0.288 0.216,-0.36 -2.64,1.032 z"
     inkscape:connector-curvature="0" />
  <path
     style="fill:#000000;stroke:none"
     inkscape:connector-curvature="0"
     id="path3017"
     d="m 129.24,71.28 c -0.072,0.096 0.096,0.24 0.336,0.312 0.408,0.096 0.456,0.336 0.408,2.448 -0.048,1.896 -0.144,2.376 -0.456,2.568 -0.792,0.432 -0.384,0.672 1.152,0.672 1.488,0 2.04,-0.288 1.104,-0.6 -0.336,-0.096 -0.432,-0.336 -0.408,-1.104 0.048,-1.008 0.552,-1.584 0.984,-1.152 0.12,0.12 0.24,0.36 0.24,0.504 0,0.144 0.144,0.312 0.312,0.36 0.192,0.072 0.288,-0.24 0.288,-1.104 0,-0.672 -0.072,-1.224 -0.144,-1.224 -0.072,0 -0.336,0.24 -0.552,0.528 -0.672,0.792 -1.176,0.432 -1.128,-0.816 0.024,-0.912 0.096,-1.032 0.624,-1.08 0.336,-0.024 0.768,0.024 0.96,0.096 0.192,0.096 0.48,0.168 0.6,0.168 0.144,0.024 0.264,0.264 0.312,0.552 0.144,0.912 0.528,0.624 0.528,-0.384 l 0,-0.912 -2.52,0 c -1.392,0 -2.592,0.072 -2.64,0.168 z" />
  <path
     style="fill:#000000;stroke:none"
     inkscape:connector-curvature="0"
     id="path3019"
     d="m 78.96,85.992 c -0.864,0.264 -1.728,0.528 -1.92,0.6 -0.672,0.24 -1.08,0.336 -1.488,0.36 -0.24,0.024 -0.432,0.096 -0.432,0.168 0,0.096 -0.672,0.336 -1.488,0.576 -0.84,0.24 -1.992,0.6 -2.592,0.816 -0.6,0.216 -1.176,0.36 -1.296,0.336 -0.12,-0.048 -0.288,0.024 -0.36,0.12 -0.072,0.12 -0.816,0.408 -1.632,0.648 -1.032,0.312 -1.512,0.576 -1.584,0.912 -0.072,0.24 -0.12,3.768 -0.12,7.824 0,8.664 0.024,8.208 -0.312,8.208 -0.456,0 -1.152,1.056 -1.176,1.776 0,0.48 0.24,0.912 0.84,1.488 0.552,0.504 0.84,1.032 0.864,1.464 l 0.024,0.672 0.168,-0.624 c 0.072,-0.336 0.552,-0.96 1.056,-1.392 l 0.888,-0.792 2.736,0.384 c 1.512,0.216 3.432,0.456 4.272,0.528 0.84,0.048 1.992,0.168 2.592,0.264 1.584,0.216 1.872,0.24 3.72,0.408 0.936,0.096 2.232,0.216 2.88,0.288 1.2,0.12 3.168,-0.432 6.12,-1.776 0.6,-0.264 1.992,-0.816 3.12,-1.248 1.128,-0.432 2.16,-0.864 2.28,-0.96 0.144,-0.096 0.792,-0.36 1.464,-0.6 l 1.248,-0.432 -0.072,-9.192 c -0.072,-9.504 -0.096,-9.912 -1.032,-9.888 -0.84,0.024 -5.712,-0.312 -6.288,-0.432 -0.336,-0.072 -1.344,-0.192 -2.28,-0.24 -0.912,-0.072 -2.112,-0.168 -2.64,-0.24 -0.528,-0.048 -1.776,-0.144 -2.76,-0.216 -0.984,-0.072 -2.112,-0.168 -2.52,-0.216 -0.384,-0.048 -1.416,0.12 -2.28,0.408 z m 5.52,0.504 c 0.456,0.072 1.872,0.192 3.12,0.288 2.496,0.144 4.008,0.288 5.28,0.432 0.456,0.048 1.296,0.12 1.872,0.12 1.2,0.024 1.32,0.384 0.24,0.72 -1.512,0.432 -3,0.984 -4.512,1.656 -2.832,1.224 -4.608,1.728 -5.832,1.632 -0.696,-0.048 -1.752,-0.096 -2.376,-0.12 -1.104,-0.024 -1.128,-0.024 -1.2,-0.912 -0.096,-1.2 -0.624,-1.32 -0.72,-0.144 -0.072,0.912 -0.096,0.912 -1.032,0.864 -0.528,-0.024 -1.392,-0.096 -1.92,-0.168 -0.528,-0.048 -2.304,-0.192 -3.96,-0.264 -1.656,-0.096 -3.288,-0.192 -3.648,-0.216 -1.056,-0.048 -0.984,-0.288 0.216,-0.72 0.648,-0.24 1.368,-0.504 1.632,-0.624 0.264,-0.12 1.272,-0.432 2.256,-0.72 0.96,-0.288 2.376,-0.792 3.144,-1.08 0.792,-0.312 1.848,-0.624 2.376,-0.72 l 0.984,-0.168 0,0.984 c 0,1.08 0.456,1.632 0.504,0.576 0.024,-0.36 0.024,-0.768 0,-0.888 -0.168,-0.84 0.552,-0.936 3.576,-0.528 z m 13.656,10.008 0.024,8.688 -1.44,-0.168 c -1.2,-0.144 -1.44,-0.12 -1.44,0.216 0,0.24 0.24,0.36 0.72,0.36 0.912,0 0.936,0.408 0.072,0.768 -0.384,0.144 -1.128,0.456 -1.68,0.696 -0.576,0.264 -1.176,0.456 -1.344,0.456 -0.168,0 -0.408,0.096 -0.552,0.192 -0.12,0.096 -0.816,0.408 -1.536,0.696 -0.72,0.264 -2.064,0.792 -2.976,1.128 -0.912,0.36 -1.68,0.6 -1.728,0.552 -0.144,-0.144 -0.144,-5.16 0,-5.424 0.096,-0.12 0.696,-0.168 1.416,-0.096 0.984,0.096 1.176,0.072 0.96,-0.168 -0.144,-0.168 -0.768,-0.36 -1.368,-0.408 -0.792,-0.096 -1.104,-0.24 -1.104,-0.528 -0.096,-4.296 0,-11.4 0.144,-11.52 0.12,-0.12 1.464,-0.624 2.976,-1.176 1.512,-0.528 3.96,-1.392 5.4,-1.92 1.464,-0.528 2.808,-0.984 3.024,-0.984 0.36,-0.024 0.408,0.768 0.432,8.64 z M 69.792,91.08 c 5.328,0.24 9.72,0.552 10.32,0.72 0.168,0.072 0.288,0.504 0.288,1.08 0,0.984 0.456,1.392 0.504,0.408 0.072,-1.536 -0.048,-1.44 1.896,-1.392 2.904,0.072 2.64,-0.552 2.64,6.048 l 0,5.736 -0.6,0 c -0.336,0 -0.6,0.096 -0.6,0.216 0,0.12 0.264,0.288 0.6,0.36 0.6,0.144 0.6,0.144 0.6,3.144 l 0,2.976 -1.248,-0.096 c -1.128,-0.096 -2.616,-0.24 -4.872,-0.48 -0.384,-0.048 -1.368,-0.144 -2.16,-0.216 -0.792,-0.096 -1.752,-0.216 -2.16,-0.264 -0.384,-0.048 -1.536,-0.168 -2.52,-0.24 -4.2,-0.336 -4.728,-0.576 -2.808,-1.392 0.744,-0.312 0.912,-0.48 0.672,-0.624 -0.192,-0.12 -0.648,-0.072 -1.176,0.144 -0.768,0.312 -0.864,0.312 -1.296,-0.144 -0.24,-0.288 -0.6,-0.504 -0.792,-0.504 -0.264,0 -0.336,-1.32 -0.336,-7.776 -0.024,-7.224 0,-7.8 0.408,-7.896 0.216,-0.048 0.504,-0.048 0.6,0.024 0.12,0.048 1.032,0.144 2.04,0.168 z" />
  <path
     style="fill:#000000;stroke:none"
     inkscape:connector-curvature="0"
     id="path3021"
     d="m 89.88,104.4 c -0.192,0.312 0.096,0.408 2.04,0.72 1.92,0.288 2.16,0.288 2.16,0.024 0,-0.312 -0.792,-0.528 -2.328,-0.648 -0.72,-0.048 -1.392,-0.144 -1.512,-0.216 -0.12,-0.072 -0.264,-0.024 -0.36,0.12 z" />
  <path
     style="fill:#000000;stroke:none"
     inkscape:connector-curvature="0"
     id="path3023"
     d="m 80.568,95.208 c -0.168,0.264 -0.048,4.104 0.144,4.32 0.216,0.192 0.288,-0.84 0.168,-2.688 -0.072,-1.056 -0.192,-1.8 -0.312,-1.632 z" />
  <path
     style="fill:#000000;stroke:none"
     inkscape:connector-curvature="0"
     id="path3025"
     d="m 80.544,100.8 c -0.072,0.192 -0.168,0.84 -0.192,1.416 -0.072,1.008 -0.12,1.056 -1.152,1.392 -0.6,0.192 -1.248,0.528 -1.44,0.72 -0.312,0.336 -0.288,0.36 0.36,0.24 0.408,-0.072 1.296,-0.288 2.016,-0.48 0.768,-0.24 1.488,-0.312 1.8,-0.192 0.264,0.12 0.648,0.144 0.816,0.096 0.576,-0.216 0.288,-0.504 -0.648,-0.672 -1.032,-0.168 -1.248,-0.456 -1.104,-1.488 0.096,-0.816 -0.264,-1.608 -0.456,-1.032 z" />
  <path
     style="fill:#000000;stroke:none"
     inkscape:connector-curvature="0"
     id="path3027"
     d="m 75.12,105.048 c -0.192,0.048 -0.696,0.264 -1.08,0.432 -0.408,0.192 -1.032,0.432 -1.392,0.576 -0.36,0.144 -0.648,0.36 -0.648,0.504 0,0.312 -0.072,0.336 1.968,-0.384 0.96,-0.336 1.944,-0.672 2.184,-0.744 0.216,-0.072 0.408,-0.216 0.408,-0.336 0,-0.24 -0.84,-0.264 -1.44,-0.048 z" />
  <path
     style="fill:#000000;stroke:none"
     inkscape:connector-curvature="0"
     id="path3029"
     d="m 101.136,93.048 c -1.296,2.736 -1.512,3.336 -1.224,3.552 0.36,0.24 4.704,0.264 5.376,0.024 0.264,-0.096 0.336,-0.336 0.24,-0.816 -0.072,-0.36 -0.168,-0.864 -0.216,-1.128 -0.048,-0.264 -0.216,-0.624 -0.36,-0.792 -0.168,-0.168 -0.312,-0.48 -0.312,-0.672 0,-0.192 -0.096,-0.528 -0.216,-0.768 -0.12,-0.216 -0.456,-0.912 -0.744,-1.56 -0.288,-0.624 -0.624,-1.128 -0.744,-1.128 -0.144,0 -0.936,1.488 -1.8,3.288 z M 103.344,93 c 0.216,0.744 0.504,1.392 0.6,1.464 0.12,0.072 0.216,0.312 0.216,0.552 0,0.36 -0.24,0.432 -1.68,0.432 -1.272,0.024 -1.68,-0.072 -1.68,-0.312 0,-0.576 1.536,-3.456 1.824,-3.456 0.168,0 0.48,0.6 0.72,1.32 z" />
  <path
     style="fill:#000000;stroke:none"
     inkscape:connector-curvature="0"
     id="path3031"
     d="m 107.256,93.048 c -0.528,0.576 -0.528,0.6 -0.096,0.432 0.528,-0.216 1.512,-0.24 1.704,-0.048 0.072,0.072 -0.36,0.624 -0.96,1.248 -0.6,0.624 -1.104,1.296 -1.104,1.488 0,0.336 0.072,0.336 0.48,-0.048 0.456,-0.408 0.504,-0.408 1.104,0 0.528,0.336 0.72,0.36 1.2,0.096 0.576,-0.312 0.768,-1.032 0.336,-1.296 -0.144,-0.096 -0.24,0.12 -0.24,0.456 0,0.648 -0.336,0.84 -0.6,0.36 -0.096,-0.144 -0.384,-0.336 -0.672,-0.432 -0.456,-0.168 -0.432,-0.264 0.624,-1.392 0.624,-0.672 1.128,-1.248 1.128,-1.296 0,-0.048 -0.528,-0.12 -1.176,-0.144 -0.984,-0.024 -1.272,0.072 -1.728,0.576 z" />
  <path
     style="fill:#000000;stroke:none"
     inkscape:connector-curvature="0"
     id="path3033"
     d="m 91.056,111.984 c -1.32,2.784 -1.68,4.08 -1.104,4.032 0.144,-0.024 1.392,-0.048 2.76,-0.072 1.344,-0.024 2.592,-0.12 2.784,-0.24 0.264,-0.168 0.072,-0.744 -0.912,-2.976 -0.672,-1.536 -1.224,-2.88 -1.224,-3 0,-0.192 -0.528,-0.528 -0.864,-0.528 -0.048,0 -0.696,1.248 -1.44,2.784 z m 2.472,1.248 c 0.312,0.72 0.48,1.392 0.432,1.512 -0.144,0.192 -3.168,0.144 -3.36,-0.072 -0.072,-0.072 0.264,-0.96 0.744,-2.016 l 0.864,-1.896 0.408,0.576 c 0.216,0.336 0.624,1.176 0.912,1.896 z" />
  <path
     style="fill:#000000;stroke:none"
     inkscape:connector-curvature="0"
     id="path3035"
     d="m 73.488,110.928 c -0.144,0.168 -0.432,0.792 -0.672,1.392 -0.216,0.6 -0.528,1.224 -0.672,1.416 -0.12,0.168 -0.264,0.432 -0.288,0.6 -0.024,0.144 -0.312,0.84 -0.6,1.512 -0.312,0.696 -0.48,1.32 -0.408,1.392 0.072,0.072 1.464,0.144 3.096,0.144 3.576,0.024 3.432,0.456 1.368,-4.104 -1.344,-2.952 -1.32,-2.928 -1.824,-2.352 z m 0.816,2.76 c 0.336,0.768 0.648,1.656 0.648,1.992 0.048,0.576 0,0.6 -1.56,0.672 -1.344,0.048 -1.632,0 -1.632,-0.312 0,-0.6 1.536,-3.72 1.824,-3.72 0.048,0 0.36,0.624 0.72,1.368 z" />
  <path
     style="fill:#000000;stroke:none"
     inkscape:connector-curvature="0"
     id="path3037"
     d="m 97.68,111.696 c -0.36,0.456 -0.504,2.976 -0.216,3.552 0.144,0.24 0.408,0.432 0.624,0.432 0.264,0 0.312,-0.096 0.12,-0.312 -0.144,-0.192 -0.144,-0.864 0,-1.944 0.24,-1.728 0.024,-2.376 -0.528,-1.728 z" />
  <path
     style="fill:#000000;stroke:none"
     inkscape:connector-curvature="0"
     id="path3039"
     d="m 99.864,111.816 c -0.144,0.24 -0.192,0.48 -0.144,0.552 0.072,0.072 -0.024,0.624 -0.216,1.224 -0.192,0.624 -0.24,1.128 -0.144,1.128 0.264,0 -0.12,1.608 -0.48,2.064 -0.264,0.312 -0.36,0.312 -0.744,-0.048 -0.552,-0.48 -0.912,-0.24 -0.552,0.336 0.672,1.056 2.472,-0.168 2.52,-1.704 0,-0.432 0.144,-1.416 0.312,-2.208 0.168,-0.792 0.264,-1.512 0.216,-1.632 -0.168,-0.312 -0.528,-0.192 -0.768,0.288 z" />
  <path
     style="fill:#000000;stroke:none"
     inkscape:connector-curvature="0"
     id="path3041"
     d="m 80.4,113.088 c -0.48,0.504 -0.528,0.528 -0.744,0.12 -0.144,-0.216 -0.384,-0.408 -0.576,-0.408 -0.408,0 -1.08,0.648 -1.08,1.032 0,0.192 0.096,0.168 0.216,-0.048 0.408,-0.624 0.984,-0.096 0.984,0.864 0,1.032 -0.312,1.656 -0.672,1.416 -0.384,-0.216 -0.624,0.336 -0.312,0.648 0.216,0.216 0.408,0.144 0.744,-0.312 l 0.432,-0.576 0.504,0.576 c 0.456,0.576 0.504,0.576 0.888,0.168 0.288,-0.264 0.336,-0.408 0.144,-0.408 -0.168,0 -0.48,-0.384 -0.672,-0.84 -0.408,-0.984 -0.12,-1.8 0.624,-1.8 0.264,0 0.48,-0.144 0.48,-0.336 0,-0.624 -0.432,-0.648 -0.96,-0.096 z" />
  <path
     style="fill:#000000;stroke:none"
     inkscape:connector-curvature="0"
     id="path3043"
     d="m 66.216,115.536 c -0.048,1.152 -0.024,2.232 0.048,2.352 0.24,0.36 0.36,-2.088 0.192,-3.408 -0.096,-0.888 -0.144,-0.696 -0.24,1.056 z" />
  <path
     style="fill:#000000;stroke:none"
     inkscape:connector-curvature="0"
     id="path3045"
     d="m 66.24,128.4 c 0,1.368 0.072,2.424 0.144,2.328 0.192,-0.192 0.192,-4.464 0,-4.656 -0.072,-0.096 -0.144,0.96 -0.144,2.328 z" />
  <path
     style="fill:#000000;stroke:none"
     inkscape:connector-curvature="0"
     id="path3047"
     d="m 66.24,135.24 c 0,1.44 0.072,2.52 0.144,2.448 0.168,-0.168 0.12,-4.776 -0.048,-4.944 -0.048,-0.048 -0.096,1.056 -0.096,2.496 z" />
  <path
     style="fill:#000000;stroke:none"
     inkscape:connector-curvature="0"
     id="path3049"
     d="m 66.24,142.2 c 0,1.44 0.072,2.544 0.144,2.448 0.168,-0.168 0.144,-4.752 -0.024,-4.944 -0.072,-0.048 -0.12,1.056 -0.12,2.496 z" />
  <path
     style="fill:#000000;stroke:none"
     inkscape:connector-curvature="0"
     id="path3053"
     d="m 66.264,149.304 c 0,1.488 0.096,2.304 0.192,2.016 0.192,-0.456 0.072,-4.2 -0.12,-4.416 -0.048,-0.048 -0.096,1.032 -0.072,2.4 z" />
  <path
     style="fill:#000000;stroke:none"
     inkscape:connector-curvature="0"
     id="path3055"
     d="m 104.76,150.624 c -0.384,0.168 -1.536,0.696 -2.52,1.152 -3,1.344 -5.232,2.304 -5.4,2.304 -0.096,0 -0.84,0.312 -1.656,0.696 -0.792,0.384 -1.848,0.864 -2.304,1.056 -0.456,0.192 -1.44,0.624 -2.16,0.936 -0.72,0.336 -2.136,0.96 -3.12,1.392 -0.984,0.432 -2.448,1.08 -3.24,1.44 -3.744,1.704 -4.392,1.992 -5.28,2.352 -0.528,0.192 -1.056,0.456 -1.2,0.576 -0.12,0.096 -0.36,0.192 -0.504,0.192 -0.168,0 -1.08,0.36 -2.064,0.816 -0.96,0.432 -2.928,1.32 -4.392,1.944 -2.76,1.176 -3.192,1.44 -2.928,1.704 0.096,0.096 0.744,-0.12 1.44,-0.456 0.696,-0.36 1.344,-0.648 1.416,-0.648 0.096,0 1.08,-0.408 2.16,-0.912 1.104,-0.504 2.64,-1.176 3.432,-1.488 0.792,-0.312 1.536,-0.648 1.68,-0.768 0.12,-0.096 0.36,-0.192 0.504,-0.192 0.168,0 1.248,-0.432 2.4,-0.984 4.152,-1.92 8.52,-3.864 8.856,-3.936 0.12,-0.024 1.296,-0.552 2.616,-1.152 1.296,-0.624 2.424,-1.128 2.472,-1.128 0.168,0 1.8,-0.72 2.232,-0.984 0.192,-0.12 0.528,-0.288 0.72,-0.36 1.368,-0.528 2.544,-1.032 4.872,-2.112 1.032,-0.48 1.968,-0.864 2.04,-0.864 0.096,0 0.36,-0.168 0.6,-0.336 0.624,-0.48 0.192,-0.624 -0.672,-0.24 z" />
  <path
     style="fill:#000000;stroke:none"
     inkscape:connector-curvature="0"
     id="path3057"
     d="m 66.24,156.36 c 0,1.584 0.096,2.496 0.24,2.4 0.288,-0.168 0.264,-4.632 -0.024,-4.824 -0.12,-0.072 -0.216,1.032 -0.216,2.424 z" />
  <path
     style="fill:#000000;stroke:none"
     inkscape:connector-curvature="0"
     id="path3059"
     d="m 66.336,163.176 c 0.024,1.176 0.096,2.232 0.216,2.328 0.096,0.096 0.168,-0.864 0.168,-2.136 0,-1.272 -0.096,-2.328 -0.192,-2.328 -0.096,0 -0.192,0.96 -0.192,2.136 z" />
  <path
     style="fill:#000000;stroke:none"
     inkscape:connector-curvature="0"
     id="path3061"
     d="m 66.456,167.808 c 0,0.432 -0.024,1.536 -0.072,2.472 -0.024,0.912 0.024,1.944 0.12,2.28 0.096,0.336 0.192,-0.768 0.192,-2.472 0.024,-1.68 -0.024,-3.048 -0.096,-3.048 -0.072,0 -0.12,0.36 -0.144,0.768 z" />
  <path
     style="fill:#000000;stroke:none"
     inkscape:connector-curvature="0"
     id="path3063"
     d="m 63.36,168.744 c -0.6,0.288 -1.392,0.672 -1.8,0.888 -0.384,0.216 -0.744,0.36 -0.768,0.336 -0.072,-0.024 -1.344,0.504 -3.192,1.344 -4.416,1.992 -6.048,2.688 -6.336,2.688 -0.192,0 -0.384,0.096 -0.432,0.24 -0.024,0.12 -0.312,0.264 -0.6,0.312 -0.264,0.024 -0.672,0.216 -0.888,0.384 -0.192,0.168 -0.504,0.336 -0.672,0.36 -0.48,0.096 -2.616,1.008 -5.352,2.304 -0.792,0.36 -1.824,0.84 -2.28,1.032 -0.456,0.192 -1.56,0.696 -2.472,1.104 -0.888,0.408 -1.656,0.744 -1.728,0.744 -0.048,0 -0.816,0.336 -1.728,0.744 -1.584,0.696 -2.136,0.936 -3.24,1.392 -0.312,0.12 -1.032,0.432 -1.632,0.696 -0.6,0.264 -1.992,0.888 -3.12,1.368 -1.128,0.504 -2.448,1.104 -2.976,1.344 -0.504,0.24 -1.032,0.384 -1.128,0.312 -0.12,-0.072 -0.216,-0.024 -0.216,0.12 0,0.144 -0.288,0.336 -0.672,0.408 -0.36,0.096 -0.864,0.312 -1.128,0.48 -0.264,0.192 -0.648,0.336 -0.888,0.336 -0.24,0 -0.432,0.096 -0.432,0.24 0,0.12 -0.168,0.24 -0.384,0.24 -0.216,0 -0.672,0.144 -1.008,0.336 -0.36,0.192 -1.032,0.504 -1.488,0.696 -0.456,0.192 -1.68,0.744 -2.712,1.224 -1.032,0.48 -1.944,0.864 -1.992,0.864 -0.072,0 -0.96,0.384 -1.968,0.864 -1.008,0.48 -1.968,0.888 -2.112,0.912 -0.168,0.024 -0.456,0.192 -0.672,0.36 -0.192,0.168 -0.48,0.24 -0.624,0.144 -0.12,-0.072 -0.24,-0.048 -0.24,0.096 0,0.144 -0.288,0.336 -0.672,0.408 -0.36,0.096 -0.864,0.312 -1.152,0.504 -0.264,0.168 -0.552,0.264 -0.624,0.192 -0.072,-0.072 -0.264,0.024 -0.432,0.24 -0.168,0.192 -0.456,0.36 -0.624,0.36 -0.192,0 -0.528,0.096 -0.768,0.216 -0.216,0.12 -0.816,0.384 -1.32,0.6 C 0.408,196.368 0,196.656 0,196.8 c 0,0.288 0.648,0.192 1.368,-0.192 0.288,-0.168 0.696,-0.288 0.888,-0.288 0.216,0 0.384,-0.12 0.384,-0.24 0,-0.144 0.168,-0.24 0.384,-0.24 0.216,0 0.672,-0.144 1.008,-0.336 0.624,-0.312 2.976,-1.392 4.008,-1.848 0.264,-0.096 1.608,-0.696 3,-1.32 1.392,-0.6 2.712,-1.152 2.952,-1.176 0.216,-0.048 0.6,-0.264 0.792,-0.48 0.216,-0.216 0.552,-0.336 0.72,-0.264 0.192,0.072 0.336,0.024 0.336,-0.096 0,-0.12 0.288,-0.312 0.672,-0.384 0.36,-0.096 0.864,-0.312 1.152,-0.504 0.264,-0.168 0.552,-0.264 0.624,-0.192 0.072,0.072 0.264,-0.024 0.432,-0.24 0.168,-0.192 0.48,-0.36 0.696,-0.36 0.216,0 0.528,-0.12 0.672,-0.264 0.144,-0.144 0.408,-0.288 0.576,-0.312 0.384,-0.096 1.656,-0.624 3.768,-1.608 0.84,-0.384 1.608,-0.648 1.752,-0.576 0.12,0.096 0.216,0.048 0.216,-0.072 0,-0.12 0.624,-0.48 1.368,-0.792 0.768,-0.288 1.632,-0.696 1.92,-0.888 0.288,-0.168 0.624,-0.336 0.72,-0.336 0.24,-0.024 1.104,-0.36 2.592,-1.032 0.672,-0.288 1.584,-0.696 2.04,-0.912 0.456,-0.192 1.68,-0.744 2.712,-1.224 1.032,-0.48 1.92,-0.864 1.968,-0.864 0.048,0 0.936,-0.384 1.968,-0.864 1.032,-0.48 1.992,-0.888 2.112,-0.936 0.144,-0.024 1.056,-0.432 2.04,-0.912 0.984,-0.456 1.872,-0.792 1.968,-0.744 0.12,0.072 0.192,0.024 0.192,-0.096 0,-0.216 0.456,-0.408 1.032,-0.48 0.096,0 0.456,-0.192 0.792,-0.384 0.312,-0.216 0.576,-0.336 0.576,-0.288 0,0.072 0.528,-0.144 1.176,-0.456 0.648,-0.336 1.224,-0.6 1.296,-0.6 0.072,0 1.056,-0.432 2.184,-0.96 1.128,-0.528 2.088,-0.96 2.16,-0.96 0.048,0 0.96,-0.384 1.992,-0.864 1.032,-0.48 1.992,-0.888 2.112,-0.912 0.576,-0.12 3.72,-1.704 3.72,-1.872 0,-0.312 -0.528,-0.216 -1.68,0.312 z" />
  <path
     style="fill:#000000;stroke:none"
     inkscape:connector-curvature="0"
     id="path3065"
     d="m 66.408,174.648 c -0.072,0.12 -0.12,1.224 -0.12,2.496 0.024,2.712 0.408,3.864 0.456,1.296 0,-0.936 0.048,-2.16 0.048,-2.712 0.048,-0.984 -0.144,-1.488 -0.384,-1.08 z" />
  <path
     style="fill:#000000;stroke:none"
     inkscape:connector-curvature="0"
     id="path3067"
     d="m 66.48,183.576 c 0,1.368 0.072,2.424 0.144,2.352 0.264,-0.24 0.312,-4.152 0.072,-4.512 -0.12,-0.216 -0.216,0.624 -0.216,2.16 z" />
  <path
     style="fill:#000000;stroke:none"
     inkscape:connector-curvature="0"
     id="path3069"
     d="m 66.48,187.656 c 0,0.888 -0.048,0.96 -1.32,1.56 -0.744,0.336 -1.416,0.624 -1.512,0.624 -0.24,0.024 -1.416,0.96 -1.176,0.96 0.096,0 0.36,-0.096 0.6,-0.216 2.4,-1.248 3.36,-1.68 3.504,-1.536 0.072,0.072 0.144,-0.408 0.144,-1.08 0,-0.696 -0.048,-1.248 -0.12,-1.248 -0.072,0 -0.12,0.408 -0.12,0.936 z" />
  <path
     style="fill:#000000;stroke:none"
     inkscape:connector-curvature="0"
     id="path3071"
     d="m 60.384,191.472 c -0.072,0.12 -0.648,0.408 -1.272,0.648 -1.344,0.504 -3.24,1.728 -2.232,1.44 0.336,-0.096 1.176,-0.504 1.896,-0.864 0.72,-0.384 1.44,-0.696 1.608,-0.696 0.408,0 0.648,-0.408 0.36,-0.576 -0.12,-0.096 -0.288,-0.048 -0.36,0.048 z" />
  <path
     style="fill:#000000;stroke:none"
     inkscape:connector-curvature="0"
     id="path3073"
     d="m 52.512,195.312 c -1.296,0.624 -2.328,1.248 -2.352,1.392 0,0.168 0.912,-0.192 2.04,-0.768 1.128,-0.576 2.208,-1.056 2.376,-1.056 0.192,0 0.384,-0.168 0.48,-0.36 0.192,-0.504 0.072,-0.48 -2.544,0.792 z" />
  <path
     style="fill:#000000;stroke:none"
     inkscape:connector-curvature="0"
     id="path3075"
     d="m 47.76,197.712 c -0.6,0.312 -1.272,0.624 -1.512,0.648 -0.504,0.12 -1.8,1.08 -1.416,1.08 0.144,0 1.008,-0.384 1.944,-0.84 0.912,-0.456 1.776,-0.84 1.92,-0.84 0.12,0 0.288,-0.096 0.384,-0.216 0.288,-0.48 -0.288,-0.408 -1.32,0.168 z" />
  <path
     style="fill:#000000;stroke:none"
     inkscape:connector-curvature="0"
     id="path3077"
     d="m 40.704,201.144 c -1.032,0.528 -1.824,1.008 -1.752,1.08 0.072,0.096 0.48,-0.024 0.912,-0.24 0.432,-0.216 0.864,-0.384 0.984,-0.384 0.12,0 0.384,-0.168 0.576,-0.36 0.216,-0.192 0.576,-0.36 0.792,-0.36 0.24,0 0.576,-0.168 0.744,-0.36 0.504,-0.6 -0.168,-0.408 -2.256,0.624 z" />
  <path
     style="fill:#000000;stroke:none"
     inkscape:connector-curvature="0"
     id="path3079"
     d="m 36.24,203.4 c -0.168,0.192 -0.48,0.36 -0.72,0.36 -0.24,0 -0.552,0.168 -0.72,0.36 -0.168,0.192 -0.48,0.36 -0.72,0.36 -0.24,0 -0.552,0.168 -0.72,0.36 -0.168,0.192 -0.216,0.36 -0.096,0.36 0.336,0 3.912,-1.8 3.912,-1.992 0.024,-0.312 -0.624,-0.192 -0.936,0.192 z" />
  <path
     style="fill:#000000;stroke:none"
     inkscape:connector-curvature="0"
     id="path3081"
     d="m 29.112,206.88 c -1.104,0.528 -1.992,1.056 -1.992,1.2 0,0.144 0.264,0.12 0.672,-0.072 0.36,-0.192 1.272,-0.648 2.016,-0.984 1.248,-0.6 1.968,-1.128 1.464,-1.08 -0.096,0 -1.08,0.432 -2.16,0.936 z" />
  <path
     style="fill:#000000;stroke:none"
     inkscape:connector-curvature="0"
     id="path3083"
     d="m 0,206.4 c 0,0.12 0.024,0.24 0.072,0.24 0.024,0 1.248,0.264 2.688,0.6 1.464,0.336 3.192,0.72 3.84,0.84 0.672,0.12 2.448,0.504 3.96,0.84 2.928,0.696 3.336,0.768 4.368,0.96 0.36,0.072 2.088,0.456 3.84,0.864 1.752,0.408 3.408,0.768 3.672,0.816 0.264,0.048 0.864,0.168 1.32,0.24 0.456,0.072 1.008,0.216 1.2,0.288 0.192,0.072 0.528,0.168 0.72,0.192 0.408,0.048 3.528,0.744 4.8,1.08 0.456,0.12 2.616,0.6 4.8,1.056 2.184,0.456 4.128,0.888 4.32,0.96 0.192,0.072 0.744,0.168 1.2,0.24 0.456,0.072 2.28,0.456 4.056,0.864 1.752,0.384 3.432,0.768 3.72,0.84 1.296,0.288 5.184,1.128 6.24,1.32 0.648,0.144 1.56,0.336 2.04,0.48 0.48,0.12 1.2,0.288 1.584,0.336 0.912,0.168 1.032,0.192 5.04,1.104 1.848,0.432 3.576,0.816 3.84,0.864 0.264,0.048 0.648,0.12 0.84,0.168 1.992,0.456 6.456,1.44 15,3.312 1.2,0.264 2.424,0.528 2.76,0.576 0.336,0.048 2.064,0.432 3.84,0.84 1.776,0.408 3.624,0.792 4.08,0.864 0.456,0.072 0.936,0.192 1.032,0.264 0.12,0.072 0.552,0.168 0.96,0.24 0.432,0.048 1.368,0.24 2.088,0.432 0.72,0.168 1.752,0.384 2.28,0.504 0.528,0.096 1.008,0.192 1.08,0.216 0.336,0.096 1.632,0.408 4.8,1.104 1.92,0.408 4.128,0.912 4.92,1.08 4.896,1.104 5.52,1.2 5.304,0.84 -0.12,-0.192 -0.72,-0.36 -2.184,-0.672 -1.68,-0.336 -7.104,-1.56 -7.8,-1.776 -0.792,-0.216 -1.704,-0.408 -4.32,-0.936 -0.6,-0.12 -1.896,-0.384 -2.88,-0.6 -0.984,-0.216 -1.968,-0.432 -2.16,-0.48 -1.68,-0.336 -7.704,-1.68 -9.24,-2.04 -1.056,-0.24 -2.304,-0.528 -2.76,-0.624 -0.456,-0.072 -2.352,-0.504 -4.2,-0.936 -1.848,-0.456 -3.624,-0.864 -3.96,-0.936 -2.688,-0.528 -3.312,-0.648 -4.056,-0.84 -0.48,-0.12 -1.272,-0.288 -1.8,-0.36 -0.504,-0.096 -1.008,-0.192 -1.104,-0.264 -0.096,-0.072 -0.648,-0.168 -1.2,-0.24 -0.576,-0.072 -1.104,-0.192 -1.2,-0.24 -0.168,-0.096 -6.36,-1.464 -7.68,-1.704 -0.336,-0.048 -0.864,-0.168 -1.2,-0.264 -0.336,-0.072 -0.768,-0.168 -0.96,-0.192 -0.36,-0.048 -3.72,-0.816 -6.48,-1.464 -0.864,-0.192 -1.824,-0.408 -2.16,-0.48 -1.032,-0.168 -2.928,-0.576 -5.04,-1.056 -3.744,-0.864 -7.344,-1.656 -8.112,-1.8 -0.408,-0.072 -1.056,-0.24 -1.416,-0.384 -0.36,-0.144 -0.696,-0.24 -0.744,-0.216 -0.12,0.048 -1.872,-0.288 -3.384,-0.648 -2.232,-0.504 -4.608,-1.032 -5.424,-1.176 -0.384,-0.072 -1.128,-0.24 -1.632,-0.36 -1.152,-0.312 -0.912,-0.696 0.816,-1.32 0.648,-0.24 1.176,-0.528 1.176,-0.624 0,-0.312 -0.192,-0.24 -2.04,0.672 -1.968,0.984 -1.296,0.984 -6.24,-0.144 -1.056,-0.24 -2.832,-0.624 -3.96,-0.84 -1.128,-0.216 -2.784,-0.6 -3.72,-0.84 -0.912,-0.24 -2.16,-0.504 -2.76,-0.6 -0.576,-0.096 -1.152,-0.216 -1.272,-0.288 -0.096,-0.072 -0.552,-0.168 -0.96,-0.24 C 3.816,206.904 2.88,206.688 2.136,206.496 0.528,206.088 0,206.064 0,206.4 z" />
  <path
     style="fill:#000000;stroke:none"
     inkscape:connector-curvature="0"
     id="path3087"
     d="m 55.512,237.648 c -0.768,1.32 -1.008,2.232 -0.936,3.864 0.024,1.272 0.168,1.728 0.72,2.544 0.864,1.248 1.056,1.104 0.36,-0.264 -0.768,-1.512 -0.816,-3.552 -0.072,-5.328 0.648,-1.608 0.624,-1.992 -0.072,-0.816 z" />
  <path
     style="fill:#000000;stroke:none"
     inkscape:connector-curvature="0"
     id="path3089"
     d="m 63.6,237.216 c 0,0.096 0.24,0.624 0.528,1.176 0.696,1.392 0.672,3.48 -0.072,5.088 -0.312,0.648 -0.6,1.296 -0.672,1.44 -0.048,0.12 0.072,0.096 0.312,-0.096 0.36,-0.312 0.696,-0.96 1.272,-2.424 0.432,-1.128 0.36,-2.544 -0.168,-3.672 -0.48,-0.984 -1.2,-1.92 -1.2,-1.512 z" />
  <path
     style="fill:#000000;stroke:none"
     inkscape:connector-curvature="0"
     id="path3091"
     d="m 59.328,239.688 c -1.104,0.216 -1.848,2.472 -1.152,3.552 0.336,0.504 0.456,0.552 0.984,0.312 0.408,-0.192 0.672,-0.192 0.888,0 0.528,0.432 1.032,-0.192 1.032,-1.272 0.024,-0.528 0.12,-1.368 0.216,-1.872 l 0.192,-0.888 -0.792,0.024 c -0.456,0.024 -1.056,0.096 -1.368,0.144 z m 1.2,0.216 c 0.24,0.24 -0.504,2.616 -0.912,2.904 -0.624,0.456 -1.056,-0.024 -0.816,-0.864 0.456,-1.632 1.248,-2.544 1.728,-2.04 z" />
  <path
     style="fill:#000000;stroke:none"
     inkscape:connector-curvature="0"
     id="path3093"
     d="m 126.144,271.032 c -0.24,0.552 -0.768,1.704 -1.176,2.568 -1.632,3.456 -1.728,3.288 1.968,3.24 1.584,-0.024 2.952,-0.072 3,-0.144 0.096,-0.072 -0.408,-1.344 -1.608,-4.056 -0.144,-0.336 -0.264,-0.72 -0.288,-0.84 0,-0.144 -0.192,-0.504 -0.408,-0.816 -0.24,-0.312 -0.36,-0.672 -0.288,-0.792 0.072,-0.096 -0.072,-0.192 -0.312,-0.192 -0.264,0 -0.6,0.384 -0.888,1.032 z m 1.08,1.776 c 0.264,0.648 0.6,1.344 0.72,1.56 0.12,0.24 0.216,0.648 0.216,0.912 0,0.432 -0.168,0.48 -1.68,0.48 -1.488,0 -1.68,-0.048 -1.68,-0.456 0,-0.264 0.192,-0.648 0.432,-0.888 0.216,-0.24 0.384,-0.456 0.336,-0.504 -0.144,-0.168 0.744,-2.232 0.936,-2.232 0.12,0 0.432,0.504 0.72,1.128 z" />
  <path
     style="fill:#000000;stroke:none"
     inkscape:connector-curvature="0"
     id="path3095"
     d="m 90.12,273.648 c -0.84,1.728 -1.488,3.24 -1.416,3.36 0.072,0.096 1.416,0.192 3,0.192 3.096,0 3.456,-0.144 2.904,-1.272 -0.288,-0.648 -0.768,-1.776 -1.512,-3.528 -0.6,-1.464 -0.888,-1.92 -1.224,-1.92 -0.12,0 -0.912,1.416 -1.752,3.168 z m 2.376,0.288 c 0.36,0.984 0.6,1.896 0.528,2.04 -0.072,0.12 -0.552,0.192 -1.056,0.144 -0.48,-0.048 -1.176,-0.072 -1.536,-0.096 -0.384,-0.024 -0.672,-0.12 -0.672,-0.24 0,-0.48 1.728,-3.864 1.896,-3.768 0.12,0.072 0.48,0.936 0.84,1.92 z" />
  <path
     style="fill:#000000;stroke:none"
     inkscape:connector-curvature="0"
     id="path3097"
     d="m 131.568,272.688 c -0.336,0.336 -0.384,0.912 -0.048,0.912 0.12,0 0.168,0.312 0.096,0.72 -0.096,0.384 -0.072,0.984 0,1.32 0.144,0.552 0.216,0.576 0.696,0.336 0.288,-0.168 0.6,-0.408 0.696,-0.552 0.336,-0.48 0.192,0.744 -0.168,1.632 -0.384,0.912 -0.696,1.08 -0.936,0.504 -0.168,-0.456 -0.624,-0.48 -0.624,-0.024 0,0.504 0.408,0.696 1.104,0.528 0.648,-0.168 1.488,-1.704 1.704,-3.12 0.072,-0.408 0.192,-0.912 0.288,-1.104 0.264,-0.624 0.168,-1.32 -0.216,-1.32 -0.24,0 -0.408,0.336 -0.504,1.008 -0.072,0.6 -0.36,1.272 -0.696,1.632 -0.912,0.96 -0.984,0.672 -0.48,-1.92 0.168,-0.816 -0.336,-1.128 -0.912,-0.552 z" />
  <path
     style="fill:#000000;stroke:none"
     inkscape:connector-curvature="0"
     id="path3099"
     d="m 97.008,273.864 c -0.408,0.624 -0.24,0.84 0.264,0.36 0.312,-0.336 0.36,-0.288 0.48,0.264 0.168,0.864 -0.216,1.848 -0.672,1.656 -0.408,-0.144 -0.696,0.216 -0.48,0.6 0.12,0.168 0.36,0.072 0.696,-0.24 l 0.528,-0.48 0.288,0.48 c 0.336,0.528 1.272,0.552 1.44,0.024 0.072,-0.216 -0.072,-0.288 -0.336,-0.24 -0.384,0.072 -0.456,-0.096 -0.456,-1.008 0,-0.936 0.072,-1.08 0.552,-1.152 0.288,-0.048 0.528,-0.24 0.528,-0.432 0,-0.456 -0.216,-0.432 -0.792,0.072 -0.432,0.408 -0.456,0.408 -0.672,0 -0.336,-0.552 -0.984,-0.504 -1.368,0.096 z" />
  <path
     style="fill:#000000;stroke:none"
     inkscape:connector-curvature="0"
     id="path3101"
     d="m 160.512,275.808 c -0.192,0.312 -0.816,1.464 -1.368,2.592 -0.576,1.128 -1.152,2.136 -1.248,2.256 -0.12,0.144 -0.216,0.48 -0.216,0.792 0,0.6 0.072,0.6 4.32,0.6 1.656,0 1.68,0 1.68,-0.408 0,-0.672 -2.376,-6.36 -2.664,-6.36 -0.096,0 -0.312,0.24 -0.504,0.528 z m 1.032,3.192 c 0.36,0.984 0.576,1.824 0.504,1.872 -0.096,0.048 -0.864,0.072 -1.728,0.048 -1.296,-0.024 -1.584,-0.096 -1.632,-0.456 -0.048,-0.24 0.048,-0.6 0.24,-0.816 0.336,-0.432 1.008,-1.776 1.248,-2.544 0.24,-0.696 0.624,-0.168 1.368,1.896 z" />
  <path
     style="fill:#000000;stroke:none"
     inkscape:connector-curvature="0"
     id="path3103"
     d="m 68.256,275.808 c -0.864,1.224 -1.176,2.28 -1.176,4.032 0,1.656 0.072,1.944 0.768,3 0.888,1.368 1.056,1.08 0.264,-0.432 -0.744,-1.44 -0.744,-3.936 0.024,-5.52 0.528,-1.08 0.6,-1.752 0.12,-1.08 z" />
  <path
     style="fill:#000000;stroke:none"
     inkscape:connector-curvature="0"
     id="path3105"
     d="m 171.168,275.688 c 1.344,2.688 1.488,4.176 0.552,6.432 -0.72,1.728 -0.72,1.776 -0.12,1.032 1.272,-1.656 1.632,-4.752 0.696,-6.216 -0.216,-0.312 -0.432,-0.768 -0.528,-1.008 -0.072,-0.216 -0.264,-0.408 -0.432,-0.408 -0.144,0 -0.216,0.072 -0.168,0.168 z" />
  <path
     style="fill:#000000;stroke:none"
     inkscape:connector-curvature="0"
     id="path3107"
     d="m 80.64,276.96 c 0,1.368 -0.288,1.608 -1.848,1.536 -0.744,-0.024 -1.032,0.048 -1.032,0.288 0,0.456 0.456,0.624 1.728,0.672 l 1.032,0.024 0,1.128 c 0,1.152 0.456,2.064 0.696,1.368 0.072,-0.192 0.168,-0.816 0.192,-1.416 l 0.072,-1.08 1.2,-0.024 c 0.912,-0.024 1.224,-0.12 1.272,-0.408 0.048,-0.264 -0.072,-0.408 -0.36,-0.432 -0.48,-0.024 -1.464,-0.12 -1.92,-0.168 -0.216,-0.024 -0.312,-0.48 -0.312,-1.368 0,-1.008 -0.072,-1.32 -0.36,-1.32 -0.264,0 -0.36,0.288 -0.36,1.2 z" />
  <path
     style="fill:#000000;stroke:none"
     inkscape:connector-curvature="0"
     id="path3109"
     d="m 115.44,277.08 c 0,0.888 -0.096,1.32 -0.288,1.344 -0.168,0.024 -0.768,0.048 -1.32,0.072 -0.576,0.024 -1.032,0.096 -1.032,0.216 0,0.096 0,0.264 0,0.408 0,0.12 0.6,0.24 1.32,0.24 l 1.296,0 0.072,1.368 c 0.048,1.056 0.168,1.392 0.432,1.392 0.264,0 0.36,-0.288 0.384,-1.08 0.024,-0.6 0.048,-1.224 0.072,-1.392 0.024,-0.216 0.312,-0.312 0.816,-0.288 1.536,0.096 1.848,0.024 1.848,-0.432 0,-0.36 -0.168,-0.432 -1.08,-0.384 -1.416,0.072 -1.776,-0.288 -1.704,-1.704 0.048,-0.912 -0.024,-1.08 -0.384,-1.08 -0.36,0 -0.432,0.216 -0.432,1.32 z" />
  <path
     style="fill:#000000;stroke:none"
     inkscape:connector-curvature="0"
     id="path3111"
     d="m 150.216,276.696 c -0.024,0.552 -0.048,1.128 -0.072,1.272 -0.024,0.216 -0.528,0.336 -1.416,0.384 -1.176,0.072 -1.392,0.144 -1.32,0.48 0.072,0.336 0.36,0.408 1.392,0.408 l 1.32,0 0.024,0.84 c 0.072,1.8 0.096,1.968 0.408,1.872 0.168,-0.072 0.336,-0.672 0.408,-1.416 l 0.12,-1.296 1.2,0 c 0.936,0 1.2,-0.096 1.272,-0.432 0.072,-0.336 -0.12,-0.408 -1.248,-0.408 -1.224,0 -1.344,-0.048 -1.368,-0.552 -0.072,-1.632 -0.12,-1.944 -0.384,-2.016 -0.216,-0.072 -0.312,0.192 -0.336,0.864 z" />
  <path
     style="fill:#000000;stroke:none"
     inkscape:connector-curvature="0"
     id="path3113"
     d="m 105.672,278.52 c -0.456,0.408 -0.528,0.552 -0.216,0.456 0.36,-0.144 0.408,-0.072 0.312,0.288 -0.072,0.24 -0.216,0.864 -0.312,1.368 -0.24,1.416 0.648,2.088 1.632,1.2 0.528,-0.48 0.552,-0.168 0.072,0.984 -0.336,0.792 -0.408,0.84 -0.744,0.504 -0.552,-0.552 -1.104,-0.456 -1.008,0.168 0.144,1.056 2.064,0.552 2.544,-0.696 0.576,-1.44 1.2,-4.392 0.96,-4.536 -0.336,-0.216 -0.744,0.264 -0.816,1.008 -0.096,0.768 -1.248,2.496 -1.68,2.496 -0.408,0 -0.408,-0.24 -0.096,-1.08 0.36,-0.936 0.504,-2.472 0.264,-2.64 -0.12,-0.072 -0.528,0.144 -0.912,0.48 z" />
  <path
     style="fill:#000000;stroke:none"
     inkscape:connector-curvature="0"
     id="path3115"
     d="m 168.84,278.16 c -0.096,0.144 -0.384,0.192 -0.648,0.12 -0.72,-0.24 -1.584,0.072 -1.896,0.672 -0.264,0.48 -0.264,0.504 0.096,0.192 0.456,-0.36 1.608,-0.168 1.608,0.264 0,0.144 0.336,-0.024 0.72,-0.408 0.408,-0.384 0.72,-0.768 0.72,-0.888 0,-0.288 -0.432,-0.24 -0.6,0.048 z" />
  <path
     style="fill:#000000;stroke:none"
     inkscape:connector-curvature="0"
     id="path3117"
     d="m 71.088,278.616 c -0.648,0.552 -0.672,0.84 -0.072,0.504 0.672,-0.336 0.672,-0.336 0.816,0.528 0.144,0.984 -0.192,1.632 -0.792,1.632 -0.312,0 -0.48,0.168 -0.48,0.48 0,0.264 0.168,0.48 0.36,0.48 0.192,0 0.456,-0.216 0.6,-0.48 0.288,-0.552 0.72,-0.648 0.72,-0.144 0,0.624 0.6,0.888 1.152,0.48 0.648,-0.456 0.696,-0.816 0.072,-0.648 -0.36,0.096 -0.48,-0.048 -0.6,-0.72 -0.072,-0.456 -0.096,-0.984 0,-1.2 0.144,-0.432 0.768,-0.72 1.08,-0.504 0.12,0.072 0.216,-0.096 0.216,-0.36 0,-0.624 -0.408,-0.648 -1.032,-0.096 -0.432,0.408 -0.456,0.408 -0.672,0 -0.312,-0.528 -0.744,-0.528 -1.368,0.048 z" />
  <path
     style="fill:#000000;stroke:none"
     inkscape:connector-curvature="0"
     id="path3119"
     d="m 137.52,278.52 c 0,0.192 0.12,0.36 0.24,0.36 0.144,0 0.24,0.168 0.24,0.36 0,0.192 -0.096,0.36 -0.24,0.36 -0.12,0 -0.24,0.192 -0.24,0.408 0,0.336 0.12,0.312 0.624,-0.192 0.528,-0.552 0.576,-0.72 0.36,-1.152 -0.312,-0.576 -0.984,-0.672 -0.984,-0.144 z" />
  <path
     style="fill:#000000;stroke:none"
     inkscape:connector-curvature="0"
     id="path3121"
     d="m 141,278.64 c -0.528,0.576 -0.336,0.864 0.312,0.456 0.48,-0.312 1.248,-0.168 1.248,0.24 0,0.12 -0.408,0.576 -0.912,1.032 -0.504,0.456 -1.008,1.008 -1.08,1.224 -0.192,0.48 -0.072,0.504 0.552,0.12 0.36,-0.24 0.528,-0.216 0.912,0.12 0.648,0.6 1.44,0.504 1.776,-0.168 0.288,-0.672 0.096,-1.464 -0.312,-1.224 -0.144,0.096 -0.192,0.312 -0.12,0.48 0.048,0.168 0.048,0.36 -0.024,0.432 -0.144,0.168 -1.512,-0.312 -1.512,-0.528 0,-0.096 0.48,-0.624 1.08,-1.2 0.6,-0.576 1.08,-1.104 1.08,-1.2 0,-0.096 -0.576,-0.192 -1.272,-0.216 -1.032,-0.048 -1.368,0.048 -1.728,0.432 z" />
  <path
     style="fill:#000000;stroke:none"
     inkscape:connector-curvature="0"
     id="path3123"
     d="m 88.008,278.688 c -0.648,0.408 0.408,0.504 6.048,0.6 5.184,0.072 5.976,0.024 6.12,-0.288 0.072,-0.24 -0.024,-0.36 -0.288,-0.384 -2.64,-0.096 -11.688,-0.048 -11.88,0.072 z" />
  <path
     style="fill:#000000;stroke:none"
     inkscape:connector-curvature="0"
     id="path3125"
     d="m 102.12,278.64 c -0.072,0.144 0.024,0.408 0.24,0.624 0.36,0.36 0.36,0.432 -0.024,0.84 -0.672,0.744 -0.24,0.744 0.456,0.024 0.6,-0.624 0.624,-0.696 0.264,-1.2 -0.384,-0.576 -0.696,-0.672 -0.936,-0.288 z" />
  <path
     style="fill:#000000;stroke:none"
     inkscape:connector-curvature="0"
     id="path3127"
     d="m 122.496,278.664 c -0.312,0.528 0.936,0.648 6.672,0.6 3.408,-0.024 6.24,-0.12 6.336,-0.216 0.096,-0.096 0.096,-0.24 0,-0.36 -0.216,-0.216 -12.864,-0.24 -13.008,-0.024 z" />
  <path
     style="fill:#000000;stroke:none"
     inkscape:connector-curvature="0"
     id="path3129"
     d="m 60.312,279.552 c -0.432,0.072 -0.864,0.72 -2.064,3.144 -2.112,4.272 -2.016,4.152 -3.432,3.984 -0.648,-0.096 -1.44,-0.192 -1.752,-0.24 -2.304,-0.384 -2.64,-0.36 -4.344,0.096 -0.984,0.288 -1.968,0.552 -2.184,0.6 -0.192,0.048 -0.768,0.264 -1.272,0.48 -0.504,0.216 -1.008,0.336 -1.104,0.264 -0.12,-0.072 -0.264,-0.024 -0.336,0.096 -0.096,0.168 -0.984,0.432 -1.704,0.504 -0.072,0 -0.576,0.216 -1.128,0.456 -0.576,0.24 -1.176,0.384 -1.32,0.336 -0.168,-0.072 -0.312,0 -0.312,0.12 0,0.12 -0.36,0.288 -0.768,0.384 -0.792,0.144 -0.936,0.192 -1.632,0.456 -0.336,0.12 -10.104,3.288 -10.68,3.456 -0.12,0.024 -0.84,0.24 -1.56,0.432 -0.72,0.216 -1.416,0.432 -1.56,0.456 -0.12,0.048 -0.408,0.144 -0.6,0.216 -0.192,0.072 -0.96,0.312 -1.68,0.528 -0.72,0.216 -1.536,0.504 -1.8,0.6 -0.264,0.12 -0.744,0.288 -1.08,0.36 -1.728,0.432 -1.944,0.624 -1.896,1.536 0.048,0.48 0.024,0.984 -0.048,1.104 -0.072,0.144 -0.096,0.504 -0.048,0.84 0.048,0.336 0.144,7.68 0.192,16.344 l 0.144,15.72 -0.792,0.36 c -0.576,0.24 -0.888,0.6 -1.128,1.32 -0.312,0.912 -0.312,1.056 0.12,1.8 0.264,0.456 0.768,0.96 1.128,1.128 0.624,0.288 0.648,0.408 0.648,1.992 0,1.056 0.096,1.632 0.24,1.536 0.144,-0.072 0.216,-0.768 0.216,-1.536 -0.048,-1.416 0.144,-2.064 0.504,-1.824 0.096,0.072 0.312,-0.048 0.504,-0.264 0.624,-0.768 1.104,-0.84 2.784,-0.432 0.888,0.216 1.8,0.432 1.992,0.504 0.456,0.168 0.144,0.096 4.68,1.272 4.464,1.152 5.616,1.44 6.168,1.56 0.216,0.048 1.2,0.312 2.16,0.576 1.632,0.432 4.368,1.176 9.672,2.544 3.528,0.936 5.616,1.488 8.088,2.136 1.272,0.336 2.472,0.624 2.664,0.624 0.312,0 4.416,-2.664 8.76,-5.712 0.624,-0.432 1.68,-1.152 2.328,-1.584 0.672,-0.456 1.464,-1.032 1.776,-1.32 0.312,-0.288 0.696,-0.504 0.864,-0.504 0.168,0 0.48,-0.216 0.72,-0.48 0.24,-0.264 0.984,-0.792 1.656,-1.2 0.672,-0.408 1.872,-1.2 2.664,-1.8 0.792,-0.576 1.776,-1.248 2.16,-1.464 0.408,-0.216 1.056,-0.672 1.44,-0.984 0.888,-0.72 2.112,-1.56 3.24,-2.232 0.456,-0.264 1.488,-0.96 2.28,-1.512 1.32,-0.936 1.464,-1.104 1.584,-2.088 0.144,-1.104 0.048,-30.096 -0.12,-31.2 -0.048,-0.336 -0.096,-0.936 -0.12,-1.344 0,-0.408 -0.168,-0.744 -0.312,-0.744 -0.672,-0.024 -3.672,-0.36 -3.792,-0.432 -0.072,-0.048 -0.768,-0.168 -1.56,-0.24 -1.464,-0.192 -2.16,-0.288 -2.16,-0.36 0,-0.024 -0.384,-0.072 -0.84,-0.12 -0.456,-0.048 -1.224,-0.144 -1.68,-0.216 -0.456,-0.048 -1.416,-0.168 -2.136,-0.24 -0.696,-0.096 -1.344,-0.192 -1.44,-0.24 -0.072,-0.048 -0.744,-0.168 -1.464,-0.264 -0.72,-0.072 -1.536,-0.192 -1.8,-0.216 -0.264,-0.048 -1.08,-0.168 -1.8,-0.264 -0.72,-0.096 -1.392,-0.216 -1.464,-0.264 -0.072,-0.048 -0.792,-0.144 -1.56,-0.24 -1.728,-0.168 -2.616,-0.288 -2.616,-0.336 0,-0.024 -0.432,-0.072 -0.96,-0.144 -0.528,-0.048 -1.248,-0.144 -1.608,-0.216 -0.36,-0.048 -0.72,0 -0.792,0.12 -0.264,0.408 -1.728,0.168 17.4,2.904 4.68,0.672 8.616,1.32 8.736,1.416 0.12,0.12 -0.432,0.528 -1.2,0.936 -0.792,0.408 -1.584,0.84 -1.776,0.936 -0.192,0.12 -3,1.512 -6.24,3.096 -3.24,1.608 -8.52,4.2 -11.76,5.808 -3.216,1.608 -6.144,2.904 -6.504,2.904 -0.624,0 -4.128,-0.72 -5.976,-1.2 -0.72,-0.192 -3.6,-0.816 -15.24,-3.264 -0.912,-0.192 -4.92,-1.056 -8.856,-1.896 -3.96,-0.864 -7.272,-1.56 -7.392,-1.56 -0.12,0 -0.144,-0.096 -0.072,-0.24 0.072,-0.12 2.496,-0.984 5.352,-1.896 2.856,-0.936 9.936,-3.192 15.72,-5.04 5.784,-1.872 10.56,-3.384 10.608,-3.384 0.072,0 0.12,0.216 0.12,0.456 0,0.744 0.408,0.816 0.576,0.12 0.144,-0.504 0.264,-0.6 0.696,-0.504 0.288,0.072 1.176,0.216 1.968,0.312 0.792,0.072 1.632,0.264 1.848,0.36 0.504,0.264 0.312,0.936 -0.288,0.936 -0.312,0 -0.576,0.456 -0.984,1.728 l -0.576,1.752 -1.2,0.12 c -2.088,0.216 -3.48,1.368 -2.976,2.472 0.528,1.176 2.64,1.824 4.296,1.344 0.936,-0.288 2.16,-1.392 2.16,-1.944 0,-0.12 -0.384,-0.624 -0.84,-1.08 -1.008,-1.008 -0.984,-1.224 0.48,-2.808 0.96,-1.032 1.032,-1.2 0.696,-1.464 -0.36,-0.264 -0.264,-0.528 1.008,-2.784 0.768,-1.368 1.512,-2.76 1.656,-3.096 0.12,-0.336 0.504,-1.104 0.816,-1.752 l 0.6,-1.128 2.04,0 c 1.104,0 1.944,-0.072 1.848,-0.168 -0.168,-0.168 -2.736,-0.24 -3.672,-0.12 z m 24.24,12.696 c 0.192,0.312 0.456,31.128 0.288,31.584 -0.168,0.408 -0.864,0.408 -2.328,0 -0.24,-0.048 -0.432,0 -0.432,0.12 0,0.12 0.48,0.36 1.08,0.528 0.6,0.168 1.056,0.432 1.008,0.576 -0.12,0.336 -2.064,1.728 -9.168,6.576 -1.44,1.008 -3.216,2.232 -3.96,2.736 -6.408,4.512 -14.28,9.744 -14.448,9.648 -0.096,-0.072 -0.192,-4.776 -0.192,-10.44 0,-6.816 -0.072,-10.272 -0.24,-10.176 -0.12,0.072 -0.24,1.056 -0.24,2.184 0,1.104 -0.072,2.016 -0.168,2.016 -0.12,0 -0.624,-0.168 -1.152,-0.36 -1.344,-0.48 -2.352,-0.432 -3.576,0.12 -1.776,0.84 -1.872,1.992 -0.24,3.072 0.792,0.528 0.816,0.552 0.456,1.2 -0.192,0.36 -0.696,1.104 -1.104,1.632 -0.648,0.888 -0.696,1.056 -0.408,1.512 0.168,0.288 0.504,0.48 0.768,0.456 0.336,-0.048 0.552,-0.528 0.96,-2.112 l 0.504,-2.04 1.152,-0.168 c 0.648,-0.072 1.416,-0.336 1.752,-0.552 0.312,-0.216 0.696,-0.312 0.816,-0.24 0.312,0.192 0.312,13.968 0,14.16 -0.12,0.072 -2.04,-0.36 -4.248,-0.984 -2.208,-0.624 -4.632,-1.248 -5.352,-1.416 -0.72,-0.168 -2.352,-0.576 -3.6,-0.912 -1.248,-0.336 -4.008,-1.056 -6.12,-1.608 -9.672,-2.496 -16.056,-4.176 -16.944,-4.464 -0.216,-0.048 -0.456,-0.384 -0.528,-0.72 -0.096,-0.528 0.048,-0.672 1.08,-1.2 0.648,-0.336 1.104,-0.696 1.032,-0.816 -0.096,-0.144 -0.552,-0.024 -1.128,0.264 -0.96,0.48 -0.984,0.48 -1.8,0.048 -0.456,-0.24 -0.888,-0.528 -0.984,-0.672 -0.072,-0.12 -0.192,-7.824 -0.24,-17.088 -0.096,-16.68 -0.072,-16.872 0.384,-16.872 0.264,0 3.816,0.72 7.872,1.584 4.08,0.864 7.968,1.656 8.616,1.8 1.56,0.288 2.184,0.408 9.6,2.016 3.432,0.744 7.608,1.632 9.312,1.968 l 3.048,0.624 0.048,1.224 c 0.048,1.656 0.072,2.904 0.144,9.744 0.048,4.056 0.12,5.76 0.288,5.52 0.168,-0.216 0.24,-3.24 0.216,-8.232 -0.048,-4.56 0.024,-7.944 0.168,-8.088 0.24,-0.216 27.456,-13.872 27.744,-13.896 0.096,-0.024 0.216,0.048 0.264,0.144 z" />
  <path
     style="fill:#000000;stroke:none"
     inkscape:connector-curvature="0"
     id="path3131"
     d="m 50.592,309.288 c -0.24,0.504 -0.216,4.152 0.024,4.152 0.168,0 0.264,-0.768 0.264,-2.16 0,-1.992 -0.072,-2.448 -0.288,-1.992 z" />
  <path
     style="fill:#000000;stroke:none"
     inkscape:connector-curvature="0"
     id="path3133"
     d="m 50.4,316.416 c 0,0.84 -0.12,1.152 -0.528,1.44 -0.72,0.504 -0.384,0.768 0.528,0.384 0.552,-0.216 0.96,-0.24 1.776,-0.024 1.296,0.312 1.896,0.336 1.728,0.048 -0.096,-0.12 -0.6,-0.288 -1.176,-0.384 -1.536,-0.264 -1.848,-0.504 -1.848,-1.44 0,-0.432 -0.096,-0.888 -0.24,-0.96 -0.144,-0.096 -0.24,0.264 -0.24,0.936 z" />
  <path
     style="fill:#000000;stroke:none"
     inkscape:connector-curvature="0"
     id="path3135"
     d="m 45.744,319.944 c -1.992,0.96 -2.64,1.416 -2.088,1.416 0.48,0 4.584,-1.968 4.584,-2.184 0,-0.384 -0.552,-0.192 -2.496,0.768 z" />
  <path
     style="fill:#000000;stroke:none"
     inkscape:connector-curvature="0"
     id="path3137"
     d="m 61.344,319.896 c 0.288,0.312 5.112,1.2 5.256,0.984 0.072,-0.096 -0.24,-0.24 -0.672,-0.312 -0.408,-0.096 -1.512,-0.312 -2.448,-0.528 -1.944,-0.408 -2.472,-0.456 -2.136,-0.144 z" />
  <path
     style="fill:#000000;stroke:none"
     inkscape:connector-curvature="0"
     id="path3139"
     d="m 68.256,321.288 c 0.192,0.216 5.256,1.248 5.4,1.104 0.24,-0.192 -0.336,-0.384 -2.424,-0.816 -2.4,-0.48 -3.264,-0.552 -2.976,-0.288 z" />
  <path
     style="fill:#000000;stroke:none"
     inkscape:connector-curvature="0"
     id="path3141"
     d="m 40.8,322.32 c -0.192,0.12 -1.248,0.624 -2.328,1.104 -1.104,0.48 -1.992,1.032 -1.992,1.2 0,0.24 0.144,0.264 0.576,0.096 0.96,-0.36 4.944,-2.4 4.944,-2.52 0,-0.192 -0.816,-0.12 -1.2,0.12 z" />
  <path
     style="fill:#000000;stroke:none"
     inkscape:connector-curvature="0"
     id="path3143"
     d="m 75.96,322.752 c 0.144,0.144 1.104,0.432 2.16,0.648 1.056,0.192 2.112,0.408 2.352,0.456 0.216,0.048 0.408,0 0.408,-0.096 0,-0.192 -2.064,-0.72 -4.2,-1.104 -0.672,-0.096 -0.888,-0.072 -0.72,0.096 z" />
  <path
     style="fill:#000000;stroke:none"
     inkscape:connector-curvature="0"
     id="path3145"
     d="m 32.544,326.28 c -2.184,1.104 -2.736,1.464 -2.496,1.68 0.216,0.216 5.016,-2.28 4.872,-2.52 -0.072,-0.12 -0.168,-0.24 -0.192,-0.216 -0.024,0 -1.008,0.48 -2.184,1.056 z" />
  <path
     style="fill:#000000;stroke:none"
     inkscape:connector-curvature="0"
     id="path3147"
     d="m 25.56,329.664 c -2.28,1.128 -2.856,1.536 -2.256,1.536 0.552,0 5.016,-2.232 4.872,-2.448 -0.192,-0.288 -0.264,-0.264 -2.616,0.912 z" />
  <path
     style="fill:#000000;stroke:none"
     inkscape:connector-curvature="0"
     id="path3149"
     d="m 93.12,280.728 c -0.84,0.696 -0.912,1.272 -0.264,1.848 0.552,0.504 0.912,0.096 0.36,-0.432 -0.192,-0.216 -0.336,-0.552 -0.288,-0.792 0.096,-0.552 1.2,-0.672 1.56,-0.144 0.432,0.576 0.384,0.84 -0.288,1.872 -0.84,1.224 -0.6,1.296 0.456,0.12 0.696,-0.792 0.864,-1.152 0.816,-1.8 -0.024,-0.456 -0.048,-0.84 -0.072,-0.84 0,0 -0.36,-0.096 -0.792,-0.216 -0.648,-0.192 -0.864,-0.144 -1.488,0.384 z" />
  <path
     style="fill:#000000;stroke:none"
     inkscape:connector-curvature="0"
     id="path3151"
     d="m 128.4,280.632 c -0.744,0.36 -1.008,1.992 -0.36,2.232 0.6,0.24 0.72,-0.096 0.24,-0.624 -0.432,-0.48 -0.432,-0.504 0.096,-1.008 0.456,-0.408 0.6,-0.432 0.768,-0.168 0.12,0.192 0.216,0.216 0.216,0.096 0,-0.144 0.12,-0.072 0.24,0.12 0.48,0.768 0.24,1.464 -1.008,2.784 -0.672,0.72 -1.152,1.368 -1.056,1.464 0.072,0.096 0.84,0.168 1.704,0.168 l 1.56,0.024 0,-0.792 c 0,-0.48 -0.096,-0.744 -0.24,-0.648 -0.144,0.096 -0.192,0.264 -0.12,0.384 0.096,0.12 -0.336,0.216 -0.936,0.216 -1.272,0 -1.392,-0.192 -0.384,-0.768 0.864,-0.48 1.704,-1.8 1.608,-2.496 -0.144,-1.2 -1.104,-1.608 -2.328,-0.984 z" />
  <path
     style="fill:#000000;stroke:none"
     inkscape:connector-curvature="0"
     id="path3153"
     d="m 166.512,281.088 c -0.624,0.72 -0.672,1.152 -0.168,1.152 0.12,0 0.216,-0.168 0.216,-0.36 0,-0.456 0.312,-0.456 1.224,0.024 0.672,0.336 0.768,0.336 1.2,-0.048 0.552,-0.504 0.6,-1.296 0.072,-1.296 -0.264,0 -0.36,0.144 -0.264,0.48 0.144,0.576 -0.192,0.624 -0.72,0.12 -0.192,-0.192 -0.48,-0.288 -0.624,-0.192 -0.144,0.096 -0.192,0 -0.096,-0.24 0.24,-0.624 -0.12,-0.48 -0.84,0.36 z" />
  <path
     style="fill:#000000;stroke:none"
     inkscape:connector-curvature="0"
     id="path3155"
     d="m 95.424,283.992 c 0.168,0.432 -0.12,0.624 -1.08,0.744 -0.48,0.048 -0.816,-0.048 -0.936,-0.264 -0.168,-0.264 -0.264,-0.24 -0.624,0.144 -0.24,0.264 -0.36,0.576 -0.288,0.696 0.096,0.168 2.232,0.24 3.096,0.072 0.264,-0.048 0.216,-1.416 -0.072,-1.584 -0.12,-0.072 -0.168,0 -0.096,0.192 z" />
  <path
     style="fill:#000000;stroke:none"
     inkscape:connector-curvature="0"
     id="path3157"
     d="m 50.4,299.304 c 0,1.056 0.096,1.632 0.24,1.536 0.144,-0.072 0.24,-0.84 0.24,-1.704 0,-0.864 -0.096,-1.536 -0.24,-1.536 -0.144,0 -0.24,0.72 -0.24,1.704 z" />
  <path
     style="fill:#000000;stroke:none"
     inkscape:connector-curvature="0"
     id="path3169"
     d="m 16.392,344.28 c 0,1.536 0.096,2.832 0.216,2.904 0.096,0.072 0.192,-1.176 0.192,-2.76 0,-1.608 -0.096,-2.904 -0.192,-2.904 -0.12,0 -0.216,1.248 -0.216,2.76 z" />
  <path
     style="fill:#000000;stroke:none"
     inkscape:connector-curvature="0"
     id="path3171"
     d="m 112.728,343.488 c -0.912,2.112 -2.328,4.968 -2.544,5.088 -0.12,0.072 -0.168,0.36 -0.096,0.624 0.12,0.456 0.336,0.48 3.096,0.48 2.88,0 3.456,-0.144 3.048,-0.792 -0.096,-0.144 -0.72,-1.584 -1.392,-3.144 -0.648,-1.584 -1.32,-2.904 -1.488,-2.952 -0.168,-0.072 -0.456,0.264 -0.624,0.696 z m 0.792,1.92 c 0.408,1.128 0.744,1.944 0.984,2.376 0.288,0.6 0.048,0.696 -1.752,0.696 -1.2,0 -1.632,-0.096 -1.632,-0.312 0,-0.528 1.728,-3.768 1.92,-3.648 0.096,0.048 0.312,0.456 0.48,0.888 z" />
  <path
     style="fill:#000000;stroke:none"
     inkscape:connector-curvature="0"
     id="path3173"
     d="m 45.432,344.904 c -0.432,0.912 -0.792,1.848 -0.792,2.04 0,0.168 -0.096,0.336 -0.24,0.336 -0.12,0 -0.24,0.144 -0.24,0.336 0,0.192 -0.264,0.888 -0.6,1.536 -0.336,0.648 -0.624,1.44 -0.648,1.752 -0.072,0.576 -0.048,0.576 2.736,0.696 1.56,0.072 3.072,0.048 3.36,-0.048 0.312,-0.072 -0.384,-0.144 -1.512,-0.168 -3.12,-0.048 -4.296,-0.24 -4.128,-0.72 0.12,-0.384 1.032,-2.376 2.16,-4.8 0.336,-0.72 0.624,-1.44 0.648,-1.608 0.024,-0.192 0.12,-0.408 0.216,-0.48 0.216,-0.24 0.216,-0.576 0,-0.576 -0.12,0 -0.552,0.768 -0.96,1.704 z" />
  <path
     style="fill:#000000;stroke:none"
     inkscape:connector-curvature="0"
     id="path3175"
     d="m 76.392,343.488 c -0.672,0.888 -3,6 -2.808,6.192 0.288,0.288 5.592,0.36 5.856,0.096 0.12,-0.12 -0.096,-0.936 -0.48,-1.848 -0.384,-0.888 -0.72,-1.704 -0.744,-1.8 -0.024,-0.096 -0.144,-0.432 -0.264,-0.768 -0.888,-2.232 -1.08,-2.472 -1.56,-1.872 z m 0.624,2.52 c 0.168,0.504 0.456,1.272 0.672,1.704 0.192,0.456 0.288,0.864 0.216,0.936 -0.216,0.216 -3.288,0.24 -3.408,0.024 -0.216,-0.336 1.68,-3.984 1.944,-3.768 0.144,0.096 0.384,0.6 0.576,1.104 z" />
  <path
     style="fill:#000000;stroke:none"
     inkscape:connector-curvature="0"
     id="path3177"
     d="m 118.632,346.128 c -0.144,0.168 -0.264,0.48 -0.264,0.672 0,0.192 -0.048,0.768 -0.072,1.272 -0.048,0.96 0.48,1.8 0.96,1.512 0.192,-0.12 0.168,-0.288 -0.072,-0.528 -0.264,-0.264 -0.288,-0.504 -0.12,-1.128 0.36,-1.104 0.384,-1.92 0.072,-2.016 -0.144,-0.048 -0.384,0.048 -0.504,0.216 z" />
  <path
     style="fill:#000000;stroke:none"
     inkscape:connector-curvature="0"
     id="path3179"
     d="m 120.696,345.888 c 0,0.048 -0.048,0.336 -0.12,0.672 -0.048,0.336 -0.264,1.008 -0.456,1.512 -0.216,0.504 -0.264,0.864 -0.12,0.768 0.384,-0.24 0.264,0.384 -0.264,1.56 -0.432,0.984 -0.528,1.032 -0.792,0.648 -0.456,-0.6 -0.96,-0.552 -0.624,0.072 0.36,0.672 1.296,0.624 1.776,-0.096 0.192,-0.312 0.528,-1.32 0.72,-2.232 0.6,-2.688 0.624,-2.952 0.24,-2.952 -0.192,0 -0.336,0.024 -0.36,0.048 z" />
  <path
     style="fill:#000000;stroke:none"
     inkscape:connector-curvature="0"
     id="path3181"
     d="m 81.648,346.608 c -0.432,0.432 -0.36,0.648 0.192,0.504 0.408,-0.12 0.48,0 0.48,0.816 0,1.536 0.96,2.496 1.68,1.632 0.24,-0.312 0.216,-0.36 -0.192,-0.36 -0.36,0 -0.528,-0.216 -0.648,-0.72 -0.168,-0.792 0.168,-1.44 0.744,-1.44 0.192,0 0.336,-0.168 0.336,-0.36 0,-0.432 -0.504,-0.48 -0.912,-0.072 -0.216,0.216 -0.36,0.216 -0.576,0 -0.168,-0.168 -0.408,-0.288 -0.552,-0.288 -0.144,0 -0.384,0.12 -0.552,0.288 z" />
  <path
     style="fill:#000000;stroke:none"
     inkscape:connector-curvature="0"
     id="path3183"
     d="m 52.848,349.248 c -1.152,2.496 -1.176,4.176 -0.096,6 0.624,1.08 0.768,0.768 0.24,-0.6 -0.504,-1.344 -0.624,-3.912 -0.192,-4.344 0.12,-0.12 0.24,-0.408 0.24,-0.6 0,-0.192 0.168,-0.528 0.384,-0.768 0.216,-0.24 0.264,-0.456 0.144,-0.552 -0.144,-0.072 -0.456,0.312 -0.72,0.864 z" />
  <path
     style="fill:#000000;stroke:none"
     inkscape:connector-curvature="0"
     id="path3185"
     d="m 133.92,348.312 c 0,0.096 0.24,0.552 0.528,1.056 0.408,0.72 0.528,1.296 0.552,2.712 0,1.728 -0.048,1.944 -1.128,4.2 -0.144,0.264 0.024,0.168 0.384,-0.24 0.552,-0.672 1.416,-2.88 1.44,-3.72 0.024,-1.104 -0.408,-2.424 -1.056,-3.24 -0.384,-0.504 -0.72,-0.84 -0.72,-0.768 z" />
  <path
     style="fill:#000000;stroke:none"
     inkscape:connector-curvature="0"
     id="path3187"
     d="m 16.536,349.08 c -0.192,0.312 -0.144,5.088 0.072,5.28 0.072,0.072 0.168,-0.312 0.216,-0.888 0.12,-1.368 -0.096,-4.704 -0.288,-4.392 z" />
  <path
     style="fill:#000000;stroke:none"
     inkscape:connector-curvature="0"
     id="path3189"
     d="m 65.736,349.248 c -0.024,0.048 -0.072,0.6 -0.12,1.248 -0.072,0.672 -0.168,1.248 -0.216,1.296 -0.072,0.072 -0.648,0.096 -1.32,0.072 -1.056,-0.024 -1.2,0.024 -1.2,0.456 0,0.432 0.144,0.48 1.32,0.48 l 1.32,0 0,1.32 c 0,0.984 0.096,1.32 0.336,1.32 0.264,0 0.384,-0.36 0.432,-1.272 l 0.072,-1.248 1.392,-0.072 c 0.984,-0.048 1.368,-0.168 1.368,-0.408 0,-0.336 -1.584,-0.792 -1.848,-0.528 -0.072,0.096 -0.336,0.048 -0.6,-0.096 -0.312,-0.168 -0.432,-0.48 -0.408,-1.008 0.072,-1.2 0,-1.608 -0.264,-1.608 -0.12,0 -0.24,0.024 -0.264,0.048 z" />
  <path
     style="fill:#000000;stroke:none"
     inkscape:connector-curvature="0"
     id="path3191"
     d="m 101.256,349.224 c -0.024,0.048 -0.048,0.624 -0.096,1.296 -0.024,0.648 -0.072,1.296 -0.096,1.392 0,0.096 -0.624,0.168 -1.368,0.12 -0.72,-0.048 -1.368,-0.024 -1.44,0.072 -0.192,0.336 0.552,0.672 1.68,0.744 l 1.176,0.072 0.024,1.296 c 0.024,0.816 0.144,1.344 0.336,1.392 0.192,0.072 0.288,-0.264 0.288,-1.2 0,-1.488 0.168,-1.632 1.632,-1.464 0.576,0.072 1.032,0 1.128,-0.144 0.312,-0.48 -0.168,-0.648 -1.944,-0.696 -0.744,-0.024 -0.744,-0.024 -0.648,-1.2 0.048,-0.84 -0.024,-1.248 -0.288,-1.464 -0.192,-0.168 -0.36,-0.264 -0.384,-0.216 z" />
  <path
     style="fill:#000000;stroke:none"
     inkscape:connector-curvature="0"
     id="path3193"
     d="m 91.728,351.144 c -0.552,0.48 -0.72,0.84 -0.288,0.576 0.312,-0.192 0.312,0.48 0,1.536 -0.288,1.008 0.072,1.776 0.768,1.656 0.624,-0.096 0.864,-0.648 0.264,-0.576 -0.432,0.024 -0.48,-0.432 -0.144,-1.296 0.264,-0.672 0.336,-2.112 0.12,-2.256 -0.12,-0.072 -0.456,0.096 -0.72,0.36 z" />
  <path
     style="fill:#000000;stroke:none"
     inkscape:connector-curvature="0"
     id="path3195"
     d="m 56.64,351.216 c 0,0.192 0.12,0.432 0.264,0.528 0.144,0.072 0.216,0.576 0.168,1.08 -0.048,0.528 -0.024,0.936 0.072,0.936 0.096,0 0.24,0.264 0.312,0.6 0.168,0.624 0.504,0.744 1.104,0.36 0.312,-0.192 0.288,-0.288 -0.168,-0.6 -0.984,-0.696 -0.624,-2.52 0.456,-2.52 0.48,0 0.576,-0.36 0.168,-0.6 -0.12,-0.096 -0.432,0 -0.672,0.216 -0.384,0.36 -0.456,0.36 -0.744,0.024 -0.384,-0.456 -0.96,-0.48 -0.96,-0.024 z" />
  <path
     style="fill:#000000;stroke:none"
     inkscape:connector-curvature="0"
     id="path3197"
     d="m 94.224,351.168 c -0.048,0.168 -0.288,0.84 -0.528,1.512 -0.24,0.648 -0.432,1.584 -0.456,2.088 -0.024,0.48 -0.168,1.032 -0.336,1.248 -0.312,0.36 -0.36,0.36 -0.768,0 -0.528,-0.48 -1.104,-0.24 -0.672,0.288 0.36,0.432 1.176,0.432 1.824,-0.024 0.384,-0.264 1.176,-2.328 0.984,-2.568 -0.024,-0.048 0.072,-0.288 0.216,-0.552 0.144,-0.264 0.312,-0.888 0.408,-1.392 0.144,-0.72 0.096,-0.888 -0.216,-0.888 -0.216,0 -0.408,0.144 -0.456,0.288 z" />
  <path
     style="fill:#000000;stroke:none"
     inkscape:connector-curvature="0"
     id="path3199"
     d="m 129.024,351.336 c -0.264,0.288 -0.336,0.504 -0.168,0.624 0.144,0.072 0.264,0.024 0.264,-0.096 0,-0.144 0.264,-0.264 0.6,-0.264 0.768,0 1.08,0.696 0.48,1.032 -0.6,0.336 -1.8,1.56 -1.8,1.848 0,0.312 0.144,0.312 0.72,-0.048 0.36,-0.24 0.552,-0.216 0.96,0.168 0.672,0.624 1.8,0.264 1.8,-0.576 0,-0.336 -0.144,-0.624 -0.288,-0.696 -0.192,-0.048 -0.312,0.144 -0.312,0.552 l 0,0.624 -0.72,-0.432 c -0.384,-0.216 -0.72,-0.48 -0.72,-0.552 0,-0.072 0.48,-0.624 1.08,-1.2 0.6,-0.576 1.08,-1.128 1.08,-1.2 0,-0.072 -0.576,-0.144 -1.272,-0.192 -1.008,-0.048 -1.368,0.048 -1.704,0.408 z" />
  <path
     style="fill:#000000;stroke:none"
     inkscape:connector-curvature="0"
     id="path3201"
     d="m 109.008,352.272 c -0.048,0.168 -0.072,0.36 0,0.408 0.168,0.192 13.08,0.192 13.368,0 0.648,-0.384 -0.312,-0.528 -3.888,-0.576 -9.432,-0.144 -9.336,-0.144 -9.48,0.168 z" />
  <path
     style="fill:#000000;stroke:none"
     inkscape:connector-curvature="0"
     id="path3203"
     d="m 72.744,352.44 c 0.312,0.312 1.32,0.408 6.408,0.528 5.52,0.12 6.048,0.096 6.048,-0.264 0,-0.216 -0.072,-0.384 -0.168,-0.384 -0.12,0 -3,-0.072 -6.432,-0.144 -5.712,-0.12 -6.216,-0.096 -5.856,0.264 z" />
  <path
     style="fill:#000000;stroke:none"
     inkscape:connector-curvature="0"
     id="path3205"
     d="m 79.08,354.552 c -0.312,0.288 -0.6,0.696 -0.624,0.888 -0.096,0.888 0.048,1.2 0.528,1.2 0.48,0 0.48,-0.024 0.048,-0.72 -0.384,-0.648 -0.384,-0.768 -0.072,-0.96 0.888,-0.576 1.848,0.048 1.608,1.008 -0.096,0.312 -0.696,1.176 -1.368,1.92 -1.176,1.344 -1.2,1.392 -0.648,1.512 0.312,0.096 1.104,0.12 1.752,0.072 1.104,-0.072 1.176,-0.12 1.248,-0.768 0.072,-0.648 0.048,-0.672 -0.312,-0.312 -0.384,0.384 -2.04,0.576 -2.04,0.264 0,-0.096 0.48,-0.696 1.08,-1.32 1.2,-1.272 1.368,-2.04 0.6,-2.736 -0.696,-0.624 -1.128,-0.648 -1.8,-0.048 z" />
  <path
     style="fill:#000000;stroke:none"
     inkscape:connector-curvature="0"
     id="path3207"
     d="m 115.032,354.768 c -0.312,0.144 -0.576,0.576 -0.672,1.08 -0.192,1.032 0.144,1.512 0.72,1.032 0.36,-0.288 0.336,-0.36 -0.096,-0.6 -0.456,-0.24 -0.48,-0.312 -0.168,-0.72 0.288,-0.408 0.408,-0.432 0.96,-0.168 1.008,0.456 0.816,1.296 -0.624,2.832 -0.672,0.72 -1.176,1.368 -1.104,1.44 0.072,0.072 0.816,0.168 1.68,0.264 l 1.536,0.12 0.048,-0.912 0.072,-0.936 -0.528,0.552 c -0.288,0.312 -0.672,0.504 -0.864,0.432 -0.192,-0.072 -0.576,-0.144 -0.84,-0.144 -0.408,0 -0.312,-0.144 0.432,-0.696 1.8,-1.32 2.28,-2.544 1.272,-3.408 -0.576,-0.504 -1.032,-0.552 -1.824,-0.168 z" />
  <path
     style="fill:#000000;stroke:none"
     inkscape:connector-curvature="0"
     id="path3209"
     d="m 16.536,356.088 c -0.072,0.912 0.024,4.872 0.12,4.872 0.072,0 0.24,0 0.336,0 0.12,0 0.192,-0.24 0.144,-0.552 -0.024,-0.288 -0.072,-0.528 -0.096,-0.528 -0.024,0 -0.048,-0.624 -0.072,-1.392 -0.024,-0.768 0.048,-1.368 0.192,-1.368 0.144,0 0.096,-0.096 -0.096,-0.216 -0.168,-0.12 -0.264,-0.312 -0.168,-0.456 0.072,-0.144 0.048,-0.312 -0.096,-0.408 -0.12,-0.072 -0.24,-0.072 -0.264,0.048 z" />
  <path
     style="fill:#000000;stroke:none"
     inkscape:connector-curvature="0"
     id="path3211"
     d="m 16.56,365.376 c 0,1.536 0.096,2.544 0.24,2.544 0.264,0 0.312,-0.384 0.264,-2.4 -0.024,-2.04 -0.072,-2.4 -0.288,-2.544 -0.12,-0.072 -0.216,1.008 -0.216,2.4 z" />
  <path
     style="fill:#000000;stroke:none"
     inkscape:connector-curvature="0"
     id="path3213"
     d="m 16.704,372.768 c 0.024,1.632 0.144,2.904 0.24,2.832 0.312,-0.168 0.264,-5.76 -0.024,-5.76 -0.168,0 -0.24,1.056 -0.216,2.928 z" />
  <path
     style="fill:#000000;stroke:none"
     inkscape:connector-curvature="0"
     id="path3215"
     d="m 16.8,380.952 c 0,2.16 0.096,3.264 0.24,3.168 0.312,-0.192 0.312,-5.64 0,-6.12 -0.168,-0.24 -0.24,0.72 -0.24,2.952 z" />
  <path
     style="fill:#000000;stroke:none"
     inkscape:connector-curvature="0"
     id="path3217"
     d="m 16.824,389.28 c 0,1.92 0.12,3.312 0.24,3.216 0.312,-0.192 0.288,-6.576 -0.024,-6.576 -0.168,0 -0.24,1.176 -0.216,3.36 z" />
  <path
     style="fill:#000000;stroke:none"
     inkscape:connector-curvature="0"
     id="path3219"
     d="m 16.92,397.2 c 0,1.704 0.072,3.12 0.192,3.12 0.168,0 0.24,-0.48 0.216,-2.04 0,-0.528 -0.024,-1.68 -0.024,-2.592 -0.024,-0.888 -0.096,-1.608 -0.192,-1.608 -0.12,0 -0.192,1.392 -0.192,3.12 z" />
  <path
     style="fill:#000000;stroke:none"
     inkscape:connector-curvature="0"
     id="path3221"
     d="m 17.04,405.216 c 0,1.848 0.096,3.024 0.24,3.024 0.144,0 0.24,-1.104 0.24,-2.856 0,-1.656 -0.096,-2.928 -0.24,-3.024 -0.144,-0.096 -0.24,0.912 -0.24,2.856 z" />
  <path
     style="fill:#000000;stroke:none"
     inkscape:connector-curvature="0"
     id="path3223"
     d="m 63.36,410.616 c 0,0.168 0.216,0.576 0.48,0.936 1.008,1.392 1.104,3.792 0.216,5.784 -0.504,1.152 -0.552,1.464 -0.24,1.464 0.384,0 1.272,-2.472 1.392,-3.84 0.096,-1.104 0.024,-1.584 -0.48,-2.664 C 64.152,411 63.36,410.04 63.36,410.616 z" />
  <path
     style="fill:#000000;stroke:none"
     inkscape:connector-curvature="0"
     id="path3225"
     d="m 54.792,411.168 c -1.056,2.184 -1.296,3.936 -0.744,5.496 0.408,1.224 1.368,2.664 1.656,2.472 0.168,-0.096 0.12,-0.288 -0.12,-0.528 -1.32,-1.488 -1.656,-4.68 -0.672,-6.84 0.48,-1.104 0.384,-1.656 -0.12,-0.6 z" />
  <path
     style="fill:#000000;stroke:none"
     inkscape:connector-curvature="0"
     id="path3227"
     d="m 58.464,411 c 0.12,0.288 -0.192,2.232 -0.864,5.28 -0.12,0.504 -0.192,0.96 -0.168,0.984 0.024,0.024 0.48,0.096 1.008,0.168 2.064,0.288 3.576,-1.272 3.096,-3.192 -0.264,-1.032 -0.864,-1.2 -1.824,-0.48 -0.384,0.288 -0.768,0.456 -0.84,0.408 -0.072,-0.072 0.048,-0.72 0.264,-1.44 0.528,-1.824 0.504,-2.088 -0.216,-2.088 -0.408,0 -0.552,0.096 -0.456,0.36 z m 2.208,3.552 c 0.168,1.344 -1.296,3 -2.04,2.256 -0.312,-0.288 -0.288,-0.456 0.048,-1.272 0.384,-0.96 1.248,-1.824 1.68,-1.68 0.144,0.024 0.264,0.336 0.312,0.696 z" />
  <path
     style="color:#000000;fill:none;stroke:#000000;stroke-width:1.25;stroke-linecap:butt;stroke-linejoin:miter;stroke-miterlimit:4;stroke-opacity:1;stroke-dasharray:none;stroke-dashoffset:0;marker:none;visibility:visible;display:inline;overflow:visible;enable-background:accumulate"
     d="M 74.296484,181.43395 C 99.719473,154.69598 151.22293,157.98344 151.22293,157.98344"
     id="path3297"
     inkscape:connector-curvature="0"
     transform="scale(0.8,0.8)"
     sodipodi:nodetypes="cc" />
  <path
     style="color:#000000;fill:none;stroke:#000000;stroke-width:1.25;stroke-linecap:butt;stroke-linejoin:miter;stroke-miterlimit:4;stroke-opacity:1;stroke-dasharray:none;stroke-dashoffset:0;marker:none;visibility:visible;display:inline;overflow:visible;enable-background:accumulate"
     d="M 81.072741,210.45973 -19.041996,253.737"
     id="path4178"
     inkscape:connector-curvature="0"
     transform="scale(0.8,0.8)" />
  <path
     style="color:#000000;fill:none;stroke:#000000;stroke-width:1.25;stroke-linecap:butt;stroke-linejoin:miter;stroke-miterlimit:4;stroke-opacity:1;stroke-dasharray:none;stroke-dashoffset:0;marker:none;visibility:visible;display:inline;overflow:visible;enable-background:accumulate"
     d="M 144.83458,289.51287 -20.196057,253.15997"
     id="path4180"
     inkscape:connector-curvature="0"
     transform="scale(0.8,0.8)" />
  <path
     style="color:#000000;fill:none;stroke:#000000;stroke-width:1.25;stroke-linecap:butt;stroke-linejoin:miter;stroke-miterlimit:4;stroke-opacity:1;stroke-dasharray:none;stroke-dashoffset:0;marker:none;visibility:visible;display:inline;overflow:visible;enable-background:accumulate"
     d="M 85.688983,208.15161 131.56288,187.95555"
     id="path4182"
     inkscape:connector-curvature="0"
     transform="scale(0.8,0.8)" />
  <path
     style="color:#000000;fill:none;stroke:#000000;stroke-width:1.25;stroke-linecap:butt;stroke-linejoin:miter;stroke-miterlimit:4;stroke-opacity:1;stroke-dasharray:none;stroke-dashoffset:0;marker:none;visibility:visible;display:inline;overflow:visible;enable-background:accumulate"
     d="m -19.330511,252.87145 0,-141.08388"
     id="path4184"
     inkscape:connector-curvature="0"
     transform="scale(0.8,0.8)" />
  <text
     xml:space="preserve"
     style="font-size:8.64000034px;font-style:italic;font-variant:normal;font-weight:bold;font-stretch:normal;text-indent:0;text-align:start;text-decoration:none;line-height:125%;letter-spacing:0px;word-spacing:0px;text-transform:none;direction:ltr;block-progression:tb;writing-mode:lr-tb;text-anchor:start;baseline-shift:baseline;color:#000000;fill:#000000;fill-opacity:1;fill-rule:nonzero;stroke:none;stroke-width:1.24999988px;marker:none;visibility:visible;display:inline;overflow:visible;enable-background:accumulate;font-family:Linux Libertine O;-inkscape-font-specification:Sans Italic"
     x="-17.541718"
     y="85.275436"
     id="text4186"
     sodipodi:linespacing="125%"><tspan
       sodipodi:role="line"
       id="tspan4188"
       x="-17.541718"
       y="85.275436">z</tspan></text>
  <text
     xml:space="preserve"
     style="font-size:8.64000034px;font-style:italic;font-variant:normal;font-weight:bold;font-stretch:normal;text-indent:0;text-align:start;text-decoration:none;line-height:125%;letter-spacing:0px;word-spacing:0px;text-transform:none;direction:ltr;block-progression:tb;writing-mode:lr-tb;text-anchor:start;baseline-shift:baseline;color:#000000;fill:#000000;fill-opacity:1;fill-rule:nonzero;stroke:none;stroke-width:1.24999988px;marker:none;visibility:visible;display:inline;overflow:visible;enable-background:accumulate;font-family:Linux Libertine O;-inkscape-font-specification:Sans Italic"
     x="108.02005"
     y="151.05688"
     id="text4190"
     sodipodi:linespacing="125%"><tspan
       sodipodi:role="line"
       id="tspan4192"
       x="108.02005"
       y="151.05688">y</tspan></text>
  <text
     xml:space="preserve"
     style="font-size:8.64000034px;font-style:italic;font-variant:normal;font-weight:bold;font-stretch:normal;text-indent:0;text-align:start;text-decoration:none;line-height:125%;letter-spacing:0px;word-spacing:0px;text-transform:none;direction:ltr;block-progression:tb;writing-mode:lr-tb;text-anchor:start;baseline-shift:baseline;color:#000000;fill:#000000;fill-opacity:1;fill-rule:nonzero;stroke:none;stroke-width:1.24999988px;marker:none;visibility:visible;display:inline;overflow:visible;enable-background:accumulate;font-family:Linux Libertine O;-inkscape-font-specification:Sans Italic"
     x="118.17578"
     y="234.38005"
     id="text4194"
     sodipodi:linespacing="125%"><tspan
       sodipodi:role="line"
       id="tspan4196"
       x="118.17578"
       y="234.38005">x</tspan></text>
  <text
     xml:space="preserve"
     style="font-size:8.64000034px;font-style:normal;font-variant:normal;font-weight:bold;font-stretch:normal;text-indent:0;text-align:start;text-decoration:none;line-height:125%;letter-spacing:0px;word-spacing:0px;text-transform:none;direction:ltr;block-progression:tb;writing-mode:lr-tb;text-anchor:start;baseline-shift:baseline;color:#000000;fill:#000000;fill-opacity:1;fill-rule:nonzero;stroke:none;stroke-width:1.24999988px;marker:none;visibility:visible;display:inline;overflow:visible;enable-background:accumulate;font-family:Linux Libertine O;-inkscape-font-specification:Sans"
     x="-10.861473"
     y="337.36514"
     id="text4304"
     sodipodi:linespacing="125%"><tspan
       sodipodi:role="line"
       id="tspan4306"
       x="-10.861473"
       y="337.36514">(<tspan
   style="font-style:italic;-inkscape-font-specification:Linux Libertine O Bold Italic"
   id="tspan4312">x</tspan>,<tspan
   style="font-style:italic;-inkscape-font-specification:Linux Libertine O Bold Italic"
   id="tspan4310">y</tspan>,<tspan
   style="font-style:italic;-inkscape-font-specification:Linux Libertine O Bold Italic"
   id="tspan4308">z</tspan>)</tspan></text>
  <path
     style="color:#000000;fill:none;stroke:#000000;stroke-width:0.625;stroke-linecap:butt;stroke-linejoin:miter;stroke-miterlimit:4;stroke-opacity:1;stroke-dasharray:none;stroke-dashoffset:0;marker:none;visibility:visible;display:inline;overflow:visible;enable-background:accumulate"
     d="m 63.462788,416.79469 -9.695999,22.03184 6.876434,0.0772"
     id="path4314"
     inkscape:connector-curvature="0"
     transform="scale(0.8,0.8)"
     sodipodi:nodetypes="ccc" />
</svg>
