<?xml version="1.0" encoding="UTF-8" standalone="no"?>
<svg
   xmlns:dc="http://purl.org/dc/elements/1.1/"
   xmlns:cc="http://creativecommons.org/ns#"
   xmlns:rdf="http://www.w3.org/1999/02/22-rdf-syntax-ns#"
   xmlns:svg="http://www.w3.org/2000/svg"
   xmlns="http://www.w3.org/2000/svg"
   xmlns:sodipodi="http://sodipodi.sourceforge.net/DTD/sodipodi-0.dtd"
   xmlns:inkscape="http://www.inkscape.org/namespaces/inkscape"
   version="1.0"
   width="198.720000pt"
   height="183.600000pt"
   viewBox="0 0 198.720000 183.600000"
   preserveAspectRatio="xMidYMid meet"
   id="svg3019"
   sodipodi:docname="black.svg">
  <defs
     id="defs3105" />
  <sodipodi:namedview
     pagecolor="#ffffff"
     bordercolor="#666666"
     borderopacity="1"
     objecttolerance="10"
     gridtolerance="10"
     guidetolerance="10"
     inkscape:pageopacity="0"
     inkscape:pageshadow="2"
     inkscape:window-width="1280"
     inkscape:window-height="996"
     id="namedview3103"
     showgrid="false"
     inkscape:zoom="1.6006335"
     inkscape:cx="138.64578"
     inkscape:cy="46.880227"
     inkscape:window-x="0"
     inkscape:window-y="0"
     inkscape:window-maximized="1"
     inkscape:current-layer="svg3019" />
  <metadata
     id="metadata3021">
Created by potrace 1.10, written by Peter Selinger 2001-2011
<rdf:RDF>
  <cc:Work
     rdf:about="">
    <dc:format>image/svg+xml</dc:format>
    <dc:type
       rdf:resource="http://purl.org/dc/dcmitype/StillImage" />
    <dc:title></dc:title>
  </cc:Work>
</rdf:RDF>
</metadata>
  <rect
     style="fill:#b9b9b9;fill-opacity:1;stroke:none"
     id="rect4048"
     width="43.982586"
     height="183.60001"
     x="-23.811024"
     y="-3.8478684e-06" />
  <g
     style="fill:#b9b9b9;stroke:none"
     transform="matrix(0.024,0,0,-0.024,0,183.6)"
     id="g6">
    <path
       inkscape:connector-curvature="0"
       d="M 0,3825 0,0 l 4140,0 4140,0 0,3825 0,3825 -4140,0 -4140,0 0,-3825 z m 2281,496 c 1238,-309 1619,-402 1642,-401 67,6 76,-5 55,-65 -15,-40 -75,-172 -168,-369 -40,-85 -42,-90 -24,-103 10,-7 21,-13 24,-13 4,0 26,44 50,98 24,53 62,138 85,187 23,50 57,123 75,163 26,56 38,72 55,72 12,0 25,-4 31,-9 9,-9 134,-42 782,-203 268,-67 282,-72 282,-94 0,-18 -8,-26 -40,-35 -22,-7 -40,-16 -40,-20 0,-5 30,2 66,16 82,31 104,32 104,4 0,-21 -33,-133 -115,-389 -24,-74 -71,-223 -105,-330 -34,-107 -67,-213 -75,-235 -7,-22 -34,-105 -59,-185 -25,-80 -78,-251 -119,-380 -41,-129 -92,-290 -113,-357 -49,-160 -45,-159 -194,-20 -31,29 -112,104 -180,167 -68,63 -158,147 -199,186 -42,39 -105,98 -140,130 -36,32 -92,86 -126,119 -116,113 -449,428 -625,590 -36,33 -67,62 -70,65 -35,34 -188,177 -274,255 -60,55 -121,111 -136,125 -251,234 -392,366 -505,475 -23,22 -101,96 -175,165 -73,69 -149,141 -170,160 -20,19 -97,91 -170,160 -230,216 -232,218 -225,240 3,11 15,20 25,20 10,0 357,-85 771,-189 z m -771,92 c 104,-98 148,-138 230,-216 36,-34 135,-127 220,-207 85,-80 188,-177 230,-216 66,-63 141,-132 231,-215 14,-13 86,-81 160,-150 74,-70 148,-139 164,-154 103,-93 337,-312 450,-420 17,-16 87,-82 155,-145 69,-63 172,-160 230,-215 57,-55 145,-138 194,-185 50,-47 102,-96 116,-110 14,-14 75,-70 135,-125 61,-55 155,-143 210,-195 55,-52 148,-140 208,-194 80,-74 107,-106 107,-124 0,-21 -4,-24 -27,-20 -31,6 -702,132 -943,178 -207,40 -582,109 -650,120 -30,6 -86,16 -125,24 -38,8 -119,24 -180,35 -391,72 -815,151 -1087,204 -53,10 -58,13 -58,37 0,22 8,29 52,48 73,31 54,37 -22,7 -83,-32 -128,-33 -135,-2 -3,12 -6,115 -7,229 l -3,206 100,40 c 55,23 222,89 370,147 337,132 395,156 395,165 0,3 -6,14 -13,24 -13,17 -15,17 -58,-2 -24,-11 -80,-33 -124,-50 -141,-54 -319,-123 -345,-134 -83,-35 -285,-108 -300,-108 -19,0 -33,43 -19,57 5,5 9,399 9,876 l 0,867 24,0 c 15,0 52,-27 106,-77 z"
       id="path8" />
    <path
       inkscape:connector-curvature="0"
       d="m 4877,3453 c -37,-14 -66,-28 -64,-30 2,-2 40,10 83,26 43,17 72,30 64,30 -8,0 -45,-12 -83,-26 z"
       id="path10" />
    <path
       inkscape:connector-curvature="0"
       d="m 4610,3350 c -25,-10 -38,-19 -30,-19 17,1 101,37 85,38 -5,0 -30,-9 -55,-19 z"
       id="path12" />
    <path
       inkscape:connector-curvature="0"
       d="m 4235,3210 c -7,-12 2,-12 30,0 19,8 19,9 -2,9 -12,1 -25,-3 -28,-9 z"
       id="path14" />
    <path
       inkscape:connector-curvature="0"
       d="m 4137,3173 c -37,-14 -66,-27 -64,-29 4,-4 138,44 146,52 9,9 -17,2 -82,-23 z"
       id="path16" />
    <path
       inkscape:connector-curvature="0"
       d="m 3695,3005 c -25,-12 -26,-14 -5,-9 28,7 60,23 45,23 -5,0 -23,-6 -40,-14 z"
       id="path18" />
    <path
       inkscape:connector-curvature="0"
       d="m 3465,2915 c -25,-12 -26,-14 -5,-9 28,7 60,23 45,23 -5,0 -23,-6 -40,-14 z"
       id="path20" />
    <path
       inkscape:connector-curvature="0"
       d="m 3335,2865 c -25,-12 -26,-14 -5,-9 28,7 60,23 45,23 -5,0 -23,-6 -40,-14 z"
       id="path22" />
    <path
       inkscape:connector-curvature="0"
       d="m 1546,3455 c -4,-15 -5,-29 -4,-31 2,-2 55,-14 118,-28 118,-25 129,-24 130,16 0,13 -22,21 -97,38 -54,12 -108,24 -119,27 -17,3 -23,-1 -28,-22 z"
       id="path24" />
    <path
       inkscape:connector-curvature="0"
       d="m 1926,3373 c -4,-9 -2,-21 3,-26 12,-12 242,-66 254,-60 4,2 7,15 7,28 0,17 -7,26 -22,30 -13,3 -61,14 -108,25 -104,24 -126,25 -134,3 z"
       id="path26" />
    <path
       inkscape:connector-curvature="0"
       d="m 2991,2739 c -41,-15 -78,-26 -82,-23 -8,5 -24,-15 -17,-21 2,-3 49,13 104,35 54,21 92,39 84,38 -8,0 -48,-13 -89,-29 z"
       id="path28" />
    <path
       inkscape:connector-curvature="0"
       d="m 2670,2616 c -47,-18 -94,-36 -104,-40 -10,-3 -17,-8 -15,-11 5,-5 174,55 204,73 36,21 2,12 -85,-22 z"
       id="path30" />
    <path
       inkscape:connector-curvature="0"
       d="m 2248,2457 c -59,-22 -105,-43 -103,-45 5,-6 206,67 220,80 16,14 -6,8 -117,-35 z"
       id="path32" />
    <path
       inkscape:connector-curvature="0"
       d="m 1875,2314 c -33,-14 -79,-32 -103,-41 -23,-8 -40,-19 -37,-24 4,-5 13,-5 23,1 31,17 160,70 171,70 5,0 13,5 16,10 9,15 -4,12 -70,-16 z"
       id="path34" />
    <path
       inkscape:connector-curvature="0"
       d="m 3588,2253 c -3,-4 -2,-47 0,-95 4,-77 6,-87 25,-92 12,-3 23,-3 26,-1 2,3 4,47 4,98 0,91 0,92 -26,95 -14,2 -27,0 -29,-5 z"
       id="path36" />
    <path
       inkscape:connector-curvature="0"
       d="m 3596,1957 c -16,-61 -20,-99 -16,-137 4,-40 8,-45 32,-48 31,-4 35,12 30,120 -3,56 -7,67 -23,71 -11,3 -22,0 -23,-6 z"
       id="path38" />
  </g>
  <path
     style="fill:#000000;stroke:none"
     inkscape:connector-curvature="0"
     id="path3029"
     d="m 32.616,37.248 c 0,2.424 -0.048,11.088 -0.096,19.272 -0.024,8.184 -0.024,15.12 0.048,15.408 0.072,0.312 0.216,0.552 0.336,0.552 0.312,0 0.288,-39.288 -0.024,-39.48 -0.168,-0.096 -0.24,1.368 -0.264,4.248 z" />
  <path
     style="fill:#000000;stroke:none"
     inkscape:connector-curvature="0"
     id="path3031"
     d="m 115.896,44.664 c -1.248,1.344 -2.328,2.568 -2.448,2.76 -0.12,0.216 0.048,0.432 0.552,0.696 0.696,0.36 0.936,0.912 0.504,1.176 -0.12,0.072 -0.456,0.768 -0.768,1.512 -0.288,0.768 -1.272,2.952 -2.184,4.824 -0.888,1.896 -1.632,3.504 -1.632,3.552 0,0.192 -2.328,5.352 -4.2,9.336 -1.152,2.424 -2.088,4.44 -3.168,6.84 -0.336,0.72 -1.032,2.232 -1.584,3.36 -0.912,1.944 -1.776,3.84 -2.856,6.288 -0.264,0.648 -0.6,1.152 -0.72,1.152 -0.12,0 -0.144,0.12 -0.072,0.24 0.096,0.144 0.048,0.384 -0.072,0.552 -0.456,0.576 -1.512,3.576 -1.392,3.912 0.072,0.192 -0.024,0.408 -0.216,0.48 -0.168,0.072 -0.264,0.288 -0.192,0.48 0.072,0.192 0.024,0.336 -0.12,0.336 -0.312,0 -1.968,3.24 -1.968,3.864 0,0.24 -0.096,0.456 -0.24,0.456 -0.12,0 -0.24,0.144 -0.24,0.288 0,0.648 -0.504,2.112 -0.696,2.016 -0.096,-0.072 -0.336,0.264 -0.552,0.72 -0.288,0.624 -0.312,0.816 -0.072,0.816 0.192,0 0.384,-0.144 0.432,-0.312 0.096,-0.192 0.144,-0.168 0.144,0.072 0,0.192 -0.096,0.528 -0.216,0.72 -0.192,0.312 -0.264,0.312 -0.456,0.024 -0.168,-0.24 -0.312,-0.12 -0.624,0.552 -0.456,0.96 -0.456,0.984 0.264,1.2 0.552,0.168 0.456,0.336 2.016,-3.096 0.408,-0.936 0.984,-2.16 1.248,-2.736 0.408,-0.864 0.432,-1.08 0.168,-1.248 -0.264,-0.168 -0.24,-0.216 0.096,-0.216 0.312,0 0.768,-0.72 1.656,-2.592 0.648,-1.416 1.416,-3 1.656,-3.528 0.24,-0.528 0.552,-1.128 0.672,-1.32 0.216,-0.336 1.056,-2.208 1.872,-4.08 0.192,-0.456 0.456,-1.008 0.576,-1.2 0.12,-0.192 0.288,-0.528 0.36,-0.72 0.264,-0.672 0.768,-1.8 1.392,-3.12 0.336,-0.72 0.624,-1.44 0.624,-1.584 0,-0.12 0.144,-0.384 0.312,-0.552 0.144,-0.144 0.288,-0.36 0.288,-0.456 0,-0.096 0.288,-0.768 0.624,-1.488 1.536,-3.192 1.992,-4.224 2.04,-4.512 0.024,-0.192 0.24,-0.528 0.432,-0.744 0.216,-0.24 0.384,-0.6 0.384,-0.816 0,-0.192 0.456,-1.272 0.984,-2.376 0.552,-1.104 1.08,-2.208 1.2,-2.472 0.36,-0.936 1.944,-4.344 2.52,-5.472 0.312,-0.648 0.576,-1.32 0.576,-1.488 0,-0.168 0.12,-0.36 0.24,-0.408 0.144,-0.048 0.288,-0.312 0.36,-0.624 0.12,-0.624 2.136,-5.16 2.664,-6 0.336,-0.504 0.384,-0.504 0.888,-0.168 0.288,0.192 0.6,0.36 0.672,0.36 0.192,0 0.336,-0.912 0.576,-3.12 0.096,-0.72 0.192,-1.488 0.24,-1.68 0.048,-0.192 0.168,-0.936 0.24,-1.632 0.12,-0.984 0.072,-1.248 -0.192,-1.248 -0.192,0 -1.368,1.104 -2.592,2.424 z" />
  <path
     style="fill:#000000;stroke:none"
     inkscape:connector-curvature="0"
     id="path3037"
     d="m 32.544,73.872 c -0.096,0.072 -0.144,5.688 -0.144,12.48 0,6.792 -0.024,12.384 -0.072,12.456 -0.072,0.048 -1.824,-0.312 -3.912,-0.792 -5.952,-1.368 -6.528,-1.488 -9.456,-2.112 -1.512,-0.312 -3.768,-0.84 -4.992,-1.128 l -2.232,-0.552 0.144,-0.888 0.168,-0.912 -1.296,0.096 c -3.72,0.264 -6.12,0.552 -6.504,0.768 -0.24,0.144 0.336,0.696 0.96,0.888 0.264,0.096 0.672,0.36 0.912,0.624 0.24,0.264 0.576,0.48 0.72,0.48 0.168,0 0.768,0.36 1.344,0.768 1.416,1.056 2.52,1.656 2.712,1.464 0.072,-0.072 0.144,-0.408 0.144,-0.72 0,-0.96 0.12,-0.96 5.76,0.336 1.968,0.432 7.848,1.704 8.64,1.848 1.704,0.336 6.768,1.536 6.864,1.656 0.072,0.072 0.168,3.888 0.168,8.496 0.024,5.376 0.144,8.352 0.288,8.352 0.24,0 0.36,-8.832 0.36,-30.912 0,-8.808 0.072,-11.208 0.312,-11.208 0.144,0 0.888,0.576 1.608,1.272 0.72,0.696 3.648,3.408 6.48,6.048 2.832,2.616 6.024,5.592 7.08,6.624 1.056,1.008 2.424,2.304 3.072,2.88 0.624,0.576 1.8,1.68 2.616,2.424 0.792,0.768 1.536,1.392 1.632,1.392 0.096,0 0.552,0.456 1.056,0.984 0.48,0.552 0.96,0.912 1.056,0.84 0.072,-0.096 0.024,-0.24 -0.12,-0.336 -0.144,-0.096 -2.424,-2.232 -5.04,-4.752 -2.616,-2.496 -5.664,-5.424 -6.792,-6.48 -1.104,-1.032 -3,-2.832 -4.2,-3.96 -1.176,-1.128 -3.024,-2.856 -4.056,-3.84 -2.688,-2.496 -3.264,-3.12 -3.144,-3.336 0.072,-0.12 0.312,-0.144 0.552,-0.096 0.216,0.048 6.24,1.584 13.368,3.36 7.128,1.8 13.392,3.36 13.92,3.48 0.528,0.096 7.656,1.872 15.84,3.912 8.184,2.064 15.12,3.744 15.432,3.744 0.552,0 0.744,-0.432 0.24,-0.576 -0.168,-0.048 -2.424,-0.6 -4.992,-1.224 -2.568,-0.6 -4.848,-1.176 -5.04,-1.248 -0.192,-0.072 -0.408,-0.144 -0.48,-0.12 -0.072,0 -2.52,-0.576 -5.4,-1.296 -2.904,-0.72 -5.592,-1.368 -6,-1.44 C 71.736,83.544 71.232,83.424 71.04,83.352 70.848,83.28 70.584,83.184 70.44,83.16 68.16,82.608 60.984,80.808 60.72,80.712 60.528,80.64 60.144,80.544 59.856,80.52 59.592,80.472 58.896,80.304 58.296,80.136 57.72,79.968 57.192,79.824 57.12,79.8 c -0.072,0 -0.336,-0.096 -0.6,-0.192 -0.264,-0.072 -0.744,-0.192 -1.08,-0.264 -1.104,-0.216 -1.752,-0.36 -2.496,-0.6 C 52.536,78.624 50.688,78.168 48.84,77.736 46.992,77.304 45.432,76.872 45.36,76.8 45.288,76.728 45.024,76.656 44.76,76.608 43.128,76.392 42.6,76.272 42.384,76.104 42.24,75.984 42.048,75.888 41.928,75.888 41.64,75.864 40.248,75.576 39.48,75.336 39.096,75.24 37.8,74.904 36.6,74.616 35.424,74.328 34.272,74.04 34.08,73.992 c -0.6,-0.216 -1.392,-0.288 -1.536,-0.12 z" />
  <path
     style="fill:#000000;stroke:none"
     inkscape:connector-curvature="0"
     id="path3043"
     d="m 170.88,80.208 c 0,0.096 -0.144,0.192 -0.312,0.192 -0.192,0 -1.392,0.432 -2.688,0.96 -1.296,0.528 -2.496,0.96 -2.688,0.96 -0.168,0 -0.312,0.096 -0.312,0.24 0,0.12 -0.216,0.24 -0.456,0.24 -0.264,0 -0.96,0.216 -1.56,0.48 -0.6,0.24 -1.104,0.408 -1.104,0.336 0,-0.072 -0.288,0.024 -0.648,0.216 -0.384,0.192 -0.984,0.48 -1.392,0.648 -0.384,0.168 -0.888,0.384 -1.08,0.48 -0.216,0.096 -0.72,0.264 -1.128,0.336 -0.432,0.096 -1.32,0.432 -1.992,0.768 -0.648,0.312 -1.296,0.576 -1.44,0.576 -0.12,0 -0.576,0.144 -1.008,0.336 -0.432,0.192 -1.968,0.792 -3.432,1.344 -1.44,0.552 -2.856,1.08 -3.12,1.2 -0.528,0.24 -1.608,0.552 -1.8,0.528 -0.072,0 -0.24,0.096 -0.384,0.216 -0.24,0.192 -3.744,1.536 -4.536,1.728 -0.12,0.048 -0.504,0.216 -0.84,0.408 -0.336,0.168 -0.6,0.288 -0.6,0.264 0,-0.12 -1.728,0.528 -2.568,0.96 -0.24,0.12 -0.624,0.216 -0.864,0.216 -0.24,0 -0.528,0.096 -0.648,0.192 -0.216,0.192 -2.088,0.936 -4.968,2.016 -0.6,0.216 -0.936,0.672 -0.504,0.672 0.24,0 1.752,-0.504 2.592,-0.864 1.056,-0.432 3.576,-1.392 5.64,-2.136 2.04,-0.744 2.688,-0.984 3.72,-1.44 0.408,-0.168 1.272,-0.504 1.92,-0.72 0.672,-0.24 1.632,-0.6 2.16,-0.84 0.528,-0.216 1.392,-0.552 1.92,-0.696 0.528,-0.168 1.392,-0.504 1.92,-0.744 1.152,-0.528 7.968,-3.096 8.616,-3.24 0.24,-0.048 0.576,-0.216 0.768,-0.384 0.192,-0.144 0.336,-0.216 0.336,-0.144 0,0.096 0.864,-0.216 1.92,-0.672 1.056,-0.456 2.016,-0.84 2.112,-0.864 0.312,-0.072 0.888,-0.264 1.368,-0.456 0.264,-0.096 1.128,-0.432 1.92,-0.72 0.792,-0.288 1.776,-0.672 2.184,-0.864 0.408,-0.192 0.96,-0.36 1.2,-0.408 0.264,-0.048 0.864,-0.264 1.392,-0.48 0.504,-0.216 1.008,-0.408 1.128,-0.408 0.12,0 0.216,-0.144 0.216,-0.312 0,-0.168 -0.216,-0.312 -0.48,-0.312 -0.264,0 -0.48,0.096 -0.48,0.192 z" />
  <path
     style="fill:#000000;stroke:none"
     inkscape:connector-curvature="0"
     id="path3045"
     d="m 98.52,90.264 c -0.096,0.12 0.096,0.312 0.408,0.456 0.312,0.12 6.216,1.632 13.152,3.36 6.912,1.728 12.672,3.216 12.792,3.336 0.096,0.096 -0.408,0.432 -1.152,0.744 -2.064,0.84 -1.8,1.008 0.408,0.24 l 1.992,-0.696 0.072,0.504 c 0.096,0.528 -0.144,1.488 -0.936,3.744 -0.48,1.368 -0.576,2.208 -0.24,2.208 0.168,0 0.384,-0.648 0.528,-1.632 0,-0.096 0.12,-0.312 0.264,-0.48 0.144,-0.144 0.168,-0.288 0.072,-0.288 -0.096,0 -0.072,-0.144 0.048,-0.312 0.288,-0.336 1.272,-3.336 1.272,-3.84 0,-0.408 -0.672,-0.624 -6.6,-2.088 -2.76,-0.672 -5.208,-1.296 -5.4,-1.344 -0.192,-0.072 -0.384,-0.12 -0.408,-0.12 -0.072,0 -2.904,-0.768 -4.392,-1.176 -0.456,-0.12 -2.88,-0.72 -5.4,-1.32 -2.496,-0.624 -4.728,-1.176 -4.92,-1.248 -0.672,-0.24 -1.44,-0.288 -1.56,-0.048 z" />
  <path
     style="fill:#000000;stroke:none"
     inkscape:connector-curvature="0"
     id="path3049"
     d="m 60,99.768 c 0,0.264 4.896,4.872 5.52,5.208 0.192,0.12 -0.672,-0.816 -1.92,-2.04 C 60.696,100.08 60,99.456 60,99.768 z" />
  <path
     style="fill:#000000;stroke:none"
     inkscape:connector-curvature="0"
     id="path3051"
     d="m 37.056,100.68 c -0.096,0.336 -0.12,0.648 -0.072,0.696 0.24,0.192 5.616,1.296 5.784,1.2 0.192,-0.12 0.288,-1.296 0.12,-1.296 -0.048,0 -1.32,-0.264 -2.808,-0.6 -1.488,-0.336 -2.76,-0.6 -2.784,-0.6 -0.048,0 -0.144,0.264 -0.24,0.6 z" />
  <path
     style="fill:#000000;stroke:none"
     inkscape:connector-curvature="0"
     id="path3053"
     d="m 117.36,100.56 c -1.848,0.72 -2.784,1.176 -2.4,1.176 0.192,0 1.272,-0.36 2.4,-0.816 1.128,-0.456 1.824,-0.816 1.56,-0.792 -0.264,0 -0.96,0.192 -1.56,0.432 z" />
  <path
     style="fill:#000000;stroke:none"
     inkscape:connector-curvature="0"
     id="path3057"
     d="m 46.224,102.6 c -0.192,0.552 0.744,1.032 3.12,1.56 2.904,0.648 3.216,0.624 3.216,-0.12 0,-0.408 -0.168,-0.624 -0.528,-0.72 -0.312,-0.072 -1.464,-0.336 -2.592,-0.6 -2.448,-0.576 -3.024,-0.6 -3.216,-0.12 z" />
  <path
     style="fill:#000000;stroke:none"
     inkscape:connector-curvature="0"
     id="path3059"
     d="m 109.56,103.536 c -2.184,0.792 -3.336,1.32 -2.88,1.344 0.312,0 4.536,-1.56 5.088,-1.896 0.768,-0.456 -0.024,-0.264 -2.208,0.552 z" />
  <path
     style="fill:#000000;stroke:none"
     inkscape:connector-curvature="0"
     id="path3061"
     d="m 124.44,104.88 c -0.264,0.432 -1.56,4.656 -1.728,5.592 -0.072,0.48 -0.24,0.96 -0.336,1.032 -0.384,0.216 -0.24,0.816 0.144,0.672 0.192,-0.096 0.36,-0.312 0.36,-0.504 0,-0.216 0.264,-1.104 0.6,-2.016 0.312,-0.888 0.624,-1.872 0.672,-2.184 0.096,-0.528 0.216,-0.96 0.648,-2.04 0.216,-0.552 -0.072,-1.008 -0.36,-0.552 z" />
  <path
     style="fill:#000000;stroke:none"
     inkscape:connector-curvature="0"
     id="path3063"
     d="m 66,105.288 c 0,0.264 1.944,2.184 4.92,4.872 0.936,0.816 2.928,2.712 4.44,4.176 1.512,1.464 3.456,3.264 4.296,3.984 0.84,0.72 2.136,1.92 2.88,2.64 0.744,0.744 2.592,2.52 4.104,3.96 1.512,1.44 3.96,3.744 5.4,5.136 4.584,4.416 6.888,6.36 6.576,5.64 -0.048,-0.12 -1.008,-1.08 -2.136,-2.136 -1.92,-1.8 -7.368,-6.936 -11.568,-10.896 -1.008,-0.96 -2.088,-1.944 -2.4,-2.208 -0.288,-0.264 -1.464,-1.368 -2.592,-2.448 -2.352,-2.256 -7.992,-7.512 -8.736,-8.16 -0.456,-0.408 -1.512,-1.392 -4.272,-3.984 C 66.408,105.408 66,105.144 66,105.288 z" />
  <path
     style="fill:#000000;stroke:none"
     inkscape:connector-curvature="0"
     id="path3065"
     d="m 99.48,107.28 c -1.32,0.528 -2.544,1.008 -2.736,1.08 -0.192,0.072 -0.288,0.192 -0.216,0.264 0.144,0.12 6.192,-2.04 6.192,-2.208 0,-0.264 -1.08,0.024 -3.24,0.864 z" />
  <path
     style="fill:#000000;stroke:none"
     inkscape:connector-curvature="0"
     id="path3067"
     d="m 92.16,110.088 c -2.088,0.696 -4.824,1.848 -4.968,2.064 -0.096,0.168 0,0.192 0.312,0.072 0.24,-0.096 1.584,-0.6 2.952,-1.128 1.392,-0.528 2.568,-1.008 2.64,-1.056 0.144,-0.144 -0.456,-0.12 -0.936,0.048 z" />
  <path
     style="fill:#000000;stroke:none"
     inkscape:connector-curvature="0"
     id="path3069"
     d="m 52.08,111.912 c -0.336,0.168 -0.768,0.384 -0.96,0.528 -0.192,0.12 -0.504,0.24 -0.72,0.264 -0.432,0.072 -3.912,1.368 -7.8,2.952 -1.584,0.648 -4.704,1.848 -6.96,2.664 -2.232,0.816 -4.512,1.68 -5.04,1.92 -0.528,0.24 -1.344,0.552 -1.8,0.72 -0.456,0.168 -1.296,0.504 -1.848,0.744 -0.576,0.264 -1.176,0.456 -1.368,0.456 -0.192,0 -0.432,0.096 -0.504,0.24 -0.072,0.12 -0.312,0.24 -0.48,0.24 -0.192,0 -1.056,0.312 -1.92,0.72 -0.864,0.384 -1.68,0.72 -1.8,0.72 -0.144,0 -0.432,0.096 -0.672,0.216 -1.152,0.6 -2.112,0.936 -3.168,1.152 -0.6,0.096 -0.744,0.024 -0.96,-0.504 -0.12,-0.336 -0.336,-0.624 -0.456,-0.624 -0.288,0 -1.392,0.888 -3.144,2.544 -0.72,0.696 -1.68,1.536 -2.112,1.896 -0.432,0.384 -0.696,0.744 -0.576,0.816 0.312,0.192 7.632,-0.288 7.848,-0.504 0.096,-0.072 0.048,-0.36 -0.096,-0.624 -0.384,-0.72 -0.312,-1.248 0.168,-1.416 0.744,-0.24 10.704,-4.2 11.688,-4.632 1.584,-0.696 6.744,-2.76 10.44,-4.2 7.896,-3.072 13.344,-5.256 13.512,-5.424 0.288,-0.24 -0.024,-1.176 -0.384,-1.152 -0.168,0 -0.552,0.144 -0.888,0.288 z" />
  <path
     style="fill:#000000;stroke:none"
     inkscape:connector-curvature="0"
     id="path3071"
     d="m 81.672,114.072 c -1.872,0.744 -2.592,1.128 -2.064,1.128 0.264,0 4.68,-1.656 4.848,-1.824 0.336,-0.312 -1.104,0.048 -2.784,0.696 z" />
  <path
     style="fill:#000000;stroke:none"
     inkscape:connector-curvature="0"
     id="path3073"
     d="m 121.032,115.968 c -0.432,0.552 -1.536,4.272 -1.44,4.824 0.048,0.384 0.12,0.432 0.216,0.168 0.336,-0.816 1.2,-3.504 1.272,-3.96 0.048,-0.264 0.096,-0.48 0.12,-0.48 0.024,0 0.072,-0.192 0.12,-0.432 0.096,-0.48 0.024,-0.504 -0.288,-0.12 z" />
  <path
     style="fill:#000000;stroke:none"
     inkscape:connector-curvature="0"
     id="path3075"
     d="m 71.928,117.768 c -1.176,0.456 -2.064,0.912 -1.992,0.984 0.12,0.096 1.512,-0.384 2.544,-0.912 0.216,-0.096 0.72,-0.264 1.152,-0.36 0.432,-0.072 0.768,-0.264 0.768,-0.384 0,-0.312 -0.096,-0.288 -2.472,0.672 z" />
  <path
     style="fill:#000000;stroke:none"
     inkscape:connector-curvature="0"
     id="path3077"
     d="m 63.864,120.84 c -2.784,1.128 -3,1.488 -0.312,0.528 1.224,-0.432 2.352,-0.936 2.496,-1.08 0.432,-0.432 0.024,-0.336 -2.184,0.552 z" />
  <path
     style="fill:#000000;stroke:none"
     inkscape:connector-curvature="0"
     id="path3079"
     d="m 118.968,122.208 c -0.312,0.672 -0.888,2.496 -2.928,9.072 -0.984,3.264 -2.232,7.176 -3.048,9.624 -0.504,1.56 -0.912,2.976 -0.912,3.168 0,0.216 -0.168,0.672 -0.336,1.056 -0.192,0.36 -0.408,0.864 -0.48,1.08 -0.072,0.24 -0.288,0.432 -0.456,0.432 -0.192,0 -1.68,-1.272 -3.312,-2.808 -1.632,-1.536 -3.84,-3.6 -4.896,-4.584 -1.056,-0.984 -2.28,-2.112 -2.688,-2.52 -0.432,-0.408 -0.84,-0.672 -0.936,-0.6 -0.168,0.192 1.296,1.68 4.704,4.776 4.416,4.008 6.384,6.072 5.904,6.168 -0.36,0.072 -4.56,-0.672 -9.864,-1.752 -0.912,-0.192 -5.568,-1.056 -10.32,-1.92 -9.336,-1.728 -14.928,-2.76 -22.08,-4.08 -2.496,-0.48 -9.792,-1.824 -16.2,-3 -11.904,-2.208 -16.608,-3.144 -16.776,-3.264 -0.288,-0.24 0.672,-0.84 2.04,-1.296 0.84,-0.288 1.536,-0.624 1.536,-0.744 0,-0.288 0.072,-0.288 -1.44,0.288 -3.12,1.176 -3.072,1.152 -3.336,0.864 -0.12,-0.168 -0.24,-2.256 -0.264,-4.848 -0.024,-4.248 -0.072,-4.92 -0.36,-4.656 -0.192,0.216 -0.168,10.344 0.048,10.56 0.24,0.216 2.64,0.744 7.152,1.536 1.848,0.312 4.44,0.792 5.76,1.056 1.32,0.264 4.248,0.816 6.48,1.224 2.256,0.408 4.56,0.84 5.16,0.96 0.6,0.12 2.376,0.456 3.96,0.72 1.584,0.288 3.312,0.6 3.84,0.72 1.608,0.384 4.44,0.912 6.72,1.296 1.2,0.192 3.672,0.624 5.52,0.984 1.848,0.36 4.608,0.864 6.12,1.152 l 2.76,0.528 -0.048,11.88 c -0.048,6.528 -0.072,13.2 -0.072,14.808 l 0,2.952 -0.96,0 c -1.056,0 -1.128,0.144 -0.624,1.272 0.192,0.432 0.696,1.872 1.128,3.24 0.432,1.344 0.912,2.64 1.08,2.88 0.264,0.36 0.36,0.288 0.792,-0.744 0.288,-0.648 0.504,-1.272 0.504,-1.416 0,-0.12 0.264,-0.888 0.576,-1.704 0.912,-2.376 0.936,-2.424 0.984,-2.856 0.024,-0.288 -0.144,-0.432 -0.528,-0.456 -0.84,-0.048 -0.984,-0.072 -1.176,-0.288 -0.168,-0.144 -0.24,-26.184 -0.096,-26.928 0.024,-0.144 0.024,-0.288 0,-0.36 -0.024,-0.072 -0.072,-0.528 -0.096,-1.032 -0.048,-0.864 -0.024,-0.888 0.696,-0.768 0.384,0.072 1.416,0.24 2.28,0.384 0.864,0.12 2.376,0.384 3.36,0.576 8.472,1.56 11.688,2.184 11.952,2.376 0.168,0.096 0.36,0.144 0.432,0.072 0.072,-0.048 1.008,0.096 2.088,0.336 2.4,0.552 3.024,0.552 3.168,0.096 0.072,-0.192 0.192,-0.552 0.288,-0.792 0.072,-0.216 0.168,-0.528 0.192,-0.672 0.096,-0.432 1.344,-4.464 1.824,-5.928 0.24,-0.744 0.456,-1.584 0.456,-1.848 0,-0.264 0.072,-0.48 0.192,-0.48 0.168,0 0.648,-1.56 0.864,-2.784 0.048,-0.288 0.264,-0.888 0.432,-1.32 0.528,-1.2 0.912,-2.472 0.912,-2.952 0,-0.216 0.216,-0.912 0.456,-1.536 0.72,-1.776 0.816,-2.064 0.768,-2.304 -0.024,-0.096 0.168,-0.648 0.408,-1.2 0.48,-1.008 1.344,-4.224 1.176,-4.368 -0.048,-0.048 -0.264,0.264 -0.48,0.672 z" />
  <path
     style="fill:#000000;stroke:none"
     inkscape:connector-curvature="0"
     id="path3081"
     d="m 54.6,124.344 c -1.056,0.408 -2.016,0.84 -2.16,0.984 -0.168,0.192 -0.12,0.216 0.168,0.12 3.168,-1.104 4.032,-1.464 4.032,-1.632 0,-0.12 -0.024,-0.216 -0.048,-0.192 -0.048,0 -0.936,0.336 -1.992,0.72 z" />
  <path
     style="fill:#000000;stroke:none"
     inkscape:connector-curvature="0"
     id="path3083"
     d="m 45,128.064 c -0.792,0.336 -1.92,0.792 -2.52,0.984 -0.576,0.216 -0.936,0.432 -0.792,0.48 0.312,0.12 4.584,-1.512 4.992,-1.872 0.384,-0.36 -0.168,-0.24 -1.68,0.408 z" />
  <path
     style="fill:#000000;stroke:none"
     inkscape:connector-curvature="0"
     id="path3085"
     d="m 86.592,129.288 c -0.36,0.096 -0.432,0.384 -0.432,2.016 0,2.016 0.264,2.856 0.84,2.856 0.408,0 0.408,0.072 0.36,-2.64 -0.024,-2.16 -0.12,-2.376 -0.768,-2.232 z" />
  <path
     style="fill:#000000;stroke:none"
     inkscape:connector-curvature="0"
     id="path3091"
     d="m 86.424,136.752 c -0.12,0.24 -0.216,1.128 -0.24,2.016 0,0.864 -0.048,1.728 -0.072,1.896 -0.048,0.216 0.192,0.36 0.6,0.408 l 0.648,0.072 0,-2.256 c 0,-1.8 -0.072,-2.304 -0.36,-2.424 -0.192,-0.072 -0.456,0.048 -0.576,0.288 z" />
  <path
     style="fill:#000000;stroke:none"
     inkscape:connector-curvature="0"
     id="path3095"
     d="m 113.04,148.056 c 0,0.192 2.664,0.888 4.176,1.104 1.128,0.168 2.424,0.408 2.568,0.504 0.096,0.048 1.176,0.24 2.4,0.456 2.472,0.408 2.976,0.48 7.536,1.44 1.728,0.336 3.384,0.696 3.72,0.744 2.976,0.552 5.688,1.08 6.168,1.2 0.384,0.096 0.552,0.048 0.552,-0.192 0,-0.24 -0.72,-0.456 -2.448,-0.768 -1.368,-0.24 -4.632,-0.864 -7.272,-1.392 -2.64,-0.528 -5.112,-1.008 -5.52,-1.056 -1.488,-0.24 -5.712,-1.056 -5.856,-1.152 -0.072,-0.048 -0.672,-0.168 -1.344,-0.264 -1.056,-0.12 -2.496,-0.384 -4.128,-0.744 -0.312,-0.048 -0.552,0 -0.552,0.12 z" />
  <path
     style="color:#000000;fill:none;stroke:#000000;stroke-width:2;stroke-linecap:butt;stroke-linejoin:miter;stroke-miterlimit:4;stroke-opacity:1;stroke-dasharray:none;stroke-dashoffset:0;marker:none;visibility:visible;display:inline;overflow:visible;enable-background:accumulate"
     d="M 113.8487,127.39195 145.51287,59.438508"
     id="path3173"
     inkscape:connector-curvature="0"
     transform="matrix(0.80000002,0,0,0.80000002,0,-2.2556471e-6)" />
  <text
     xml:space="preserve"
     style="font-size:8.64000034px;font-style:normal;font-variant:normal;font-weight:bold;font-stretch:normal;text-indent:0;text-align:start;text-decoration:none;line-height:125%;letter-spacing:0px;word-spacing:0px;text-transform:none;direction:ltr;block-progression:tb;writing-mode:lr-tb;text-anchor:start;baseline-shift:baseline;color:#000000;fill:#000000;fill-opacity:1;fill-rule:nonzero;stroke:none;stroke-width:1.24999988px;marker:none;visibility:visible;display:inline;overflow:visible;enable-background:accumulate;font-family:Linux Libertine O;-inkscape-font-specification:Sans"
     x="91.078964"
     y="168.51505"
     id="text3943"
     sodipodi:linespacing="125%"><tspan
       sodipodi:role="line"
       id="tspan3945"
       x="91.078964"
       y="168.51505">a<tspan
   style="font-size:7.20000029px;baseline-shift:sub"
   id="tspan3959">1</tspan></tspan></text>
  <text
     xml:space="preserve"
     style="font-size:8.64000034px;font-style:italic;font-variant:normal;font-weight:bold;font-stretch:normal;text-indent:0;text-align:start;text-decoration:none;line-height:125%;letter-spacing:0px;word-spacing:0px;text-transform:none;direction:ltr;block-progression:tb;writing-mode:lr-tb;text-anchor:start;baseline-shift:baseline;color:#000000;fill:#000000;fill-opacity:1;fill-rule:nonzero;stroke:none;stroke-width:1.24999988px;marker:none;visibility:visible;display:inline;overflow:visible;enable-background:accumulate;font-family:Linux Libertine O;-inkscape-font-specification:Sans Italic"
     x="140.60315"
     y="156.27632"
     id="text3947"
     sodipodi:linespacing="125%"><tspan
       sodipodi:role="line"
       id="tspan3949"
       x="140.60315"
       y="156.27632">x</tspan></text>
  <text
     xml:space="preserve"
     style="font-size:8.64000034px;font-style:italic;font-variant:normal;font-weight:bold;font-stretch:normal;text-indent:0;text-align:start;text-decoration:none;line-height:125%;letter-spacing:0px;word-spacing:0px;text-transform:none;direction:ltr;block-progression:tb;writing-mode:lr-tb;text-anchor:start;baseline-shift:baseline;color:#000000;fill:#000000;fill-opacity:1;fill-rule:nonzero;stroke:none;stroke-width:1.24999988px;marker:none;visibility:visible;display:inline;overflow:visible;enable-background:accumulate;font-family:Linux Libertine O;-inkscape-font-specification:Sans Italic"
     x="171.91154"
     y="81.136162"
     id="text3951"
     sodipodi:linespacing="125%"><tspan
       sodipodi:role="line"
       id="tspan3953"
       x="171.91154"
       y="81.136162">y</tspan></text>
  <text
     xml:space="preserve"
     style="font-size:8.64000034px;font-style:italic;font-variant:normal;font-weight:bold;font-stretch:normal;text-indent:0;text-align:start;text-decoration:none;line-height:125%;letter-spacing:0px;word-spacing:0px;text-transform:none;direction:ltr;block-progression:tb;writing-mode:lr-tb;text-anchor:start;baseline-shift:baseline;color:#000000;fill:#000000;fill-opacity:1;fill-rule:nonzero;stroke:none;stroke-width:1.24999988px;marker:none;visibility:visible;display:inline;overflow:visible;enable-background:accumulate;font-family:Linux Libertine O;-inkscape-font-specification:Sans Italic"
     x="30.454527"
     y="30.473497"
     id="text3955"
     sodipodi:linespacing="125%"><tspan
       sodipodi:role="line"
       id="tspan3957"
       x="30.454527"
       y="30.473497">z</tspan></text>
  <text
     xml:space="preserve"
     style="font-size:8.64000034px;font-style:normal;font-variant:normal;font-weight:bold;font-stretch:normal;text-indent:0;text-align:start;text-decoration:none;line-height:125%;letter-spacing:0px;word-spacing:0px;text-transform:none;direction:ltr;block-progression:tb;writing-mode:lr-tb;text-anchor:start;baseline-shift:baseline;color:#000000;fill:#000000;fill-opacity:1;fill-rule:nonzero;stroke:none;stroke-width:1.24999988px;marker:none;visibility:visible;display:inline;overflow:visible;enable-background:accumulate;font-family:Linux Libertine O;-inkscape-font-specification:Sans"
     x="18.417728"
     y="134.55345"
     id="text3943-9"
     sodipodi:linespacing="125%"><tspan
       sodipodi:role="line"
       id="tspan3945-2"
       x="18.417728"
       y="134.55345">a<tspan
   style="font-size:7.20000029px;baseline-shift:sub"
   id="tspan3959-7">2</tspan></tspan></text>
  <text
     xml:space="preserve"
     style="font-size:8.64000034px;font-style:normal;font-variant:normal;font-weight:bold;font-stretch:normal;text-indent:0;text-align:start;text-decoration:none;line-height:125%;letter-spacing:0px;word-spacing:0px;text-transform:none;direction:ltr;block-progression:tb;writing-mode:lr-tb;text-anchor:start;baseline-shift:baseline;color:#000000;fill:#000000;fill-opacity:1;fill-rule:nonzero;stroke:none;stroke-width:1.24999988px;marker:none;visibility:visible;display:inline;overflow:visible;enable-background:accumulate;font-family:Linux Libertine O;-inkscape-font-specification:Sans"
     x="9.8790751"
     y="104.38355"
     id="text3943-8"
     sodipodi:linespacing="125%"><tspan
       sodipodi:role="line"
       id="tspan3945-3"
       x="9.8790751"
       y="104.38355">a<tspan
   style="font-size:7.20000029px;baseline-shift:sub"
   id="tspan3959-6">3</tspan></tspan></text>
  <text
     xml:space="preserve"
     style="font-size:8.64000034px;font-style:normal;font-variant:normal;font-weight:bold;font-stretch:normal;text-indent:0;text-align:start;text-decoration:none;line-height:125%;letter-spacing:0px;word-spacing:0px;text-transform:none;direction:ltr;block-progression:tb;writing-mode:lr-tb;text-anchor:start;baseline-shift:baseline;color:#000000;fill:#000000;fill-opacity:1;fill-rule:nonzero;stroke:none;stroke-width:1.24999988px;marker:none;visibility:visible;display:inline;overflow:visible;enable-background:accumulate;font-family:Linux Libertine O;-inkscape-font-specification:Sans"
     x="111.77366"
     y="67.098099"
     id="text3943-3"
     sodipodi:linespacing="125%"><tspan
       sodipodi:role="line"
       id="tspan3945-0"
       x="111.77366"
       y="67.098099">a<tspan
   style="font-size:7.20000029px;baseline-shift:sub"
   id="tspan3959-1">4</tspan></tspan></text>
  <path
     style="color:#000000;fill:none;stroke:#000000;stroke-width:0.875;stroke-linecap:butt;stroke-linejoin:miter;stroke-miterlimit:4;stroke-opacity:1;stroke-dasharray:none;stroke-dashoffset:0;marker:none;visibility:visible;display:inline;overflow:visible;enable-background:accumulate"
     d="M 41.709893,93.255049 138.69344,184.29786"
     id="path4046"
     inkscape:connector-curvature="0"
     transform="matrix(0.80000002,0,0,0.80000002,0,-2.2556471e-6)"
     sodipodi:nodetypes="cc" />
</svg>
