<?xml version="1.0" encoding="UTF-8" standalone="no"?>
<svg
   xmlns:dc="http://purl.org/dc/elements/1.1/"
   xmlns:cc="http://creativecommons.org/ns#"
   xmlns:rdf="http://www.w3.org/1999/02/22-rdf-syntax-ns#"
   xmlns:svg="http://www.w3.org/2000/svg"
   xmlns="http://www.w3.org/2000/svg"
   xmlns:sodipodi="http://sodipodi.sourceforge.net/DTD/sodipodi-0.dtd"
   xmlns:inkscape="http://www.inkscape.org/namespaces/inkscape"
   version="1.0"
   width="193.200000pt"
   height="195.840000pt"
   viewBox="0 0 193.200000 195.840000"
   preserveAspectRatio="xMidYMid meet"
   id="svg2"
   sodipodi:docname="gray.svg">
  <defs
     id="defs52" />
  <sodipodi:namedview
     pagecolor="#ffffff"
     bordercolor="#666666"
     borderopacity="1"
     objecttolerance="10"
     gridtolerance="10"
     guidetolerance="10"
     inkscape:pageopacity="0"
     inkscape:pageshadow="2"
     inkscape:window-width="1280"
     inkscape:window-height="996"
     id="namedview50"
     showgrid="false"
     inkscape:zoom="1.8894479"
     inkscape:cx="112.54083"
     inkscape:cy="139.42114"
     inkscape:window-x="0"
     inkscape:window-y="0"
     inkscape:window-maximized="1"
     inkscape:current-layer="svg2" />
  <metadata
     id="metadata4">
Created by potrace 1.10, written by Peter Selinger 2001-2011
<rdf:RDF>
  <cc:Work
     rdf:about="">
    <dc:format>image/svg+xml</dc:format>
    <dc:type
       rdf:resource="http://purl.org/dc/dcmitype/StillImage" />
    <dc:title></dc:title>
  </cc:Work>
</rdf:RDF>
</metadata>
  <rect
     style="fill:#b9b9b9;fill-opacity:1;stroke:none"
     id="rect3217"
     width="44.894466"
     height="195.84001"
     x="166.59949"
     y="-23.734354" />
  <g
     transform="matrix(0.024,0,0,-0.024,-11.027257,172.10124)"
     id="g6"
     style="fill:#b9b9b9;stroke:none">
    <path
       d="M 0,4080 0,0 l 4025,0 4025,0 0,4080 0,4080 -4025,0 -4025,0 0,-4080 z m 2153,2648 c 4,-46 7,-254 7,-463 0,-209 3,-572 6,-807 l 6,-428 -49,0 -50,0 -6,328 c -13,616 -20,1419 -14,1436 5,11 19,16 50,16 l 44,0 6,-82 z m 131,-285 c 11,-641 12,-1386 0,-1405 -3,-4 -20,-8 -39,-8 -26,0 -34,5 -39,24 -3,13 -6,293 -6,622 0,330 -3,713 -5,853 -3,139 -2,257 1,262 3,5 22,9 43,9 l 38,0 7,-357 z m 3878,-909 c 7,-5 19,-9 28,-10 59,-5 180,-61 260,-119 59,-44 159,-146 209,-215 22,-30 45,-61 51,-68 6,-7 8,-18 4,-25 -4,-6 -3,-9 1,-4 23,20 225,-412 210,-450 -2,-7 -1,-13 4,-13 10,0 36,-94 66,-240 51,-247 72,-418 80,-677 4,-148 3,-174 -11,-187 -8,-9 -20,-13 -26,-10 -6,4 -9,3 -5,-2 3,-5 -76,-45 -176,-88 -100,-44 -225,-98 -277,-121 -52,-23 -142,-63 -200,-88 -58,-25 -167,-73 -244,-107 -76,-33 -141,-58 -144,-56 -2,3 -10,-1 -18,-8 -22,-22 -231,-106 -264,-106 l -31,0 1,248 c 1,136 -1,411 -4,612 -15,938 -16,1657 -4,1668 22,17 160,63 218,72 61,10 253,5 272,-6 z m -518,-824 c 3,-382 9,-944 12,-1247 l 7,-553 -69,-31 c -38,-16 -82,-36 -99,-43 -16,-8 -66,-29 -110,-49 -44,-19 -219,-94 -390,-167 -170,-72 -380,-162 -465,-200 -86,-37 -171,-70 -190,-72 l -35,-3 2,130 c 5,473 152,1188 343,1670 130,326 290,620 462,849 125,166 360,378 470,425 39,17 44,17 49,2 4,-9 9,-329 13,-711 z M 7072,3268 c -12,-197 -36,-418 -48,-448 -4,-8 -7,-24 -8,-35 -6,-54 -19,-105 -28,-105 -25,0 -567,99 -588,107 -8,3 -19,5 -23,4 -5,-1 -92,14 -195,33 -103,19 -231,42 -284,51 -99,18 -123,30 -112,58 3,9 102,57 222,108 119,51 266,114 327,142 282,126 679,295 706,299 13,2 28,0 33,-4 6,-5 5,-83 -2,-210 z M 5835,2870 c 55,-11 138,-27 185,-35 254,-45 316,-57 330,-62 8,-4 18,-6 22,-5 3,1 142,-23 308,-53 167,-30 304,-55 306,-55 9,0 3,-65 -10,-123 -8,-34 -25,-113 -37,-174 -12,-62 -26,-113 -30,-113 -5,0 -6,-6 -3,-13 9,-25 -113,-416 -198,-634 -82,-208 -292,-612 -312,-598 -3,3 -4,2 -1,-1 2,-4 0,-15 -5,-25 -15,-26 -116,-167 -148,-204 -15,-17 -37,-44 -49,-60 -32,-41 -142,-153 -199,-203 -82,-72 -223,-162 -253,-162 l -28,0 -6,298 c -4,163 -7,383 -8,487 0,105 -3,542 -6,973 l -6,782 24,0 c 13,0 69,-9 124,-20 z m -171,-262 c 7,-298 22,-2141 18,-2233 -1,-33 -8,-63 -15,-67 -25,-16 -144,-49 -214,-59 -74,-10 -260,2 -272,18 -3,4 -17,9 -31,10 -48,5 -186,82 -260,146 -243,207 -404,512 -504,957 -55,247 -74,409 -83,712 l -6,218 39,16 c 59,24 1033,440 1159,494 61,27 122,49 136,49 l 27,1 6,-262 z"
       id="path8"
       inkscape:connector-curvature="0" />
    <path
       d="m 5236,4021 c -3,-5 1,-11 9,-15 32,-12 0,-56 -41,-56 -13,0 -24,-4 -24,-9 0,-10 -96,-51 -121,-51 -11,0 -19,-4 -19,-10 0,-5 -9,-10 -20,-10 -11,0 -20,-4 -20,-8 0,-5 -19,-15 -42,-22 -76,-22 -120,-40 -134,-54 -7,-8 -19,-16 -25,-18 -7,-2 -10,-77 -8,-248 4,-464 6,-521 16,-531 6,-6 29,-15 51,-20 43,-9 37,-11 236,79 33,15 52,28 42,30 -9,2 -23,-4 -32,-12 -8,-9 -27,-18 -42,-21 -15,-3 -45,-15 -67,-25 -66,-33 -81,-28 -89,28 -3,26 -5,193 -3,371 l 2,325 155,68 c 110,49 164,67 188,65 25,-2 32,1 32,15 0,11 10,20 28,23 15,3 41,13 58,21 17,9 42,14 55,12 l 24,-3 3,-352 2,-353 -29,0 c -34,0 -41,16 -41,105 0,42 -3,56 -10,45 -5,-8 -10,-46 -10,-83 0,-45 -4,-69 -12,-71 -68,-19 -102,-32 -112,-42 -6,-6 -25,-18 -41,-27 -27,-15 -28,-16 -7,-17 12,0 22,5 22,10 0,6 8,10 18,10 10,0 46,11 80,25 118,48 136,25 21,-27 -38,-17 -69,-35 -69,-39 0,-13 6,-11 110,34 l 95,42 3,110 c 2,61 0,237 -3,392 l -7,283 -37,10 c -20,5 -53,10 -73,10 -20,0 -40,5 -43,10 -8,12 -62,13 -69,1 z m 94,-61 c 0,-5 -9,-14 -19,-19 -14,-8 -20,-7 -24,4 -6,13 6,23 31,24 6,1 12,-3 12,-9 z m -80,-34 c 0,-18 -332,-158 -354,-150 -11,4 40,31 150,80 91,40 169,75 172,78 11,11 32,6 32,-8 z m -370,-378 c 0,-106 3,-249 6,-318 l 6,-125 -28,-17 c -26,-16 -27,-17 -7,-18 18,0 21,-6 21,-32 -1,-18 -3,-27 -5,-20 -3,6 -15,12 -28,12 -31,0 -34,28 -34,280 -1,113 -4,249 -7,302 -4,53 -4,104 -1,112 4,10 19,16 42,16 l 35,0 0,-192 z"
       id="path10"
       inkscape:connector-curvature="0" />
    <path
       d="m 5350,3896 c 0,-8 3,-22 6,-31 5,-13 8,-14 15,-3 14,21 10,48 -6,48 -8,0 -15,-6 -15,-14 z"
       id="path12"
       inkscape:connector-curvature="0" />
    <path
       d="m 4841,3854 c -18,-8 -31,-17 -28,-20 3,-3 25,3 49,14 49,23 31,28 -21,6 z"
       id="path14"
       inkscape:connector-curvature="0" />
    <path
       d="m 5264,3808 c 3,-13 6,-36 6,-52 0,-41 6,-29 13,27 6,39 4,47 -9,47 -12,0 -15,-6 -10,-22 z"
       id="path16"
       inkscape:connector-curvature="0" />
    <path
       d="m 5360,3815 c -4,-33 1,-270 5,-274 13,-12 16,16 16,129 -1,66 -5,129 -11,138 -5,9 -10,13 -10,7 z"
       id="path18"
       inkscape:connector-curvature="0" />
    <path
       d="m 4712,3793 c -25,-23 -39,-113 -17,-113 10,0 13,12 12,43 -2,37 1,42 21,45 14,2 22,10 22,23 0,24 -12,24 -38,2 z"
       id="path20"
       inkscape:connector-curvature="0" />
    <path
       d="m 5264,3668 c 3,-13 6,-38 6,-57 0,-48 6,-36 13,27 5,43 3,52 -10,52 -11,0 -14,-6 -9,-22 z"
       id="path22"
       inkscape:connector-curvature="0" />
    <path
       d="m 4684,3618 c 3,-13 6,-38 6,-55 0,-18 4,-33 9,-33 5,0 9,25 8,55 -1,40 -5,55 -15,55 -10,0 -12,-7 -8,-22 z"
       id="path24"
       inkscape:connector-curvature="0" />
    <path
       d="m 5055,3565 c -9,-22 -25,-60 -36,-84 -10,-24 -19,-44 -19,-45 0,0 22,1 49,2 47,4 49,3 53,-27 2,-16 1,-36 -3,-43 -6,-10 4,-12 44,-9 29,3 44,6 34,9 -18,4 -51,68 -42,82 3,5 1,10 -3,12 -5,1 -20,35 -34,73 l -26,70 -17,-40 z m 15,-90 c 0,-8 -6,-15 -14,-15 -17,0 -28,14 -19,24 12,12 33,6 33,-9 z"
       id="path26"
       inkscape:connector-curvature="0" />
    <path
       d="m 5273,3470 c 0,-25 2,-35 4,-22 2,12 2,32 0,45 -2,12 -4,2 -4,-23 z"
       id="path28"
       inkscape:connector-curvature="0" />
    <path
       d="m 4694,3425 c 0,-41 4,-65 11,-65 7,0 11,23 11,65 -1,39 -5,65 -12,65 -6,0 -10,-25 -10,-65 z"
       id="path30"
       inkscape:connector-curvature="0" />
    <path
       d="m 4981,3391 c 0,-8 -8,-23 -18,-33 -15,-17 -15,-18 3,-17 10,0 28,4 39,9 16,7 17,9 3,9 -9,1 -19,11 -21,24 -2,12 -5,16 -6,8 z"
       id="path32"
       inkscape:connector-curvature="0" />
    <path
       d="m 5262,3310 c 5,-54 -7,-72 -43,-63 -13,4 -19,0 -19,-12 0,-13 5,-16 23,-10 12,3 35,10 52,14 17,4 25,10 19,14 -7,4 -9,26 -6,57 4,43 2,50 -13,50 -15,0 -17,-7 -13,-50 z"
       id="path34"
       inkscape:connector-curvature="0" />
    <path
       d="m 4694,3250 c -1,-40 3,-60 11,-60 8,0 12,20 11,60 0,35 -4,60 -11,60 -6,0 -11,-25 -11,-60 z"
       id="path36"
       inkscape:connector-curvature="0" />
    <path
       d="m 5060,3175 c 0,-8 5,-15 11,-15 6,0 17,7 25,15 14,13 13,15 -10,15 -16,0 -26,-6 -26,-15 z"
       id="path38"
       inkscape:connector-curvature="0" />
    <path
       d="m 5077,3133 c -14,-13 -6,-33 13,-33 13,0 20,7 20,20 0,19 -20,27 -33,13 z"
       id="path40"
       inkscape:connector-curvature="0" />
    <path
       d="m 4693,3075 c 7,-69 11,-75 50,-75 20,0 27,3 19,8 -8,5 -10,16 -6,27 6,15 4,17 -14,13 -20,-6 -22,-2 -22,38 0,34 -4,44 -16,44 -14,0 -16,-8 -11,-55 z"
       id="path42"
       inkscape:connector-curvature="0" />
    <path
       d="m 5210,3110 c 0,-13 11,-13 30,0 12,8 11,10 -7,10 -13,0 -23,-4 -23,-10 z"
       id="path44"
       inkscape:connector-curvature="0" />
    <path
       d="m 4968,3083 c -21,-5 -32,-33 -13,-33 20,0 65,22 65,32 0,8 -22,9 -52,1 z"
       id="path46"
       inkscape:connector-curvature="0" />
    <path
       d="m 6045,1483 c -36,-10 -62,-33 -80,-73 -21,-46 -12,-78 28,-105 51,-33 117,30 117,112 0,35 3,42 22,45 12,2 23,9 26,16 4,12 -70,16 -113,5 z m 25,-73 c 0,-59 -18,-90 -52,-90 -27,0 -28,2 -28,45 0,58 17,85 52,85 26,0 28,-3 28,-40 z"
       id="path48"
       inkscape:connector-curvature="0" />
  </g>
  <g
     style="fill:#000000;stroke:none"
     transform="matrix(0.024,0,0,-0.024,-10.937406,172.07245)"
     id="g3033">
    <path
       inkscape:connector-curvature="0"
       d="m 2149,7328 c -8,-15 -10,-86 -5,-254 l 7,-233 -25,-7 c -13,-3 -32,-5 -42,-4 -11,1 -30,2 -43,1 l -24,-1 7,-532 c 11,-973 17,-1242 28,-1270 9,-25 15,-28 58,-28 58,0 56,4 53,-155 -1,-66 -2,-124 -2,-130 1,-38 8,-343 13,-564 3,-145 7,-266 10,-268 3,-3 13,-3 22,1 15,6 16,39 12,366 l -3,360 25,9 c 14,6 41,12 61,15 20,3 42,7 50,10 8,2 26,7 42,10 18,4 27,13 27,27 0,11 8,22 18,25 9,3 27,10 40,15 41,17 72,29 95,38 37,14 81,33 99,42 10,5 26,9 37,9 10,0 24,7 31,15 7,8 19,15 26,15 8,0 24,5 37,12 12,6 30,15 39,20 10,4 54,8 98,8 47,0 80,4 80,10 0,19 -161,11 -209,-10 -24,-11 -52,-20 -62,-20 -10,0 -19,-4 -19,-10 0,-5 -5,-10 -11,-10 -6,0 -25,-6 -42,-14 -69,-31 -193,-79 -233,-91 -36,-11 -44,-10 -48,1 -7,19 -32,18 -40,-1 -3,-8 -18,-21 -33,-27 -15,-7 -42,-23 -60,-36 -18,-13 -36,-21 -42,-18 -5,4 -10,80 -11,176 l -1,170 44,0 c 27,0 49,6 57,15 9,11 11,159 6,667 -3,359 -2,658 2,665 4,6 50,21 101,32 96,21 121,33 121,57 0,8 6,14 13,14 6,0 35,12 62,25 28,14 53,25 58,25 7,0 88,34 119,51 10,5 60,9 112,9 52,0 97,4 100,9 9,14 -31,19 -116,16 -62,-3 -94,-11 -165,-40 -166,-70 -190,-77 -212,-65 -17,9 -33,2 -97,-40 -55,-35 -81,-47 -89,-40 -9,7 -13,69 -14,211 -1,110 -4,205 -7,212 -2,7 -21,13 -42,13 -73,0 -69,-14 -70,254 -1,133 -5,246 -8,251 -9,15 -23,10 -35,-13 z m 2,-780 c 1,-139 3,-356 5,-483 2,-126 4,-410 4,-630 l 1,-400 -40,-3 -41,-3 0,48 c 0,26 -3,181 -6,343 -12,608 -21,1365 -17,1373 2,4 24,7 49,7 l 44,0 1,-252 z m 125,197 c 0,-27 2,-423 5,-880 l 4,-830 -29,-3 c -16,-2 -32,0 -36,5 -4,4 -11,403 -15,886 l -7,878 38,-3 39,-3 1,-50 z"
       id="path3035" />
    <path
       inkscape:connector-curvature="0"
       d="m 8043,7045 c 0,-22 2,-30 4,-17 2,12 2,30 0,40 -3,9 -5,-1 -4,-23 z"
       id="path3037" />
    <path
       inkscape:connector-curvature="0"
       d="m 3141,6721 c -39,-5 -42,-8 -28,-20 23,-19 25,-192 2,-215 -8,-8 -15,-17 -15,-20 0,-8 139,-7 168,0 12,4 29,18 36,33 16,31 10,91 -10,91 -16,0 -19,26 -4,35 18,11 11,51 -12,72 -27,25 -75,33 -137,24 z m 99,-41 c 6,-12 8,-29 5,-40 -6,-19 -41,-37 -52,-26 -8,8 -14,67 -7,77 10,16 43,9 54,-11 z m 10,-116 c 6,-7 10,-25 8,-41 -2,-20 -9,-29 -26,-31 -34,-5 -48,12 -46,55 1,21 3,39 3,39 5,6 53,-11 61,-22 z"
       id="path3039" />
    <path
       inkscape:connector-curvature="0"
       d="m 3360,6610 c -35,-37 -39,-74 -12,-119 21,-38 61,-48 106,-27 40,19 56,52 50,101 -6,47 -22,63 -73,71 -37,6 -43,4 -71,-26 z m 84,-18 c 9,-18 12,-39 7,-61 -14,-72 -71,-63 -71,11 0,74 37,103 64,50 z"
       id="path3041" />
    <path
       inkscape:connector-curvature="0"
       d="m 3525,6630 c -3,-6 5,-24 19,-41 32,-38 32,-44 1,-85 -30,-39 -31,-44 -5,-44 11,0 26,12 34,28 8,15 16,24 17,20 1,-5 2,-11 3,-15 4,-22 20,-33 47,-33 31,0 39,19 16,42 -7,7 -21,25 -31,39 -16,26 -16,27 15,53 17,15 30,28 28,30 -12,11 -138,16 -144,6 z"
       id="path3043" />
    <path
       inkscape:connector-curvature="0"
       d="m 5598,6422 c -31,-27 -36,-47 -12,-56 22,-8 26,-8 19,4 -7,11 18,24 35,18 7,-2 4,-11 -7,-23 -25,-27 -63,-93 -63,-109 0,-9 9,-12 25,-9 13,3 23,10 22,17 -1,6 7,9 18,8 62,-11 79,-7 89,21 13,37 -8,62 -29,33 -12,-15 -19,-17 -37,-9 -22,9 -21,11 25,58 26,26 44,51 40,56 -4,4 -28,9 -52,11 -36,3 -50,-1 -73,-20 z"
       id="path3045" />
    <path
       inkscape:connector-curvature="0"
       d="m 5624,6176 c -3,-13 -4,-170 -2,-350 3,-227 1,-326 -6,-326 -6,0 -22,-9 -36,-20 -14,-11 -32,-20 -42,-20 -9,0 -18,-3 -20,-7 -1,-5 -23,-21 -48,-38 -51,-34 -77,-55 -136,-107 -22,-21 -45,-38 -50,-39 -5,0 -45,-43 -89,-95 -44,-52 -95,-112 -113,-134 -39,-45 -112,-148 -112,-157 0,-3 -12,-22 -27,-42 -16,-20 -34,-47 -41,-60 -8,-13 -23,-40 -34,-60 -11,-20 -24,-40 -28,-46 -18,-23 -144,-276 -172,-345 -16,-41 -33,-79 -37,-85 -4,-5 -13,-28 -20,-50 -16,-52 -70,-195 -81,-215 -4,-9 -11,-31 -15,-50 -4,-19 -11,-41 -16,-50 -4,-8 -19,-55 -34,-105 -14,-49 -32,-112 -40,-140 -21,-72 -50,-197 -71,-310 -3,-16 -15,-77 -26,-135 -10,-58 -22,-123 -24,-145 -3,-22 -14,-101 -24,-175 -10,-74 -22,-196 -26,-270 -3,-74 -8,-146 -9,-160 -2,-14 -4,-49 -4,-78 l -1,-52 -52,-24 c -49,-23 -108,-49 -183,-81 -16,-7 -56,-24 -88,-39 -32,-14 -60,-26 -63,-26 -2,0 -42,-16 -87,-36 -45,-20 -95,-42 -112,-49 -33,-14 -272,-119 -320,-140 -16,-8 -88,-39 -160,-69 -73,-31 -130,-60 -130,-68 0,-18 30,-12 95,19 30,14 64,29 75,34 11,4 43,17 70,29 28,12 64,28 80,35 17,7 56,25 87,39 31,14 60,26 63,26 3,0 32,12 63,26 31,15 66,30 77,34 23,9 101,43 160,70 49,22 91,40 175,75 36,15 85,36 110,47 25,11 54,24 65,28 11,4 32,12 46,18 l 26,10 7,-183 c 3,-101 18,-270 32,-376 23,-176 72,-426 93,-482 5,-12 19,-53 31,-92 46,-149 75,-219 167,-395 19,-36 42,-74 52,-85 11,-11 28,-36 40,-55 30,-51 221,-240 258,-256 17,-8 34,-18 38,-24 6,-9 16,-15 125,-63 53,-24 179,-51 230,-50 79,1 184,16 250,34 135,37 120,43 120,-49 0,-49 4,-84 11,-88 20,-12 29,20 29,109 l 0,88 43,20 c 42,20 64,34 166,106 68,48 247,218 286,273 17,23 51,65 77,93 26,29 48,57 48,64 0,6 16,30 35,53 19,23 35,47 35,54 0,7 11,23 25,36 14,13 25,31 25,40 0,9 8,25 18,36 9,11 28,42 41,69 14,28 33,62 43,77 10,14 18,33 18,40 0,8 9,23 20,33 11,10 20,24 20,32 0,7 11,36 25,63 14,27 25,56 25,65 0,8 4,15 9,15 5,0 12,10 16,23 3,12 11,33 17,47 13,31 21,50 48,125 12,33 26,69 30,80 4,11 20,56 35,100 15,44 31,89 35,100 23,52 137,508 150,600 4,29 3,59 -3,73 -14,29 -8,33 34,22 18,-5 117,-23 219,-40 102,-17 203,-35 225,-40 49,-11 294,-57 350,-65 22,-4 58,-11 80,-17 22,-5 61,-12 88,-15 41,-4 47,-2 47,14 0,14 -8,19 -32,21 -18,1 -44,6 -58,11 -14,5 -43,12 -65,15 -22,3 -51,7 -65,10 -29,6 -130,23 -210,36 -30,4 -62,11 -70,14 -8,3 -58,12 -110,20 -52,9 -131,22 -175,31 -44,9 -105,20 -135,25 -30,6 -100,19 -155,30 -101,21 -884,164 -1072,196 -109,19 -134,27 -118,42 6,5 109,51 230,102 121,51 269,115 330,143 60,27 139,62 175,77 36,15 175,75 309,133 l 244,106 -7,-161 c -7,-185 -19,-306 -47,-468 -10,-64 -19,-129 -19,-145 l 0,-30 23,28 c 17,22 27,56 39,145 22,152 37,321 45,504 6,136 8,147 27,156 77,37 114,52 127,52 17,0 63,39 55,47 -9,10 -70,-7 -131,-37 -53,-25 -61,-26 -66,-12 -3,10 -9,87 -12,172 -7,164 -30,408 -48,500 -41,209 -58,275 -126,480 -40,120 -52,151 -84,210 -4,8 -24,47 -44,85 -55,105 -75,138 -130,201 -27,32 -54,65 -60,72 -21,28 -105,112 -112,112 -5,0 -24,14 -43,31 -19,17 -48,37 -65,45 -16,7 -37,18 -45,23 -27,17 -109,51 -123,51 -7,0 -17,4 -22,9 -18,15 -214,34 -290,27 -63,-5 -163,-32 -227,-60 -17,-8 -18,5 -19,175 -1,150 -5,431 -8,487 -2,22 -30,13 -37,-12 z m 601,-669 c 185,-64 329,-181 458,-370 143,-211 237,-443 302,-742 55,-256 92,-607 83,-793 l -3,-73 -90,-38 c -49,-21 -164,-71 -255,-111 -91,-40 -199,-87 -240,-105 -168,-73 -381,-166 -480,-209 -58,-26 -139,-61 -180,-78 -41,-17 -79,-35 -85,-39 -5,-5 -17,-9 -27,-9 -16,0 -18,18 -18,268 1,147 -2,420 -5,607 -3,187 -7,635 -10,996 l -5,656 103,31 c 135,41 134,41 267,37 89,-3 131,-9 185,-28 z m -594,-359 c 0,-161 2,-385 4,-498 2,-113 6,-550 10,-971 l 6,-766 -48,-18 c -26,-10 -70,-28 -98,-40 -157,-70 -241,-106 -540,-233 -181,-78 -402,-173 -490,-211 -87,-39 -160,-71 -162,-71 -7,0 -2,162 7,275 27,313 72,601 134,855 79,318 118,446 212,683 198,499 437,868 725,1120 51,44 220,167 232,167 4,0 7,-132 8,-292 z m 324,-2314 c 771,-139 1031,-186 1033,-189 2,-2 -3,-34 -12,-72 -9,-37 -30,-131 -46,-208 -96,-437 -262,-884 -457,-1224 -47,-83 -130,-214 -156,-246 -4,-5 -18,-24 -30,-41 C 6147,658 5912,439 5753,357 l -30,-16 -6,297 c -3,163 -7,434 -8,602 0,168 -3,321 -4,340 -2,27 -8,1276 -5,1301 0,3 51,-5 113,-18 61,-13 126,-26 142,-29 z m -301,-226 c 3,-145 8,-672 11,-1173 3,-501 8,-955 11,-1011 l 6,-100 -27,-12 c -59,-27 -175,-53 -260,-58 -122,-8 -213,12 -341,75 -83,41 -118,67 -197,141 -110,105 -166,175 -235,298 -148,262 -253,628 -292,1012 -8,86 -30,441 -30,501 0,9 14,22 33,30 62,25 1083,460 1192,508 61,27 113,49 116,50 4,1 9,-117 13,-261 z"
       id="path3047" />
    <path
       inkscape:connector-curvature="0"
       d="m 5240,4037 c -24,-13 -25,-32 0,-32 51,0 -13,-37 -213,-123 -125,-54 -232,-103 -238,-109 -13,-13 -14,-286 -3,-606 8,-208 4,-199 79,-211 33,-6 54,-1 110,24 171,77 227,101 335,145 63,26 128,54 144,62 l 29,15 -7,396 c -5,295 -10,398 -19,404 -6,4 -37,10 -67,13 -30,4 -64,10 -75,15 -41,17 -53,18 -75,7 z m 124,-53 c 13,-5 14,-9 5,-20 -6,-8 -18,-14 -26,-14 -8,0 -27,-6 -41,-14 -15,-8 -111,-49 -214,-92 -104,-43 -188,-81 -188,-86 0,-4 -11,-8 -25,-8 -32,0 -33,26 -1,34 34,8 439,185 451,197 11,11 18,11 39,3 z m 71,-46 c 3,-7 6,-167 7,-356 l 3,-343 -25,3 c -24,3 -25,6 -28,78 -3,96 -8,112 -28,85 -12,-15 -14,-35 -9,-86 l 7,-66 -64,-27 c -34,-15 -80,-34 -100,-43 -21,-9 -38,-23 -38,-31 0,-19 25,-13 125,32 83,37 144,49 115,23 -8,-8 -53,-30 -100,-50 -47,-20 -149,-63 -226,-96 -78,-34 -147,-61 -153,-61 -7,0 -11,115 -13,358 -2,196 -2,362 0,367 1,6 78,42 170,81 144,62 169,70 179,57 14,-18 33,-9 33,16 0,12 19,26 58,44 66,29 81,32 87,15 z m -569,-211 c 1,-1 4,-140 7,-310 5,-295 4,-308 -14,-318 -24,-13 -24,-29 0,-29 15,0 19,-8 19,-45 1,-44 -9,-58 -24,-33 -4,6 -2,14 4,16 22,7 13,22 -13,22 l -25,0 0,243 c -1,133 -3,293 -7,356 l -5,114 28,-7 c 16,-4 29,-8 30,-9 z"
       id="path3049" />
    <path
       inkscape:connector-curvature="0"
       d="m 5353,3718 c 2,-164 4,-193 17,-193 13,0 15,23 14,150 -2,245 -2,235 -18,235 -12,0 -14,-29 -13,-192 z"
       id="path3051" />
    <path
       inkscape:connector-curvature="0"
       d="m 5266,3833 c -3,-3 -6,-30 -6,-60 0,-40 4,-53 15,-53 11,0 15,13 15,54 0,51 -9,74 -24,59 z"
       id="path3053" />
    <path
       inkscape:connector-curvature="0"
       d="m 5260,3630 c 0,-47 3,-60 15,-60 12,0 15,13 15,60 0,47 -3,60 -15,60 -12,0 -15,-13 -15,-60 z"
       id="path3055" />
    <path
       inkscape:connector-curvature="0"
       d="m 5042,3568 c -37,-96 -79,-189 -91,-201 -17,-17 -13,-37 8,-37 63,0 105,26 61,37 -11,3 -20,12 -20,19 0,22 38,54 64,54 32,0 46,-48 20,-67 -28,-21 -5,-32 54,-26 53,6 64,17 37,37 -9,6 -33,60 -54,121 -21,60 -43,111 -49,113 -6,2 -19,-21 -30,-50 z m 28,-78 c 0,-20 -5,-30 -15,-30 -17,0 -18,4 -9,38 9,32 24,27 24,-8 z"
       id="path3057" />
    <path
       inkscape:connector-curvature="0"
       d="m 5264,3517 c -9,-25 0,-100 14,-105 8,-3 12,12 12,52 0,53 -14,83 -26,53 z"
       id="path3059" />
    <path
       inkscape:connector-curvature="0"
       d="m 5355,3479 c -5,-13 -2,-25 6,-30 19,-11 29,-2 29,27 0,30 -26,32 -35,3 z"
       id="path3061" />
    <path
       inkscape:connector-curvature="0"
       d="m 5260,3314 c 0,-42 -2,-46 -35,-60 -62,-26 -41,-45 26,-23 19,6 40,13 48,15 11,4 12,7 3,16 -7,7 -12,31 -12,55 0,32 -4,43 -15,43 -11,0 -15,-12 -15,-46 z"
       id="path3063" />
    <path
       inkscape:connector-curvature="0"
       d="m 5130,3212 c -60,-19 -83,-33 -73,-43 13,-13 75,4 93,26 13,15 2,25 -20,17 z"
       id="path3065" />
    <path
       inkscape:connector-curvature="0"
       d="m 4955,3138 c -28,-15 -28,-15 -20,-27 7,-13 65,13 65,29 0,13 -20,12 -45,-2 z"
       id="path3067" />
    <path
       inkscape:connector-curvature="0"
       d="m 5077,3133 c -14,-13 -6,-33 13,-33 13,0 20,7 20,20 0,19 -20,27 -33,13 z"
       id="path3069" />
    <path
       inkscape:connector-curvature="0"
       d="m 4978,3088 c -47,-20 -57,-31 -39,-42 14,-9 111,35 111,50 0,19 -16,17 -72,-8 z"
       id="path3071" />
    <path
       inkscape:connector-curvature="0"
       d="m 5143,3992 c -18,-9 -33,-20 -33,-25 0,-10 61,1 75,14 19,19 -10,27 -42,11 z"
       id="path3073" />
    <path
       inkscape:connector-curvature="0"
       d="m 5008,3937 c -27,-11 -48,-26 -48,-33 0,-19 9,-18 63,9 63,30 50,51 -15,24 z"
       id="path3075" />
    <path
       inkscape:connector-curvature="0"
       d="m 4860,3875 c -30,-13 -56,-30 -58,-39 -4,-21 -3,-20 63,8 33,15 55,31 55,40 0,9 -1,16 -2,15 -2,0 -28,-11 -58,-24 z"
       id="path3077" />
    <path
       inkscape:connector-curvature="0"
       d="m 4702,3804 c -18,-12 -22,-25 -22,-70 0,-40 4,-54 14,-54 10,0 16,13 18,38 2,29 8,38 24,40 16,2 21,10 22,32 1,35 -20,40 -56,14 z"
       id="path3079" />
    <path
       inkscape:connector-curvature="0"
       d="m 4680,3583 c 0,-66 13,-98 30,-73 18,28 6,130 -16,130 -10,0 -14,-15 -14,-57 z"
       id="path3081" />
    <path
       inkscape:connector-curvature="0"
       d="m 4687,3461 c -9,-41 3,-101 19,-101 10,0 14,17 14,65 0,48 -3,65 -14,65 -7,0 -16,-13 -19,-29 z"
       id="path3083" />
    <path
       inkscape:connector-curvature="0"
       d="m 4696,3313 c -3,-3 -6,-35 -6,-69 0,-52 3,-62 15,-58 11,5 15,22 15,64 0,55 -9,78 -24,63 z"
       id="path3085" />
    <path
       inkscape:connector-curvature="0"
       d="m 4694,3127 c -3,-8 -4,-40 -2,-72 3,-55 5,-59 31,-66 34,-9 60,-1 49,15 -4,6 -7,20 -7,31 0,15 -6,19 -22,17 -21,-3 -23,1 -23,37 0,41 -16,64 -26,38 z"
       id="path3087" />
    <path
       inkscape:connector-curvature="0"
       d="m 6045,1493 c -59,-12 -105,-69 -105,-128 0,-29 49,-85 74,-85 61,0 110,60 103,128 -4,38 -3,42 18,42 26,0 50,24 40,40 -6,10 -90,12 -130,3 z m 25,-68 c 0,-32 -24,-90 -40,-100 -19,-12 -41,24 -34,54 10,41 33,71 54,71 15,0 20,-7 20,-25 z"
       id="path3089" />
    <path
       inkscape:connector-curvature="0"
       d="m 3590,5053 c 0,-5 5,-14 10,-19 6,-6 13,-57 16,-113 5,-90 4,-104 -12,-115 -9,-7 -14,-18 -10,-24 9,-15 72,-16 81,-2 3,6 1,10 -4,10 -6,0 -11,9 -11,20 0,28 12,25 35,-10 14,-21 28,-30 48,-30 29,0 33,4 17,23 -6,7 -23,27 -39,46 -33,40 -31,56 10,70 30,10 40,31 15,31 -25,0 -46,-12 -46,-26 0,-7 -9,-18 -20,-24 -18,-10 -19,-6 -22,77 l -3,88 -32,3 c -18,2 -33,-1 -33,-5 z"
       id="path3091" />
    <path
       inkscape:connector-curvature="0"
       d="m 3084,5029 c -3,-5 2,-12 10,-15 23,-9 23,-195 1,-214 -25,-21 -10,-26 77,-25 69,0 89,4 114,22 86,61 89,166 7,220 -20,14 -50,18 -115,19 -49,1 -91,-2 -94,-7 z m 187,-46 c 20,-20 27,-81 15,-126 -9,-31 -32,-46 -81,-52 -31,-4 -34,-2 -37,23 -2,15 -2,62 0,106 l 4,78 40,-5 c 23,-3 49,-14 59,-24 z"
       id="path3093" />
    <path
       inkscape:connector-curvature="0"
       d="m 3397,5005 c -4,-8 -2,-17 3,-20 17,-11 11,-37 -10,-42 -23,-6 -25,-14 -9,-30 10,-10 9,-86 -2,-123 -3,-12 8,-15 54,-16 31,-1 68,-5 81,-8 17,-4 31,1 50,19 31,28 27,43 -23,88 -36,31 -39,47 -11,47 11,0 20,-4 20,-10 0,-5 7,-10 15,-10 8,0 15,9 15,20 0,27 -40,36 -79,16 -45,-24 -40,-65 11,-92 18,-9 28,-22 26,-32 -4,-23 -43,-23 -42,1 2,21 -14,23 -22,2 -8,-19 -30,-19 -37,0 -4,8 -4,39 -1,70 4,36 2,55 -5,55 -16,0 -13,26 4,40 12,10 13,16 4,26 -15,18 -35,18 -42,-1 z"
       id="path3095" />
    <path
       inkscape:connector-curvature="0"
       d="m 2972,1844 c -18,-12 -26,-13 -37,-4 -18,15 -52,4 -66,-22 -14,-26 -1,-38 17,-14 13,18 14,18 24,-9 14,-36 0,-80 -26,-80 -10,0 -20,-8 -22,-18 -5,-23 29,-35 41,-15 8,12 16,13 38,5 20,-8 35,-8 53,1 29,13 35,35 9,30 -30,-4 -43,11 -43,53 0,35 3,39 24,39 31,0 43,18 24,36 -12,12 -17,12 -36,-2 z"
       id="path3097" />
  </g>
  <rect
     style="fill:#b9b9b9;fill-opacity:1;stroke:none"
     id="rect4057"
     width="5.423543"
     height="7.395741"
     x="56.539253"
     y="126.27578" />
  <text
     xml:space="preserve"
     style="font-size:8px;font-style:normal;font-variant:normal;font-weight:normal;font-stretch:normal;text-indent:0;text-align:start;text-decoration:none;line-height:125%;letter-spacing:0px;word-spacing:0px;text-transform:none;direction:ltr;block-progression:tb;writing-mode:lr-tb;text-anchor:start;baseline-shift:baseline;color:#000000;fill:#000000;fill-opacity:1;fill-rule:nonzero;stroke:none;stroke-width:0.99999994px;marker:none;visibility:visible;display:inline;overflow:visible;enable-background:accumulate;font-family:Sans;-inkscape-font-specification:Sans"
     x="56.636383"
     y="131.80667"
     id="text4053"
     sodipodi:linespacing="125%"><tspan
       sodipodi:role="line"
       id="tspan4055"
       x="56.636383"
       y="131.80667"
       style="font-size:9.04000092px;font-style:italic;font-variant:normal;font-weight:bold;font-stretch:normal;font-family:Linux Libertine O;-inkscape-font-specification:Linux Libertine O Bold Italic">x</tspan></text>
  <text
     xml:space="preserve"
     style="font-size:7.99999952px;font-style:normal;font-variant:normal;font-weight:normal;font-stretch:normal;text-indent:0;text-align:start;text-decoration:none;line-height:125%;letter-spacing:0px;word-spacing:0px;text-transform:none;direction:ltr;block-progression:tb;writing-mode:lr-tb;text-anchor:start;baseline-shift:baseline;color:#000000;fill:#000000;fill-opacity:1;fill-rule:nonzero;stroke:none;stroke-width:0.99999994px;marker:none;visibility:visible;display:inline;overflow:visible;enable-background:accumulate;font-family:Sans;-inkscape-font-specification:Sans"
     x="183.59532"
     y="114.8541"
     id="text4053-3"
     sodipodi:linespacing="125%"><tspan
       sodipodi:role="line"
       id="tspan4055-5"
       x="183.59532"
       y="114.8541"
       style="font-size:9.04000092px;font-style:italic;font-variant:normal;font-weight:bold;font-stretch:normal;font-family:Linux Libertine O;-inkscape-font-specification:Linux Libertine O Bold Italic">y</tspan></text>
  <rect
     style="fill:#b9b9b9;fill-opacity:1;stroke:none"
     id="rect4057-3"
     width="5.423543"
     height="7.395741"
     x="122.21464"
     y="15.572958" />
  <text
     xml:space="preserve"
     style="font-size:7.99999952px;font-style:normal;font-variant:normal;font-weight:normal;font-stretch:normal;text-indent:0;text-align:start;text-decoration:none;line-height:125%;letter-spacing:0px;word-spacing:0px;text-transform:none;direction:ltr;block-progression:tb;writing-mode:lr-tb;text-anchor:start;baseline-shift:baseline;color:#000000;fill:#000000;fill-opacity:1;fill-rule:nonzero;stroke:none;stroke-width:0.99999994px;marker:none;visibility:visible;display:inline;overflow:visible;enable-background:accumulate;font-family:Sans;-inkscape-font-specification:Sans"
     x="122.31176"
     y="21.978445"
     id="text4053-5"
     sodipodi:linespacing="125%"><tspan
       sodipodi:role="line"
       id="tspan4055-1"
       x="122.31176"
       y="21.978445"
       style="font-size:9.04000092px;font-style:italic;font-variant:normal;font-weight:bold;font-stretch:normal;font-family:Linux Libertine O;-inkscape-font-specification:Linux Libertine O Bold Italic">z</tspan></text>
  <rect
     style="fill:#b9b9b9;fill-opacity:1;stroke:none"
     id="rect4115"
     width="16.017467"
     height="8.6823654"
     x="62.791595"
     y="10.008643" />
  <rect
     style="fill:#b9b9b9;fill-opacity:1;stroke:none"
     id="rect4117"
     width="20.059259"
     height="10.628413"
     x="62.192818"
     y="49.67807" />
  <text
     xml:space="preserve"
     style="font-size:8.64000034px;font-style:normal;font-variant:normal;font-weight:bold;font-stretch:normal;text-indent:0;text-align:start;text-decoration:none;line-height:125%;letter-spacing:0px;word-spacing:0px;text-transform:none;direction:ltr;block-progression:tb;writing-mode:lr-tb;text-anchor:start;baseline-shift:baseline;color:#000000;fill:#000000;fill-opacity:1;fill-rule:nonzero;stroke:none;stroke-width:0.99999994px;marker:none;visibility:visible;display:inline;overflow:visible;enable-background:accumulate;font-family:Linux Libertine O;-inkscape-font-specification:Linux Libertine O Bold"
     x="62.442055"
     y="16.84376"
     id="text4107"
     sodipodi:linespacing="125%"><tspan
       sodipodi:role="line"
       id="tspan4109"
       x="62.442055"
       y="16.84376">Box</tspan></text>
  <text
     xml:space="preserve"
     style="font-size:8.64000034px;font-style:normal;font-variant:normal;font-weight:bold;font-stretch:normal;text-indent:0;text-align:start;text-decoration:none;line-height:125%;letter-spacing:0px;word-spacing:0px;text-transform:none;direction:ltr;block-progression:tb;writing-mode:lr-tb;text-anchor:start;baseline-shift:baseline;color:#000000;fill:#000000;fill-opacity:1;fill-rule:nonzero;stroke:none;stroke-width:0.99999994px;marker:none;visibility:visible;display:inline;overflow:visible;enable-background:accumulate;font-family:Linux Libertine O;-inkscape-font-specification:Linux Libertine O Bold"
     x="62.198051"
     y="57.209274"
     id="text4111"
     sodipodi:linespacing="125%"><tspan
       sodipodi:role="line"
       id="tspan4113"
       x="62.198051"
       y="57.209274">Disk</tspan></text>
</svg>
