<?xml version="1.0" encoding="UTF-8" standalone="no"?>
<svg
   xmlns:dc="http://purl.org/dc/elements/1.1/"
   xmlns:cc="http://creativecommons.org/ns#"
   xmlns:rdf="http://www.w3.org/1999/02/22-rdf-syntax-ns#"
   xmlns:svg="http://www.w3.org/2000/svg"
   xmlns="http://www.w3.org/2000/svg"
   xmlns:xlink="http://www.w3.org/1999/xlink"
   xmlns:sodipodi="http://sodipodi.sourceforge.net/DTD/sodipodi-0.dtd"
   xmlns:inkscape="http://www.inkscape.org/namespaces/inkscape"
   version="1.0"
   width="198.240000pt"
   height="172.560000pt"
   viewBox="0 0 198.240000 172.560000"
   preserveAspectRatio="xMidYMid meet"
   id="svg3117"
   sodipodi:docname="gradient-of-r.svg">
  <defs
     id="defs3191" />
  <sodipodi:namedview
     pagecolor="#ffffff"
     bordercolor="#666666"
     borderopacity="1"
     objecttolerance="10"
     gridtolerance="10"
     guidetolerance="10"
     inkscape:pageopacity="0"
     inkscape:pageshadow="2"
     inkscape:window-width="1280"
     inkscape:window-height="996"
     id="namedview3189"
     showgrid="false"
     inkscape:zoom="1.2315992"
     inkscape:cx="121.89188"
     inkscape:cy="115.30736"
     inkscape:window-x="0"
     inkscape:window-y="0"
     inkscape:window-maximized="1"
     inkscape:current-layer="svg3117" />
  <metadata
     id="metadata3119">
Created by potrace 1.10, written by Peter Selinger 2001-2011
<rdf:RDF>
  <cc:Work
     rdf:about="">
    <dc:format>image/svg+xml</dc:format>
    <dc:type
       rdf:resource="http://purl.org/dc/dcmitype/StillImage" />
    <dc:title />
  </cc:Work>
</rdf:RDF>
</metadata>
  <image
     sodipodi:absref="/home/bcrowell/Documents/writing/books/purcell/ch02/figs/gradient-of-r-shaded.jpg"
     xlink:href="gradient-of-r-shaded.jpg"
     y="-0.031552281"
     x="44.124039"
     id="image3075"
     height="172.47401"
     width="154.00323" />
  <path
     style="fill:#b9b9b9;fill-opacity:1;stroke:none"
     d="M 11.6875 5.625 L 11.6875 222.3125 L 289.84375 222.3125 L 289.84375 5.625 L 11.6875 5.625 z M 145 34.375 C 192.83087 34.375 231.625 73.137871 231.625 120.96875 C 231.625 168.79964 192.83087 207.59375 145 207.59375 C 97.169119 207.59375 58.40625 168.79964 58.40625 120.96875 C 58.40625 73.137871 97.169119 34.375 145 34.375 z "
     transform="matrix(0.80000001,0,0,0.80000001,-2.6230686e-6,0)"
     id="rect3223" />
  <path
     style="fill:#000000;stroke:none"
     inkscape:connector-curvature="0"
     id="path3125"
     d="m 100.392,26.928 c -0.288,0.144 -0.648,0.552 -0.792,0.936 -0.264,0.624 -0.84,0.888 -2.28,1.056 -0.12,0.024 -0.408,0.096 -0.6,0.192 -0.408,0.168 -2.376,0.72 -2.76,0.792 -0.12,0 -0.456,0.12 -0.72,0.216 -1.416,0.576 -2.928,1.128 -3.24,1.2 -1.032,0.216 -8.4,3.744 -9.288,4.44 -0.336,0.264 -0.696,0.408 -0.816,0.336 -0.12,-0.072 -0.216,-0.024 -0.216,0.072 0,0.12 -0.624,0.576 -1.368,1.032 -1.8,1.08 -4.536,2.952 -5.52,3.744 -0.696,0.552 -0.864,0.6 -1.512,0.36 -1.296,-0.432 -2.664,0.72 -2.28,1.92 0.12,0.36 -0.696,1.344 -3.576,4.368 -3.672,3.84 -4.128,4.392 -5.76,6.768 -0.456,0.672 -0.984,1.368 -1.2,1.536 -0.216,0.168 -0.384,0.432 -0.384,0.576 0,0.144 -0.216,0.48 -0.456,0.744 -0.696,0.744 -3.36,5.4 -4.752,8.304 -1.2,2.496 -3.168,7.08 -3.288,7.68 -0.192,0.84 -0.744,2.568 -0.864,2.76 -0.144,0.192 -0.792,2.568 -1.08,3.936 -0.048,0.216 -0.216,0.912 -0.36,1.584 -0.144,0.648 -0.312,1.512 -0.384,1.92 -0.048,0.384 -0.144,0.984 -0.216,1.32 -0.504,2.4 -0.936,7.8 -0.936,11.52 0.024,2.64 0.264,7.392 0.456,8.64 0.072,0.336 0.168,1.032 0.24,1.56 0.168,1.272 0.336,2.232 0.6,3.24 0.192,0.72 0.288,1.272 0.576,3.12 0.024,0.216 0.12,0.48 0.192,0.6 0.072,0.144 0.216,0.624 0.312,1.08 0.096,0.456 0.384,1.464 0.624,2.208 0.264,0.768 0.48,1.584 0.528,1.8 0.048,0.24 0.216,0.696 0.408,1.032 0.168,0.336 0.288,0.624 0.264,0.672 -0.048,0.048 0.168,0.696 0.456,1.44 0.288,0.744 0.6,1.584 0.72,1.848 0.192,0.552 1.896,4.128 2.184,4.68 1.008,1.8 1.128,2.184 0.888,2.904 -0.312,0.888 0.216,1.776 1.176,1.992 0.384,0.096 0.912,0.528 1.272,1.032 0.336,0.456 1.032,1.488 1.56,2.232 1.584,2.28 3.936,5.28 5.592,7.128 1.848,2.04 6.672,6.552 8.304,7.752 0.648,0.456 1.56,1.128 2.04,1.512 0.72,0.552 4.104,2.808 5.904,3.936 1.128,0.72 7.8,4.152 7.8,4.032 0,-0.072 0.504,0.144 1.152,0.456 0.624,0.312 1.728,0.744 2.448,0.984 0.72,0.24 1.536,0.504 1.8,0.6 3.12,1.2 8.256,2.496 11.952,3.024 0.36,0.048 1.008,0.144 1.44,0.216 4.368,0.72 13.632,0.6 19.128,-0.216 1.848,-0.264 5.112,-0.912 6.36,-1.248 0.792,-0.192 1.608,-0.408 1.8,-0.456 0.672,-0.168 3.72,-1.104 4.2,-1.296 0.264,-0.12 0.864,-0.336 1.32,-0.504 0.912,-0.312 1.104,-0.384 3.12,-1.2 2.016,-0.816 6.384,-3.024 7.752,-3.888 0.648,-0.408 1.488,-0.936 1.848,-1.128 1.56,-0.912 3.024,-1.872 3.816,-2.544 0.48,-0.408 1.728,-1.368 2.784,-2.136 2.736,-2.016 8.952,-8.4 11.52,-11.784 1.176,-1.584 2.232,-2.928 2.328,-2.952 0.096,-0.048 0.192,-0.216 0.192,-0.384 0,-0.168 0.312,-0.72 0.72,-1.224 0.408,-0.504 0.72,-1.032 0.72,-1.2 0,-0.168 0.168,-0.432 0.36,-0.6 0.696,-0.576 4.488,-8.232 5.64,-11.4 2.136,-5.832 3.576,-12.192 4.272,-18.6 0.24,-2.376 0.144,-11.112 -0.168,-13.56 -0.144,-1.2 -0.312,-2.688 -0.384,-3.312 -0.072,-0.624 -0.336,-2.136 -0.624,-3.36 -0.264,-1.224 -0.528,-2.424 -0.552,-2.688 -0.096,-0.6 -0.6,-2.472 -0.864,-3.12 -0.12,-0.264 -0.456,-1.296 -0.744,-2.28 -0.648,-2.232 -3.288,-8.616 -4.056,-9.84 C 177,64.848 176.496,63.936 176.016,63 173.928,58.992 168.6,51.576 165.6,48.528 c -2.496,-2.568 -5.4,-5.256 -6.36,-5.928 -0.504,-0.312 -1.152,-0.864 -1.44,-1.176 -0.288,-0.312 -0.84,-0.744 -1.224,-0.936 -0.384,-0.192 -0.912,-0.576 -1.152,-0.864 -0.264,-0.288 -0.576,-0.504 -0.744,-0.504 -0.168,0 -0.576,-0.264 -0.936,-0.6 -0.36,-0.336 -1.032,-0.768 -1.488,-0.96 -0.456,-0.192 -0.816,-0.456 -0.816,-0.624 0,-0.168 -0.072,-0.216 -0.144,-0.144 -0.096,0.096 -0.456,-0.048 -0.792,-0.288 -1.752,-1.248 -10.032,-5.136 -11.544,-5.448 -0.192,-0.048 -0.72,-0.216 -1.2,-0.432 -1.368,-0.552 -1.8,-0.696 -1.992,-0.648 -0.096,0 -0.384,-0.072 -0.624,-0.192 -0.24,-0.144 -0.696,-0.288 -1.008,-0.36 -0.312,-0.072 -1.344,-0.336 -2.304,-0.6 -0.936,-0.264 -2.088,-0.552 -2.568,-0.6 -0.456,-0.048 -1.032,-0.168 -1.272,-0.24 -0.24,-0.072 -0.816,-0.192 -1.272,-0.24 -3.12,-0.456 -4.368,-0.624 -5.64,-0.744 -1.92,-0.216 -11.424,-0.288 -11.544,-0.096 -0.048,0.096 -0.6,0.144 -1.224,0.12 -0.648,-0.024 -1.248,0.024 -1.392,0.12 -0.12,0.096 -0.984,0.216 -1.896,0.312 -0.912,0.096 -1.752,0.216 -1.872,0.288 -0.12,0.072 -0.456,-0.072 -0.744,-0.336 -0.696,-0.624 -1.368,-0.792 -2.016,-0.48 z m 19.344,0.528 c 2.88,0.168 5.496,0.528 8.424,1.152 1.248,0.264 2.448,0.504 2.64,0.552 4.728,0.984 10.8,3.264 16.248,6.12 6.312,3.312 11.256,6.936 16.656,12.264 2.976,2.928 8.136,9.264 8.136,9.984 0,0.144 0.168,0.408 0.384,0.576 0.96,0.792 5.16,8.544 6.672,12.336 3.552,8.832 5.208,17.256 5.184,26.64 0,6.144 -0.288,8.928 -1.44,13.92 -0.144,0.648 -0.312,1.464 -0.36,1.8 -0.12,0.72 -0.792,3.336 -1.008,3.84 -0.072,0.192 -0.168,0.48 -0.192,0.624 -0.144,0.624 -1.896,5.592 -2.328,6.576 -1.248,2.832 -4.368,8.88 -4.776,9.264 -0.24,0.216 -0.456,0.528 -0.456,0.696 0,0.144 -0.312,0.696 -0.72,1.224 -0.384,0.504 -0.72,1.032 -0.72,1.152 0,0.096 -0.624,0.984 -1.368,1.944 -0.768,0.984 -1.68,2.16 -2.04,2.64 -0.336,0.48 -1.848,2.16 -3.36,3.744 -5.952,6.312 -13.512,11.712 -21.312,15.24 -1.56,0.72 -3,1.296 -3.168,1.296 -0.192,0 -0.432,0.096 -0.576,0.216 -0.192,0.192 -1.68,0.72 -5.016,1.776 -2.832,0.888 -8.16,2.04 -11.16,2.424 -6.192,0.792 -13.896,0.576 -20.4,-0.576 -6.216,-1.128 -11.136,-2.688 -17.4,-5.52 -3,-1.344 -9.192,-5.04 -11.76,-6.984 -0.768,-0.576 -1.704,-1.296 -2.112,-1.584 -2.448,-1.776 -7.752,-6.984 -10.008,-9.816 -0.216,-0.24 -0.984,-1.224 -1.728,-2.16 -0.744,-0.936 -1.968,-2.64 -2.688,-3.768 -1.296,-1.992 -1.32,-2.064 -0.984,-2.712 0.192,-0.384 0.36,-0.816 0.36,-0.96 0,-0.24 6.72,-4.416 7.08,-4.416 0.048,0 0.648,0.84 1.344,1.848 1.728,2.616 2.904,4.152 3.192,4.152 0.12,0 0.024,-0.24 -0.24,-0.552 -0.264,-0.288 -0.672,-0.792 -0.888,-1.128 -0.216,-0.336 -0.84,-1.248 -1.392,-2.04 -1.68,-2.448 -1.68,-2.568 -0.24,-3.312 1.032,-0.528 2.376,-1.32 5.304,-3.12 1.512,-0.912 3.24,-1.944 3.84,-2.28 0.6,-0.312 1.2,-0.672 1.32,-0.768 0.144,-0.096 1.584,-0.96 3.24,-1.92 1.656,-0.96 3.6,-2.088 4.32,-2.52 0.72,-0.432 3.312,-1.944 5.76,-3.36 2.448,-1.44 5.952,-3.48 7.8,-4.56 1.848,-1.08 5.472,-3.192 8.04,-4.68 2.568,-1.488 4.944,-2.88 5.28,-3.12 1.464,-1.008 3,-1.608 3.792,-1.512 0.984,0.168 1.728,-0.456 1.728,-1.416 0,-0.6 -0.264,-0.984 -1.248,-1.776 -0.168,-0.12 -0.792,-2.568 -1.344,-5.4 -1.296,-6.384 -4.368,-21.192 -5.208,-25.056 -0.6,-2.832 -0.984,-4.656 -1.2,-5.928 -0.072,-0.384 -0.288,-1.344 -0.48,-2.16 -0.192,-0.84 -0.408,-1.896 -0.48,-2.352 -0.072,-0.456 -0.504,-2.616 -0.96,-4.8 -1.008,-4.92 -1.008,-4.872 -1.296,-6.48 -0.456,-2.376 -0.48,-2.64 -0.288,-2.64 0.12,0 0.336,-0.312 0.504,-0.72 0.168,-0.384 0.48,-0.768 0.696,-0.816 0.768,-0.24 4.152,-0.624 5.328,-0.624 0.648,0 1.176,-0.096 1.176,-0.24 0,-0.216 -0.984,-0.168 -4.632,0.264 -2.112,0.264 -2.112,0.264 -2.688,-0.36 -0.312,-0.336 -0.744,-0.624 -0.936,-0.624 -0.216,0 -0.432,-0.24 -0.48,-0.552 -1.368,-6.456 -1.344,-6.408 -0.816,-6.936 0.24,-0.24 0.432,-0.576 0.432,-0.768 0,-0.36 1.824,-0.696 5.88,-1.104 4.272,-0.408 6.456,-0.432 11.136,-0.144 z M 99.84,29.4 c 0.168,0.192 0.432,0.36 0.6,0.36 0.168,0 0.408,0.144 0.552,0.312 0.216,0.24 0.96,3.384 1.416,5.976 0.168,0.84 -0.624,2.568 -1.248,2.712 -0.264,0.072 -2.208,0.336 -4.32,0.6 -7.824,1.008 -15.168,1.944 -17.16,2.184 -2.904,0.336 -4.128,0.48 -4.776,0.576 -3.672,0.6 -3.6,0.36 0.696,-2.544 6.624,-4.488 13.296,-7.68 19.8,-9.432 1.32,-0.36 2.664,-0.744 3,-0.864 0.888,-0.288 1.104,-0.288 1.44,0.12 z m 2.472,10.344 c 0.96,0.504 1.032,0.624 1.272,1.992 0.096,0.6 0.192,1.2 0.24,1.344 0.024,0.12 0.216,0.984 0.456,1.92 0.216,0.912 0.552,2.424 0.72,3.36 0.192,0.912 0.792,3.792 1.32,6.36 0.552,2.568 1.68,8.088 2.52,12.24 1.656,8.16 3.792,18.504 4.92,23.88 0.816,3.84 0.84,4.152 0.36,4.776 -0.192,0.264 -0.36,0.816 -0.36,1.224 0,0.696 -0.168,0.84 -2.904,2.424 -1.608,0.912 -3.312,1.872 -3.792,2.16 -9.552,5.544 -11.784,6.864 -17.904,10.464 -2.112,1.248 -4.008,2.352 -4.2,2.448 -0.192,0.096 -0.576,0.288 -0.84,0.456 -0.528,0.312 -2.688,1.584 -6.72,3.936 -1.44,0.84 -2.808,1.632 -3,1.752 -0.192,0.12 -0.888,0.528 -1.56,0.888 -0.648,0.36 -1.392,0.768 -1.608,0.912 -1.872,1.128 -6.456,3.72 -6.6,3.72 -0.216,0 -0.24,-0.024 -1.728,-2.952 -0.576,-1.152 -1.128,-2.04 -1.176,-1.968 -0.072,0.072 0.456,1.248 1.152,2.64 1.488,2.856 1.512,2.712 -0.72,3.864 -0.72,0.36 -1.752,0.96 -2.28,1.32 -2.352,1.56 -2.712,1.704 -3.504,1.296 -0.384,-0.216 -0.888,-0.336 -1.128,-0.312 -0.888,0.144 -4.728,-8.76 -6.36,-14.808 -0.696,-2.592 -1.296,-5.184 -1.488,-6.456 -0.072,-0.504 -0.168,-0.984 -0.216,-1.08 -0.048,-0.072 -0.168,-0.744 -0.264,-1.464 -0.096,-0.72 -0.216,-1.584 -0.264,-1.92 -0.648,-4.704 -0.432,-13.08 0.504,-18.84 0.552,-3.36 0.576,-3.504 0.96,-5.16 1.896,-7.704 5.52,-16.08 9.624,-22.2 3.168,-4.704 4.752,-6.624 8.808,-10.704 2.736,-2.76 3.072,-3 3.72,-2.904 0.576,0.072 0.888,-0.048 1.392,-0.552 0.696,-0.696 0.744,-0.72 2.856,-0.96 1.896,-0.216 2.16,-0.264 5.4,-0.696 1.512,-0.216 4.104,-0.552 5.76,-0.744 1.656,-0.192 3.432,-0.408 3.96,-0.48 1.224,-0.144 4.2,-0.528 5.76,-0.744 0.672,-0.096 1.152,-0.096 1.08,-0.048 -0.072,0.072 -1.296,0.6 -2.76,1.152 -2.64,1.032 -8.328,3.84 -9,4.44 -0.192,0.192 -0.672,0.456 -1.056,0.6 -0.384,0.144 -0.624,0.312 -0.552,0.384 0.144,0.168 2.256,-0.792 2.448,-1.104 0.096,-0.168 4.728,-2.496 6.84,-3.432 0.456,-0.216 1.872,-0.72 3.12,-1.128 1.248,-0.408 2.424,-0.864 2.592,-1.008 0.168,-0.144 0.984,-0.336 1.8,-0.432 0.816,-0.096 1.512,-0.192 1.56,-0.216 0.048,0 0.408,0.144 0.84,0.36 z" />
  <text
     xml:space="preserve"
     style="font-size:9.04000282px;font-style:italic;font-variant:normal;font-weight:bold;font-stretch:normal;text-indent:0;text-align:start;text-decoration:none;line-height:125%;letter-spacing:0px;word-spacing:0px;text-transform:none;direction:ltr;block-progression:tb;writing-mode:lr-tb;text-anchor:start;baseline-shift:baseline;color:#000000;fill:#000000;fill-opacity:1;fill-rule:nonzero;stroke:none;stroke-width:0.99999994px;marker:none;visibility:visible;display:inline;overflow:visible;enable-background:accumulate;font-family:Linux Libertine O;-inkscape-font-specification:Linux Libertine O Bold Italic"
     x="13.735997"
     y="148.34546"
     id="text3078"
     sodipodi:linespacing="125%"
     transform="matrix(0.87701965,-0.48045451,0.48045451,0.87701965,0,0)"><tspan
       sodipodi:role="line"
       id="tspan3080"
       x="13.735997"
       y="148.34546">r<tspan
   style="font-style:normal;-inkscape-font-specification:Linux Libertine O Bold"
   id="tspan3082"><tspan
   style="font-size:7.20000029px;baseline-shift:sub"
   id="tspan3084">0 </tspan>+ d</tspan>r</tspan></text>
  <text
     xml:space="preserve"
     style="font-size:8.64000034px;font-style:normal;font-variant:normal;font-weight:bold;font-stretch:normal;text-indent:0;text-align:start;text-decoration:none;line-height:125%;letter-spacing:0px;word-spacing:0px;text-transform:none;direction:ltr;block-progression:tb;writing-mode:lr-tb;text-anchor:start;baseline-shift:baseline;color:#000000;fill:#000000;fill-opacity:1;fill-rule:nonzero;stroke:none;stroke-width:0.99999994px;marker:none;visibility:visible;display:inline;overflow:visible;enable-background:accumulate;font-family:Linux Libertine O;-inkscape-font-specification:Sans"
     x="113.70031"
     y="72.413361"
     id="text3121"
     sodipodi:linespacing="125%"><tspan
       sodipodi:role="line"
       id="tspan3123"
       x="113.70031"
       y="72.413361"><tspan
         style="font-size:9.03999996px;font-style:italic;-inkscape-font-specification:Linux Libertine O Bold Italic"
         id="tspan3125">r</tspan><tspan
         style="font-size:7.20000029px;baseline-shift:sub"
         id="tspan3129">0</tspan></tspan></text>
  <text
     xml:space="preserve"
     style="font-size:9.03999996px;font-style:italic;font-variant:normal;font-weight:bold;font-stretch:normal;text-indent:0;text-align:start;text-decoration:none;line-height:125%;letter-spacing:0px;word-spacing:0px;text-transform:none;direction:ltr;block-progression:tb;writing-mode:lr-tb;text-anchor:start;baseline-shift:baseline;color:#000000;fill:#000000;fill-opacity:1;fill-rule:nonzero;stroke:none;stroke-width:0.99999994px;marker:none;visibility:visible;display:inline;overflow:visible;enable-background:accumulate;font-family:Linux Libertine O;-inkscape-font-specification:Sans Italic"
     x="117.71621"
     y="100.02272"
     id="text3131"
     sodipodi:linespacing="125%"><tspan
       sodipodi:role="line"
       id="tspan3133"
       x="117.71621"
       y="100.02272">O</tspan></text>
  <text
     xml:space="preserve"
     style="font-size:9.03999996px;font-style:italic;font-variant:normal;font-weight:bold;font-stretch:normal;text-indent:0;text-align:start;text-decoration:none;line-height:125%;letter-spacing:0px;word-spacing:0px;text-transform:none;direction:ltr;block-progression:tb;writing-mode:lr-tb;text-anchor:start;baseline-shift:baseline;color:#000000;fill:#000000;fill-opacity:1;fill-rule:nonzero;stroke:none;stroke-width:0.99999994px;marker:none;visibility:visible;display:inline;overflow:visible;enable-background:accumulate;font-family:Linux Libertine O;-inkscape-font-specification:Sans Italic"
     x="96.130722"
     y="47.815952"
     id="text3135"
     sodipodi:linespacing="125%"><tspan
       sodipodi:role="line"
       id="tspan3137"
       x="96.130722"
       y="47.815952">A</tspan></text>
  <text
     xml:space="preserve"
     style="font-size:9.03999996px;font-style:italic;font-variant:normal;font-weight:bold;font-stretch:normal;text-indent:0;text-align:start;text-decoration:none;line-height:125%;letter-spacing:0px;word-spacing:0px;text-transform:none;direction:ltr;block-progression:tb;writing-mode:lr-tb;text-anchor:start;baseline-shift:baseline;color:#000000;fill:#000000;fill-opacity:1;fill-rule:nonzero;stroke:none;stroke-width:0.99999994px;marker:none;visibility:visible;display:inline;overflow:visible;enable-background:accumulate;font-family:Linux Libertine O;-inkscape-font-specification:Sans Italic"
     x="96.883705"
     y="25.226484"
     id="text3139"
     sodipodi:linespacing="125%"><tspan
       sodipodi:role="line"
       id="tspan3141"
       x="96.883705"
       y="25.226484">B</tspan></text>
  <text
     xml:space="preserve"
     style="font-size:9.03999996px;font-style:italic;font-variant:normal;font-weight:bold;font-stretch:normal;text-indent:0;text-align:start;text-decoration:none;line-height:125%;letter-spacing:0px;word-spacing:0px;text-transform:none;direction:ltr;block-progression:tb;writing-mode:lr-tb;text-anchor:start;baseline-shift:baseline;color:#000000;fill:#000000;fill-opacity:1;fill-rule:nonzero;stroke:none;stroke-width:0.99999994px;marker:none;visibility:visible;display:inline;overflow:visible;enable-background:accumulate;font-family:Linux Libertine O;-inkscape-font-specification:Sans Italic"
     x="62.748512"
     y="42.545078"
     id="text3143"
     sodipodi:linespacing="125%"><tspan
       sodipodi:role="line"
       id="tspan3145"
       x="62.748512"
       y="42.545078">C</tspan></text>
  <rect
     style="fill:#b9b9b9;fill-opacity:1;stroke:none"
     id="rect3019"
     width="222.52536"
     height="20.105331"
     x="9.3710365"
     y="-4.5215774" />
  <path
     sodipodi:type="arc"
     style="fill:none;stroke:#000000;stroke-width:1;stroke-miterlimit:4;stroke-opacity:1;stroke-dasharray:6.00000001, 1;stroke-dashoffset:0"
     id="path3020"
     sodipodi:cx="141.23772"
     sodipodi:cy="119.53204"
     sodipodi:rx="76.360229"
     sodipodi:ry="76.360229"
     d="m 217.59795,119.53204 a 76.360229,76.360229 0 1 1 -152.720463,0 76.360229,76.360229 0 1 1 152.720463,0 z"
     transform="matrix(0.76862649,0,0,0.76862649,6.8424971,4.0946229)" />
</svg>
