<?xml version="1.0" encoding="UTF-8" standalone="no"?>
<svg
   xmlns:dc="http://purl.org/dc/elements/1.1/"
   xmlns:cc="http://creativecommons.org/ns#"
   xmlns:rdf="http://www.w3.org/1999/02/22-rdf-syntax-ns#"
   xmlns:svg="http://www.w3.org/2000/svg"
   xmlns="http://www.w3.org/2000/svg"
   xmlns:xlink="http://www.w3.org/1999/xlink"
   xmlns:sodipodi="http://sodipodi.sourceforge.net/DTD/sodipodi-0.dtd"
   xmlns:inkscape="http://www.inkscape.org/namespaces/inkscape"
   version="1.0"
   width="191.520000pt"
   height="401.760000pt"
   viewBox="0 0 191.520000 401.760000"
   preserveAspectRatio="xMidYMid meet"
   id="svg2"
   sodipodi:docname="gradient.svg">
  <defs
     id="defs200" />
  <sodipodi:namedview
     pagecolor="#ffffff"
     bordercolor="#666666"
     borderopacity="1"
     objecttolerance="10"
     gridtolerance="10"
     guidetolerance="10"
     inkscape:pageopacity="0"
     inkscape:pageshadow="2"
     inkscape:window-width="1280"
     inkscape:window-height="996"
     id="namedview198"
     showgrid="false"
     inkscape:zoom="1.0983907"
     inkscape:cx="15.116814"
     inkscape:cy="221.46132"
     inkscape:window-x="0"
     inkscape:window-y="0"
     inkscape:window-maximized="1"
     inkscape:current-layer="svg2" />
  <metadata
     id="metadata4">
Created by potrace 1.10, written by Peter Selinger 2001-2011
<rdf:RDF>
  <cc:Work
     rdf:about="">
    <dc:format>image/svg+xml</dc:format>
    <dc:type
       rdf:resource="http://purl.org/dc/dcmitype/StillImage" />
    <dc:title />
  </cc:Work>
</rdf:RDF>
</metadata>
  <rect
     style="fill:#b9b9b9;fill-opacity:1;stroke:none"
     id="rect3959"
     width="34.53862"
     height="401.74866"
     x="-30.897638"
     y="0.011342773" />
  <image
     sodipodi:absref="/home/bcrowell/a/gradient-shaded.jpg"
     xlink:href="gradient-shaded.jpg"
     y="-9.7656248e-06"
     x="-1.3344604e-06"
     id="image3439"
     height="401.76001"
     width="191.51999" />
  <path
     style="fill:#b9b9b9;stroke:none"
     d="m 0.0646969,0 0,59.674999 c 22.4527591,-7.054328 26.3354551,-13.311301 34.9499991,-18.35 9.1534,-5.353872 20.566799,-11.688701 33.324999,-12.6 4.835757,-0.345412 11.750327,-2.080209 32.474995,10.7 20.47289,12.624947 24.69431,17.602533 33.675,19.675 8.98068,2.072466 8.98054,2.957599 16.925,9.174999 6.95139,5.440224 9.4197,5.856111 9.925,5.875 -0.2384,0.0203 -3.54538,0.244635 -13.025,-2.25 -9.84421,-2.590583 -19.875,-6.575 -19.875,-6.575 0,0 -2.88691,1.892056 -6.075,5.85 -0.0985,0.274329 -0.23739,0.459343 -0.375,0.45 -0.0572,0.07344 -0.1177,0.150228 -0.175,0.225 0.144,0.336 0.063,0.42 -0.225,0.3 -0.48902,0.652173 -0.99181,1.350043 -1.475,2.1 8.6e-4,0.0051 -6.7e-4,0.01935 0,0.025 0.0182,0.153338 -0.0324,0.497234 -0.125,0.775 -0.126,0.324 -0.256,0.45 -0.625,0.45 -0.13947,0.236907 -0.28793,0.454425 -0.425,0.7 -0.23531,0.421595 -0.45455,0.850318 -0.675,1.275 0.078,0.051 0.18,0.101 0.3,0.125 0.336,0.096 0.306,0.131 -0.15,0.275 -0.312,0.12 -0.523,0.335 -0.475,0.575 0.0805,0.502852 -0.16377,0.849476 -0.625,0.95 -3.03754,6.475848 -4.70876,13.17284 -7.525,19.25 -3.28141,7.080932 -12.074998,17.275002 -12.074998,17.275002 0,0 -5.01805,1.41767 -20.4,-8.45 -9.153389,-5.872 -13.112909,-12.092258 -25.374997,-22.800002 -12.251047,-10.698096 -7.361007,-8.61191 -20.724999,-15.725 -10.707744,-5.699284 -13.136328,-4.997944 -30.9249991,-6.725 -0.08568,-0.0083 -0.14148,-0.01717 -0.225,-0.025 l 0,17.3 c 0,43.728002 0.079,79.369002 0.175,79.225002 0.144,-0.24 3.415,-2.195 7.374999,-4.475 0.936,-0.528 1.965,-1.16 2.325,-1.4 0.3600001,-0.264 0.7030001,-0.45 0.7750001,-0.45 0.072,0 0.785,-0.396 1.625,-0.9 0.84,-0.504 2.211,-1.346 3.075,-1.85 0.864,-0.48 1.944,-1.162 2.4,-1.45 0.456,-0.288 1.93,-1.157 3.25,-1.925 1.32,-0.768 3.216,-1.874 4.2,-2.45 0.984,-0.6 1.958,-1.179 2.15,-1.275 0.192,-0.12 1.483,-0.885 2.875,-1.725 1.368,-0.84 2.685,-1.63 2.925,-1.75 1.176,-0.672 8.373,-4.879 9.525,-5.575 1.344,-0.816 2.534,-1.028 2.75,-0.5 0.072,0.168 0.15,-0.016 0.15,-0.4 0.024,-0.6 0.215,-0.849 1.175,-1.425 1.727999,-1.056 9.763999,-5.73 17.299999,-10.05 l 4.2,-2.4 11.999997,3.025 c 6.624,1.68 13.446,3.393 15.15,3.825 1.728,0.432 3.151,0.854 3.175,0.95 0.048,0.12 0.338,0.2 0.65,0.2 0.312,0 4.000998,0.87 8.224998,1.95 4.2,1.056 9.996,2.505 12.9,3.225 2.904,0.72 5.616,1.43 6,1.55 0.408,0.12 3.096,0.805 6,1.525 7.08,1.752 17.587,4.436 18.475,4.7 0.408,0.12 1.858,0.513 3.25,0.825 6.144,1.416 6,1.373 6,1.925 0,0.672 -0.043,0.706 -2.275,2.65 -1.056,0.936 -1.978,1.728 -2.05,1.8 -0.072,0.072 -0.811,0.73 -1.675,1.45 -0.864,0.72 -1.867,1.614 -2.275,1.95 -0.384,0.36 -1.805,1.572 -3.125,2.7 -1.32,1.152 -2.664,2.362 -3,2.65 -0.336,0.288 -1.575,1.341 -2.775,2.325 -2.352,1.92 -11.155,9.347 -16.675,14.075 -1.92,1.632 -4.425,3.792 -5.625,4.8 -1.176,1.032 -2.439,2.087 -2.775,2.375 -0.336,0.264 -1.838,1.578 -3.35,2.85 -1.512,1.296 -3.407,2.903 -4.175,3.575 -0.768,0.672 -1.637,1.383 -1.925,1.575 -0.288,0.192 -0.606,0.456 -0.75,0.6 -0.12,0.168 -1.569,1.382 -3.225,2.75 -1.656,1.368 -3.527,2.974 -4.175,3.55 -0.695998,0.624 -1.414998,1.025 -1.774998,1.025 -0.48,0 -7.442,-2.083 -9.65,-2.875 -0.336,-0.12 -3.365,-1.095 -6.725,-2.175 -11.639997,-3.72 -18.143997,-5.813 -22.799997,-7.325 -2.568,-0.816 -6.571,-2.106 -8.875,-2.85 -2.304,-0.768 -5.807999,-1.902 -7.799999,-2.55 -1.968,-0.648 -8.314,-2.678 -14.05,-4.55 -5.736,-1.872 -10.714,-3.48 -11.05,-3.6 -0.72,-0.264 -10.8719991,-3.47 -14.3999991,-4.55 -1.392,-0.432 -2.656,-0.906 -2.8,-1.05 -0.24,-0.168 -0.3,23.671 -0.3,118.97499 l 0,119.175 95.7499951,0 95.749998,0 0,-200.875 0,-200.84999 L 155.28969,0 c -28.632,0 -36.337,0.05999999 -36.625,0.29999999 -0.312,0.21600001 -0.344,0.21600001 -0.2,0 C 118.60869,0.05999999 106.50069,0 59.364695,0 L 0.0646969,0 z m 17.2749991,249.79999 16.625,0.1 c 9.12,0.072 37.277999,0.178 62.549996,0.25 30.599998,0.096 46.031998,0.232 46.199998,0.4 0.36,0.36 0.535,36.643 0.175,37.075 -0.192,0.24 -0.217,0.38 -0.025,0.5 0.36,0.216 0.334,11.691 -0.05,12.075 -0.216,0.216 -0.216,0.275 0,0.275 0.216,0 0.275,5.897 0.275,26.225 0,14.424 0.078,29.544 0.15,33.6 0.072,4.056 0.071,8.005 -0.025,8.725 l -0.175,1.325 -20.525,-0.1 c -11.304,-0.072 -20.758,-0.101 -20.95,-0.125 -0.192,0 -1.036,10e-4 -1.899998,0.025 -0.864,0 -11.717,-0.053 -24.125,-0.125 -12.407997,-0.048 -29.844996,-0.101 -38.724996,-0.125 -8.88,-0.024 -16.098,-0.129 -16.05,-0.225 0.072,-0.12 -0.613,-0.173 -1.525,-0.125 l -1.675,0.1 0.05,-21.625 c 0.048,-11.904 0.02,-21.625 -0.1,-21.625 -0.096,0 -0.175,-17.228 -0.175,-38.3 l 0,-38.3 z"
     id="path8-0"
     inkscape:connector-curvature="0" />
  <path
     inkscape:connector-curvature="0"
     style="fill:#000000;stroke:none"
     d="m 67.018393,28.352738 c -0.048,0.048 -0.576,0.128 -1.2,0.2 -0.624,0.072 -1.387,0.203 -1.675,0.275 -0.312,0.048 -0.839,0.152 -1.175,0.2 -0.336,0.048 -1.128,0.256 -1.8,0.4 -0.648,0.168 -1.281,0.301 -1.425,0.325 -1.536,0.336 -8.517999,2.696 -9.549999,3.2 -0.36,0.191999 -0.78,0.271999 -0.9,0.199999 -0.144,-0.072 -0.225,-0.069 -0.225,0.075 0,0.144 -0.289,0.353 -0.625,0.425 -0.36,0.096 -1.229,0.465 -1.925,0.825 -0.72,0.384 -1.3,0.621 -1.3,0.525 0,-0.12 -0.104,-0.069 -0.2,0.075 -0.288,0.456 -2.687,1.568 -2.975,1.4 -0.168,-0.096 -0.171,-0.068 -0.07496,0.1 0.096,0.168 0.044,0.275 -0.1,0.275 -0.168,0 -0.564,0.236 -0.9,0.5 -0.336,0.264 -0.68,0.397 -0.8,0.325 -0.12,-0.072 -0.225,-0.019 -0.225,0.125 0,0.12 -0.474,0.462 -1.05,0.75 -0.576,0.264 -1.206,0.658 -1.35,0.85 -0.168,0.168 -0.432,0.35 -0.6,0.35 -0.168,0 -0.591,0.237 -0.975,0.525 -0.768,0.624 -1.934,1.357 -3.35,2.125 -0.528,0.288 -1.187,0.736 -1.475,1 -0.288,0.288 -0.657,0.396 -0.825,0.3 -0.192,-0.12 -0.245,-0.093 -0.125,0.075 0.096,0.168 0.07,0.275 -0.05,0.275 -0.12,0 -0.463,0.236 -0.775,0.5 -0.312,0.288 -0.707,0.422 -0.875,0.35 -0.192,-0.048 -0.272,0.005 -0.2,0.125 0.072,0.144 0.04504,0.225 -0.07496,0.225 -0.12,0 -0.516,0.264 -0.9,0.6 -0.384,0.336 -1.358,1.019 -2.15,1.475 -0.792,0.48 -1.608,0.955 -1.8,1.075 -0.192,0.12 -0.771,0.437 -1.275,0.725 -0.528,0.288 -1.108,0.682 -1.3,0.85 -0.168,0.192 -0.43,0.325 -0.55,0.325 -0.48,0 -0.616,0.04 -1,0.4 -0.48,0.432 -1.159,0.818 -4.374999,2.45 -1.32,0.672 -2.583,1.33 -2.775,1.45 -1.224,0.696 -1.856,0.944 -2,0.8 -0.072,-0.072 -0.1500004,-0.019 -0.1500004,0.125 0,0.216 -0.504,0.482 -1.1999999,0.65 -0.144,0.048 -1.119,0.456 -2.775,1.2 -1.7039999,0.768 -3.0669999,1.303 -3.4749999,1.375 -0.192,0.048 -0.507,0.206 -0.675,0.35 -0.168,0.168 -0.51,0.325 -0.75,0.325 -0.23999994,0 -0.52799994,0.081 -0.59999994,0.225 -0.072,0.12 -0.36099999,0.25 -0.62499998,0.25 -0.43199999,0 -0.63699998,0.487 -0.32499999,0.775 0.072,0.072 0.54499999,0.044 1.02499997,-0.1 0.88799994,-0.24 1.08499994,-0.324 3.72499994,-1.5 0.768,-0.336 1.5299999,-0.625 1.6499999,-0.625 0.24,0 2.57,-1.024 3.6499999,-1.6 0.5760004,-0.312 1.2480004,-0.369 4.2000004,-0.225 1.919999,0.072 4.079999,0.307 4.799999,0.475 l 1.3,0.275 -0.7,0.7 c -1.32,1.248 -4.280999,2.965 -6.824999,3.925 -1.416,0.552 -1.791,0.569 -3.9750003,0.425 -1.32,-0.096 -3.8749999,-0.202 -5.6749999,-0.25 -2.99999992,-0.096 -3.32499991,-0.035 -3.32499991,0.325 0,0.456 0.49999999,1.282 0.49999999,0.85 0,-0.384 2.68499992,-0.36 2.92499992,0 0.144,0.192 0.175,0.191 0.175,-0.025 0,-0.288 0.548,-0.287 5.2999999,0.025 3.1200003,0.216 5.3560003,0.428 5.5000003,0.5 0.072,0.048 0.807,0.154 1.574999,0.25 0.792,0.072 1.608,0.202 1.8,0.25 0.192,0.048 0.878,0.154 1.55,0.25 0.648,0.072 1.464,0.28 1.8,0.4 0.336,0.12 0.864,0.278 1.2,0.35 0.312,0.048 0.653,0.154 0.725,0.25 0.072,0.096 0.23,0.175 0.35,0.175 1.104,0.024 9.059,3.485 9.875,4.325 0.216,0.192 0.532,0.35 0.7,0.35 0.168,0 0.641,0.264 1.025,0.6 0.408,0.336 0.83,0.6 0.95,0.6 0.12,0 0.412,0.235 0.7,0.475 0.264,0.24 0.791,0.609 1.175,0.825 0.384,0.191999 1.043,0.689999 1.475,1.049999 1.344,1.2 1.759,1.5 1.975,1.5 0.12,0 0.568,0.368 1,0.8 0.456,0.432 1.588,1.381 2.5,2.125 0.936,0.744 3.072,2.719 4.8,4.375 1.704,1.656 3.179,3.025 3.275,3.025 0.096,0 0.253,0.211 0.325,0.475 0.096,0.264 0.204,0.423 0.3,0.375 0.096,-0.048 0.332,0.058 0.5,0.25 0.168,0.192 0.222,0.325 0.15,0.325 -0.072,0 0.0072,0.158 0.175,0.35 0.168,0.192 0.378,0.273 0.45,0.225 0.072,-0.048 2.231999,2.059 4.799999,4.675 5.112,5.16 8.017,7.900004 9.625,9.100004 0.576,0.432 1.366,1.065 1.75,1.425 0.408,0.36 1.174,1.016 1.75,1.4 2.832,1.968 3.272,2.269 3.8,2.725 0.312,0.288 0.575,0.447 0.575,0.375 0,-0.168 1.509,0.889 1.725,1.225 0.096,0.12 0.2,0.146 0.2,0.05 0,-0.168 2.525,1.296 3.125,1.8 0.192,0.168 0.403,0.274 0.475,0.25 0.12,-0.072 2.381,0.968 3.125,1.4 0.192,0.12 0.508,0.278 0.7,0.35 0.192,0.072 0.586,0.229 0.85,0.325 0.264,0.12 0.605,0.202 0.725,0.25 0.144,0.024 0.461,0.181 0.725,0.325 0.264,0.144 0.528,0.251 0.6,0.275 0.096,0 1.699,0.593 2.875,1.025 0.6,0.24 0.773,0.268 2.525,0.7 0.936,0.216 1.727999,0.478 1.799999,0.55 0.336,0.336 1.018,-0.007 2.65,-1.375 2.135998,-1.8 1.777998,-1.442 3.649998,-3.65 0.84,-0.984 1.788,-2.249 2.1,-2.825 0.312,-0.552 0.63,-1.025 0.75,-1.025 0.096,0 0.2,-0.133 0.2,-0.325 0,-0.168 0.341,-0.721 0.725,-1.225 0.408,-0.504 0.725,-1.006 0.725,-1.15 0,-0.144 0.238,-0.592 0.55,-1 0.312,-0.408 0.918,-1.463 1.35,-2.375 0.432,-0.888 0.905,-1.600004 1.025,-1.600004 0.12,0 0.147,-0.131 0.075,-0.275 -0.096,-0.12 -0.017,-0.409 0.175,-0.625 0.192,-0.216 0.535,-0.847 0.775,-1.375 0.24,-0.528 0.635,-1.398 0.875,-1.95 0.264,-0.528 0.45,-1.106 0.45,-1.25 0,-0.168 0.105,-0.275 0.225,-0.275 0.144,0 0.25,-0.105 0.25,-0.225 0,-0.12 0.211,-0.725 0.475,-1.325 0.264,-0.624 0.475,-1.153 0.475,-1.225 0,-0.072 0.393,-0.967 0.825,-1.975 0.432,-1.032 1.038,-2.561 1.35,-3.425 0.288,-0.864 0.944,-2.313 1.4,-3.225 0.48,-0.936 0.876,-1.832 0.9,-2 0.024,-0.192 0.183,-0.509 0.375,-0.725 0.168,-0.24 0.535,-0.821 0.775,-1.325 0.264,-0.48 0.555,-0.875 0.675,-0.875 0.12,0 0.172,-0.105 0.1,-0.225 -0.096,-0.12 0.113,-0.699 0.425,-1.275 0.336,-0.552 0.864,-1.526 1.2,-2.15 0.336,-0.624 0.731,-1.178999 0.875,-1.274999 0.144,-0.072 0.383,-0.492 0.575,-0.9 0.192,-0.432 0.772,-1.224 1.3,-1.8 0.528,-0.552 0.897,-1.025 0.825,-1.025 -0.072,0 0.007,-0.158 0.175,-0.35 0.168,-0.192 0.38,-0.297 0.5,-0.225 0.12,0.072 0.199,0.019 0.175,-0.125 -0.096,-0.336 1.692,-2.175 2.1,-2.175 0.168,0 0.404,-0.132 0.5,-0.3 0.264,-0.432 0.983,-0.688 1.175,-0.4 0.0423,0.0705 0.03,0.179331 0,0.3 l 2.15,-0.9 2.67496,0.475 c -0.004,-0.02574 -0.0158,-0.05035 -0.025,-0.075 -0.054,-0.144 -0.054,-0.219375 0,-0.225 0.018,-0.0018 0.045,0.007 0.075,0.025 0.0659,0.03952 0.10806,0.164185 0.15,0.325 l 1.3,0.225 c 0.192,-0.192 0.359,-0.166 0.575,0.05 0.0275,0.02754 0.0303,0.05296 0.05,0.075 l 0.2,0.025 0.575,0.9 c 0.0431,0.0077 0.0514,0.03709 0.025,0.075 l 0.775,1.25 c 0.25068,0.293384 0.45,0.560742 0.45,0.65 0,0.01154 -0.0198,0.0157 -0.025,0.025 l 0.1,0.15 -0.25,-0.075 c -0.33471,0.02678 -1.08573,-0.191189 -1.4,-0.45 -0.0443,-0.03323 -0.0629,-0.05188 -0.1,-0.075 l -0.225,-0.05 c 0,0.106825 -0.70864,-0.152776 -1.625,-0.55 l -5.45,-1.85 c -0.0211,0.08472 -0.0406,0.1807 -0.1,0.25 -0.264,0.312 0.688,0.809 4.6,2.225 0.624,0.216 1.125,0.505 1.125,0.625 0,0.12 0.106,0.146 0.25,0.05 0.12,-0.072 0.41,-0.02 0.65,0.1 0.24,0.144 1.294,0.539 2.35,0.875 1.056,0.336 2.083,0.703 2.275,0.775 0.192,0.072 0.455,0.099 0.575,0.075 0.096,-0.024 0.307,0.055 0.475,0.175 0.144,0.12 0.855,0.357 1.575,0.525 0.72,0.168 1.482,0.406 1.65,0.55 0.144,0.12 0.275,0.171 0.275,0.075 0,-0.072 0.29,-0.019 0.65,0.125 0.36,0.144 1.414,0.408 2.35,0.6 0.912,0.216 1.805,0.401 1.925,0.425 0.144,0.048 0.672,0.153999 1.2,0.249999 0.528,0.096 1.133,0.228 1.325,0.3 0.192,0.072 0.561,0.176 0.825,0.2 0.264,0.048 1.185,0.182 2.025,0.35 2.16,0.384 3.385,0.55 4.225,0.55 l 0.725,0 -0.075,2.15 c -0.048,1.488 0.007,2.12 0.175,2 0.288,-0.168 0.365,-3.464 0.125,-4.4 -0.12,-0.36 -0.677,-0.774 -1.925,-1.349999 -3.216,-1.512 -5.608,-3.251 -9.4,-6.875 -1.08,-1.056 -2.132,-1.9 -2.3,-1.9 -0.192,0 -0.507,-0.184 -0.675,-0.4 -0.384,-0.456 -4.523,-2.475 -5.075,-2.475 -0.216,0 -0.429,-0.106 -0.525,-0.25 -0.072,-0.12 -0.307,-0.172 -0.475,-0.1 -0.192,0.072 -1.169,-0.217 -2.225,-0.625 -1.032,-0.408 -2.508,-0.961 -3.3,-1.225 -0.792,-0.264 -1.582,-0.527 -1.75,-0.575 -0.168,-0.072 -0.327,-0.099 -0.375,-0.075 -0.024,0.024 -0.314,-0.107 -0.65,-0.275 -0.336,-0.192 -0.653,-0.351 -0.725,-0.375 -0.336,-0.024 -2.281,-0.984 -2.425,-1.2 -0.096,-0.12 -0.2,-0.17 -0.2,-0.05 0,0.192 -6.923,-3.296 -7.475,-3.8 -0.192,-0.192 -0.533,-0.35 -0.725,-0.35 -0.216,0 -0.507,-0.158 -0.675,-0.35 -0.168,-0.192 -0.432,-0.35 -0.6,-0.35 -0.192,0 -0.666,-0.264 -1.05,-0.6 -0.408,-0.336 -0.858,-0.6 -1.05,-0.6 -0.192,0 -0.588,-0.264 -0.9,-0.6 -0.312,-0.336 -0.707,-0.6 -0.875,-0.6 -0.168,0 -0.591,-0.238 -0.975,-0.55 -0.36,-0.288 -1.095,-0.76 -1.575,-1 -0.504,-0.264 -0.9,-0.529 -0.9,-0.625 0,-0.12 -0.237,-0.229 -0.525,-0.325 -0.312,-0.072 -0.84,-0.387 -1.2,-0.675 -0.624,-0.552 -1.673,-1.202 -2.825,-1.85 -0.36,-0.168 -0.836,-0.51 -1.1,-0.75 -0.264,-0.24 -0.764,-0.582 -1.1,-0.75 -0.912,-0.48 -3.128,-1.975 -3.8,-2.575 -0.312,-0.264 -0.682,-0.5 -0.85,-0.5 -0.144,0 -0.487,-0.235 -0.774998,-0.475 -0.264,-0.24 -0.791,-0.608 -1.175,-0.8 -0.384,-0.192 -0.991,-0.664 -1.375,-1 -0.36,-0.336 -0.702,-0.625 -0.75,-0.625 l -0.325,0 c -0.096,0 -0.463,-0.238 -0.775,-0.55 -0.335999,-0.288 -0.757999,-0.552 -0.949999,-0.6 -0.192,-0.048 -0.533,-0.208 -0.725,-0.4 -0.192,-0.168 -0.77,-0.485 -1.25,-0.725 -0.504,-0.216 -0.9,-0.505 -0.9,-0.625 0,-0.12 -0.157,-0.147 -0.325,-0.075 -0.192,0.072 -0.482,-0.034 -0.65,-0.25 -0.168,-0.192 -0.485,-0.375 -0.725,-0.375 -0.216,0 -0.608,-0.159 -0.8,-0.374999 -0.216,-0.216 -0.532,-0.401 -0.7,-0.425 -0.144,-0.024 -0.431,-0.129 -0.575,-0.225 -0.168,-0.12 -0.537,-0.227 -0.825,-0.275 -0.312,-0.072 -0.577,-0.231 -0.625,-0.375 -0.048,-0.144 -0.18,-0.197 -0.3,-0.125 -0.168,0.096 -2.19,-0.571 -3.15,-1.075 -0.216,-0.12 -0.795,-0.278 -1.275,-0.35 -0.48,-0.096 -0.928,-0.28 -1,-0.4 -0.072,-0.12 -0.204,-0.147 -0.3,-0.075 -0.12,0.048 -0.806,-0.058 -1.55,-0.25 -2.664,-0.696 -4.424,-0.902 -8,-0.95 -2.016,-0.024 -3.701,-0.024 -3.725,0 z m 4.875,0.85 c 1.127248,0.0022 1.086,0.098 0.6,0.35 -0.384,0.192 -0.753,0.298 -0.825,0.25 -0.048,-0.072 -0.258,0.058 -0.45,0.25 -0.216,0.192 -0.533,0.297 -0.725,0.225 -0.192,-0.072 -0.272,-0.02 -0.2,0.1 0.216,0.336 -0.215,0.285 -0.575,-0.075 -0.24,-0.24 -0.27,-0.21 -0.15,0.15 0.144,0.312 -0.0048,0.512 -0.725,0.8 -0.528,0.216 -1.003,0.454 -1.075,0.55 -0.072,0.096 -0.706,0.57 -1.45,1.05 -0.744,0.503999 -2.243,1.795999 -3.275,2.899999 l -1.9,2 -1.875,-0.1 c -1.392,-0.072 -1.822,-0.016 -1.75,0.2 0.048,0.168 0.603,0.327 1.275,0.375 1.8,0.144 1.898,0.208 1.25,1 -0.288,0.384 -0.734,0.991 -0.95,1.375 -0.24,0.384 -0.925,1.439 -1.525,2.375 -0.6,0.912 -1.733,2.781 -2.524999,4.125 -0.816,1.368 -1.555,2.475 -1.675,2.475 -0.576,0 -3.982,-0.757 -4.15,-0.925 -0.192,-0.192 3.875,-5.816 4.475,-6.2 0.144,-0.096 0.616,-0.2 1,-0.2 0.719999,0 0.723999,-0.022 1.299999,-2.35 0.312,-1.296 0.496,-2.428 0.4,-2.5 -0.168,-0.168 -1.322,0.71 -3.649999,2.75 -0.96,0.84 -1.618,1.5 -1.45,1.5 1.056,0.024 0.883,0.472 -1.325,3.4 -2.448,3.264 -2.422,3.231 -4.75,2.775 -0.456,-0.096 -1.378,-0.204 -2.05,-0.3 -0.648,-0.096 -1.307,-0.229 -1.475,-0.325 -0.48,-0.24 2.123,-5.242 3.875,-7.45 0.96,-1.2 1.522,-1.425 3.85,-1.425 1.368,0.024 4.959,-0.256 5.175,-0.4 0.767999,-0.456 -0.475,-0.565 -5.275,-0.325 -0.912,0.024 -1.577,-0.056 -1.625,-0.2 -0.096,-0.24 1.131,-1.39 2.475,-2.35 0.36,-0.264 0.993,-0.766 1.425,-1.15 0.408,-0.36 0.908,-0.65 1.1,-0.65 0.168,0 0.484,-0.159 0.7,-0.374999 0.24,-0.216 0.659,-0.426 0.875,-0.45 0.24,-0.024 0.741,-0.181 1.124999,-0.325 0.384,-0.168 0.859,-0.327 1.075,-0.375 0.624,-0.096 2.49,-0.64 3.45,-1 0.504,-0.168 1.243,-0.376 1.675,-0.4 0.432,-0.024 0.932,-0.13 1.1,-0.25 0.168,-0.144 0.354,-0.172 0.45,-0.1 0.072,0.096 0.257,0.045 0.425,-0.075 0.144,-0.12 1.09,-0.278 2.05,-0.35 0.984,-0.072 1.801,-0.176 1.825,-0.2 0.024,-0.024 1.34,-0.077 2.9,-0.125 0.666,-0.012 1.174248,-0.02575 1.55,-0.025 z m 3.725,0.6 c 0.099,-0.024 0.244,-0.024 0.4,0 0.288,0.024 0.525,0.076 0.525,0.1 0,0.024 0.397,0.076 0.925,0.1 0.504,0.048 1.005,0.208 1.125,0.4 0.168,0.264 0.225,0.265 0.225,0.025 0,-0.192 0.132,-0.246 0.3,-0.15 0.168,0.12 0.434,0.226 0.65,0.25 0.696,0.12 1.088,0.233 1.4,0.425 0.168,0.096 0.642,0.228 1.05,0.3 0.408,0.048 0.881,0.181 1.025,0.325 0.12,0.12 0.463,0.25 0.775,0.25 0.312,0 0.55,0.081 0.55,0.225 0,0.12 0.158,0.172 0.35,0.1 0.168,-0.072 0.484,0.058 0.7,0.25 0.192,0.192 0.403,0.297 0.475,0.225 0.168,-0.168 2.325,0.910999 2.325,1.174999 0,0.096 0.131,0.122 0.275,0.05 0.12,-0.096 0.437,0.035 0.725,0.275 0.264,0.24 0.606,0.451 0.75,0.475 0.744,0.072 0.856,0.115 1,0.475 0.12,0.312 -0.06,0.374 -0.9,0.35 -0.552,-0.024 -1.053,-0.024 -1.125,0 -0.072,0.024 -0.442,0.102 -0.85,0.15 -0.936,0.168 -3.143,0.905 -4.775,1.625 -1.2,0.528 -3.026,1.647 -5.45,3.375 l -0.85,0.625 -2.975,-0.85 c -3.264,-0.936 -7.995,-1.984 -10.275,-2.2 -1.056,-0.12 -1.475,-0.26 -1.475,-0.5 0,-0.408 2.155,-2.537 4.075,-4.025 1.752,-1.367999 6.263,-3.636999 6.575,-3.324999 0.072,0.048 0.337,-0.006 0.625,-0.15 0.432,-0.24 0.518,-0.238 0.35,0.05 -0.144,0.264 -0.111,0.263 0.225,-0.025 0.216,-0.168 0.558,-0.271 0.75,-0.175 0.192,0.072 0.375,0.045 0.375,-0.075 0,-0.048 0.05096,-0.101 0.15,-0.125 z m -26.774999,4.699999 c 0.147,-0.033 0.225,-0.008 0.225,0.1 0,0.168 -3.134,3.202 -3.35,3.25 -0.264,0.072 -1.786,0.227 -2.65,0.275 -0.456,0.024 -0.929,0.156 -1.025,0.3 -0.096,0.12 -0.254,0.145 -0.35,0.025 -0.24,-0.24 0.862,-1.167 1.15,-0.975 0.12,0.072 0.225,0.018 0.225,-0.15 0,-0.168 0.05296,-0.246 0.125,-0.15 0.096,0.072 0.333,-0.033 0.525,-0.225 0.216,-0.192 0.481,-0.298 0.625,-0.25 0.168,0.048 0.485,-0.135 0.725,-0.375 0.264,-0.24 0.632,-0.373 0.8,-0.325 0.168,0.072 0.3,0.045 0.3,-0.075 0,-0.288 1.213,-0.768 1.525,-0.6 0.168,0.096 0.221,0.095 0.125,-0.025 -0.12,-0.12 0.038,-0.332 0.35,-0.5 0.3,-0.168 0.528,-0.267 0.675,-0.3 z m 42.499999,1.725 c 1.287,0.003 2.413,0.148 2.725,0.4 0.216,0.192 0.558,0.351 0.75,0.375 0.216,0.048 0.688999,0.339 1.024999,0.675 0.36,0.336 0.731,0.625 0.875,0.625 0.12,0 0.541,0.264 0.925,0.6 0.384,0.336 0.78,0.6 0.9,0.6 0.12,0 0.147,0.106 0.07496,0.25 -0.072,0.12 0.0072,0.172 0.175,0.1 0.168,-0.072 0.641,0.19 1.025,0.55 0.407998,0.384 0.882998,0.677 1.074998,0.725 0.432,0.096 0.975,0.535 0.975,0.775 0,0.096 -0.264,0.175 -0.6,0.175 -0.336,0 -0.6,-0.105 -0.6,-0.225 0,-0.144 -0.183,-0.118 -0.375,0.05 -0.264,0.216 -0.349998,0.217 -0.349998,0.025 0,-0.168 -0.132,-0.22 -0.3,-0.1 -0.312,0.192 -0.705,0.304 -1.425,0.4 -0.24,0.024 -0.503,0.129 -0.575,0.225 -0.096,0.096 -0.332,0.175 -0.5,0.175 -0.576,0 -3.691999,1.647 -5.299999,2.775 -0.816,0.576 -1.633,1.128 -1.825,1.2 -0.192,0.072 -2.142,-0.744 -4.35,-1.8 -2.208,-1.08 -4.105,-1.95 -4.225,-1.95 -0.216,0 -2.882,-1.132 -3.05,-1.3 -0.192,-0.168 0.914,-1.028 3.05,-2.3 2.328,-1.44 3.797,-2.049 6.125,-2.625 1.02,-0.264 2.488,-0.403 3.775,-0.4 z m -29.75,2.275 1.7,0.15 c 0.96,0.072 2.858,0.361 4.25,0.625 1.392,0.24 3.499,0.74 4.675,1.1 1.2,0.336 2.624,0.731 3.2,0.875 0.552,0.12 1,0.356 1,0.5 0,0.144 -0.606,0.88 -1.35,1.6 -2.232,2.208 -5.233,6.035 -7.225,9.275 -0.504,0.84 -1.031,1.525 -1.175,1.525 -0.144,0 -0.777,-0.235 -1.425,-0.475 -0.648,-0.264 -1.411,-0.554 -1.675,-0.65 -0.264,-0.096 -1.161,-0.413 -2.025,-0.725 -0.864,-0.312 -2.813,-0.969 -4.325,-1.425 -1.512,-0.48 -2.853999,-0.929 -2.949999,-1.025 -0.096,-0.096 0.036,-0.464 0.3,-0.8 0.264,-0.36 0.499999,-0.73 0.499999,-0.85 0,-0.144 0.607,-1.095 1.375,-2.175 0.744,-1.08 1.743,-2.529 2.175,-3.225 0.432,-0.696 1.275,-1.984 1.875,-2.8 l 1.1,-1.5 z m -17.249999,0.325 c 0.513,-0.024 0.875,0.004 0.875,0.1 0,0.096 -0.237,0.438 -0.525,0.75 -0.288,0.312 -0.763,0.946 -1.075,1.45 -0.48,0.792 -2.784,5.248 -3,5.8 -0.048,0.12 -0.661,0.12 -1.525,0 -0.792,-0.12 -2.347,-0.303 -3.475,-0.375 -1.128,-0.096 -2.104,-0.281 -2.2,-0.425 -0.144,-0.192 -0.2,-0.191 -0.2,0.025 0,0.192 -0.221,0.219 -0.725,0.075 -0.384,-0.12 -0.989,-0.174 -1.325,-0.15 -0.336,0.048 -0.6,-0.003 -0.6,-0.075 0,-0.168 2.64,-2.732 3.6,-3.5 0.336,-0.264 0.495,-0.342 0.375,-0.15 -0.096,0.168 0.378,-0.123 1.05,-0.675 0.696,-0.528 1.38,-0.921 1.5,-0.825 0.12,0.072 0.2,0.021 0.2,-0.075 0,-0.288 1.435,-1.005 2.275,-1.125 0.408,-0.072 1.041,-0.179 1.425,-0.275 0.384,-0.072 1.095,-0.205 1.575,-0.325 0.612,-0.12 1.262,-0.201 1.775,-0.225 z m 33.449999,3.275 c 0.381,-0.021 0.879,0.206 1.875,0.65 0.384,0.168 1.358,0.538 2.15,0.85 1.248,0.48 7.06,3.234 7.3,3.45 0.048,0.048 -0.661,0.836 -1.525,1.7 -2.112,2.112 -5.041,6.043 -6.625,8.875 -1.272,2.304 -1.02,2.263 -4.5,0.775 -1.68,-0.72 -3.763,-1.667 -4.675,-2.075 -0.888,-0.408 -1.679,-0.75 -1.775,-0.75 -0.312,0 -2.475,-1.056 -2.475,-1.2 0,-0.312 1.932,-3.196 3.3,-4.9 0.744,-0.936 1.507,-1.858 1.675,-2.05 1.44,-1.848 3.113,-3.733 4.025,-4.525 0.6,-0.528 0.869,-0.779 1.25,-0.8 z m 21.999999,0.625 c 0.05096,0.003 0.089,0.027 0.125,0.075 0.072,0.12 0.913998,0.2 1.849998,0.2 1.8,0.048 3.023,0.52 4.175,1.6 0.336,0.312 0.707,0.55 0.875,0.55 0.144,0 0.591,0.264 0.975,0.6 0.36,0.336 0.782,0.6 0.95,0.6 0.144,0 0.591,0.264 0.975,0.6 0.672,0.6 0.865,0.7 1.225,0.7 0.096,0 0.438,0.262 0.75,0.55 0.336,0.312 0.756,0.576 0.9,0.6 0.144,0.024 0.67,0.314 1.15,0.65 l 0.9,0.6 -0.725,-0.075 c -0.408,-0.048 -0.803,0.031 -0.875,0.175 -0.072,0.168 -0.182,0.14 -0.35,-0.1 -0.192,-0.264 -0.275,-0.29 -0.275,-0.05 0,0.192 -0.213,0.299 -0.525,0.275 -0.672,-0.072 -2.389,0.26 -2.725,0.5 -0.12,0.096 -0.593,0.279 -1.025,0.375 -0.792,0.168 -3.554,1.564 -4.85,2.5 -0.696,0.48 -0.767,0.51 -1.175,0.15 -0.24,-0.216 -0.505,-0.375 -0.625,-0.375 -0.096,0 -0.517,-0.238 -0.925,-0.55 -0.408,-0.312 -1.354998,-0.892 -2.074998,-1.3 -0.72,-0.384 -1.958,-1.093 -2.75,-1.525 -0.791999,-0.456 -2.188999,-1.22 -3.124999,-1.7 -0.912,-0.504 -1.702,-1.005 -1.75,-1.125 -0.096,-0.312 2.104,-1.863 4,-2.775 2.087999,-1.032 2.864999,-1.329 3.824999,-1.425 0.408,-0.048 0.829,-0.154 0.925,-0.25 0.048,-0.036 0.124,-0.053 0.175,-0.05 z m -68.299998,4.3 c 0.432,0.0034 0.98,9.6e-4 1.7,0.025 1.656,0.072 3.236,0.177 3.5,0.225 0.264,0.072 0.975,0.125 1.575,0.125 1.704,0.048 1.847,0.233 1.175,1.625 -0.312,0.648 -1.075,2.017 -1.675,3.025 -1.248,2.16 -0.652,2.097 -5.5,0.825 -1.776,-0.456 -3.751,-0.929 -4.375,-1.025 -0.648,-0.072 -1.15,-0.229 -1.15,-0.325 0,-0.336 2.2,-3.497 2.8,-4.025 0.432,-0.378 0.654,-0.485125 1.95,-0.475 z m -3.425,0.225 c 0.2122,0.0028 0.35,0.074 0.35,0.2 0,0.12 -0.21,0.435 -0.45,0.675 -0.264,0.264 -0.633,0.79 -0.825,1.15 -0.576,1.08 -1.792,2.219 -2.2,2.075 -0.336,-0.144 -1.378,-0.228 -3.25,-0.3 l -0.825,-0.025 0.775,-0.475 c 0.408,-0.264 0.853,-0.475 0.925,-0.475 0.096,0 0.228,-0.08 0.3,-0.2 0.144,-0.24 2.138,-1.431 3.65,-2.175 0.615,-0.3 1.196328,-0.454687 1.55,-0.45 z m 62.024999,0.4 c 0.12,0 1.173,0.525 2.325,1.125 3.407999,1.8 5.201999,2.768 5.849999,3.2 0.336,0.216 0.705,0.452 0.825,0.5 0.72,0.312 2.774998,1.784 2.774998,2 0,0.144 -0.316,0.486 -0.7,0.75 -1.991998,1.392 -5.317998,4.984 -7.549997,8.2 l -1.35,1.95 -2.725,-1.2 c -6.36,-2.832 -8.707,-3.882 -8.875,-4.05 -0.216,-0.168 1.073,-2.644 1.625,-3.1 0.192,-0.168 0.375,-0.38 0.375,-0.5 0,-0.432 3.581,-5.385 4.925,-6.825 0.888,-0.96 2.236,-2.05 2.5,-2.05 z m -48.199999,0.275 c 0.520168,0.02222 1.283,0.143 2.525,0.35 1.296,0.192 2.402,0.428 2.45,0.5 0.048,0.048 -0.243,0.549 -0.675,1.125 -0.432,0.552 -0.828,1.184 -0.9,1.4 -0.072,0.24 -0.283,0.45 -0.475,0.45 -0.456,0 -1.525,1.069 -1.525,1.525 0,0.6 0.983,1.35 1.775,1.35 0.936,0 1.417,-0.694 1.225,-1.75 -0.096,-0.648 0.044,-0.979 1.1,-2.275 1.008,-1.272 1.342,-1.519 1.75,-1.375 0.288,0.072 1.158,0.309 1.95,0.525 0.792,0.192 1.554,0.454 1.65,0.55 0.12,0.096 -0.563,1.491 -1.475,3.075 -0.912,1.608 -1.913,3.452 -2.225,4.1 -0.312,0.672 -0.732,1.278 -0.9,1.35 -0.168,0.048 -1.195,-0.348 -2.275,-0.9 -1.08,-0.552 -3.37,-1.554 -5.05,-2.25 -1.704,-0.696 -3.128,-1.328 -3.2,-1.4 -0.072,-0.072 0.456,-1.126 1.2,-2.35 0.72,-1.224 1.51,-2.621 1.75,-3.125 0.315,-0.645 0.458048,-0.912031 1.325,-0.875 z m 12.225,2.625 c 0.06888,-0.0098 0.144,0 0.225,0 0.408,0 0.909999,0.081 1.149999,0.225 0.216,0.12 2.085,0.779 4.125,1.475 4.248,1.416 6.725,2.335 6.725,2.575 0,0.072 -0.973,2.046 -2.125,4.35 -1.152,2.304 -2.257,4.673 -2.425,5.225 -0.192,0.552 -0.484,1.264 -0.7,1.6 l -0.425,0.625 -1.675,-1.075 c -0.912,-0.576 -1.967,-1.234 -2.375,-1.45 -0.384,-0.192 -1.621999,-0.904 -2.749999,-1.6 -1.128,-0.696 -2.576,-1.539 -3.2,-1.875 -2.064,-1.08 -2.071,-1.101 -0.775,-3.525 0.624,-1.152 1.73,-3.126 2.45,-4.35 1.029,-1.743 1.292656,-2.131422 1.775,-2.2 z m 59.749996,0.35 c 0.22313,0.012 0.35,0.059 0.35,0.125 0,0.024 0.394,0.077 0.85,0.125 1.344,0.12 2.227,0.343 2.875,0.775 0.336,0.216 0.996,0.61 1.5,0.85 0.48,0.264 0.9,0.556 0.9,0.7 0,0.12 0.105,0.172 0.225,0.1 0.12,-0.072 0.464,0.061 0.8,0.325 0.336,0.264 0.73,0.475 0.85,0.475 0.24,0 2.459,1.185 2.675,1.425 0.072,0.072 0.283,0.152 0.475,0.2 0.192,0.048 0.426,0.205 0.45,0.325 0.048,0.12 0.285,0.225 0.525,0.225 0.216,0 0.556,0.133 0.7,0.325 0.216,0.264 -0.127,0.331 -1.975,0.475 -3.048,0.216 -5.164,0.95 -7.9,2.75 l -1.625,1.025 -3.3,-1.725 c -3.72,-1.944 -8.237,-4.486 -8.525,-4.75 -0.48,-0.456 3.881,-2.65 6.425,-3.25 1.53,-0.342 3.05563,-0.536 3.725,-0.5 z m -93.699996,0.925 c 0.239248,-0.02118 0.494,-0.012 0.8,0 0.744,0.048 1.904,0.101 2.6,0.125 0.744,0 1.25,0.132 1.25,0.3 0,0.168 -0.924,1.249 -2.1,2.425 l -2.1,2.125 -2.275,-0.4 c -2.496,-0.432 -3.148,-0.502 -4.899999,-0.55 -1.008,-0.024 -1.139,-0.088 -0.875,-0.4 0.168,-0.192 0.459,-0.35 0.675,-0.35 0.192,0 0.558,-0.133 0.75,-0.325 0.216,-0.192 0.558,-0.402 0.75,-0.45 0.192,-0.048 0.402999,-0.128 0.474999,-0.2 0.072,-0.096 1.074,-0.65 2.25,-1.25 1.404,-0.72 1.982248,-0.986438 2.7,-1.05 z m 6.05,0.475 c 0.05504,-0.0075 0.114952,-0.0043 0.175,0 0.06864,0.005 0.144,0.035 0.225,0.05 0.264,0.048 1.027,0.153 1.675,0.225 1.416,0.192 6.799,1.513 7.375,1.825 0.384,0.216 0.382,0.256 -0.05,1 -0.264,0.408 -1.186,1.696 -2.05,2.8 -1.296,1.632 -1.692,1.971 -2.1,1.875 -0.288,-0.072 -1.948,-0.6 -3.7,-1.2 -1.728,-0.6 -3.731,-1.233 -4.475,-1.425 -0.744,-0.168 -1.35,-0.405 -1.35,-0.525 0,-0.12 0.316,-0.514 0.7,-0.85 0.36,-0.336 1.201,-1.258 1.825,-2.05 1.047376,-1.28625 1.364424,-1.67258 1.75,-1.725 z m 10.925,2.55 c 0.12,0 1.622,0.554 3.35,1.25 3.936,1.536 4.045,1.635 3.925,3.075 -0.072,0.6 -0.02104,1.311 0.07496,1.575 0.144,0.336 0.225,0.06 0.225,-0.9 0.024,-0.744 0.129,-1.403 0.225,-1.475 0.12,-0.072 0.806,0.164 1.55,0.5 1.32,0.624 1.336,0.65 1,1.25 -0.264,0.528 -3.859,5.984 -4.075,6.2 -0.048,0.048 -1.207,-0.56 -2.575,-1.4 -1.344,-0.816 -3.636,-2.08 -5.1,-2.8 -1.44,-0.72 -2.729,-1.379 -2.825,-1.475 -0.12,-0.12 0.564,-1.149 1.5,-2.325 0.936,-1.176 1.909,-2.441 2.125,-2.825 0.216,-0.36 0.48,-0.65 0.6,-0.65 z m 65.674996,0 c 0.072,0 1.441,0.762 3.025,1.65 1.56,0.912 4.221,2.362 5.925,3.25 1.68,0.888 3.05,1.704 3.05,1.8 0,0.096 -0.578,0.648 -1.25,1.2 -1.968,1.584 -5.312,4.926 -6.8,6.75 -0.744,0.936 -1.456,1.675 -1.6,1.675 -0.24,0 -0.406,-0.079 -5.949998,-2.575 -5.687999,-2.568 -5.999999,-2.71 -5.999999,-2.95 0,-0.552 3.424999,-5.076 5.224999,-6.9 1.583998,-1.608 4.158998,-3.9 4.374998,-3.9 z m -35.674997,0.25 c 0.024,0 0.841,0.316 1.825,0.7 2.088,0.792 5.89,2.379 7.45,3.075 0.6,0.288 1.496,0.658 2,0.85 0.984,0.408 1.076,0.673 0.5,1.225 -0.192,0.216 -0.322,0.4 -0.25,0.4 0.072,0 -0.484,1.211 -1.3,2.675 -1.32,2.496 -2.894,5.648 -3.35,6.8 -0.408,1.08 -1.283,2.779999 -1.475,2.899999 -0.168,0.12 -1.982,-0.901999 -2.75,-1.549999 -0.144,-0.12 -0.619,-0.409 -1.075,-0.625 -0.456,-0.24 -0.878,-0.504 -0.95,-0.6 -0.072,-0.096 -0.52,-0.36 -1,-0.6 -0.504,-0.216 -0.9,-0.505 -0.9,-0.625 0,-0.12 -0.158,-0.225 -0.35,-0.225 -0.192,0 -1.063,-0.475 -1.975,-1.075 -0.888,-0.6 -1.704,-1.075 -1.8,-1.075 -0.264,0 -0.24,-1.062 0,-1.35 0.12,-0.12 0.438,-0.858 0.75,-1.65 0.768,-1.968 4.434,-9.25 4.65,-9.25 z m -45.674999,2.525 c 0.192,0.048 1.43,0.389 2.75,0.725 1.32,0.336 3.401,0.994 4.625,1.45 l 2.275,0.875 -0.7,0.725 c -0.84,0.912 -3.233,2.604 -4.625,3.3 -1.152,0.576 -1.407,0.543 -3.975,-0.225 -2.136,-0.648 -4.896,-1.207 -6.6,-1.375 -2.375999,-0.24 -2.381999,-0.372 -0.15,-1.5 1.152,-0.576 2.97,-1.734 4.05,-2.55 1.104,-0.84 2.158,-1.449 2.35,-1.425 z m 104.899996,0.4 c 1.302,-0.021 2.555,0.044 3.275,0.2 0.576,0.144 1.498,0.46 2.05,0.7 1.224,0.552 1.845,0.779 2.325,0.875 0.192,0.048 1.138,0.363 2.05,0.675 1.872,0.624 1.852,0.616 -1.1,1 -1.92,0.24 -2.042,0.294 -4.25,1.35 -0.84,0.408 -2.129,1.199 -2.825,1.775 l -1.3,1.05 -1.975,-0.675 c -2.376,-0.816 -2.84,-1.029 -4.4,-1.725 -0.672,-0.288 -1.594,-0.684 -2.05,-0.9 -1.848,-0.792 -1.865,-0.887 -0.425,-1.775 1.848,-1.176 3.469,-1.865 5.125,-2.225 0.864,-0.192 2.198,-0.304 3.5,-0.325 z m -77.774996,2.075 c 0.102,-0.01538 0.205,0.04 0.325,0.1 0.264,0.144 1.71,0.96 3.15,1.8 1.464,0.84 3.099999,1.841 3.699999,2.225 0.6,0.384 1.311,0.805 1.575,0.925 0.264,0.12 0.844,0.514 1.3,0.85 0.456,0.336 0.982,0.625 1.15,0.625 0.192,0 0.378,0.158 0.45,0.35 0.168,0.408 -2.863,6.290999 -4.375,8.474999 -0.048,0.096 -1.517999,-0.909 -2.549999,-1.725 -0.432,-0.36 -1.433,-1.099999 -2.225,-1.699999 -0.792,-0.6 -1.61,-1.207 -1.85,-1.375 -0.216,-0.168 -1.269,-0.957 -2.325,-1.725 -1.536,-1.104 -1.95,-1.545 -1.95,-2.025 0,-0.504 -0.038,-0.515 -0.35,-0.275 -0.552,0.456 -0.422,-0.063 0.25,-0.975 0.336,-0.456 1.259,-1.931 2.075,-3.275 1.008,-1.71 1.344,-2.228875 1.65,-2.275 z m 31.524999,0.575 c 0.191488,-0.03375 0.53,0.115 1.55,0.55 0.792,0.312 2.215,0.944 3.175,1.4 1.944,0.888 4.341,2.003 5.925,2.675 0.552,0.24 1,0.555 1,0.675 0,0.12 -0.58,1.278 -1.3,2.55 -1.032,1.848 -4.112,8.238999 -4.4,9.174999 -0.216,0.672 -0.417,1.162 -0.825,2.05 -0.432,0.936 -0.524,0.994 -1.1,0.85 -0.36,-0.072 -0.703,-0.204 -0.775,-0.3 -0.072,-0.096 -0.758,-0.49 -1.55,-0.85 -0.792,-0.384 -1.478,-0.729 -1.55,-0.825 -0.072,-0.096 -0.545,-0.36 -1.025,-0.6 -0.504,-0.216 -0.9,-0.53 -0.9,-0.65 0,-0.12 -0.105,-0.172 -0.225,-0.1 -0.12,0.072 -0.438,-0.06 -0.75,-0.3 -0.312,-0.24 -0.892,-0.609 -1.3,-0.825 -0.384,-0.192 -0.936,-0.585 -1.2,-0.825 -0.288,-0.24 -0.658,-0.452 -0.85,-0.5 -0.576,-0.144 -0.709,-0.621 -0.325,-1.125 0.192,-0.264 0.403,-0.657999 0.475,-0.849999 0.072,-0.192 0.283,-0.693 0.475,-1.125 0.192,-0.408 0.325,-0.856 0.325,-1 0,-0.144 0.104,-0.275 0.2,-0.275 0.12,0 0.225,-0.132 0.225,-0.3 0,-0.48 0.859,-2.325 1.075,-2.325 0.096,0 0.2,-0.131 0.2,-0.275 0,-0.312 2.79,-6.194 3.15,-6.65 0.117,-0.135 0.185112,-0.20475 0.3,-0.225 z m -47.949999,0.425 c 0.144,0 1.488,0.606 3,1.35 3.216,1.56 7.65,4.164 7.65,4.5 0,0.72 -4.717,5.537 -5.125,5.225 -1.848,-1.344 -6.704,-4.034 -9.8,-5.45 -1.152,-0.504 -2.125,-1.028 -2.125,-1.1 0,-0.096 0.183,-0.203 0.375,-0.275 0.696,-0.288 3.692,-2.364 4.7,-3.3 0.576,-0.504 1.181,-0.926 1.325,-0.95 z m 83.749996,0.95 c 0.288,0 1.474,0.472 2.65,1 2.688,1.272 6.095,2.6 6.575,2.6 0.96,0.024 0.988,0.414 0.1,1.35 -1.872,2.016 -4.23,5.422 -6.15,8.949999 l -0.4,0.725 -1.275,-0.425 c -0.696,-0.24 -1.933,-0.714 -2.725,-1.05 -0.792,-0.336 -2.848,-1.154 -4.6,-1.85 -1.728,-0.671999 -3.335,-1.381999 -3.575,-1.549999 -0.408,-0.312 -0.409,-0.349 -0.025,-0.925 0.888,-1.368 3.751,-4.335 6.175,-6.375 0.72,-0.624 1.617,-1.415 2.025,-1.775 0.384,-0.384 0.937,-0.675 1.225,-0.675 z m 24.4,0.475 1.875,0.05 0.675,0.55 c 0.002,-0.01643 -0.005,-0.03764 0,-0.05 0.024,-0.048 0.068,-0.0735 0.125,-0.075 0.13899,-0.0037 0.3488,0.119169 0.5,0.3 0.0282,0.01643 0.40039,0.23309 0.6,0.35 0.12375,-0.027 0.327,0.017 0.525,0.125 0.19902,0.09951 0.29626,0.216877 0.325,0.375 0.37281,0.221065 0.7067,0.406049 1.025,0.6 0.0152,-0.01868 0.0335,-0.02798 0.05,-0.05 0.24,-0.312 0.27,-0.31 0.15,0.05 -0.013,0.04752 -0.0201,0.08837 -0.025,0.125 0.12468,0.07668 0.13474,0.09224 0.225,0.15 0.007,0.0046 0.0181,-0.0044 0.025,0 0.17398,-0.05003 0.47,0.124 0.7,0.4 0.24,0.264 0.557,0.475 0.725,0.475 0.144,0 0.696,0.422 1.2,0.95 0.494,0.507 0.71013,0.76204 0.725,0.875 0.001,0.0087 0.001,0.01774 0,0.025 -0.0142,0.07257 -0.125,0.075 -0.375,0.075 -0.336,0 -0.704,-0.079 -0.8,-0.175 -0.072,-0.096 -0.335,-0.201 -0.575,-0.225 -0.216,-0.024 -0.663,-0.103 -0.975,-0.175 -0.81,-0.18 -1.18297,-0.31375 -1.325,-0.475 l -0.575,-0.125 c -0.22698,0.166548 -0.34507,0.110817 -0.55,-0.15 l -1.725,-0.4 -0.075,-0.025 -2.325,-0.55 -2.9,-0.575 -0.7,-1.375 0.175,-0.025 -0.05,-0.025 -0.375,-0.875 3.725,-0.125 z m -5.65,0.825 1.35,0.55 0.4,0.8 -3.225,-0.625 1.475,-0.725 z m 4.3,2.1 c 0.09,-0.03 0.109,0.047 0.025,0.275 -0.072,0.192 0.061,0.35 0.325,0.35 0.264,0.024 0.422,-0.055 0.35,-0.175 -0.072,-0.096 0.191,-0.069 0.575,0.075 0.408,0.144 0.673,0.328 0.625,0.4 -0.048,0.096 0.137,0.149 0.425,0.125 0.288,-0.024 0.919,0.108 1.375,0.3 0.456,0.192 1.194,0.402 1.65,0.45 0.456,0.072 0.955,0.179 1.075,0.275 0.144,0.096 0.591,0.227 0.975,0.275 0.408,0.048 0.882,0.18 1.05,0.3 0.144,0.144 0.275,0.196 0.275,0.1 0,-0.072 0.29,-0.019 0.65,0.125 0.336,0.12 1.1,0.278 1.7,0.35 0.696,0.072 1.265,0.317 1.625,0.725 0.288,0.312 0.605,0.575 0.725,0.575 0.096,0 0.675,0.421 1.275,0.925 0.6,0.504 1.627,1.19 2.275,1.55 0.624,0.36 1.125,0.727999 1.125,0.799999 0,0.192 -2.472,-0.207999 -6,-0.999999 -1.656,-0.36 -6.97,-1.734 -7.45,-1.95 -0.192,-0.072 -0.428,-0.149 -0.5,-0.125 -0.096,0.024 -0.729,-0.16 -1.425,-0.4 -1.272,-0.456 -1.727,-0.844 -2.975,-2.5 -0.672,-0.864 -0.658,-0.919 -0.25,-1.375 0.252,-0.276 0.41,-0.42 0.5,-0.45 z m -46.074997,0.925 c 0.048,0 1.076,0.448 2.299999,1 1.224,0.528 2.777,1.212 3.425,1.5 0.672,0.312 2.305998,1 3.649998,1.6 1.344,0.576 2.475,1.207 2.475,1.375 0,0.168 -0.422,0.907 -0.95,1.674999 -0.504,0.744 -1.297,2.114 -1.825,3.05 -0.504,0.912 -1.029,1.702 -1.125,1.75 -0.096,0.048 -0.175,0.205 -0.175,0.325 0,0.144 -0.841998,1.962 -1.849998,4.05 -2.064,4.224 -1.832,4.013 -3.799999,3.125 -0.528,-0.24 -1.608,-0.715 -2.4,-1.075 -2.952,-1.344 -5.53,-2.606 -5.65,-2.75 -0.072,-0.072 -0.283,-0.152 -0.475,-0.2 -0.744,-0.168 -0.963,-0.573 -0.675,-1.125 0.168,-0.264 0.274,-0.579 0.25,-0.675 -0.024,-0.096 0.345,-0.993 0.825,-2.025 0.888,-1.992 1.002,-2.288 1.65,-3.8 0.744,-1.727999 1.841,-3.842999 2.225,-4.274999 0.192,-0.216 0.296,-0.4 0.2,-0.4 -0.096,0 0.115,-0.502 0.475,-1.15 0.624,-1.056 1.282,-1.975 1.45,-1.975 z m -31.625,1.2 c 0.096,0 0.387,0.21 0.675,0.45 0.264,0.24 0.843,0.659 1.275,0.875 0.456,0.24 0.958,0.582 1.15,0.75 0.168,0.192 0.457,0.325 0.625,0.325 0.168,0 0.511,0.209 0.775,0.425 0.264,0.24 1.055,0.741 1.775,1.125 0.72,0.384 1.614,0.939 1.95,1.275 0.336,0.311999 0.652,0.497999 0.7,0.449999 0.072,-0.072 0.546,0.244 1.05,0.7 0.816,0.72 0.888,0.865 0.6,1.225 -0.168,0.216 -0.351,0.533 -0.375,0.725 -0.048,0.192 -0.208,0.534 -0.4,0.75 -0.192,0.24 -0.428,0.661 -0.5,0.925 -0.096,0.288 -0.361,0.685 -0.625,0.925 -0.264,0.24 -0.475,0.529 -0.475,0.625 0,0.264 -2.395,4.047 -2.875,4.575 -0.36,0.384 -0.442,0.339 -1.45,-0.525 -1.152,-0.984 -3.408,-2.841 -5.4,-4.425 -0.672,-0.504 -1.253,-1.028 -1.325,-1.1 -0.072,-0.072 -0.467,-0.363 -0.875,-0.675 -0.912,-0.624 -0.998,-1.012 -0.35,-1.9 0.24,-0.36 1.215,-2.178999 2.175,-4.074999 0.96,-1.872 1.828,-3.425 1.9,-3.425 z m -17.424999,0.025 c 0.12,-0.024 0.436,0.106 0.7,0.25 0.456,0.24 3.286,2.312 3.55,2.6 0.072,0.072 0.547,0.44 1.075,0.8 0.528,0.36 1.661,1.202 2.525,1.849999 0.864,0.672 2.024,1.543 2.6,1.975 0.552,0.432 0.999999,0.933 0.999999,1.125 0,0.792 -4.578999,6.025 -5.274999,6.025 -0.072,0 -0.414,-0.238 -0.75,-0.55 -0.36,-0.288 -1.467,-1.236 -2.475,-2.1 -1.464,-1.248 -1.825,-1.672 -1.825,-2.2 0,-0.672 -0.358,-0.903 -0.55,-0.375 -0.072,0.216 -0.21,0.218 -0.45,0.05 -0.984,-0.648 -5.225,-4.054999 -5.225,-4.174999 0,-0.216 4.884,-5.275 5.1,-5.275 z m 62.099996,4.65 c 0.438,-0.021 1.076,0.274 2.3,0.849999 0.816,0.384 2.371,1.042 3.475,1.45 3.984,1.488 6.333,2.432 6.525,2.6 0.192,0.192 -0.988,3.15 -1.3,3.15 -0.096,0 -0.2,0.157 -0.2,0.325 0,0.192 -0.264,0.876 -0.6,1.5 -0.336,0.624 -1.206,2.628 -1.95,4.5 -0.72,1.872 -1.484,3.507 -1.7,3.675 -0.24,0.192 -0.542,0.218 -0.95,0.05 -0.312,-0.12 -1.074,-0.2 -1.65,-0.2 -0.576,0 -1.128,-0.13 -1.2,-0.25 -0.096,-0.144 -0.229,-0.197 -0.325,-0.125 -0.216,0.12 -7.12,-1.567 -8.2,-1.975 -0.935998,-0.384 -1.513998,-0.603 -1.849998,-0.675 -0.192,-0.024 -0.402,-0.127 -0.45,-0.175 -0.168,-0.144 2.190998,-5.244 3.174998,-6.9 0.264,-0.456 1.079,-1.905 1.775,-3.225 0.696,-1.32 1.617,-2.926 2.025,-3.55 0.432,-0.659999 0.662,-1.003999 1.1,-1.024999 z m -33.049997,2.799999 c 0.072,-0.033 0.224,0.017 0.5,0.125 0.216,0.072 0.321,0.256 0.225,0.4 -0.072,0.12 -0.01904,0.171 0.125,0.075 0.144,-0.072 0.882,0.246 1.65,0.75 1.944,1.296 2.844,1.836 4.5,2.7 0.792,0.432 1.528,0.856 1.6,1 0.072,0.12 0.283,0.251 0.475,0.275 0.192,0.048 0.589,0.235 0.925,0.475 0.312,0.216 0.732,0.4 0.9,0.4 0.144,0 0.329,0.105 0.425,0.225 0.144,0.264 -0.837,2.425 -1.125,2.425 -0.096,0 -0.122,0.132 -0.05,0.3 0.048,0.168 -0.087,0.535 -0.375,0.775 -0.264,0.24 -0.5,0.582 -0.5,0.75 0,0.648 -2.011,3.74 -2.275,3.5 -0.12,-0.096 -0.121,-0.043 -0.02496,0.125 0.144,0.264 -1.271,2.763 -1.775,3.075 -0.144,0.072 -0.409,-0.033 -0.625,-0.225 -0.192,-0.216 -0.48,-0.375 -0.6,-0.375 -0.144,0 -0.171,-0.132 -0.07496,-0.3 0.096,-0.144 0.094,-0.197 -0.05,-0.125 -0.144,0.096 -0.513,-0.035 -0.825,-0.275 -0.312,-0.24 -0.892,-0.609 -1.3,-0.825 -0.384,-0.192 -0.936,-0.56 -1.2,-0.8 -0.264,-0.24 -0.869,-0.687 -1.325,-0.975 -0.456,-0.288 -1.061,-0.71 -1.325,-0.95 -0.264,-0.24 -0.844,-0.687 -1.3,-0.975 -1.2,-0.768 -2.175,-1.665 -2.175,-2.025 0,-0.312 1.012,-1.949 1.9,-3.125 0.288,-0.336 0.5,-0.73 0.5,-0.85 0,-0.12 0.211,-0.411 0.475,-0.675 0.24,-0.264 0.61,-0.895 0.85,-1.375 0.216,-0.48 0.505,-0.9 0.625,-0.9 0.12,0 0.225,-0.186 0.225,-0.45 0,-0.24 0.158,-0.582 0.35,-0.75 0.192,-0.168 0.35,-0.458 0.35,-0.65 0,-0.192 0.106,-0.247 0.25,-0.175 0.144,0.072 0.172,-0.033 0.1,-0.225 -0.084,-0.216 -0.097,-0.317 -0.02496,-0.35 z m -16.7,1.65 c 0.072,0 0.65,0.42 1.25,0.9 0.6,0.48 1.337,1.113 1.625,1.425 0.288,0.336 0.605,0.575 0.725,0.575 0.096,0 1.36,0.976 2.8,2.2 1.416,1.224 2.758,2.332 2.95,2.5 0.288,0.216 0.29,0.37 0.05,0.85 -0.768,1.44 -4.693,5.825 -5.725,6.425 -0.288,0.144 -1.418,-0.815 -4.849999,-4.175 l -4.475,-4.4 2.225,-2.25 c 1.224,-1.248 2.437999,-2.646 2.749999,-3.15 0.288,-0.48 0.603,-0.9 0.675,-0.9 z m 29.125,5.275 c 0.096,0 0.332,0.157 0.5,0.325 0.168,0.192 0.431,0.273 0.575,0.225 0.168,-0.048 0.458,0.084 0.65,0.3 0.216,0.216 0.479,0.374 0.575,0.35 0.432,0 1.05,0.284 1.05,0.5 0,0.144 0.07896,0.197 0.175,0.125 0.12,-0.072 0.517,0.111 0.925,0.375 0.384,0.24 0.885,0.45 1.125,0.45 0.216,0 0.4,0.107 0.4,0.275 0,0.144 0.078,0.221 0.15,0.125 0.072,-0.072 0.544,0.086 1,0.35 0.48,0.24 1.007,0.45 1.175,0.45 0.168,0 0.325,0.079 0.325,0.175 0,0.096 0.237,0.201 0.525,0.225 0.264,0.024 0.578,0.155 0.649999,0.275 0.072,0.12 0.441,0.279 0.825,0.375 0.36,0.072 0.625,0.256 0.625,0.4 0,0.288 -4.002999,8.218 -4.674999,9.25 -0.264,0.408 -0.739,1.172 -1.075,1.7 l -0.6,0.975 -0.85,-0.35 c -2.952,-1.224 -5.025,-2.261 -5.025,-2.525 0,-0.12 -0.105,-0.172 -0.225,-0.1 -0.12,0.072 -0.464,-0.06104 -0.8,-0.325 -0.336,-0.264 -0.73,-0.475 -0.85,-0.475 -0.144,0 -0.566,-0.264 -0.95,-0.6 -0.384,-0.312 -0.753,-0.523 -0.825,-0.475 -0.048,0.072 -0.469,-0.216 -0.925,-0.6 -0.48,-0.432 -0.744,-0.804 -0.6,-0.9 0.144,-0.096 0.277,-0.358 0.325,-0.55 0.048,-0.192 0.208,-0.533 0.4,-0.725 0.168,-0.192 0.403,-0.586 0.475,-0.85 0.096,-0.288 0.336,-0.71 0.6,-0.95 0.264,-0.24 0.5,-0.581 0.5,-0.725 0,-0.168 0.237,-0.591 0.525,-0.975 0.288,-0.36 0.551,-0.808 0.575,-1 0.048,-0.168 0.207,-0.509 0.375,-0.725 0.168,-0.24 0.747,-1.296 1.275,-2.4 0.504,-1.08 1.004,-1.975 1.1,-1.975 z m -18.6,3.375 c 0.096,0 0.598,0.343 1.15,0.775 0.552,0.432 1.527,1.194 2.175,1.65 0.648,0.456 1.545,1.09 2.025,1.45 0.48,0.36 1.929,1.361 3.225,2.225 1.272,0.888 2.325,1.732 2.325,1.9 0,0.168 -0.211,0.537 -0.475,0.825 -0.264,0.288 -0.475,0.605 -0.475,0.725 0,0.096 -0.211,0.411 -0.475,0.675 -0.24,0.264 -0.582,0.765 -0.75,1.125 -0.432,0.792 -4.001,4.663004 -4.625,4.975004 -0.384,0.216 -0.601,0.126 -1.225,-0.45 -0.408,-0.384 -0.963,-0.858 -1.275,-1.05 -0.84,-0.576004 -4.579,-3.956004 -6.475,-5.900004 l -1.7,-1.775 2.075,-2.1 c 1.152,-1.128 2.576,-2.759 3.2,-3.575 0.648,-0.816 1.228,-1.475 1.3,-1.475 z m 30.874999,2.3 c 0.072,-0.02062 0.139,0.002 0.175,0.05 0.072,0.096 0.255,0.15 0.375,0.15 0.24,0 2.730998,0.761 3.474998,1.025 0.192,0.096 0.454,0.124 0.55,0.1 0.096,0 0.385,0.055 0.625,0.175 0.24,0.144 0.741,0.327 1.125,0.375 0.384,0.072 1.91,0.389 3.35,0.725 1.464,0.336 2.889,0.6 3.225,0.6 0.888,0 1.675,0.286 1.675,0.55 0,0.288 -0.288,0.958 -2.4,5.35 -1.584,3.288004 -2.539,5.011004 -3.475,6.475004 -0.504,0.768 -0.769,0.811 -2.425,0.475 -0.504,-0.12 -1.111,-0.251 -1.375,-0.275 -0.24,-0.024 -0.504,-0.105 -0.6,-0.225 -0.072,-0.12 -0.544,-0.252 -1,-0.3 -0.456,-0.024 -0.878,-0.129 -0.949998,-0.225 -0.072,-0.096 -0.442,-0.202 -0.85,-0.25 -0.816,-0.072 -2.99,-0.762 -3.35,-1.05 -0.12,-0.096 -0.41,-0.2 -0.65,-0.2 -0.239999,0 -0.424999,-0.105 -0.424999,-0.225 0,-0.144 -0.264,-0.25 -0.6,-0.25 -0.336,0 -0.6,-0.132 -0.6,-0.3 0,-0.144 -0.078,-0.196 -0.15,-0.1 -0.144,0.12 -1.711,-0.410004 -1.975,-0.650004 -0.12,-0.144 0.666,-1.617 1.05,-2.025 0.192,-0.168 0.35,-0.43 0.35,-0.55 0,-0.12 0.396,-0.909 0.9,-1.725 0.48,-0.84 1.084,-1.894 1.3,-2.35 0.863999,-1.728 2.124999,-4.557 2.124999,-4.725 0,-0.234 0.309,-0.563125 0.525,-0.625 z m -18.999999,6.1 c 0.072,0 0.519,0.342 0.975,0.75 0.456,0.432 0.827,0.773 0.875,0.725 0.144,-0.144 0.537,-0.014 0.825,0.25 0.36,0.336 0.958,0.67 4.15,2.35 1.2,0.624 2.677,1.31 3.325,1.55 1.008,0.384 1.5,0.850004 0.9,0.850004 -0.12,0 -0.304,0.237 -0.4,0.525 -0.072,0.312 -0.333,0.735 -0.525,0.975 -0.216,0.24 -0.612,0.794 -0.9,1.25 -1.32,2.16 -4.925,6.526 -4.925,5.95 0,-0.096 -0.133,0.06 -0.325,0.3 -0.312,0.456 -0.365,0.457 -1.325,0.025 -0.528,-0.264 -0.975,-0.555 -0.975,-0.675 0,-0.096 -0.07896,-0.174 -0.175,-0.15 -0.264,0.072 -2.727,-1.375 -3.375,-1.975 -0.288,-0.264 -0.604,-0.475 -0.7,-0.475 -0.12,0.024 -0.543,-0.239 -0.975,-0.575 -0.432,-0.36 -0.854,-0.625 -0.95,-0.625 -0.12,0 -0.464,-0.238 -0.8,-0.55 -0.336,-0.288 -0.89,-0.761 -1.25,-1.025 l -0.625,-0.475 1.475,-1.625 c 0.816,-0.864 2.027,-2.339004 2.675,-3.275004 0.672,-0.936 1.384,-1.909 1.6,-2.125 0.192,-0.216 0.56,-0.768 0.8,-1.2 0.264,-0.408 0.529,-0.75 0.625,-0.75 z m 12.475,6.750004 c 0.0756,-0.0138 0.144,-0.006 0.225,0 0.336,0.024 0.678,0.154 0.75,0.25 0.072,0.12 0.414,0.252 0.75,0.3 0.336,0.072 1.231,0.389 1.975,0.725 0.743999,0.336 1.324999,0.522 1.324999,0.45 0,-0.096 0.158,-0.019 0.35,0.125 0.192,0.168 0.587,0.352 0.875,0.4 1.224,0.24 2.625,0.708 2.625,0.9 0,0.096 0.104998,0.147 0.224998,0.075 0.096,-0.072 0.78,0.033 1.5,0.225 0.72,0.168 1.564,0.377 1.9,0.425 1.2,0.24 1.619,0.464 1.475,0.8 -0.072,0.192 -0.231,0.246 -0.375,0.15 -0.144,-0.072 -0.171,-0.018 -0.075,0.15 0.192,0.288 -1.283,2.729 -2.075,3.425 -0.264,0.24 -0.421,0.45 -0.325,0.45 0.096,0 0.018,0.133 -0.15,0.325 -0.168,0.192 -0.405,0.272 -0.525,0.2 -0.12,-0.072 -0.145,-0.018 -0.025,0.15 0.216,0.36 -1.292,2.018 -1.699998,1.85 -0.144,-0.048 -0.249,0.084 -0.225,0.3 0.024,0.24 -0.16,0.375 -0.4,0.375 -0.24,-0.024 -0.347,0.08 -0.275,0.2 0.192,0.312 -1.867,2.168 -2.275,2 -0.168,-0.048 -0.222,-0.02 -0.15,0.1 0.072,0.144 0.044,0.25 -0.1,0.25 -0.12,0 -0.328,-0.131 -0.4,-0.275 -0.096,-0.144 -0.308,-0.172 -0.5,-0.1 -0.168,0.072 -0.482999,-0.033 -0.674999,-0.225 -0.192,-0.192 -0.377,-0.27 -0.425,-0.15 -0.12,0.36 -4.166,-0.811 -5.75,-1.675 -0.24,-0.12 -0.583,-0.225 -0.775,-0.225 -0.168,0 -0.457,-0.158 -0.625,-0.35 -0.168,-0.216 -0.353,-0.323 -0.425,-0.275 -0.048,0.072 -0.519,-0.086 -0.975,-0.35 -0.48,-0.24 -1.007,-0.45 -1.175,-0.45 -0.168,0 -0.3,-0.13 -0.3,-0.25 0,-0.144 -0.07896,-0.2 -0.175,-0.2 -1.056,0.168 -1.003,-0.394 0.125,-1.45 0.48,-0.48 1.085,-1.165 1.325,-1.525 0.216,-0.36 0.849,-1.152 1.425,-1.8 0.552,-0.648 1.236,-1.544 1.5,-2 1.512,-2.52 1.99568,-3.2032 2.525,-3.3 z"
     id="path3082" />
  <path
     style="fill:#000000;stroke:none"
     id="path3090"
     d="m 166.58843,59.014618 c -0.528,0.648 -0.576,1.32 -0.048,0.888 0.36,-0.288 0.528,0 0.192,0.336 -0.24,0.216 -0.312,1.104 -0.144,1.92 0.12,0.648 0.168,0.672 1.056,0.552 1.056,-0.144 1.056,-0.12 0.648,0.624 -0.432,0.744 -0.744,0.912 -0.984,0.528 -0.288,-0.528 -0.888,-0.432 -0.888,0.12 0,1.128 1.92,0.744 2.568,-0.504 0.36,-0.696 1.272,-4.608 1.128,-4.776 -0.192,-0.192 -0.936,0.384 -0.96,0.744 -0.048,0.936 -0.456,1.92 -0.96,2.4 -0.312,0.288 -0.648,0.48 -0.72,0.384 -0.096,-0.096 -0.024,-0.792 0.144,-1.584 0.384,-1.776 0.384,-1.752 -0.168,-1.968 -0.312,-0.12 -0.576,0 -0.864,0.336 z"
     inkscape:connector-curvature="0" />
  <path
     style="fill:#000000;stroke:none"
     id="path3092"
     d="m 159.22043,64.342618 c -1.656,0.984 -3.432,2.016 -3.96,2.28 -1.464,0.744 -1.872,1.128 -1.704,1.56 0.12,0.312 0.216,0.336 0.672,0.072 0.312,-0.144 0.672,-0.312 0.84,-0.336 0.144,-0.024 0.528,-0.288 0.84,-0.552 0.288,-0.288 0.792,-0.576 1.08,-0.648 0.312,-0.096 0.552,-0.24 0.552,-0.336 0,-0.12 0.48,-0.432 1.056,-0.72 0.576,-0.264 1.2,-0.672 1.368,-0.864 0.168,-0.192 0.432,-0.312 0.624,-0.24 0.168,0.072 0.312,0.048 0.312,-0.048 0,-0.096 0.432,-0.48 0.96,-0.864 0.816,-0.6 1.056,-1.128 0.528,-1.08 -0.096,0 -1.512,0.792 -3.168,1.776 z"
     inkscape:connector-curvature="0" />
  <path
     style="fill:#000000;stroke:none"
     id="path3094"
     d="m 145.06043,72.598618 c 0,0.12 -0.312,0.336 -0.696,0.504 -0.384,0.144 -1.056,0.552 -1.488,0.864 -0.432,0.312 -0.864,0.504 -0.96,0.432 -0.12,-0.072 -0.216,-0.024 -0.216,0.12 0,0.12 -0.48,0.456 -1.056,0.744 -0.576,0.264 -1.2,0.672 -1.344,0.864 -0.168,0.168 -0.432,0.336 -0.576,0.336 -0.168,0 -0.648,0.264 -1.104,0.6 -0.432,0.312 -0.888,0.528 -0.984,0.456 -0.12,-0.072 -0.216,0 -0.216,0.168 0,0.168 -0.072,0.24 -0.144,0.144 -0.072,-0.072 -0.36,0.072 -0.648,0.336 -0.264,0.24 -0.648,0.456 -0.816,0.456 -0.168,0 -0.312,0.096 -0.312,0.192 0,0.12 -0.504,0.456 -1.128,0.768 -0.648,0.312 -1.416,0.744 -1.728,1.008 -0.312,0.24 -0.648,0.36 -0.768,0.288 -0.12,-0.072 -0.216,-0.024 -0.216,0.096 0,0.096 -0.504,0.456 -1.128,0.768 -0.648,0.312 -1.368,0.768 -1.632,1.008 -0.24,0.24 -0.6,0.384 -0.768,0.336 -0.144,-0.072 -0.312,-0.048 -0.36,0.048 -0.168,0.36 -1.464,1.224 -1.656,1.104 -0.12,-0.072 -0.216,-0.024 -0.216,0.096 0,0.12 -0.408,0.408 -0.888,0.672 -0.504,0.24 -1.08,0.576 -1.272,0.744 -0.192,0.144 -0.528,0.312 -0.72,0.36 -0.192,0.048 -0.552,0.264 -0.816,0.504 -0.288,0.24 -0.744,0.48 -1.032,0.552 -0.312,0.096 -0.552,0.24 -0.552,0.384 0,0.12 -0.096,0.144 -0.24,0.072 -0.12,-0.072 -0.24,-0.048 -0.24,0.072 0,0.12 -0.408,0.432 -0.888,0.648 -0.504,0.24 -1.08,0.552 -1.272,0.72 -0.192,0.192 -0.528,0.36 -0.72,0.408 -0.192,0.048 -0.48,0.216 -0.672,0.36 -0.168,0.168 -0.504,0.408 -0.72,0.528 -0.312,0.168 -0.336,0.312 -0.12,0.528 0.216,0.216 0.624,0.072 1.776,-0.528 0.84,-0.456 1.728,-1.008 1.992,-1.248 0.264,-0.216 0.6,-0.408 0.72,-0.408 0.144,0 0.72,-0.312 1.272,-0.672 1.8,-1.176 2.904,-1.8 3,-1.704 0.048,0.048 0.336,-0.144 0.672,-0.456 0.312,-0.288 0.696,-0.528 0.864,-0.528 0.144,0 0.528,-0.192 0.84,-0.456 0.312,-0.24 1.224,-0.768 2.016,-1.2 0.792,-0.408 1.608,-0.864 1.8,-0.984 1.272,-0.84 3.12,-1.848 3.12,-1.728 0,0.096 0.096,0.024 0.192,-0.12 0.168,-0.288 1.008,-0.792 3.288,-2.016 0.528,-0.288 1.128,-0.648 1.32,-0.816 0.192,-0.168 0.96,-0.6 1.68,-0.984 0.72,-0.36 1.488,-0.792 1.68,-0.96 0.192,-0.168 0.528,-0.336 0.72,-0.384 0.192,-0.048 0.624,-0.312 0.96,-0.624 0.552,-0.48 0.696,-0.552 1.104,-0.504 0.096,0 0.24,-0.072 0.312,-0.192 0.24,-0.312 1.56,-1.152 1.776,-1.08 0.096,0.024 0.168,-0.168 0.168,-0.432 0,-0.312 -0.168,-0.48 -0.48,-0.48 -0.264,0 -0.48,0.096 -0.48,0.216 z"
     inkscape:connector-curvature="0" />
  <path
     style="fill:#000000;stroke:none"
     id="path3120"
     d="m 79.49243,110.85462 c -2.664,1.584 -3.576,2.088 -3.744,2.088 -0.12,0 -0.528,0.264 -0.912,0.6 -0.384,0.336 -0.816,0.6 -0.936,0.6 -0.144,0 -0.48,0.168 -0.72,0.36 -0.936,0.72 -3.216,1.992 -3.336,1.848 -0.072,-0.072 -0.144,-0.024 -0.144,0.12 0,0.144 -0.504,0.504 -1.128,0.792 -0.648,0.288 -1.416,0.744 -1.728,0.984 -0.312,0.24 -0.648,0.384 -0.768,0.312 -0.12,-0.072 -0.216,-0.024 -0.216,0.072 0,0.216 -1.152,0.984 -1.512,1.008 -0.096,0 -0.312,0.12 -0.48,0.264 -0.504,0.432 -4.68,2.88 -4.92,2.88 -0.12,0 -0.528,0.264 -0.912,0.6 -0.384,0.336 -0.792,0.6 -0.936,0.6 -0.12,0 -0.504,0.216 -0.84,0.48 -0.336,0.264 -0.792,0.48 -1.008,0.48 -0.24,0 -0.432,0.096 -0.432,0.216 0,0.12 -0.456,0.456 -1.008,0.744 -0.576,0.264 -1.728,0.936 -2.568,1.44 -0.816,0.528 -1.656,0.96 -1.848,0.96 -0.192,0 -0.336,0.096 -0.336,0.216 0,0.12 -0.408,0.408 -0.888,0.624 -0.504,0.24 -1.176,0.624 -1.488,0.864 -0.312,0.24 -0.648,0.384 -0.768,0.312 -0.12,-0.072 -0.216,0 -0.216,0.12 0,0.144 -0.168,0.264 -0.36,0.264 -0.264,0 -0.36,-0.288 -0.36,-1.08 0,-0.6 -0.096,-1.08 -0.24,-1.08 -0.24,0 -0.336,0.552 -0.24,1.728 0.048,0.744 -0.624,1.44 -2.208,2.256 -0.624,0.312 -1.176,0.672 -1.272,0.816 -0.072,0.12 -0.312,0.24 -0.504,0.24 -0.216,0 -0.72,0.264 -1.152,0.6 -0.432,0.336 -0.864,0.6 -0.96,0.6 -0.096,0 -0.456,0.216 -0.792,0.48 -0.336,0.264 -0.696,0.408 -0.816,0.336 -0.12,-0.072 -0.216,-0.024 -0.216,0.072 0,0.192 -1.392,1.128 -1.68,1.152 -0.072,0 -0.456,0.24 -0.888,0.552 -0.408,0.288 -0.84,0.528 -0.984,0.528 -0.12,0 -0.48,0.192 -0.792,0.432 -0.312,0.24 -1.176,0.768 -1.896,1.152 -0.72,0.384 -1.512,0.888 -1.776,1.104 -0.264,0.24 -0.6,0.432 -0.744,0.432 -0.144,0 -0.624,0.264 -1.08,0.6 -0.432,0.312 -0.888,0.528 -0.984,0.456 -0.12,-0.072 -0.216,-0.024 -0.216,0.12 0,0.12 -0.504,0.456 -1.152,0.768 -0.624,0.288 -1.176,0.624 -1.248,0.72 -0.192,0.264 -4.752,2.856 -5.016,2.856 -0.144,0 -0.264,0.096 -0.264,0.192 0,0.264 -2.88,1.872 -3.168,1.776 -0.12,-0.024 -0.168,0.048 -0.072,0.192 0.072,0.12 0.024,0.24 -0.12,0.24 -0.168,0 -0.552,0.216 -0.888,0.48 -0.336,0.264 -0.696,0.408 -0.816,0.336 -0.12,-0.072 -0.216,-0.024 -0.216,0.072 0,0.192 -1.368,1.104 -1.68,1.152 -0.072,0.024 -0.48,0.264 -0.936,0.528 -0.456,0.288 -0.936,0.456 -1.056,0.384 -0.144,-0.072 -0.168,-0.024 -0.072,0.12 0.096,0.168 0.024,0.288 -0.168,0.288 -0.192,0 -0.48,0.168 -0.648,0.36 -0.168,0.192 -0.504,0.36 -0.744,0.36 -0.264,0 -0.456,0.096 -0.456,0.216 0,0.12 -0.408,0.408 -0.912,0.672 -0.48,0.24 -1.32,0.72 -1.848,1.08 -1.32,0.864 -2.952,1.8 -3.912,2.232 -0.744,0.36 -1.08,1.08 -0.456,1.08 0.288,0 3.192,-1.656 10.128,-5.76 1.848,-1.104 3.576,-2.112 3.84,-2.256 0.792,-0.432 6.408,-3.792 7.32,-4.344 1.8,-1.128 21.432,-12.6 22.776,-13.32 0.504,-0.264 0.6,-0.24 0.84,0.144 0.216,0.408 0.264,0.384 0.384,-0.264 0.12,-0.624 0.6,-0.984 4.32,-3.168 2.304,-1.368 4.464,-2.616 4.8,-2.784 0.336,-0.192 3.528,-2.016 7.104,-4.08 l 6.504,-3.744 3.816,0.96 c 9.792,2.472 23.928,6.048 28.176,7.152 2.568,0.648 10.728,2.712 18.12,4.584 7.392,1.872 17.664,4.464 22.8,5.784 5.16,1.296 11.592,2.928 14.352,3.6 2.736,0.672 4.968,1.32 4.968,1.392 0,0.216 -13.968,12.384 -19.32,16.824 -2.112,1.752 -4.272,3.576 -4.824,4.056 -0.528,0.48 -1.944,1.68 -3.12,2.688 -1.176,0.984 -5.112,4.344 -8.736,7.44 -3.648,3.096 -7.248,6.144 -8.016,6.816 -5.208,4.392 -10.368,8.784 -11.904,10.08 -4.44,3.768 -5.856,4.92 -6.168,4.92 -0.384,0 -5.232,-1.536 -26.592,-8.4 -1.968,-0.648 -7.704,-2.472 -12.72,-4.08 -5.016,-1.608 -11.544,-3.72 -14.52,-4.68 -2.976,-0.96 -7.392,-2.4 -9.84,-3.192 -2.448,-0.792 -7.248,-2.376 -10.68,-3.48 -11.064,-3.624 -23.592,-7.608 -23.928,-7.608 -0.408,0 -0.168,0.672 0.288,0.792 0.264,0.072 0.576,0.144 0.672,0.168 0.096,0.024 0.816,0.288 1.608,0.6 0.792,0.288 1.512,0.528 1.632,0.552 0.288,0.024 3.6,1.008 4.128,1.248 0.264,0.096 1.464,0.48 2.64,0.84 1.2,0.336 2.856,0.888 3.72,1.176 0.864,0.312 2.208,0.744 3,0.984 0.792,0.24 1.584,0.552 1.776,0.696 0.192,0.144 0.384,0.24 0.432,0.192 0.096,-0.072 1.32,0.216 1.632,0.408 0.144,0.072 0.36,0.144 0.528,0.168 0.288,0.048 3.888,1.2 4.752,1.536 0.264,0.096 1.608,0.528 3,0.96 1.392,0.456 2.64,0.864 2.76,0.936 0.144,0.072 0.288,0.144 0.36,0.144 0.408,0.048 8.904,2.76 9.36,3 0.216,0.096 0.744,0.264 1.2,0.36 0.456,0.096 0.984,0.264 1.2,0.384 0.552,0.288 1.296,0.528 1.488,0.504 0.096,-0.024 0.672,0.168 1.272,0.432 0.6,0.264 1.08,0.408 1.08,0.36 0,-0.048 0.48,0.096 1.08,0.36 0.6,0.264 1.128,0.48 1.2,0.48 0.072,0 0.24,0.048 0.408,0.12 0.168,0.048 1.128,0.336 2.112,0.6 0.984,0.288 1.992,0.6 2.208,0.744 0.24,0.12 0.648,0.216 0.912,0.216 0.264,0 0.48,0.096 0.48,0.216 0,0.12 0.144,0.192 0.312,0.168 0.144,0 1.2,0.264 2.328,0.648 1.128,0.36 2.592,0.816 3.24,1.032 0.672,0.216 1.368,0.432 1.56,0.528 0.504,0.168 0.504,0.192 1.32,0.408 0.408,0.096 0.84,0.24 0.96,0.336 0.144,0.072 0.36,0.144 0.504,0.168 0.312,0.048 6.504,1.968 7.056,2.184 0.48,0.192 0.504,0.192 1.32,0.432 0.408,0.096 0.84,0.24 0.96,0.336 0.144,0.072 0.456,0.168 0.72,0.192 0.24,0.048 0.528,0.168 0.6,0.264 0.072,0.096 0.336,0.192 0.6,0.24 0.264,0.024 0.6,0.096 0.72,0.12 0.6,0.168 2.208,0.696 2.64,0.864 0.264,0.12 1.608,0.552 3,0.984 1.392,0.456 2.64,0.888 2.784,1.008 0.144,0.096 0.312,0.144 0.384,0.072 0.072,-0.072 0.528,0.048 1.032,0.264 0.528,0.216 1.152,0.432 1.416,0.48 0.264,0.048 0.528,0.168 0.6,0.264 0.072,0.12 0.408,0.216 0.744,0.264 0.552,0.048 2.568,0.6 3.36,0.936 0.504,0.216 0.504,0.216 1.512,0.408 0.48,0.12 0.888,0.312 0.888,0.456 0,0.144 0.072,0.192 0.144,0.096 0.072,-0.072 0.6,0.024 1.128,0.24 0.552,0.192 1.224,0.384 1.488,0.456 0.504,0.096 4.032,1.2 4.68,1.464 0.504,0.216 0.504,0.216 1.512,0.408 0.48,0.12 0.888,0.312 0.888,0.456 0,0.144 0.072,0.192 0.144,0.096 0.072,-0.072 0.6,0.024 1.128,0.24 0.552,0.192 1.224,0.384 1.464,0.456 0.264,0.048 1.344,0.36 2.4,0.72 1.872,0.6 2.28,0.72 2.544,0.792 0.072,0 1.104,0.36 2.28,0.768 1.2,0.408 2.328,0.768 2.544,0.816 0.84,0.168 2.52,0.696 2.736,0.864 0.144,0.072 0.624,0.24 1.08,0.336 0.456,0.096 0.984,0.288 1.152,0.408 0.144,0.144 0.288,0.192 0.288,0.12 0,-0.096 0.456,0.024 1.032,0.216 0.552,0.216 1.176,0.408 1.392,0.456 0.192,0.048 0.768,0.24 1.272,0.456 0.504,0.216 1.128,0.384 1.368,0.384 0.264,0 0.456,0.12 0.456,0.264 0,0.12 0.096,0.192 0.216,0.12 0.12,-0.096 0.528,-0.024 0.912,0.12 1.32,0.504 1.752,0.504 1.752,-0.024 0,-0.408 -0.432,-0.672 -1.44,-0.84 -0.264,-0.048 -1.344,-0.408 -1.8,-0.6 -0.384,-0.144 -1.8,-0.576 -2.76,-0.84 -0.072,-0.024 -0.552,-0.168 -1.08,-0.312 -0.528,-0.144 -1.032,-0.24 -1.104,-0.216 -0.072,0.024 -0.336,-0.096 -0.552,-0.288 -0.216,-0.192 -0.744,-0.384 -1.152,-0.432 -0.408,-0.048 -0.864,-0.168 -1.008,-0.288 -0.144,-0.12 -0.672,-0.288 -1.176,-0.384 -0.48,-0.096 -0.96,-0.264 -1.032,-0.384 -0.072,-0.12 -0.216,-0.168 -0.336,-0.096 -0.12,0.072 -0.456,0.024 -0.768,-0.096 -0.912,-0.36 -1.488,-0.576 -1.824,-0.648 -0.864,-0.168 -4.536,-1.392 -4.776,-1.608 -0.168,-0.12 -0.312,-0.168 -0.312,-0.096 0,0.096 -0.456,-0.024 -1.008,-0.216 -0.576,-0.216 -1.2,-0.408 -1.416,-0.456 -0.192,-0.048 -0.768,-0.24 -1.272,-0.456 -0.504,-0.216 -1.128,-0.384 -1.368,-0.384 -0.264,0 -0.456,-0.12 -0.456,-0.264 0,-0.12 -0.096,-0.192 -0.216,-0.096 -0.12,0.072 -0.648,-0.024 -1.152,-0.216 -1.008,-0.384 -5.04,-1.632 -5.544,-1.728 -0.192,-0.024 -0.408,-0.12 -0.48,-0.216 -0.144,-0.144 0.84,-1.152 1.776,-1.8 0.264,-0.192 1.224,-1.008 2.136,-1.8 0.888,-0.792 2.016,-1.704 2.472,-2.04 0.48,-0.336 1.584,-1.272 2.448,-2.088 0.864,-0.816 2.16,-1.944 2.904,-2.52 0.744,-0.576 1.872,-1.56 2.52,-2.16 0.648,-0.624 1.608,-1.44 2.136,-1.848 0.528,-0.408 1.224,-0.984 1.56,-1.296 0.552,-0.504 1.488,-1.296 5.136,-4.344 0.648,-0.552 1.296,-1.104 1.44,-1.224 1.68,-1.536 2.376,-2.04 2.592,-1.896 0.144,0.096 0.192,0.072 0.12,-0.072 -0.096,-0.144 0.192,-0.528 0.624,-0.864 0.408,-0.312 1.536,-1.296 2.448,-2.184 0.936,-0.864 1.824,-1.512 1.992,-1.464 0.168,0.072 0.264,0.024 0.192,-0.096 -0.072,-0.096 0.144,-0.432 0.456,-0.696 0.336,-0.288 0.6,-0.456 0.6,-0.384 0,0.072 0.24,-0.12 0.552,-0.432 1.224,-1.248 3.552,-3.264 5.112,-4.392 0.36,-0.264 0.936,-0.744 1.296,-1.08 0.336,-0.336 1.368,-1.224 2.28,-1.992 0.936,-0.768 2.472,-2.112 3.456,-2.976 0.96,-0.888 2.208,-1.944 2.76,-2.328 0.528,-0.408 1.464,-1.176 2.064,-1.728 2.28,-2.088 2.544,-2.328 3.36,-2.952 0.456,-0.336 1.488,-1.224 2.28,-1.992 0.792,-0.744 1.776,-1.608 2.16,-1.896 0.408,-0.312 0.84,-0.72 1.008,-0.936 0.168,-0.192 0.312,-0.288 0.312,-0.192 0,0.264 1.68,-1.416 1.68,-1.68 0,-0.168 -0.288,-0.336 -0.648,-0.432 -0.384,-0.072 -1.104,-0.288 -1.632,-0.48 -0.552,-0.192 -1.248,-0.336 -1.584,-0.336 -0.336,0 -0.696,-0.072 -0.792,-0.168 -0.072,-0.096 -0.336,-0.192 -0.576,-0.216 -0.504,-0.072 -1.368,-0.288 -1.368,-0.336 0,-0.024 -0.216,-0.072 -0.48,-0.12 -0.264,-0.048 -0.744,-0.144 -1.08,-0.216 -0.336,-0.072 -0.984,-0.216 -1.44,-0.288 -0.456,-0.096 -0.936,-0.24 -1.08,-0.336 -0.12,-0.096 -0.552,-0.24 -0.96,-0.312 -0.84,-0.144 -1.68,-0.336 -2.28,-0.528 -0.24,-0.072 -0.648,-0.168 -0.888,-0.216 -0.36,-0.072 -9.096,-2.232 -9.792,-2.424 -0.12,-0.024 -0.312,-0.072 -0.408,-0.096 -0.096,-0.024 -0.528,-0.168 -0.96,-0.288 -0.432,-0.144 -1.008,-0.288 -1.272,-0.336 -0.264,-0.048 -1.296,-0.312 -2.28,-0.576 -0.984,-0.288 -2.4,-0.648 -3.12,-0.792 -0.72,-0.144 -1.368,-0.336 -1.44,-0.408 -0.072,-0.072 -0.384,-0.168 -0.72,-0.216 -0.336,-0.024 -0.768,-0.12 -0.96,-0.192 -0.192,-0.096 -0.648,-0.192 -1.008,-0.24 -0.336,-0.048 -1.104,-0.24 -1.68,-0.456 -0.576,-0.192 -1.488,-0.408 -2.016,-0.48 -0.504,-0.096 -1.536,-0.336 -2.256,-0.528 -0.72,-0.216 -1.488,-0.432 -1.68,-0.456 -1.152,-0.168 -8.544,-2.16 -8.592,-2.328 -0.048,-0.096 -0.168,-0.12 -0.264,-0.072 -0.168,0.12 -4.872,-1.008 -5.784,-1.368 -0.192,-0.072 -0.624,-0.192 -0.96,-0.24 -0.336,-0.072 -1.08,-0.264 -1.68,-0.408 -0.6,-0.144 -1.248,-0.312 -1.44,-0.36 -0.912,-0.192 -6.408,-1.608 -6.72,-1.728 -0.192,-0.072 -0.576,-0.168 -0.864,-0.192 -0.264,-0.048 -0.96,-0.216 -1.56,-0.36 -0.576,-0.168 -1.08,-0.288 -1.104,-0.288 -0.048,0.024 -0.408,-0.096 -0.84,-0.216 -1.968,-0.6 -7.896,-2.112 -8.808,-2.256 -0.456,-0.072 -0.936,-0.216 -1.08,-0.288 -0.144,-0.096 -0.432,-0.192 -0.624,-0.24 -1.128,-0.168 -2.016,-0.36 -2.376,-0.552 -0.336,-0.192 -2.184,-0.648 -4.272,-1.08 -0.888,-0.168 -1.032,-0.504 -0.336,-0.72 0.264,-0.072 0.864,-0.408 1.368,-0.744 0.48,-0.336 1.464,-0.912 2.16,-1.296 0.696,-0.36 1.584,-0.864 1.944,-1.128 1.104,-0.72 1.584,-1.008 2.76,-1.632 0.624,-0.312 1.176,-0.696 1.272,-0.84 0.096,-0.144 0.24,-0.192 0.36,-0.12 0.312,0.192 1.68,-1.176 1.488,-1.488 -0.144,-0.216 -0.408,-0.144 -1.056,0.24 z"
     inkscape:connector-curvature="0" />
  <path
     style="fill:#000000;stroke:none"
     id="path3142"
     d="m 57.70043,145.10262 c -0.6,0.12 -2.016,0.336 -3.168,0.48 -2.184,0.288 -2.544,0.528 -1.512,1.008 0.768,0.336 0.768,0.576 -0.048,0.864 -0.384,0.144 -2.04,0.864 -3.72,1.584 -1.704,0.744 -3.264,1.344 -3.528,1.344 -0.528,0 -0.744,-0.624 -0.744,-2.256 0,-0.648 -0.072,-1.128 -0.144,-1.032 -0.072,0.072 -0.144,0.888 -0.144,1.776 0.024,1.416 -0.072,1.704 -0.6,2.28 -0.84,0.888 -0.6,1.632 0.576,1.632 0.672,0 1.032,-0.192 1.656,-0.864 0.456,-0.456 1.536,-1.176 2.424,-1.584 0.912,-0.384 2.28,-1.032 3.072,-1.392 2.088,-0.96 3.144,-1.248 3.912,-1.104 0.552,0.144 0.84,-0.024 2.04,-1.2 1.272,-1.272 1.632,-1.824 1.2,-1.752 -0.12,0.024 -0.672,0.12 -1.272,0.216 z"
     inkscape:connector-curvature="0" />
  <path
     style="fill:#000000;stroke:none"
     id="path3228"
     d="m 54.10043,196.75062 c -1.2,2.544 -1.128,4.008 0.312,6.384 0.696,1.176 0.72,0.792 0.048,-0.864 -0.768,-1.896 -0.768,-3.24 0.024,-5.208 0.84,-2.088 0.552,-2.304 -0.384,-0.312 z"
     inkscape:connector-curvature="0" />
  <path
     style="fill:#000000;stroke:none"
     id="path3230"
     d="m 62.40443,196.12662 c 0.096,0.384 0.264,0.768 0.384,0.84 0.72,0.456 0.648,5.016 -0.072,5.016 -0.12,0 -0.144,0.144 -0.072,0.312 0.072,0.192 -0.048,0.48 -0.264,0.648 -0.456,0.384 -0.48,0.984 -0.024,0.816 0.552,-0.216 1.632,-2.952 1.68,-4.272 0.048,-1.248 -0.672,-3.144 -1.464,-3.792 -0.288,-0.24 -0.312,-0.168 -0.168,0.432 z"
     inkscape:connector-curvature="0" />
  <path
     style="fill:#000000;stroke:none"
     id="path3232"
     d="m 57.50843,198.76662 c -0.72,0.696 -0.792,0.888 -0.72,1.92 0.072,1.296 0.6,1.848 1.368,1.368 0.288,-0.192 0.528,-0.192 0.696,-0.024 0.144,0.144 0.384,0.168 0.696,0 0.6,-0.336 1.416,-1.248 1.08,-1.248 -0.144,0 -0.336,0.096 -0.408,0.24 -0.384,0.624 -0.504,0.12 -0.216,-1.008 0.528,-1.992 0.48,-2.088 -0.672,-2.04 -0.792,0.024 -1.2,0.216 -1.824,0.792 z m 1.752,-0.168 c 0.216,0.36 -0.264,2.184 -0.72,2.664 -0.6,0.672 -1.08,0.36 -0.912,-0.552 0.072,-0.432 0.216,-0.816 0.288,-0.888 0.072,-0.072 0.168,-0.288 0.216,-0.48 0.168,-0.768 0.84,-1.2 1.128,-0.744 z"
     inkscape:connector-curvature="0" />
  <path
     style="fill:#000000;stroke:none"
     id="path3234"
     d="m 135.74843,205.58262 c -0.504,0.48 -0.696,0.96 -0.384,0.96 0.096,0 0.312,-0.192 0.48,-0.432 0.264,-0.384 0.312,-0.36 0.552,0.264 0.144,0.384 0.264,0.816 0.264,0.96 -0.024,0.504 -0.576,1.056 -1.296,1.224 -0.552,0.144 -0.648,0.216 -0.36,0.408 0.576,0.36 1.224,0.24 1.344,-0.24 0.12,-0.432 0.144,-0.432 0.648,0.144 0.456,0.528 0.624,0.576 1.032,0.36 0.528,-0.288 0.936,-1.008 0.552,-1.008 -0.12,0 -0.288,0.096 -0.36,0.24 -0.312,0.504 -0.552,0.216 -0.72,-0.864 -0.168,-1.224 0.12,-1.8 0.816,-1.608 0.576,0.144 0.888,-0.6 0.336,-0.816 -0.24,-0.096 -0.552,0.048 -0.816,0.36 -0.48,0.6 -0.696,0.672 -0.696,0.192 0,-0.192 -0.168,-0.408 -0.384,-0.48 -0.48,-0.192 -0.408,-0.216 -1.008,0.336 z"
     inkscape:connector-curvature="0" />
  <path
     style="fill:#000000;stroke:none"
     id="path3236"
     d="m 15.12443,221.92662 c -0.576,0.456 -0.912,1.128 -0.384,0.816 0.144,-0.096 0.216,0.408 0.168,1.368 -0.048,1.416 -0.024,1.512 0.504,1.584 0.312,0.048 0.72,-0.048 0.912,-0.192 0.264,-0.24 0.336,-0.216 0.336,0.048 0,0.192 -0.072,0.432 -0.168,0.528 -0.12,0.096 -0.216,0.288 -0.216,0.408 -0.024,0.12 -0.048,0.312 -0.072,0.456 -0.048,0.384 -0.672,0.288 -0.84,-0.12 -0.192,-0.552 -0.672,-0.432 -0.576,0.168 0.048,0.288 0.264,0.528 0.552,0.576 1.08,0.168 1.944,-1.008 2.664,-3.576 0.6,-2.184 0.6,-2.136 0.024,-2.04 -0.384,0.048 -0.552,0.312 -0.696,1.032 -0.192,0.984 -1.104,2.28 -1.608,2.28 -0.336,0 -0.36,-1.104 -0.024,-1.32 0.144,-0.072 0.24,-0.408 0.24,-0.744 0,-0.312 0.096,-0.576 0.216,-0.576 0.24,0 0.072,-0.912 -0.216,-1.08 -0.096,-0.072 -0.456,0.12 -0.816,0.384 z"
     inkscape:connector-curvature="0" />
  <path
     style="fill:#000000;stroke:none"
     id="path3238"
     d="m 15.91643,229.46262 c -0.072,0.072 -0.096,8.304 -0.072,18.288 0.192,45 0.312,82.92 0.36,101.784 0.048,14.232 0.144,20.52 0.312,20.64 0.336,0.192 0.888,0.312 1.344,0.288 0.744,-0.024 2.112,-0.024 26.16,0.12 13.536,0.072 32.64,0.144 42.48,0.168 12.816,0 17.928,0.096 18.048,0.288 0.144,0.192 0.192,0.192 0.192,-0.024 0,-0.216 2.544,-0.264 11.112,-0.192 10.56,0.096 37.248,0.192 38.16,0.144 0.624,-0.024 0.504,-0.744 -0.12,-0.744 -0.312,0 -2.88,-0.048 -5.712,-0.072 l -5.16,-0.048 -0.048,-11.52 c -0.024,-6.336 -0.12,-33.384 -0.192,-60.12 -0.072,-26.712 -0.168,-48.6 -0.192,-48.624 -0.072,-0.048 -44.016,-0.288 -84.408,-0.48 -16.968,-0.072 -33.144,-0.144 -35.952,-0.192 -4.512,-0.072 -5.784,0.024 -5.16,0.408 0.264,0.168 34.128,0.384 83.352,0.552 22.896,0.072 41.664,0.168 41.712,0.216 0.24,0.216 0.432,119.232 0.168,119.64 -0.144,0.24 -5.904,0.288 -27.696,0.144 -15.12,-0.072 -41.808,-0.192 -59.304,-0.264 -28.128,-0.12 -38.112,-0.24 -38.304,-0.432 -0.048,-0.024 -0.144,-29.496 -0.24,-65.448 -0.192,-78.168 -0.168,-74.472 -0.48,-74.568 -0.144,-0.048 -0.312,-0.024 -0.36,0.048 z"
     inkscape:connector-curvature="0" />
  <path
     style="fill:#000000;stroke:none"
     id="path3240"
     d="m 99.55643,255.04662 c -0.168,0.192 -1.272,2.232 -2.472,4.536 -1.2,2.304 -3.168,6.12 -4.392,8.448 -1.536,2.976 -2.328,4.272 -2.616,4.272 -0.312,0 -0.48,0.36 -0.696,1.68 -0.144,0.912 -0.24,1.8 -0.192,1.944 0.144,0.408 2.232,-2.472 2.16,-2.952 -0.072,-0.432 3.672,-8.04 6.72,-13.68 1.152,-2.136 1.872,-3.744 1.824,-4.056 -0.048,-0.432 -0.12,-0.48 -0.336,-0.192 z"
     inkscape:connector-curvature="0" />
  <path
     style="fill:#000000;stroke:none"
     id="path3242"
     d="m 65.88443,256.75062 c -3.096,6.936 -3.216,7.152 -3.648,7.152 -0.36,0 -0.456,0.192 -0.456,0.888 0,0.504 -0.12,1.344 -0.24,1.872 -0.24,1.056 -0.072,1.44 0.336,0.744 0.144,-0.264 0.696,-0.936 1.2,-1.536 0.744,-0.816 0.888,-1.08 0.624,-1.248 -0.264,-0.168 0.024,-1.056 1.512,-4.512 1.008,-2.376 1.848,-4.416 1.848,-4.584 0,-0.72 -0.576,-0.12 -1.176,1.224 z"
     inkscape:connector-curvature="0" />
  <path
     style="fill:#000000;stroke:none"
     id="path3244"
     d="m 39.22043,256.63062 c 0,0.12 0.192,0.504 0.456,0.912 3.384,5.496 3.648,6 3.528,6.504 -0.096,0.384 0.024,0.624 0.432,0.912 0.336,0.192 0.984,0.768 1.44,1.248 0.48,0.504 0.864,0.792 0.864,0.672 0,-0.12 -0.24,-1.008 -0.528,-1.944 -0.408,-1.32 -0.624,-1.728 -0.912,-1.656 -0.36,0.12 -0.816,-0.528 -3.696,-5.088 -0.96,-1.512 -1.584,-2.136 -1.584,-1.56 z"
     inkscape:connector-curvature="0" />
  <path
     style="fill:#000000;stroke:none"
     id="path3246"
     d="m 129.02843,257.83062 c -0.12,0.24 -0.528,1.728 -0.888,3.312 -1.368,6.096 -2.328,9.6 -2.64,9.864 -0.264,0.192 -0.288,0.6 -0.096,2.016 0.12,0.96 0.264,1.8 0.336,1.872 0.048,0.072 0.216,-0.192 0.36,-0.576 0.144,-0.384 0.48,-1.176 0.768,-1.752 0.408,-0.84 0.432,-1.08 0.168,-1.224 -0.264,-0.168 -0.264,-0.48 0,-1.776 0.168,-0.84 0.24,-1.68 0.144,-1.8 -0.072,-0.144 -0.048,-0.264 0.072,-0.264 0.192,0 1.728,-6 2.328,-9.048 0.168,-0.84 -0.216,-1.272 -0.552,-0.624 z"
     inkscape:connector-curvature="0" />
  <path
     style="fill:#000000;stroke:none"
     id="path3248"
     d="m 22.70843,269.95062 c 0.12,0.336 0.504,0.552 4.824,2.592 2.088,0.984 3.048,1.56 2.976,1.776 -0.096,0.24 0.336,0.384 1.512,0.6 2.472,0.408 2.544,0.36 1.032,-0.864 -0.768,-0.624 -1.44,-1.224 -1.488,-1.32 -0.024,-0.12 -0.192,-0.048 -0.36,0.168 -0.24,0.36 -0.72,0.192 -4.224,-1.416 -2.16,-1.008 -4.032,-1.824 -4.152,-1.824 -0.12,0 -0.168,0.144 -0.12,0.288 z"
     inkscape:connector-curvature="0" />
  <path
     style="fill:#000000;stroke:none"
     id="path3250"
     d="m 44.50043,272.85462 c 0,0.192 0.6,1.008 1.32,1.848 0.744,0.864 1.296,1.728 1.272,1.968 -0.048,0.312 0.408,0.696 1.584,1.392 0.912,0.528 1.704,0.912 1.776,0.864 0.048,-0.072 -0.12,-0.408 -0.384,-0.792 -0.24,-0.36 -0.696,-1.128 -0.984,-1.704 -0.408,-0.816 -0.6,-0.984 -0.84,-0.768 -0.264,0.192 -0.672,-0.12 -1.896,-1.44 -1.608,-1.728 -1.848,-1.92 -1.848,-1.368 z"
     inkscape:connector-curvature="0" />
  <path
     style="fill:#000000;stroke:none"
     id="path3252"
     d="m 62.98043,276.19062 c -0.912,0.984 -1.704,1.632 -1.92,1.56 -0.24,-0.048 -0.624,0.456 -1.248,1.68 -0.576,1.152 -0.768,1.752 -0.576,1.752 0.192,0 0.456,-0.168 0.624,-0.36 0.144,-0.192 0.768,-0.624 1.344,-0.96 0.624,-0.36 1.056,-0.792 1.056,-1.056 0,-0.216 0.648,-1.176 1.44,-2.088 0.792,-0.912 1.44,-1.8 1.44,-1.968 0,-0.6 -0.648,-0.168 -2.16,1.44 z"
     inkscape:connector-curvature="0" />
  <path
     style="fill:#000000;stroke:none"
     id="path3254"
     d="m 126.34043,281.78262 c -0.48,0.168 -1.32,0.384 -1.896,0.48 -0.552,0.096 -0.96,0.24 -0.864,0.312 0.072,0.072 0.936,0.36 1.92,0.648 1.44,0.408 1.8,0.456 1.896,0.192 0.096,-0.24 1.176,-0.312 5.064,-0.312 4.224,0 4.92,-0.048 4.92,-0.36 0,-0.312 -0.672,-0.36 -4.488,-0.36 -4.704,0 -5.52,-0.096 -5.64,-0.6 -0.048,-0.24 -0.24,-0.24 -0.912,0 z"
     inkscape:connector-curvature="0" />
  <path
     style="fill:#000000;stroke:none"
     id="path3256"
     d="m 89.74043,282.14262 c -0.648,0.24 -1.44,0.456 -1.728,0.456 -0.672,0.024 -0.744,0.504 -0.072,0.504 0.264,0 1.08,0.216 1.8,0.456 1.104,0.384 1.344,0.408 1.512,0.12 0.144,-0.264 1.296,-0.336 5.928,-0.384 4.944,-0.072 5.76,-0.12 5.76,-0.432 0,-0.312 -0.816,-0.36 -5.712,-0.432 -4.776,-0.048 -5.736,-0.12 -5.832,-0.408 -0.168,-0.408 -0.12,-0.432 -1.656,0.12 z"
     inkscape:connector-curvature="0" />
  <path
     style="fill:#000000;stroke:none"
     id="path3258"
     d="m 57.24443,287.37462 c 0.048,0.144 0.48,0.888 0.936,1.704 0.576,0.984 0.96,1.416 1.224,1.344 0.216,-0.072 1.008,0.552 2.112,1.68 1.68,1.728 2.184,2.088 2.184,1.56 0,-0.24 -2.688,-3.456 -3.12,-3.72 -0.144,-0.096 -0.216,-0.336 -0.144,-0.552 0.096,-0.312 -0.288,-0.648 -1.56,-1.32 -0.936,-0.504 -1.68,-0.816 -1.632,-0.696 z"
     inkscape:connector-curvature="0" />
  <path
     style="fill:#000000;stroke:none"
     id="path3260"
     d="m 51.48443,288.23862 c -0.168,0.192 -0.84,0.696 -1.488,1.128 -0.84,0.528 -1.152,0.864 -1.056,1.152 0.072,0.264 -0.36,0.984 -1.224,2.04 -1.032,1.248 -1.272,1.704 -1.056,1.896 0.216,0.216 0.384,0.144 0.768,-0.312 1.536,-1.896 2.376,-2.688 2.712,-2.544 0.24,0.072 0.432,-0.024 0.528,-0.288 0.072,-0.216 0.408,-1.032 0.744,-1.8 0.6,-1.368 0.624,-1.944 0.072,-1.272 z"
     inkscape:connector-curvature="0" />
  <path
     style="fill:#000000;stroke:none"
     id="path3262"
     d="m 34.06043,290.61462 c -0.912,0.144 -1.776,0.384 -1.92,0.576 -0.12,0.168 -2.064,0.96 -4.32,1.776 -4.296,1.56 -4.68,1.752 -4.296,2.136 0.144,0.144 0.96,-0.048 2.376,-0.624 1.2,-0.456 2.712,-0.984 3.36,-1.176 0.672,-0.192 1.656,-0.48 2.232,-0.648 0.864,-0.24 1.08,-0.24 1.248,0.048 0.168,0.264 0.36,0.168 1.032,-0.408 0.456,-0.408 1.176,-0.936 1.584,-1.176 0.672,-0.408 1.008,-0.864 0.576,-0.768 -0.12,0 -0.936,0.144 -1.872,0.264 z"
     inkscape:connector-curvature="0" />
  <path
     style="fill:#000000;stroke:none"
     id="path3264"
     d="m 105.07643,296.47062 c 0.024,1.488 0.096,1.872 0.384,1.872 0.264,0 0.768,1.752 2.088,7.44 0.96,4.08 1.728,7.656 1.752,7.944 0,0.264 0.144,0.696 0.336,0.96 0.336,0.432 0.36,0.432 0.528,0.024 0.144,-0.408 -0.36,-2.784 -2.928,-13.944 -0.408,-1.752 -0.48,-2.472 -0.288,-2.712 0.192,-0.24 0.096,-0.552 -0.336,-1.224 -0.312,-0.48 -0.696,-1.176 -0.864,-1.56 -0.48,-1.104 -0.696,-0.72 -0.672,1.2 z"
     inkscape:connector-curvature="0" />
  <path
     style="fill:#000000;stroke:none"
     id="path3266"
     d="m 128.02043,303.86262 c 0,2.304 -0.024,2.16 0.36,2.088 0.36,-0.072 0.288,-0.312 1.704,6.024 0.576,2.664 1.272,5.76 1.536,6.888 0.264,1.128 0.552,2.28 0.6,2.568 0.144,0.648 0.84,0.744 0.84,0.12 0,-0.216 -0.168,-1.056 -0.36,-1.848 -1.512,-6.168 -3,-13.296 -2.904,-13.8 0.12,-0.6 -1.2,-3.792 -1.584,-3.816 -0.12,-0.024 -0.192,0.792 -0.192,1.776 z"
     inkscape:connector-curvature="0" />
  <path
     style="fill:#000000;stroke:none"
     id="path3268"
     d="m 41.02043,305.51862 c -0.648,0.672 -1.176,1.392 -1.128,1.608 0.072,0.384 -0.768,1.896 -4.248,7.728 -1.392,2.328 -1.92,3.408 -1.752,3.576 0.264,0.264 0.768,-0.48 4.032,-5.904 2.256,-3.744 2.952,-4.728 3.384,-4.656 0.264,0.048 0.48,-0.384 0.792,-1.608 0.672,-2.52 0.672,-2.52 -1.08,-0.744 z"
     inkscape:connector-curvature="0" />
  <path
     style="fill:#000000;stroke:none"
     id="path3270"
     d="m 31.18043,307.41462 c -0.264,0.192 -0.984,0.528 -1.608,0.768 -0.768,0.288 -1.152,0.552 -1.152,0.84 0,0.384 -4.536,4.584 -5.784,5.352 -0.24,0.168 -0.456,0.408 -0.456,0.576 0,0.744 1.032,0.12 3.72,-2.208 2.256,-1.968 3,-2.496 3.408,-2.4 0.384,0.096 0.624,-0.024 0.816,-0.408 0.168,-0.312 0.6,-0.96 0.984,-1.44 0.792,-1.008 0.816,-1.584 0.072,-1.08 z"
     inkscape:connector-curvature="0" />
  <path
     style="fill:#000000;stroke:none"
     id="path3272"
     d="m 49.58843,309.40662 c -0.432,0.576 -0.768,1.152 -0.768,1.248 0,0.096 -0.288,0.6 -0.624,1.104 l -0.648,0.936 0.576,0.432 c 0.456,0.36 0.528,0.528 0.312,0.864 -0.144,0.24 -1.056,3.288 -2.016,6.768 -1.608,5.736 -1.872,6.432 -2.568,7.152 -0.456,0.432 -0.792,1.032 -0.792,1.344 0,0.744 0.696,1.368 1.512,1.368 0.792,0 1.68,-0.84 1.512,-1.392 -0.432,-1.464 -0.36,-1.872 1.032,-6.792 0.816,-2.832 1.56,-5.472 1.68,-5.856 0.12,-0.408 0.36,-1.176 0.504,-1.752 0.216,-0.84 0.36,-1.008 0.84,-1.008 l 0.6,0 0,-2.616 c 0,-1.464 -0.096,-2.688 -0.192,-2.76 -0.12,-0.072 -0.552,0.36 -0.96,0.96 z"
     inkscape:connector-curvature="0" />
  <path
     style="fill:#000000;stroke:none"
     id="path3274"
     d="m 82.37243,309.67062 c -0.216,0.432 0.432,3.84 0.672,3.744 0.288,-0.096 1.776,3.336 4.08,9.408 3.768,9.864 5.136,12.864 5.136,11.232 0,-0.264 -1.08,-3.168 -2.376,-6.456 -6.072,-15.288 -5.808,-14.544 -5.304,-14.856 0.144,-0.096 0.12,-0.264 -0.072,-0.48 -0.192,-0.168 -0.672,-0.864 -1.104,-1.536 -0.816,-1.272 -0.888,-1.344 -1.032,-1.056 z"
     inkscape:connector-curvature="0" />
  <path
     style="fill:#000000;stroke:none"
     id="path3276"
     d="m 65.04443,314.90262 c 0.096,1.344 0.264,2.016 0.552,2.232 0.216,0.168 1.2,2.76 2.184,5.736 0.984,3 1.944,5.496 2.112,5.544 0.48,0.144 0.36,-0.456 -1.008,-4.68 -1.896,-5.856 -2.136,-6.792 -1.848,-7.128 0.168,-0.192 -0.072,-0.72 -0.816,-1.8 -0.6,-0.84 -1.128,-1.584 -1.2,-1.68 -0.096,-0.072 -0.072,0.72 0.024,1.776 z"
     inkscape:connector-curvature="0" />
  <path
     style="fill:#000000;stroke:none"
     id="path3288"
     d="m 111.10043,333.16662 c -0.12,1.32 -0.096,1.896 0.12,2.016 0.312,0.192 0.648,1.512 2.544,10.296 0.72,3.36 1.368,6.192 1.44,6.312 0.264,0.408 0.576,0.168 0.576,-0.456 0,-0.336 -0.696,-3.792 -1.56,-7.632 -1.512,-6.768 -1.824,-9 -1.32,-9 0.144,0 -0.144,-0.768 -0.6,-1.68 -0.456,-0.936 -0.888,-1.68 -0.936,-1.68 -0.048,0 -0.168,0.816 -0.264,1.824 z"
     inkscape:connector-curvature="0" />
  <path
     style="fill:#000000;stroke:none"
     id="path3294"
     d="m 134.50043,338.11062 c 0,0.576 -0.072,1.44 -0.144,1.92 -0.12,0.744 -0.096,0.912 0.24,0.912 0.456,0 0.432,-0.072 1.344,6 0.408,2.712 0.84,5.016 0.96,5.136 0.528,0.528 0.48,-0.864 -0.216,-5.304 -0.816,-5.136 -0.864,-6 -0.504,-6.12 0.264,-0.072 -1.2,-3.552 -1.488,-3.552 -0.12,0 -0.192,0.456 -0.192,1.008 z"
     inkscape:connector-curvature="0" />
  <path
     style="fill:#000000;stroke:none"
     id="path3296"
     d="m 82.90043,339.91062 c 0,0.096 0.24,0.96 0.528,1.92 0.456,1.416 0.624,1.704 0.96,1.608 0.336,-0.096 0.744,0.384 1.776,1.992 1.392,2.16 3.384,5.232 6.96,10.752 1.104,1.704 2.016,3.24 2.016,3.384 0,0.36 1.104,1.536 1.44,1.536 0.12,0 0.24,-0.12 0.24,-0.288 0,-0.36 -0.144,-0.6 -7.656,-12.168 -2.304,-3.552 -3.6,-5.736 -3.504,-6 0.072,-0.264 -0.336,-0.792 -1.32,-1.656 -0.792,-0.696 -1.44,-1.2 -1.44,-1.08 z"
     inkscape:connector-curvature="0" />
  <path
     style="fill:#000000;stroke:none"
     id="path3298"
     d="m 53.62043,341.78262 c 0,0.096 0.432,0.816 0.96,1.608 0.528,0.792 0.96,1.536 0.96,1.656 0,0.12 0.168,0.144 0.36,0.072 0.432,-0.168 1.248,0.552 6.96,6.144 6.072,5.904 6.816,6.6 7.08,6.336 0.168,-0.168 -1.968,-2.4 -6.384,-6.696 -4.968,-4.848 -6.576,-6.552 -6.504,-6.888 0.096,-0.336 -0.12,-0.552 -0.792,-0.888 -0.504,-0.24 -1.32,-0.672 -1.776,-0.984 -0.48,-0.288 -0.864,-0.432 -0.864,-0.36 z"
     inkscape:connector-curvature="0" />
  <path
     style="fill:#000000;stroke:none"
     id="path3300"
     d="m 41.50043,343.41462 c -0.432,0.864 -0.696,1.776 -0.648,2.208 0.024,0.384 -0.312,2.232 -0.768,4.08 -0.456,1.944 -0.72,3.456 -0.6,3.576 0.12,0.12 0.264,0.168 0.336,0.096 0.096,-0.072 0.528,-1.584 0.96,-3.336 1.104,-4.368 1.104,-4.296 1.464,-4.296 0.264,0 0.336,-0.456 0.336,-1.92 0,-1.056 -0.072,-1.92 -0.168,-1.92 -0.12,0 -0.504,0.672 -0.912,1.512 z"
     inkscape:connector-curvature="0" />
  <path
     style="fill:#000000;stroke:none"
     id="path3302"
     d="m 27.12443,343.43862 c -0.888,0.792 -1.32,1.344 -1.152,1.44 0.288,0.168 -0.24,1.248 -2.352,4.704 -1.272,2.088 -1.488,2.568 -1.224,2.736 0.312,0.192 0.744,-0.432 2.64,-3.648 1.344,-2.304 1.848,-2.952 2.16,-2.856 0.36,0.072 0.528,-0.24 0.96,-1.704 0.288,-0.984 0.504,-1.824 0.456,-1.848 -0.048,-0.048 -0.72,0.504 -1.488,1.176 z"
     inkscape:connector-curvature="0" />
  <path
     style="fill:#000000;stroke:none"
     id="path3304"
     d="m 125.26043,358.15062 c 0.168,0.648 0.36,1.416 0.408,1.752 0.048,0.384 0.216,0.576 0.432,0.552 0.24,-0.048 0.96,1.032 2.16,3.288 1.632,3.024 2.4,3.984 2.4,3 0,-0.216 -0.744,-1.752 -1.68,-3.456 -1.704,-3.12 -1.896,-3.624 -1.392,-3.624 0.168,0 -0.288,-0.6 -1.008,-1.32 -0.72,-0.72 -1.392,-1.32 -1.488,-1.32 -0.096,0 -0.024,0.504 0.168,1.128 z"
     inkscape:connector-curvature="0" />
  <path
     style="fill:#000000;stroke:none"
     id="path3306"
     d="m 156.46043,369.02262 c -0.384,0.384 -0.576,0.72 -0.432,0.72 0.144,0 0.336,-0.192 0.408,-0.408 0.12,-0.288 0.216,-0.336 0.432,-0.12 0.672,0.672 0.456,2.448 -0.288,2.448 -0.648,0 -0.816,0.408 -0.288,0.696 0.384,0.192 0.504,0.144 0.72,-0.336 0.168,-0.336 0.408,-0.6 0.552,-0.6 0.168,0 0.216,0.072 0.144,0.144 -0.192,0.192 0.24,1.056 0.528,1.056 0.12,0 0.456,-0.216 0.768,-0.504 l 0.576,-0.48 -0.576,0.168 c -0.36,0.096 -0.504,0.048 -0.408,-0.096 0.072,-0.144 0.048,-0.288 -0.072,-0.336 -0.12,-0.024 -0.264,-0.432 -0.312,-0.888 -0.072,-0.792 0.096,-1.032 1.056,-1.32 0.552,-0.168 0.288,-0.84 -0.312,-0.792 -0.24,0.024 -0.528,0.24 -0.6,0.48 -0.144,0.432 -0.168,0.432 -0.6,-0.048 -0.264,-0.288 -0.504,-0.504 -0.552,-0.504 -0.024,0 -0.36,0.312 -0.744,0.72 z"
     inkscape:connector-curvature="0" />
  <path
     style="fill:#000000;stroke:none"
     id="path3308"
     d="m 53.26043,388.27062 c -0.672,1.488 -1.008,4.128 -0.576,4.416 0.12,0.072 0.216,0.288 0.216,0.48 0,0.432 1.152,2.016 1.464,2.016 0.12,0 -0.072,-0.504 -0.432,-1.152 -0.84,-1.536 -0.912,-4.2 -0.12,-5.856 0.576,-1.248 0.624,-1.392 0.312,-1.392 -0.096,0 -0.504,0.672 -0.864,1.488 z"
     inkscape:connector-curvature="0" />
  <path
     style="fill:#000000;stroke:none"
     id="path3310"
     d="m 56.59643,387.07062 c -0.12,0.192 -0.096,0.216 0.456,0.288 0.144,0.024 0.264,0.144 0.24,0.264 -0.048,0.36 -0.336,1.824 -0.552,2.88 -0.456,2.304 -0.528,3 -0.336,3.048 0.768,0.12 2.688,0.072 2.592,-0.072 -0.048,-0.096 0.096,-0.24 0.36,-0.336 0.432,-0.12 0.888,-1.008 1.128,-2.184 0.048,-0.312 -0.12,-0.696 -0.456,-1.032 l -0.576,-0.504 -0.84,0.552 c -0.912,0.624 -0.912,0.672 -0.576,-1.272 0.12,-0.6 0.312,-1.224 0.432,-1.392 0.288,-0.336 0.312,-0.336 -0.84,-0.408 -0.504,-0.024 -0.96,0.048 -1.032,0.168 z m 2.832,3.792 c -0.024,0.336 -0.12,0.768 -0.216,0.96 -0.192,0.432 -0.24,0.648 -0.288,0.984 0,0.144 -0.192,0.192 -0.408,0.12 -0.192,-0.072 -0.288,-0.048 -0.216,0.096 0.072,0.144 -0.12,0.24 -0.456,0.24 -0.696,0 -0.768,-0.312 -0.36,-1.368 0.576,-1.536 2.088,-2.328 1.944,-1.032 z"
     inkscape:connector-curvature="0" />
  <path
     style="fill:#000000;stroke:none"
     id="path3312"
     d="m 62.50043,387.74262 c 0.264,0.552 0.432,1.104 0.336,1.248 -0.096,0.144 -0.072,0.192 0.072,0.12 0.144,-0.096 0.312,0.072 0.384,0.336 0.192,0.768 -0.024,3.192 -0.288,3.288 -0.12,0.048 -0.192,0.216 -0.12,0.384 0.072,0.192 -0.024,0.48 -0.192,0.648 -0.168,0.192 -0.336,0.456 -0.36,0.576 -0.024,0.144 -0.12,0.456 -0.216,0.72 -0.168,0.408 -0.144,0.432 0.192,0.168 0.552,-0.432 1.584,-2.64 1.704,-3.648 0.12,-0.84 -0.24,-3.144 -0.528,-3.36 -0.096,-0.072 -0.336,-0.408 -0.576,-0.792 -0.648,-1.008 -0.96,-0.768 -0.408,0.312 z"
     inkscape:connector-curvature="0" />
  <path
     style="color:#000000;fill:none;stroke:#000000;stroke-width:1.25;stroke-linecap:butt;stroke-linejoin:miter;stroke-miterlimit:4;stroke-opacity:1;stroke-dasharray:3.75,3.75;stroke-dashoffset:0;marker:none;visibility:visible;display:inline;overflow:visible;enable-background:accumulate"
     d="m 55.574053,188.44729 0,-120.775112"
     id="path3150"
     inkscape:connector-curvature="0"
     transform="matrix(0.79999998,0,0,0.79999998,-1.3344604e-6,0)" />
  <path
     style="color:#000000;fill:none;stroke:#000000;stroke-width:1;stroke-linecap:butt;stroke-linejoin:miter;stroke-miterlimit:4;stroke-opacity:1;stroke-dasharray:2.99999993, 2.99999993;stroke-dashoffset:0;marker:none;visibility:visible;display:inline;overflow:visible;enable-background:accumulate"
     d="m 160.33333,141.65593 0,-66.163751"
     id="path3150-2"
     inkscape:connector-curvature="0"
     sodipodi:nodetypes="cc" />
  <path
     style="color:#000000;fill:none;stroke:#000000;stroke-width:1;stroke-linecap:butt;stroke-linejoin:miter;stroke-miterlimit:4;stroke-opacity:1;stroke-dasharray:2.99999993, 2.99999993;stroke-dashoffset:0;marker:none;visibility:visible;display:inline;overflow:visible;enable-background:accumulate"
     d="m 98.020374,194.16685 0,-77.36608"
     id="path3150-3"
     inkscape:connector-curvature="0"
     sodipodi:nodetypes="cc" />
  <path
     style="color:#000000;fill:#ffffff;fill-opacity:1;stroke:#000000;stroke-width:1.25;stroke-linecap:butt;stroke-linejoin:miter;stroke-miterlimit:4;stroke-opacity:1;stroke-dasharray:none;stroke-dashoffset:0;marker:none;visibility:visible;display:inline;overflow:visible;enable-background:accumulate"
     d="m 6.1782512,206.9939 c -0.2443262,-0.1466 -15.3649163,-4.631 -15.3649163,-4.631 l 8.50255174,-4.93539 3.72707586,-1.93386"
     id="path3945"
     inkscape:connector-curvature="0"
     sodipodi:nodetypes="cccc"
     transform="matrix(0.79999998,0,0,0.79999998,-1.3344604e-6,0)" />
  <path
     style="color:#000000;fill:#888888;fill-opacity:1;stroke:#000000;stroke-width:1.25;stroke-linecap:butt;stroke-linejoin:miter;stroke-miterlimit:4;stroke-opacity:1;stroke-dasharray:none;stroke-dashoffset:0;marker:none;visibility:visible;display:inline;overflow:visible;enable-background:accumulate"
     d="m 1.048814,74.808292 -8.3905123,3.034069 7.97847825,0.674238"
     id="path3947"
     inkscape:connector-curvature="0"
     sodipodi:nodetypes="ccc"
     transform="matrix(0.79999998,0,0,0.79999998,-1.3344604e-6,0)" />
  <path
     style="color:#000000;fill:none;stroke:#000000;stroke-width:1;stroke-linecap:butt;stroke-linejoin:miter;stroke-miterlimit:4;stroke-opacity:1;stroke-dasharray:none;stroke-dashoffset:0;marker:none;visibility:visible;display:inline;overflow:visible;enable-background:accumulate"
     d="m -8.1196556,161.97923 0,-149.172268"
     id="path3949"
     inkscape:connector-curvature="0" />
  <text
     xml:space="preserve"
     style="font-size:11.30000019px;font-style:italic;font-variant:normal;font-weight:bold;font-stretch:normal;text-indent:0;text-align:start;text-decoration:none;line-height:125%;letter-spacing:0px;word-spacing:0px;text-transform:none;direction:ltr;block-progression:tb;writing-mode:lr-tb;text-anchor:start;baseline-shift:baseline;color:#000000;fill:#000000;fill-opacity:1;fill-rule:nonzero;stroke:none;stroke-width:0.99999994px;marker:none;visibility:visible;display:inline;overflow:visible;enable-background:accumulate;font-family:Linux Libertine O;-inkscape-font-specification:Sans Italic"
     x="-3.6757104"
     y="37.17989"
     id="text3951"
     sodipodi:linespacing="125%"
     transform="matrix(0.79999998,0,0,0.79999998,-1.3344604e-6,0)"><tspan
       sodipodi:role="line"
       id="tspan3953"
       x="-3.6757104"
       y="37.17989">f<tspan
   style="font-style:normal;-inkscape-font-specification:Linux Libertine O Bold"
   id="tspan3955">(</tspan>x,y<tspan
   style="font-style:normal;-inkscape-font-specification:Linux Libertine O Bold"
   id="tspan3957">)</tspan></tspan></text>
  <rect
     style="fill:#b9b9b9;fill-opacity:1;stroke:none"
     id="rect3961"
     width="6.0524387"
     height="230.66516"
     x="-2.6899738"
     y="169.74986" />
  <rect
     style="fill:#b9b9b9;fill-opacity:1;stroke:none"
     id="rect3961-1"
     width="6.0524387"
     height="92.057335"
     x="-3.0262208"
     y="63.366024" />
  <path
     style="color:#000000;fill:#b9b9b9;stroke:none;stroke-width:1.25000000000000000;stroke-linecap:butt;stroke-linejoin:miter;stroke-miterlimit:4;stroke-opacity:1;stroke-dasharray:none;stroke-dashoffset:0;marker:none;visibility:visible;display:inline;overflow:visible;enable-background:accumulate;fill-opacity:1"
     d="m 1.6056989,195.54644 c -0.139626,0.0698 -3.5255562,1.85004 -3.5255562,1.85004 l 0.1047195,-4.2935 4.642564,-0.20944 z"
     id="path3981"
     inkscape:connector-curvature="0"
     transform="matrix(0.79999998,0,0,0.79999998,-1.3344604e-6,0)" />
  <path
     style="color:#000000;fill:#b9b9b9;stroke:none;stroke-width:1.25000000000000000;stroke-linecap:butt;stroke-linejoin:miter;stroke-miterlimit:4;stroke-opacity:1;stroke-dasharray:none;stroke-dashoffset:0;marker:none;visibility:visible;display:inline;overflow:visible;enable-background:accumulate;fill-opacity:1"
     d="m -0.97738191,205.45988 2.33873531,0.80285 c 0,0 0.9075689,8.34265 0.6632234,8.37756 -0.2443455,0.0349 -4.6425641,0.76794 -4.6425641,0.76794 z"
     id="path3983"
     inkscape:connector-curvature="0"
     transform="matrix(0.79999998,0,0,0.79999998,-1.3344604e-6,0)" />
  <text
     xml:space="preserve"
     style="font-size:9.03999996px;font-style:italic;font-variant:normal;font-weight:bold;font-stretch:normal;text-indent:0;text-align:start;text-decoration:none;line-height:125%;letter-spacing:0px;word-spacing:0px;text-transform:none;direction:ltr;block-progression:tb;writing-mode:lr-tb;text-anchor:start;baseline-shift:baseline;color:#000000;fill:#000000;fill-opacity:1;fill-rule:nonzero;stroke:none;stroke-width:0.99999994px;marker:none;visibility:visible;display:inline;overflow:visible;enable-background:accumulate;font-family:Linux Libertine O;-inkscape-font-specification:Sans Italic"
     x="17.36269"
     y="337.28653"
     id="text3985"
     sodipodi:linespacing="125%"><tspan
       sodipodi:role="line"
       id="tspan3987"
       x="17.36269"
       y="337.28653"><tspan
   style="font-style:normal;-inkscape-font-specification:Linux Libertine O Bold"
   id="tspan4001">(</tspan>x<tspan
   style="font-size:7.19999982000000038px;baseline-shift:sub;font-style:normal;-inkscape-font-specification:Linux Libertine O Bold"
   id="tspan3989">1</tspan>,y<tspan
   style="font-size:7.19999982px;baseline-shift:sub;font-style:normal;-inkscape-font-specification:Linux Libertine O Bold"
   id="tspan3993">1</tspan><tspan
   style="font-style:normal;-inkscape-font-specification:Linux Libertine O Bold"
   id="tspan4003">)</tspan></tspan></text>
  <text
     xml:space="preserve"
     style="font-size:8.64000034px;font-style:normal;font-variant:normal;font-weight:bold;font-stretch:normal;text-indent:0;text-align:end;text-decoration:none;line-height:125%;letter-spacing:0px;word-spacing:0px;text-transform:none;direction:ltr;block-progression:tb;writing-mode:lr-tb;text-anchor:end;baseline-shift:baseline;color:#000000;fill:#000000;fill-opacity:1;fill-rule:nonzero;stroke:none;stroke-width:0.99999994px;marker:none;visibility:visible;display:inline;overflow:visible;enable-background:accumulate;font-family:Linux Libertine O;-inkscape-font-specification:Sans"
     x="96.022522"
     y="155.79567"
     id="text4005"
     sodipodi:linespacing="125%"><tspan
       sodipodi:role="line"
       id="tspan4007"
       x="96.022522"
       y="155.79567">Direction of</tspan><tspan
       sodipodi:role="line"
       x="96.022522"
       y="166.59567"
       id="tspan4009">steepest slope</tspan></text>
  <text
     xml:space="preserve"
     style="font-size:9.03999996px;font-style:italic;font-variant:normal;font-weight:bold;font-stretch:normal;text-indent:0;text-align:start;text-decoration:none;line-height:125%;letter-spacing:0px;word-spacing:0px;text-transform:none;direction:ltr;block-progression:tb;writing-mode:lr-tb;text-anchor:start;baseline-shift:baseline;color:#000000;fill:#000000;fill-opacity:1;fill-rule:nonzero;stroke:none;stroke-width:0.99999994px;marker:none;visibility:visible;display:inline;overflow:visible;enable-background:accumulate;font-family:Linux Libertine O;-inkscape-font-specification:Sans Italic"
     x="17.320621"
     y="153.91107"
     id="text3985-4"
     sodipodi:linespacing="125%"><tspan
       sodipodi:role="line"
       id="tspan3987-7"
       x="17.320621"
       y="153.91107"><tspan
   style="font-style:normal;-inkscape-font-specification:Linux Libertine O Bold"
   id="tspan4001-0">(</tspan>x<tspan
   style="font-size:7.19999981px;font-style:normal;baseline-shift:sub;-inkscape-font-specification:Linux Libertine O Bold"
   id="tspan3989-8">1</tspan>,y<tspan
   style="font-size:7.19999981px;font-style:normal;baseline-shift:sub;-inkscape-font-specification:Linux Libertine O Bold"
   id="tspan3993-5">1</tspan><tspan
   style="font-style:normal;-inkscape-font-specification:Linux Libertine O Bold"
   id="tspan4003-8">)</tspan></tspan></text>
  <rect
     style="fill:#b9b9b9;fill-opacity:1;stroke:none"
     id="rect4048"
     width="8.5352144"
     height="9.047328"
     x="16.615217"
     y="276.13062"
     transform="matrix(0.79999998,0,0,0.79999998,-1.3344604e-6,0)" />
  <text
     xml:space="preserve"
     style="font-size:9.03999996px;font-style:italic;font-variant:normal;font-weight:bold;font-stretch:normal;text-indent:0;text-align:start;text-decoration:none;line-height:125%;letter-spacing:0px;word-spacing:0px;text-transform:none;direction:ltr;block-progression:tb;writing-mode:lr-tb;text-anchor:start;baseline-shift:baseline;color:#000000;fill:#000000;fill-opacity:1;fill-rule:nonzero;stroke:none;stroke-width:0.99999994px;marker:none;visibility:visible;display:inline;overflow:visible;enable-background:accumulate;font-family:Linux Libertine O;-inkscape-font-specification:Linux Libertine O Bold Italic"
     x="14.430202"
     y="225.32005"
     id="text4044"
     sodipodi:linespacing="125%"><tspan
       sodipodi:role="line"
       id="tspan4046"
       x="14.430202"
       y="225.32005">y</tspan></text>
</svg>
