<?xml version="1.0" encoding="UTF-8" standalone="no"?>
<svg
   xmlns:dc="http://purl.org/dc/elements/1.1/"
   xmlns:cc="http://creativecommons.org/ns#"
   xmlns:rdf="http://www.w3.org/1999/02/22-rdf-syntax-ns#"
   xmlns:svg="http://www.w3.org/2000/svg"
   xmlns="http://www.w3.org/2000/svg"
   xmlns:sodipodi="http://sodipodi.sourceforge.net/DTD/sodipodi-0.dtd"
   xmlns:inkscape="http://www.inkscape.org/namespaces/inkscape"
   version="1.0"
   width="189.120000pt"
   height="211.680000pt"
   viewBox="0 0 189.120000 211.680000"
   preserveAspectRatio="xMidYMid meet"
   id="svg2989"
   sodipodi:docname="black.svg">
  <defs
     id="defs3043" />
  <sodipodi:namedview
     pagecolor="#ffffff"
     bordercolor="#666666"
     borderopacity="1"
     objecttolerance="10"
     gridtolerance="10"
     guidetolerance="10"
     inkscape:pageopacity="0"
     inkscape:pageshadow="2"
     inkscape:window-width="1280"
     inkscape:window-height="996"
     id="namedview3041"
     showgrid="false"
     inkscape:zoom="2.0203321"
     inkscape:cx="123.9196"
     inkscape:cy="116.58708"
     inkscape:window-x="0"
     inkscape:window-y="0"
     inkscape:window-maximized="1"
     inkscape:current-layer="svg2989" />
  <metadata
     id="metadata2991">
Created by potrace 1.10, written by Peter Selinger 2001-2011
<rdf:RDF>
  <cc:Work
     rdf:about="">
    <dc:format>image/svg+xml</dc:format>
    <dc:type
       rdf:resource="http://purl.org/dc/dcmitype/StillImage" />
    <dc:title></dc:title>
  </cc:Work>
</rdf:RDF>
</metadata>
  <rect
     style="fill:#b9b9b9;fill-opacity:1;stroke:none"
     id="rect3882"
     width="78.215683"
     height="211.74805"
     x="-33.445786"
     y="-0.024425237" />
  <g
     style="fill:#b9b9b9;stroke:none"
     transform="matrix(0.024,0,0,-0.024,0,211.68)"
     id="g6">
    <path
       inkscape:connector-curvature="0"
       d="M 0,4410 0,0 l 3940,0 3940,0 0,4410 0,4410 -997,0 c -776,0 -1000,-3 -1012,-13 -12,-9 -13,-9 -7,1 4,6 3,12 -1,12 -5,0 -15,-6 -22,-12 -11,-10 -12,-10 -7,-1 6,10 -594,13 -2913,13 L 0,8820 0,4410 z m 6098,3311 c 23,-14 10,-46 -20,-49 -20,-2 -26,1 -24,15 1,18 16,42 26,42 3,1 11,-3 18,-8 z m -112,-67 c 27,-29 30,-47 10,-63 -16,-13 -67,-5 -78,13 -10,14 -10,60 -1,69 14,15 47,6 69,-19 z m -158,-72 c 8,-6 11,-26 10,-56 -3,-45 -4,-47 -28,-41 -14,3 -30,6 -37,7 -7,1 -11,4 -10,7 0,3 -3,17 -7,30 -13,38 37,74 72,53 z m -143,-100 c 11,-8 17,-72 6,-70 -3,1 -18,-2 -33,-6 -36,-11 -55,8 -50,51 4,30 7,33 36,33 17,0 36,-4 41,-8 z m -141,-133 c 10,-16 15,-36 13,-43 -8,-21 -59,-16 -85,7 l -22,21 22,23 c 29,31 50,29 72,-8 z m -136,-95 c 13,-4 22,-14 22,-25 0,-24 -38,-59 -66,-59 -32,0 -43,19 -32,58 9,33 26,39 76,26 z m -135,-128 c 25,-19 43,-76 27,-86 -13,-8 -78,4 -90,17 -14,14 -16,58 -3,58 7,0 18,6 25,13 15,15 19,15 41,-2 z m -82,-168 c 4,-6 0,-26 -8,-43 -16,-33 -39,-37 -70,-12 -19,14 -16,54 5,66 19,12 63,5 73,-11 z m -116,-138 c 20,0 23,-4 21,-45 -2,-49 -3,-50 -45,-42 -25,5 -29,11 -33,47 -4,45 -1,53 20,45 7,-3 24,-5 37,-5 z m -45,-190 c 23,-43 -17,-83 -60,-60 -19,10 -28,58 -13,73 15,15 63,6 73,-13 z m -66,-156 c 9,-8 16,-29 16,-45 0,-16 0,-32 1,-36 1,-8 -62,-5 -70,3 -2,2 -5,24 -6,49 -1,40 1,45 21,45 13,0 30,-7 38,-16 z m 0,-215 c 4,-24 2,-35 -11,-45 -24,-18 -37,-17 -63,4 -26,21 -21,58 8,65 46,12 59,7 66,-24 z m -8,-173 c 9,-37 -12,-68 -44,-64 -21,2 -28,9 -30,31 -5,43 4,57 37,57 24,0 32,-5 37,-24 z m 16,-182 c 16,-34 -1,-60 -36,-57 -27,2 -56,24 -56,42 0,14 41,41 62,41 10,0 24,-12 30,-26 z m 40,-188 c 16,-37 4,-56 -37,-56 -41,0 -53,19 -37,56 8,16 20,24 37,24 17,0 29,-8 37,-24 z m 46,-175 c 4,-41 -9,-56 -42,-47 -23,6 -26,12 -26,47 0,39 1,40 33,37 28,-3 32,-7 35,-37 z m 50,-135 c 29,-18 5,-78 -35,-88 -28,-8 -37,5 -38,57 0,39 1,40 31,39 17,-1 36,-4 42,-8 z m 73,-210 c 2,-24 2,-43 -1,-41 -3,2 -12,0 -19,-5 -9,-5 -24,1 -42,17 -26,24 -27,27 -12,49 10,16 25,24 43,24 26,0 28,-3 31,-44 z m 77,-164 c -4,-32 -37,-41 -74,-21 -39,20 -28,52 26,75 21,9 27,8 38,-8 7,-10 12,-31 10,-46 z m 73,-123 c 7,-12 7,-31 0,-82 -1,-9 -34,-2 -68,15 -18,9 -23,20 -23,49 l 0,38 41,-3 c 23,-2 45,-10 50,-17 z m 73,-155 c 9,-8 16,-21 16,-29 0,-7 2,-20 5,-27 4,-11 -6,-15 -39,-17 -39,-2 -47,2 -62,24 -16,24 -16,26 6,45 28,24 53,25 74,4 z m 91,-173 c 11,-45 -48,-78 -88,-48 -16,11 -16,15 -1,53 16,41 17,41 49,31 23,-7 36,-18 40,-36 z m 63,-133 c 7,-7 12,-29 12,-50 0,-37 -1,-37 -37,-35 -31,2 -38,6 -45,32 -11,44 -1,65 31,65 15,0 32,-5 39,-12 z m 92,-163 c 8,-9 9,-25 4,-42 -4,-16 -7,-31 -6,-36 2,-7 -29,-3 -65,9 -13,4 -18,66 -6,77 12,13 60,7 73,-8 z m 269,-1011 c 8,5 11,-29 5,-60 -3,-15 -13,-23 -34,-26 -34,-5 -39,0 -50,48 -7,31 -5,36 18,48 22,11 28,11 40,0 7,-8 17,-12 21,-10 z m 9,-205 c 2,-29 -1,-37 -21,-46 -23,-11 -34,-8 -75,23 -2,1 4,16 13,34 14,26 21,31 48,28 29,-3 32,-7 35,-39 z m 2,-183 c 0,-51 -42,-75 -70,-41 -7,8 -15,13 -19,11 -3,-2 -5,12 -3,32 l 4,37 44,-3 c 42,-4 44,-5 44,-36 z m -59,-136 c 38,0 57,-17 51,-47 -16,-92 -97,-78 -91,15 3,42 11,62 17,44 2,-7 13,-12 23,-12 z m 7,-193 c 6,-5 12,-24 12,-41 0,-27 -5,-34 -35,-45 -35,-12 -60,-8 -50,10 4,5 2,17 -4,26 -14,27 15,72 43,65 11,-3 27,-9 34,-15 z m -23,-192 c -1,-50 -25,-71 -62,-56 -23,9 -28,18 -28,44 0,32 2,33 40,36 22,1 41,4 44,7 7,7 8,5 6,-31 z m -45,-160 c 10,-12 10,-21 -1,-47 -8,-18 -13,-36 -11,-40 1,-4 -9,-3 -22,2 -13,5 -26,6 -29,4 -11,-11 -18,56 -7,75 13,25 52,28 70,6 z m -46,-163 c 2,-4 6,-23 8,-42 l 3,-35 -46,0 -45,0 6,42 c 4,24 5,43 3,43 -2,0 -2,4 2,9 5,10 61,-4 69,-17 z m -52,-170 c 11,-9 14,-21 9,-40 -6,-23 -13,-27 -49,-30 -41,-3 -42,-2 -42,27 0,16 -2,35 -5,43 -7,18 66,18 87,0 z m -59,-187 c -9,-53 -11,-56 -45,-53 -28,3 -34,7 -36,31 -5,46 3,55 47,54 38,-2 39,-3 34,-32 z m -75,-172 c 4,-37 -25,-59 -64,-49 -20,5 -24,12 -24,47 l 0,40 43,-3 c 39,-3 42,-5 45,-35 z m -70,-168 c -11,-33 -15,-36 -48,-33 -30,3 -35,7 -38,31 -4,35 11,55 46,59 42,5 56,-15 40,-57 z m -68,-152 c 0,-26 -5,-34 -24,-39 -38,-9 -59,-1 -76,29 -14,26 -14,29 8,46 20,14 30,16 58,7 29,-9 34,-15 34,-43 z m -82,-147 c 2,-9 -5,-26 -15,-39 -14,-18 -25,-21 -53,-17 -54,8 -51,54 5,87 23,13 58,-3 63,-31 z m -90,-145 c 2,-12 1,-34 -2,-47 -5,-19 -13,-24 -39,-24 -59,0 -73,34 -32,76 32,32 69,29 73,-5 z"
       id="path8" />
  </g>
  <g
     transform="translate(0.000000,211.680000) scale(0.024000,-0.024000)"
     fill="#000000"
     stroke="none"
     id="g2993">
    <path
       d="M1814 7993 c7 -13 1 -15 -56 -15 -29 -1 -33 -19 -7 -30 15 -6 15 -11 2 -60 -8 -29 -17 -69 -19 -88 -3 -19 -12 -45 -20 -58 l-15 -23 57 3 c38 2 59 8 62 17 3 9 0 11 -8 6 -18 -11 -31 16 -17 34 9 12 9 13 -1 7 -10 -6 -10 -2 0 18 6 14 16 27 22 28 6 0 16 2 21 2 46 7 93 72 76 105 -6 10 -7 22 -3 26 4 3 3 6 -3 4 -15 -3 -68 12 -84 25 -11 8 -13 8 -7 -1z m43 -51 c24 -15 -7 -80 -39 -82 -14 0 -19 21 -9 34 6 7 8 16 4 19 -6 7 15 37 26 37 3 0 12 -4 18 -8z"
       id="path2995" />
    <path
       d="M3953 7977 c-3 -6 2 -16 12 -23 16 -12 16 -17 0 -91 -9 -43 -21 -83 -26 -89 -5 -6 -6 -14 -2 -17 3 -4 -2 -7 -12 -7 -42 0 5 -22 50 -24 49 -2 72 11 36 21 -11 3 -18 9 -15 14 3 5 8 22 10 36 6 31 19 43 50 43 25 0 80 58 82 87 1 38 -31 56 -108 58 -39 1 -74 -3 -77 -8z m131 -50 c7 -28 -40 -80 -53 -59 -5 8 -4 31 1 52 8 29 14 37 28 33 10 -3 21 -15 24 -26z"
       id="path2997" />
    <path
       d="M6410 7941 c-25 -3 -43 -10 -40 -16 3 -5 9 -9 13 -7 10 3 -2 -80 -12 -88 -7 -5 -11 -29 -14 -76 -1 -17 -8 -38 -16 -47 -16 -20 -20 -19 51 -21 l58 -2 -20 21 c-34 36 -14 94 32 95 23 0 75 54 80 85 4 19 -1 31 -20 45 -25 20 -34 21 -112 11z m78 -49 c13 -19 11 -23 -12 -47 -27 -27 -52 -25 -41 4 4 9 8 25 10 36 1 11 3 24 4 28 2 14 23 2 39 -21z"
       id="path2999" />
    <path
       d="M1905 7810 c-8 -9 -15 -33 -15 -53 0 -30 4 -37 19 -37 25 0 37 18 22 33 -19 19 -13 39 12 35 39 -5 32 -39 -21 -93 -48 -49 -48 -50 -28 -66 14 -12 28 -14 48 -8 15 4 28 4 28 -1 0 -4 11 -3 24 3 13 7 22 15 20 19 -2 3 0 9 5 12 5 3 7 15 4 26 -5 20 -6 20 -25 4 -18 -17 -58 -27 -58 -15 0 3 14 20 32 38 40 41 47 98 14 110 -36 12 -66 10 -81 -7z"
       id="path3001" />
    <path
       d="M6118 7800 c-20 -20 -24 -33 -20 -60 5 -42 61 -107 75 -87 7 9 10 9 14 0 3 -10 8 -9 20 3 9 8 22 13 29 10 7 -3 11 0 8 7 -2 7 5 23 16 35 11 12 16 22 9 22 -6 0 -9 7 -5 15 3 8 -6 28 -19 44 -35 41 -92 46 -127 11z"
       id="path3003" />
    <path
       d="M1479 7789 c-17 -16 -29 -37 -29 -52 0 -19 -8 -28 -37 -40 -21 -9 -62 -30 -90 -47 -29 -17 -53 -28 -53 -24 0 3 -7 -2 -16 -11 -9 -9 -23 -14 -31 -11 -8 3 -12 2 -9 -2 3 -5 -19 -21 -49 -35 -29 -15 -58 -34 -65 -42 -7 -8 -20 -15 -29 -15 -9 0 -30 -13 -46 -29 -17 -15 -42 -34 -56 -42 -91 -50 -441 -384 -422 -403 4 -3 1 -6 -5 -6 -7 0 -12 -5 -12 -11 0 -6 -13 -28 -30 -49 -16 -21 -30 -41 -30 -45 0 -5 -11 -23 -25 -41 -14 -18 -25 -39 -25 -47 0 -8 -7 -20 -15 -27 -8 -7 -15 -18 -15 -26 0 -7 -8 -18 -17 -23 -10 -6 -14 -11 -9 -11 5 0 3 -7 -4 -15 -7 -8 -16 -12 -21 -9 -5 3 -7 -1 -4 -8 3 -7 -7 -26 -22 -43 -30 -33 -35 -54 -16 -77 13 -15 10 -57 -4 -67 -5 -3 -9 -19 -10 -36 -3 -46 -10 -83 -18 -95 -17 -28 -28 -366 -14 -455 8 -55 17 -120 24 -170 1 -11 3 -20 5 -20 1 0 4 -13 6 -30 3 -16 10 -46 16 -65 7 -19 13 -39 14 -45 2 -5 10 -35 18 -65 8 -30 13 -56 11 -58 -2 -3 2 -11 10 -19 8 -8 13 -27 11 -43 -2 -16 1 -28 7 -27 9 2 26 -37 61 -138 4 -11 14 -33 22 -49 13 -26 13 -28 -3 -22 -16 5 -16 5 1 -8 10 -9 15 -20 10 -27 -4 -8 -3 -10 5 -5 6 4 14 0 17 -11 7 -23 53 -123 65 -143 5 -8 12 -22 15 -30 3 -8 10 -23 15 -32 5 -10 9 -24 9 -31 0 -8 9 -22 20 -32 11 -10 19 -23 17 -29 -3 -6 2 -18 10 -28 8 -9 15 -23 17 -31 1 -8 8 -22 15 -31 7 -8 9 -21 5 -28 -4 -7 -4 -10 1 -6 4 4 22 -23 40 -61 17 -38 36 -75 42 -83 5 -7 24 -42 42 -78 49 -99 75 -144 86 -152 6 -4 7 -8 2 -8 -4 0 3 -17 16 -37 12 -21 28 -47 35 -58 46 -76 126 -258 164 -370 10 -33 23 -69 28 -80 17 -36 78 -299 83 -355 3 -30 8 -62 11 -70 24 -68 26 -574 3 -670 -10 -44 -21 -76 -27 -85 -4 -5 -12 -32 -19 -59 -10 -42 -10 -51 5 -67 11 -13 14 -27 10 -46 -4 -15 -9 -44 -12 -63 -8 -59 -87 -369 -103 -405 -17 -37 -24 -60 -22 -69 1 -4 -5 -18 -13 -31 -8 -12 -18 -39 -21 -59 -4 -20 -11 -39 -16 -42 -5 -3 -9 -13 -9 -23 0 -10 -7 -24 -15 -31 -8 -7 -15 -23 -15 -36 0 -13 -4 -24 -10 -24 -5 0 -10 -8 -10 -18 0 -11 -6 -32 -14 -48 -8 -16 -26 -56 -41 -89 -62 -138 -104 -223 -114 -230 -6 -3 -11 -12 -11 -19 0 -18 -91 -179 -122 -215 -9 -11 -14 -22 -10 -25 3 -3 -4 -16 -15 -29 -11 -12 -28 -38 -37 -57 -27 -59 -64 -93 -97 -88 -15 3 -26 1 -23 -4 3 -4 -4 -18 -15 -30 -25 -26 -28 -80 -6 -98 9 -7 14 -19 11 -27 -3 -8 -2 -12 2 -9 5 3 25 1 45 -4 33 -7 40 -5 65 21 33 35 45 84 26 100 -8 6 -14 14 -14 18 0 15 68 110 74 104 4 -4 4 -1 1 8 -3 8 3 24 13 35 10 10 17 24 15 29 -2 6 8 23 22 39 14 16 25 35 25 43 0 8 4 11 10 8 5 -3 7 0 5 8 -3 7 3 22 15 32 11 10 20 26 20 35 0 10 7 23 15 30 8 7 15 19 15 27 0 8 4 11 10 8 6 -4 7 1 3 11 -5 13 -3 15 7 9 9 -5 11 -4 6 4 -4 6 -2 19 5 27 7 9 14 23 15 31 2 8 10 23 19 33 8 9 17 26 20 37 3 19 14 43 37 83 4 8 11 22 14 30 3 8 12 27 20 43 8 15 12 27 9 27 -3 0 0 12 8 28 8 15 25 52 37 82 12 30 31 73 41 95 38 84 132 384 144 457 2 16 11 56 19 90 16 64 24 109 25 141 1 10 11 21 24 26 l22 9 -1 223 c0 123 2 266 5 317 3 52 4 95 1 97 -3 2 -5 44 -5 93 0 50 -3 88 -7 85 -5 -2 -8 17 -9 44 -1 57 -13 158 -19 158 -1 0 -3 12 -5 26 -2 14 -9 45 -15 69 -6 24 -13 53 -14 64 -9 71 -95 317 -158 452 -15 33 -28 65 -28 71 0 6 -4 13 -8 15 -4 2 -21 30 -36 63 -16 33 -34 66 -40 74 -5 7 -11 20 -12 28 -2 8 -9 22 -17 31 -8 10 -25 40 -38 67 -13 28 -29 57 -37 67 -7 9 -14 23 -16 31 -1 8 -7 21 -12 28 -23 30 -64 108 -64 122 0 8 -7 18 -16 21 -9 3 -14 13 -11 20 3 8 -1 20 -9 27 -8 7 -13 18 -10 26 4 9 1 11 -6 7 -8 -5 -9 -2 -5 9 3 10 3 17 -2 17 -10 0 -44 68 -44 87 0 7 -4 10 -9 7 -4 -3 -8 0 -8 6 0 6 -15 43 -34 83 -18 40 -34 75 -35 79 -1 5 -14 34 -30 65 -33 66 -45 93 -46 109 0 6 -6 18 -14 27 -7 9 -10 21 -6 27 3 5 1 10 -4 10 -6 0 -11 11 -11 24 0 14 -4 27 -9 30 -4 3 -12 20 -16 38 -4 18 -9 35 -10 38 -36 91 -39 102 -47 165 -2 11 -6 22 -10 25 -4 3 -9 21 -11 41 -2 19 -6 39 -9 44 -9 15 -27 116 -27 152 0 18 -3 38 -8 45 -4 7 -8 36 -10 63 -1 28 -3 71 -4 96 -1 26 2 52 5 58 4 6 2 11 -4 11 -6 0 -9 3 -7 8 3 4 8 43 11 87 8 95 12 126 21 154 3 11 9 33 12 48 8 42 11 58 13 61 3 3 7 19 9 33 0 6 8 8 17 5 17 -7 44 46 51 104 3 19 9 40 14 46 5 6 6 14 2 17 -3 4 -1 13 6 21 6 8 11 18 9 22 -4 16 14 58 38 91 13 17 24 37 24 43 0 6 5 8 12 4 7 -5 8 -3 3 5 -4 7 2 22 15 36 11 12 29 38 39 56 10 19 25 34 32 34 8 0 13 8 11 19 -3 13 1 17 12 13 9 -4 13 -1 10 6 -6 18 41 61 57 52 8 -6 10 -4 4 4 -8 14 110 141 131 141 7 0 35 23 63 50 28 28 56 50 61 50 6 0 10 5 10 11 0 5 4 8 8 5 5 -3 24 7 42 22 18 15 35 27 39 27 4 0 13 6 21 13 44 37 64 52 71 52 4 0 35 16 69 35 34 19 68 35 76 35 8 0 14 5 14 10 0 6 9 10 19 10 11 0 26 7 35 15 8 8 19 15 25 15 5 0 25 9 45 20 23 14 36 17 41 10 4 -6 29 -10 60 -8 30 1 52 5 50 7 -3 2 4 16 15 30 10 15 17 39 16 54 -4 35 -33 77 -54 78 -9 0 -27 2 -40 3 -14 2 -35 -8 -53 -25z"
       id="path3005" />
    <path
       d="M4147 7800 c-25 -24 -28 -66 -7 -85 15 -14 19 -13 36 7 10 13 15 20 10 16 -11 -9 -35 14 -29 29 3 7 14 13 24 13 36 0 23 -49 -27 -102 -25 -27 -43 -52 -40 -55 3 -3 30 -7 60 -8 58 -3 69 3 79 43 5 21 -2 26 -30 23 -18 -2 -16 9 4 31 25 27 25 63 0 85 -28 25 -57 26 -80 3z"
       id="path3007" />
    <path
       d="M3731 7784 c-12 -15 -21 -38 -21 -52 0 -14 -3 -22 -7 -19 -3 4 -11 3 -17 -3 -7 -5 -32 -10 -56 -11 -25 -1 -56 -7 -70 -12 -14 -5 -41 -11 -60 -12 -19 -2 -38 -4 -41 -4 -12 -2 -6 -37 9 -54 15 -17 14 -20 -13 -42 -15 -14 -33 -25 -40 -25 -6 0 -22 -11 -35 -25 -13 -14 -29 -24 -34 -22 -6 2 -24 -9 -41 -25 -16 -15 -35 -28 -42 -28 -6 0 -27 -13 -45 -30 -18 -16 -38 -30 -45 -30 -6 0 -18 -6 -25 -14 -8 -7 -28 -21 -46 -30 -17 -9 -45 -30 -62 -46 -17 -17 -35 -30 -40 -30 -19 0 -25 -4 -55 -32 -16 -15 -34 -28 -40 -28 -15 0 -65 -46 -65 -59 0 -7 12 -22 26 -34 25 -22 26 -24 11 -57 -13 -31 -23 -46 -69 -100 -7 -8 -12 -18 -10 -23 1 -5 -13 -27 -33 -49 -19 -23 -35 -48 -35 -55 0 -8 -5 -11 -12 -7 -6 4 -8 3 -4 -4 3 -6 -8 -27 -26 -47 -17 -21 -33 -46 -33 -57 -1 -11 -7 -23 -14 -28 -7 -4 -12 -10 -12 -14 3 -17 0 -26 -12 -38 -7 -7 -26 -39 -41 -70 -16 -32 -32 -56 -35 -54 -3 2 -7 -14 -9 -36 -2 -25 1 -37 7 -33 6 3 19 1 30 -5 20 -10 21 -35 5 -113 -6 -30 -8 -40 -19 -121 -3 -28 -9 -54 -12 -60 -7 -11 -16 -169 -17 -291 -1 -87 -5 -82 58 -72 5 1 17 -27 27 -63 9 -36 27 -94 38 -130 12 -36 21 -73 21 -82 0 -10 7 -37 15 -61 8 -24 16 -52 18 -63 2 -10 7 -27 12 -36 4 -10 8 -29 9 -43 0 -14 4 -25 8 -25 7 0 23 -42 19 -49 -2 -2 2 -7 8 -10 6 -4 12 -29 14 -56 3 -28 7 -61 10 -75 4 -14 8 -42 11 -64 5 -44 21 -59 49 -44 15 7 23 5 38 -11 10 -11 19 -27 19 -35 0 -8 4 -17 9 -20 9 -6 25 -65 22 -81 -2 -5 1 -7 4 -3 9 8 32 -35 68 -125 14 -34 37 -84 51 -111 14 -27 26 -55 26 -62 0 -8 7 -14 15 -14 8 0 16 -6 16 -12 1 -7 3 -22 4 -33 8 -63 8 -92 1 -103 -4 -6 -2 -12 3 -12 7 0 11 -29 11 -75 0 -84 11 -99 56 -75 32 18 37 11 68 -80 28 -82 79 -226 89 -250 3 -8 11 -34 17 -58 6 -24 18 -46 26 -49 20 -8 18 -47 -12 -174 -29 -122 -28 -127 31 -123 34 3 35 2 36 -34 0 -20 2 -46 4 -57 9 -44 36 -244 41 -305 9 -94 10 -99 17 -106 4 -4 7 -16 7 -26 0 -10 4 -18 9 -18 10 0 -51 -125 -73 -149 -9 -9 -22 -33 -31 -53 -13 -33 -13 -38 1 -52 8 -9 24 -16 34 -16 14 0 18 -7 17 -35 -1 -19 -3 -35 -7 -35 -3 0 -6 -15 -7 -32 -3 -52 -10 -96 -43 -249 -7 -31 -10 -72 -8 -90 6 -37 -26 -91 -107 -181 -24 -26 -46 -60 -50 -75 -6 -27 -3 -32 40 -58 15 -9 15 -14 -4 -65 -12 -30 -25 -64 -30 -75 -5 -11 -26 -67 -46 -125 -21 -58 -45 -120 -53 -138 -8 -17 -12 -41 -9 -52 4 -15 -14 -40 -71 -99 -160 -164 -146 -145 -127 -177 9 -16 14 -21 11 -12 -3 12 -1 15 10 11 19 -7 18 -11 -11 -58 -14 -22 -31 -53 -39 -70 -8 -16 -24 -42 -36 -58 -12 -15 -19 -27 -15 -27 3 0 -2 -12 -12 -27 -11 -16 -24 -39 -30 -53 -7 -18 -24 -29 -56 -38 -44 -13 -46 -16 -51 -55 -6 -53 -5 -77 5 -71 4 2 10 -4 14 -15 5 -16 14 -19 60 -18 29 1 56 5 59 8 15 15 35 79 26 84 -20 12 -9 54 30 116 21 35 49 83 60 107 12 23 25 42 29 42 4 0 15 18 25 40 20 45 26 48 51 20 22 -24 55 -11 55 24 0 12 3 26 7 30 8 7 8 9 18 91 3 33 9 64 13 70 4 5 8 24 9 40 2 46 8 62 26 83 9 10 17 26 17 35 0 10 4 25 9 35 5 9 19 44 31 77 12 33 26 69 30 80 5 11 16 43 25 70 9 28 22 64 30 80 7 17 16 38 19 48 5 17 7 17 30 1 14 -9 30 -14 36 -12 8 2 13 61 16 173 3 93 9 174 15 181 6 7 13 34 16 61 2 26 8 50 11 53 4 3 7 16 7 30 0 14 5 52 11 85 7 33 15 80 18 105 3 25 8 54 10 65 2 11 5 23 5 27 1 4 15 5 32 1 l30 -6 -3 101 c-2 55 -6 98 -10 95 -5 -2 -8 18 -8 46 0 27 -5 53 -10 56 -6 4 -7 12 -3 18 10 16 11 97 1 91 -4 -3 -8 7 -9 23 -1 46 -5 73 -12 79 -3 4 -2 16 4 27 8 14 8 18 -1 12 -7 -4 -10 -2 -9 6 1 8 -1 30 -4 49 -4 19 -9 60 -11 90 -3 30 -5 55 -6 55 -1 0 -3 16 -6 35 -5 38 2 81 14 79 22 -4 32 3 32 20 0 11 -4 23 -10 26 -5 3 -10 14 -10 24 0 10 -7 24 -15 31 -9 7 -13 15 -11 18 3 3 -1 17 -8 31 -7 14 -19 38 -25 54 -6 15 -16 38 -22 51 -6 12 -10 34 -8 47 2 13 -7 45 -18 71 -12 25 -24 57 -28 70 -3 12 -10 32 -15 43 -5 11 -22 56 -38 100 -16 44 -33 89 -37 100 -5 11 -9 22 -9 25 -1 3 -5 11 -10 19 -6 9 -6 16 1 18 6 2 18 10 29 17 17 13 17 15 1 37 -38 54 -75 101 -120 152 -27 32 -49 66 -51 83 -1 16 -20 65 -41 109 -86 182 -105 228 -98 238 3 6 1 7 -5 3 -11 -7 -13 -3 -16 37 -1 6 -9 21 -19 32 -10 10 -15 25 -12 33 2 7 1 11 -4 8 -5 -3 -11 4 -15 17 -4 15 0 26 14 36 11 7 20 19 20 26 0 7 -39 49 -86 93 -51 48 -83 85 -79 92 4 6 2 17 -4 24 -7 8 -11 18 -10 22 1 5 0 12 -1 17 -1 4 -3 10 -4 15 -3 11 -46 145 -53 162 -3 8 -7 22 -8 30 -1 8 -10 44 -19 80 -10 36 -19 70 -20 75 -2 6 -6 17 -9 25 -4 8 -9 30 -11 48 -2 18 -6 36 -10 39 -10 10 14 32 30 26 23 -9 17 39 -10 76 -13 18 -30 46 -36 62 -7 16 -16 29 -20 29 -12 0 -33 68 -24 81 3 6 8 28 11 48 2 20 8 65 14 101 13 92 19 131 23 165 2 17 4 34 5 38 0 5 9 6 20 2 32 -10 53 5 47 34 -11 51 -20 147 -19 188 0 34 8 53 37 87 20 24 36 49 36 56 0 6 4 8 10 5 5 -3 8 0 5 7 -3 7 8 27 25 45 16 18 30 37 30 44 0 7 16 31 35 55 19 23 35 49 35 57 0 19 36 51 49 42 6 -3 11 -13 11 -22 0 -13 5 -12 25 7 14 13 25 31 25 40 0 8 7 26 16 38 8 12 13 25 10 30 -8 13 62 152 78 152 8 0 28 11 44 25 17 14 35 25 41 25 6 0 29 16 51 36 22 20 43 34 47 30 4 -3 21 8 39 25 17 16 38 31 46 33 8 1 30 14 47 29 18 15 38 24 43 21 6 -4 8 -2 5 3 -8 12 20 26 34 17 5 -3 9 -14 9 -24 0 -10 4 -21 9 -24 8 -5 103 87 164 159 22 26 27 28 42 15 19 -16 53 -21 61 -8 3 4 14 8 24 8 10 0 22 9 25 20 4 11 10 18 13 16 4 -2 7 12 7 32 -2 53 -41 92 -93 92 -32 0 -45 -6 -61 -26z"
       id="path3009" />
    <path
       d="M6564 7783 c-37 -7 -69 -99 -35 -100 37 -2 45 6 26 27 -14 16 -16 23 -7 32 9 9 17 7 32 -7 18 -16 19 -20 5 -35 -8 -9 -15 -20 -15 -24 0 -5 -14 -26 -31 -48 -17 -21 -30 -41 -28 -43 2 -1 31 -5 63 -7 50 -4 59 -2 64 14 2 10 7 16 11 13 12 -7 6 34 -6 46 -8 8 -14 5 -22 -10 -7 -12 -21 -21 -31 -21 -26 0 -25 8 4 35 51 47 60 94 21 119 -13 9 -26 15 -27 15 -2 -1 -12 -4 -24 -6z"
       id="path3011" />
    <path
       d="M6304 4787 c-16 -18 -29 -37 -29 -43 0 -9 -20 -37 -70 -97 -5 -7 -11 -19 -13 -27 -2 -8 -9 -22 -16 -30 -13 -15 -18 -49 -7 -48 22 2 41 -4 41 -13 0 -6 -7 -8 -17 -4 -15 5 -16 4 -5 -6 13 -14 17 -33 4 -25 -5 3 -8 -5 -7 -17 1 -12 -2 -31 -6 -42 -4 -11 -11 -29 -15 -40 -4 -11 -9 -31 -10 -44 -2 -13 -7 -27 -11 -30 -4 -3 -9 -15 -11 -26 -1 -11 -4 -24 -6 -30 -1 -5 -6 -23 -11 -40 -4 -16 -10 -34 -13 -40 -4 -5 -7 -18 -7 -28 -1 -10 -6 -22 -11 -25 -5 -4 -10 -16 -12 -27 -1 -11 -4 -24 -6 -30 -1 -5 -6 -23 -11 -40 -4 -16 -12 -35 -17 -42 -5 -7 -7 -16 -4 -21 3 -6 -1 -15 -9 -22 -8 -7 -12 -16 -9 -22 3 -5 2 -17 -2 -26 -4 -9 -8 -19 -9 -22 -12 -37 -29 -98 -31 -107 -1 -7 -16 -55 -33 -108 -17 -53 -31 -102 -31 -110 0 -7 -6 -15 -14 -18 -11 -4 -16 6 -21 36 -4 23 -10 47 -13 52 -7 12 -10 22 -14 50 -2 11 -6 23 -11 26 -7 5 -16 35 -21 69 -1 9 -4 20 -8 25 -3 6 -8 24 -12 40 -4 17 -9 37 -12 47 -3 12 3 18 25 23 40 9 37 30 -15 92 -22 26 -50 65 -63 86 -12 20 -26 37 -31 37 -4 0 -11 11 -14 24 -7 28 -36 42 -47 24 -5 -7 -8 -72 -8 -145 1 -106 4 -136 16 -148 11 -12 19 -13 28 -5 10 8 15 8 21 -1 6 -10 93 -333 109 -404 27 -118 43 -146 86 -148 30 -2 34 1 37 26 2 15 8 27 13 27 6 0 8 4 4 9 -3 5 -1 20 4 33 20 49 24 63 22 75 -1 6 3 14 9 18 5 3 10 17 10 31 0 13 4 24 8 24 4 0 8 8 9 18 4 39 16 82 22 82 4 0 7 8 8 18 1 26 9 54 26 94 9 20 13 39 10 42 -3 3 -1 11 4 18 9 11 24 57 27 80 1 3 4 10 9 14 4 4 7 16 7 26 0 11 4 17 9 14 4 -3 7 8 5 24 -2 16 2 35 9 42 6 7 12 18 12 23 1 25 17 85 23 85 4 0 8 12 9 26 0 15 6 36 11 48 6 11 13 34 17 49 3 15 9 25 14 23 5 -3 9 0 8 7 -1 41 5 67 19 81 10 10 11 16 3 16 -9 0 -9 3 1 15 6 8 13 24 15 37 10 61 11 63 46 63 l34 0 -1 127 c-1 91 2 126 10 121 6 -3 5 0 -1 8 -15 16 -17 33 -3 24 5 -3 7 0 4 9 -10 27 -32 25 -60 -7z"
       id="path3013" />
    <path
       d="M6477 4164 c-3 -4 -51 -6 -107 -6 -97 1 -119 -6 -82 -27 17 -10 25 -61 9 -61 -4 0 -5 -6 0 -12 10 -16 10 -36 1 -70 -4 -17 -3 -28 4 -28 6 0 6 -6 -2 -15 -7 -8 -9 -15 -4 -15 4 0 -1 -7 -12 -15 -23 -18 -31 -16 100 -21 122 -5 126 -3 126 60 0 34 -2 37 -16 25 -9 -7 -20 -24 -25 -37 -8 -20 -15 -23 -51 -20 -41 3 -41 3 -44 45 -1 26 3 43 10 46 17 7 40 -8 32 -21 -8 -14 6 -23 21 -14 14 9 23 91 11 98 -5 4 -18 -3 -29 -15 -20 -21 -38 -27 -40 -13 0 4 -2 23 -3 43 -3 36 -2 37 34 35 38 -1 74 -22 64 -37 -3 -5 3 -9 14 -9 16 0 19 7 18 35 -1 34 -17 61 -29 49z"
       id="path3015" />
    <path
       d="M5480 3813 c-44 -13 -43 -13 -26 -32 11 -12 16 -31 14 -53 -4 -29 -8 -33 -39 -36 -55 -6 -103 -65 -101 -125 1 -46 19 -60 70 -52 26 4 48 2 57 -5 10 -8 20 -4 44 16 17 14 31 32 31 40 0 19 -9 18 -32 -3 -19 -17 -19 -16 -14 7 21 96 47 207 51 216 4 14 -34 33 -55 27z m-34 -195 c-8 -48 -29 -77 -55 -75 -16 1 -17 6 -9 40 12 57 26 77 50 77 19 0 20 -4 14 -42z"
       id="path3017" />
    <path
       d="M5660 3700 c-8 -5 -23 -7 -32 -4 -28 8 -55 -13 -60 -47 -4 -26 1 -35 34 -62 27 -22 35 -34 28 -41 -8 -8 -16 -4 -29 13 -22 29 -39 21 -34 -16 4 -24 9 -28 43 -31 31 -2 42 3 59 24 11 14 19 36 17 48 -3 11 -5 24 -5 28 -1 3 -17 12 -36 18 -19 6 -35 18 -35 26 0 19 19 18 41 -2 24 -22 41 -10 29 20 -5 13 -6 27 -3 30 9 9 0 7 -17 -4z"
       id="path3019" />
    <path
       d="M902 2294 c-26 -10 -32 -19 -32 -43 0 -25 -3 -28 -22 -24 -13 3 -27 9 -33 13 -10 8 -40 13 -61 11 -7 0 -14 -14 -16 -30 -4 -28 -3 -29 38 -28 24 0 50 -6 59 -13 9 -8 24 -15 33 -15 32 -4 100 -37 106 -51 8 -22 -27 -56 -50 -48 -68 22 -74 26 -68 49 3 13 0 26 -6 30 -7 4 -14 -1 -17 -14 -4 -16 -11 -19 -34 -14 -22 4 -30 1 -35 -12 -5 -11 -1 -21 9 -26 9 -5 23 -17 32 -26 9 -9 31 -17 48 -18 18 -1 44 -7 60 -13 18 -8 35 -8 53 -2 21 8 25 16 22 39 -1 18 4 37 15 49 23 25 28 79 7 73 -49 -13 -105 14 -106 52 -1 16 4 27 12 27 22 0 102 -38 107 -52 8 -19 37 19 37 48 0 16 -5 21 -18 17 -10 -2 -38 5 -63 15 -40 17 -49 18 -77 6z"
       id="path3021" />
    <path
       d="M766 1974 c-23 -22 -21 -91 2 -103 13 -7 23 -6 30 1 18 18 14 35 -9 41 -26 7 -20 31 9 35 22 3 26 -4 23 -44 -3 -33 16 -71 39 -77 24 -6 62 28 58 53 -1 8 5 26 14 39 21 30 13 54 -16 47 -12 -3 -39 1 -61 9 -52 18 -70 18 -89 -1z"
       id="path3023" />
    <path
       d="M636 1849 c-14 -17 -26 -37 -26 -45 0 -8 -5 -24 -12 -37 -33 -64 -33 -60 6 -54 24 4 57 -2 100 -17 70 -24 96 -41 96 -62 0 -8 7 -14 15 -14 8 0 15 5 15 10 0 6 8 28 19 50 22 46 13 74 -16 48 -10 -8 -25 -13 -33 -10 -62 21 -62 21 -47 42 18 25 13 77 -10 102 -26 29 -77 23 -107 -13z m75 -25 c17 -21 21 -45 9 -64 -7 -12 -12 -12 -22 -2 -6 6 -19 12 -28 12 -9 0 -21 5 -28 12 -9 9 -7 17 10 35 25 27 41 29 59 7z"
       id="path3025" />
    <path
       d="M5097 824 c-25 -29 -39 -71 -26 -80 5 -3 9 -14 9 -25 0 -11 5 -17 10 -14 6 3 10 2 10 -3 0 -11 37 -25 60 -23 33 4 60 26 69 56 14 52 3 85 -35 101 -48 20 -71 17 -97 -12z"
       id="path3027" />
    <path
       d="M450 612 c0 -7 -6 -12 -12 -11 -24 3 -38 -1 -38 -11 0 -5 7 -10 16 -10 12 0 14 -7 9 -32 -3 -18 -8 -42 -10 -53 -11 -66 -25 -109 -41 -126 -16 -18 -16 -19 2 -20 111 -7 116 -6 108 16 -4 8 -10 13 -14 10 -10 -6 -18 61 -10 76 4 5 11 9 16 7 5 -1 25 3 45 10 27 10 40 23 56 57 11 24 17 42 13 40 -4 -3 -10 4 -13 15 -3 11 -14 20 -24 20 -11 0 -23 3 -27 7 -11 11 -40 10 -48 -2 -5 -6 -12 -4 -18 5 -7 11 -10 11 -10 2z m78 -63 c2 -19 -4 -31 -23 -43 -35 -23 -41 -15 -26 35 14 46 44 52 49 8z"
       id="path3029" />
    <path
       d="M2714 598 c-4 -5 0 -16 8 -24 13 -13 12 -26 -5 -102 -11 -48 -27 -95 -35 -104 -14 -17 -11 -18 47 -18 39 0 60 4 56 10 -3 6 -13 10 -21 10 -17 0 -17 4 -3 53 9 34 17 41 44 38 23 -2 77 55 81 84 5 48 -16 61 -96 62 -38 1 -73 -3 -76 -9z m116 -33 c16 -19 5 -50 -24 -69 -28 -18 -39 -5 -29 36 11 46 32 59 53 33z"
       id="path3031" />
    <path
       d="M5100 602 c-36 -5 -49 -21 -22 -28 26 -7 25 -5 12 -39 -6 -15 -13 -48 -16 -73 -3 -26 -12 -57 -20 -69 -28 -44 -20 -54 44 -51 57 3 78 20 34 26 -22 3 -23 7 -17 40 9 49 12 52 45 52 36 0 90 44 90 73 0 12 -6 33 -13 46 -10 20 -20 24 -62 25 -27 0 -61 -1 -75 -2z m89 -36 c10 -11 9 -21 -4 -45 -8 -17 -17 -31 -19 -31 -3 0 -11 -3 -19 -6 -12 -4 -13 3 -4 45 10 52 25 63 46 37z"
       id="path3033" />
    <path
       d="M595 443 c-16 -11 -17 -16 -7 -22 8 -5 15 -33 16 -70 3 -53 1 -64 -17 -76 -27 -19 -21 -24 38 -27 33 -2 50 1 53 10 2 7 -4 16 -15 18 -16 5 -19 15 -18 77 1 40 0 77 -3 84 -6 19 -27 22 -47 6z"
       id="path3035" />
    <path
       d="M2894 435 c-16 -13 -17 -16 -4 -24 11 -7 15 -29 16 -76 1 -55 -2 -65 -16 -65 -9 0 -17 -7 -17 -15 0 -11 13 -15 53 -15 29 0 55 4 58 8 6 10 -8 34 -20 33 -5 -1 -9 33 -10 75 0 54 -4 78 -15 85 -19 12 -22 11 -45 -6z"
       id="path3037" />
    <path
       d="M5277 429 c-9 -6 -17 -7 -17 -3 0 3 -7 1 -15 -6 -17 -14 -11 -32 8 -24 10 3 13 -15 14 -71 1 -72 -3 -81 -31 -76 -5 1 -4 -4 3 -12 8 -10 27 -14 57 -12 54 4 63 10 35 25 -19 9 -21 20 -21 95 0 46 -3 86 -8 89 -4 2 -15 0 -25 -5z"
       id="path3039" />
  </g>
  <rect
     style="fill:#b9b9b9;fill-opacity:1;stroke:none;stroke-width:0.30000000999999998;stroke-miterlimit:4;stroke-opacity:1;stroke-dasharray:none;stroke-dashoffset:0"
     id="rect3104"
     width="21.197477"
     height="9.9930954"
     x="-155.56697"
     y="75.722137"
     transform="matrix(0.38618504,-0.92242133,0.92242133,0.38618504,0,0)" />
  <text
     xml:space="preserve"
     style="font-size:9.04000092px;font-style:italic;font-variant:normal;font-weight:bold;font-stretch:normal;text-indent:0;text-align:start;text-decoration:none;line-height:125%;letter-spacing:0px;word-spacing:0px;text-transform:none;direction:ltr;block-progression:tb;writing-mode:lr-tb;text-anchor:start;baseline-shift:baseline;color:#000000;fill:#000000;fill-opacity:1;fill-rule:nonzero;stroke:none;stroke-width:0.99999994px;marker:none;visibility:visible;display:inline;overflow:visible;enable-background:accumulate;font-family:Linux Libertine O;-inkscape-font-specification:Sans Italic"
     x="-154.35568"
     y="83.292656"
     id="text3100"
     sodipodi:linespacing="125%"
     transform="matrix(0.38618504,-0.92242133,0.92242133,0.38618504,0,0)"><tspan
       sodipodi:role="line"
       id="tspan3102"
       x="-154.35568"
       y="83.292656"
       style="font-size:8.6400013px;font-style:normal;-inkscape-font-specification:Linux Libertine O Bold">Path</tspan></text>
</svg>
