<?xml version="1.0" encoding="UTF-8" standalone="no"?>
<svg
   xmlns:dc="http://purl.org/dc/elements/1.1/"
   xmlns:cc="http://creativecommons.org/ns#"
   xmlns:rdf="http://www.w3.org/1999/02/22-rdf-syntax-ns#"
   xmlns:svg="http://www.w3.org/2000/svg"
   xmlns="http://www.w3.org/2000/svg"
   xmlns:sodipodi="http://sodipodi.sourceforge.net/DTD/sodipodi-0.dtd"
   xmlns:inkscape="http://www.inkscape.org/namespaces/inkscape"
   version="1.0"
   width="200.880000pt"
   height="516.480000pt"
   viewBox="0 0 200.880000 516.480000"
   preserveAspectRatio="xMidYMid meet"
   id="svg2989"
   inkscape:version="0.48.4 r9939"
   sodipodi:docname="black.svg">
  <defs
     id="defs3069" />
  <sodipodi:namedview
     pagecolor="#ffffff"
     bordercolor="#666666"
     borderopacity="1"
     objecttolerance="10"
     gridtolerance="10"
     guidetolerance="10"
     inkscape:pageopacity="0"
     inkscape:pageshadow="2"
     inkscape:window-width="1280"
     inkscape:window-height="996"
     id="namedview3067"
     showgrid="false"
     inkscape:zoom="1.0625544"
     inkscape:cx="150.45762"
     inkscape:cy="289.97287"
     inkscape:window-x="0"
     inkscape:window-y="0"
     inkscape:window-maximized="1"
     inkscape:current-layer="svg2989" />
  <metadata
     id="metadata2991">
Created by potrace 1.10, written by Peter Selinger 2001-2011
<rdf:RDF>
  <cc:Work
     rdf:about="">
    <dc:format>image/svg+xml</dc:format>
    <dc:type
       rdf:resource="http://purl.org/dc/dcmitype/StillImage" />
  </cc:Work>
</rdf:RDF>
</metadata>
  <g
     style="fill:#b9b9b9;stroke:none"
     transform="matrix(0.024,0,0,-0.024,0,516.48)"
     id="g6">
    <path
       inkscape:connector-curvature="0"
       d="M 0,10760 0,0 l 4185,0 4185,0 0,10760 0,10760 -4185,0 -4185,0 0,-10760 z m 3408,9804 c 23,-4 42,-10 42,-15 0,-5 9,-9 20,-9 11,0 20,-4 20,-10 0,-5 15,-10 34,-10 49,0 146,-69 146,-105 0,-9 9,-15 25,-15 14,0 25,-4 25,-8 0,-5 13,-22 30,-38 16,-16 30,-37 30,-46 0,-10 6,-18 14,-18 15,0 18,-7 31,-64 3,-17 14,-37 23,-45 10,-9 19,-29 20,-46 2,-16 8,-34 13,-39 5,-6 9,-23 9,-38 0,-15 3,-28 8,-28 4,0 13,-25 20,-56 8,-31 22,-70 33,-87 10,-18 19,-50 19,-71 0,-40 13,-58 58,-76 17,-8 22,-18 24,-52 1,-24 2,-59 3,-78 1,-19 14,-61 28,-94 15,-32 27,-67 27,-77 0,-23 39,-99 51,-99 5,0 9,-9 9,-20 0,-10 8,-27 19,-37 22,-21 34,-73 17,-73 -19,0 -36,22 -36,46 0,13 -7,29 -15,38 -8,8 -15,21 -15,28 0,8 -7,23 -15,34 -8,10 -15,27 -15,36 0,9 -6,21 -14,25 -8,4 -28,38 -45,74 -17,37 -38,72 -46,79 -8,7 -15,18 -15,25 0,6 -9,20 -20,30 -11,10 -20,24 -20,31 0,7 -8,18 -17,23 -17,9 -16,11 5,27 19,13 23,23 19,48 -9,53 -42,161 -49,164 -5,2 -8,15 -8,28 0,13 -4,24 -10,24 -5,0 -10,10 -10,23 0,12 -6,33 -13,47 -7,14 -24,60 -37,102 -20,65 -28,79 -54,92 -17,9 -25,16 -18,16 20,0 14,17 -23,57 -19,21 -35,42 -35,46 0,25 -72,69 -98,60 -9,-3 -14,-3 -10,2 10,10 -11,37 -23,29 -5,-3 -9,2 -9,11 0,8 -11,21 -25,27 -14,6 -25,15 -25,20 0,4 -16,8 -35,8 -19,0 -35,5 -35,11 0,7 -18,10 -50,7 -28,-1 -50,0 -50,5 0,10 -148,9 -154,-2 -3,-4 -28,-11 -55,-13 -27,-3 -56,-12 -65,-21 -9,-8 -35,-18 -58,-22 -26,-5 -49,-16 -61,-31 -13,-18 -25,-22 -42,-18 -18,4 -25,1 -30,-15 -3,-12 -13,-21 -21,-21 -8,0 -31,-15 -51,-34 -21,-18 -49,-36 -63,-39 -26,-6 -42,-20 -92,-73 -15,-16 -50,-45 -78,-64 -28,-19 -53,-45 -56,-57 -4,-13 -11,-20 -20,-16 -28,10 -62,-7 -88,-47 -16,-24 -34,-40 -46,-40 -11,0 -40,-20 -64,-45 -28,-27 -55,-45 -68,-45 -13,0 -29,-9 -36,-20 -7,-11 -21,-20 -32,-20 -11,0 -20,-3 -20,-8 0,-4 -14,-13 -32,-21 -17,-8 -39,-22 -49,-32 -10,-10 -25,-16 -32,-13 -14,5 -31,-21 -23,-34 2,-4 -14,-8 -37,-9 -55,-2 -157,-25 -157,-36 0,-4 -15,-5 -33,-2 -18,4 -45,2 -60,-4 -24,-9 -27,-8 -27,9 0,18 7,20 59,20 33,0 63,5 66,10 3,6 19,10 36,10 16,0 29,5 29,10 0,6 7,10 16,10 9,0 32,7 52,16 21,8 51,21 67,28 17,8 42,18 58,24 15,7 27,16 27,22 0,5 8,10 18,10 10,0 24,9 32,20 8,11 20,20 27,20 6,0 29,16 50,35 21,19 54,40 74,45 30,8 40,18 52,49 13,32 20,38 40,34 18,-4 33,5 62,36 22,23 45,41 52,41 7,0 13,8 13,18 0,17 50,52 76,52 8,0 19,11 24,25 5,14 16,25 24,25 7,0 16,7 20,15 3,8 10,15 16,15 6,0 16,4 23,10 96,77 130,100 147,100 12,0 30,9 41,19 21,20 124,61 153,61 9,0 16,5 16,11 0,6 9,9 20,6 11,-3 20,-1 20,3 0,11 42,20 128,28 67,7 99,6 180,-4 z m -1717,-924 c 6,-16 15,-30 21,-30 5,0 7,-9 3,-20 -3,-11 1,-35 10,-54 9,-19 14,-40 10,-46 -3,-5 -2,-25 4,-43 6,-17 15,-60 22,-95 7,-34 16,-65 20,-68 5,-2 5,-15 0,-27 -4,-12 -7,-26 -5,-32 2,-5 10,-82 19,-170 9,-88 18,-173 21,-190 6,-33 6,-47 5,-225 0,-70 4,-126 9,-128 6,-2 6,-11 -1,-23 -6,-12 -8,-82 -6,-187 3,-92 5,-171 5,-177 0,-5 -2,-68 -5,-139 -2,-73 0,-133 5,-138 6,-6 6,-25 0,-50 -4,-22 -6,-55 -2,-74 10,-56 11,-178 2,-191 -5,-7 -6,-22 -2,-35 4,-13 8,-68 9,-123 3,-106 11,-201 26,-300 5,-33 9,-78 9,-100 0,-22 4,-46 8,-53 5,-7 6,-32 1,-55 -4,-23 -4,-44 1,-47 4,-3 11,-27 15,-55 9,-66 61,-267 85,-330 32,-85 87,-189 114,-214 14,-14 26,-32 26,-41 0,-16 64,-55 87,-53 6,0 10,-5 8,-11 -10,-26 32,-52 121,-74 157,-38 211,-29 406,68 142,70 171,87 188,107 8,10 24,19 35,21 34,6 69,48 69,84 1,28 5,33 38,43 20,5 40,13 44,18 4,4 18,7 30,7 13,0 26,5 29,10 3,6 17,10 31,10 13,0 34,11 46,25 12,14 29,25 39,25 10,0 19,4 21,8 4,9 105,52 123,52 7,0 18,7 26,16 7,8 21,13 31,11 9,-3 61,2 115,11 54,8 107,15 118,15 111,-3 221,-12 270,-22 33,-6 87,-16 120,-22 33,-6 64,-14 70,-20 5,-5 23,-9 41,-9 17,0 62,-12 100,-27 38,-14 87,-27 109,-27 26,-1 45,-7 53,-18 7,-10 24,-18 37,-18 13,0 27,-4 30,-10 3,-5 15,-10 25,-10 10,0 25,-7 34,-15 8,-8 22,-15 30,-15 9,0 16,-4 16,-10 0,-5 9,-10 20,-10 11,0 20,-4 20,-8 0,-4 20,-14 45,-21 25,-7 45,-17 45,-22 0,-5 9,-9 20,-9 11,0 20,-4 20,-10 0,-5 14,-10 30,-10 17,0 30,-4 30,-8 0,-10 65,-42 85,-42 7,0 15,-3 17,-7 2,-5 56,-25 121,-46 95,-31 121,-36 133,-26 11,9 18,8 35,-7 17,-15 42,-19 171,-22 132,-4 152,-2 160,12 5,9 14,16 21,16 19,0 78,60 71,72 -4,6 -3,8 3,5 13,-8 77,61 91,98 29,80 21,172 -24,273 -13,30 -24,63 -24,73 0,10 -9,23 -20,29 -12,6 -20,21 -20,36 0,16 -10,34 -25,46 -14,11 -25,30 -25,44 0,13 -5,24 -12,24 -17,0 -48,31 -48,48 0,9 -9,25 -20,37 -18,19 -53,77 -83,135 -6,14 -25,45 -42,70 -16,25 -30,47 -31,48 -2,2 -10,-1 -20,-6 -25,-14 -40,5 -53,64 -5,27 -14,68 -19,92 -5,23 -17,51 -26,61 -9,9 -16,26 -16,35 0,10 -11,31 -25,48 -14,16 -25,38 -25,49 0,22 -20,61 -37,72 -6,4 -15,28 -19,52 -3,25 -10,45 -14,45 -4,0 -16,17 -25,38 -10,20 -26,55 -36,76 -10,22 -21,54 -25,73 -3,18 -9,33 -13,33 -4,0 -13,27 -20,60 -8,33 -17,60 -22,60 -5,0 -9,6 -9,14 0,7 -7,19 -15,26 -11,9 -12,17 -5,31 8,14 6,24 -7,39 -10,11 -18,31 -19,43 0,12 -4,72 -7,132 -5,71 -3,124 4,150 10,36 16,70 18,101 1,12 41,27 49,19 3,-2 -3,-16 -12,-30 -22,-33 -36,-108 -24,-129 6,-11 5,-16 -3,-16 -24,0 14,-273 43,-307 7,-8 13,-32 14,-53 1,-22 9,-49 18,-62 9,-12 16,-35 16,-50 0,-16 5,-28 10,-28 9,0 15,-10 40,-75 5,-11 18,-41 29,-66 12,-25 21,-52 21,-61 0,-9 7,-18 15,-22 8,-3 15,-11 15,-18 0,-7 11,-33 24,-58 13,-25 33,-64 45,-87 12,-24 26,-43 32,-43 6,0 9,-6 6,-14 -8,-20 55,-108 114,-157 49,-42 51,-45 45,-82 -6,-36 0,-51 70,-171 43,-72 86,-142 96,-155 10,-13 18,-30 18,-37 0,-7 11,-25 25,-40 14,-15 25,-35 25,-44 0,-10 7,-23 15,-30 8,-7 15,-22 15,-34 0,-12 9,-28 20,-36 24,-17 50,-71 75,-153 25,-84 18,-209 -15,-263 -57,-91 -146,-164 -201,-164 -11,0 -19,-4 -19,-9 0,-5 -24,-12 -53,-15 -29,-4 -58,-11 -65,-15 -8,-5 -30,-3 -50,5 -20,6 -70,14 -111,17 -56,3 -78,9 -87,22 -8,10 -20,15 -29,11 -9,-3 -26,0 -38,8 -12,7 -44,19 -72,26 -27,7 -54,17 -60,21 -5,4 -27,10 -47,14 -21,4 -38,11 -38,16 0,5 -8,9 -17,9 -10,0 -27,7 -37,15 -11,8 -30,15 -43,15 -13,0 -23,5 -23,10 0,6 -11,10 -25,10 -14,0 -25,4 -25,9 0,5 -13,12 -30,16 -16,4 -30,11 -30,15 0,5 -16,12 -35,16 -19,3 -35,10 -35,15 0,5 -11,9 -25,9 -14,0 -25,4 -25,9 0,5 -21,12 -47,16 -48,7 -83,21 -93,36 -5,8 -104,37 -217,65 -35,9 -63,19 -63,24 0,4 -18,8 -40,8 -22,0 -55,5 -73,11 -104,32 -475,34 -534,2 -12,-6 -36,-11 -53,-11 -17,0 -45,-7 -61,-16 -17,-8 -40,-17 -51,-19 -11,-3 -39,-13 -62,-24 -22,-10 -51,-22 -63,-26 -13,-3 -23,-13 -23,-21 0,-8 -7,-17 -15,-20 -8,-4 -15,-12 -15,-19 0,-7 -16,-32 -35,-55 -19,-23 -35,-46 -35,-51 0,-12 -37,-12 -44,0 -6,10 -90,-30 -121,-58 -11,-10 -30,-22 -42,-25 -11,-4 -27,-13 -33,-21 -7,-8 -22,-15 -35,-15 -13,0 -27,-10 -35,-25 -8,-14 -24,-28 -37,-30 -13,-3 -34,-7 -48,-10 -14,-3 -25,-12 -25,-21 0,-8 -4,-13 -9,-10 -5,3 -26,0 -47,-8 -22,-7 -78,-19 -125,-26 -102,-15 -185,-4 -266,36 -34,16 -60,23 -74,19 -15,-5 -19,-4 -14,4 4,7 -27,44 -79,93 -47,44 -83,84 -81,88 3,4 -4,19 -15,33 -11,14 -20,31 -20,37 0,7 -7,24 -15,38 -27,50 -48,107 -46,127 1,11 -7,46 -18,79 -12,32 -26,108 -32,170 -6,61 -15,119 -20,128 -5,10 -9,35 -9,55 0,21 -5,54 -10,74 -5,19 -12,85 -15,145 -3,60 -8,125 -11,144 -3,19 -6,342 -8,717 -3,631 -8,780 -36,1078 -5,50 -11,119 -13,155 -8,102 -82,388 -108,415 -19,19 -10,45 17,45 19,0 28,-7 35,-30 z m 2571,-457 c 9,-10 19,-31 22,-48 6,-28 37,-55 89,-77 9,-4 17,-13 17,-20 0,-7 17,-29 36,-48 20,-19 40,-45 45,-57 5,-13 15,-24 24,-24 8,-1 21,-2 28,-3 6,0 12,-6 12,-13 0,-20 44,-63 64,-63 10,0 21,-7 25,-15 3,-8 12,-15 19,-15 8,0 41,-13 73,-30 32,-16 67,-30 77,-30 9,0 17,-4 17,-10 0,-5 9,-10 20,-10 10,0 41,-7 67,-16 33,-11 48,-13 51,-5 6,18 22,13 22,-8 0,-16 -7,-18 -47,-16 -63,3 -113,14 -113,26 0,5 -12,9 -26,9 -15,0 -60,16 -101,35 -41,19 -79,35 -83,35 -5,0 -12,9 -15,20 -6,20 -25,28 -75,33 -30,2 -49,24 -43,48 3,12 -5,22 -29,33 -61,30 -129,106 -142,159 -3,15 -11,27 -16,27 -6,0 -10,6 -10,13 0,7 -10,17 -22,22 -14,6 -24,21 -26,38 -4,32 16,37 40,10 z m 2043,-5413 c 176,-22 246,-34 251,-42 3,-4 18,-8 33,-8 30,0 81,-20 81,-32 0,-5 11,-8 25,-8 14,0 25,-4 25,-9 0,-5 18,-12 40,-16 22,-4 43,-12 47,-19 5,-7 29,-23 56,-36 26,-13 55,-32 64,-42 9,-10 24,-18 35,-18 10,0 18,-7 18,-15 0,-8 6,-15 14,-15 8,0 18,-9 21,-20 3,-11 12,-20 18,-20 19,-1 72,-48 63,-57 -4,-4 -13,-1 -19,8 -7,9 -22,19 -35,23 -12,4 -22,12 -22,17 0,5 -7,9 -15,9 -9,0 -18,6 -21,14 -3,8 -16,17 -30,20 -13,4 -24,11 -24,16 0,6 -7,10 -15,10 -8,0 -15,4 -15,9 0,5 -13,12 -29,16 -15,3 -38,17 -50,30 -11,14 -29,25 -40,25 -10,0 -24,6 -30,14 -6,7 -29,16 -51,20 -26,4 -40,12 -40,21 0,10 -10,15 -30,15 -16,0 -30,5 -30,10 0,6 -12,10 -27,9 -16,-1 -54,6 -86,15 -49,15 -135,21 -249,19 -10,-1 -48,-1 -85,-1 -38,0 -79,0 -93,-1 -36,-1 -123,-22 -137,-33 -7,-5 -17,-7 -22,-3 -10,6 -105,-17 -146,-35 -11,-5 -49,-18 -84,-30 -34,-12 -72,-31 -82,-41 -10,-10 -30,-19 -43,-19 -14,0 -37,-11 -53,-24 -15,-13 -37,-25 -48,-27 -15,-3 -20,-12 -20,-37 0,-31 -3,-34 -65,-58 -36,-14 -72,-29 -80,-34 -8,-6 -28,-16 -45,-23 -16,-8 -39,-24 -49,-36 -11,-11 -27,-21 -36,-21 -20,0 -40,-19 -40,-40 0,-12 -10,-16 -35,-16 -23,0 -42,-7 -55,-22 -12,-12 -30,-22 -41,-22 -11,0 -33,-14 -50,-31 -19,-19 -41,-31 -56,-31 -14,0 -34,-9 -44,-19 -10,-10 -31,-21 -46,-25 -16,-3 -57,-14 -93,-25 -111,-32 -181,-42 -270,-35 -96,7 -230,38 -263,61 -12,8 -28,15 -37,15 -19,1 -60,34 -60,49 0,19 49,12 71,-10 15,-15 33,-21 65,-21 24,0 44,-4 44,-9 0,-11 41,-30 80,-37 14,-3 92,-6 173,-6 145,-1 149,0 168,23 10,13 19,18 19,11 0,-13 25,-7 87,21 24,10 48,19 54,19 6,0 18,9 27,21 11,12 34,23 60,26 38,5 43,9 40,27 -4,19 0,21 35,17 37,-3 39,-2 35,25 -2,23 1,28 14,26 9,-1 34,7 55,18 21,11 43,20 50,20 6,0 15,9 18,20 3,11 10,20 14,20 4,0 18,9 31,20 13,11 28,20 35,20 6,0 18,12 26,28 32,63 89,135 89,113 0,-20 40,-21 79,-1 22,11 52,20 66,20 14,0 25,4 25,10 0,5 15,17 33,26 17,9 34,20 37,23 7,8 88,37 175,62 39,12 78,25 88,31 11,5 59,15 109,23 50,7 95,19 102,25 12,12 82,9 241,-10 z m -2930,-24 c 22,-1 66,-3 98,-4 40,-1 57,-6 57,-16 0,-22 -99,-28 -172,-11 -88,21 -193,19 -243,-4 -22,-10 -62,-42 -90,-70 -27,-28 -54,-51 -59,-51 -6,0 -20,10 -33,22 -13,12 -23,16 -23,10 0,-7 -7,-12 -15,-12 -8,0 -15,-7 -15,-15 0,-8 -7,-15 -15,-15 -8,0 -15,-6 -15,-14 0,-8 -10,-22 -21,-30 -12,-8 -19,-21 -16,-28 3,-9 -6,-19 -24,-27 -16,-7 -29,-19 -29,-27 0,-8 -4,-14 -9,-14 -5,0 -12,-12 -15,-26 -4,-16 -19,-30 -41,-40 -19,-8 -35,-18 -35,-24 0,-12 -59,-56 -87,-65 -19,-5 -23,-2 -23,14 0,24 44,60 84,68 16,3 31,14 33,24 3,10 14,21 24,24 10,4 19,11 19,16 0,5 6,9 14,9 8,0 18,19 25,45 6,25 18,48 26,51 8,4 15,11 15,16 0,13 56,68 69,68 6,0 11,5 11,10 0,6 8,10 19,10 11,0 21,9 25,23 9,35 7,47 -9,47 -16,0 -21,16 -7,23 4,2 36,1 72,-3 37,-4 76,-3 90,3 62,24 86,25 315,13 z m 345,-136 c 11,-21 20,-46 20,-54 0,-8 8,-21 18,-28 24,-16 42,-51 42,-77 0,-12 7,-21 15,-21 8,0 15,-7 15,-15 0,-8 6,-15 13,-16 13,0 53,-46 63,-73 4,-12 0,-16 -15,-16 -12,0 -24,7 -27,15 -4,8 -14,15 -24,15 -13,0 -16,6 -12,25 3,18 0,25 -12,25 -9,0 -16,8 -16,20 0,11 -5,20 -11,20 -6,0 -22,14 -36,30 -13,17 -29,28 -34,24 -5,-3 -4,7 1,21 13,34 13,35 -4,35 -7,0 -23,22 -35,49 -26,61 -26,61 -1,61 13,0 27,-14 40,-40 z m 3418,-228 c 6,-18 -15,-14 -22,4 -4,10 -1,14 6,12 6,-2 14,-10 16,-16 z m 80,-71 c 3,-8 -1,-12 -9,-9 -7,2 -15,10 -17,17 -3,8 1,12 9,9 7,-2 15,-10 17,-17 z m -3258,-37 c 0,-8 10,-14 25,-14 18,0 25,-5 25,-19 0,-10 9,-21 20,-24 12,-3 20,-14 20,-26 0,-28 -40,-29 -47,-1 -3,11 -10,20 -15,20 -5,0 -23,12 -39,27 -34,33 -39,64 -9,56 11,-3 20,-12 20,-19 z m 3305,-11 c 5,-12 19,-26 32,-32 13,-6 23,-16 23,-22 0,-6 6,-9 13,-6 8,3 13,-9 14,-42 l 1,-46 -15,28 c -10,21 -20,27 -33,24 -11,-3 -18,-2 -17,2 4,13 -29,71 -40,71 -7,0 -13,12 -13,26 0,30 20,28 35,-3 z m -4641,-71 c 22,-15 50,-47 63,-72 13,-25 32,-52 42,-60 22,-17 115,-209 126,-257 3,-18 13,-33 20,-33 8,0 11,-7 8,-18 -2,-9 1,-38 7,-62 7,-25 14,-58 17,-75 3,-16 12,-37 20,-46 9,-11 12,-26 7,-43 -4,-16 -2,-26 5,-26 6,0 11,-9 11,-19 0,-11 4,-22 10,-26 6,-4 5,-15 -2,-30 -8,-18 -8,-28 0,-38 17,-20 52,-135 52,-168 0,-16 5,-29 10,-29 6,0 10,-9 10,-20 0,-11 9,-34 20,-52 11,-18 20,-40 20,-48 0,-8 7,-28 15,-44 8,-15 15,-35 15,-42 0,-8 4,-14 9,-14 5,0 17,-16 27,-36 11,-20 27,-51 36,-70 10,-18 27,-38 38,-44 11,-6 20,-20 20,-30 0,-11 7,-20 15,-20 8,0 15,-4 15,-9 0,-5 15,-13 33,-17 17,-3 43,-15 56,-25 13,-11 31,-19 40,-19 10,0 21,-4 27,-8 16,-15 117,-31 204,-33 47,0 108,-5 135,-9 100,-17 260,-31 278,-25 9,4 17,13 17,21 0,20 27,17 48,-4 20,-20 82,-45 90,-37 3,2 13,0 24,-6 11,-6 40,-14 66,-19 26,-5 90,-18 142,-30 52,-12 105,-23 117,-24 12,-1 28,-8 36,-14 7,-6 58,-21 112,-32 54,-10 101,-23 104,-28 3,-5 24,-12 46,-15 22,-4 41,-11 43,-17 2,-5 21,-13 43,-16 21,-4 39,-10 39,-15 0,-5 9,-9 20,-9 11,0 20,-4 20,-10 0,-5 10,-10 23,-10 13,0 28,-5 34,-11 6,-6 31,-11 56,-12 38,-2 47,-6 49,-22 2,-14 12,-21 32,-23 18,-2 30,-11 33,-23 4,-13 14,-19 33,-19 15,0 33,-7 40,-15 7,-8 21,-15 32,-15 10,0 41,-12 69,-26 28,-14 57,-23 64,-20 7,2 17,-6 24,-20 7,-16 19,-24 35,-24 14,0 31,-7 40,-15 8,-8 19,-15 25,-15 6,0 31,-9 56,-21 25,-12 52,-19 60,-15 11,4 19,-3 25,-19 7,-18 17,-25 35,-25 14,0 25,-4 25,-10 0,-5 9,-10 19,-10 11,0 22,-4 25,-9 3,-4 25,-11 48,-15 23,-4 45,-11 48,-16 5,-9 78,-21 302,-51 51,-7 110,-9 145,-4 32,4 81,9 108,11 75,4 226,38 250,54 16,11 133,50 150,50 8,0 15,5 15,10 0,6 7,10 15,10 8,0 15,5 15,10 0,6 11,10 24,10 14,0 38,13 54,30 17,17 36,30 42,30 7,0 21,11 32,25 11,14 28,25 38,25 9,0 23,7 30,15 15,18 30,20 30,4 0,-6 -9,-13 -20,-16 -11,-3 -20,-13 -20,-23 0,-17 -38,-40 -65,-40 -8,0 -15,-6 -15,-13 0,-8 -18,-20 -41,-27 -23,-8 -43,-20 -46,-27 -3,-7 -14,-13 -24,-13 -10,0 -19,-4 -19,-10 0,-5 -7,-10 -15,-10 -9,0 -25,-9 -37,-20 -12,-11 -29,-20 -37,-20 -9,0 -43,-11 -76,-25 -33,-13 -75,-25 -92,-25 -22,0 -33,-5 -33,-15 0,-9 -6,-12 -15,-9 -24,10 -124,-6 -139,-22 -8,-7 -16,-10 -18,-5 -2,4 -22,10 -45,14 -36,4 -43,2 -43,-11 0,-10 -3,-13 -8,-7 -4,6 -47,11 -97,11 -129,2 -227,12 -239,24 -5,5 -27,10 -47,10 -21,0 -45,7 -54,16 -9,9 -24,14 -36,11 -13,-3 -28,2 -40,14 -10,10 -30,19 -44,19 -14,0 -25,5 -25,10 0,6 -11,10 -25,10 -14,0 -25,4 -25,9 0,5 -26,17 -57,27 -60,18 -136,49 -163,65 -8,5 -32,16 -52,25 -21,9 -38,20 -38,25 0,5 -9,9 -20,9 -11,0 -20,5 -20,11 0,6 -15,9 -37,7 -32,-2 -40,1 -48,20 -7,16 -16,22 -31,19 -16,-3 -20,0 -17,14 4,14 -3,19 -32,25 -20,3 -39,13 -42,20 -3,8 -18,14 -34,14 -17,0 -32,6 -35,15 -4,8 -17,15 -30,15 -13,0 -24,5 -24,10 0,6 -11,10 -25,10 -14,0 -25,5 -25,10 0,6 -9,10 -20,10 -11,0 -20,5 -20,10 0,6 -11,10 -25,10 -14,0 -25,4 -25,9 0,6 -27,15 -60,22 -33,6 -60,15 -60,19 0,4 -17,10 -37,13 -21,2 -69,15 -108,27 -38,13 -93,24 -121,24 -28,1 -57,6 -65,12 -8,7 -30,14 -49,17 -19,3 -66,13 -105,21 -94,20 -189,20 -245,-1 -25,-9 -49,-22 -53,-27 -5,-6 -6,0 -3,15 11,50 -14,66 -111,73 -49,3 -108,8 -133,10 -25,2 -92,7 -150,11 -166,10 -286,47 -338,102 -16,17 -31,24 -46,21 -19,-4 -22,-1 -18,14 3,11 -1,18 -10,18 -8,0 -22,18 -32,40 -10,22 -22,40 -27,40 -5,0 -9,9 -9,20 0,11 -11,27 -25,36 -14,9 -25,25 -25,35 0,11 -4,19 -10,19 -5,0 -10,11 -10,25 0,14 -4,25 -9,25 -12,0 -41,74 -41,105 0,14 -4,25 -10,25 -5,0 -10,14 -10,30 0,17 -4,30 -10,30 -5,0 -10,8 -10,18 0,10 -4,22 -9,27 -11,13 -31,97 -31,134 0,16 -4,33 -10,36 -5,3 -10,23 -10,44 0,20 -4,41 -9,47 -12,13 -37,99 -52,179 -7,40 -20,78 -31,88 -10,10 -18,25 -18,33 0,25 -90,202 -106,208 -8,3 -14,14 -14,25 0,21 -120,151 -139,151 -6,0 -11,9 -11,21 0,26 27,20 84,-19 z m 4766,-108 c 0,-8 5,-14 10,-14 6,0 10,-6 10,-14 0,-7 11,-25 25,-40 14,-15 25,-33 25,-41 0,-7 6,-20 13,-27 18,-18 30,-68 17,-68 -5,0 -10,7 -10,15 0,9 -18,42 -39,75 -22,32 -42,68 -46,79 -3,10 -12,25 -20,31 -19,16 -19,31 0,24 8,-4 15,-12 15,-20 z m 146,-251 c 4,-16 16,-43 26,-61 22,-39 24,-92 4,-92 -7,0 -16,14 -20,31 -3,17 -15,43 -26,59 -14,20 -18,37 -14,59 8,38 21,40 30,4 z m 78,-179 c 3,-9 6,-26 6,-38 0,-12 4,-26 9,-31 18,-20 33,-114 37,-235 2,-69 6,-139 9,-157 3,-17 1,-34 -5,-38 -6,-4 -8,-16 -4,-27 3,-11 2,-30 -4,-42 -5,-11 -15,-61 -21,-110 -6,-49 -15,-92 -20,-95 -11,-8 -31,-78 -31,-113 0,-16 -4,-28 -10,-28 -5,0 -10,-9 -10,-20 0,-11 -4,-20 -10,-20 -5,0 -10,-12 -10,-26 0,-14 -7,-33 -16,-41 -9,-10 -14,-27 -12,-43 3,-22 1,-26 -13,-23 -12,4 -19,-3 -24,-26 -5,-26 -29,-51 -48,-51 -13,0 8,52 24,61 11,5 19,20 19,32 0,12 9,28 20,35 11,7 20,22 20,34 0,28 22,88 32,88 5,0 6,11 2,24 -3,15 -1,27 8,33 20,11 44,128 55,258 3,39 10,75 15,82 12,15 8,240 -5,273 -6,14 -9,29 -8,34 4,17 -22,147 -31,152 -14,9 -9,74 6,74 8,0 17,-7 20,-16 z m -190,-1203 c 6,-10 -22,-37 -29,-29 -8,7 5,38 15,38 5,0 11,-4 14,-9 z m -44,-48 c 0,-23 -9,-35 -37,-51 -14,-7 -23,-8 -23,-2 0,5 5,10 10,10 6,0 10,8 10,18 0,19 18,42 32,42 4,0 8,-8 8,-17 z m -86,-98 c -6,-16 -24,-21 -24,-7 0,11 11,22 21,22 5,0 6,-7 3,-15 z m -77,-72 c -9,-9 -19,-14 -23,-11 -10,10 6,28 24,28 15,0 15,-1 -1,-17 z M 2573,9080 c 31,-12 57,-25 57,-29 0,-5 13,-11 28,-14 16,-3 40,-17 53,-31 13,-14 35,-26 47,-26 15,0 26,-7 29,-20 3,-11 17,-23 32,-26 38,-9 98,-52 104,-75 3,-11 14,-19 27,-19 13,0 24,-8 27,-20 3,-12 14,-20 27,-20 27,0 176,-96 176,-114 0,-8 15,-17 35,-20 19,-4 43,-15 53,-25 9,-10 38,-24 65,-31 26,-7 50,-17 53,-21 3,-5 16,-9 30,-9 13,0 24,-4 24,-9 0,-25 479,-33 627,-10 43,7 92,13 108,14 17,1 41,6 55,12 14,6 58,18 98,28 40,9 79,23 85,30 7,7 28,11 47,9 40,-4 168,60 185,92 12,23 70,18 70,-6 0,-11 14,-16 53,-18 31,-2 52,1 52,7 0,6 10,11 22,11 12,0 35,4 52,9 17,6 58,15 91,22 33,7 65,16 70,19 6,4 24,10 40,13 17,3 75,15 130,27 55,12 129,28 165,35 36,7 65,14 65,15 0,1 11,3 25,5 14,1 81,10 150,19 69,8 169,16 222,16 53,0 99,3 101,8 6,9 75,6 147,-7 30,-5 82,-14 115,-19 95,-15 220,-45 223,-54 2,-4 15,-8 30,-8 40,0 238,-68 338,-116 28,-13 58,-24 66,-24 9,0 18,-6 21,-13 3,-7 28,-24 56,-37 28,-14 51,-30 51,-37 0,-7 12,-13 26,-13 17,0 28,-6 31,-20 3,-11 14,-20 25,-20 11,0 33,-13 50,-30 16,-16 32,-30 35,-30 10,0 53,-45 53,-56 0,-12 55,-64 68,-64 12,0 62,-54 62,-68 0,-7 7,-12 16,-12 9,0 18,-9 21,-19 3,-11 13,-21 24,-24 10,-3 22,-13 25,-24 4,-10 20,-30 36,-45 30,-29 37,-58 13,-58 -8,0 -15,9 -15,19 0,11 -15,28 -35,41 -19,12 -40,30 -45,41 -6,10 -17,19 -25,19 -8,0 -15,9 -15,20 0,11 -8,23 -17,27 -25,8 -63,44 -63,59 0,6 -12,20 -27,29 -44,29 -93,77 -93,92 0,7 -9,13 -20,13 -30,0 -69,21 -75,41 -3,9 -17,20 -30,23 -14,4 -25,13 -25,21 0,8 -8,15 -19,15 -20,0 -107,45 -116,61 -4,5 -16,9 -27,9 -11,0 -26,6 -32,14 -14,17 -194,93 -252,106 -25,6 -63,19 -84,30 -22,11 -57,20 -78,20 -22,0 -57,6 -78,14 -60,20 -380,51 -412,40 -17,-6 -36,-6 -53,0 -30,11 -251,-10 -284,-27 -11,-6 -39,-9 -62,-8 -24,1 -51,-3 -62,-9 -11,-5 -46,-14 -78,-20 -90,-14 -117,-21 -134,-37 -13,-11 -18,-11 -21,-1 -4,10 -12,10 -45,0 -22,-7 -53,-12 -69,-12 -16,0 -62,-9 -102,-20 -39,-11 -83,-20 -96,-20 -14,0 -28,-4 -31,-10 -3,-5 -19,-10 -36,-10 -16,0 -29,-4 -29,-9 0,-6 -15,-11 -32,-13 -29,-3 -33,-6 -33,-34 l 0,-30 -50,8 c -59,10 -153,2 -204,-17 -35,-14 -108,-30 -181,-42 -19,-3 -41,-10 -49,-16 -7,-6 -27,-10 -45,-9 -17,2 -54,-6 -82,-16 -35,-13 -57,-16 -68,-10 -9,5 -22,6 -28,2 -18,-11 -35,-13 -203,-19 -88,-4 -177,-2 -215,4 -42,7 -66,7 -68,1 -2,-5 -11,-3 -19,6 -9,9 -28,14 -45,12 -16,-1 -32,2 -36,8 -4,6 -27,14 -50,18 -49,7 -122,41 -122,56 0,6 -14,10 -30,10 -18,0 -37,8 -47,20 -10,11 -23,20 -29,20 -6,0 -40,19 -75,42 -34,23 -74,42 -88,43 -21,0 -25,4 -23,23 2,15 -4,25 -20,31 -13,5 -30,18 -38,30 -8,12 -22,21 -31,21 -9,0 -24,9 -34,20 -10,11 -26,22 -36,25 -11,4 -19,13 -19,21 0,8 -10,14 -24,14 -13,0 -29,7 -36,14 -6,8 -32,25 -57,37 -24,12 -47,28 -50,35 -3,8 -18,14 -35,14 -16,0 -38,5 -49,11 -34,18 -126,39 -184,41 -49,2 -55,5 -55,24 0,16 7,24 23,26 30,4 170,-26 240,-52 z m -403,-90 c 0,-12 -13,-34 -30,-50 -16,-16 -30,-33 -30,-37 0,-4 -14,-40 -32,-80 -26,-56 -38,-72 -54,-73 -22,0 -74,-42 -74,-59 0,-11 -62,-51 -79,-51 -6,0 -11,5 -11,11 0,16 54,79 68,79 6,0 12,8 12,18 0,10 6,24 13,31 10,11 10,14 0,18 -22,8 -14,43 15,68 15,13 51,34 80,47 28,12 52,24 52,27 0,3 9,21 20,39 22,36 50,43 50,12 z m -186,-519 c 21,-20 52,-51 69,-68 17,-18 36,-33 43,-33 7,0 15,-8 18,-18 7,-22 106,-120 137,-136 15,-7 27,-26 34,-51 13,-51 52,-115 71,-115 8,0 14,-9 14,-21 0,-22 16,-42 43,-52 9,-3 17,-16 17,-27 0,-11 4,-20 8,-20 13,0 89,-151 121,-239 16,-43 35,-112 42,-152 7,-41 16,-76 20,-79 10,-7 69,-186 69,-210 0,-11 3,-20 8,-20 4,0 13,-19 20,-42 7,-23 29,-74 48,-115 19,-40 34,-76 34,-79 0,-3 14,-25 30,-49 17,-24 30,-46 30,-49 0,-11 80,-112 101,-126 12,-8 34,-24 48,-36 60,-47 281,-133 314,-121 7,2 23,0 37,-5 60,-23 697,-6 895,22 88,13 118,16 231,18 82,2 94,5 118,27 20,18 32,23 44,16 9,-4 42,-14 72,-21 30,-7 64,-18 76,-25 13,-9 60,-14 132,-14 61,-1 123,-6 137,-11 14,-5 63,-12 110,-14 46,-3 92,-9 102,-14 10,-5 38,-13 63,-17 48,-8 154,-40 182,-56 10,-5 27,-9 38,-9 11,0 23,-6 26,-14 3,-8 29,-20 57,-26 61,-14 111,-36 150,-67 16,-13 36,-23 46,-23 10,0 27,-11 39,-25 12,-14 31,-25 42,-25 11,0 20,-7 20,-15 0,-8 9,-15 20,-15 11,0 56,-20 100,-44 44,-25 80,-42 80,-39 0,2 14,-7 31,-21 17,-14 39,-26 50,-26 10,0 19,-5 19,-11 0,-6 9,-9 20,-6 11,3 20,2 20,-2 0,-3 15,-14 33,-23 92,-49 371,-84 462,-58 116,33 143,40 175,49 97,27 281,106 288,123 2,4 9,8 15,8 6,0 37,18 68,40 32,22 62,40 68,40 6,0 18,11 27,25 9,14 21,25 27,25 15,0 57,41 57,55 0,16 47,55 65,55 8,0 15,9 15,20 0,11 9,25 20,32 11,7 20,17 20,22 0,9 86,184 99,201 5,5 12,27 15,49 4,21 11,46 15,55 28,56 67,309 55,361 -3,14 -5,50 -5,82 1,31 -6,87 -15,125 -8,37 -19,86 -24,108 -4,22 -13,41 -18,43 -5,1 -8,12 -5,22 3,11 -2,35 -10,52 -9,18 -19,47 -23,63 -4,17 -10,35 -14,40 -3,6 -14,31 -24,57 -9,25 -24,52 -32,58 -7,7 -14,20 -14,30 0,9 -8,25 -19,34 -10,9 -21,29 -24,44 -4,15 -18,40 -32,56 -14,16 -25,35 -25,42 0,7 -3,20 -7,29 -5,15 -3,16 15,6 12,-7 22,-18 22,-25 0,-7 11,-18 24,-24 13,-6 32,-28 43,-49 10,-21 23,-37 29,-36 7,1 9,-8 6,-22 -2,-14 4,-36 15,-52 19,-28 53,-96 53,-107 0,-3 11,-29 24,-58 14,-29 27,-69 29,-89 3,-20 7,-41 11,-47 3,-6 15,-56 27,-113 30,-150 29,-461 -1,-569 -12,-41 -28,-105 -37,-142 -9,-38 -19,-68 -23,-68 -5,0 -22,-28 -38,-62 -17,-35 -42,-75 -56,-90 -14,-15 -26,-34 -26,-42 0,-8 -16,-32 -35,-53 -19,-21 -35,-41 -35,-45 0,-5 -20,-17 -45,-29 -34,-16 -45,-27 -45,-44 0,-15 -8,-26 -20,-30 -11,-3 -20,-10 -20,-14 0,-4 -17,-16 -37,-27 -21,-10 -46,-29 -56,-41 -9,-12 -28,-25 -40,-29 -12,-4 -34,-15 -49,-25 -14,-11 -33,-19 -42,-19 -8,0 -19,-6 -23,-13 -4,-8 -17,-16 -28,-20 -11,-3 -45,-15 -75,-27 -30,-12 -68,-26 -85,-30 -16,-5 -50,-16 -74,-25 -57,-21 -243,-38 -351,-32 -103,5 -357,74 -368,100 -2,4 -14,7 -26,7 -13,0 -31,9 -40,19 -10,11 -28,22 -41,25 -26,7 -119,64 -153,95 -12,12 -30,21 -39,21 -9,0 -24,6 -32,14 -9,8 -41,28 -71,44 -30,17 -82,45 -115,63 -33,18 -64,39 -68,46 -4,7 -25,13 -45,13 -21,0 -42,4 -47,9 -6,5 -44,19 -85,31 -41,11 -84,25 -95,30 -21,9 -42,13 -157,30 -178,26 -220,31 -310,37 -89,5 -102,3 -162,-21 -82,-32 -103,-33 -118,-1 -10,23 -14,24 -92,20 -45,-2 -151,-10 -236,-19 -349,-34 -456,-39 -689,-33 -130,3 -252,10 -271,16 -19,5 -71,17 -115,27 -110,23 -291,117 -316,163 -9,18 -24,40 -32,49 -9,10 -20,28 -26,42 -6,14 -20,39 -30,55 -11,17 -27,51 -36,76 -8,25 -24,63 -35,85 -11,21 -20,44 -20,52 0,8 -6,26 -14,40 -18,34 -46,128 -46,153 0,11 -4,19 -8,19 -11,0 -32,69 -32,104 0,14 -4,26 -8,26 -5,0 -19,37 -31,83 -28,106 -54,174 -102,269 -22,42 -39,85 -39,96 0,11 -8,22 -18,25 -11,2 -21,17 -25,34 -4,19 -14,32 -26,36 -12,3 -21,13 -21,22 0,25 -40,77 -100,130 -74,66 -110,107 -110,128 0,9 -5,17 -11,17 -31,0 -209,170 -209,199 0,28 37,16 84,-28 z M 3328,4038 c 54,-19 108,-44 130,-62 20,-18 54,-40 75,-51 21,-11 67,-49 101,-85 106,-109 164,-160 180,-160 8,0 18,-5 21,-10 9,-14 221,-120 240,-120 8,0 15,-4 15,-9 0,-5 21,-12 48,-16 26,-4 54,-11 63,-16 57,-30 449,-78 449,-55 0,6 4,5 9,-2 6,-11 20,-11 67,-3 32,6 75,13 94,15 130,17 219,49 248,89 16,21 55,22 87,1 20,-13 50,-15 191,-11 235,6 378,-16 599,-92 89,-31 190,-85 193,-104 5,-26 -45,-21 -84,8 -18,14 -40,25 -49,25 -9,0 -44,13 -78,28 -34,16 -84,35 -112,42 -27,7 -78,21 -112,31 -122,36 -356,46 -513,21 -42,-7 -45,-9 -42,-35 l 4,-28 -69,8 c -84,10 -142,8 -213,-6 -30,-6 -112,-15 -181,-19 -69,-5 -131,-12 -137,-16 -6,-3 -13,-2 -17,4 -3,5 -30,10 -58,10 -29,1 -72,5 -97,11 -25,5 -76,16 -115,24 -91,18 -114,24 -150,40 -16,7 -48,18 -70,25 -62,19 -266,121 -272,135 -2,7 -16,16 -30,20 -15,3 -68,48 -119,99 -152,153 -303,242 -437,257 -76,9 -83,8 -181,-26 -56,-19 -107,-35 -113,-35 -7,0 -28,-11 -48,-24 -19,-13 -58,-30 -85,-37 -28,-7 -50,-16 -50,-21 0,-5 -24,-19 -54,-32 -29,-13 -57,-29 -60,-35 -4,-6 -16,-11 -26,-11 -10,0 -29,-12 -42,-28 -12,-15 -30,-26 -39,-24 -8,1 -24,-6 -34,-18 -10,-11 -26,-20 -36,-20 -10,0 -44,-25 -74,-55 -31,-30 -63,-55 -71,-55 -18,0 -94,-79 -94,-98 0,-9 -10,-12 -27,-10 -23,2 -28,7 -25,28 3,32 99,130 127,130 11,0 33,16 49,35 18,22 42,37 62,41 23,4 34,12 36,27 2,15 13,23 35,28 17,3 48,20 69,38 21,17 44,31 51,31 7,0 29,11 49,25 21,14 51,25 70,25 23,0 34,5 34,15 0,14 48,45 70,45 6,0 39,13 73,28 95,44 126,54 207,68 96,16 153,10 268,-28 z M 2246,3381 c 15,-11 32,-21 39,-21 20,0 125,-107 125,-128 0,-11 11,-27 25,-36 34,-23 85,-125 116,-236 6,-19 14,-44 18,-55 39,-95 51,-239 51,-605 0,-307 2,-327 40,-420 16,-40 30,-78 30,-85 0,-6 11,-17 25,-23 14,-6 25,-18 25,-27 0,-8 11,-25 25,-37 14,-12 25,-28 25,-35 0,-7 9,-13 19,-13 11,0 33,-11 49,-24 28,-24 79,-46 152,-67 19,-6 44,-14 55,-18 11,-5 65,-17 120,-26 55,-9 114,-21 130,-25 64,-18 174,-40 199,-40 15,0 46,-9 69,-20 l 42,-20 27,20 c 15,11 31,20 36,20 20,0 59,-26 94,-62 20,-21 41,-38 47,-38 5,0 33,-13 61,-30 28,-16 60,-30 70,-30 11,0 20,-4 20,-10 0,-5 8,-10 18,-10 9,0 31,-9 48,-19 17,-10 45,-22 62,-26 18,-3 45,-20 61,-35 16,-16 40,-32 55,-36 14,-3 29,-10 32,-15 3,-5 14,-9 25,-9 10,0 19,-4 19,-10 0,-5 7,-10 15,-10 7,0 18,-6 22,-13 4,-7 24,-18 43,-23 20,-6 39,-19 45,-32 5,-12 18,-22 27,-22 10,0 27,-9 38,-20 11,-11 28,-20 38,-20 9,0 26,-14 37,-30 12,-18 29,-30 43,-30 13,0 22,-6 22,-15 0,-8 6,-15 14,-15 12,0 30,-39 21,-48 -6,-6 -45,18 -45,28 0,6 -6,10 -14,10 -8,0 -17,9 -21,19 -3,12 -17,21 -32,23 -14,2 -31,12 -37,23 -15,27 -38,44 -58,45 -10,0 -22,9 -28,20 -6,11 -19,20 -28,20 -10,0 -25,9 -35,20 -9,11 -26,20 -36,20 -11,0 -24,6 -28,13 -4,7 -30,24 -58,37 -27,14 -51,28 -53,33 -2,4 -12,7 -22,7 -23,0 -90,31 -90,41 0,3 -21,12 -47,19 -27,7 -52,18 -58,25 -5,6 -28,18 -50,25 -22,7 -59,19 -82,27 -24,8 -82,15 -130,16 -79,2 -88,4 -91,22 -7,34 -30,51 -90,65 -31,7 -77,19 -102,27 -25,9 -74,19 -110,24 -224,30 -323,49 -370,72 -18,9 -39,17 -47,17 -7,0 -21,8 -31,18 -10,9 -34,25 -55,34 -20,10 -37,24 -37,33 0,8 -9,15 -20,15 -20,0 -80,71 -80,96 0,7 -11,25 -24,39 -14,15 -35,57 -48,93 -22,65 -23,78 -23,402 0,339 -8,447 -41,560 -8,30 -20,73 -26,95 -13,47 -86,203 -99,211 -5,3 -9,16 -9,30 0,13 -5,24 -11,24 -6,0 -34,24 -62,54 -48,48 -154,116 -184,116 -13,0 -18,32 -7,42 9,10 72,-9 100,-31 z m 3968,-66 c 8,-8 20,-15 26,-15 7,0 25,-11 42,-25 16,-14 35,-25 41,-25 18,0 67,-48 67,-65 0,-9 10,-15 24,-15 17,0 51,-26 112,-85 48,-47 89,-85 91,-85 8,0 103,-101 103,-109 0,-5 19,-33 43,-64 24,-30 52,-71 62,-91 11,-20 23,-36 27,-36 5,0 8,-9 8,-20 0,-11 8,-28 18,-38 26,-28 132,-248 132,-277 0,-14 4,-25 9,-25 14,0 76,-186 99,-295 25,-120 50,-342 46,-420 -7,-143 -55,-404 -84,-450 -11,-18 -20,-42 -20,-54 0,-12 -8,-39 -19,-59 -36,-72 -61,-127 -61,-135 0,-5 -9,-20 -20,-34 -11,-14 -20,-35 -20,-46 0,-11 -16,-34 -35,-53 -19,-18 -35,-40 -35,-50 0,-9 -19,-37 -42,-61 -99,-104 -220,-223 -227,-223 -4,0 -44,-22 -88,-48 -225,-136 -485,-184 -743,-138 -124,22 -334,93 -430,145 -46,24 -61,31 -75,31 -8,0 -20,9 -27,20 -8,12 -24,20 -40,20 -17,0 -33,8 -40,20 -7,11 -18,20 -25,20 -7,0 -13,5 -13,10 0,6 -9,10 -20,10 -11,0 -20,7 -20,15 0,8 -9,15 -19,15 -11,0 -23,4 -26,10 -3,5 -17,10 -31,10 -15,0 -24,6 -24,15 0,8 -9,15 -20,15 -11,0 -20,5 -20,10 0,6 -8,13 -17,17 -17,6 -75,64 -70,70 8,7 47,-12 47,-23 0,-8 7,-14 15,-14 8,0 15,-4 15,-10 0,-5 11,-12 25,-16 14,-3 25,-10 25,-15 0,-5 9,-9 20,-9 10,0 24,-9 31,-21 7,-14 17,-19 30,-16 12,3 19,0 19,-9 0,-8 6,-14 13,-14 7,0 19,-9 27,-20 8,-12 26,-20 42,-20 15,0 37,-9 48,-20 11,-11 26,-20 34,-20 27,0 86,-31 86,-45 0,-10 10,-15 29,-15 17,0 33,-4 36,-10 3,-5 14,-10 24,-10 10,0 46,-12 82,-26 133,-55 314,-95 419,-93 41,0 91,1 110,0 40,-1 226,42 285,65 64,26 77,32 130,64 28,16 64,36 80,44 17,8 48,33 70,55 22,22 45,41 50,41 22,1 135,126 135,148 0,5 15,21 34,36 19,14 44,45 55,70 12,24 28,50 36,56 7,6 17,24 20,40 3,16 13,34 21,41 8,6 14,18 14,26 0,8 8,27 18,41 10,15 24,46 31,70 7,24 19,46 27,49 8,3 14,17 14,32 1,14 8,55 16,91 15,63 24,104 41,185 4,22 8,121 7,220 -1,222 -19,333 -84,525 -12,36 -24,78 -27,94 -3,16 -14,37 -24,47 -11,11 -19,29 -19,42 0,13 -4,27 -9,32 -14,15 -121,228 -121,242 0,6 -8,18 -18,25 -11,7 -25,24 -32,38 -42,81 -373,431 -441,466 -17,8 -38,22 -47,30 -58,50 -90,72 -114,78 -16,3 -28,13 -28,21 0,20 44,20 64,0 z M 4720,835 c 16,-19 0,-19 -26,0 -16,12 -16,14 -3,15 9,0 22,-7 29,-15 z m 64,-40 c 8,-8 19,-15 24,-15 5,0 14,-11 20,-25 11,-23 10,-25 -14,-25 -17,0 -30,9 -42,30 -9,16 -20,30 -24,30 -5,0 -8,5 -8,10 0,15 27,12 44,-5 z"
       id="path8" />
  </g>
  <g
     transform="translate(0.000000,516.480000) scale(0.024000,-0.024000)"
     fill="#000000"
     stroke="none"
     id="g2993">
    <path
       d="M1514 20240 c-17 -6 -17 -7 3 -12 19 -5 20 -8 8 -84 -7 -44 -18 -94 -23 -111 l-11 -33 52 1 c41 0 47 2 30 9 -44 18 -22 92 31 110 20 6 43 18 51 27 21 21 19 80 -3 92 -20 11 -108 11 -138 1z m107 -10 c39 -22 8 -100 -40 -100 -17 0 -18 5 -14 43 5 38 18 67 30 67 2 0 13 -5 24 -10z"
       id="path2995" />
    <path
       d="M1666 20060 c-14 -4 -16 -9 -8 -14 8 -4 12 -35 12 -83 0 -63 -2 -74 -15 -69 -8 3 -15 2 -15 -3 0 -5 16 -11 35 -13 39 -4 66 6 41 15 -13 5 -16 23 -16 86 0 44 -3 82 -7 84 -5 3 -17 1 -27 -3z"
       id="path2997" />
    <path
       d="M1548 19825 c-15 -9 -31 -30 -39 -52 -10 -31 -9 -41 6 -69 32 -59 91 -70 136 -25 23 23 29 38 29 71 0 74 -65 111 -132 75z"
       id="path2999" />
    <path
       d="M5200 19132 c-44 -3 -83 -22 -46 -22 15 0 17 -6 10 -42 -4 -24 -8 -50 -9 -58 -6 -56 -19 -106 -28 -112 -21 -13 0 -19 49 -15 40 3 45 5 26 12 -18 6 -22 13 -18 29 3 11 6 30 6 41 0 15 12 25 49 38 57 20 82 60 63 101 -12 26 -35 32 -102 28z m51 -22 c27 -15 25 -64 -3 -84 -39 -28 -49 -21 -43 30 8 67 12 72 46 54z"
       id="path3001" />
    <path
       d="M5315 18942 c-33 -7 -45 -23 -45 -58 0 -28 4 -34 22 -34 20 0 21 1 3 20 -15 16 -15 22 -5 35 16 20 46 19 54 -1 11 -27 7 -39 -22 -70 -27 -27 -52 -65 -52 -78 0 -7 95 0 108 8 6 4 10 15 9 26 -1 17 -3 18 -17 5 -18 -16 -60 -21 -60 -7 0 5 14 21 30 37 52 50 35 129 -25 117z"
       id="path3003" />
    <path
       d="M5001 18734 c-38 -49 -22 -119 34 -150 28 -15 37 -15 63 -5 38 16 67 68 58 105 -18 74 -113 104 -155 50z"
       id="path3005" />
    <path
       d="M1450 18057 c0 -9 5 -19 11 -23 23 -14 41 -80 40 -143 -1 -45 -8 -80 -26 -119 -31 -67 -26 -79 8 -20 52 89 58 177 18 256 -24 47 -51 73 -51 49z"
       id="path3007" />
    <path
       d="M1112 18003 c-37 -83 -37 -179 2 -245 15 -26 32 -50 37 -53 16 -11 10 16 -10 42 -23 29 -44 121 -37 160 8 42 18 77 26 88 10 14 22 65 15 65 -4 0 -18 -26 -33 -57z"
       id="path3009" />
    <path
       d="M1287 17943 c-43 -22 -73 -92 -60 -141 5 -19 12 -21 67 -20 48 1 64 6 78 22 20 24 24 46 6 28 -7 -7 -16 -12 -20 -12 -10 0 -2 64 12 89 20 38 13 52 -25 49 -19 -1 -45 -8 -58 -15z m49 -20 c-3 -10 -10 -37 -15 -59 -19 -71 -65 -86 -58 -20 6 48 37 96 64 96 9 0 12 -7 9 -17z"
       id="path3011" />
    <path
       d="M3808 14132 c-27 -2 -48 -7 -48 -13 0 -5 7 -9 15 -9 8 0 15 -4 15 -9 0 -23 -43 -187 -51 -195 -18 -19 -9 -24 36 -23 25 1 45 5 45 10 0 4 -7 7 -16 7 -13 0 -15 6 -10 28 4 15 8 33 9 40 4 18 27 32 54 32 24 0 73 53 73 80 0 35 -50 57 -122 52z m70 -25 c20 -13 14 -52 -12 -77 -33 -30 -59 -21 -50 17 17 70 28 81 62 60z"
       id="path3013" />
    <path
       d="M3887 13902 c-19 -21 -22 -58 -6 -67 16 -10 24 4 11 17 -19 19 -14 37 14 44 28 7 44 -7 44 -38 0 -9 -20 -38 -45 -65 -24 -26 -45 -52 -45 -56 0 -4 26 -7 58 -5 52 3 57 5 60 28 3 20 1 23 -9 13 -13 -13 -69 -18 -69 -8 0 4 15 22 34 41 39 40 46 60 35 92 -10 28 -59 30 -82 4z"
       id="path3015" />
    <path
       d="M3594 13819 c-42 -12 -55 -30 -56 -77 -1 -59 34 -102 87 -107 27 -3 74 30 79 54 18 99 -28 153 -110 130z"
       id="path3017" />
    <path
       d="M2420 13337 c-13 -7 -30 -28 -38 -47 -11 -30 -11 -41 2 -72 13 -30 24 -40 56 -49 50 -15 82 -1 105 47 39 83 -43 162 -125 121z"
       id="path3019" />
    <path
       d="M2123 13178 c-2 -5 6 -8 18 -8 19 0 21 -4 16 -37 -3 -21 -11 -66 -16 -101 -5 -35 -15 -70 -22 -78 -17 -21 -7 -26 40 -18 35 6 39 8 25 19 -14 9 -15 19 -8 50 8 32 15 40 53 55 48 19 71 43 71 75 0 41 -31 56 -105 53 -37 -2 -69 -6 -72 -10z m121 -4 c19 -7 22 -67 4 -82 -7 -5 -24 -13 -37 -17 -23 -7 -23 -6 -16 41 4 27 12 52 18 56 15 9 12 9 31 2z"
       id="path3021" />
    <path
       d="M2280 13001 c-23 -7 -24 -8 -6 -18 15 -8 20 -24 22 -78 3 -60 1 -68 -16 -72 -11 -3 -20 -10 -20 -15 0 -6 7 -7 16 -4 9 3 29 6 46 6 27 0 29 2 17 16 -13 16 -16 34 -18 127 -1 26 -4 47 -8 46 -5 -1 -19 -4 -33 -8z"
       id="path3023" />
    <path
       d="M1433 12398 c-40 -53 -65 -169 -50 -240 4 -23 40 -92 52 -100 18 -13 16 -1 -6 42 -40 76 -41 166 -3 246 25 52 28 80 7 52z"
       id="path3025" />
    <path
       d="M1550 12390 c0 -5 7 -10 15 -10 18 0 19 7 -4 -92 -38 -168 -38 -168 39 -168 52 0 100 52 100 110 0 60 -50 76 -90 28 l-19 -23 -1 25 c0 14 7 43 15 65 23 64 20 75 -20 75 -19 0 -35 -4 -35 -10z m114 -163 c-9 -52 -37 -92 -65 -92 -18 0 -25 6 -27 23 -6 40 64 121 91 105 4 -2 5 -19 1 -36z"
       id="path3027" />
    <path
       d="M1798 12349 c37 -73 36 -171 -2 -243 -29 -55 -29 -56 -17 -56 20 0 65 116 69 175 3 51 -1 69 -25 115 -15 30 -34 56 -40 58 -7 2 -1 -19 15 -49z"
       id="path3029" />
    <path
       d="M2343 9558 c-2 -5 3 -8 13 -8 13 0 15 -6 10 -32 -11 -58 -14 -72 -29 -123 -8 -27 -16 -56 -18 -64 -4 -15 6 -16 69 -11 18 2 21 4 10 7 -19 5 -22 12 -18 53 3 33 15 46 48 53 60 12 97 73 69 111 -11 15 -27 19 -81 20 -38 1 -70 -2 -73 -6z m115 -20 c19 -19 14 -45 -15 -72 -30 -28 -43 -26 -43 9 0 59 30 91 58 63z"
       id="path3031" />
    <path
       d="M2488 9338 c-15 -5 -30 -18 -33 -29 -8 -26 3 -59 20 -59 12 0 12 5 3 25 -15 33 3 56 30 39 31 -20 26 -51 -17 -97 -23 -23 -41 -48 -41 -54 0 -19 109 -18 116 2 8 21 -5 40 -19 26 -12 -12 -57 -15 -57 -5 0 4 16 24 35 45 37 41 42 58 25 88 -13 25 -30 30 -62 19z"
       id="path3033" />
    <path
       d="M2193 9145 c-79 -34 -70 -143 16 -173 45 -16 92 15 105 70 9 39 -20 95 -57 108 -17 5 -30 10 -31 10 -1 -1 -15 -7 -33 -15z"
       id="path3035" />
    <path
       d="M1765 8626 c-62 -62 -29 -149 60 -161 52 -7 106 66 86 117 -24 64 -102 87 -146 44z"
       id="path3037" />
    <path
       d="M1508 8548 c-9 -5 -5 -8 11 -8 19 0 22 -4 18 -22 -3 -13 -11 -54 -17 -93 -7 -38 -18 -80 -26 -91 -7 -12 -11 -23 -9 -25 2 -3 24 -3 50 -1 37 3 43 6 30 16 -16 12 -15 78 1 83 35 12 81 43 98 66 19 26 19 30 5 55 -14 25 -20 27 -82 28 -37 0 -72 -3 -79 -8z m116 -14 c25 -9 19 -51 -11 -78 -32 -30 -43 -26 -43 19 0 60 13 75 54 59z"
       id="path3039" />
    <path
       d="M1670 8340 c-17 -4 -21 -8 -12 -14 8 -4 12 -33 12 -81 0 -62 -3 -74 -17 -78 -10 -3 5 -5 32 -5 28 0 42 2 33 5 -14 4 -18 19 -20 92 l-3 87 -25 -6z"
       id="path3041" />
    <path
       d="M1800 7255 c0 -3 14 -29 30 -58 22 -40 30 -67 30 -104 0 -49 -23 -136 -43 -161 -5 -7 -8 -15 -5 -17 9 -10 45 52 56 97 19 76 15 119 -19 186 -17 34 -35 62 -40 62 -5 0 -9 -2 -9 -5z"
       id="path3043" />
    <path
       d="M1475 7199 c-15 -28 -28 -76 -32 -109 -5 -52 -2 -67 25 -124 17 -37 36 -66 42 -66 7 0 10 3 8 8 -46 88 -52 111 -52 172 1 42 9 84 22 118 27 66 20 67 -13 1z"
       id="path3045" />
    <path
       d="M1628 7113 c-15 -16 -30 -45 -33 -66 -6 -31 -4 -42 14 -61 12 -12 30 -22 41 -21 23 1 75 43 66 53 -3 3 -12 -2 -19 -11 -6 -9 -23 -18 -37 -19 -20 -2 -26 2 -28 22 -5 32 14 94 34 111 14 11 19 10 36 -10 14 -18 22 -21 30 -13 18 18 -9 42 -46 42 -22 0 -41 -9 -58 -27z"
       id="path3047" />
    <path
       d="M1424 3618 c-3 -4 2 -8 10 -8 9 0 16 -2 16 -5 0 -22 -45 -203 -53 -213 -7 -9 1 -12 38 -10 40 1 45 3 31 13 -18 13 -22 50 -6 60 5 3 7 11 5 18 -3 7 13 18 42 27 28 9 55 26 67 43 19 26 19 30 5 55 -14 25 -20 27 -82 28 -37 1 -70 -3 -73 -8z m124 -41 c4 -30 -31 -70 -56 -65 -13 3 -16 12 -14 43 2 22 8 45 14 52 15 19 53 0 56 -30z"
       id="path3049" />
    <path
       d="M1728 3611 c19 -14 20 -21 12 -56 -6 -22 -13 -58 -16 -80 -3 -22 -12 -52 -19 -67 l-13 -26 49 1 c47 2 72 17 28 17 -19 0 -21 4 -14 37 4 21 9 42 13 47 3 6 7 32 8 59 3 58 25 88 52 71 30 -19 26 -51 -10 -84 -35 -32 -25 -39 21 -15 31 15 41 33 41 70 0 37 -22 46 -100 44 -69 -2 -71 -3 -52 -18z"
       id="path3051" />
    <path
       d="M2009 3511 c-42 -42 -41 -99 2 -135 50 -43 109 -29 134 30 18 43 12 75 -22 109 -35 34 -77 33 -114 -4z"
       id="path3053" />
    <path
       d="M1532 3373 c10 -12 16 -41 17 -81 2 -57 0 -64 -18 -69 -36 -9 -23 -19 19 -15 32 3 38 7 30 17 -7 8 -10 44 -8 89 l4 76 -30 0 c-27 0 -28 -1 -14 -17z"
       id="path3055" />
    <path
       d="M1846 3381 c-3 -5 5 -12 18 -15 32 -8 40 -33 20 -63 -22 -34 -11 -40 15 -7 23 30 26 46 11 75 -11 19 -54 26 -64 10z"
       id="path3057" />
    <path
       d="M1821 3227 c-21 -21 -11 -27 43 -27 40 0 55 4 60 16 9 23 8 24 -16 15 -13 -4 -35 -5 -49 -1 -17 5 -31 4 -38 -3z"
       id="path3059" />
    <path
       d="M1490 1293 c-6 -15 -13 -35 -17 -43 -14 -35 -18 -59 -17 -125 0 -60 4 -76 28 -112 16 -24 30 -43 32 -43 1 0 -8 25 -22 55 -35 76 -35 164 0 234 16 30 22 52 16 56 -6 3 -15 -6 -20 -22z"
       id="path3061" />
    <path
       d="M1720 1311 c0 -5 5 -11 11 -13 7 -2 9 -19 4 -49 -6 -39 -10 -46 -28 -44 -57 4 -107 -54 -107 -124 0 -34 30 -57 58 -46 15 6 14 8 -5 16 -28 10 -30 46 -7 92 19 36 31 47 57 47 20 0 22 -22 5 -84 -13 -49 0 -80 28 -69 11 4 12 9 3 19 -6 7 -8 17 -5 22 3 6 16 62 29 126 l24 116 -34 0 c-18 0 -33 -4 -33 -9z"
       id="path3063" />
    <path
       d="M1850 1311 c0 -6 8 -21 19 -32 30 -33 46 -127 31 -191 -7 -29 -19 -64 -27 -76 -8 -13 -12 -26 -10 -29 16 -15 67 116 67 171 0 48 -27 120 -56 146 -13 13 -24 18 -24 11z"
       id="path3065" />
  </g>
</svg>
