<?xml version="1.0" encoding="UTF-8" standalone="no"?>
<svg
   xmlns:dc="http://purl.org/dc/elements/1.1/"
   xmlns:cc="http://creativecommons.org/ns#"
   xmlns:rdf="http://www.w3.org/1999/02/22-rdf-syntax-ns#"
   xmlns:svg="http://www.w3.org/2000/svg"
   xmlns="http://www.w3.org/2000/svg"
   xmlns:sodipodi="http://sodipodi.sourceforge.net/DTD/sodipodi-0.dtd"
   xmlns:inkscape="http://www.inkscape.org/namespaces/inkscape"
   version="1.0"
   width="190.560000pt"
   height="227.040000pt"
   viewBox="0 0 190.560000 227.040000"
   preserveAspectRatio="xMidYMid meet"
   id="svg3011"
   sodipodi:docname="black.svg">
  <defs
     id="defs3241">
    <marker
       inkscape:stockid="Arrow2Mend"
       orient="auto"
       refY="0.0"
       refX="0.0"
       id="Arrow2Mend"
       style="overflow:visible;">
      <path
         id="path4179"
         style="fill-rule:evenodd;stroke-width:0.62500000;stroke-linejoin:round;"
         d="M 8.7185878,4.0337352 L -2.2072895,0.016013256 L 8.7185884,-4.0017078 C 6.9730900,-1.6296469 6.9831476,1.6157441 8.7185878,4.0337352 z "
         transform="scale(0.6) rotate(180) translate(0,0)" />
    </marker>
    <marker
       inkscape:stockid="Arrow2Mstart"
       orient="auto"
       refY="0.0"
       refX="0.0"
       id="Arrow2Mstart"
       style="overflow:visible">
      <path
         id="path4176"
         style="fill-rule:evenodd;stroke-width:0.62500000;stroke-linejoin:round"
         d="M 8.7185878,4.0337352 L -2.2072895,0.016013256 L 8.7185884,-4.0017078 C 6.9730900,-1.6296469 6.9831476,1.6157441 8.7185878,4.0337352 z "
         transform="scale(0.6) translate(0,0)" />
    </marker>
    <marker
       inkscape:stockid="Arrow1Mstart"
       orient="auto"
       refY="0.0"
       refX="0.0"
       id="Arrow1Mstart"
       style="overflow:visible">
      <path
         id="path4158"
         d="M 0.0,0.0 L 5.0,-5.0 L -12.5,0.0 L 5.0,5.0 L 0.0,0.0 z "
         style="fill-rule:evenodd;stroke:#000000;stroke-width:1.0pt"
         transform="scale(0.4) translate(10,0)" />
    </marker>
  </defs>
  <sodipodi:namedview
     pagecolor="#ffffff"
     bordercolor="#666666"
     borderopacity="1"
     objecttolerance="10"
     gridtolerance="10"
     guidetolerance="10"
     inkscape:pageopacity="0"
     inkscape:pageshadow="2"
     inkscape:window-width="1280"
     inkscape:window-height="996"
     id="namedview3239"
     showgrid="false"
     inkscape:zoom="0.84927401"
     inkscape:cx="32.585021"
     inkscape:cy="273.71417"
     inkscape:window-x="0"
     inkscape:window-y="0"
     inkscape:window-maximized="1"
     inkscape:current-layer="svg3011" />
  <metadata
     id="metadata3013">
Created by potrace 1.10, written by Peter Selinger 2001-2011
<rdf:RDF>
  <cc:Work
     rdf:about="">
    <dc:format>image/svg+xml</dc:format>
    <dc:type
       rdf:resource="http://purl.org/dc/dcmitype/StillImage" />
    <dc:title></dc:title>
  </cc:Work>
</rdf:RDF>
</metadata>
  <rect
     style="fill:#b9b9b9;fill-opacity:1;stroke:none"
     id="rect4980"
     width="61.561569"
     height="227.04001"
     x="-32.031502"
     y="-8.5449219e-06" />
  <g
     style="fill:#b9b9b9;stroke:none"
     transform="matrix(0.024,0,0,-0.024,1.6057788e-4,227.04)"
     id="g6">
    <path
       inkscape:connector-curvature="0"
       d="m 0,8608 0,-853 612,0 613,0 3,-38 c 2,-23 -3,-48 -12,-62 -14,-21 -14,-25 -2,-32 12,-7 15,-93 18,-543 l 3,-535 -502,-2 c -325,-2 -504,1 -508,7 -8,13 -101,13 -127,-1 -14,-8 -23,-8 -31,0 -15,15 -36,14 -53,-3 C 2,6533 0,6214 0,4253 l 0,-2278 162,7 c 262,10 1096,9 1103,-2 3,-6 38,-10 76,-10 53,0 71,4 75,15 8,20 34,19 50,-2 13,-17 15,-17 28,0 17,21 42,22 50,1 3,-9 6,-162 6,-341 0,-288 -2,-327 -16,-338 -15,-10 -15,-13 0,-27 14,-14 16,-48 16,-245 0,-125 -3,-238 -6,-250 -6,-23 -6,-23 -233,-23 -159,0 -230,3 -239,12 -8,8 -15,8 -28,-3 -13,-11 -86,-15 -367,-18 -319,-3 -351,-2 -359,13 -8,14 -12,15 -25,4 -10,-8 -57,-12 -154,-13 L 0,755 0,378 0,0 l 3970,0 3970,0 0,4730 0,4730 -3970,0 -3970,0 0,-852 z M 1945,5560 c -3,-6 1,-7 10,-4 18,7 51,-19 70,-56 7,-14 13,-50 14,-82 0,-68 -20,-99 -84,-128 -46,-21 -101,-27 -90,-10 3,5 0,7 -9,4 -25,-9 -55,13 -49,37 5,17 2,20 -18,17 -22,-3 -24,1 -24,36 0,22 -6,41 -13,44 -36,12 16,119 56,115 20,-3 27,7 23,30 0,4 26,7 60,7 37,0 58,-4 54,-10 z"
       id="path8" />
    <path
       inkscape:connector-curvature="0"
       d="m 0,7464 c 0,-28 4,-43 10,-39 6,4 10,-8 10,-29 0,-20 -4,-36 -10,-36 -14,0 -13,-67 1,-72 9,-3 9,-10 0,-27 -7,-13 -10,-34 -7,-47 7,-26 31,-32 39,-10 8,19 155,16 167,-4 7,-12 12,-12 28,3 15,14 38,18 113,18 58,0 95,-4 97,-10 8,-23 22,-10 22,19 0,18 -6,33 -15,36 -9,4 -15,19 -15,40 0,33 1,34 44,34 50,0 58,-14 51,-85 -3,-22 -6,-51 -7,-64 -2,-15 4,-27 17,-35 11,-6 23,-15 26,-19 7,-10 90,25 107,46 20,24 11,61 -15,65 -23,3 -54,32 -35,32 6,0 15,19 19,43 7,36 12,42 36,45 16,2 26,8 24,15 -5,15 -123,10 -152,-6 -24,-13 -65,-16 -65,-5 0,4 -21,8 -48,8 l -47,0 0,-62 0,-62 -30,0 c -28,0 -30,3 -38,49 -14,84 -58,109 -103,59 -17,-18 -22,-32 -18,-50 5,-18 2,-24 -10,-24 -9,0 -16,6 -16,13 0,44 -45,87 -90,87 -15,0 -20,11 -27,52 -7,45 -12,53 -35,59 -27,7 -28,6 -28,-37 z m 114,-144 c 8,0 13,-14 13,-39 0,-35 -3,-40 -29,-43 -22,-4 -28,-1 -28,13 0,10 5,21 11,24 6,4 10,21 9,39 -3,41 2,57 7,29 2,-13 10,-23 17,-23 z m 172,29 c 3,-6 1,-16 -5,-22 -9,-9 -14,-8 -21,3 -5,8 -10,18 -10,23 0,11 28,8 36,-4 z m 334,-21 c 0,-24 -4,-28 -30,-28 -26,0 -30,3 -30,29 0,25 3,28 30,27 26,-1 30,-5 30,-28 z m 20,-134 c 13,-5 13,-6 0,-14 -8,-6 -27,-10 -42,-10 -21,0 -28,5 -28,19 0,18 23,20 70,5 z"
       id="path10" />
    <path
       inkscape:connector-curvature="0"
       d="m 745,7375 c -26,-11 -31,-19 -35,-64 -6,-60 0,-76 35,-85 14,-4 25,-11 25,-16 0,-17 20,-11 43,13 12,13 27,22 34,20 16,-6 28,18 13,27 -7,4 -20,0 -31,-11 -11,-11 -31,-19 -45,-19 -24,0 -25,3 -19,27 8,35 23,45 58,40 34,-4 36,18 6,57 -23,29 -39,31 -84,11 z m 35,-30 c 0,-8 -4,-15 -10,-15 -5,0 -10,7 -10,15 0,8 5,15 10,15 6,0 10,-7 10,-15 z"
       id="path12" />
    <path
       inkscape:connector-curvature="0"
       d="m 158,7004 c -37,-19 -60,-66 -62,-125 -1,-40 4,-52 28,-78 68,-71 158,-7 126,90 -11,32 -11,47 -2,71 6,17 9,28 5,25 -3,-4 -17,3 -31,13 -29,23 -29,23 -64,4 z m 56,-20 c 15,-39 7,-54 -29,-54 -32,0 -35,3 -35,28 0,16 3,32 7,35 12,13 51,7 57,-9 z m 4,-118 c 5,-60 -5,-86 -31,-86 -35,0 -47,19 -47,71 0,50 8,59 50,56 21,-2 25,-8 28,-41 z"
       id="path14" />
    <path
       inkscape:connector-curvature="0"
       d="m 480,6960 c 0,-5 -9,-10 -19,-10 -11,0 -29,-12 -40,-26 -47,-60 -9,-139 66,-136 20,1 39,6 43,11 3,6 11,6 20,1 22,-14 83,-12 103,3 11,7 18,29 19,59 2,27 6,48 10,48 3,0 13,3 22,6 13,5 16,-1 16,-32 0,-52 20,-88 50,-92 14,-2 31,-9 38,-14 9,-8 18,-6 30,6 10,9 24,16 32,16 9,0 10,4 2,13 -6,7 -12,40 -14,72 -3,55 -5,60 -28,63 -20,3 -22,2 -11,-11 7,-9 11,-36 9,-69 -3,-52 -4,-53 -35,-56 l -33,-3 0,69 0,69 -37,6 c -57,8 -125,1 -137,-14 -17,-22 -60,-17 -71,9 -10,22 -35,31 -35,12 z m 11,-45 c 0,-5 -9,-11 -21,-13 -15,-3 -18,1 -14,13 7,17 35,17 35,0 z m 112,-59 c 25,-17 37,-46 19,-46 -13,0 -58,52 -66,75 -5,17 -4,18 6,4 7,-8 25,-24 41,-33 z m -106,8 c 13,-13 18,-13 25,-2 7,9 8,5 4,-12 -3,-14 -6,-29 -6,-33 0,-5 -17,-7 -37,-5 -27,2 -39,8 -41,21 -9,44 24,62 55,31 z"
       id="path16" />
    <path
       inkscape:connector-curvature="0"
       d="m 270,1741 c 0,-6 -7,-11 -16,-11 -12,0 -15,-6 -9,-22 29,-99 33,-158 10,-158 -8,0 -15,-7 -15,-15 0,-8 5,-15 10,-15 17,0 11,-38 -7,-49 -14,-8 -11,-10 17,-15 19,-3 55,-5 80,-5 86,-1 175,-8 194,-16 13,-6 21,-3 28,8 11,21 72,22 110,3 24,-13 28,-12 42,3 22,24 20,33 -6,29 -19,-2 -24,2 -26,25 -2,15 2,27 8,27 6,0 15,11 20,25 7,17 17,25 34,25 21,0 26,-6 32,-35 3,-20 1,-56 -5,-81 -17,-67 -11,-72 108,-90 43,-6 44,-6 37,19 -4,18 -1,29 10,35 24,13 8,62 -21,62 -27,0 -42,39 -22,55 19,15 45,71 38,82 -4,6 -32,6 -71,1 -95,-12 -144,-12 -148,1 -5,14 -32,14 -32,0 0,-7 -10,-9 -24,-7 -22,4 -23,3 -15,-31 5,-20 9,-49 9,-66 0,-26 -4,-30 -30,-31 -28,-1 -30,1 -36,47 -8,62 -21,78 -66,85 -33,6 -38,4 -52,-24 -9,-17 -16,-40 -16,-52 0,-11 -4,-20 -10,-20 -5,0 -10,9 -10,20 0,26 -48,69 -77,70 -24,0 -43,22 -25,28 16,5 15,29 -2,39 -8,4 -16,19 -18,32 -3,24 -28,43 -28,22 z m 584,-173 c -9,-14 -24,2 -24,25 1,21 1,21 15,3 8,-10 12,-23 9,-28 z m -484,7 c 0,-16 -6,-25 -15,-25 -8,0 -15,-5 -15,-10 0,-6 7,-13 15,-16 8,-4 15,-16 15,-28 0,-17 -6,-21 -32,-20 -33,1 -33,1 -30,50 3,66 7,74 37,74 20,0 25,-5 25,-25 z m 153,10 c 7,-16 -8,-29 -23,-20 -15,9 -12,35 4,35 8,0 16,-7 19,-15 z m 308,-155 c 10,0 19,4 19,9 0,5 9,7 20,4 33,-9 17,-28 -25,-31 -38,-3 -60,12 -48,32 4,6 8,5 11,-2 2,-7 12,-12 23,-12 z"
       id="path18" />
    <path
       inkscape:connector-curvature="0"
       d="m 56,1732 c -3,-5 -3,-17 0,-25 6,-16 -28,-33 -46,-22 -6,4 -10,-33 -10,-105 0,-76 3,-109 11,-105 12,8 71,-14 65,-24 -6,-9 117,0 130,10 6,5 9,22 6,39 -3,18 0,30 7,30 6,0 11,5 11,10 0,6 -7,10 -15,10 -8,0 -15,-6 -15,-14 0,-8 -8,-13 -17,-12 -13,1 -18,-6 -18,-24 0,-18 -6,-26 -22,-28 -16,-2 -23,2 -23,13 0,12 -8,15 -37,13 l -38,-3 -3,82 c -3,75 -1,82 20,97 30,21 101,21 119,0 7,-9 13,-28 14,-42 0,-17 6,-27 15,-27 16,0 25,61 12,82 -5,7 -37,16 -73,20 -38,4 -68,12 -75,21 -7,10 -13,11 -18,4 z"
       id="path20" />
    <path
       inkscape:connector-curvature="0"
       d="m 990,1615 c -7,-8 -16,-15 -21,-15 -18,0 -49,-41 -49,-65 0,-29 38,-69 71,-73 12,-1 26,-8 30,-14 5,-8 19,-1 43,24 34,35 45,58 28,58 -4,0 -12,-10 -17,-22 -8,-18 -18,-23 -45,-23 -31,0 -35,3 -38,27 -3,24 1,28 32,34 20,3 43,4 51,0 25,-9 18,32 -10,59 -27,28 -57,32 -75,10 z m 50,-24 c 0,-12 -28,-22 -34,-12 -3,5 -3,11 1,15 9,9 33,7 33,-3 z"
       id="path22" />
    <path
       inkscape:connector-curvature="0"
       d="m 0,1150 c 0,-117 2,-140 15,-140 15,0 23,22 27,80 3,32 6,35 37,38 20,2 37,-2 42,-10 11,-18 32,4 27,28 -2,14 -14,20 -41,22 -29,3 -37,7 -37,23 0,11 -7,22 -15,25 -8,4 -15,16 -15,28 0,22 -17,46 -32,46 -4,0 -8,-63 -8,-140 z"
       id="path24" />
    <path
       inkscape:connector-curvature="0"
       d="m 308,1273 c -16,-4 -16,-6 -3,-20 12,-12 15,-34 13,-102 -3,-82 -4,-86 -26,-86 -22,0 -45,-22 -37,-35 3,-4 34,-6 70,-4 35,1 67,-2 70,-7 10,-15 25,-10 25,7 0,9 -13,30 -30,46 -29,27 -30,31 -30,118 0,96 -1,97 -52,83 z"
       id="path26" />
    <path
       inkscape:connector-curvature="0"
       d="m 483,1268 c -25,-12 -39,-58 -25,-85 5,-10 7,-24 5,-30 -3,-7 2,-16 11,-19 25,-10 19,-43 -10,-54 -14,-6 -22,-14 -19,-20 3,-5 1,-10 -4,-10 -6,0 -11,-5 -11,-10 0,-7 32,-10 88,-8 l 87,3 1,37 c 1,23 -5,43 -14,50 -13,11 -14,8 -8,-20 7,-30 6,-32 -22,-32 -22,0 -31,6 -35,22 -7,26 -1,38 18,38 17,0 45,61 45,96 0,43 -58,66 -107,42 z m 65,-41 c 2,-10 -2,-32 -8,-48 l -13,-29 -23,25 c -13,15 -24,37 -24,51 0,22 4,25 32,22 22,-2 34,-9 36,-21 z"
       id="path28" />
    <path
       inkscape:connector-curvature="0"
       d="m 960,1210 c 0,-5 -6,-10 -13,-10 -8,0 -21,-8 -30,-18 -18,-20 -51,-21 -84,-4 -32,17 -53,15 -89,-10 -39,-27 -49,-73 -21,-101 10,-10 15,-23 11,-28 -12,-19 17,-27 56,-15 21,6 41,14 45,17 3,4 23,3 43,-1 20,-4 56,-11 78,-14 l 42,-6 -5,55 c -3,35 0,55 6,55 6,0 11,7 11,15 0,20 16,19 24,-1 9,-25 7,-64 -4,-64 -23,0 -7,-21 27,-35 48,-20 140,-17 134,5 -2,8 -5,33 -8,55 -8,71 -13,85 -31,85 -12,0 -17,-8 -17,-30 0,-16 4,-30 8,-30 5,0 7,-17 5,-37 -3,-35 -6,-38 -35,-41 l -33,-3 0,48 c 0,67 -9,93 -31,93 -11,0 -19,4 -19,10 0,5 -6,7 -14,4 -8,-3 -24,-1 -35,6 -14,7 -21,7 -21,0 z m -60,-112 c 0,-5 -12,-8 -26,-8 -18,0 -28,-6 -31,-20 -4,-16 -13,-20 -39,-18 -47,3 -56,48 -11,56 10,2 25,-2 32,-8 11,-9 19,-7 36,9 22,20 38,15 39,-11 z m 50,-28 c 0,-23 -13,-26 -29,-6 -9,11 -9,15 1,19 23,10 28,7 28,-13 z"
       id="path30" />
  </g>
  <g
     transform="translate(0.000000,227.040000) scale(0.024000,-0.024000)"
     id="g3015"
     stroke="none"
     fill="#000000">
    <path
       d="M2991 8621 c-63 -11 -89 -96 -62 -197 8 -31 18 -45 40 -54 37 -15 64 -7 95 31 22 26 25 37 22 100 -2 63 -5 73 -32 98 -24 22 -35 26 -63 22z m27 -19 c18 -12 26 -49 24 -122 -1 -54 -5 -68 -23 -83 -24 -19 -39 -12 -47 20 -10 45 -8 131 5 161 14 33 20 37 41 24z"
       id="path3017" />
    <path
       d="M2256 8598 c-8 -13 -22 -47 -33 -76 -14 -42 -22 -52 -38 -50 -26 4 -32 51 -10 85 19 29 14 39 -13 24 -31 -16 -51 -68 -41 -105 9 -32 33 -56 56 -56 8 0 13 -13 13 -35 0 -43 27 -49 32 -8 2 20 12 32 33 41 67 29 81 39 101 77 34 66 9 125 -52 125 -24 0 -38 -7 -48 -22z m83 -42 c17 -20 -1 -51 -42 -76 -56 -34 -80 -24 -56 23 31 59 74 82 98 53z"
       id="path3019" />
    <path
       d="M1800 8580 c-19 -19 -25 -43 -21 -80 1 -8 15 -26 30 -40 l29 -25 7 -450 c8 -469 8 -528 20 -1671 l8 -702 -38 -12 c-20 -7 -55 -30 -76 -52 -30 -31 -40 -50 -45 -89 -7 -52 -5 -51 -94 -62 -8 -1 -13 -7 -10 -12 3 -6 28 -9 57 -8 46 2 52 -1 57 -22 6 -22 78 -99 94 -100 21 -2 52 -18 53 -28 1 -7 3 -23 4 -37 2 -24 10 -574 20 -1350 3 -201 7 -471 10 -600 5 -245 8 -637 5 -680 -1 -14 -12 31 -26 100 -13 69 -30 157 -38 195 -15 71 -73 383 -102 550 -8 50 -18 101 -21 115 -3 14 -8 34 -10 45 -1 11 -8 43 -14 70 -6 28 -12 67 -15 88 -3 21 -18 106 -35 190 -17 84 -37 190 -45 237 -8 47 -17 95 -19 107 -2 13 -11 58 -19 100 -9 43 -18 89 -20 103 -12 67 -26 138 -31 165 -17 85 -35 185 -41 225 -3 25 -8 48 -10 51 -4 7 -54 278 -61 330 -4 29 -1 40 16 51 11 8 25 26 30 41 7 19 18 27 36 28 33 2 38 3 53 12 24 16 2 25 -47 20 -38 -3 -50 -1 -54 11 -5 12 1 16 26 17 18 1 50 3 72 3 66 3 79 6 71 13 -4 4 -258 6 -564 5 -999 -5 -1035 -6 -1039 -19 -3 -8 156 -10 646 -6 358 2 651 3 651 1 0 -2 -4 -18 -10 -37 -12 -43 8 -84 50 -103 23 -10 31 -21 36 -48 8 -51 38 -215 83 -455 22 -115 43 -228 47 -250 4 -22 8 -49 11 -60 4 -22 30 -156 37 -195 3 -14 12 -61 20 -105 8 -44 18 -93 21 -110 2 -16 7 -41 10 -55 3 -14 12 -65 21 -115 8 -49 19 -106 24 -125 5 -19 12 -55 15 -80 4 -25 13 -75 21 -112 7 -37 16 -82 19 -100 3 -18 15 -85 26 -148 11 -63 24 -137 29 -165 5 -27 13 -72 19 -100 6 -27 13 -63 16 -80 8 -52 36 -197 50 -265 8 -36 16 -85 20 -110 3 -25 8 -52 11 -62 3 -10 -7 -24 -28 -39 -73 -50 -98 -92 -98 -166 0 -52 22 -94 73 -139 32 -28 46 -35 77 -38 9 -1 20 -5 25 -8 14 -8 96 22 126 47 27 22 59 85 59 115 0 25 4 27 82 34 37 4 77 9 90 11 13 2 57 6 98 10 41 3 102 10 135 15 61 9 106 14 250 26 44 3 84 8 88 11 5 3 19 -5 31 -16 13 -12 39 -24 58 -27 29 -5 39 -1 63 24 16 17 29 40 30 52 2 28 -55 90 -83 90 -18 0 -30 16 -32 42 -1 4 -8 25 -17 45 -35 83 -62 166 -57 175 3 4 1 8 -5 8 -5 0 -13 9 -16 20 -3 11 -11 20 -17 20 -11 0 -2 -67 11 -85 4 -5 14 -30 21 -55 7 -25 17 -49 20 -55 4 -5 15 -36 24 -68 16 -52 17 -60 3 -75 -8 -9 -18 -27 -21 -39 -8 -25 -18 -29 -101 -38 -33 -3 -71 -8 -85 -10 -14 -2 -59 -6 -100 -10 -41 -3 -93 -8 -115 -11 -63 -6 -141 -14 -198 -19 -29 -3 -73 -7 -99 -10 -40 -4 -50 -1 -62 17 -14 20 -13 23 12 48 27 26 183 137 246 175 18 11 50 34 72 51 21 17 50 37 63 44 13 7 48 31 77 54 29 22 66 50 83 61 42 27 178 123 271 191 41 30 88 62 104 72 15 9 54 37 87 62 32 25 88 65 125 90 36 25 93 65 126 90 33 25 67 49 76 55 10 5 46 31 82 57 36 27 68 48 72 48 4 0 20 12 34 25 25 23 66 52 212 152 49 33 112 78 215 153 34 25 74 51 89 59 14 7 48 31 74 53 27 22 62 47 78 55 16 8 52 33 79 54 27 22 53 39 57 39 5 0 30 18 55 40 25 22 50 40 54 40 4 0 40 25 80 55 40 30 79 55 87 55 8 0 14 4 14 9 0 6 37 35 83 66 45 31 116 80 157 110 41 29 102 71 135 91 33 21 61 41 63 45 2 4 27 23 55 41 29 18 59 38 67 45 65 53 95 73 106 73 7 0 14 3 16 8 4 9 69 59 123 95 22 15 81 56 130 92 50 36 115 82 145 103 30 20 72 51 93 67 20 17 39 29 42 28 3 -2 17 7 31 20 28 24 173 127 217 155 16 9 62 43 104 75 41 31 79 57 82 57 4 0 17 9 28 20 12 11 52 40 90 65 37 25 109 74 158 110 50 36 103 72 119 81 16 9 52 34 79 55 27 22 52 39 57 39 4 0 26 15 48 33 22 17 63 46 91 64 44 27 58 31 96 26 38 -4 48 -1 69 21 36 35 34 79 -4 117 -20 21 -36 28 -53 25 -37 -6 -66 -28 -80 -58 -8 -20 -19 -28 -37 -28 -35 0 -70 -11 -70 -21 0 -5 22 -9 49 -9 48 0 75 -13 48 -23 -7 -3 -43 -28 -80 -56 -36 -28 -69 -51 -73 -51 -3 0 -34 -20 -68 -45 -107 -78 -160 -115 -206 -145 -61 -40 -135 -92 -190 -133 -25 -19 -56 -40 -70 -47 -14 -7 -45 -30 -70 -50 -25 -20 -56 -43 -70 -50 -14 -7 -47 -30 -75 -52 -27 -22 -70 -53 -95 -69 -25 -16 -79 -54 -120 -84 -41 -31 -88 -64 -105 -75 -59 -38 -69 -45 -99 -71 -17 -14 -49 -36 -71 -49 -22 -14 -49 -33 -60 -43 -11 -10 -40 -31 -65 -45 -25 -14 -58 -39 -75 -54 -16 -16 -42 -34 -57 -41 -16 -6 -28 -16 -28 -20 0 -5 -4 -6 -9 -3 -5 4 -11 3 -13 -2 -7 -16 -95 -82 -101 -75 -4 3 -7 1 -7 -6 0 -7 -4 -9 -10 -6 -5 3 -10 2 -10 -2 0 -10 -105 -93 -117 -93 -5 0 -31 -18 -58 -41 -27 -22 -63 -48 -80 -56 -16 -9 -50 -33 -74 -54 -24 -22 -50 -39 -57 -39 -8 0 -14 -5 -14 -12 0 -6 -3 -9 -6 -5 -3 3 -16 -4 -28 -15 -11 -11 -50 -40 -86 -64 -121 -82 -165 -113 -216 -154 -28 -22 -55 -40 -60 -40 -5 0 -38 -23 -73 -50 -36 -28 -69 -50 -74 -50 -5 0 -30 -17 -56 -39 -25 -21 -57 -44 -71 -51 -14 -7 -53 -34 -87 -59 -58 -43 -153 -110 -230 -164 -17 -12 -66 -47 -109 -77 -75 -54 -157 -112 -259 -185 -27 -19 -90 -64 -140 -100 -49 -35 -115 -81 -145 -102 -30 -21 -57 -41 -60 -44 -3 -3 -30 -22 -60 -42 -30 -20 -76 -53 -102 -73 -26 -20 -57 -42 -68 -48 -20 -11 -86 -57 -193 -137 -34 -25 -72 -51 -85 -58 -12 -6 -52 -34 -90 -61 -139 -101 -186 -134 -307 -216 -38 -25 -81 -57 -95 -69 -33 -30 -70 -41 -81 -24 -10 16 -1 58 16 79 7 8 14 20 16 25 11 29 122 225 130 230 5 4 9 13 9 20 0 8 22 52 48 97 26 46 58 103 71 128 13 25 29 51 35 59 5 7 11 20 12 28 2 8 9 22 16 31 8 10 26 42 41 72 24 49 80 149 114 205 11 19 12 19 22 -8 6 -15 13 -38 15 -50 2 -12 12 -39 21 -61 12 -28 19 -36 28 -27 8 8 5 28 -12 78 -12 38 -27 76 -32 85 -14 28 -10 49 22 103 16 28 32 57 35 65 3 8 10 22 15 30 5 8 15 29 23 46 8 17 19 35 25 38 6 4 11 14 11 23 0 9 6 24 14 32 7 9 39 66 71 126 32 61 64 117 71 126 8 8 14 23 14 31 0 9 4 18 8 20 4 2 17 21 28 43 36 72 107 200 117 212 5 7 22 39 37 72 15 32 33 62 39 65 6 4 9 11 6 16 -3 5 1 14 8 22 7 7 25 38 41 68 16 30 34 62 42 71 8 8 14 20 14 26 0 14 51 106 64 115 6 4 7 8 2 8 -5 0 -2 8 6 18 8 9 26 40 39 67 13 28 32 62 42 78 10 15 15 27 11 27 -4 0 0 8 8 18 9 9 31 46 49 81 19 36 50 94 70 130 69 125 97 176 144 266 26 50 59 100 73 112 15 12 23 25 20 29 -8 7 28 81 90 188 35 61 44 69 73 73 72 8 98 88 45 138 -48 44 -118 25 -134 -37 -7 -29 -13 -33 -102 -57 -51 -14 -95 -32 -98 -40 -3 -9 1 -11 14 -7 11 3 52 12 93 21 40 8 77 17 81 20 4 2 15 -3 23 -13 15 -16 13 -23 -26 -92 -23 -41 -53 -97 -67 -124 -14 -26 -34 -54 -45 -61 -18 -12 -96 -23 -162 -25 -14 0 -23 -6 -23 -15 0 -13 11 -14 68 -9 37 3 73 7 80 9 21 7 13 -25 -20 -84 -18 -31 -46 -82 -63 -113 -82 -154 -139 -254 -149 -260 -6 -4 -7 -8 -3 -8 8 0 -3 -21 -130 -250 -38 -69 -80 -145 -92 -170 -13 -25 -33 -63 -46 -85 -13 -22 -32 -56 -42 -75 -82 -153 -118 -216 -127 -222 -6 -4 -7 -8 -3 -8 5 0 -1 -13 -12 -29 -12 -16 -21 -35 -21 -42 0 -7 -6 -20 -14 -28 -7 -9 -35 -56 -61 -106 -27 -49 -51 -92 -55 -95 -3 -3 -20 -32 -36 -65 -52 -104 -127 -240 -136 -243 -4 -2 -8 -12 -8 -22 0 -10 -5 -22 -10 -25 -6 -4 -23 -35 -39 -70 -21 -46 -34 -63 -47 -62 -15 2 -18 -4 -16 -24 2 -14 -6 -41 -17 -60 -43 -73 -102 -185 -112 -212 -6 -15 -15 -27 -20 -27 -5 0 -9 -9 -9 -19 0 -11 -5 -23 -10 -26 -6 -4 -17 -21 -25 -38 -8 -18 -27 -52 -41 -77 -14 -25 -49 -90 -79 -145 -29 -55 -75 -138 -102 -185 -26 -47 -54 -96 -61 -110 -35 -70 -73 -125 -84 -121 -7 2 -18 4 -25 5 -7 1 -15 4 -18 7 -8 9 -14 243 -20 824 -3 303 -8 633 -10 735 -2 102 -7 407 -10 678 l-6 493 23 -3 c17 -2 25 -14 36 -53 8 -27 18 -59 22 -70 4 -11 13 -35 20 -52 22 -59 49 -34 28 25 -7 20 -13 42 -13 47 -1 6 -6 19 -12 30 -6 11 -14 37 -18 57 -6 31 -3 41 18 60 31 29 57 80 57 111 0 28 14 32 135 43 85 7 98 11 89 25 -6 11 -62 8 -181 -7 -55 -7 -37 11 25 24 120 27 162 42 162 58 0 12 -6 15 -22 11 -58 -14 -145 -39 -163 -46 -45 -20 -55 -21 -55 -3 0 20 -69 92 -88 92 -7 0 -22 6 -35 13 -12 6 -23 13 -25 13 -5 2 -11 363 -17 954 -3 305 -8 715 -10 910 -13 896 -13 945 -3 957 6 7 17 13 24 13 11 0 14 -18 14 -77 0 -88 8 -125 23 -120 15 5 9 225 -7 280 -18 64 -93 90 -136 47z m186 -3035 c54 -35 74 -135 38 -195 -57 -97 -193 -106 -256 -17 -28 40 -35 114 -14 158 40 81 151 107 232 54z"
       id="path3021" />
    <path
       d="M2489 8551 c10 -17 22 -19 133 -16 156 4 148 2 148 20 0 13 -23 15 -145 15 -140 0 -145 -1 -136 -19z"
       id="path3023" />
    <path
       d="M2602 8472 c-100 -2 -113 -5 -110 -20 3 -15 18 -16 123 -15 160 2 155 1 155 17 0 18 -32 22 -168 18z"
       id="path3025" />
    <path
       d="M1932 8184 c-10 -18 -7 -225 3 -252 3 -7 10 -10 15 -7 12 7 10 248 -1 267 -4 7 -11 4 -17 -8z"
       id="path3027" />
    <path
       d="M1936 7841 c-10 -15 -5 -236 4 -251 7 -12 10 -11 16 5 7 18 8 47 5 193 -1 56 -11 77 -25 53z"
       id="path3029" />
    <path
       d="M122 7792 c-84 -2 -102 -5 -102 -18 0 -14 64 -15 599 -8 582 7 599 6 604 -12 3 -10 9 -286 13 -611 5 -496 4 -593 -7 -597 -12 -4 -888 -16 -1146 -16 -64 0 -83 -3 -83 -14 0 -11 97 -13 623 -10 342 3 628 6 635 9 10 4 13 59 11 260 -1 141 2 259 6 263 4 4 35 -23 69 -59 116 -125 240 -425 321 -774 14 -60 29 -123 35 -140 5 -16 11 -41 14 -55 2 -14 12 -63 21 -109 15 -78 15 -84 -1 -102 -16 -17 -16 -21 -1 -36 8 -10 27 -48 42 -86 25 -61 44 -91 45 -70 1 17 2 179 1 196 -1 9 -7 17 -14 17 -19 0 -35 32 -42 86 -3 27 -11 60 -15 74 -5 14 -12 36 -14 50 -8 44 -76 324 -85 350 -5 14 -19 59 -31 100 -34 116 -77 225 -133 340 -44 88 -66 119 -135 190 l-84 85 -3 95 c-2 52 -4 197 -5 322 -1 125 -5 239 -9 255 l-7 28 -510 0 c-280 0 -555 -1 -612 -3z"
       id="path3031" />
    <path
       d="M1645 7641 c-38 -7 -59 -63 -33 -89 9 -9 8 -17 -2 -37 -10 -19 -11 -31 -2 -49 6 -13 8 -33 5 -45 -3 -11 -2 -29 2 -38 6 -17 7 -17 16 0 8 13 23 17 64 17 30 0 55 -4 55 -10 0 -5 5 -10 10 -10 6 0 10 18 10 40 0 22 -4 40 -10 40 -5 0 -10 -4 -10 -10 0 -17 -97 -12 -114 6 -32 32 -20 44 45 44 47 0 65 -4 75 -17 12 -16 13 -12 14 30 0 26 -4 47 -10 47 -5 0 -10 -5 -10 -10 0 -19 -98 -9 -117 12 -17 19 -17 20 0 33 21 15 102 12 123 -6 15 -12 15 -11 17 34 1 20 -3 22 -54 22 -30 0 -63 -2 -74 -4z"
       id="path3033" />
    <path
       d="M1939 7510 c-1 -8 -1 -82 0 -165 3 -141 11 -191 27 -151 10 27 -3 307 -15 319 -8 8 -11 7 -12 -3z"
       id="path3035" />
    <path
       d="M26 7371 c5 -96 4 -131 -5 -131 -6 0 -11 -4 -11 -10 0 -5 17 -10 37 -10 29 0 34 3 25 12 -16 16 -15 100 1 122 7 10 22 16 33 14 17 -3 19 -12 19 -76 0 -71 0 -72 26 -72 25 0 26 1 21 58 -2 31 -11 68 -19 81 -13 20 -21 23 -54 18 l-38 -5 -3 61 c-2 50 -6 62 -21 65 -17 4 -18 -4 -11 -127z"
       id="path3037" />
    <path
       d="M605 7391 c-27 -4 -55 -10 -61 -14 -19 -11 -23 -44 -9 -71 14 -26 11 -54 -8 -94 -18 -39 1 -57 66 -60 47 -2 59 1 76 19 41 45 15 79 -61 79 -56 0 -63 19 -10 32 33 9 62 41 62 70 0 10 5 18 10 18 6 0 10 7 10 15 0 8 -6 14 -12 14 -7 -1 -35 -5 -63 -8z m13 -53 c3 -29 -1 -38 -17 -43 -28 -8 -41 1 -41 30 0 39 11 56 34 53 16 -2 22 -11 24 -40z m20 -124 c47 -13 13 -54 -46 -54 -33 0 -57 22 -48 45 6 16 52 20 94 9z"
       id="path3039" />
    <path
       d="M268 7378 c36 -18 26 -60 -17 -72 -39 -11 -61 -47 -41 -71 14 -17 51 -20 67 -4 8 8 17 7 32 -2 16 -11 23 -11 33 -1 9 9 10 15 1 20 -6 4 -13 32 -16 62 -6 57 -24 81 -61 79 -20 0 -20 -1 2 -11z m20 -105 c-2 -20 -9 -29 -25 -31 -19 -3 -23 1 -23 21 0 25 11 35 38 36 9 1 12 -9 10 -26z"
       id="path3041" />
    <path
       d="M800 7370 c11 -11 20 -24 20 -29 0 -11 -25 -21 -51 -21 -22 0 -26 29 -7 48 9 9 9 12 0 12 -7 0 -21 -9 -32 -20 -45 -45 -13 -140 47 -140 30 0 63 17 63 32 0 7 -4 7 -12 1 -39 -30 -88 -9 -88 37 0 18 7 20 55 20 48 0 55 3 55 19 0 11 -12 29 -26 40 -34 27 -50 27 -24 1z"
       id="path3043" />
    <path
       d="M385 7369 c-4 -5 -1 -9 4 -9 7 0 11 -24 11 -60 0 -33 -4 -60 -10 -60 -5 0 -10 -4 -10 -10 0 -5 16 -10 35 -10 34 0 46 12 25 25 -12 7 -12 61 -1 90 4 11 17 20 29 20 12 0 21 4 19 10 -3 13 -95 16 -102 4z"
       id="path3045" />
    <path
       d="M1626 7319 c-36 -28 -36 -77 2 -110 38 -35 76 -36 119 -3 31 24 35 30 30 61 -7 40 -23 63 -45 63 -13 0 -13 -2 1 -18 37 -41 15 -86 -41 -86 -47 0 -72 17 -72 50 0 21 4 24 25 20 21 -4 25 -1 25 20 0 29 -9 30 -44 3z"
       id="path3047" />
    <path
       d="M2242 7241 c-8 -5 -34 -7 -58 -6 -76 5 -116 -49 -74 -100 7 -9 8 -15 1 -19 -15 -10 -9 -138 7 -144 6 -2 12 1 12 6 0 12 108 13 116 1 10 -18 22 -9 26 21 6 38 -6 60 -24 42 -16 -16 -88 -15 -112 3 -11 8 -16 21 -13 30 8 18 107 21 125 3 9 -9 13 -8 17 5 11 26 1 62 -15 58 -8 -2 -36 -5 -61 -7 -40 -2 -48 1 -59 22 -8 13 -11 27 -7 30 10 11 119 5 133 -7 12 -9 14 -4 14 30 0 42 -5 47 -28 32z"
       id="path3049" />
    <path
       d="M1942 6984 c2 -95 7 -139 15 -141 8 -3 13 26 15 105 3 124 -1 163 -20 170 -10 3 -12 -26 -10 -134z"
       id="path3051" />
    <path
       d="M1566 7041 c-9 -9 -19 -32 -22 -49 -6 -28 -2 -37 30 -67 39 -36 47 -39 131 -37 41 1 54 6 73 27 29 34 28 66 -4 104 -21 25 -33 31 -65 31 -59 0 -89 -43 -69 -96 11 -28 10 -28 -34 -10 -34 14 -53 46 -41 67 4 6 13 8 20 5 7 -2 21 1 30 8 15 11 14 13 -8 23 -21 10 -28 9 -41 -6z m197 -49 c25 -22 21 -37 -15 -56 -26 -14 -39 -15 -61 -7 -24 9 -28 16 -25 43 4 47 57 58 101 20z"
       id="path3053" />
    <path
       d="M153 7010 c-66 -27 -72 -209 -8 -234 58 -22 118 22 113 82 -4 45 -44 78 -79 66 -24 -8 -23 -8 6 -14 52 -9 60 -94 13 -124 -39 -24 -73 35 -57 96 4 15 4 30 -1 33 -14 8 12 74 32 81 10 3 18 10 18 15 0 11 -8 11 -37 -1z"
       id="path3055" />
    <path
       d="M589 6941 c-21 -16 -22 -22 -11 -45 6 -14 23 -31 37 -38 28 -12 34 -45 10 -55 -9 -3 -25 3 -37 13 -20 19 -20 19 -17 -1 6 -30 76 -28 97 3 14 21 12 24 -29 62 -39 36 -43 42 -31 60 15 25 11 25 -19 1z"
       id="path3057" />
    <path
       d="M2120 6942 c-31 -25 -30 -77 3 -110 19 -18 35 -24 67 -24 45 1 67 14 80 48 11 28 -6 94 -25 94 -11 0 -12 -7 -4 -32 7 -24 5 -36 -7 -49 -19 -21 -59 -30 -73 -16 -6 6 -11 7 -11 3 0 -5 -7 -3 -15 4 -8 7 -15 23 -15 36 0 19 5 24 26 24 18 0 25 5 22 17 -5 24 -22 26 -48 5z"
       id="path3059" />
    <path
       d="M421 6924 c-27 -34 -27 -88 -1 -114 27 -27 81 -26 106 2 l19 21 -28 -18 c-35 -22 -72 -9 -79 29 -7 34 -3 36 52 36 55 0 63 6 48 34 -15 29 -28 36 -65 36 -22 0 -38 -8 -52 -26z m87 -11 c3 -20 -1 -23 -32 -23 -38 0 -47 15 -24 38 20 20 53 10 56 -15z"
       id="path3061" />
    <path
       d="M714 6933 c3 -10 8 -40 11 -68 8 -69 18 -76 93 -69 44 5 60 10 53 17 -6 6 -11 39 -11 74 0 61 -1 63 -25 63 -22 0 -24 -3 -15 -19 11 -22 13 -80 4 -105 -4 -9 -18 -16 -35 -16 -28 0 -28 1 -31 68 -3 62 -5 67 -26 70 -19 3 -23 0 -18 -15z"
       id="path3063" />
    <path
       d="M1947 6753 c-6 -33 0 -213 8 -221 14 -14 20 19 21 116 1 59 -1 113 -3 120 -8 20 -20 13 -26 -15z"
       id="path3065" />
    <path
       d="M2190 6743 c-8 -3 -22 -14 -31 -25 -15 -20 -17 -20 -42 -4 -21 14 -30 15 -49 5 -31 -16 -38 -28 -38 -66 0 -22 8 -38 26 -52 32 -25 47 -26 69 -5 25 25 3 40 -29 19 -25 -16 -25 -16 -31 8 -12 46 -3 62 35 62 29 0 36 -4 38 -22 4 -30 18 -29 26 2 15 61 89 47 94 -18 3 -36 3 -37 -32 -37 -25 0 -36 -4 -36 -15 0 -30 61 -13 82 23 17 30 15 90 -5 109 -15 15 -57 24 -77 16z"
       id="path3067" />
    <path
       d="M7160 6483 c-37 -15 -44 -33 -31 -80 10 -38 9 -49 -4 -69 -35 -55 -9 -100 66 -110 35 -5 47 -2 60 12 29 33 32 77 8 108 -20 26 -20 28 -4 46 18 20 15 61 -7 87 -11 13 -61 16 -88 6z m64 -29 c27 -26 16 -64 -19 -64 -33 0 -48 22 -35 54 11 29 31 33 54 10z m5 -183 c-17 -26 -74 -30 -83 -5 -11 30 -6 53 16 68 21 15 24 14 51 -13 26 -25 27 -30 16 -50z"
       id="path3069" />
    <path
       d="M4280 6463 c-77 -54 -61 -218 23 -247 58 -21 108 58 99 156 -3 28 -14 49 -37 72 -35 36 -55 40 -85 19z m75 -123 c0 -62 -4 -83 -18 -97 -16 -17 -18 -16 -39 4 -19 19 -22 32 -20 99 1 57 5 81 18 95 17 19 18 19 38 -1 18 -17 21 -33 21 -100z"
       id="path3071" />
    <path
       d="M6890 6471 c-75 -21 -71 -222 5 -251 56 -21 115 42 115 124 0 44 -15 85 -42 114 -22 23 -35 25 -78 13z m58 -45 c15 -31 20 -115 9 -159 -11 -41 -48 -34 -64 13 -37 108 12 237 55 146z"
       id="path3073" />
    <path
       d="M3567 6446 c-16 -15 -29 -42 -37 -80 -12 -59 -30 -72 -50 -37 -14 28 -12 57 5 71 19 16 19 30 1 30 -24 0 -56 -50 -56 -87 0 -47 14 -69 51 -82 18 -6 29 -16 26 -23 -6 -18 12 -50 24 -43 5 4 9 17 9 31 0 19 10 29 46 45 82 39 124 147 72 183 -32 22 -61 20 -91 -8z m71 -35 c8 -4 12 -19 10 -31 -4 -29 -71 -85 -92 -77 -14 6 -14 10 0 44 14 35 47 73 63 73 3 0 12 -4 19 -9z"
       id="path3075" />
    <path
       d="M6558 6455 c-2 -2 -3 -25 -2 -50 3 -52 -10 -63 -69 -60 -26 1 -41 -3 -44 -12 -8 -21 1 -25 59 -27 l53 -1 1 -42 c2 -90 36 -96 38 -6 l1 48 52 0 c57 0 69 6 60 30 -5 11 -16 14 -41 11 -61 -8 -78 2 -76 43 3 59 1 71 -13 71 -8 0 -16 -2 -19 -5z"
       id="path3077" />
    <path
       d="M1950 6326 c0 -107 12 -157 25 -104 11 43 1 211 -12 216 -10 3 -13 -24 -13 -112z"
       id="path3079" />
    <path
       d="M5819 6418 c-24 -26 -39 -59 -46 -103 -7 -42 -19 -52 -41 -31 -22 19 -21 59 2 85 20 22 20 31 2 31 -22 0 -66 -66 -66 -98 0 -29 28 -63 64 -76 14 -5 17 -14 14 -37 -4 -26 -2 -30 16 -27 16 2 21 10 21 32 0 26 5 30 46 42 37 11 49 21 69 56 34 60 36 95 9 124 -28 30 -62 31 -90 2z m75 -54 c12 -30 -46 -94 -85 -94 -23 0 -24 10 -5 54 24 57 75 79 90 40z"
       id="path3081" />
    <path
       d="M3796 6412 c-2 -4 -1 -14 3 -20 6 -9 44 -12 142 -10 118 3 134 5 137 21 3 15 -9 17 -137 17 -77 0 -142 -4 -145 -8z"
       id="path3083" />
    <path
       d="M6036 6393 c-2 -3 -2 -11 1 -19 4 -12 30 -14 132 -13 138 2 151 4 151 25 0 12 -24 15 -139 13 -77 0 -142 -3 -145 -6z"
       id="path3085" />
    <path
       d="M3795 6311 c-11 -20 24 -26 145 -27 117 -1 157 6 144 27 -7 12 -281 12 -289 0z"
       id="path3087" />
    <path
       d="M6037 6285 c-4 -8 -3 -16 1 -19 6 -3 177 -1 265 3 9 1 17 8 17 16 0 22 -275 22 -283 0z"
       id="path3089" />
    <path
       d="M1955 6129 c-10 -25 -1 -239 10 -242 14 -3 19 233 6 246 -7 7 -12 5 -16 -4z"
       id="path3091" />
    <path
       d="M4792 6078 c-7 -7 -36 -13 -65 -13 -51 0 -52 0 -51 -30 1 -16 2 -42 3 -57 1 -25 4 -26 34 -21 23 3 39 -1 57 -15 22 -18 23 -23 15 -58 -8 -30 -16 -39 -39 -45 -38 -10 -46 -5 -46 32 0 36 -23 35 -28 -1 -5 -32 22 -50 73 -50 91 0 125 105 50 154 -16 11 -32 12 -59 6 -29 -6 -39 -5 -43 7 -8 21 6 31 50 36 34 4 77 36 77 59 0 12 -14 10 -28 -4z"
       id="path3093" />
    <path
       d="M5230 6048 c-16 -13 -26 -16 -34 -8 -14 14 -39 13 -54 -2 -7 -7 -28 -11 -47 -9 -38 3 -43 -4 -21 -28 15 -18 28 -111 15 -111 -5 0 -9 -4 -9 -10 0 -12 50 -13 68 -1 11 6 10 10 -3 15 -10 3 -15 12 -12 21 3 7 2 27 -2 43 -10 35 3 62 29 62 11 0 20 -3 21 -7 0 -5 2 -17 5 -28 7 -36 7 -82 0 -94 -6 -9 3 -10 31 -7 21 2 39 5 41 5 2 1 -4 11 -12 23 -21 29 -21 102 -1 118 26 21 39 -3 40 -70 l0 -60 34 0 c28 0 32 3 26 18 -4 9 -10 37 -12 62 -9 74 -57 105 -103 68z"
       id="path3095" />
    <path
       d="M3041 6015 c-11 -15 -22 -20 -31 -15 -15 10 -21 8 -112 -29 -27 -10 -39 -31 -18 -31 5 0 16 -13 25 -30 9 -16 13 -30 9 -30 -4 0 -1 -7 6 -15 6 -8 9 -23 5 -35 -8 -24 14 -26 60 -5 28 13 29 14 9 20 -21 6 -50 52 -40 63 3 2 1 13 -4 23 -10 18 10 49 31 49 14 0 39 -68 39 -106 0 -37 5 -39 44 -24 28 10 35 30 11 30 -8 0 -14 3 -13 8 1 4 -5 27 -12 51 -13 40 -12 45 5 57 13 9 22 11 31 4 16 -14 36 -94 28 -114 -8 -20 25 -22 51 -2 18 13 18 15 2 30 -9 10 -17 28 -17 40 0 32 -34 73 -65 78 -19 4 -31 -1 -44 -17z"
       id="path3097" />
    <path
       d="M4965 6020 c-51 -19 -73 -75 -50 -121 32 -61 97 -69 137 -17 23 31 15 35 -18 9 -33 -26 -46 -26 -67 -3 -23 26 -22 85 2 106 21 19 41 14 41 -8 0 -8 7 -19 15 -26 12 -10 16 -9 21 5 14 37 -37 71 -81 55z"
       id="path3099" />
    <path
       d="M6889 5996 c-2 -2 -29 -7 -59 -10 -101 -12 -130 -18 -130 -27 0 -8 21 -13 42 -10 4 0 37 3 75 7 37 3 77 7 88 9 11 2 24 4 28 4 5 1 7 6 5 13 -4 11 -41 21 -49 14z"
       id="path3101" />
    <path
       d="M2515 5935 c-25 -24 -32 -65 -19 -99 7 -17 39 -22 48 -7 7 11 -28 43 -37 34 -4 -3 -7 0 -7 9 0 19 32 48 52 48 29 0 41 -27 34 -75 -4 -24 -11 -47 -17 -50 -5 -4 -9 -13 -9 -22 0 -25 38 13 56 56 20 49 17 84 -9 109 -30 29 -62 28 -92 -3z"
       id="path3103" />
    <path
       d="M6480 5945 c-52 -7 -96 -14 -98 -14 -2 -1 0 -6 3 -12 7 -10 58 -8 190 7 55 6 65 10 65 25 0 11 -40 10 -160 -6z"
       id="path3105" />
    <path
       d="M2766 5925 c-52 -49 -27 -132 45 -150 21 -5 34 0 60 24 26 22 31 33 22 41 -8 9 -13 7 -17 -8 -7 -21 -39 -34 -61 -26 -12 5 -36 46 -41 71 -2 13 32 53 45 53 5 0 15 -10 24 -22 11 -18 18 -20 27 -11 9 8 7 16 -9 32 -28 28 -62 27 -95 -4z"
       id="path3107" />
    <path
       d="M6209 5916 c-2 -2 -42 -7 -89 -11 -91 -7 -107 -12 -92 -27 6 -6 47 -5 113 2 133 15 151 18 144 30 -6 9 -67 14 -76 6z"
       id="path3109" />
    <path
       d="M3515 5880 c-100 -26 -147 -40 -162 -49 -35 -19 10 -23 73 -6 32 9 79 22 103 28 25 7 46 18 49 25 4 13 -17 14 -63 2z"
       id="path3111" />
    <path
       d="M5767 5866 c-49 -6 -86 -15 -85 -21 3 -11 36 -11 153 0 109 11 110 11 110 21 0 13 -78 13 -178 0z"
       id="path3113" />
    <path
       d="M1958 5822 c-10 -37 -3 -205 8 -209 16 -5 22 29 20 124 -2 80 -17 127 -28 85z"
       id="path3115" />
    <path
       d="M5488 5835 c-2 -2 -36 -6 -77 -9 -78 -7 -91 -11 -91 -27 0 -11 39 -9 200 11 47 5 86 10 88 10 2 0 0 5 -3 10 -5 9 -109 12 -117 5z"
       id="path3117" />
    <path
       d="M2659 5802 c-1 -7 -2 -17 -3 -23 -1 -16 -75 -41 -97 -34 -14 5 -20 -1 -25 -20 -3 -14 -4 -29 -1 -32 4 -3 39 5 79 18 71 23 73 25 70 54 -3 31 -21 59 -23 37z"
       id="path3119" />
    <path
       d="M3206 5795 c-21 -7 -72 -21 -112 -30 -51 -11 -74 -21 -74 -31 0 -12 8 -13 38 -8 20 4 44 10 52 14 8 4 48 15 88 25 46 11 72 22 72 31 0 17 -14 17 -64 -1z"
       id="path3121" />
    <path
       d="M5149 5796 c-3 -3 -43 -7 -173 -19 -11 -1 -21 -8 -24 -14 -5 -16 20 -16 148 -3 106 11 130 17 130 31 0 8 -72 13 -81 5z"
       id="path3123" />
    <path
       d="M4767 5754 c-2 -2 -30 -5 -63 -8 -88 -7 -144 -17 -144 -27 0 -13 6 -13 110 -5 147 12 180 18 180 32 0 10 -12 13 -40 12 -22 -1 -41 -3 -43 -4z"
       id="path3125" />
    <path
       d="M1285 5720 c-26 -28 -30 -38 -30 -95 0 -88 42 -145 98 -131 58 14 86 85 67 167 -21 87 -83 113 -135 59z m86 -17 c13 -35 8 -168 -8 -184 -15 -15 -51 -2 -58 21 -3 10 -6 46 -6 80 -1 93 47 148 72 83z"
       id="path3127" />
    <path
       d="M1674 5739 c-4 -7 -25 -9 -60 -4 -41 5 -54 3 -55 -7 -1 -13 -1 -96 0 -111 1 -4 10 -3 21 3 31 17 74 -8 78 -44 4 -35 -32 -77 -62 -72 -15 2 -22 11 -24 34 -3 31 -31 47 -33 20 -4 -45 14 -66 59 -72 70 -8 125 64 96 125 -16 32 -32 39 -86 39 -32 0 -39 3 -36 18 2 12 15 18 48 20 46 3 80 24 80 49 0 16 -16 17 -26 2z"
       id="path3129" />
    <path
       d="M2865 5704 c-27 -7 -78 -20 -112 -30 -35 -9 -63 -20 -63 -25 0 -16 17 -18 55 -8 20 6 46 12 57 14 21 4 80 23 116 36 23 9 31 30 10 28 -7 -1 -35 -7 -63 -15z"
       id="path3131" />
    <path
       d="M4355 5709 c-102 -11 -125 -17 -125 -30 0 -11 67 -8 197 7 54 6 66 11 58 25 -7 10 -17 10 -130 -2z"
       id="path3133" />
    <path
       d="M4059 5676 c-2 -2 -37 -6 -77 -10 -89 -7 -122 -15 -122 -28 0 -7 28 -7 78 -3 42 4 98 9 124 10 48 3 68 10 68 26 0 8 -62 13 -71 5z"
       id="path3135" />
    <path
       d="M2510 5609 c-41 -11 -84 -22 -94 -24 -24 -5 -42 -22 -34 -31 10 -9 241 50 246 64 5 16 -27 14 -118 -9z"
       id="path3137" />
    <path
       d="M3428 5605 c-2 -1 -35 -5 -75 -8 -86 -7 -123 -16 -123 -29 0 -5 35 -7 84 -4 107 6 158 16 153 29 -3 10 -32 19 -39 12z"
       id="path3139" />
    <path
       d="M3013 5557 c-60 -7 -83 -14 -83 -24 0 -11 14 -13 73 -7 122 11 160 19 165 32 4 14 -31 14 -155 -1z"
       id="path3141" />
    <path
       d="M2741 5526 c-56 -7 -86 -16 -89 -25 -4 -11 8 -12 64 -7 126 12 155 18 151 30 -5 14 -23 14 -126 2z"
       id="path3143" />
    <path
       d="M2548 5505 c-1 -2 -32 -6 -68 -9 -94 -10 -121 -16 -114 -28 4 -7 38 -8 97 -3 94 7 117 12 117 25 0 8 -26 21 -32 15z"
       id="path3145" />
    <path
       d="M1211 5216 c-19 -20 -22 -32 -17 -60 4 -19 12 -36 19 -39 9 -3 8 -9 -4 -23 -24 -29 -30 -52 -17 -78 22 -50 111 -58 143 -13 19 27 19 54 1 89 -9 16 -12 42 -9 66 8 57 -9 82 -56 82 -27 0 -44 -7 -60 -24z m87 -8 c17 -17 15 -53 -3 -68 -12 -10 -20 -9 -40 4 -38 25 -28 76 15 76 9 0 21 -5 28 -12z m-28 -123 c0 5 9 0 20 -10 27 -25 22 -56 -12 -75 -51 -28 -86 24 -51 78 11 19 17 21 29 11 8 -6 14 -8 14 -4z"
       id="path3147" />
    <path
       d="M167 5202 c-29 -31 -53 -80 -56 -117 -2 -25 -38 -18 -45 9 -6 26 6 70 23 81 16 9 13 25 -4 25 -16 0 -70 -78 -69 -100 1 -34 17 -60 44 -72 21 -9 30 -20 32 -43 3 -34 20 -37 28 -4 3 12 12 25 20 29 8 4 30 14 48 23 19 10 39 14 44 10 6 -3 8 -1 5 4 -4 6 2 22 13 36 60 76 -18 187 -83 119z m79 -57 c4 -25 -39 -71 -77 -84 -34 -12 -43 -2 -30 32 24 63 100 100 107 52z"
       id="path3149" />
    <path
       d="M420 5139 c0 -22 1 -22 165 -19 104 1 124 7 125 33 0 4 -65 7 -145 6 -134 -2 -145 -3 -145 -20z"
       id="path3151" />
    <path
       d="M838 5102 c-34 -4 -37 -30 -5 -36 19 -4 197 -2 235 2 8 1 12 10 10 20 -3 15 -16 17 -108 17 -58 0 -117 -1 -132 -3z"
       id="path3153" />
    <path
       d="M424 5048 c-16 -25 34 -31 229 -29 51 1 57 3 57 21 0 20 -5 21 -140 19 -77 -1 -143 -6 -146 -11z"
       id="path3155" />
    <path
       d="M2060 4941 c0 -11 5 -33 11 -48 20 -48 27 -67 37 -98 29 -89 45 -125 53 -125 16 0 9 33 -35 159 -39 116 -66 161 -66 112z"
       id="path3157" />
    <path
       d="M2430 4791 c0 -5 -24 -21 -54 -35 -29 -14 -56 -33 -60 -42 -12 -31 -6 -54 19 -70 19 -12 23 -22 19 -39 -4 -16 1 -30 15 -44 12 -12 21 -26 21 -32 0 -6 5 -19 10 -30 11 -19 11 -19 33 2 27 26 84 52 97 44 6 -4 14 -3 20 0 11 7 -19 75 -32 75 -5 0 -8 6 -7 13 1 6 -4 27 -11 45 l-12 32 -22 -21 c-12 -12 -39 -27 -59 -34 -32 -11 -40 -11 -53 2 -17 17 -15 33 7 43 8 4 29 15 47 24 26 14 36 15 47 6 19 -16 20 7 3 45 -11 24 -28 34 -28 16z m69 -165 c14 -17 5 -42 -17 -50 -56 -20 -72 -24 -72 -15 0 6 -5 7 -10 4 -6 -3 -13 1 -16 9 -7 19 14 48 30 43 6 -2 17 2 24 10 17 17 46 17 61 -1z"
       id="path3159" />
    <path
       d="M2202 4571 c-11 -7 -11 -16 -1 -52 7 -24 16 -48 20 -54 3 -5 17 -43 29 -83 13 -40 27 -75 32 -78 17 -11 20 28 5 64 -9 20 -28 76 -42 125 -15 48 -28 87 -29 87 0 0 -7 -4 -14 -9z"
       id="path3161" />
    <path
       d="M2530 4510 c-9 -6 -7 -9 8 -14 25 -8 39 -60 22 -81 -6 -7 -24 -18 -40 -23 -23 -9 -33 -7 -49 7 -26 23 -26 26 0 52 25 25 11 51 -19 33 -28 -18 -27 -77 1 -108 36 -38 84 -36 125 7 30 31 33 42 19 82 -10 28 -50 55 -67 45z"
       id="path3163" />
    <path
       d="M3321 4500 c-17 -15 -22 -27 -18 -46 3 -20 0 -28 -14 -31 -19 -5 -35 -37 -31 -60 2 -7 -1 -13 -6 -13 -8 0 -32 -43 -32 -57 0 -3 7 -3 15 1 20 7 79 -19 105 -46 21 -23 22 -23 36 -4 16 22 19 60 4 51 -5 -3 -16 -3 -22 2 -7 4 -19 8 -27 10 -27 4 -53 39 -46 62 3 11 12 21 18 21 15 0 98 -56 97 -65 -5 -21 11 -12 24 14 19 36 20 41 3 41 -21 0 -91 39 -100 56 -6 11 -4 21 5 30 13 13 21 11 67 -11 34 -18 51 -32 47 -40 -3 -9 0 -12 10 -8 22 8 38 54 22 64 -6 4 -16 5 -21 2 -4 -3 -16 2 -25 10 -13 11 -79 39 -86 37 -1 -1 -12 -10 -25 -20z"
       id="path3165" />
    <path
       d="M2589 4293 c-15 -4 -29 -28 -33 -58 0 -5 -15 -9 -31 -7 -67 7 -93 -56 -46 -107 24 -25 32 -28 62 -22 25 5 35 13 37 29 4 28 -28 30 -35 2 -6 -24 -16 -25 -37 -4 -41 40 -2 94 49 68 36 -19 35 -19 35 20 0 69 94 59 98 -11 1 -21 -22 -38 -38 -28 -14 9 -19 -23 -6 -34 25 -21 59 19 59 68 0 69 -46 103 -114 84z"
       id="path3167" />
    <path
       d="M3204 4260 c-29 -11 -36 -24 -36 -67 0 -50 44 -94 92 -91 43 2 67 21 75 59 7 33 -2 72 -15 64 -5 -3 -7 -11 -4 -19 3 -7 0 -25 -6 -41 -10 -25 -14 -27 -48 -22 -40 7 -72 37 -72 68 0 20 7 22 53 19 30 -2 39 23 11 34 -19 7 -23 7 -50 -4z"
       id="path3169" />
    <path
       d="M1456 4242 c-3 -5 -25 -12 -48 -16 -61 -10 -88 -30 -88 -67 0 -17 7 -37 15 -45 9 -10 12 -25 8 -44 -3 -17 -1 -36 4 -42 5 -7 10 -26 11 -42 3 -38 8 -43 29 -24 10 9 39 20 65 26 38 8 49 6 63 -7 16 -15 17 -13 10 24 -9 52 -16 61 -29 43 -6 -8 -30 -19 -53 -25 -33 -8 -46 -8 -62 4 -20 14 -29 42 -13 44 9 2 39 7 79 13 18 3 35 1 38 -5 11 -16 23 0 18 24 -10 45 -13 50 -26 39 -6 -5 -33 -14 -59 -20 -41 -8 -49 -7 -64 10 -19 20 -10 39 23 45 61 12 93 13 93 3 0 -6 4 -9 9 -5 11 6 4 55 -8 68 -5 5 -11 4 -15 -1z"
       id="path3171" />
    <path
       d="M2310 4229 c0 -14 28 -102 47 -146 7 -17 16 -45 19 -62 7 -33 34 -43 34 -13 0 9 -12 49 -26 87 -14 39 -27 78 -29 87 -9 42 -45 79 -45 47z"
       id="path3173" />
    <path
       d="M4893 4220 c-12 -5 -24 -18 -28 -30 -4 -14 -12 -19 -22 -16 -8 4 -26 -6 -43 -22 -15 -15 -36 -32 -46 -38 -23 -14 -30 -34 -11 -34 21 0 78 -86 71 -105 -10 -25 9 -17 59 24 26 22 57 43 67 46 11 4 20 13 20 20 0 8 -6 12 -14 9 -20 -8 -70 79 -61 105 8 27 44 23 51 -5 3 -13 14 -30 25 -40 10 -9 19 -25 19 -36 0 -21 8 -22 33 -4 27 21 28 19 -54 114 -20 24 -32 26 -66 12z m-29 -113 c32 -42 35 -87 7 -87 -41 0 -92 100 -58 113 22 9 26 7 51 -26z"
       id="path3175" />
    <path
       d="M2990 4085 c0 -8 14 -43 31 -77 17 -35 36 -74 42 -87 17 -35 30 -35 47 2 18 39 55 45 55 10 1 -29 19 -35 23 -8 2 11 10 27 17 35 28 34 26 67 -3 38 -14 -14 -32 -1 -36 28 -2 11 -7 17 -12 15 -5 -2 -14 -5 -20 -8 -6 -2 -33 9 -60 25 -68 39 -84 44 -84 27z m90 -80 c33 -17 38 -36 15 -55 -19 -15 -20 -14 -40 33 -17 42 -16 43 25 22z"
       id="path3177" />
    <path
       d="M4645 4044 c-24 -22 -27 -31 -22 -67 7 -52 36 -77 87 -77 31 0 43 6 60 30 12 17 20 38 17 48 -3 13 -6 11 -17 -11 -14 -28 -48 -44 -75 -33 -9 3 -23 22 -31 41 -13 32 -13 38 1 58 17 24 19 24 41 2 18 -18 30 -19 39 -4 9 13 -24 38 -51 39 -12 0 -34 -12 -49 -26z"
       id="path3179" />
    <path
       d="M4422 4002 c-34 -26 -39 -81 -13 -135 31 -64 64 -92 111 -92 50 0 71 21 77 77 9 79 -58 121 -116 72 -38 -31 -51 -25 -51 27 0 48 23 63 47 30 11 -17 18 -19 28 -11 11 9 12 16 2 31 -15 24 -55 24 -85 1z m132 -117 c19 -29 21 -66 4 -83 -17 -17 -22 -15 -57 14 -29 25 -42 70 -24 87 16 17 61 6 77 -18z"
       id="path3181" />
    <path
       d="M1497 3953 c-4 -3 0 -14 9 -24 38 -42 -16 -103 -73 -83 -35 12 -44 49 -14 59 26 8 28 35 2 35 -49 0 -60 -80 -16 -117 29 -25 59 -29 102 -12 35 13 43 25 43 70 0 35 -38 88 -53 72z"
       id="path3183" />
    <path
       d="M2430 3898 c0 -19 41 -146 64 -200 44 -100 49 -28 6 77 -4 11 -18 46 -30 78 -21 53 -40 74 -40 45z"
       id="path3185" />
    <path
       d="M1472 3733 c-7 -3 -17 -16 -22 -29 -8 -21 -12 -23 -35 -12 -66 30 -122 -66 -69 -119 18 -18 79 -16 94 2 22 27 -3 39 -32 16 -19 -15 -28 -17 -36 -9 -19 19 -14 56 10 72 21 15 24 14 50 -11 26 -24 28 -25 33 -7 12 37 22 49 44 52 30 5 51 -15 51 -48 0 -23 -5 -29 -30 -33 -18 -4 -30 -13 -30 -22 0 -24 39 -17 66 12 21 23 25 34 20 63 -3 19 -6 40 -6 46 0 23 -72 41 -108 27z"
       id="path3187" />
    <path
       d="M2677 3194 c-3 -4 -2 -14 3 -24 5 -10 7 -20 4 -23 -3 -3 -1 -13 5 -24 12 -23 42 -103 46 -125 7 -32 25 -57 39 -52 11 4 8 19 -15 76 -16 39 -29 79 -29 89 0 10 -5 21 -11 24 -6 4 -8 13 -5 20 5 15 -27 49 -37 39z"
       id="path3189" />
    <path
       d="M4210 2536 l0 -54 -37 0 c-69 -1 -73 -2 -73 -21 0 -17 8 -20 53 -23 l52 -3 5 -55 c3 -30 8 -54 13 -52 4 1 12 2 17 2 6 0 10 25 10 56 l0 55 45 -4 c49 -4 83 12 71 32 -5 7 -20 12 -34 11 -81 -6 -82 -5 -82 55 0 48 -2 55 -20 55 -18 0 -20 -7 -20 -54z"
       id="path3191" />
    <path
       d="M4525 2583 c-31 -8 -42 -23 -17 -23 21 0 22 -5 24 -77 0 -43 1 -87 2 -98 1 -12 -8 -24 -22 -30 -37 -17 -25 -23 43 -23 36 0 65 5 65 9 0 5 -7 9 -15 9 -25 0 -33 32 -31 125 1 82 -6 117 -23 114 -3 -1 -15 -3 -26 -6z"
       id="path3193" />
    <path
       d="M4680 2554 c-29 -45 -33 -100 -12 -158 13 -38 24 -52 45 -59 46 -15 73 -2 97 49 45 92 2 205 -77 202 -26 -1 -38 -8 -53 -34z m90 -10 c13 -34 13 -150 0 -175 -16 -28 -49 -24 -61 9 -11 28 -8 160 5 180 13 21 46 13 56 -14z"
       id="path3195" />
    <path
       d="M3338 2553 c-14 -16 -32 -46 -39 -68 -24 -72 -40 -82 -59 -35 -11 26 -10 34 8 64 12 20 18 37 14 40 -13 8 -49 -30 -62 -66 -17 -45 -3 -84 35 -98 19 -7 25 -17 25 -39 0 -16 5 -33 11 -36 13 -9 19 -3 24 25 5 26 21 40 46 40 9 0 36 18 61 39 38 34 45 46 46 80 3 76 -60 106 -110 54z m70 -35 c30 -30 -7 -82 -66 -94 -28 -6 -32 -4 -32 14 0 20 61 92 78 92 4 0 13 -5 20 -12z"
       id="path3197" />
    <path
       d="M3630 2520 c-11 -7 -12 -12 -4 -20 7 -7 57 -10 145 -8 118 3 134 5 137 21 3 15 -8 17 -130 17 -73 0 -140 -5 -148 -10z"
       id="path3199" />
    <path
       d="M3760 2432 c-133 -3 -148 -6 -130 -27 9 -11 38 -14 134 -13 132 2 146 4 146 23 0 18 -20 20 -150 17z"
       id="path3201" />
    <path
       d="M1648 2335 c-3 -3 -988 -13 -1446 -14 -151 -1 -203 -4 -200 -13 3 -8 65 -11 229 -10 123 1 224 2 224 2 0 1 1186 10 1213 10 6 0 12 4 12 9 0 9 -25 22 -32 16z"
       id="path3203" />
    <path
       d="M2208 2272 c-23 -4 -23 -18 -1 -30 12 -7 20 -34 29 -93 13 -89 10 -109 -13 -109 -8 0 -13 -6 -10 -12 3 -12 30 -13 82 -3 11 2 23 4 28 4 16 2 6 21 -12 21 -24 0 -28 13 -36 125 -4 49 -9 93 -11 97 -4 7 -24 7 -56 0z"
       id="path3205" />
    <path
       d="M2702 2224 c-7 -13 -12 -14 -29 -4 -13 9 -30 10 -49 5 -16 -4 -39 -7 -51 -6 -34 4 -47 -8 -30 -27 17 -20 29 -110 16 -118 -22 -13 -6 -25 28 -19 46 7 49 10 29 30 -10 10 -16 33 -16 61 0 37 4 46 23 53 12 5 25 6 29 2 10 -10 17 -111 7 -117 -5 -3 -9 -10 -9 -15 0 -12 71 -1 85 14 7 7 6 8 -2 3 -16 -9 -24 7 -30 63 -5 55 12 80 40 58 18 -14 32 -103 17 -112 -30 -18 11 -38 49 -23 20 7 21 11 10 24 -7 9 -14 35 -15 59 -3 64 -18 85 -59 85 -21 0 -37 -6 -43 -16z"
       id="path3207" />
    <path
       d="M2431 2211 c-49 -13 -65 -74 -36 -143 13 -32 93 -38 120 -8 24 26 13 37 -17 16 -29 -21 -33 -20 -58 6 -26 28 -26 68 1 97 24 26 41 23 49 -8 3 -12 10 -22 15 -22 13 0 18 32 8 47 -11 15 -53 23 -82 15z"
       id="path3209" />
    <path
       d="M1985 2132 c-6 -4 -12 -23 -13 -42 -3 -34 -14 -82 -27 -127 -6 -17 -3 -23 9 -23 17 0 19 -11 18 -70 -2 -64 -26 -195 -42 -230 -58 -127 -90 -177 -153 -235 -50 -47 -82 -68 -127 -83 -33 -12 -62 -17 -65 -13 -2 5 -5 162 -6 350 -1 291 -3 344 -16 357 -14 13 -86 14 -612 9 -328 -3 -676 -5 -773 -5 -157 0 -178 -2 -178 -16 0 -15 65 -16 769 -9 499 5 770 4 774 -2 9 -14 10 -1223 2 -1231 -4 -4 -349 -8 -768 -10 -450 -2 -766 -7 -771 -12 -5 -5 -7 -12 -4 -15 6 -7 495 -7 1135 0 266 2 409 7 422 15 20 10 21 18 21 269 0 278 -1 270 50 276 62 7 156 69 213 140 99 121 152 282 166 502 1 7 8 10 16 7 19 -8 19 -8 -8 108 -14 60 -26 94 -32 90z"
       id="path3211" />
    <path
       d="M250 1715 c17 -21 27 -220 11 -239 -16 -19 2 -30 36 -21 19 4 23 9 14 18 -14 14 -15 82 -1 108 6 10 21 19 34 19 20 0 24 -6 28 -39 2 -21 0 -52 -3 -69 -5 -25 -3 -31 14 -36 11 -3 23 -3 27 -1 3 2 3 34 0 70 -7 79 -25 100 -77 90 l-33 -6 0 61 0 60 -31 0 c-27 0 -30 -2 -19 -15z"
       id="path3213" />
    <path
       d="M33 1685 c-32 -25 -33 -29 -33 -99 0 -66 3 -76 26 -99 29 -30 78 -42 126 -33 49 9 60 20 56 52 l-4 29 -13 -27 c-29 -58 -121 -53 -147 7 -19 46 -18 93 4 134 29 60 113 62 141 5 l15 -29 6 25 c10 37 -10 52 -81 57 -58 4 -67 2 -96 -22z"
       id="path3215" />
    <path
       d="M850 1633 c-59 -6 -84 -28 -75 -68 9 -45 7 -97 -7 -124 -11 -20 -10 -25 7 -37 11 -8 39 -13 64 -12 l46 1 -40 4 c-72 7 -85 63 -15 63 51 0 70 -8 70 -31 0 -24 17 -25 25 0 13 41 -5 53 -93 63 -32 4 -29 22 6 29 43 9 51 16 58 54 3 19 10 35 15 35 5 0 9 7 9 15 0 8 -6 14 -12 13 -7 -1 -33 -3 -58 -5z m5 -58 c0 -31 -4 -41 -19 -43 -32 -7 -50 50 -24 76 24 24 43 9 43 -33z"
       id="path3217" />
    <path
       d="M1046 1605 c18 -28 13 -40 -21 -48 -11 -3 -1 -5 23 -6 34 -1 42 2 42 17 0 23 -10 37 -38 51 -23 12 -23 12 -6 -14z"
       id="path3219" />
    <path
       d="M465 1606 c-11 -8 -16 -19 -12 -30 9 -22 27 -11 27 15 0 14 7 19 25 19 21 0 25 -5 25 -29 0 -25 -6 -31 -35 -41 -48 -16 -62 -43 -35 -70 16 -16 24 -18 40 -10 11 6 35 8 54 5 35 -7 60 10 32 21 -11 4 -16 20 -16 53 0 25 -7 54 -14 64 -16 20 -65 22 -91 3z m65 -89 c0 -28 -17 -47 -36 -40 -20 7 -17 40 4 52 26 16 32 13 32 -12z"
       id="path3221" />
    <path
       d="M625 1609 c-4 -5 -1 -9 6 -9 8 0 10 -21 7 -70 l-4 -70 34 0 c29 0 32 2 23 14 -7 8 -11 36 -9 63 3 44 5 48 31 51 16 2 26 9 24 15 -4 14 -104 19 -112 6z"
       id="path3223" />
    <path
       d="M970 1600 c-44 -44 -13 -140 46 -140 30 0 64 16 64 31 0 5 -11 2 -24 -6 -19 -13 -29 -14 -45 -5 -23 12 -40 62 -24 67 6 2 9 13 6 24 -3 10 0 26 7 34 19 23 -6 19 -30 -5z"
       id="path3225" />
    <path
       d="M4 1183 c2 -54 5 -113 5 -131 2 -55 25 -32 31 29 l5 54 53 3 c37 2 52 7 52 18 0 10 -14 14 -54 14 l-55 0 -3 52 c-2 41 -7 54 -21 56 -16 3 -17 -5 -13 -95z"
       id="path3227" />
    <path
       d="M300 1270 c-13 -8 -12 -10 3 -10 15 0 17 -12 17 -105 0 -87 -3 -105 -15 -105 -8 0 -15 -3 -15 -7 0 -5 26 -6 57 -4 32 3 48 7 36 9 -22 3 -23 7 -23 118 0 112 0 114 -22 114 -13 0 -30 -5 -38 -10z"
       id="path3229" />
    <path
       d="M475 1260 c-10 -11 -15 -23 -12 -27 4 -3 7 -2 7 4 0 20 51 25 71 7 37 -33 22 -71 -59 -155 -51 -54 -48 -58 53 -55 l60 1 2 35 c1 19 -1 27 -3 18 -4 -14 -16 -18 -55 -18 -27 0 -49 3 -49 7 0 4 23 28 50 53 55 50 64 86 34 128 -20 29 -74 30 -99 2z"
       id="path3231" />
    <path
       d="M743 1168 c-11 -13 -24 -33 -27 -45 -8 -26 16 -78 39 -87 30 -11 72 -6 86 11 13 15 12 15 -9 4 -28 -15 -58 -6 -73 20 -18 35 -4 49 51 49 42 0 50 3 50 18 0 50 -80 70 -117 30z m81 -4 c9 -23 -2 -34 -35 -34 -30 0 -34 6 -23 34 8 21 50 21 58 0z"
       id="path3233" />
    <path
       d="M900 1170 c-13 -25 1 -56 30 -65 11 -3 25 -15 30 -25 8 -15 5 -22 -12 -34 -16 -11 -18 -16 -7 -16 8 0 23 6 33 13 27 20 17 58 -22 82 -24 15 -31 26 -29 43 5 27 -9 29 -23 2z"
       id="path3235" />
    <path
       d="M1036 1153 c12 -90 16 -103 33 -112 9 -5 37 -8 62 -6 24 2 50 4 58 4 10 1 11 4 3 14 -6 7 -12 39 -14 72 -2 47 -7 60 -20 63 -16 3 -17 -2 -12 -42 8 -54 0 -92 -21 -100 -29 -11 -45 5 -45 44 0 65 -11 100 -31 100 -15 0 -17 -6 -13 -37z"
       id="path3237" />
  </g>
  <rect
     style="fill:#ffffff;stroke:#000000;fill-opacity:1;stroke-opacity:1"
     id="rect3327"
     width="53.185097"
     height="37.757359"
     x="-15.833732"
     y="50.353951"
     transform="matrix(0.80000003,0,0,0.80000003,-2.8775561e-6,0)" />
  <rect
     style="fill:#ffffff;fill-opacity:1;stroke:#000000;stroke-width:0.80000001;stroke-opacity:1"
     id="rect3327-4"
     width="42.667957"
     height="31.164886"
     x="-5.0412464"
     y="178.75504" />
  <text
     xml:space="preserve"
     style="font-size:8.64000034px;font-style:normal;font-variant:normal;font-weight:bold;font-stretch:normal;text-indent:0;text-align:start;text-decoration:none;line-height:125%;letter-spacing:0px;word-spacing:0px;text-transform:none;direction:ltr;block-progression:tb;writing-mode:lr-tb;text-anchor:start;baseline-shift:baseline;color:#000000;fill:#000000;fill-opacity:1;fill-rule:nonzero;stroke:none;stroke-width:0.99999994px;marker:none;visibility:visible;display:inline;overflow:visible;enable-background:accumulate;font-family:Linux Libertine O;-inkscape-font-specification:Sans"
     x="-5.7851791"
     y="53.081776"
     id="text3297"
     sodipodi:linespacing="125%"><tspan
       sodipodi:role="line"
       id="tspan3299"
       x="-5.7851791"
       y="53.081776">Charge</tspan><tspan
       sodipodi:role="line"
       x="-5.7851791"
       y="63.881779"
       id="tspan3301">6 esu</tspan></text>
  <text
     xml:space="preserve"
     style="font-size:8.64000034px;font-style:normal;font-variant:normal;font-weight:bold;font-stretch:normal;text-indent:0;text-align:start;text-decoration:none;line-height:125%;letter-spacing:0px;word-spacing:0px;text-transform:none;direction:ltr;block-progression:tb;writing-mode:lr-tb;text-anchor:start;baseline-shift:baseline;color:#000000;fill:#000000;fill-opacity:1;fill-rule:nonzero;stroke:none;stroke-width:0.99999994px;marker:none;visibility:visible;display:inline;overflow:visible;enable-background:accumulate;font-family:Linux Libertine O;-inkscape-font-specification:Sans"
     x="0.51733685"
     y="190.91479"
     id="text3297-5"
     sodipodi:linespacing="125%"><tspan
       sodipodi:role="line"
       id="tspan3299-0"
       x="0.51733685"
       y="190.91479">Charge</tspan><tspan
       sodipodi:role="line"
       x="0.51733685"
       y="201.7148"
       id="tspan3301-5">+12 esu</tspan></text>
  <path
     style="color:#000000;fill:none;stroke:#000000;stroke-width:0.70000005;stroke-linecap:butt;stroke-linejoin:miter;stroke-miterlimit:4;stroke-opacity:1;stroke-dasharray:none;stroke-dashoffset:0;marker:none;visibility:visible;display:inline;overflow:visible;enable-background:accumulate"
     d="m 39.285815,96.985919 -49.762786,0"
     id="path4115"
     inkscape:connector-curvature="0" />
  <path
     style="color:#000000;fill:none;stroke:#000000;stroke-width:0.70000005;stroke-linecap:butt;stroke-linejoin:miter;stroke-miterlimit:4;stroke-opacity:1;stroke-dasharray:none;stroke-dashoffset:0;marker:none;visibility:visible;display:inline;overflow:visible;enable-background:accumulate"
     d="m 39.285814,171.32861 -49.762784,0"
     id="path4115-6"
     inkscape:connector-curvature="0" />
  <path
     style="color:#000000;fill:none;stroke:#000000;stroke-width:1.25;stroke-linecap:butt;stroke-linejoin:miter;stroke-miterlimit:4;stroke-opacity:1;stroke-dasharray:none;stroke-dashoffset:0;marker:none;marker-start:url(#Arrow2Mstart);marker-end:url(#Arrow2Mend);visibility:visible;display:inline;overflow:visible;enable-background:accumulate"
     d="m -8.8701495,212.33577 0,-88.97276"
     id="path4146"
     inkscape:connector-curvature="0"
     sodipodi:nodetypes="cc"
     transform="matrix(0.80000003,0,0,0.80000003,-2.8775561e-6,0)" />
  <rect
     style="fill:#b9b9b9;fill-opacity:1;stroke:none"
     id="rect4970"
     width="20.621775"
     height="8.1795864"
     x="-146.28098"
     y="-11.866165"
     transform="matrix(0,-1,1,0,0,0)" />
  <text
     xml:space="preserve"
     style="font-size:15.20000076px;font-style:normal;font-variant:normal;font-weight:bold;font-stretch:normal;text-indent:0;text-align:start;text-decoration:none;line-height:125%;letter-spacing:0px;word-spacing:0px;text-transform:none;direction:ltr;block-progression:tb;writing-mode:lr-tb;text-anchor:start;baseline-shift:baseline;color:#000000;fill:#000000;fill-opacity:1;fill-rule:nonzero;stroke:none;stroke-width:0.99999994px;marker:none;visibility:visible;display:inline;overflow:visible;enable-background:accumulate;font-family:Linux Libertine O;-inkscape-font-specification:Sans"
     x="-145.01372"
     y="-5.1842432"
     id="text4966"
     sodipodi:linespacing="125%"
     transform="matrix(0,-1,1,0,0,0)"><tspan
       sodipodi:role="line"
       id="tspan4968"
       x="-145.01372"
       y="-5.1842432"
       style="font-size:8.64000034px">3 cm</tspan></text>
</svg>
