<?xml version="1.0" encoding="UTF-8" standalone="no"?>
<svg
   xmlns:dc="http://purl.org/dc/elements/1.1/"
   xmlns:cc="http://creativecommons.org/ns#"
   xmlns:rdf="http://www.w3.org/1999/02/22-rdf-syntax-ns#"
   xmlns:svg="http://www.w3.org/2000/svg"
   xmlns="http://www.w3.org/2000/svg"
   xmlns:xlink="http://www.w3.org/1999/xlink"
   xmlns:sodipodi="http://sodipodi.sourceforge.net/DTD/sodipodi-0.dtd"
   xmlns:inkscape="http://www.inkscape.org/namespaces/inkscape"
   version="1.0"
   width="274.800000pt"
   height="478.080000pt"
   viewBox="0 0 274.800000 478.080000"
   preserveAspectRatio="xMidYMid meet"
   id="svg3151"
   inkscape:version="0.48.4 r9939"
   sodipodi:docname="spherical-shell.svg">
  <defs
     id="defs3371">
    <marker
       inkscape:stockid="Arrow2Mend"
       orient="auto"
       refY="0.0"
       refX="0.0"
       id="Arrow2Mend"
       style="overflow:visible;">
      <path
         id="path4076"
         style="fill-rule:evenodd;stroke-width:0.62500000;stroke-linejoin:round;"
         d="M 8.7185878,4.0337352 L -2.2072895,0.016013256 L 8.7185884,-4.0017078 C 6.9730900,-1.6296469 6.9831476,1.6157441 8.7185878,4.0337352 z "
         transform="scale(0.6) rotate(180) translate(0,0)" />
    </marker>
  </defs>
  <sodipodi:namedview
     pagecolor="#ffffff"
     bordercolor="#666666"
     borderopacity="1"
     objecttolerance="10"
     gridtolerance="10"
     guidetolerance="10"
     inkscape:pageopacity="0"
     inkscape:pageshadow="2"
     inkscape:window-width="1280"
     inkscape:window-height="996"
     id="namedview3369"
     showgrid="false"
     inkscape:zoom="1.3729028"
     inkscape:cx="136.0598"
     inkscape:cy="367.36146"
     inkscape:window-x="0"
     inkscape:window-y="0"
     inkscape:window-maximized="1"
     inkscape:current-layer="svg3151" />
  <metadata
     id="metadata3153">
Created by potrace 1.10, written by Peter Selinger 2001-2011
<rdf:RDF>
  <cc:Work
     rdf:about="">
    <dc:format>image/svg+xml</dc:format>
    <dc:type
       rdf:resource="http://purl.org/dc/dcmitype/StillImage" />
  </cc:Work>
</rdf:RDF>
</metadata>
  <rect
     style="fill:none;stroke:none"
     id="rect4043"
     width="222.5197"
     height="352.57687"
     x="-5.6132735e-06"
     y="125.50314" />
  <image
     sodipodi:absref="/home/bcrowell/a/spherical-shell-shaded.jpg"
     xlink:href="spherical-shell-shaded.jpg"
     y="146.85809"
     x="15.605023"
     id="image3256"
     height="105.16047"
     width="104.45351" />
  <path
     style="fill:#000000;stroke:none"
     inkscape:connector-curvature="0"
     id="path3157"
     d="m 120.71361,144.83621 c -0.91905,0.53022 -1.9088,1.07812 -2.19158,1.23718 l -0.51255,0.28279 0.37115,0.26511 c 0.21209,0.14139 0.38883,0.37115 0.38883,0.4772 0,0.21209 -11.64718,12.00066 -15.21733,15.41175 -4.312467,4.10037 -8.236101,8.00633 -8.342146,8.25377 -0.159066,0.44185 0.335807,0.77766 0.706962,0.4772 0.777657,-0.63627 5.673364,-5.47895 14.156894,-13.99783 5.1078,-5.12547 9.42026,-9.31421 9.597,-9.31421 0.15906,0 0.4065,0.17674 0.56557,0.38883 0.26511,0.4065 0.26511,0.4065 0.65394,-0.4772 0.21208,-0.49488 0.70696,-1.53764 1.07811,-2.33297 0.37116,-0.79534 0.68929,-1.48462 0.68929,-1.53765 0,-0.19441 -0.28279,-0.0707 -1.94414,0.86603 z" />
  <path
     style="fill:#000000;stroke:none"
     d="m 51.162624,218.83884 -1.509657,1.69376 c -0.936723,1.04277 -2.158441,2.44049 -2.706335,3.12978 -0.565569,0.67161 -1.438224,1.66136 -1.933097,2.20925 -0.512547,0.5479 -1.270321,1.42129 -1.712172,1.95151 -0.777657,0.93672 -1.940461,2.29026 -2.117201,2.467 -0.05302,0.053 -0.674559,0.75115 -1.399194,1.54648 -1.325552,1.50229 -1.653258,1.72395 -1.564888,1.12303 0.0707,-0.68928 -0.252591,-0.44258 -0.570724,0.42344 -0.17674,0.4772 -0.564832,1.34838 -0.865291,1.89628 -0.406502,0.75998 -0.489717,1.01257 -0.312977,1.01257 0.141392,0 0.373364,-0.0972 0.497082,-0.22092 0.512547,-0.49487 2.206308,-1.67977 2.577462,-1.78581 0.494873,-0.15907 0.346853,-0.63848 -0.165694,-0.49709 -0.335806,0.0707 -0.341698,0.0574 -0.147283,-0.33138 0.123718,-0.22977 0.278366,-0.46247 0.331388,-0.5155 0.05302,-0.053 0.634056,-0.69223 1.270321,-1.39919 0.636265,-0.72464 1.335861,-1.53911 1.583298,-1.80422 1.237182,-1.30788 1.583298,-1.735 1.583298,-1.84105 0,-0.0707 0.815215,-1.04056 1.822634,-2.15402 0.989746,-1.13114 2.366111,-2.72327 3.037724,-3.57163 1.670196,-2.06786 2.217446,-2.72345 2.448589,-2.92726 l -0.147283,-0.40503 z"
     id="path3189"
     inkscape:connector-curvature="0" />
  <path
     style="fill:#000000;stroke:none"
     inkscape:connector-curvature="0"
     id="path3209"
     d="m 104.96605,183.08281 c -0.0353,0.10604 -0.22976,0.22976 -0.42418,0.26511 -0.19441,0.0354 -0.58324,0.15906 -0.84835,0.26511 -0.28279,0.10604 -0.56557,0.15906 -0.65394,0.10604 -0.0884,-0.053 -0.21209,-0.0177 -0.26511,0.0884 -0.14139,0.22977 0.22976,0.72464 0.51255,0.67162 0.37115,-0.053 1.51996,0.24743 1.51996,0.4065 0,0.17674 0.51255,0.12372 0.83068,-0.0707 0.12372,-0.0707 0.17674,-0.24743 0.12372,-0.37115 -0.10605,-0.30046 0.21209,-0.5479 0.37115,-0.28279 0.0707,0.12372 0.22977,0.12372 0.45953,-0.0177 0.4065,-0.21209 0.93672,-0.26511 3.69387,-0.42418 3.39341,-0.19441 4.31246,-0.26511 4.40083,-0.38883 0.10605,-0.0884 -0.63626,-0.0707 -6.23893,0.24744 -1.78508,0.0884 -2.08553,0.0707 -1.96182,-0.14139 0.10605,-0.19442 0.0884,-0.21209 -0.10604,-0.0354 -0.28278,0.28278 -0.58324,0.30046 -0.4065,0.0177 0.0884,-0.12371 0.053,-0.14139 -0.0884,-0.0707 -0.12372,0.0884 -0.35348,0.0177 -0.5479,-0.15907 -0.19441,-0.17674 -0.3358,-0.21209 -0.37115,-0.10604 z" />
  <path
     style="fill:#000000;stroke:none"
     inkscape:connector-curvature="0"
     id="path3213"
     d="m 140.29643,187.20086 0.0707,0.60091 -1.2195,0.21209 c -0.65394,0.10605 -2.70413,0.44185 -4.5599,0.74231 -1.8381,0.30046 -4.82501,0.77766 -6.62776,1.06044 -1.80275,0.30046 -3.78224,0.61859 -4.41851,0.70696 -0.63626,0.0884 -2.38599,0.37116 -3.88829,0.60092 -1.50229,0.24744 -3.07528,0.49487 -3.48178,0.54789 -0.42418,0.053 -1.07811,0.12372 -1.46694,0.17675 -0.37116,0.053 -0.91905,0.12371 -1.18416,0.15906 -0.26511,0.0353 -0.68929,0.12372 -0.93673,0.17674 -0.24743,0.053 -0.75998,0.14139 -1.14881,0.19442 -0.38883,0.053 -1.50229,0.22976 -2.47436,0.37115 -1.53764,0.24744 -2.2446,0.33581 -3.21668,0.4065 -0.28278,0.0177 -0.30045,1.00742 -0.0353,1.18416 0.17674,0.10605 0.79533,0.0177 3.16365,-0.4772 0.44185,-0.0884 1.04277,-0.19441 1.32555,-0.22976 0.51255,-0.0884 2.20925,-0.35348 3.44644,-0.54789 0.3358,-0.053 1.02509,-0.17674 1.50229,-0.26511 2.08553,-0.37116 5.30221,-0.91905 10.51604,-1.74973 3.05761,-0.49487 7.2817,-1.18416 9.36724,-1.53764 2.08553,-0.35348 4.22409,-0.67162 4.73664,-0.72464 0.8837,-0.0884 0.91905,-0.0884 0.91905,0.33581 0,0.58324 0.17674,0.72463 0.51254,0.44185 0.26511,-0.22976 0.72464,-0.42418 3.23435,-1.46694 0.65394,-0.28279 1.14881,-0.53023 1.11346,-0.56557 -0.10604,-0.10605 -3.21667,-0.70696 -4.34781,-0.84836 l -0.97207,-0.10604 0.0707,0.60092 z" />
  <path
     style="fill:#000000;stroke:none"
     inkscape:connector-curvature="0"
     id="path3227"
     d="m 46.924541,226.50789 c -0.371154,0.56557 -0.335806,0.72464 0.08837,0.33581 0.318132,-0.28278 0.53022,-0.14139 0.229762,0.15907 -0.0707,0.053 -0.123718,0.24743 -0.141392,0.42417 -0.01767,0.15907 -0.08837,0.56557 -0.159067,0.86603 -0.106044,0.45952 -0.0707,0.58324 0.141393,0.58324 0.141392,0 0.35348,-0.15906 0.459524,-0.35348 0.106045,-0.19441 0.159067,-0.35348 0.106045,-0.35348 -0.123719,0 0.26511,-1.09579 0.477198,-1.37857 0.141393,-0.19442 0.212089,-0.19442 0.335807,0 0.106044,0.17674 0.17674,0.17674 0.318132,-0.0354 0.335807,-0.53022 0.194415,-0.67161 -0.706961,-0.67161 -0.724635,0 -0.919049,0.0707 -1.148812,0.42417 z" />
  <path
     style="fill:#000000;stroke:none"
     inkscape:connector-curvature="0"
     id="path3231"
     d="m 49.045425,228.87621 c -0.353481,0.77766 -0.318133,2.06786 0.05302,2.50971 0.318132,0.37116 0.901375,0.40651 1.343226,0.0884 0.689287,-0.51254 0.653939,-2.45669 -0.0707,-2.93388 -0.671613,-0.44185 -1.00742,-0.35348 -1.325552,0.3358 z m 1.219508,0.19442 c 0.229762,1.14881 0.08837,2.45669 -0.247437,2.45669 -0.44185,0 -0.671613,-0.58325 -0.636265,-1.57299 0.03535,-0.56557 0.106044,-1.13114 0.176741,-1.23718 0.229762,-0.37116 0.600916,-0.19442 0.706961,0.35348 z" />
  <path
     style="fill:#000000;stroke:none"
     inkscape:connector-curvature="0"
     id="path3287"
     d="m 68.363137,297.13331 c -0.0707,0.21209 0.01767,69.84775 0.08837,74.3723 l 0.03535,1.85578 18.469359,0.10604 c 10.162565,0.0707 33.739716,0.15907 52.403496,0.22976 18.66377,0.0707 38.72379,0.15907 44.57389,0.21209 9.80909,0.0884 11.31138,0.0353 10.69279,-0.35348 -0.0707,-0.0353 -17.19683,-0.14139 -38.03451,-0.19441 -24.72596,-0.0884 -37.98148,-0.19442 -38.12288,-0.30046 -0.12371,-0.10605 -0.22976,-0.30046 -0.22976,-0.42418 0,-0.35348 -0.3358,-0.30046 -0.4772,0.053 -0.0707,0.17674 -0.19441,0.37116 -0.30045,0.44185 -0.10605,0.0707 -3.92364,0.0884 -8.50121,0.053 -4.5599,-0.053 -15.341058,-0.12372 -23.930635,-0.17674 -10.109544,-0.053 -15.694537,-0.1414 -15.818255,-0.26511 -0.106044,-0.10605 -0.17674,-8.07703 -0.17674,-23.2767 l -0.01767,-23.11763 15.906624,-0.0177 c 8.748644,-0.0177 19.65352,0.0177 24.24877,0.053 l 8.32446,0.0884 0.98975,1.3609 c 0.53022,0.74231 1.21951,1.62601 1.51996,1.96182 0.30046,0.33581 0.79534,0.9544 1.11347,1.3609 0.9544,1.25486 6.8045,6.94589 9.0491,8.81934 3.46411,2.88087 4.25944,3.48178 8.46586,6.48637 2.3153,1.67903 7.26403,4.8957 9.65002,6.29195 1.21951,0.72464 2.49204,1.48462 2.84552,1.71438 0.68928,0.42418 5.97382,2.73948 8.55423,3.72922 5.72638,2.20926 13.96248,4.64827 20.23676,5.9915 6.52171,1.41392 14.10387,2.82784 14.26294,2.66878 0.0353,-0.053 0.12372,-0.37116 0.17674,-0.72464 l 0.10604,-0.63626 -0.86602,0 c -0.4772,0 -1.78508,-0.15907 -2.89855,-0.33581 -14.03317,-2.35065 -25.73338,-5.65569 -35.50712,-10.03885 -3.62317,-1.62601 -6.78682,-3.37574 -11.59416,-6.48637 -3.46411,-2.2446 -9.84443,-6.98124 -13.32622,-9.91513 -2.19157,-1.85577 -6.85752,-6.43334 -8.14772,-8.04168 -1.0251,-1.25485 -1.46695,-1.7674 -1.69671,-2.01484 -0.12372,-0.14139 -2.08553,-2.91621 -2.27995,-3.23435 -0.0177,-0.0353 -6.94589,-0.0884 -15.39408,-0.14139 -8.448181,-0.053 -19.512122,-0.14139 -24.584568,-0.19441 l -9.243516,-0.10605 -0.01767,-2.15623 c -0.01767,-1.16648 -0.05302,-7.42309 -0.08837,-13.87411 -0.05302,-10.55139 -0.141392,-12.77832 -0.459524,-11.82392 z" />
  <path
     style="fill:#000000;stroke:none"
     inkscape:connector-curvature="0"
     id="path3335"
     d="m 190.11951,376.66643 c -0.0884,0.33581 -0.22976,0.33581 -4.25944,0.21209 -3.79991,-0.10605 -4.17107,-0.0884 -4.17107,0.17674 0,0.24744 0.4065,0.28278 3.97666,0.28278 3.64085,0 4.012,0.0353 4.25944,0.31814 0.24743,0.30045 0.35348,0.30045 1.00742,0.10604 0.4065,-0.12372 1.00742,-0.28278 1.34322,-0.37115 l 0.61859,-0.1414 -1.34322,-0.45952 c -1.30788,-0.44185 -1.3609,-0.45953 -1.4316,-0.12372 z" />
  <path
     style="fill:#000000;stroke:none"
     inkscape:connector-curvature="0"
     id="path3341"
     d="m 68.681269,407.2425 c 0.05302,8.0947 0.159066,24.00133 0.229763,35.34805 0.05302,11.32905 0.141392,20.66094 0.194414,20.69629 0.08837,0.10604 20.749308,0.19441 87.574804,0.4065 26.31663,0.0707 37.59266,0.053 37.46894,-0.0707 -0.12372,-0.12372 -11.13464,-0.21209 -35.34805,-0.30046 -36.77966,-0.10605 -39.27169,-0.1414 -39.55448,-0.42418 -0.10604,-0.10604 -0.22976,-6.85752 -0.31813,-18.34564 -0.0707,-9.98583 -0.17674,-19.83026 -0.24744,-21.8451 -0.0707,-2.58041 -0.0353,-3.6762 0.0884,-3.62317 0.10605,0.0353 0.49488,0.813 0.86603,1.73205 0.75998,1.89112 1.21951,2.81017 2.7218,5.47895 2.19158,3.88829 4.04735,6.34498 8.34214,10.9579 4.31246,4.64827 11.71788,9.66769 18.46936,12.51321 3.48178,1.46694 10.30396,3.76457 12.88437,4.34781 9.29653,2.08553 21.24418,3.44643 30.11654,3.46411 l 2.2446,0 0,-0.42418 c 0,-0.24743 -0.0884,-0.49487 -0.21209,-0.56557 -0.12372,-0.0707 -1.44927,-0.15906 -2.96923,-0.19441 -9.98583,-0.19442 -18.59308,-1.16649 -27.58916,-3.14598 -3.28737,-0.72463 -5.63802,-1.37857 -8.20075,-2.29762 -9.01375,-3.21668 -15.16432,-6.64544 -21.20883,-11.7709 -3.199,-2.7218 -7.93564,-8.21843 -9.79141,-11.38208 -2.68646,-4.52455 -3.58783,-6.398 -4.7013,-9.72071 -1.07811,-3.16365 -1.25485,-3.48179 -1.85577,-3.09296 -0.31813,0.19442 -0.37115,6.30963 -0.17674,20.14839 0.0707,4.91338 0.15907,13.02576 0.19442,18.02751 l 0.0707,9.10213 -24.178068,0.0177 c -13.290868,0.0177 -24.195743,-0.0177 -24.231091,-0.0884 -0.05302,-0.0707 -0.123719,-8.46586 -0.176741,-18.66377 -0.212088,-37.27453 -0.300458,-50.37098 -0.388828,-50.68911 -0.05302,-0.15907 -0.176741,-0.30046 -0.265111,-0.30046 -0.123718,0 -0.141392,4.93105 -0.05302,14.70479 z" />
  <path
     style="fill:#000000;stroke:none"
     inkscape:connector-curvature="0"
     id="path3363"
     d="m 190.45532,466.68025 c -0.0707,0.21209 -0.74231,0.26511 -3.94131,0.30046 -2.42134,0.0353 -3.85294,0.12372 -3.85294,0.22976 0,0.10605 1.41392,0.19442 3.79992,0.22977 3.07528,0.0353 3.83526,0.0884 3.99433,0.30045 0.15906,0.21209 0.37115,0.19442 1.50229,-0.15906 0.74231,-0.22976 1.20183,-0.45953 1.04277,-0.51255 -0.33581,-0.12372 -2.22693,-0.65394 -2.35065,-0.65394 -0.053,0 -0.12372,0.12372 -0.19441,0.26511 z" />
  <path
     style="color:#000000;fill:none;stroke:none;stroke-width:1;marker:none;visibility:visible;display:inline;overflow:visible;enable-background:accumulate"
     d="m 140.81685,299.43194 c 9.48021,-10.97708 26.94376,-17.9625 26.94376,-17.9625"
     id="path3085"
     inkscape:connector-curvature="0" />
  <text
     xml:space="preserve"
     style="font-size:9.03999996px;font-style:normal;font-variant:normal;font-weight:bold;font-stretch:normal;text-indent:0;text-align:start;text-decoration:none;line-height:125%;letter-spacing:0px;word-spacing:0px;text-transform:none;direction:ltr;block-progression:tb;writing-mode:lr-tb;text-anchor:start;baseline-shift:baseline;color:#000000;fill:#000000;fill-opacity:1;fill-rule:nonzero;stroke:none;stroke-width:1.24999988px;marker:none;visibility:visible;display:inline;overflow:visible;enable-background:accumulate;font-family:Linux Libertine O;-inkscape-font-specification:Sans"
     id="text3087"
     sodipodi:linespacing="125%"
     transform="translate(-104.86091,-117.96853)"><textPath
       xlink:href="#path3085"
       id="textPath4039"><tspan
   id="tspan3089"
   style="font-size:9.03999996px">σ esu/cm<tspan
   id="tspan3091"
   style="font-size:9.03999996px;baseline-shift:super">2</tspan></tspan></textPath></text>
  <text
     xml:space="preserve"
     style="font-size:9.04000037px;font-style:normal;font-variant:normal;font-weight:bold;font-stretch:normal;text-indent:0;text-align:start;text-decoration:none;line-height:125%;letter-spacing:0px;word-spacing:0px;text-transform:none;direction:ltr;block-progression:tb;writing-mode:lr-tb;text-anchor:start;baseline-shift:baseline;color:#000000;fill:#000000;fill-opacity:1;fill-rule:nonzero;stroke:none;stroke-width:1.24999988000000006px;marker:none;visibility:visible;display:inline;overflow:visible;enable-background:accumulate;font-family:Linux Libertine O;-inkscape-font-specification:Sans"
     x="118.45342"
     y="155.22667"
     id="text3080"
     sodipodi:linespacing="125%"><tspan
       sodipodi:role="line"
       id="tspan3082"
       x="118.45342"
       y="155.22667"><tspan
   style="font-style:italic;-inkscape-font-specification:Linux Libertine O Bold Italic;font-size:9.04000037px"
   id="tspan3084">E</tspan>=4πσ</tspan></text>
  <text
     xml:space="preserve"
     style="font-size:9.04000037px;font-style:normal;font-variant:normal;font-weight:bold;font-stretch:normal;text-indent:0;text-align:start;text-decoration:none;line-height:125%;letter-spacing:0px;word-spacing:0px;text-transform:none;direction:ltr;block-progression:tb;writing-mode:lr-tb;text-anchor:start;baseline-shift:baseline;color:#000000;fill:#000000;fill-opacity:1;fill-rule:nonzero;stroke:none;stroke-width:1.24999988000000006px;marker:none;visibility:visible;display:inline;overflow:visible;enable-background:accumulate;font-family:Linux Libertine O;-inkscape-font-specification:Sans"
     x="121.38433"
     y="184.09924"
     id="text3080-0"
     sodipodi:linespacing="125%"><tspan
       sodipodi:role="line"
       id="tspan3082-1"
       x="121.38433"
       y="184.09924">σ d<tspan
   style="font-style:italic;-inkscape-font-specification:Linux Libertine O Bold Italic;font-size:9.04000037px"
   id="tspan3110">A</tspan></tspan></text>
  <text
     xml:space="preserve"
     style="font-size:9.04000037px;font-style:normal;font-variant:normal;font-weight:bold;font-stretch:normal;text-indent:0;text-align:start;text-decoration:none;line-height:125%;letter-spacing:0px;word-spacing:0px;text-transform:none;direction:ltr;block-progression:tb;writing-mode:lr-tb;text-anchor:start;baseline-shift:baseline;color:#000000;fill:#ffffff;fill-opacity:1;fill-rule:nonzero;stroke:none;stroke-width:1.24999988000000006px;marker:none;visibility:visible;display:inline;overflow:visible;enable-background:accumulate;font-family:Linux Libertine O;-inkscape-font-specification:Sans"
     x="63.004555"
     y="192.18391"
     id="text3114"
     sodipodi:linespacing="125%"><tspan
       sodipodi:role="line"
       id="tspan3116"
       x="63.004555"
       y="192.18391">E = 0</tspan></text>
  <path
     style="color:#000000;fill:none;stroke:#000000;stroke-width:0.80000003;stroke-linecap:butt;stroke-linejoin:miter;stroke-miterlimit:4;stroke-opacity:1;stroke-dasharray:3.20000013,3.20000013;stroke-dashoffset:0;marker:none;visibility:visible;display:inline;overflow:visible;enable-background:accumulate"
     d="m 117.87425,372.89141 0,-172.87174"
     id="path3886"
     inkscape:connector-curvature="0"
     sodipodi:nodetypes="cc" />
  <path
     style="color:#000000;fill:none;stroke:#000000;stroke-width:0.80000003;stroke-linecap:butt;stroke-linejoin:miter;stroke-miterlimit:4;stroke-opacity:1;stroke-dasharray:3.20000013,3.20000013;stroke-dashoffset:0;marker:none;visibility:visible;display:inline;overflow:visible;enable-background:accumulate"
     d="m 68.465508,295.28631 0,-93.5075"
     id="path3886-6"
     inkscape:connector-curvature="0"
     sodipodi:nodetypes="cc" />
  <text
     xml:space="preserve"
     style="font-size:9.03999996px;font-style:normal;font-variant:normal;font-weight:bold;font-stretch:normal;text-indent:0;text-align:start;text-decoration:none;line-height:125%;letter-spacing:0px;word-spacing:0px;text-transform:none;direction:ltr;block-progression:tb;writing-mode:lr-tb;text-anchor:start;baseline-shift:baseline;color:#000000;fill:#000000;fill-opacity:1;fill-rule:nonzero;stroke:none;stroke-width:1.24999988px;marker:none;visibility:visible;display:inline;overflow:visible;enable-background:accumulate;font-family:Linux Libertine O;-inkscape-font-specification:Sans"
     x="48.161083"
     y="318.95261"
     id="text3906"
     sodipodi:linespacing="125%"><tspan
       sodipodi:role="line"
       id="tspan3908"
       x="48.161083"
       y="318.95261">φ(<tspan
   style="font-size:9.03999996px;font-style:italic;-inkscape-font-specification:Linux Libertine O Bold Italic"
   id="tspan3914">r</tspan>)</tspan></text>
  <text
     xml:space="preserve"
     style="font-size:9.03999996px;font-style:normal;font-variant:normal;font-weight:bold;font-stretch:normal;text-indent:0;text-align:start;text-decoration:none;line-height:125%;letter-spacing:0px;word-spacing:0px;text-transform:none;direction:ltr;block-progression:tb;writing-mode:lr-tb;text-anchor:start;baseline-shift:baseline;color:#000000;fill:#000000;fill-opacity:1;fill-rule:nonzero;stroke:none;stroke-width:1.24999988px;marker:none;visibility:visible;display:inline;overflow:visible;enable-background:accumulate;font-family:Linux Libertine O;-inkscape-font-specification:Sans"
     x="48.889248"
     y="424.91232"
     id="text3910"
     sodipodi:linespacing="125%"><tspan
       sodipodi:role="line"
       id="tspan3912"
       x="48.889248"
       y="424.91232"><tspan
   style="font-size:9.03999996px;font-style:italic;-inkscape-font-specification:Linux Libertine O Bold Italic"
   id="tspan3918">E</tspan>(<tspan
   style="font-size:9.03999996px;font-style:italic;-inkscape-font-specification:Linux Libertine O Bold Italic"
   id="tspan3916">r</tspan>)</tspan></text>
  <text
     xml:space="preserve"
     style="font-size:9.04000037px;font-style:normal;font-variant:normal;font-weight:bold;font-stretch:normal;text-indent:0;text-align:start;text-decoration:none;line-height:125%;letter-spacing:0px;word-spacing:0px;text-transform:none;direction:ltr;block-progression:tb;writing-mode:lr-tb;text-anchor:start;baseline-shift:baseline;color:#000000;fill:#000000;fill-opacity:1;fill-rule:nonzero;stroke:none;stroke-width:1.24999988000000006px;marker:none;visibility:visible;display:inline;overflow:visible;enable-background:accumulate;font-family:Linux Libertine O;-inkscape-font-specification:Sans"
     x="116.52367"
     y="468.15204"
     id="text3920"
     sodipodi:linespacing="125%"><tspan
       sodipodi:role="line"
       id="tspan3922"
       x="116.52367"
       y="468.15204"><tspan
         style="font-style:italic;-inkscape-font-specification:Linux Libertine O Bold Italic;font-size:9.04000037px"
         id="tspan3926">r</tspan><tspan
         style="font-size:9.04000037px;baseline-shift:sub"
         id="tspan3924">0</tspan></tspan></text>
  <text
     xml:space="preserve"
     style="font-size:9.04000037px;font-style:normal;font-variant:normal;font-weight:bold;font-stretch:normal;text-indent:0;text-align:start;text-decoration:none;line-height:125%;letter-spacing:0px;word-spacing:0px;text-transform:none;direction:ltr;block-progression:tb;writing-mode:lr-tb;text-anchor:start;baseline-shift:baseline;color:#000000;fill:#000000;fill-opacity:1;fill-rule:nonzero;stroke:none;stroke-width:1.24999988000000006px;marker:none;visibility:visible;display:inline;overflow:visible;enable-background:accumulate;font-family:Linux Libertine O;-inkscape-font-specification:Sans"
     x="115.08808"
     y="378.32843"
     id="text3920-6"
     sodipodi:linespacing="125%"><tspan
       sodipodi:role="line"
       id="tspan3922-9"
       x="115.08808"
       y="378.32843"><tspan
         style="font-style:italic;-inkscape-font-specification:Linux Libertine O Bold Italic;font-size:9.04000037px"
         id="tspan3926-0">r</tspan><tspan
         style="font-size:9.04000037px;baseline-shift:sub"
         id="tspan3924-0">0</tspan></tspan></text>
  <text
     xml:space="preserve"
     style="font-size:9.04000037px;font-style:normal;font-variant:normal;font-weight:bold;font-stretch:normal;text-indent:0;text-align:start;text-decoration:none;line-height:125%;letter-spacing:0px;word-spacing:0px;text-transform:none;direction:ltr;block-progression:tb;writing-mode:lr-tb;text-anchor:start;baseline-shift:baseline;color:#000000;fill:#000000;fill-opacity:1;fill-rule:nonzero;stroke:none;stroke-width:1.24999988000000006px;marker:none;visibility:visible;display:inline;overflow:visible;enable-background:accumulate;font-family:Linux Libertine O;-inkscape-font-specification:Sans"
     x="144.84006"
     y="236.54584"
     id="text3955"
     sodipodi:linespacing="125%"><tspan
       sodipodi:role="line"
       id="tspan3957"
       x="144.84006"
       y="236.54584">(a)</tspan></text>
  <text
     xml:space="preserve"
     style="font-size:9.04000037px;font-style:normal;font-variant:normal;font-weight:bold;font-stretch:normal;text-indent:0;text-align:start;text-decoration:none;line-height:125%;letter-spacing:0px;word-spacing:0px;text-transform:none;direction:ltr;block-progression:tb;writing-mode:lr-tb;text-anchor:start;baseline-shift:baseline;color:#000000;fill:#000000;fill-opacity:1;fill-rule:nonzero;stroke:none;stroke-width:1.24999988000000006px;marker:none;visibility:visible;display:inline;overflow:visible;enable-background:accumulate;font-family:Linux Libertine O;-inkscape-font-specification:Sans"
     x="146.82132"
     y="332.26462"
     id="text3959"
     sodipodi:linespacing="125%"><tspan
       sodipodi:role="line"
       id="tspan3961"
       x="146.82132"
       y="332.26462">(b)</tspan></text>
  <text
     xml:space="preserve"
     style="font-size:9.04000037px;font-style:normal;font-variant:normal;font-weight:bold;font-stretch:normal;text-indent:0;text-align:start;text-decoration:none;line-height:125%;letter-spacing:0px;word-spacing:0px;text-transform:none;direction:ltr;block-progression:tb;writing-mode:lr-tb;text-anchor:start;baseline-shift:baseline;color:#000000;fill:#000000;fill-opacity:1;fill-rule:nonzero;stroke:none;stroke-width:1.24999988000000006px;marker:none;visibility:visible;display:inline;overflow:visible;enable-background:accumulate;font-family:Linux Libertine O;-inkscape-font-specification:Sans"
     x="147.08809"
     y="425.29889"
     id="text3963"
     sodipodi:linespacing="125%"><tspan
       sodipodi:role="line"
       id="tspan3965"
       x="147.08809"
       y="425.29889">(c)</tspan></text>
  <flowRoot
     xml:space="preserve"
     id="flowRoot3967"
     style="font-size:15.34455018px;font-style:normal;font-variant:normal;font-weight:bold;font-stretch:normal;text-indent:0;text-align:start;text-decoration:none;line-height:125%;letter-spacing:0px;word-spacing:0px;text-transform:none;direction:ltr;block-progression:tb;writing-mode:lr-tb;text-anchor:start;baseline-shift:baseline;color:#000000;fill:#000000;fill-opacity:1;fill-rule:nonzero;stroke:none;stroke-width:1.24999988000000006px;marker:none;visibility:visible;display:inline;overflow:visible;enable-background:accumulate;font-family:Linux Libertine O;-inkscape-font-specification:Sans"
     transform="matrix(0.58913427,0,0,0.58913427,-5.6132736e-6,126.01337)"><flowRegion
       id="flowRegion3969"><rect
         id="rect3971"
         width="134.62505"
         height="72.17849"
         x="183.28471"
         y="162.09604"
         style="font-size:15.34455018px" /></flowRegion><flowPara
       id="flowPara3973"></flowPara></flowRoot>  <text
     xml:space="preserve"
     style="font-size:9.04000037px;font-style:normal;font-variant:normal;font-weight:bold;font-stretch:normal;text-indent:0;text-align:start;text-decoration:none;line-height:125%;letter-spacing:0px;word-spacing:0px;text-transform:none;direction:ltr;block-progression:tb;writing-mode:lr-tb;text-anchor:start;baseline-shift:baseline;color:#000000;fill:#000000;fill-opacity:1;fill-rule:nonzero;stroke:none;stroke-width:1.24999988000000006px;marker:none;visibility:visible;display:inline;overflow:visible;enable-background:accumulate;font-family:Linux Libertine O;-inkscape-font-specification:Sans"
     x="176.91652"
     y="378.34042"
     id="text3920-6-8"
     sodipodi:linespacing="125%"><tspan
       sodipodi:role="line"
       id="tspan3922-9-1"
       x="176.91652"
       y="378.34042"><tspan
         style="font-style:italic;-inkscape-font-specification:Linux Libertine O Bold Italic;font-size:9.04000037px"
         id="tspan3926-0-2">r</tspan><tspan
         style="font-size:9.04000037px;baseline-shift:sub"
         id="tspan3924-0-6" /></tspan></text>
  <text
     xml:space="preserve"
     style="font-size:9.04000037px;font-style:normal;font-variant:normal;font-weight:bold;font-stretch:normal;text-indent:0;text-align:start;text-decoration:none;line-height:125%;letter-spacing:0px;word-spacing:0px;text-transform:none;direction:ltr;block-progression:tb;writing-mode:lr-tb;text-anchor:start;baseline-shift:baseline;color:#000000;fill:#000000;fill-opacity:1;fill-rule:nonzero;stroke:none;stroke-width:1.24999988000000006px;marker:none;visibility:visible;display:inline;overflow:visible;enable-background:accumulate;font-family:Linux Libertine O;-inkscape-font-specification:Sans"
     x="178.33392"
     y="468.20016"
     id="text3920-6-8-2"
     sodipodi:linespacing="125%"><tspan
       sodipodi:role="line"
       id="tspan3922-9-1-9"
       x="178.33392"
       y="468.20016"><tspan
         style="font-style:italic;-inkscape-font-specification:Linux Libertine O Bold Italic;font-size:9.04000037px"
         id="tspan3926-0-2-1">r</tspan><tspan
         style="font-size:9.04000037px;baseline-shift:sub"
         id="tspan3924-0-6-8" /></tspan></text>
  <path
     style="color:#000000;fill:#4b4b4b;fill-opacity:1;stroke:none;stroke-width:1.25000000000000000;marker:none;visibility:visible;display:inline;overflow:visible;enable-background:accumulate"
     d="m 95.803637,177.98357 6.668313,-2.73917 c 0,0 1.53155,1.73699 2.35748,3.34538 0.85318,1.66146 1.43694,3.30048 1.81863,4.44554 0.24698,0.74092 0.71847,3.27803 0.71847,3.27803 l -7.29697,2.15541 c 0,0 -0.518098,-1.78372 -1.077711,-3.43519 -0.883931,-2.60859 -1.116109,-3.00311 -1.885984,-4.75987 -0.468403,-1.06885 -1.302228,-2.29013 -1.302228,-2.29013 z"
     id="path4029"
     inkscape:connector-curvature="0"
     sodipodi:nodetypes="ccssccssc" />
  <path
     style="fill:#000000;stroke:none"
     inkscape:connector-curvature="0"
     id="path3183"
     d="m 135.73653,164.29532 c -1.87345,0.30045 -2.50971,0.38883 -2.7925,0.4065 -0.15906,0.0177 -0.14139,0.14139 0.0707,0.45952 0.15907,0.24744 0.26511,0.4772 0.22976,0.51255 -0.17674,0.14139 -2.89854,1.48462 -6.2566,3.07528 -2.03252,0.97207 -5.9915,2.88087 -8.80167,4.25944 -2.7925,1.3609 -5.46127,2.65111 -5.9208,2.86319 -1.32555,0.58325 -3.02226,1.37858 -4.50688,2.12089 -0.75998,0.38883 -1.46694,0.68928 -1.55531,0.68928 -0.10604,0 -0.31813,0.12372 -0.45953,0.28279 -0.17674,0.15907 -0.47719,0.24744 -0.77765,0.21209 -0.37116,-0.053 -0.45953,-0.0177 -0.37116,0.19441 0.0707,0.21209 0,0.21209 -0.28278,-0.053 -0.21209,-0.19441 -0.44185,-0.28278 -0.51255,-0.22976 -0.053,0.0707 -0.0177,0.12372 0.0884,0.12372 0.12372,0 0.21209,0.0884 0.21209,0.19441 0,0.10604 -0.12372,0.15907 -0.26511,0.10604 -0.14139,-0.0707 -0.30046,-0.0177 -0.37115,0.0884 -0.0707,0.12372 -0.053,0.1414 0.0707,0.0707 0.14139,-0.0707 0.17674,-0.0353 0.10605,0.14139 -0.053,0.14139 -0.21209,0.21209 -0.33581,0.17674 -0.12372,-0.053 -0.28279,-0.0177 -0.35348,0.0884 -0.053,0.10605 -0.26511,0.19442 -0.45953,0.19442 -0.22976,0 -0.31813,0.0707 -0.22976,0.21209 0.0707,0.12371 0.0707,0.17674 -0.0177,0.10604 -0.17674,-0.17674 -0.61859,0.17674 -0.61859,0.49487 0,0.14139 0.12371,0.38883 0.28278,0.56557 0.33581,0.38883 0.93672,0.33581 1.46695,-0.15906 0.19441,-0.17675 0.51254,-0.33581 0.72463,-0.33581 0.19441,0 0.4065,-0.12372 0.4772,-0.28279 0.053,-0.14139 0.19441,-0.22976 0.33581,-0.17674 0.12371,0.053 0.31813,-0.0353 0.42417,-0.17674 0.24744,-0.28278 3.00459,-1.6967 3.00459,-1.53764 0,0.053 0.14139,-0.0177 0.31813,-0.15906 0.24744,-0.22977 16.01267,-8.09471 16.20708,-8.09471 0.0353,0 1.94415,-0.91905 4.25944,-2.03251 2.29763,-1.11346 4.25944,-2.03251 4.33014,-2.03251 0.0884,0 0.24744,0.21208 0.35348,0.45952 l 0.17674,0.4772 1.09579,-1.04277 c 0.60092,-0.58324 1.50229,-1.37857 1.97949,-1.78507 0.98975,-0.84836 0.98975,-0.84836 -1.32555,-0.4772 z" />
  <path
     style="color:#000000;fill:none;stroke:#000000;stroke-width:0.73641783;stroke-linecap:butt;stroke-linejoin:miter;stroke-miterlimit:4;stroke-opacity:1;stroke-dasharray:none;stroke-dashoffset:0;marker:none;marker-end:url(#Arrow2Mend);visibility:visible;display:inline;overflow:visible;enable-background:accumulate"
     d="m 120.54585,182.59926 -15.07979,0.92958"
     id="path3112"
     inkscape:connector-curvature="0"
     sodipodi:nodetypes="cc" />
</svg>
